<svg width="549" height="405" viewBox="0 0 549 405" fill="none" xmlns="http://www.w3.org/2000/svg">
<path d="M452.136 63.9192L271.367 391.966C269.772 394.858 267.617 397.404 265.027 399.454C262.437 401.504 259.464 403.017 256.283 403.905C253.101 404.793 249.775 405.038 246.497 404.625C243.22 404.213 240.058 403.151 237.196 401.503L236.531 401.122L233.207 399.205C238.966 402.233 245.684 402.882 251.916 401.012C258.149 399.142 263.4 394.903 266.541 389.204L447.278 61.1418C450.034 56.15 450.92 50.3391 449.777 44.7527C448.634 39.1663 445.538 34.1702 441.043 30.6616C440.88 30.5274 440.723 30.4091 440.554 30.2909C440.806 30.3964 441.055 30.4986 441.292 30.6105C444.17 31.9443 446.753 33.8397 448.888 36.1854C451.024 38.5311 452.669 41.2798 453.728 44.2702C453.785 44.4057 453.834 44.5444 453.875 44.6857C453.993 44.9835 454.091 45.2888 454.169 45.5997C455.069 48.6344 455.353 51.8187 455.004 54.9649C454.655 58.1112 453.68 61.1557 452.136 63.9192Z" fill="url(#paint0_linear_210_454)"/>
<path d="M225.933 395.024C226.005 395.06 226.074 395.099 226.141 395.143C231.876 397.95 238.471 398.444 244.561 396.522C250.65 394.601 255.767 390.41 258.852 384.82L439.621 56.7825C442.034 52.4135 443.023 47.4001 442.45 42.4419C441.877 37.4837 439.771 32.828 436.425 29.1244L437.064 29.2874C438.427 29.6288 439.759 30.0875 441.043 30.6585C441.484 30.8502 441.899 31.058 442.321 31.2657C445.154 32.7428 447.662 34.7712 449.7 37.2317C451.737 39.6921 453.262 42.5349 454.185 45.5932C455.108 48.6514 455.411 51.8632 455.075 55.04C454.739 58.2167 453.771 61.2943 452.229 64.0918L271.435 392.148C269.84 395.042 267.685 397.588 265.094 399.638C262.503 401.688 259.53 403.201 256.348 404.088C253.165 404.975 249.838 405.218 246.56 404.803C243.283 404.388 240.121 403.324 237.26 401.672L225.933 395.024Z" fill="url(#paint1_linear_210_454)"/>
<path d="M233.207 399.202C232.913 399.055 232.616 398.882 232.322 398.729L226.135 395.156L226.342 395.245L233.207 399.202Z" fill="url(#paint2_linear_210_454)"/>
<path d="M447.278 61.142L266.541 389.205C263.4 394.898 258.151 399.134 251.922 401.003C245.694 402.872 238.981 402.225 233.223 399.202L226.358 395.245L134.339 342.227C130.841 340.207 128.281 336.89 127.213 332.995C126.146 329.1 126.658 324.941 128.637 321.421L305.718 7.84553C307.379 4.90253 309.96 2.58628 313.066 1.25254C316.171 -0.0812053 319.628 -0.358663 322.906 0.462779L436.204 28.9071L437 29.0989C438.212 29.3998 439.397 29.7996 440.544 30.2942C440.707 30.4125 440.864 30.5307 441.033 30.6649C445.529 34.1721 448.627 39.1669 449.772 44.7527C450.916 50.3385 450.032 56.1493 447.278 61.142Z" fill="url(#paint3_linear_210_454)"/>
<path d="M269.207 390.435L449.991 62.3724C452.869 57.156 453.7 51.0549 452.324 45.2587C450.948 39.4624 447.463 34.3862 442.548 31.0197C442.535 31.0142 442.523 31.0066 442.513 30.9973C442.113 30.7992 441.714 30.5978 441.286 30.4125H441.263C445.76 33.9197 448.858 38.9152 450.003 44.5017C451.148 50.0882 450.263 55.8997 447.508 60.8927L266.768 388.952C263.628 394.646 258.38 398.882 252.151 400.751C245.923 402.62 239.21 401.973 233.453 398.949L236.777 400.867C242.493 403.591 249.035 404.029 255.063 402.09C261.091 400.15 266.151 395.981 269.207 390.435Z" fill="url(#paint4_linear_210_454)"/>
<path d="M245.94 394.564C243.191 394.561 240.488 393.861 238.084 392.528L140.667 338.593C138.795 337.555 137.146 336.157 135.817 334.479C134.488 332.801 133.504 330.876 132.922 328.815C132.341 326.755 132.173 324.6 132.429 322.475C132.685 320.349 133.359 318.295 134.412 316.432L306.709 11.3036C308.45 8.21684 311.156 5.78641 314.411 4.38479C317.667 2.98317 321.292 2.68771 324.731 3.54369L431.774 28.1976C434.181 28.7952 436.418 29.9365 438.314 31.5337C440.211 33.131 441.715 35.1418 442.713 37.4115C443.711 39.6812 444.175 42.1495 444.07 44.6267C443.965 47.1038 443.293 49.5239 442.107 51.701L260.191 386.104C258.796 388.666 256.735 390.803 254.227 392.292C251.72 393.781 248.857 394.566 245.94 394.564Z" fill="#1A1A1A"/>
<path d="M238.64 389.422L138.98 334.153C137.591 333.383 136.368 332.346 135.383 331.101C134.397 329.856 133.668 328.428 133.236 326.899C132.805 325.371 132.681 323.772 132.871 322.196C133.061 320.619 133.561 319.096 134.342 317.713L307.37 11.6583C308.664 9.3706 310.672 7.56967 313.086 6.5308C315.5 5.49193 318.188 5.27229 320.739 5.90546L429.275 32.8189C431.061 33.2612 432.721 34.1071 434.129 35.2916C435.536 36.476 436.653 37.9675 437.394 39.6513C438.135 41.3351 438.48 43.1664 438.402 45.0043C438.324 46.8423 437.826 48.6379 436.946 50.2531L255.036 384.66C254.276 386.052 253.247 387.281 252.01 388.275C250.774 389.269 249.352 390.008 247.829 390.451C246.305 390.894 244.709 391.03 243.132 390.854C241.555 390.677 240.029 390.191 238.64 389.422Z" fill="url(#paint5_linear_210_454)"/>
<path d="M186.961 267.444C164.468 267.444 153.061 252.525 142.029 238.098C131.076 223.773 119.749 208.963 97.5212 208.963C85.5042 208.963 79.3743 215.739 73.4457 222.29C67.4404 228.932 61.2306 235.797 48.974 235.797C36.7173 235.797 30.4787 226.183 24.4735 216.886C18.5449 207.71 12.415 198.225 0.423584 198.225V197.684C12.415 197.684 18.5449 188.199 24.4735 179.023C30.4628 169.726 36.6726 160.119 48.958 160.119C61.2434 160.119 67.4244 166.984 73.4297 173.622C79.3583 180.177 85.4882 186.952 97.5052 186.952C119.733 186.952 131.063 172.142 142.013 157.818C153.045 143.381 164.452 128.478 186.961 128.478C209.471 128.478 220.839 142.026 231.884 155.13C242.837 168.138 254.163 181.586 276.398 181.586C290.46 181.586 297.616 171.848 304.551 162.426C311.563 152.899 318.815 143.046 333.136 143.046C347.458 143.046 354.716 154.27 361.731 165.124C368.663 175.859 375.835 186.959 389.856 186.959C409.604 186.959 419.665 174.101 429.4 161.666C439.208 149.128 449.356 136.165 469.35 136.165C489.344 136.165 499.517 151.87 509.328 167.054C519.06 182.12 529.124 197.697 548.853 197.697V198.237C529.124 198.237 519.06 213.815 509.328 228.881C499.517 244.065 489.373 259.77 469.35 259.77C449.327 259.77 439.196 246.807 429.4 234.269C419.665 221.833 409.604 208.976 389.856 208.976C375.819 208.976 368.647 220.076 361.731 230.808C354.7 241.674 347.467 252.889 333.136 252.889C318.806 252.889 311.563 243.036 304.551 233.508C297.616 224.087 290.447 214.332 276.398 214.332C254.163 214.332 242.84 227.784 231.884 240.792C220.839 253.896 209.429 267.444 186.961 267.444ZM97.5052 208.426C119.999 208.426 131.405 223.345 142.438 237.772C153.403 252.096 164.717 266.907 186.961 266.907C209.205 266.907 220.519 253.442 231.459 240.447C242.492 227.343 253.898 213.796 276.382 213.796C290.703 213.796 297.955 223.649 304.967 233.176C311.902 242.598 319.071 252.352 333.12 252.352C347.17 252.352 354.329 241.252 361.264 230.517C368.276 219.651 375.525 208.439 389.856 208.439C409.863 208.439 420.01 221.402 429.822 233.937C439.553 246.372 449.618 259.23 469.363 259.23C489.107 259.23 499.159 243.653 508.891 228.587C517.948 214.566 527.296 200.101 544.44 197.969C527.296 195.834 517.948 181.369 508.891 167.345C499.159 152.282 489.075 136.702 469.363 136.702C449.65 136.702 439.553 149.562 429.822 161.995C420.01 174.533 409.863 187.496 389.856 187.496C375.525 187.496 368.276 176.271 361.264 165.418C354.329 154.682 347.157 143.583 333.12 143.583C319.084 143.583 311.902 153.324 304.967 162.759C297.955 172.286 290.703 182.139 276.382 182.139C253.898 182.139 242.504 168.588 231.459 155.488C220.519 142.454 209.18 129.003 186.961 129.003C164.743 129.003 153.403 143.819 142.438 158.137C131.405 172.564 119.999 187.483 97.5052 187.483C85.2485 187.483 79.0387 180.618 73.0334 173.977C67.1049 167.425 60.9749 160.649 48.958 160.649C36.941 160.649 30.8367 170.138 24.9081 179.314C19.4909 187.697 13.9075 196.339 3.85289 197.956C13.9075 199.57 19.4909 208.212 24.9081 216.595C30.8367 225.771 36.9666 235.26 48.958 235.26C60.9494 235.26 67.1049 228.484 73.0334 221.933C79.0387 215.291 85.2485 208.426 97.5052 208.426Z" fill="url(#paint6_linear_210_454)"/>
<g opacity="0.55">
<path d="M469.363 136.421C429.611 136.421 429.611 187.214 389.856 187.214C361.488 187.214 361.488 143.301 333.12 143.301C304.753 143.301 304.753 181.852 276.382 181.852C231.664 181.852 231.664 128.734 186.961 128.734C142.259 128.734 142.24 187.221 97.5212 187.221C73.2316 187.221 73.2316 160.374 48.9708 160.374C24.71 160.374 24.6972 197.95 0.423584 197.95C24.7132 197.95 24.7132 235.522 48.9708 235.522C73.2284 235.522 73.2603 208.676 97.5212 208.676C142.217 208.698 142.217 267.185 186.961 267.185C231.705 267.185 231.679 214.074 276.398 214.074C304.769 214.074 304.769 252.617 333.136 252.617C361.504 252.617 361.488 208.698 389.856 208.698C429.611 208.698 429.611 259.492 469.363 259.492C509.114 259.492 509.118 197.956 548.866 197.956C509.118 197.956 509.118 136.421 469.363 136.421Z" fill="url(#paint7_linear_210_454)"/>
</g>
<g opacity="0.55">
<path d="M505.493 161.001C487.433 161.001 487.433 184.297 469.379 184.297C436.92 184.297 436.92 124.049 404.465 124.049C372.009 124.049 372.009 177.467 339.551 177.467C307.092 177.467 307.092 87.02 274.637 87.02C242.182 87.02 242.182 177.467 209.726 177.467C177.271 177.467 177.268 124.049 144.812 124.049C112.357 124.049 112.357 184.297 79.8953 184.297C61.8315 184.297 61.8315 161.001 43.7805 161.001C25.7295 161.001 25.7168 197.956 7.66577 197.956C25.7232 197.956 25.7232 234.908 43.7805 234.908C61.8379 234.908 61.8411 211.613 79.8953 211.613C112.351 211.613 112.351 271.86 144.806 271.86C177.261 271.86 177.268 218.443 209.726 218.443C242.185 218.443 242.182 308.889 274.637 308.889C307.092 308.889 307.092 218.443 339.551 218.443C372.009 218.443 372.009 271.86 404.462 271.86C436.914 271.86 436.917 211.613 469.375 211.613C487.433 211.613 487.433 234.908 505.49 234.908C523.548 234.908 523.551 197.956 541.605 197.956C523.554 197.956 523.554 161.001 505.493 161.001Z" fill="url(#paint8_linear_210_454)"/>
</g>
<g opacity="0.55">
<path d="M500.188 179.669C476.777 179.669 476.777 192.584 453.363 192.584C418.847 192.584 418.847 171.001 384.349 171.001C358.842 171.001 352.185 185.725 336.515 193.405C329.097 197.042 319.857 196.329 313.27 191.612C305.897 186.329 300.294 179.669 286.162 179.669C262.751 179.669 262.751 192.584 239.337 192.584C204.82 192.584 204.82 171.001 170.304 171.001C135.787 171.001 135.825 192.584 101.308 192.584C77.8978 192.584 77.8978 179.669 54.4839 179.669C31.07 179.669 31.0701 197.956 7.66577 197.956C31.0764 197.956 31.0764 216.241 54.4871 216.241C77.8978 216.241 77.8946 203.326 101.308 203.326C135.825 203.326 135.825 224.908 170.323 224.908C204.82 224.908 204.84 203.326 239.356 203.326C262.77 203.326 262.77 216.241 286.181 216.241C300.314 216.241 305.916 209.58 313.289 204.297C319.876 199.58 329.116 198.864 336.534 202.504C352.194 210.175 358.861 224.908 384.368 224.908C418.885 224.908 418.885 203.326 453.383 203.326C476.796 203.326 476.796 216.241 500.207 216.241C523.618 216.241 523.621 197.956 547.032 197.956C523.602 197.956 523.602 179.669 500.188 179.669Z" fill="url(#paint9_linear_210_454)"/>
</g>
<path d="M274.637 309.164C258.219 309.164 249.938 286.079 241.929 263.759C233.98 241.617 225.764 218.711 209.726 218.711C193.689 218.711 185.437 232.224 177.498 245.289C169.482 258.485 161.198 272.135 144.812 272.135C128.426 272.135 120.136 256.75 112.12 241.869C104.185 227.123 95.9678 211.894 79.8951 211.894C70.9943 211.894 66.6477 217.5 62.0455 223.438C57.5711 229.213 52.9337 235.19 43.7708 235.19C34.6079 235.19 29.9449 225.72 25.4705 216.56C21.0664 207.551 16.5217 198.237 7.64966 198.237V197.697C16.5122 197.697 21.0728 188.381 25.4705 179.371C29.9449 170.215 34.5727 160.745 43.7708 160.745C52.9689 160.745 57.5647 166.722 62.0455 172.497C66.6477 178.435 70.9943 184.041 79.8951 184.041C95.9614 184.041 104.185 168.799 112.114 154.059C120.13 139.179 128.414 123.793 144.806 123.793C161.198 123.793 169.476 137.437 177.491 150.639C185.43 163.705 193.641 177.217 209.72 177.217C225.799 177.217 233.974 154.318 241.923 132.154C249.932 109.83 258.222 86.7483 274.63 86.7483C291.039 86.7483 299.329 109.83 307.338 132.154C315.287 154.302 323.504 177.217 339.544 177.217C355.585 177.217 363.834 163.705 371.77 150.639C379.785 137.443 388.069 123.793 404.455 123.793C420.841 123.793 429.131 139.179 437.147 154.059C445.089 168.799 453.299 184.041 469.369 184.041C478.266 184.041 482.613 178.432 487.215 172.497C491.69 166.722 496.327 160.745 505.487 160.745C514.647 160.745 519.313 170.215 523.79 179.371C528.194 188.381 532.739 197.697 541.611 197.697V198.237C532.749 198.237 528.188 207.551 523.79 216.56C519.316 225.72 514.685 235.19 505.487 235.19C496.289 235.19 491.696 229.216 487.215 223.438C482.613 217.5 478.266 211.894 469.369 211.894C453.299 211.894 445.079 227.136 437.147 241.876C429.131 256.756 420.847 272.142 404.455 272.142C388.063 272.142 379.785 258.498 371.77 245.295C363.831 232.23 355.62 218.717 339.544 218.717C323.468 218.717 315.287 241.617 307.338 263.765C299.335 286.079 291.055 309.164 274.637 309.164ZM209.726 218.171C226.141 218.171 234.425 241.256 242.434 263.576C250.379 285.725 258.596 308.64 274.637 308.64C290.677 308.64 298.894 285.737 306.84 263.576C314.849 241.256 323.139 218.171 339.551 218.171C355.927 218.171 364.217 231.815 372.236 245.017C380.175 258.086 388.385 271.598 404.461 271.598C420.537 271.598 428.751 256.357 436.68 241.613C444.696 226.736 452.98 211.351 469.375 211.351C478.535 211.351 483.169 217.324 487.647 223.102C492.249 229.037 496.596 234.646 505.493 234.646C514.391 234.646 518.916 225.33 523.314 216.32C527.347 208.068 531.505 199.564 539.016 197.963C531.505 196.365 527.347 187.854 523.314 179.602C518.91 170.592 514.365 161.276 505.493 161.276C496.621 161.276 492.249 166.885 487.647 172.82C483.172 178.598 478.535 184.571 469.375 184.571C452.986 184.571 444.696 169.186 436.68 154.305C428.741 139.565 420.528 124.324 404.461 124.324C388.395 124.324 380.172 137.836 372.236 150.905C364.217 164.098 355.937 177.751 339.551 177.751C323.165 177.751 314.849 154.67 306.84 132.346C298.894 110.201 290.677 87.298 274.637 87.298C258.596 87.298 250.379 110.201 242.434 132.362C234.425 154.682 226.134 177.764 209.726 177.764C193.318 177.764 185.043 164.091 177.053 150.898C169.099 137.83 160.888 124.324 144.812 124.324C128.736 124.324 120.523 139.565 112.593 154.305C104.578 169.186 96.2938 184.571 79.9015 184.571C70.7386 184.571 66.1076 178.598 61.6268 172.82C57.0246 166.885 52.678 161.276 43.7772 161.276C34.8763 161.276 30.354 170.592 25.9595 179.602C21.9262 187.854 17.7682 196.358 10.2576 197.963C17.7682 199.561 21.9262 208.068 25.9595 216.32C30.3572 225.317 34.9147 234.64 43.7804 234.64C52.6461 234.64 57.0278 229.031 61.63 223.096C66.1044 217.318 70.7418 211.344 79.9047 211.344C96.2906 211.344 104.581 226.73 112.597 241.607C120.535 256.35 128.746 271.592 144.815 271.592C160.885 271.592 169.105 258.079 177.041 245.011C185.043 231.815 193.353 218.171 209.726 218.171Z" fill="url(#paint10_linear_210_454)"/>
<path d="M275.468 283.782C261.207 283.782 254.557 244.036 247.519 201.964C240.9 162.401 234.054 121.489 221.158 121.489C208.263 121.489 201.41 157.195 194.798 191.724C187.767 228.516 181.093 263.266 166.852 263.266C152.611 263.266 145.96 231.006 138.91 196.873C132.31 164.846 125.464 131.742 112.546 131.742C99.6275 131.742 92.7945 166.147 86.1819 199.43C79.1348 234.905 72.4775 268.402 58.2393 268.402C44.129 268.402 36.5257 250.463 29.1718 233.112C22.0255 216.231 14.6332 198.79 1.59351 198.79V197.192C15.7038 197.192 23.3071 215.135 30.6579 232.486C37.8073 249.351 45.1965 266.792 58.2425 266.792C71.1576 266.792 77.9938 232.39 84.6063 199.116C91.6375 163.641 98.3107 130.144 112.549 130.144C126.787 130.144 133.441 162.398 140.492 196.547C147.101 228.558 153.934 261.662 166.855 261.662C179.777 261.662 186.6 225.956 193.213 191.414C200.26 154.622 206.917 119.872 221.158 119.872C235.4 119.872 242.067 159.617 249.107 201.689C255.726 241.256 262.572 282.164 275.468 282.164C288.364 282.164 295.21 242.576 301.825 204.252C308.857 163.497 315.52 124.992 329.774 124.992C344.029 124.992 350.679 162.241 357.72 201.673C364.339 238.74 371.179 277.041 384.081 277.041C396.983 277.041 403.842 245.238 410.448 214.483C417.501 181.657 424.162 150.652 438.39 150.652C452.619 150.652 459.26 177.908 466.33 206.78C472.929 233.764 479.753 261.665 492.703 261.665C505.743 261.665 512.541 245.439 519.115 229.747C525.89 213.566 532.899 196.828 547.013 196.828V198.426C533.97 198.426 527.172 214.655 520.601 230.348C513.822 246.529 506.817 263.266 492.703 263.266C478.49 263.266 471.824 236.011 464.764 207.154C458.164 180.171 451.34 152.27 438.39 152.27C425.44 152.27 418.633 184.073 412.023 214.828C404.97 247.651 398.309 278.658 384.081 278.658C369.852 278.658 363.179 241.409 356.135 201.974C349.519 164.926 342.677 126.618 329.774 126.618C316.872 126.618 310.033 166.223 303.414 204.543C296.373 245.286 289.722 283.782 275.468 283.782Z" fill="url(#paint11_linear_210_454)"/>
<defs>
<linearGradient id="paint0_linear_210_454" x1="252.07" y1="404.143" x2="438.141" y2="49.7194" gradientUnits="userSpaceOnUse">
<stop stop-color="#414141"/>
<stop offset="0.31" stop-color="#292929"/>
<stop offset="0.49" stop-color="#1A1A1A"/>
<stop offset="0.77" stop-color="#1C1C1C"/>
<stop offset="0.87" stop-color="#232323"/>
<stop offset="0.94" stop-color="#2E2E2E"/>
<stop offset="1" stop-color="#414141"/>
</linearGradient>
<linearGradient id="paint1_linear_210_454" x1="385.874" y1="242.016" x2="351.111" y2="222.747" gradientUnits="userSpaceOnUse">
<stop offset="0.58" stop-color="#F2F2F2"/>
<stop offset="0.61" stop-color="#F0F0F0"/>
<stop offset="0.62" stop-color="#E8E9EB"/>
<stop offset="0.63" stop-color="#DCDDE1"/>
<stop offset="0.64" stop-color="#B2B5C2"/>
<stop offset="0.65" stop-color="#9499AD"/>
<stop offset="0.66" stop-color="#495275"/>
<stop offset="0.67" stop-color="#000D3F"/>
<stop offset="0.74" stop-color="#001A57"/>
<stop offset="0.88" stop-color="#003B93"/>
<stop offset="0.93" stop-color="#0048AA"/>
</linearGradient>
<linearGradient id="paint2_linear_210_454" x1="229.714" y1="397.099" x2="229.631" y2="397.249" gradientUnits="userSpaceOnUse">
<stop stop-color="#414141"/>
<stop offset="0.31" stop-color="#292929"/>
<stop offset="0.49" stop-color="#1A1A1A"/>
<stop offset="0.77" stop-color="#1C1C1C"/>
<stop offset="0.87" stop-color="#232323"/>
<stop offset="0.94" stop-color="#2E2E2E"/>
<stop offset="1" stop-color="#414141"/>
</linearGradient>
<linearGradient id="paint3_linear_210_454" x1="391.326" y1="3.23691" x2="187.482" y2="374.065" gradientUnits="userSpaceOnUse">
<stop stop-color="#001155"/>
<stop offset="0.13" stop-color="#00276D"/>
<stop offset="0.41" stop-color="#005FA9"/>
<stop offset="0.49" stop-color="#0071BC"/>
<stop offset="0.72" stop-color="#006FBA"/>
<stop offset="0.8" stop-color="#0069B3"/>
<stop offset="0.86" stop-color="#005EA8"/>
<stop offset="0.91" stop-color="#004E97"/>
<stop offset="0.95" stop-color="#003A81"/>
<stop offset="0.98" stop-color="#002166"/>
<stop offset="1" stop-color="#001155"/>
</linearGradient>
<linearGradient id="paint4_linear_210_454" x1="233.453" y1="216.848" x2="452.986" y2="216.848" gradientUnits="userSpaceOnUse">
<stop offset="0.02" stop-color="#00123F"/>
<stop offset="0.03" stop-color="#10214B"/>
<stop offset="0.07" stop-color="#414F70"/>
<stop offset="0.11" stop-color="#6E7992"/>
<stop offset="0.14" stop-color="#959DB0"/>
<stop offset="0.19" stop-color="#B6BBC8"/>
<stop offset="0.23" stop-color="#D1D4DC"/>
<stop offset="0.28" stop-color="#E5E7EC"/>
<stop offset="0.33" stop-color="#F4F5F7"/>
<stop offset="0.4" stop-color="#FCFDFD"/>
<stop offset="0.5" stop-color="white"/>
<stop offset="0.54" stop-color="#F8F9FA"/>
<stop offset="0.61" stop-color="#E5E7EC"/>
<stop offset="0.68" stop-color="#C6CAD4"/>
<stop offset="0.77" stop-color="#9BA2B4"/>
<stop offset="0.86" stop-color="#636E8A"/>
<stop offset="0.96" stop-color="#213058"/>
<stop offset="1" stop-color="#00123F"/>
</linearGradient>
<linearGradient id="paint5_linear_210_454" x1="579.506" y1="70.097" x2="-56.545" y2="343.288" gradientUnits="userSpaceOnUse">
<stop stop-color="#1E7DA9"/>
<stop offset="0.25" stop-color="#02C7DC"/>
<stop offset="0.55" stop-color="#0E648A"/>
<stop offset="0.7" stop-color="#143564"/>
<stop offset="0.79" stop-color="#192B5B"/>
<stop offset="1" stop-color="#231749"/>
</linearGradient>
<linearGradient id="paint6_linear_210_454" x1="0.407604" y1="197.953" x2="548.866" y2="197.953" gradientUnits="userSpaceOnUse">
<stop stop-color="#0071BC"/>
<stop offset="0.44" stop-color="#2E3192"/>
<stop offset="1" stop-color="#0071BC"/>
</linearGradient>
<linearGradient id="paint7_linear_210_454" x1="0.407604" y1="197.953" x2="548.866" y2="197.953" gradientUnits="userSpaceOnUse">
<stop stop-color="#29ABE2"/>
<stop offset="1" stop-color="#93278F"/>
</linearGradient>
<linearGradient id="paint8_linear_210_454" x1="7.65938" y1="197.953" x2="541.618" y2="197.953" gradientUnits="userSpaceOnUse">
<stop stop-color="#00FFFF"/>
<stop offset="1" stop-color="#FF00FF"/>
</linearGradient>
<linearGradient id="paint9_linear_210_454" x1="17.1004" y1="197.953" x2="533.851" y2="197.953" gradientUnits="userSpaceOnUse">
<stop stop-color="#FF00FF"/>
<stop offset="1" stop-color="#0071BC"/>
</linearGradient>
<linearGradient id="paint10_linear_210_454" x1="7.65605" y1="197.956" x2="541.618" y2="197.956" gradientUnits="userSpaceOnUse">
<stop stop-color="#00FFFF"/>
<stop offset="1" stop-color="#FF00FF"/>
</linearGradient>
<linearGradient id="paint11_linear_210_454" x1="1.59031" y1="201.827" x2="547.013" y2="201.827" gradientUnits="userSpaceOnUse">
<stop stop-color="#29ABE2"/>
<stop offset="1" stop-color="#00FFFF"/>
</linearGradient>
</defs>
</svg>
