<svg width="28" height="30" viewBox="0 0 28 30" fill="none" xmlns="http://www.w3.org/2000/svg">
<g clip-path="url(#clip0_186_520)">
<path d="M13.3099 20.0636L0 12.5299V9.15172L2.98212 7.46447L6.65434 9.54407L11.0265 7.0794V2.98579L10.334 2.59222L9.64266 2.98579V6.29712L6.65434 7.98437L3.67345 6.29105V3.76564L5.96301 2.46589V4.9998L6.65434 5.39215L7.3469 4.9998V1.68725L10.3278 0L13.3099 1.68725V8.38158L6.65434 12.1472L2.98212 10.0579L2.28956 10.4466V11.2313L11.0265 16.1728V13.8248L10.3278 14.2123L8.03823 12.9186L13.3099 9.93643V20.0636ZM2.98212 19.9421L6.65805 17.8564L13.3099 21.6221V28.3115L10.3278 30.0036L7.3469 28.3127V24.9978L6.65434 24.6078L5.96301 24.9978V27.5353L3.67345 26.238V23.7114L6.65434 22.0168L9.63646 23.7041V27.0154L10.3278 27.4078L11.0265 27.0154V22.9218L6.65805 20.4523L2.98212 22.5355L0 20.8483V14.0908L5.27416 17.0754L2.98212 18.3702L2.28956 17.9815V19.557L2.98212 19.9421Z" fill="white"/>
<path d="M28 15.9044V9.15172L25.0266 7.46447L22.7284 8.76301L25.7105 10.4466V12.0136L16.9834 7.0794V2.98579L17.6747 2.59222L18.3636 2.98579V6.29712L21.3445 7.98437L24.3266 6.29105V3.76564L22.037 2.46589V4.9998L21.3445 5.39215L20.6569 4.9998V1.68725L17.6747 0L14.6938 1.68725V8.38158L28 15.9044ZM19.9643 17.0778L14.6938 20.0636V9.93643L28 17.4677V20.8459L25.0266 22.5331L21.3445 20.4559L16.9834 22.9218V27.0154L17.6747 27.4078L18.3636 27.0154V23.7029L21.3445 22.0156L24.3266 23.7102V26.238L22.037 27.5365V24.9978L21.3445 24.6078L20.6569 24.9978V28.3127L17.6747 30.0036L14.6938 28.3127V21.6221L21.3445 17.8625L25.0266 19.9433L25.7154 19.551V18.765L16.9884 13.8248V16.1765L17.6797 15.7841L19.9643 17.0778Z" fill="#A5A5A5"/>
</g>
<defs>
<clipPath id="clip0_186_520">
<rect width="28" height="30" fill="white"/>
</clipPath>
</defs>
</svg>
