<svg width="126" height="30" viewBox="0 0 126 30" fill="none" xmlns="http://www.w3.org/2000/svg">
<path d="M15.6645 29.0781C11.3208 29.0781 8.80582 24.1912 6.37447 19.4633C4.40639 15.6589 2.37562 11.6953 0 11.6953V8.92847C4.08593 8.92847 6.5138 13.646 8.86155 18.2078C10.9097 22.1921 13.0415 26.3113 15.6645 26.3113C18.2874 26.3113 20.3948 22.2059 22.4325 18.2355C24.7838 13.6598 27.2116 8.92847 31.3289 8.92847V11.6953C28.922 11.6953 26.8912 15.6589 24.9231 19.4875C22.5057 24.2015 20.0012 29.0781 15.6645 29.0781Z" fill="url(#paint0_linear_48_48)"/>
<path d="M34.53 21.9811C34.53 23.2677 34.8539 24.2673 35.5018 24.9728C36.1497 25.6784 37.0693 26.0346 38.2641 26.0346C38.5776 26.0346 39.1976 26.0104 40.1311 25.9585C40.4446 25.9585 40.5979 26.1003 40.5979 26.3839V28.4314C40.6068 28.4876 40.6036 28.5451 40.5884 28.6C40.5733 28.6549 40.5465 28.7059 40.5099 28.7498C40.4734 28.7936 40.4278 28.8292 40.3763 28.8542C40.3248 28.8792 40.2686 28.8931 40.2113 28.8948C39.2742 28.9467 38.5776 28.9709 38.1213 28.9709C36.0731 28.9709 34.4324 28.4049 33.1993 27.2728C31.9662 26.1407 31.3509 24.4275 31.3532 22.1333V4.13142C31.3438 4.0684 31.3494 4.00408 31.3695 3.9436C31.3897 3.88311 31.4238 3.82815 31.4691 3.78311C31.5145 3.73806 31.5699 3.70419 31.6308 3.68419C31.6917 3.6642 31.7565 3.65865 31.8199 3.66797H33.8403C34.0725 3.66797 34.2153 3.80977 34.2687 4.09337L34.53 8.77629H39.5877C39.6444 8.76973 39.7018 8.77592 39.7557 8.7944C39.8096 8.81289 39.8586 8.84319 39.8991 8.88306C39.9396 8.92293 39.9705 8.97135 39.9896 9.02472C40.0086 9.07808 40.0154 9.13502 40.0092 9.19132V11.1247C40.0092 11.4325 39.8664 11.5881 39.5808 11.5881H34.53V21.9811Z" fill="black"/>
<path d="M43.6319 10.1597C45.6035 8.82008 48.0558 8.15027 50.9887 8.15027C53.4224 8.15027 55.322 8.7878 56.6874 10.0629C58.0529 11.3379 58.7333 13.1986 58.7286 15.645V27.2347C58.7385 27.3455 58.7091 27.4562 58.6455 27.5478C58.5819 27.6394 58.4881 27.706 58.3803 27.7362C55.9689 28.5807 53.4271 28.9986 50.8703 28.9709C48.4552 28.9709 46.4581 28.4567 44.879 27.4284C43.2999 26.4 42.508 24.8022 42.5034 22.6348C42.5034 20.6542 43.2558 19.1359 44.7605 18.0798C46.2653 17.0238 48.3019 16.4947 50.8703 16.4924C52.4368 16.5135 53.9986 16.6697 55.5379 16.9593V15.7211C55.5379 14.1232 55.1757 12.9381 54.4511 12.1657C53.7266 11.3933 52.533 11.0071 50.8703 11.0071C48.9313 10.9715 47.0199 11.4669 45.3457 12.4389C45.3022 12.4766 45.2506 12.5038 45.1948 12.5184C45.139 12.5331 45.0805 12.5348 45.0239 12.5234C44.9674 12.5121 44.9142 12.4879 44.8685 12.4529C44.8228 12.4178 44.7859 12.3728 44.7605 12.3213L43.6319 10.6992C43.5042 10.4687 43.5042 10.2888 43.6319 10.1597ZM45.6941 22.6348C45.6745 23.1564 45.796 23.6737 46.046 24.1329C46.2959 24.5921 46.6651 24.9764 47.1153 25.246C48.0627 25.8478 49.3144 26.1499 50.8703 26.1522C52.4519 26.1497 54.0245 25.9167 55.5379 25.4605V19.6604C53.9996 19.3648 52.4371 19.2109 50.8703 19.2004C47.4195 19.2004 45.6941 20.3452 45.6941 22.6348Z" fill="black"/>
<path d="M71.7633 28.8568C71.0393 28.937 70.3112 28.9751 69.5827 28.971C67.725 28.971 66.2794 28.36 65.246 27.1379C64.2126 25.9159 63.6959 24.1578 63.6959 21.8636V1.35076C63.6959 1.06716 63.8527 0.925361 64.1627 0.925361H66.4826C66.5407 0.917314 66.6 0.92277 66.6557 0.941304C66.7113 0.959837 66.7619 0.990941 66.8034 1.03217C66.845 1.0734 66.8763 1.12363 66.895 1.17891C66.9136 1.23419 66.9191 1.29302 66.911 1.35076V21.9189C66.911 23.39 67.163 24.4529 67.6669 25.1077C68.1755 25.7649 68.9348 26.09 69.945 26.09C70.5273 26.0869 71.1089 26.0488 71.6866 25.9758C71.9967 25.9758 72.1499 26.1176 72.1499 26.4013V28.3726C72.16 28.4871 72.1256 28.6011 72.0537 28.6911C71.9817 28.7812 71.8778 28.8405 71.7633 28.8568Z" fill="black"/>
<path d="M91.1375 28.5456H88.2603C88.1486 28.5472 88.0379 28.5239 87.9366 28.4771C87.8353 28.4304 87.7459 28.3616 87.6751 28.2758L80.2835 19.3527L78.298 21.2445V28.1202C78.298 28.4038 78.1447 28.5456 77.8312 28.5456H75.5392C75.481 28.5536 75.4218 28.5482 75.3661 28.5296C75.3104 28.5111 75.2599 28.48 75.2183 28.4388C75.1768 28.3975 75.1455 28.3473 75.1268 28.292C75.1081 28.2367 75.1026 28.1779 75.1107 28.1202V1.35076C75.1026 1.29302 75.1081 1.23419 75.1268 1.17891C75.1455 1.12363 75.1768 1.0734 75.2183 1.03217C75.2599 0.990941 75.3104 0.959837 75.3661 0.941304C75.4218 0.92277 75.481 0.917314 75.5392 0.925361H77.8347C78.1482 0.925361 78.3015 1.06716 78.3015 1.35076V17.3432L87.0968 8.80746C87.1631 8.72964 87.2467 8.6682 87.341 8.62798C87.4353 8.58776 87.5378 8.56988 87.6402 8.57573H90.4791C90.6638 8.57573 90.7717 8.63107 90.81 8.74866C90.8273 8.81625 90.8235 8.88741 90.7992 8.95284C90.775 9.01826 90.7314 9.07488 90.6742 9.11527L82.4257 17.1911L91.3743 28.006C91.6321 28.3657 91.5624 28.5456 91.1375 28.5456Z" fill="black"/>
<path d="M97.9473 26.6158C97.9581 26.8978 97.91 27.179 97.8061 27.4417C97.7022 27.7044 97.5448 27.943 97.3436 28.1424C97.1424 28.3418 96.9019 28.4978 96.6371 28.6005C96.3724 28.7032 96.0891 28.7505 95.805 28.7393C95.5183 28.7533 95.2319 28.7072 94.9642 28.6041C94.6966 28.501 94.4538 28.3433 94.2515 28.141C94.0562 27.9385 93.9037 27.6992 93.8032 27.4373C93.7027 27.1753 93.6561 26.8959 93.6663 26.6158C93.6539 26.3296 93.6993 26.0439 93.7998 25.7754C93.9003 25.5069 94.0539 25.2611 94.2515 25.0525C94.4536 24.8498 94.6963 24.6915 94.9639 24.5878C95.2315 24.4841 95.5181 24.4374 95.805 24.4507C96.0894 24.4417 96.3726 24.4904 96.6374 24.5939C96.9021 24.6973 97.1428 24.8534 97.3447 25.0525C97.5469 25.2587 97.7046 25.5037 97.8082 25.7725C97.9118 26.0413 97.9592 26.3282 97.9473 26.6158Z" fill="black"/>
<path d="M102.267 10.1597C104.233 8.82008 106.685 8.15027 109.62 8.15027C112.058 8.15027 113.958 8.7878 115.319 10.0629C116.679 11.3379 117.361 13.1986 117.363 15.645V27.2347C117.372 27.3454 117.343 27.4558 117.279 27.5472C117.216 27.6386 117.122 27.7054 117.015 27.7362C114.604 28.581 112.062 28.9989 109.505 28.9709C107.094 28.9709 105.097 28.4567 103.514 27.4284C101.93 26.4 101.139 24.8022 101.141 22.6348C101.141 20.6542 101.894 19.1359 103.399 18.0798C104.903 17.0238 106.939 16.4947 109.505 16.4924C111.073 16.5136 112.635 16.6699 114.176 16.9593V15.7211C114.176 14.1232 113.813 12.9381 113.086 12.1657C112.359 11.3933 111.164 11.0071 109.501 11.0071C107.562 10.9718 105.651 11.4672 103.977 12.4389C103.934 12.4766 103.882 12.5038 103.827 12.5184C103.771 12.5331 103.713 12.5348 103.657 12.5234C103.6 12.512 103.547 12.4879 103.502 12.4528C103.457 12.4177 103.42 12.3727 103.395 12.3213L102.267 10.6992C102.134 10.4687 102.134 10.2888 102.267 10.1597ZM104.329 22.6348C104.308 23.1561 104.429 23.6733 104.679 24.1325C104.928 24.5918 105.297 24.9763 105.746 25.246C106.694 25.8478 107.945 26.1499 109.501 26.1522C111.084 26.1495 112.658 25.9164 114.173 25.4605V19.6604C112.633 19.365 111.069 19.211 109.501 19.2004C106.053 19.2004 104.329 20.3452 104.329 22.6348Z" fill="black"/>
<path d="M125.999 2.97273C126.005 3.22301 125.96 3.47193 125.866 3.70443C125.773 3.93693 125.633 4.14817 125.454 4.32536C125.276 4.50255 125.064 4.642 124.83 4.73528C124.596 4.82856 124.345 4.87372 124.093 4.86803C123.836 4.8748 123.58 4.83023 123.341 4.73695C123.102 4.64367 122.884 4.50359 122.7 4.32503C122.339 3.96636 122.136 3.47993 122.136 2.97273C122.136 2.46553 122.339 1.97909 122.7 1.62042C122.884 1.44232 123.102 1.30277 123.341 1.21008C123.581 1.1174 123.836 1.07346 124.093 1.08088C124.343 1.07373 124.593 1.11589 124.826 1.20493C125.06 1.29398 125.274 1.42814 125.455 1.59967C125.637 1.77842 125.779 1.99287 125.873 2.22929C125.966 2.46572 126.009 2.71892 125.999 2.97273ZM125.222 28.5455H122.912C122.602 28.5455 122.449 28.4037 122.449 28.1201V9.03907C122.44 8.97639 122.445 8.91242 122.465 8.85224C122.485 8.79206 122.519 8.73732 122.564 8.69235C122.609 8.64738 122.664 8.61343 122.724 8.59317C122.785 8.57291 122.849 8.5669 122.912 8.57562H125.211C125.497 8.57562 125.64 8.7278 125.64 9.03907V28.1201C125.648 28.1768 125.642 28.2346 125.624 28.289C125.606 28.3434 125.576 28.393 125.535 28.434C125.495 28.475 125.446 28.5064 125.391 28.5257C125.337 28.545 125.279 28.5518 125.222 28.5455Z" fill="black"/>
<defs>
<linearGradient id="paint0_linear_48_48" x1="-3.42758" y1="18.9998" x2="32.5899" y2="18.9998" gradientUnits="userSpaceOnUse">
<stop stop-color="#52F1FF"/>
<stop offset="1" stop-color="#FF0EFF"/>
</linearGradient>
</defs>
</svg>
