<svg width="726" height="575" viewBox="0 0 726 575" fill="none" xmlns="http://www.w3.org/2000/svg">
<g clip-path="url(#clip0_186_613)">
<path d="M638.214 494.07C635.25 494.064 632.34 493.279 629.776 491.793L597.992 473.472C597.366 473.124 596.845 472.614 596.483 471.996C596.122 471.378 595.934 470.675 595.938 469.959C595.935 469.24 596.123 468.533 596.484 467.91C596.845 467.288 597.365 466.773 597.992 466.418L629.776 448.097C632.363 446.604 635.297 445.819 638.284 445.819C641.271 445.819 644.206 446.604 646.793 448.097L678.577 466.418C679.196 466.779 679.709 467.296 680.065 467.917C680.42 468.539 680.606 469.243 680.602 469.959C680.607 470.671 680.421 471.372 680.065 471.989C679.71 472.606 679.196 473.118 678.577 473.472L646.737 491.765C644.151 493.275 641.209 494.071 638.214 494.07ZM630.423 490.585C632.797 491.951 635.488 492.67 638.228 492.67C640.968 492.67 643.659 491.951 646.033 490.585L677.818 472.263C678.224 472.032 678.561 471.697 678.793 471.291C679.026 470.886 679.145 470.426 679.14 469.959C679.148 469.491 679.03 469.03 678.797 468.624C678.565 468.218 678.226 467.883 677.818 467.655L646.033 449.305C643.659 447.939 640.968 447.22 638.228 447.22C635.488 447.22 632.797 447.939 630.423 449.305L598.639 467.655C598.227 467.882 597.884 468.216 597.647 468.622C597.409 469.027 597.285 469.489 597.288 469.959C597.288 470.428 597.413 470.889 597.651 471.294C597.888 471.699 598.229 472.034 598.639 472.263L630.423 490.585Z" fill="url(#paint0_linear_186_613)"/>
<path d="M263.527 557.718C257.663 557.88 251.854 556.546 246.651 553.84L45.2854 437.615C43.3175 436.699 41.6319 435.271 40.4048 433.482C39.1778 431.692 38.4542 429.607 38.3098 427.442C38.3098 422.693 41.8539 417.916 48.0138 414.375L478.843 165.795C490.319 159.163 507.758 158.461 517.716 164.193L719.024 280.447C720.998 281.355 722.688 282.781 723.916 284.572C725.145 286.363 725.865 288.452 726 290.619C726 295.34 722.456 300.117 716.296 303.658L285.467 552.266C278.732 555.906 271.184 557.782 263.527 557.718ZM247.297 552.632C256.861 558.252 273.681 557.437 284.763 551.03L715.593 302.534C721.218 299.246 724.594 294.919 724.594 290.703C724.448 288.785 723.789 286.94 722.686 285.363C721.582 283.786 720.075 282.535 718.321 281.739L517.012 165.514C507.449 159.894 490.629 160.681 479.547 167.088L48.717 415.584C43.0915 418.872 39.7162 423.199 39.7162 427.442C39.8635 429.357 40.5235 431.197 41.6271 432.769C42.7306 434.341 44.2371 435.588 45.9886 436.378L247.297 552.632Z" fill="url(#paint1_linear_186_613)"/>
<path d="M708.308 226.999L708.533 227.28L518.081 117.293C508.349 111.673 491.388 112.403 480.165 118.867L53.4424 365.002L39.3787 359.691L43.3728 379.615C43.7755 381.34 44.5608 382.952 45.6708 384.334C46.7808 385.715 48.1871 386.829 49.7859 387.595L246.341 501.095C256.073 506.715 273.034 505.984 284.257 499.521L711.936 252.655C714.101 251.63 716.025 250.162 717.585 248.347C719.145 246.532 720.307 244.409 720.993 242.117L725.072 222.699L708.308 226.999Z" fill="url(#paint2_radial_186_613)"/>
<path d="M246.932 483.335L45.623 367.194C35.8346 361.574 37.1847 351.71 48.4357 345.191L479.209 96.6951C490.46 90.1757 507.59 89.4731 517.378 95.0933L718.687 211.347C728.475 216.967 727.125 226.83 715.874 233.35L285.101 481.846C273.822 488.365 256.72 489.096 246.932 483.335Z" fill="url(#paint3_radial_186_613)"/>
<path opacity="0.4" d="M247.213 470.465L61.8806 363.4C52.3172 357.78 53.4423 348.254 64.5527 341.875L479.322 102.512C490.376 96.1331 507.083 95.4586 516.619 100.966L703.582 208.874C713.146 214.494 712.021 224.02 700.91 230.399L284.623 468.919C273.456 475.27 256.748 475.973 247.213 470.465Z" fill="#A6DEFD"/>
<path opacity="0.4" d="M247.213 470.465L61.8806 363.4C52.3172 357.78 53.4423 348.254 64.5527 341.875L479.322 102.512C490.376 96.1331 507.083 95.4586 516.619 100.966L703.582 208.874C713.146 214.494 712.021 224.02 700.91 230.399L284.623 468.919C273.456 475.27 256.748 475.973 247.213 470.465Z" fill="#A6DEFD"/>
<path opacity="0.4" d="M247.213 470.465L61.8806 363.4C52.3172 357.78 53.4423 348.254 64.5527 341.875L479.322 102.512C490.376 96.1331 507.083 95.4586 516.619 100.966L703.582 208.874C713.146 214.494 712.021 224.02 700.91 230.399L284.623 468.919C273.456 475.27 256.748 475.973 247.213 470.465Z" fill="#50C5FF"/>
<path opacity="0.4" d="M591.803 144.354L584.575 148.513C578.949 151.745 578.387 156.634 583.225 159.416L586.628 161.383C589.621 162.736 592.89 163.369 596.172 163.232C599.455 163.095 602.659 162.193 605.53 160.596L612.73 156.438L591.803 144.354Z" fill="white"/>
<g opacity="0.2">
<path d="M268.956 333.389L357.36 384.504C368.021 390.602 386.641 389.759 398.905 382.621C411.197 375.484 412.49 364.749 401.718 358.651L313.341 307.536C302.652 301.438 284.06 302.253 271.768 309.419C259.589 316.556 258.295 327.291 268.956 333.389Z" fill="url(#paint4_linear_186_613)"/>
</g>
<path d="M302.034 330.073L289.714 322.935C287.886 321.867 288.111 320.125 290.22 318.804C291.311 318.191 292.532 317.843 293.783 317.789C295.035 317.735 296.281 317.977 297.421 318.495L309.797 325.633C311.653 326.701 311.428 328.443 309.291 329.792C308.189 330.408 306.957 330.755 305.696 330.804C304.435 330.853 303.179 330.602 302.034 330.073Z" fill="#368CDC"/>
<path d="M348.135 356.684L315.028 337.576C313.172 336.508 313.425 334.766 315.535 333.445C316.621 332.831 317.837 332.484 319.084 332.43C320.331 332.376 321.572 332.618 322.707 333.136L355.813 352.244C357.67 353.284 357.417 355.054 355.307 356.375C354.218 356.98 353.002 357.323 351.757 357.377C350.512 357.43 349.272 357.193 348.135 356.684Z" fill="#368CDC"/>
<path d="M373.224 371.156L361.214 364.215C359.358 363.148 359.583 361.405 361.72 360.085C362.807 359.471 364.023 359.123 365.269 359.069C366.516 359.016 367.758 359.258 368.893 359.775L380.931 366.716C382.76 367.784 382.535 369.526 380.425 370.847C379.334 371.461 378.113 371.809 376.862 371.863C375.611 371.916 374.364 371.674 373.224 371.156Z" fill="#368CDC"/>
<g opacity="0.2">
<path d="M296.971 266.958L428.439 343.561C439.127 349.687 457.748 348.844 470.011 341.707C482.303 334.569 483.597 323.834 472.824 317.708L341.44 241.021C330.78 234.923 312.159 235.766 299.868 242.904C287.604 250.098 286.31 260.776 296.971 266.958Z" fill="url(#paint5_linear_186_613)"/>
</g>
<path d="M353.648 277.299C352.543 276.746 351.325 276.457 350.09 276.457C348.854 276.457 347.636 276.746 346.531 277.299L343.044 279.351C341.075 280.475 341.075 282.161 343.044 283.453C344.148 284.007 345.366 284.296 346.602 284.296C347.837 284.296 349.056 284.007 350.16 283.453L353.648 281.402C355.617 280.278 355.617 278.452 353.648 277.299Z" fill="#368CDC"/>
<path d="M386.838 275.726C385.739 275.172 384.525 274.884 383.294 274.884C382.063 274.884 380.849 275.172 379.75 275.726L358.261 288.118C357.83 288.262 357.456 288.538 357.191 288.906C356.926 289.274 356.784 289.716 356.784 290.17C356.784 290.623 356.926 291.065 357.191 291.433C357.456 291.801 357.83 292.077 358.261 292.221C359.365 292.775 360.583 293.063 361.819 293.063C363.054 293.063 364.273 292.775 365.377 292.221L386.838 279.828C387.268 279.684 387.642 279.409 387.907 279.041C388.172 278.672 388.315 278.231 388.315 277.777C388.315 277.324 388.172 276.882 387.907 276.514C387.642 276.146 387.268 275.87 386.838 275.726Z" fill="#368CDC"/>
<path d="M453.078 325.324C451.974 324.77 450.756 324.482 449.52 324.482C448.285 324.482 447.066 324.77 445.962 325.324L434.346 332.012C433.915 332.156 433.541 332.432 433.276 332.8C433.011 333.168 432.869 333.61 432.869 334.063C432.869 334.517 433.011 334.958 433.276 335.327C433.541 335.695 433.915 335.97 434.346 336.114C435.45 336.668 436.668 336.957 437.904 336.957C439.139 336.957 440.358 336.668 441.462 336.114L453.078 329.426C453.509 329.282 453.883 329.007 454.148 328.639C454.413 328.27 454.555 327.829 454.555 327.375C454.555 326.922 454.413 326.48 454.148 326.112C453.883 325.744 453.509 325.468 453.078 325.324Z" fill="#368CDC"/>
<path d="M436.399 317.371C435.295 316.818 434.076 316.529 432.841 316.529C431.605 316.529 430.387 316.818 429.282 317.371L419.1 323.16C418.68 323.31 418.316 323.587 418.059 323.951C417.802 324.316 417.664 324.751 417.664 325.197C417.664 325.643 417.802 326.079 418.059 326.443C418.316 326.808 418.68 327.084 419.1 327.235C420.201 327.801 421.421 328.097 422.658 328.097C423.896 328.097 425.116 327.801 426.217 327.235L436.371 321.39C438.368 320.35 438.368 318.523 436.399 317.371Z" fill="#368CDC"/>
<path d="M432.517 302.056C431.413 301.503 430.195 301.214 428.959 301.214C427.724 301.214 426.505 301.503 425.401 302.056L403.912 314.449C403.481 314.593 403.107 314.869 402.842 315.237C402.577 315.605 402.435 316.047 402.435 316.5C402.435 316.953 402.577 317.395 402.842 317.764C403.107 318.132 403.481 318.407 403.912 318.551C405.016 319.105 406.234 319.393 407.47 319.393C408.705 319.393 409.924 319.105 411.028 318.551L432.517 306.159C432.948 306.015 433.322 305.739 433.587 305.371C433.852 305.003 433.994 304.561 433.994 304.108C433.994 303.654 433.852 303.212 433.587 302.844C433.322 302.476 432.948 302.2 432.517 302.056Z" fill="#368CDC"/>
<path d="M412.744 295.902C411.639 295.348 410.421 295.06 409.185 295.06C407.95 295.06 406.732 295.348 405.627 295.902L388.751 305.681C388.321 305.825 387.946 306.101 387.681 306.469C387.416 306.837 387.274 307.279 387.274 307.733C387.274 308.186 387.416 308.628 387.681 308.996C387.946 309.364 388.321 309.64 388.751 309.784C389.855 310.338 391.073 310.626 392.309 310.626C393.544 310.626 394.763 310.338 395.867 309.784L412.744 300.005C413.174 299.861 413.548 299.585 413.813 299.217C414.078 298.849 414.22 298.407 414.22 297.954C414.22 297.5 414.078 297.058 413.813 296.69C413.548 296.322 413.174 296.046 412.744 295.902Z" fill="#368CDC"/>
<path d="M390.748 291.041C389.644 290.487 388.425 290.199 387.19 290.199C385.954 290.199 384.736 290.487 383.632 291.041L373.478 296.914C373.057 297.064 372.693 297.34 372.436 297.705C372.179 298.07 372.041 298.505 372.041 298.951C372.041 299.397 372.179 299.832 372.436 300.197C372.693 300.562 373.057 300.838 373.478 300.988C374.578 301.555 375.798 301.851 377.036 301.851C378.274 301.851 379.494 301.555 380.594 300.988L390.748 295.143C391.178 294.999 391.552 294.724 391.817 294.355C392.082 293.987 392.225 293.545 392.225 293.092C392.225 292.639 392.082 292.197 391.817 291.829C391.552 291.461 391.178 291.185 390.748 291.041Z" fill="#368CDC"/>
<path d="M357.22 221.997L417.103 256.477C427.764 262.603 446.384 261.76 458.648 254.622C470.939 247.484 472.233 236.722 461.46 230.624L401.774 196.004C391.085 189.906 372.493 190.749 360.201 197.886C347.938 205.136 346.644 215.758 357.22 221.997Z" fill="#367EDC"/>
<path d="M715.93 228.123L285.101 476.647C273.85 483.138 256.72 483.869 246.932 478.221L45.6229 361.995C42.7778 360.529 40.5961 358.038 39.5192 355.026C38.2254 359.523 40.138 364.019 45.6229 367.194L246.932 483.335C256.72 488.955 273.822 488.253 285.101 481.733L715.93 233.237C723.384 228.938 726.366 223.205 724.791 218.175C723.248 222.518 720.069 226.088 715.93 228.123Z" fill="white"/>
<path d="M139.766 286.938L251.123 350.867C261.811 356.965 280.403 356.122 292.695 348.985C304.959 341.847 306.253 331.113 295.508 325.015L184.207 261.085C173.547 254.959 154.926 255.802 142.663 262.94C130.371 270.106 129.077 280.84 139.766 286.938Z" fill="#367EDC"/>
<g opacity="0.6">
<path d="M139.766 347.833L251.123 411.762C261.811 417.86 280.404 417.017 292.695 409.879C304.959 402.742 306.253 392.007 295.508 385.909L184.123 321.98C173.463 315.854 154.842 316.697 142.579 323.834C130.371 330.972 129.077 341.707 139.766 347.833Z" fill="white"/>
</g>
<path d="M216.245 309.11L183.138 290.001C181.31 288.933 181.535 287.191 183.673 285.87C184.759 285.257 185.975 284.909 187.222 284.855C188.469 284.801 189.71 285.043 190.845 285.561L223.952 304.642C225.78 305.709 225.555 307.452 223.417 308.8C222.329 309.408 221.113 309.752 219.868 309.805C218.622 309.859 217.381 309.621 216.245 309.11Z" fill="white"/>
<path d="M241.362 323.582L229.324 316.641C227.496 315.573 227.721 313.831 229.83 312.482C230.926 311.879 232.147 311.539 233.397 311.491C234.647 311.442 235.891 311.685 237.031 312.201L249.041 319.142C250.898 320.181 250.673 321.952 248.535 323.272C247.446 323.877 246.23 324.22 244.985 324.274C243.74 324.328 242.5 324.091 241.362 323.582Z" fill="white"/>
<path d="M383.35 215.056L373.449 209.436C371.621 208.396 371.846 206.626 373.984 205.305C375.072 204.698 376.288 204.354 377.533 204.3C378.779 204.246 380.02 204.485 381.156 204.996L390.973 210.757C392.829 211.824 392.576 213.567 390.467 214.915C389.372 215.487 388.16 215.797 386.925 215.821C385.69 215.846 384.467 215.584 383.35 215.056Z" fill="white"/>
<path d="M421.913 237.228L395.867 222.194C394.011 221.154 394.264 219.383 396.373 218.063C397.468 217.457 398.688 217.114 399.937 217.061C401.187 217.007 402.432 217.244 403.574 217.754L429.62 232.788C431.448 233.855 431.223 235.598 429.086 236.918C427.999 237.532 426.783 237.88 425.537 237.934C424.29 237.987 423.048 237.745 421.913 237.228Z" fill="white"/>
<path d="M338.74 265.581C334.131 267.91 329.039 269.123 323.875 269.123C318.71 269.123 313.618 267.91 309.009 265.581C300.796 260.832 300.796 253.161 309.009 248.412C313.618 246.083 318.71 244.87 323.875 244.87C329.039 244.87 334.131 246.083 338.74 248.412C346.953 253.161 346.953 260.832 338.74 265.581Z" fill="#368CDC"/>
<path d="M314.86 256.42L322.876 251.784C323.566 251.397 324.364 251.248 325.147 251.36C325.93 251.472 326.654 251.838 327.208 252.402L330.724 259.062C331.314 260.214 329.458 261.282 327.461 260.945L315.929 258.921C314.044 258.528 313.453 257.235 314.86 256.42Z" fill="white"/>
<path d="M323.27 60.6979L333.283 66.4867C334.335 67.0133 335.496 67.2875 336.673 67.2875C337.849 67.2875 339.01 67.0133 340.062 66.4867C341.947 65.3908 341.947 63.6766 340.062 62.5807L330.049 56.7919C329 56.2521 327.838 55.9705 326.659 55.9705C325.48 55.9705 324.318 56.2521 323.27 56.7919C322.856 56.9248 322.495 57.1855 322.239 57.5364C321.983 57.8874 321.845 58.3106 321.845 58.7449C321.845 59.1792 321.983 59.6024 322.239 59.9534C322.495 60.3043 322.856 60.565 323.27 60.6979Z" fill="black"/>
<path opacity="0.6" d="M309.037 68.9034L337.165 85.23C338.222 85.7569 339.387 86.0312 340.568 86.0312C341.75 86.0312 342.915 85.7569 343.972 85.23C344.382 85.0894 344.738 84.8242 344.991 84.4716C345.243 84.1189 345.378 83.6963 345.378 83.2629C345.378 82.8295 345.243 82.4069 344.991 82.0542C344.738 81.7016 344.382 81.4364 343.972 81.2958L315.676 64.9973C314.627 64.4576 313.465 64.176 312.286 64.176C311.107 64.176 309.945 64.4576 308.897 64.9973C308.487 65.1444 308.135 65.4178 307.89 65.7781C307.646 66.1384 307.523 66.5669 307.539 67.0017C307.555 67.4364 307.708 67.855 307.978 68.1968C308.247 68.5386 308.618 68.7861 309.037 68.9034Z" fill="#368CDC"/>
<path opacity="0.6" d="M380.706 89.9228C381.12 89.7899 381.481 89.5292 381.737 89.1782C381.994 88.8272 382.132 88.4041 382.132 87.9697C382.132 87.5354 381.994 87.1123 381.737 86.7613C381.481 86.4103 381.12 86.1496 380.706 86.0167L352.579 69.6901C351.527 69.1635 350.366 68.8893 349.19 68.8893C348.013 68.8893 346.852 69.1635 345.8 69.6901C345.39 69.8307 345.034 70.0958 344.781 70.4485C344.529 70.8012 344.394 71.2238 344.394 71.6572C344.394 72.0906 344.529 72.5132 344.781 72.8659C345.034 73.2185 345.39 73.4837 345.8 73.6243L373.928 89.9228C374.976 90.4625 376.138 90.7441 377.317 90.7441C378.496 90.7441 379.658 90.4625 380.706 89.9228Z" fill="#368CDC"/>
<path d="M402.843 98.7745L401.183 97.8191L393.167 93.1825C392.11 92.6555 390.945 92.3812 389.763 92.3812C388.582 92.3812 387.417 92.6555 386.36 93.1825C385.95 93.323 385.593 93.5882 385.341 93.9409C385.089 94.2935 384.954 94.7161 384.954 95.1495C384.954 95.5829 385.089 96.0055 385.341 96.3582C385.593 96.7109 385.95 96.976 386.36 97.1166L394.404 101.753L396.064 102.709L404.108 107.345C405.161 107.872 406.321 108.146 407.498 108.146C408.675 108.146 409.835 107.872 410.887 107.345C411.298 107.205 411.654 106.94 411.906 106.587C412.158 106.234 412.294 105.812 412.294 105.378C412.294 104.945 412.158 104.522 411.906 104.17C411.654 103.817 411.298 103.552 410.887 103.411L402.843 98.7745Z" fill="#368CDC"/>
<path d="M476.902 494.716L517.744 518.292C519.055 518.943 520.499 519.282 521.963 519.282C523.427 519.282 524.871 518.943 526.182 518.292C528.545 516.916 528.545 514.724 526.182 513.375L485.341 489.798C484.03 489.147 482.586 488.808 481.122 488.808C479.658 488.808 478.213 489.147 476.902 489.798C474.54 491.175 474.54 493.367 476.902 494.716Z" fill="#368CDC"/>
<path opacity="0.6" d="M459.013 500.196C456.651 501.572 456.651 503.764 459.013 505.113L521.822 541.363C523.135 542.01 524.578 542.347 526.041 542.347C527.505 542.347 528.948 542.01 530.261 541.363C530.78 541.195 531.233 540.866 531.555 540.424C531.876 539.982 532.049 539.45 532.049 538.904C532.049 538.358 531.876 537.826 531.555 537.385C531.233 536.943 530.78 536.614 530.261 536.446L467.536 500.196C466.214 499.531 464.755 499.185 463.275 499.185C461.795 499.185 460.335 499.531 459.013 500.196Z" fill="#368CDC"/>
<path d="M441.124 515.342L453.725 522.62C455.036 523.271 456.48 523.61 457.944 523.61C459.409 523.61 460.853 523.271 462.164 522.62C462.683 522.451 463.136 522.123 463.458 521.681C463.779 521.239 463.952 520.707 463.952 520.161C463.952 519.615 463.779 519.083 463.458 518.641C463.136 518.2 462.683 517.871 462.164 517.702L449.562 510.424C448.251 509.773 446.807 509.434 445.343 509.434C443.879 509.434 442.435 509.773 441.124 510.424C438.79 511.801 438.79 513.993 441.124 515.342Z" fill="#368CDC"/>
<path d="M423.235 525.655L458.817 546.168C460.124 546.832 461.569 547.178 463.036 547.178C464.502 547.178 465.948 546.832 467.255 546.168C469.618 544.82 469.618 542.628 467.255 541.251L431.702 520.737C430.389 520.09 428.946 519.754 427.482 519.754C426.019 519.754 424.576 520.09 423.263 520.737C422.756 520.917 422.316 521.248 422.004 521.686C421.692 522.124 421.523 522.648 421.52 523.186C421.516 523.724 421.68 524.25 421.987 524.692C422.294 525.133 422.73 525.47 423.235 525.655Z" fill="black"/>
<path d="M513.384 552.098C513.904 551.929 514.357 551.6 514.678 551.159C514.999 550.717 515.172 550.185 515.172 549.639C515.172 549.093 514.999 548.561 514.678 548.119C514.357 547.678 513.904 547.349 513.384 547.18L477.831 526.667C476.518 526.02 475.075 525.683 473.612 525.683C472.148 525.683 470.705 526.02 469.392 526.667C467.03 528.043 467.03 530.235 469.392 531.584L504.946 552.098C506.254 552.757 507.699 553.101 509.165 553.101C510.63 553.101 512.075 552.757 513.384 552.098Z" fill="#368CDC"/>
<path opacity="0.6" d="M541.202 563.254L539.121 562.045L529.023 556.201C527.712 555.549 526.268 555.211 524.804 555.211C523.34 555.211 521.896 555.549 520.585 556.201C518.222 557.577 518.222 559.769 520.585 561.118L530.682 566.963L532.764 568.171L542.862 573.988C544.174 574.635 545.617 574.972 547.081 574.972C548.544 574.972 549.988 574.635 551.3 573.988C551.806 573.806 552.244 573.472 552.554 573.032C552.863 572.592 553.029 572.067 553.029 571.53C553.029 570.992 552.863 570.467 552.554 570.027C552.244 569.587 551.806 569.253 551.3 569.071L541.202 563.254Z" fill="#368CDC"/>
<path d="M665.779 211.206L664.119 210.251L656.075 205.614C655.025 205.081 653.864 204.803 652.686 204.803C651.508 204.803 650.346 205.081 649.296 205.614C648.882 205.747 648.521 206.008 648.265 206.359C648.009 206.71 647.871 207.133 647.871 207.567C647.871 208.001 648.009 208.425 648.265 208.776C648.521 209.127 648.882 209.387 649.296 209.52L657.341 214.157L659 215.112L667.017 219.749C668.07 220.289 669.236 220.57 670.42 220.57C671.604 220.57 672.77 220.289 673.823 219.749C674.224 219.602 674.57 219.337 674.815 218.987C675.059 218.638 675.19 218.222 675.19 217.796C675.19 217.37 675.059 216.954 674.815 216.604C674.57 216.255 674.224 215.989 673.823 215.843L665.779 211.206Z" fill="#368CDC"/>
<path d="M514.734 123.812L513.046 122.857L505.03 118.22C503.982 117.681 502.82 117.399 501.641 117.399C500.462 117.399 499.299 117.681 498.251 118.22C497.837 118.353 497.476 118.614 497.22 118.965C496.964 119.316 496.826 119.739 496.826 120.173C496.826 120.608 496.964 121.031 497.22 121.382C497.476 121.733 497.837 121.993 498.251 122.126L506.296 126.763L507.955 127.718L516 132.355C517.048 132.895 518.21 133.176 519.389 133.176C520.568 133.176 521.73 132.895 522.779 132.355C523.192 132.222 523.553 131.962 523.81 131.611C524.066 131.26 524.204 130.836 524.204 130.402C524.204 129.968 524.066 129.545 523.81 129.194C523.553 128.843 523.192 128.582 522.779 128.449L514.734 123.812Z" fill="#368CDC"/>
<path d="M546.237 141.741L544.577 140.785L536.561 136.149C535.508 135.609 534.341 135.327 533.158 135.327C531.974 135.327 530.807 135.609 529.754 136.149C529.353 136.295 529.007 136.561 528.763 136.91C528.519 137.26 528.387 137.676 528.387 138.102C528.387 138.528 528.519 138.944 528.763 139.293C529.007 139.643 529.353 139.908 529.754 140.055L537.799 144.691L539.458 145.647L542.018 147.136C543.075 147.663 544.24 147.937 545.421 147.937C546.602 147.937 547.768 147.663 548.825 147.136C549.235 146.996 549.591 146.73 549.843 146.378C550.095 146.025 550.231 145.603 550.231 145.169C550.231 144.736 550.095 144.313 549.843 143.96C549.591 143.608 549.235 143.343 548.825 143.202L546.237 141.741Z" fill="#368CDC"/>
<path d="M492.57 191.086L508.49 181.925L504.468 180.576L506.999 179.115C508.969 179.769 511.027 180.12 513.103 180.155L515.69 181.644L496.001 193.053L492.57 191.086Z" fill="white"/>
<path d="M500.67 195.61L503.061 194.233L515.437 192.66L516.9 192.491L518.531 192.294L519.825 192.041C520.321 191.941 520.809 191.81 521.288 191.648L522.469 191.086C523.049 190.829 523.525 190.383 523.819 189.821C523.96 189.428 523.819 189.063 523.116 188.754C522.288 188.45 521.396 188.363 520.525 188.501C519.653 188.638 518.832 188.996 518.138 189.54L517.322 190.018L513.975 188.079L514.819 187.601C515.716 187.104 516.658 186.69 517.631 186.365C518.545 186.074 519.489 185.886 520.444 185.803C521.386 185.718 522.336 185.785 523.257 186C524.247 186.227 525.196 186.606 526.07 187.124C527.729 188.079 528.545 189.063 528.489 189.934C528.432 190.805 527.588 191.929 525.957 192.744C525.395 193.081 524.801 193.363 524.185 193.587C523.554 193.818 522.905 193.997 522.244 194.121C521.513 194.289 520.922 194.374 520.388 194.458L518.306 194.711H517.547L507.309 195.919L513.215 199.319L510.403 200.893L500.67 195.61Z" fill="white"/>
<path d="M515.184 201.736L518.362 199.881L521.597 201.736L518.391 203.591L515.184 201.736ZM523.172 197.1L526.379 195.245L529.613 197.1L526.379 198.954L523.172 197.1Z" fill="white"/>
<path d="M523.172 208.986C521.4 207.975 520.585 206.935 520.725 205.895C520.866 204.855 521.822 203.816 523.538 202.776L524.241 202.382L527.616 204.321L527.082 204.631C526.362 204.986 525.736 205.506 525.254 206.148C525.029 206.569 525.254 206.991 525.957 207.384C526.249 207.547 526.561 207.67 526.885 207.75C527.193 207.792 527.505 207.792 527.813 207.75C528.141 207.719 528.463 207.643 528.77 207.525L529.754 207.131L530.823 206.541C531.61 206.187 532.268 205.598 532.708 204.855C532.933 204.349 532.708 203.844 531.836 203.31L531.554 203.169H531.329L534.142 201.511C534.273 201.626 534.426 201.712 534.592 201.764C535.395 202.218 536.318 202.414 537.236 202.326C538.233 202.239 539.196 201.921 540.049 201.399C540.7 201.107 541.248 200.628 541.624 200.022C541.793 199.629 541.54 199.235 540.865 198.842C540.586 198.679 540.282 198.564 539.964 198.505C539.676 198.449 539.381 198.449 539.093 198.505L538.164 198.673L537.236 199.038L536.28 199.544L535.605 199.91L532.229 197.971L533.158 197.437C534.745 196.501 536.547 195.988 538.389 195.947C540.219 195.94 542.016 196.426 543.593 197.352C545.252 198.308 546.068 199.291 546.068 200.331C546.068 201.371 545.196 202.382 543.537 203.338C542.451 203.98 541.245 204.391 539.993 204.546C538.86 204.699 537.708 204.603 536.617 204.265C536.881 204.536 537.052 204.882 537.108 205.255C537.163 205.628 537.1 206.009 536.927 206.345C536.352 207.313 535.499 208.086 534.48 208.565C532.772 209.602 530.846 210.228 528.854 210.391C526.858 210.547 524.865 210.054 523.172 208.986Z" fill="white"/>
<path d="M540.696 217.248C538.809 217.347 536.933 216.898 535.295 215.955C533.664 215 532.905 213.96 533.073 212.836C533.242 211.712 534.198 210.672 535.886 209.661L544.578 204.659C546.287 203.643 548.217 203.055 550.203 202.945C552.103 202.838 553.993 203.298 555.632 204.265C557.319 205.258 558.079 206.298 557.91 207.384C557.713 208.48 556.729 209.548 554.928 210.588L546.265 215.59C544.568 216.579 542.658 217.148 540.696 217.248ZM538.221 214.269C539.346 214.944 541.033 214.691 542.834 213.595L551.272 208.649L551.947 208.227L552.538 207.806C552.703 207.662 552.854 207.502 552.988 207.328C553.076 207.19 553.143 207.038 553.185 206.879C553.218 206.803 553.235 206.722 553.235 206.64C553.235 206.558 553.218 206.476 553.185 206.401C553.028 206.216 552.837 206.064 552.622 205.951C552.329 205.777 552.004 205.662 551.666 205.614C551.349 205.56 551.026 205.56 550.709 205.614C550.374 205.655 550.044 205.73 549.725 205.839C549.418 205.954 549.118 206.086 548.825 206.232C548.526 206.366 548.235 206.516 547.953 206.682L539.515 211.628C537.461 212.724 537.067 213.567 538.221 214.269Z" fill="white"/>
<path opacity="0.8" d="M598.948 156.971C597.682 157.622 596.279 157.962 594.855 157.962C593.432 157.962 592.029 157.622 590.763 156.971C590.259 156.814 589.819 156.501 589.507 156.076C589.194 155.651 589.025 155.138 589.025 154.611C589.025 154.084 589.194 153.571 589.507 153.146C589.819 152.721 590.259 152.408 590.763 152.251C592.029 151.6 593.432 151.26 594.855 151.26C596.279 151.26 597.682 151.6 598.948 152.251C599.452 152.408 599.892 152.721 600.204 153.146C600.517 153.571 600.685 154.084 600.685 154.611C600.685 155.138 600.517 155.651 600.204 156.076C599.892 156.501 599.452 156.814 598.948 156.971Z" fill="white"/>
</g>
<defs>
<linearGradient id="paint0_linear_186_613" x1="595.882" y1="469.959" x2="680.546" y2="469.959" gradientUnits="userSpaceOnUse">
<stop stop-color="#616161"/>
<stop offset="1"/>
</linearGradient>
<linearGradient id="paint1_linear_186_613" x1="38.3098" y1="359.073" x2="726" y2="359.073" gradientUnits="userSpaceOnUse">
<stop stop-color="#BBBBBB"/>
<stop offset="1"/>
</linearGradient>
<radialGradient id="paint2_radial_186_613" cx="0" cy="0" r="1" gradientUnits="userSpaceOnUse" gradientTransform="translate(46.2981 263.811) scale(673.092 672.454)">
<stop stop-color="#BBF3FF"/>
<stop offset="0.28" stop-color="#A7CBFF"/>
<stop offset="0.33" stop-color="#99C3FF"/>
<stop offset="0.4" stop-color="#6CA5F7"/>
<stop offset="0.54" stop-color="#3579DB"/>
</radialGradient>
<radialGradient id="paint3_radial_186_613" cx="0" cy="0" r="1" gradientUnits="userSpaceOnUse" gradientTransform="translate(160.215 68.3975) scale(888.493 887.65)">
<stop stop-color="#E39A65"/>
<stop offset="0.0001" stop-color="#6308F8"/>
<stop offset="0.0002" stop-color="#6507FA"/>
<stop offset="0.0003" stop-color="#7A2EF5"/>
<stop offset="0.0004" stop-color="#891CFB"/>
<stop offset="0.0005" stop-color="#A92FFB"/>
<stop offset="0.0006" stop-color="#5183CD"/>
<stop offset="1" stop-color="#367FDC"/>
</radialGradient>
<linearGradient id="paint4_linear_186_613" x1="478.585" y1="448.683" x2="415.037" y2="339.276" gradientUnits="userSpaceOnUse">
<stop stop-color="#368CDC"/>
<stop offset="1" stop-color="#368CDC"/>
</linearGradient>
<linearGradient id="paint5_linear_186_613" x1="538.837" y1="414.009" x2="453.465" y2="267.029" gradientUnits="userSpaceOnUse">
<stop stop-color="#368CDC"/>
<stop offset="1" stop-color="#368CDC"/>
</linearGradient>
<clipPath id="clip0_186_613">
<rect width="726" height="575" fill="white"/>
</clipPath>
</defs>
</svg>
