<svg width="40" height="40" viewBox="0 0 40 40" fill="none" xmlns="http://www.w3.org/2000/svg">
<path d="M6.24902 6.24951V33.7495" stroke="#2EBD97" stroke-width="2" stroke-linecap="round" stroke-linejoin="round"/>
<path d="M27.5 8.75H12.5C11.8096 8.75 11.25 9.30964 11.25 10V16.25C11.25 16.9404 11.8096 17.5 12.5 17.5H27.5C28.1904 17.5 28.75 16.9404 28.75 16.25V10C28.75 9.30964 28.1904 8.75 27.5 8.75Z" stroke="#2EBD97" stroke-width="2" stroke-linecap="round" stroke-linejoin="round"/>
<path d="M33.75 22.5H12.5C11.8096 22.5 11.25 23.0596 11.25 23.75V30C11.25 30.6904 11.8096 31.25 12.5 31.25H33.75C34.4404 31.25 35 30.6904 35 30V23.75C35 23.0596 34.4404 22.5 33.75 22.5Z" stroke="#2EBD97" stroke-width="2" stroke-linecap="round" stroke-linejoin="round"/>
</svg>
