<svg width="40" height="40" viewBox="0 0 40 40" fill="none" xmlns="http://www.w3.org/2000/svg">
<path d="M20 25C23.4518 25 26.25 22.2018 26.25 18.75C26.25 15.2982 23.4518 12.5 20 12.5C16.5482 12.5 13.75 15.2982 13.75 18.75C13.75 22.2018 16.5482 25 20 25Z" stroke="#FD71AF" stroke-width="2" stroke-miterlimit="10"/>
<path d="M9.96851 31.1522C10.9101 29.301 12.3456 27.7464 14.1161 26.6606C15.8865 25.5747 17.923 25 19.9999 25C22.0768 25 24.1132 25.5747 25.8837 26.6605C27.6542 27.7464 29.0897 29.3009 30.0313 31.1522" stroke="#FD71AF" stroke-width="2" stroke-linecap="round" stroke-linejoin="round"/>
<path d="M27.5 8.75H35" stroke="#FD71AF" stroke-width="2" stroke-linecap="round" stroke-linejoin="round"/>
<path d="M31.25 5V12.5" stroke="#FD71AF" stroke-width="2" stroke-linecap="round" stroke-linejoin="round"/>
<path d="M34.8144 17.6341C35.3109 20.7599 34.8049 23.9627 33.369 26.7833C31.933 29.6039 29.6408 31.8974 26.8211 33.3349C24.0013 34.7724 20.7988 35.2802 17.6726 34.7854C14.5465 34.2907 11.6573 32.8187 9.41923 30.5807C7.1812 28.3427 5.70928 25.4535 5.21451 22.3273C4.71974 19.2012 5.22753 15.9986 6.66508 13.1789C8.10262 10.3591 10.3961 8.06692 13.2167 6.63096C16.0372 5.19501 19.2401 4.68903 22.3659 5.18556" stroke="#FD71AF" stroke-width="2" stroke-linecap="round" stroke-linejoin="round"/>
</svg>
