<svg width="62" height="33" viewBox="0 0 62 33" fill="none" xmlns="http://www.w3.org/2000/svg">
<rect width="62" height="33" rx="5" fill="#27AE60" fill-opacity="0.1"/>
<path d="M10.2031 22H12.0391L13.0781 18.9531H17.4219L18.4531 22H20.2891L16.1953 10.7266H14.3047L10.2031 22ZM15.2344 12.5938H15.2656L16.9453 17.5469H13.5469L15.2344 12.5938ZM24.7188 24.8984C27.0391 24.8984 28.4922 23.6484 28.4922 21.7734V13.7812H26.7969V15.1797H26.7578C26.2734 14.25 25.3672 13.625 24.2109 13.625C22.125 13.625 20.75 15.2422 20.75 17.8203V17.8281C20.75 20.3906 22.1094 22.0078 24.1719 22.0078C25.3516 22.0078 26.2891 21.4375 26.7578 20.5469H26.7969V21.6719C26.7969 22.8203 26.0547 23.5391 24.7109 23.5391C23.6562 23.5391 22.9453 23.1797 22.7188 22.6562L22.6875 22.5938H21.0156L21.0234 22.6641C21.2734 23.9219 22.6094 24.8984 24.7188 24.8984ZM24.6484 20.6328C23.3125 20.6328 22.4766 19.5703 22.4766 17.8516V17.8438C22.4766 16.1484 23.3125 15.0703 24.6484 15.0703C25.9297 15.0703 26.7969 16.1562 26.7969 17.8438V17.8516C26.7969 19.5469 25.9375 20.6328 24.6484 20.6328ZM30.1641 22H31.8516V17.1016C31.8516 15.875 32.5234 15.1641 33.6094 15.1641C33.9375 15.1641 34.2344 15.2031 34.3672 15.2578V13.6875C34.2344 13.6641 34.0234 13.625 33.7812 13.625C32.8438 13.625 32.1562 14.2266 31.8906 15.1875H31.8516V13.7812H30.1641V22ZM38.5625 22.1641C40.5547 22.1641 41.8203 20.9766 42.0859 19.6719L42.1016 19.5859H40.5L40.4766 19.6484C40.2656 20.2656 39.6016 20.7812 38.6016 20.7812C37.2578 20.7812 36.4062 19.875 36.375 18.3203H42.1953V17.75C42.1953 15.2812 40.7812 13.625 38.4766 13.625C36.1719 13.625 34.6875 15.3438 34.6875 17.9141V17.9219C34.6875 20.5156 36.1484 22.1641 38.5625 22.1641ZM38.4844 15.0078C39.5859 15.0078 40.3828 15.7031 40.5234 17.125H36.3984C36.5469 15.75 37.3906 15.0078 38.4844 15.0078ZM47.0156 22.1641C49.0078 22.1641 50.2734 20.9766 50.5391 19.6719L50.5547 19.5859H48.9531L48.9297 19.6484C48.7188 20.2656 48.0547 20.7812 47.0547 20.7812C45.7109 20.7812 44.8594 19.875 44.8281 18.3203H50.6484V17.75C50.6484 15.2812 49.2344 13.625 46.9297 13.625C44.625 13.625 43.1406 15.3438 43.1406 17.9141V17.9219C43.1406 20.5156 44.6016 22.1641 47.0156 22.1641ZM46.9375 15.0078C48.0391 15.0078 48.8359 15.7031 48.9766 17.125H44.8516C45 15.75 45.8438 15.0078 46.9375 15.0078Z" fill="#27AE60"/>
</svg>
