<svg width="32" height="32" viewBox="0 0 32 32" fill="none" xmlns="http://www.w3.org/2000/svg">
<path d="M26.1928 10.0506L21.9863 14.0004L25.9863 25.0004L22.9863 28.0004L17.0103 19.253L13.9863 22.0004V25.0004L10.9863 28.0004L9.21227 22.7686L3.98633 21.0004L6.98633 18.0004H9.98633L12.9863 15.0004L3.98633 9.00038L6.98633 6.00038L17.9863 10.0004L21.9501 5.80799L21.865 5.87906C22.1435 5.59998 22.4742 5.37853 22.8383 5.22735C23.2024 5.07618 23.5928 4.99826 23.987 4.99805C24.3813 4.99783 24.7717 5.07532 25.136 5.22609C25.5002 5.37686 25.8312 5.59796 26.11 5.87673C26.3888 6.1555 26.6098 6.48648 26.7606 6.85076C26.9114 7.21503 26.9889 7.60545 26.9887 7.9997C26.9884 8.39394 26.9105 8.78427 26.7594 9.14838C26.6082 9.51249 26.3867 9.84323 26.1076 10.1217L26.1928 10.0506Z" stroke="#FD71AF" stroke-width="2" stroke-linecap="round" stroke-linejoin="round"/>
</svg>
