<svg width="40" height="41" viewBox="0 0 40 41" fill="none" xmlns="http://www.w3.org/2000/svg">
<path d="M32.8162 33.2844C35.5011 30.5996 31.9395 22.685 24.8613 15.6068C17.783 8.52852 9.86848 4.96697 7.18362 7.65182C4.49877 10.3367 8.06032 18.2512 15.1386 25.3295C22.2168 32.4077 30.1314 35.9693 32.8162 33.2844Z" stroke="#2EBD97" stroke-width="2" stroke-linecap="round" stroke-linejoin="round"/>
<path d="M24.8613 25.3288C31.9395 18.2505 35.5011 10.336 32.8162 7.6511C30.1314 4.96625 22.2168 8.5278 15.1386 15.6061C8.06032 22.6843 4.49877 30.5989 7.18362 33.2837C9.86848 35.9686 17.783 32.407 24.8613 25.3288Z" stroke="#2EBD97" stroke-width="2" stroke-linecap="round" stroke-linejoin="round"/>
<path d="M20 22.3428C21.0355 22.3428 21.875 21.5033 21.875 20.4678C21.875 19.4322 21.0355 18.5928 20 18.5928C18.9645 18.5928 18.125 19.4322 18.125 20.4678C18.125 21.5033 18.9645 22.3428 20 22.3428Z" fill="#2EBD97"/>
</svg>
