<svg width="40" height="40" viewBox="0 0 40 40" fill="none" xmlns="http://www.w3.org/2000/svg">
<path d="M32.8182 32.8163C35.5031 30.1315 31.9415 22.2169 24.8632 15.1386C17.785 8.06038 9.87043 4.49883 7.18558 7.18368C4.50072 9.86854 8.06228 17.7831 15.1405 24.8614C22.2188 31.9396 30.1333 35.5012 32.8182 32.8163Z" stroke="#8930FD" stroke-width="2.5" stroke-linecap="round" stroke-linejoin="round"/>
<path d="M24.8632 24.8614C31.9415 17.7831 35.5031 9.86855 32.8182 7.18369C30.1333 4.49884 22.2188 8.06039 15.1405 15.1386C8.06228 22.2169 4.50072 30.1315 7.18558 32.8163C9.87043 35.5012 17.785 31.9396 24.8632 24.8614Z" stroke="#8930FD" stroke-width="2.5" stroke-linecap="round" stroke-linejoin="round"/>
<path d="M20 21.875C21.0355 21.875 21.875 21.0355 21.875 20C21.875 18.9645 21.0355 18.125 20 18.125C18.9645 18.125 18.125 18.9645 18.125 20C18.125 21.0355 18.9645 21.875 20 21.875Z" fill="#8930FD"/>
</svg>
