<svg width="40" height="40" viewBox="0 0 40 40" fill="none" xmlns="http://www.w3.org/2000/svg">
<path d="M32.8162 32.8162C35.5011 30.1313 31.9395 22.2168 24.8613 15.1385C17.783 8.06026 9.86848 4.49871 7.18362 7.18356C4.49877 9.86842 8.06032 17.783 15.1386 24.8612C22.2168 31.9395 30.1314 35.501 32.8162 32.8162Z" stroke="#2BC2F6" stroke-width="2" stroke-linecap="round" stroke-linejoin="round"/>
<path d="M24.8613 24.8615C31.9395 17.7832 35.5011 9.86867 32.8162 7.18382C30.1314 4.49896 22.2168 8.06051 15.1386 15.1388C8.06032 22.217 4.49877 30.1316 7.18362 32.8164C9.86848 35.5013 17.783 31.9397 24.8613 24.8615Z" stroke="#2BC2F6" stroke-width="2" stroke-linecap="round" stroke-linejoin="round"/>
<path d="M20 21.875C21.0355 21.875 21.875 21.0355 21.875 20C21.875 18.9645 21.0355 18.125 20 18.125C18.9645 18.125 18.125 18.9645 18.125 20C18.125 21.0355 18.9645 21.875 20 21.875Z" fill="#2BC2F6"/>
</svg>
