<svg width="40" height="41" viewBox="0 0 40 41" fill="none" xmlns="http://www.w3.org/2000/svg">
<path d="M20 25.4678C22.7614 25.4678 25 23.2292 25 20.4678C25 17.7063 22.7614 15.4678 20 15.4678C17.2386 15.4678 15 17.7063 15 20.4678C15 23.2292 17.2386 25.4678 20 25.4678Z" stroke="#4B5063" stroke-width="2" stroke-linecap="round" stroke-linejoin="round"/>
<path d="M12.0451 28.4231C10.9993 27.3791 10.1696 26.1391 9.60356 24.7741C9.03747 23.4091 8.74609 21.9459 8.74609 20.4681C8.74609 18.9904 9.03747 17.5272 9.60356 16.1622C10.1696 14.7972 10.9993 13.5572 12.0451 12.5132" stroke="#4B5063" stroke-width="2" stroke-linecap="round" stroke-linejoin="round"/>
<path d="M27.9551 12.5132C29.0009 13.5572 29.8306 14.7972 30.3966 16.1622C30.9627 17.5272 31.2541 18.9904 31.2541 20.4681C31.2541 21.9459 30.9627 23.4091 30.3966 24.7741C29.8306 26.1391 29.0009 27.3791 27.9551 28.4231" stroke="#4B5063" stroke-width="2" stroke-linecap="round" stroke-linejoin="round"/>
<path d="M7.62597 32.8425C5.99916 31.2185 4.70855 29.2896 3.82797 27.1663C2.9474 25.0429 2.49414 22.7668 2.49414 20.4681C2.49414 18.1694 2.9474 15.8933 3.82797 13.77C4.70855 11.6466 5.99916 9.71778 7.62597 8.09375" stroke="#4B5063" stroke-width="2" stroke-linecap="round" stroke-linejoin="round"/>
<path d="M32.374 8.09375C34.0008 9.71778 35.2914 11.6466 36.172 13.77C37.0526 15.8933 37.5058 18.1694 37.5058 20.4681C37.5058 22.7668 37.0526 25.0429 36.172 27.1663C35.2914 29.2896 34.0008 31.2185 32.374 32.8425" stroke="#4B5063" stroke-width="2" stroke-linecap="round" stroke-linejoin="round"/>
</svg>
