<svg width="32" height="32" viewBox="0 0 32 32" fill="none" xmlns="http://www.w3.org/2000/svg">
<path d="M16 20C18.2091 20 20 18.2091 20 16C20 13.7909 18.2091 12 16 12C13.7909 12 12 13.7909 12 16C12 18.2091 13.7909 20 16 20Z" stroke="#FFB526" stroke-width="2" stroke-linecap="round" stroke-linejoin="round"/>
<path d="M9.63629 22.3637C8.79965 21.5285 8.13591 20.5365 7.68304 19.4445C7.23017 18.3525 6.99707 17.1819 6.99707 15.9997C6.99707 14.8175 7.23017 13.6469 7.68304 12.5549C8.13591 11.4629 8.79965 10.471 9.63629 9.63574" stroke="#FFB526" stroke-width="2" stroke-linecap="round" stroke-linejoin="round"/>
<path d="M22.3643 9.63574C23.2009 10.471 23.8646 11.4629 24.3175 12.5549C24.7704 13.6469 25.0035 14.8175 25.0035 15.9997C25.0035 17.1819 24.7704 18.3525 24.3175 19.4445C23.8646 20.5365 23.2009 21.5285 22.3643 22.3637" stroke="#FFB526" stroke-width="2" stroke-linecap="round" stroke-linejoin="round"/>
<path d="M6.10058 25.8996C4.79913 24.6004 3.76664 23.0573 3.06218 21.3586C2.35772 19.6599 1.99512 17.839 1.99512 16.0001C1.99512 14.1611 2.35772 12.3402 3.06218 10.6416C3.76664 8.9429 4.79913 7.39981 6.10058 6.10059" stroke="#FFB526" stroke-width="2" stroke-linecap="round" stroke-linejoin="round"/>
<path d="M25.8994 6.10059C27.2009 7.39981 28.2333 8.9429 28.9378 10.6416C29.6423 12.3402 30.0049 14.1611 30.0049 16.0001C30.0049 17.839 29.6423 19.6599 28.9378 21.3586C28.2333 23.0573 27.2009 24.6004 25.8994 25.8996" stroke="#FFB526" stroke-width="2" stroke-linecap="round" stroke-linejoin="round"/>
</svg>
