<svg width="40" height="40" viewBox="0 0 40 40" fill="none" xmlns="http://www.w3.org/2000/svg">
<path opacity="0.2" d="M5.625 17.3333V25.8522C5.62449 26.1218 5.71165 26.3844 5.87336 26.6001C6.92597 28.0008 11.3667 33.125 20 33.125C28.6333 33.125 33.074 28.0008 34.1266 26.6001C34.2884 26.3844 34.3755 26.1218 34.375 25.8522V17.3333L20 25L5.625 17.3333Z" fill="#2EBD97"/>
<path d="M1.25 15L20 5L38.75 15L20 25L1.25 15Z" stroke="#2EBD97" stroke-width="2.5" stroke-linecap="round" stroke-linejoin="round"/>
<path d="M29.375 37.5V20L20 15" stroke="#2EBD97" stroke-width="2.5" stroke-linecap="round" stroke-linejoin="round"/>
<path d="M34.375 17.3333V25.8522C34.3755 26.1218 34.2884 26.3844 34.1266 26.6001C33.074 28.0008 28.6333 33.125 20 33.125C11.3667 33.125 6.92597 28.0008 5.87336 26.6001C5.71165 26.3844 5.62449 26.1218 5.625 25.8522V17.3333" stroke="#2EBD97" stroke-width="2.5" stroke-linecap="round" stroke-linejoin="round"/>
</svg>
