<svg width="32" height="32" viewBox="0 0 32 32" fill="none" xmlns="http://www.w3.org/2000/svg">
<path d="M4.25894 17.5938C3.14076 15.7088 2.74916 13.4805 3.15768 11.3272C3.56621 9.17389 4.74675 7.2438 6.47764 5.89933C8.20853 4.55486 10.3707 3.8885 12.5581 4.02539C14.7455 4.16227 16.8078 5.09298 18.3575 6.64274C19.9073 8.19251 20.838 10.2547 20.9749 12.4421C21.1118 14.6296 20.4455 16.7917 19.101 18.5226C17.7565 20.2535 15.8264 21.4341 13.6731 21.8426C11.5199 22.2511 9.29149 21.8595 7.40648 20.7414L7.40651 20.7413L4.29808 21.6294C4.16947 21.6661 4.03338 21.6678 3.90391 21.6343C3.77443 21.6007 3.65628 21.5332 3.56171 21.4386C3.46713 21.344 3.39957 21.2259 3.36602 21.0964C3.33247 20.9669 3.33415 20.8308 3.37089 20.7022L4.25902 17.5938L4.25894 17.5938Z" stroke="#2EBD97" stroke-width="2" stroke-linecap="round" stroke-linejoin="round"/>
<path d="M11.5073 21.987C11.9498 23.243 12.6652 24.3853 13.6022 25.3315C14.5392 26.2777 15.6744 27.0044 16.926 27.4591C18.1776 27.9138 19.5144 28.0853 20.8403 27.9613C22.1662 27.8372 23.448 27.4206 24.5935 26.7415L24.5935 26.7414L27.7019 27.6296C27.8305 27.6663 27.9666 27.668 28.0961 27.6344C28.2255 27.6009 28.3437 27.5333 28.4383 27.4388C28.5328 27.3442 28.6004 27.226 28.6339 27.0966C28.6675 26.9671 28.6658 26.831 28.6291 26.7024L27.7409 23.594L27.741 23.594C28.5301 22.2632 28.9629 20.7515 28.9977 19.2047C29.0324 17.6579 28.6679 16.1282 27.9394 14.7633C27.2108 13.3984 26.1428 12.2443 24.8383 11.4124C23.5339 10.5804 22.037 10.0987 20.4922 10.0137" stroke="#2EBD97" stroke-width="2" stroke-linecap="round" stroke-linejoin="round"/>
</svg>
