<svg width="100" height="100" viewBox="0 0 100 100" fill="none" xmlns="http://www.w3.org/2000/svg">
<path d="M51.5626 84.3721H18.6198C17.8255 84.3721 17.0638 84.0565 16.5022 83.4949C15.9405 82.9333 15.625 82.1715 15.625 81.3773V48.4345C15.625 43.7151 16.5545 39.042 18.3606 34.6818C20.1666 30.3217 22.8137 26.36 26.1508 23.0229C29.4879 19.6858 33.4496 17.0387 37.8098 15.2326C42.1699 13.4266 46.8431 12.4971 51.5624 12.4971H51.5625C56.2819 12.4971 60.955 13.4266 65.3152 15.2327C69.6753 17.0387 73.637 19.6858 76.9741 23.0229C80.3113 26.36 82.9584 30.3217 84.7644 34.6819C86.5704 39.042 87.5 43.7152 87.5 48.4346V48.4346C87.5 57.9658 83.7137 67.1067 76.9742 73.8462C70.2346 80.5858 61.0938 84.3721 51.5626 84.3721Z" stroke="#2EBD97" stroke-width="4" stroke-linecap="round" stroke-linejoin="round"/>
<path d="M39.0625 43.7471H62.5" stroke="#2EBD97" stroke-width="4" stroke-linecap="round" stroke-linejoin="round"/>
<path d="M39.0625 56.2471H62.5" stroke="#2EBD97" stroke-width="4" stroke-linecap="round" stroke-linejoin="round"/>
</svg>
