<svg width="122" height="99" viewBox="0 0 122 99" fill="none" xmlns="http://www.w3.org/2000/svg">
<g filter="url(#filter0_d_1257_3975)">
<rect x="10" y="3" width="102" height="78.2386" rx="5.79545" fill="#D3F4D8"/>
<rect x="10.5795" y="3.57955" width="100.841" height="77.0796" rx="5.21591" stroke="#219954" stroke-width="1.15909"/>
</g>
<path d="M20.0518 17.6516L21.9529 15.75L20.0518 13.8483" stroke="#219954" stroke-width="0.753409" stroke-linecap="round" stroke-linejoin="round"/>
<path d="M16.8821 15.75H21.9518" stroke="#219954" stroke-width="0.753409" stroke-linecap="round" stroke-linejoin="round"/>
<path d="M21.9531 11.7656H24.4886C24.5847 11.7656 24.6768 11.8037 24.7448 11.8717C24.8127 11.9396 24.8509 12.0317 24.8509 12.1278V19.3721C24.8509 19.4682 24.8127 19.5603 24.7448 19.6282C24.6768 19.6962 24.5847 19.7343 24.4886 19.7343H21.9531" stroke="#219954" stroke-width="0.753409" stroke-linecap="round" stroke-linejoin="round"/>
<path d="M38.6332 16.3729C38.6332 17.1468 38.4153 17.7529 37.9795 18.1913C37.5464 18.6271 36.9429 18.845 36.169 18.845C35.3503 18.845 34.7006 18.5783 34.2199 18.0448C33.7418 17.5086 33.5028 16.7823 33.5028 15.8658C33.5028 14.9652 33.7405 14.2521 34.2159 13.7265C34.6939 13.2009 35.341 12.9381 36.1571 12.9381C36.7937 12.9381 37.3325 13.1111 37.7735 13.4571C38.2173 13.8031 38.4893 14.2613 38.5897 14.8318H37.6785C37.5728 14.4779 37.3866 14.2032 37.1199 14.0077C36.8531 13.8123 36.5335 13.7146 36.1611 13.7146C35.6144 13.7146 35.1852 13.9047 34.8735 14.2851C34.5645 14.6628 34.41 15.187 34.41 15.8579C34.41 16.5419 34.5685 17.0821 34.8854 17.4782C35.2024 17.8718 35.6329 18.0685 36.177 18.0685C36.6392 18.0685 37.0168 17.9338 37.31 17.6644C37.6032 17.3924 37.7524 17.0398 37.7577 16.6066V16.5076H36.28V15.7905H38.6332V16.3729ZM39.3978 18.7499V14.5822H40.214V15.2914H40.2338C40.3024 15.0484 40.4253 14.8582 40.6022 14.7209C40.7792 14.5835 40.9905 14.5149 41.2361 14.5149C41.318 14.5149 41.4157 14.5254 41.5293 14.5465V15.3429C41.4527 15.3112 41.3246 15.2953 41.145 15.2953C40.8703 15.2953 40.6524 15.3812 40.4913 15.5528C40.3328 15.7245 40.2536 15.9582 40.2536 16.2541V18.7499H39.3978ZM44.3461 15.4974C44.1585 15.2966 43.9169 15.1963 43.6211 15.1963C43.3253 15.1963 43.0796 15.298 42.8842 15.5013C42.6887 15.7021 42.5804 15.9622 42.5593 16.2818H44.6432C44.6326 15.9596 44.5336 15.6981 44.3461 15.4974ZM44.6392 17.5258H45.4514C45.3906 17.9087 45.1952 18.2217 44.865 18.4647C44.5349 18.7077 44.1321 18.8292 43.6567 18.8292C43.0466 18.8292 42.5659 18.6377 42.2146 18.2547C41.866 17.8691 41.6917 17.3462 41.6917 16.6859C41.6917 16.0309 41.866 15.504 42.2146 15.1051C42.5659 14.7063 43.0347 14.5069 43.6211 14.5069C44.1968 14.5069 44.6538 14.6958 44.9918 15.0735C45.3299 15.4485 45.4989 15.953 45.4989 16.5868V16.88H42.5554V16.9315C42.5554 17.296 42.657 17.5878 42.8604 17.8071C43.0638 18.0263 43.3358 18.1359 43.6765 18.1359C43.9169 18.1359 44.1229 18.0804 44.2946 17.9695C44.4662 17.8586 44.5811 17.7107 44.6392 17.5258ZM48.6327 15.4974C48.4451 15.2966 48.2035 15.1963 47.9077 15.1963C47.6118 15.1963 47.3662 15.298 47.1708 15.5013C46.9753 15.7021 46.867 15.9622 46.8459 16.2818H48.9298C48.9192 15.9596 48.8202 15.6981 48.6327 15.4974ZM48.9258 17.5258H49.738C49.6772 17.9087 49.4818 18.2217 49.1516 18.4647C48.8215 18.7077 48.4187 18.8292 47.9433 18.8292C47.3332 18.8292 46.8525 18.6377 46.5012 18.2547C46.1526 17.8691 45.9783 17.3462 45.9783 16.6859C45.9783 16.0309 46.1526 15.504 46.5012 15.1051C46.8525 14.7063 47.3213 14.5069 47.9077 14.5069C48.4834 14.5069 48.9404 14.6958 49.2784 15.0735C49.6165 15.4485 49.7855 15.953 49.7855 16.5868V16.88H46.842V16.9315C46.842 17.296 46.9436 17.5878 47.147 17.8071C47.3504 18.0263 47.6224 18.1359 47.9631 18.1359C48.2035 18.1359 48.4095 18.0804 48.5812 17.9695C48.7528 17.8586 48.8677 17.7107 48.9258 17.5258ZM50.7007 13.5957H51.5604V14.5822H52.3527V15.2597H51.5604V17.5575C51.5604 17.7371 51.6013 17.8691 51.6832 17.9536C51.7651 18.0382 51.8932 18.0804 52.0675 18.0804C52.1943 18.0804 52.288 18.0738 52.3488 18.0606V18.7381C52.2431 18.7645 52.0846 18.7777 51.8734 18.7777C51.4534 18.7777 51.1523 18.6918 50.9701 18.5202C50.7905 18.3458 50.7007 18.0566 50.7007 17.6525V15.2597H50.0945V14.5822H50.7007V13.5957ZM53.0856 18.7499V14.5822H53.9414V18.7499H53.0856ZM53.8661 13.8295C53.7684 13.9246 53.6509 13.9721 53.5135 13.9721C53.3762 13.9721 53.2586 13.9246 53.1609 13.8295C53.0658 13.7344 53.0183 13.6195 53.0183 13.4848C53.0183 13.3475 53.0658 13.2312 53.1609 13.1362C53.2586 13.0411 53.3762 12.9935 53.5135 12.9935C53.6535 12.9935 53.771 13.0411 53.8661 13.1362C53.9638 13.2312 54.0127 13.3475 54.0127 13.4848C54.0127 13.6195 53.9638 13.7344 53.8661 13.8295ZM54.8169 18.7499V14.5822H55.633V15.2795H55.6529C55.7691 15.0365 55.9381 14.8476 56.16 14.7129C56.3818 14.5782 56.6499 14.5109 56.9642 14.5109C57.4211 14.5109 57.7763 14.6482 58.0299 14.9229C58.2834 15.1949 58.4102 15.5713 58.4102 16.052V18.7499H57.5505V16.2184C57.5505 15.9015 57.4753 15.6611 57.3247 15.4974C57.1768 15.331 56.9563 15.2478 56.6631 15.2478C56.362 15.2478 56.1217 15.3455 55.9421 15.5409C55.7625 15.7364 55.6727 15.9965 55.6727 16.3214V18.7499H54.8169ZM61.0131 18.0566C61.3485 18.0566 61.6166 17.9299 61.8173 17.6763C62.0207 17.4228 62.1224 17.0821 62.1224 16.6542C62.1224 16.2263 62.0207 15.883 61.8173 15.6241C61.6166 15.3653 61.3485 15.2359 61.0131 15.2359C60.6829 15.2359 60.4188 15.364 60.2207 15.6202C60.0253 15.8764 59.9276 16.221 59.9276 16.6542C59.9276 17.0873 60.0253 17.4294 60.2207 17.6803C60.4188 17.9312 60.6829 18.0566 61.0131 18.0566ZM61.021 20.3188C60.535 20.3188 60.123 20.2026 59.7849 19.9702C59.4495 19.7377 59.2554 19.4393 59.2026 19.0748H60.0623C60.123 19.2491 60.2419 19.3891 60.4188 19.4948C60.5984 19.6004 60.8097 19.6532 61.0527 19.6532C61.3828 19.6532 61.643 19.5661 61.8332 19.3917C62.0233 19.2201 62.1184 18.9903 62.1184 18.7024V18.017H62.1026C61.9837 18.2468 61.8067 18.429 61.5717 18.5637C61.3393 18.6984 61.0765 18.7658 60.7833 18.7658C60.2577 18.7658 59.8378 18.5756 59.5235 18.1953C59.2092 17.8123 59.052 17.2973 59.052 16.6502C59.052 15.9952 59.2092 15.4762 59.5235 15.0933C59.8404 14.7077 60.267 14.5149 60.8031 14.5149C61.0963 14.5149 61.3591 14.5848 61.5915 14.7248C61.8239 14.8622 62.0035 15.0523 62.1303 15.2953H62.1461V14.5822H62.9781V18.6747C62.9781 19.1712 62.7998 19.5687 62.4433 19.8672C62.0894 20.1682 61.6153 20.3188 61.021 20.3188ZM66.9319 18.1438C67.233 18.1438 67.4852 18.0527 67.6886 17.8704C67.8946 17.6856 67.9976 17.4584 67.9976 17.189V16.8602L66.9715 16.9236C66.7153 16.9421 66.5173 17.0055 66.3773 17.1137C66.2399 17.2194 66.1713 17.362 66.1713 17.5416C66.1713 17.7239 66.2399 17.8704 66.3773 17.9814C66.5173 18.0897 66.7021 18.1438 66.9319 18.1438ZM66.6942 18.8213C66.2848 18.8213 65.9507 18.705 65.6919 18.4726C65.4357 18.2402 65.3076 17.9378 65.3076 17.5654C65.3076 17.2009 65.4423 16.9117 65.7117 16.6978C65.9811 16.4812 66.3627 16.3597 66.8566 16.3333L67.9976 16.2659V15.945C67.9976 15.7126 67.9237 15.5317 67.7758 15.4023C67.6279 15.2702 67.4232 15.2042 67.1617 15.2042C66.9187 15.2042 66.7206 15.2583 66.5674 15.3666C66.4169 15.4749 66.3218 15.6241 66.2822 15.8143H65.474C65.4978 15.4287 65.6642 15.1144 65.9732 14.8714C66.2822 14.6284 66.6889 14.5069 67.1934 14.5069C67.6979 14.5069 68.0993 14.6311 68.3978 14.8793C68.6988 15.1276 68.8494 15.4604 68.8494 15.8777V18.7499H68.0293V18.0646H68.0095C67.8907 18.2943 67.7097 18.4779 67.4667 18.6152C67.2264 18.7526 66.9689 18.8213 66.6942 18.8213ZM74.9029 14.5822V18.7499H74.0828V18.0448H74.063C73.8227 18.5651 73.3922 18.8252 72.7715 18.8252C72.3172 18.8252 71.9594 18.6879 71.6979 18.4132C71.4391 18.1359 71.3096 17.7582 71.3096 17.2801V14.5822H72.1654V17.1137C72.1654 17.4333 72.2406 17.6763 72.3912 17.8427C72.5417 18.0065 72.7636 18.0883 73.0568 18.0883C73.3631 18.0883 73.6048 17.9906 73.7818 17.7952C73.9587 17.5997 74.0472 17.3382 74.0472 17.0107V14.5822H74.9029ZM75.6755 15.7628C75.6755 15.3904 75.826 15.088 76.1271 14.8556C76.4282 14.6231 76.8217 14.5069 77.3077 14.5069C77.7699 14.5069 78.1489 14.6245 78.4447 14.8595C78.7432 15.0919 78.899 15.3944 78.9122 15.7668H78.108C78.0868 15.5766 78.0036 15.4274 77.8584 15.3191C77.7131 15.2108 77.5216 15.1567 77.2839 15.1567C77.0515 15.1567 76.864 15.2082 76.7214 15.3112C76.5814 15.4142 76.5114 15.5475 76.5114 15.7113C76.5114 15.9648 76.724 16.1444 77.1492 16.2501L77.8505 16.4125C78.2704 16.5129 78.5675 16.6502 78.7419 16.8245C78.9188 16.9962 79.0073 17.2366 79.0073 17.5456C79.0073 17.9259 78.8462 18.2349 78.524 18.4726C78.2044 18.7103 77.7884 18.8292 77.276 18.8292C76.7874 18.8292 76.3886 18.713 76.0796 18.4805C75.7732 18.2481 75.6028 17.9391 75.5685 17.5535H76.4163C76.4506 17.7542 76.5444 17.9087 76.6976 18.017C76.8508 18.1227 77.0568 18.1755 77.3156 18.1755C77.5718 18.1755 77.7739 18.1266 77.9218 18.0289C78.0723 17.9285 78.1476 17.7938 78.1476 17.6248C78.1476 17.4901 78.1027 17.3831 78.0129 17.3039C77.9231 17.2247 77.7699 17.1573 77.5533 17.1019L76.8085 16.9196C76.0532 16.7374 75.6755 16.3518 75.6755 15.7628ZM82.141 15.4974C81.9535 15.2966 81.7118 15.1963 81.416 15.1963C81.1202 15.1963 80.8746 15.298 80.6791 15.5013C80.4837 15.7021 80.3754 15.9622 80.3543 16.2818H82.4382C82.4276 15.9596 82.3285 15.6981 82.141 15.4974ZM82.4342 17.5258H83.2463C83.1856 17.9087 82.9902 18.2217 82.66 18.4647C82.3299 18.7077 81.9271 18.8292 81.4517 18.8292C80.8416 18.8292 80.3609 18.6377 80.0096 18.2547C79.661 17.8691 79.4867 17.3462 79.4867 16.6859C79.4867 16.0309 79.661 15.504 80.0096 15.1051C80.3609 14.7063 80.8297 14.5069 81.416 14.5069C81.9918 14.5069 82.4487 14.6958 82.7868 15.0735C83.1249 15.4485 83.2939 15.953 83.2939 16.5868V16.88H80.3503V16.9315C80.3503 17.296 80.452 17.5878 80.6554 17.8071C80.8587 18.0263 81.1308 18.1359 81.4715 18.1359C81.7118 18.1359 81.9178 18.0804 82.0895 17.9695C82.2612 17.8586 82.3761 17.7107 82.4342 17.5258ZM83.9595 18.7499V14.5822H84.7756V15.2914H84.7954C84.8641 15.0484 84.9869 14.8582 85.1638 14.7209C85.3408 14.5835 85.5521 14.5149 85.7977 14.5149C85.8796 14.5149 85.9773 14.5254 86.0909 14.5465V15.3429C86.0143 15.3112 85.8862 15.2953 85.7066 15.2953C85.4319 15.2953 85.214 15.3812 85.0529 15.5528C84.8944 15.7245 84.8152 15.9582 84.8152 16.2541V18.7499H83.9595Z" fill="#219954"/>
<path d="M15.7954 30.2386C15.7954 28.6382 17.0928 27.3409 18.6931 27.3409H103.307C104.907 27.3409 106.204 28.6382 106.204 30.2386V50.5227H15.7954V30.2386Z" fill="#E6FFF0"/>
<path d="M15.7954 52.2613H106.204V72.5454C106.204 74.1458 104.907 75.4431 103.307 75.4431H18.6931C17.0928 75.4431 15.7954 74.1458 15.7954 72.5454V52.2613Z" fill="white"/>
<path d="M20.9865 42.2954H21.6996V39.6925H24.8373V42.2954H25.5504V36.5786H24.8373V39.0507H21.6996V36.5786H20.9865V42.2954ZM28.2484 42.3746C29.1477 42.3746 29.8212 41.8358 29.9559 41.1544L29.9638 41.1148H29.2864L29.2745 41.1505C29.1556 41.5031 28.7872 41.7645 28.2642 41.7645C27.5313 41.7645 27.0638 41.2693 27.048 40.4215H30.0153V40.1679C30.0153 38.9319 29.3299 38.096 28.2048 38.096C27.0797 38.096 26.3507 38.9715 26.3507 40.2472V40.2511C26.3507 41.5466 27.0638 42.3746 28.2484 42.3746ZM28.2008 38.7061C28.803 38.7061 29.2467 39.0824 29.3141 39.8827H27.0599C27.1351 39.1141 27.6026 38.7061 28.2008 38.7061ZM30.7482 42.2954H31.4376V36.5786H30.7482V42.2954ZM32.4043 42.2954H33.0936V36.5786H32.4043V42.2954ZM35.7321 42.3746C36.8691 42.3746 37.6377 41.5506 37.6377 40.2353V40.2274C37.6377 38.9121 36.8652 38.096 35.7281 38.096C34.5911 38.096 33.8226 38.916 33.8226 40.2274V40.2353C33.8226 41.5466 34.5872 42.3746 35.7321 42.3746ZM35.7361 41.7645C35.0071 41.7645 34.5277 41.2059 34.5277 40.2353V40.2274C34.5277 39.2647 35.0111 38.7061 35.7281 38.7061C36.4571 38.7061 36.9325 39.2607 36.9325 40.2274V40.2353C36.9325 41.202 36.4611 41.7645 35.7361 41.7645ZM37.8199 43.4166H38.3112L38.8896 41.4793H38.1686L37.8199 43.4166ZM41.1874 42.2954H42.0669V38.0603H42.0907L45.0343 42.2954H45.8504V36.5786H44.9709V40.8058H44.9471L42.0075 36.5786H41.1874V42.2954ZM47.9184 42.3707C48.4691 42.3707 48.9524 42.0854 49.1941 41.6378H49.2099V42.2954H50.0696V39.4231C50.0696 38.5872 49.4239 38.0484 48.4057 38.0484C47.3796 38.0484 46.7576 38.5991 46.6982 39.3162L46.6942 39.3598H47.5024L47.5104 39.3241C47.5817 38.9913 47.8867 38.7576 48.3819 38.7576C48.9128 38.7576 49.2099 39.0349 49.2099 39.4945V39.8074L48.0769 39.8748C47.0904 39.9342 46.5278 40.3779 46.5278 41.1029V41.1108C46.5278 41.8596 47.0864 42.3707 47.9184 42.3707ZM47.3915 41.091V41.0831C47.3915 40.7305 47.6767 40.5047 48.1918 40.473L49.2099 40.4096V40.7345C49.2099 41.2772 48.7543 41.6853 48.1522 41.6853C47.6926 41.6853 47.3915 41.4555 47.3915 41.091ZM50.9016 42.2954H51.7573V39.7203C51.7573 39.1815 52.1179 38.7813 52.625 38.7813C53.1083 38.7813 53.4133 39.0904 53.4133 39.5737V42.2954H54.2532V39.6886C54.2532 39.1617 54.6058 38.7813 55.1129 38.7813C55.62 38.7813 55.9092 39.0943 55.9092 39.6371V42.2954H56.7689V39.4311C56.7689 38.5951 56.2301 38.0484 55.4061 38.0484C54.8118 38.0484 54.3206 38.3614 54.1066 38.8685H54.0868C53.9204 38.3455 53.5005 38.0484 52.926 38.0484C52.3793 38.0484 51.9554 38.3376 51.7771 38.7734H51.7573V38.1277H50.9016V42.2954ZM59.3758 42.3786C60.386 42.3786 61.0278 41.7764 61.1625 41.1148L61.1704 41.0712H60.3583L60.3464 41.1029C60.2394 41.4159 59.9027 41.6774 59.3956 41.6774C58.7141 41.6774 58.2823 41.2178 58.2665 40.4294H61.218V40.1402C61.218 38.8883 60.5009 38.0484 59.3322 38.0484C58.1635 38.0484 57.4107 38.92 57.4107 40.2234V40.2274C57.4107 41.5427 58.1516 42.3786 59.3758 42.3786ZM59.3361 38.7496C59.8947 38.7496 60.2988 39.1022 60.3701 39.8233H58.2784C58.3536 39.126 58.7815 38.7496 59.3361 38.7496ZM65.5838 42.3905C66.9387 42.3905 67.7627 41.7289 67.7627 40.6869V40.683C67.7627 39.7995 67.2556 39.3201 66.075 39.0705L65.4491 38.9398C64.736 38.7853 64.4111 38.5238 64.4111 38.096V38.092C64.4111 37.5928 64.8628 37.2561 65.5719 37.2521C66.2494 37.2521 66.7089 37.573 66.7882 38.1039L66.7921 38.1593H67.6558L67.6518 38.092C67.5924 37.1333 66.7763 36.4835 65.5838 36.4835C64.3755 36.4835 63.5158 37.1531 63.5118 38.1277V38.1316C63.5118 38.9794 64.0546 39.4945 65.1757 39.7322L65.7977 39.8629C66.5544 40.0293 66.8674 40.2789 66.8674 40.7384V40.7424C66.8674 41.2772 66.3841 41.6219 65.6194 41.6219C64.8548 41.6219 64.3279 41.2931 64.2487 40.7662L64.2408 40.7147H63.3771L63.3811 40.7741C63.4524 41.7804 64.3002 42.3905 65.5838 42.3905ZM69.8783 42.3786C70.5122 42.3786 70.9361 42.0894 71.154 41.6694H71.1738V42.2954H72.0335V38.1277H71.1738V40.5602C71.1738 41.2099 70.7856 41.6417 70.1834 41.6417C69.5891 41.6417 69.2959 41.2931 69.2959 40.6632V38.1277H68.4402V40.8296C68.4402 41.7883 68.9632 42.3786 69.8783 42.3786ZM72.8813 42.2954H73.737V39.8114C73.737 39.1894 74.0778 38.8289 74.6284 38.8289C74.7948 38.8289 74.9454 38.8487 75.0127 38.8764V38.0801C74.9454 38.0682 74.8384 38.0484 74.7156 38.0484C74.2402 38.0484 73.8916 38.3535 73.7569 38.8408H73.737V38.1277H72.8813V42.2954ZM75.5436 42.2954H76.3993V39.8669C76.3993 39.2171 76.7876 38.7813 77.3898 38.7813C77.984 38.7813 78.2772 39.1339 78.2772 39.7599V42.2954H79.1369V39.5975C79.1369 38.6387 78.61 38.0484 77.6948 38.0484C77.0649 38.0484 76.637 38.3337 76.4191 38.7576H76.3993V38.1277H75.5436V42.2954ZM81.1891 42.3707C81.7398 42.3707 82.2231 42.0854 82.4648 41.6378H82.4806V42.2954H83.3403V39.4231C83.3403 38.5872 82.6945 38.0484 81.6764 38.0484C80.6503 38.0484 80.0283 38.5991 79.9689 39.3162L79.9649 39.3598H80.7731L80.781 39.3241C80.8523 38.9913 81.1574 38.7576 81.6526 38.7576C82.1835 38.7576 82.4806 39.0349 82.4806 39.4945V39.8074L81.3475 39.8748C80.3611 39.9342 79.7985 40.3779 79.7985 41.1029V41.1108C79.7985 41.8596 80.3571 42.3707 81.1891 42.3707ZM80.6622 41.091V41.0831C80.6622 40.7305 80.9474 40.5047 81.4624 40.473L82.4806 40.4096V40.7345C82.4806 41.2772 82.025 41.6853 81.4228 41.6853C80.9633 41.6853 80.6622 41.4555 80.6622 41.091ZM84.1723 42.2954H85.028V39.7203C85.028 39.1815 85.3885 38.7813 85.8956 38.7813C86.3789 38.7813 86.684 39.0904 86.684 39.5737V42.2954H87.5239V39.6886C87.5239 39.1617 87.8765 38.7813 88.3836 38.7813C88.8907 38.7813 89.1799 39.0943 89.1799 39.6371V42.2954H90.0396V39.4311C90.0396 38.5951 89.5008 38.0484 88.6768 38.0484C88.0825 38.0484 87.5912 38.3614 87.3773 38.8685H87.3575C87.1911 38.3455 86.7712 38.0484 86.1967 38.0484C85.65 38.0484 85.2261 38.3376 85.0478 38.7734H85.028V38.1277H84.1723V42.2954ZM92.6464 42.3786C93.6567 42.3786 94.2985 41.7764 94.4332 41.1148L94.4411 41.0712H93.6289L93.617 41.1029C93.5101 41.4159 93.1733 41.6774 92.6662 41.6774C91.9848 41.6774 91.553 41.2178 91.5371 40.4294H94.4886V40.1402C94.4886 38.8883 93.7715 38.0484 92.6028 38.0484C91.4341 38.0484 90.6814 38.92 90.6814 40.2234V40.2274C90.6814 41.5427 91.4222 42.3786 92.6464 42.3786ZM92.6068 38.7496C93.1654 38.7496 93.5695 39.1022 93.6408 39.8233H91.549C91.6243 39.126 92.0522 38.7496 92.6068 38.7496Z" fill="#333333"/>
<path d="M26.1875 59.1434H26.1875C26.6679 59.1434 27.1285 59.3342 27.4682 59.6739C27.8078 60.0135 27.9986 60.4742 27.9986 60.9545V63.8522C27.9986 64.3325 27.8078 64.7932 27.4682 65.1328C27.1285 65.4725 26.6679 65.6633 26.1875 65.6633H26.1875C25.9497 65.6633 25.7142 65.6165 25.4945 65.5254C25.2747 65.4344 25.0751 65.301 24.9069 65.1328C24.7387 64.9647 24.6053 64.765 24.5143 64.5453C24.4233 64.3256 24.3765 64.0901 24.3765 63.8522V60.9545C24.3765 60.4742 24.5673 60.0135 24.9069 59.6739C25.2466 59.3342 25.7072 59.1434 26.1875 59.1434V59.1434Z" stroke="#333333" stroke-width="0.753409" stroke-linecap="round" stroke-linejoin="round"/>
<path d="M26.1875 67.1122V68.561" stroke="#333333" stroke-width="0.753409" stroke-linecap="round" stroke-linejoin="round"/>
<path d="M29.4274 64.2144C29.3382 65.0114 28.9584 65.7475 28.3607 66.282C27.763 66.8166 26.9892 67.1122 26.1873 67.1122C25.3854 67.1122 24.6116 66.8166 24.0139 66.282C23.4162 65.7475 23.0364 65.0114 22.9473 64.2144" stroke="#333333" stroke-width="0.753409" stroke-linecap="round" stroke-linejoin="round"/>
<path d="M35.4355 61.1354H37.3569C38.2048 61.1354 38.8664 61.3877 39.3418 61.8921C39.8172 62.3939 40.0549 63.0939 40.0549 63.9918C40.0549 64.8925 39.8172 65.595 39.3418 66.0995C38.869 66.6013 38.2074 66.8522 37.3569 66.8522H35.4355V61.1354ZM36.1486 61.7772V66.2104H37.3094C37.9565 66.2104 38.4543 66.0203 38.803 65.6399C39.1516 65.257 39.3259 64.7102 39.3259 63.9998C39.3259 63.284 39.1516 62.7347 38.803 62.3517C38.457 61.9687 37.9591 61.7772 37.3094 61.7772H36.1486ZM42.4874 63.2589C42.1678 63.2589 41.9024 63.3699 41.6911 63.5917C41.4824 63.8109 41.3675 64.0935 41.3464 64.4395H43.5848C43.5769 64.0909 43.4725 63.807 43.2718 63.5877C43.0711 63.3685 42.8096 63.2589 42.4874 63.2589ZM43.5689 65.6716H44.2464C44.1857 66.0361 43.9955 66.3359 43.6759 66.5709C43.359 66.806 42.9773 66.9235 42.531 66.9235C41.942 66.9235 41.4785 66.7334 41.1404 66.353C40.8023 65.9727 40.6333 65.4577 40.6333 64.808C40.6333 64.1635 40.8023 63.6445 41.1404 63.251C41.4811 62.8575 41.9341 62.6607 42.4993 62.6607C43.0539 62.6607 43.4924 62.8469 43.8146 63.2193C44.1368 63.5917 44.2979 64.0909 44.2979 64.7168V64.9783H41.3425V65.0179C41.3425 65.4141 41.4507 65.731 41.6673 65.9688C41.8839 66.2065 42.1771 66.3253 42.5468 66.3253C42.8057 66.3253 43.0262 66.2659 43.2084 66.147C43.3907 66.0282 43.5108 65.8697 43.5689 65.6716ZM45.217 66.8522V63.2985H44.6426V62.732H45.217V62.2725C45.217 61.8763 45.3095 61.5831 45.4944 61.3929C45.6819 61.2001 45.9658 61.1037 46.3461 61.1037C46.494 61.1037 46.634 61.1143 46.7661 61.1354V61.694C46.6551 61.6782 46.5508 61.6703 46.4531 61.6703C46.086 61.6703 45.9024 61.8723 45.9024 62.2764V62.732H46.7463V63.2985H45.9064V66.8522H45.217ZM48.5805 66.3372C48.9054 66.3372 49.1774 66.2368 49.3967 66.0361C49.6185 65.8327 49.7294 65.5831 49.7294 65.2873V64.9506L48.6281 65.0179C48.3508 65.0364 48.1355 65.1038 47.9823 65.22C47.8318 65.3362 47.7565 65.492 47.7565 65.6875C47.7565 65.8829 47.8318 66.0401 47.9823 66.1589C48.1329 66.2778 48.3323 66.3372 48.5805 66.3372ZM48.426 66.9235C48.0167 66.9235 47.6852 66.81 47.4316 66.5828C47.1807 66.3557 47.0553 66.0572 47.0553 65.6875C47.0553 65.3336 47.1847 65.0509 47.4435 64.8397C47.705 64.6284 48.0734 64.5095 48.5488 64.4831L49.7294 64.4158V64.0711C49.7294 63.8202 49.6502 63.6234 49.4917 63.4808C49.3333 63.3382 49.1114 63.2668 48.8262 63.2668C48.5647 63.2668 48.3521 63.325 48.1883 63.4412C48.0246 63.5547 47.9203 63.7145 47.8754 63.9205H47.2098C47.2336 63.5534 47.392 63.2523 47.6852 63.0173C47.981 62.7796 48.3666 62.6607 48.842 62.6607C49.3253 62.6607 49.7083 62.7822 49.9909 63.0252C50.2762 63.2682 50.4188 63.5944 50.4188 64.0037V66.8522H49.7651V66.1431H49.7493C49.6251 66.3781 49.4429 66.567 49.2025 66.7096C48.9622 66.8522 48.7034 66.9235 48.426 66.9235ZM54.6777 62.732V66.8522H54.024V66.1827H54.0081C53.7519 66.6766 53.3161 66.9235 52.7007 66.9235C52.2544 66.9235 51.9044 66.7888 51.6509 66.5194C51.4 66.2474 51.2745 65.8763 51.2745 65.4062V62.732H51.9639V65.2834C51.9639 65.9701 52.2808 66.3134 52.9147 66.3134C53.2475 66.3134 53.5089 66.2091 53.6991 66.0004C53.8919 65.7892 53.9883 65.5065 53.9883 65.1526V62.732H54.6777ZM55.6087 66.8522V61.1354H56.298V66.8522H55.6087ZM57.4509 61.7376H58.1402V62.732H58.9405V63.2985H58.1402V65.7469C58.1402 65.9344 58.1812 66.0731 58.263 66.1629C58.3449 66.25 58.4743 66.2936 58.6513 66.2936C58.7622 66.2936 58.8573 66.287 58.9365 66.2738V66.8522C58.8467 66.8733 58.7015 66.8839 58.5007 66.8839C58.123 66.8839 57.8536 66.7994 57.6925 66.6304C57.5314 66.4613 57.4509 66.1787 57.4509 65.7825V63.2985H56.8368V62.732H57.4509V61.7376Z" fill="#333333"/>
<defs>
<filter id="filter0_d_1257_3975" x="0.147728" y="0.102273" width="121.705" height="97.9432" filterUnits="userSpaceOnUse" color-interpolation-filters="sRGB">
<feFlood flood-opacity="0" result="BackgroundImageFix"/>
<feColorMatrix in="SourceAlpha" type="matrix" values="0 0 0 0 0 0 0 0 0 0 0 0 0 0 0 0 0 0 127 0" result="hardAlpha"/>
<feMorphology radius="4.05682" operator="erode" in="SourceAlpha" result="effect1_dropShadow_1257_3975"/>
<feOffset dy="6.95455"/>
<feGaussianBlur stdDeviation="6.95455"/>
<feComposite in2="hardAlpha" operator="out"/>
<feColorMatrix type="matrix" values="0 0 0 0 0.129412 0 0 0 0 0.6 0 0 0 0 0.329412 0 0 0 0.13 0"/>
<feBlend mode="normal" in2="BackgroundImageFix" result="effect1_dropShadow_1257_3975"/>
<feBlend mode="normal" in="SourceGraphic" in2="effect1_dropShadow_1257_3975" result="shape"/>
</filter>
</defs>
</svg>
