<svg width="31" height="31" viewBox="0 0 31 31" fill="none" xmlns="http://www.w3.org/2000/svg">
<path d="M11.72 20.2248C16.4171 20.2248 20.225 16.417 20.225 11.7198C20.225 7.02266 16.4171 3.21484 11.72 3.21484C7.02278 3.21484 3.21497 7.02266 3.21497 11.7198C3.21497 16.417 7.02278 20.2248 11.72 20.2248Z" stroke="#8930FD" stroke-width="1.89" stroke-linecap="round" stroke-linejoin="round"/>
<path d="M19.28 27.7849C23.9772 27.7849 27.785 23.9771 27.785 19.2799C27.785 14.5827 23.9772 10.7749 19.28 10.7749C14.5828 10.7749 10.775 14.5827 10.775 19.2799C10.775 23.9771 14.5828 27.7849 19.28 27.7849Z" stroke="#8930FD" stroke-width="1.89" stroke-linecap="round" stroke-linejoin="round"/>
<path d="M14.8524 12.0171L18.983 16.1476" stroke="#8930FD" stroke-width="1.89" stroke-linecap="round" stroke-linejoin="round"/>
<path d="M12.0172 14.8521L16.1478 18.9826" stroke="#8930FD" stroke-width="1.89" stroke-linecap="round" stroke-linejoin="round"/>
</svg>
