<svg width="29" height="29" viewBox="0 0 29 29" fill="none" xmlns="http://www.w3.org/2000/svg">
<path d="M14.5 14.5001V3.88013" stroke="#2BC3F7" stroke-width="1.77" stroke-linecap="round" stroke-linejoin="round"/>
<path d="M23.6971 9.18994L5.30273 19.8099" stroke="#2BC3F7" stroke-width="1.77" stroke-linecap="round" stroke-linejoin="round"/>
<path d="M4.05722 16.4416C3.59741 13.9532 4.03981 11.3824 5.30496 9.19083C6.57012 6.99928 8.57515 5.33058 10.96 4.48438V12.4562L4.05722 16.4416Z" stroke="#2BC3F7" stroke-width="1.77" stroke-linecap="round" stroke-linejoin="round"/>
<path d="M14.4999 3.88013C16.3606 3.88047 18.1885 4.36965 19.8006 5.29868C21.4127 6.22771 22.7525 7.56397 23.6857 9.17367C24.6189 10.7834 25.1128 12.61 25.1179 14.4706C25.1231 16.3313 24.6394 18.1606 23.7151 19.7755C22.7909 21.3903 21.4586 22.734 19.8516 23.672C18.2447 24.6099 16.4196 25.1093 14.559 25.12C12.6983 25.1306 10.8676 24.6523 9.24999 23.7328C7.6324 22.8134 6.28477 21.4851 5.34204 19.8809" stroke="#2BC3F7" stroke-width="1.77" stroke-linecap="round" stroke-linejoin="round"/>
</svg>
