<svg width="67" height="114" viewBox="0 0 67 114" fill="none" xmlns="http://www.w3.org/2000/svg">
<path d="M114.714 56.0553C111.097 56.0553 109.24 53.8337 107.737 52.0413C106.235 50.249 105.253 49.1865 103.241 49.1865C101.228 49.1865 100.225 50.2598 98.7437 52.0413C97.2626 53.8229 95.3951 56.0553 91.7676 56.0553C88.14 56.0553 86.2887 53.8337 84.7915 52.0413C83.2943 50.249 82.307 49.1865 80.3 49.1865C78.293 49.1865 77.2842 50.2598 75.8031 52.0413C74.322 53.8229 72.4546 56.0553 68.827 56.0553C65.1995 56.0553 63.3481 53.8337 61.851 52.0413C60.3538 50.249 59.361 49.1865 57.3541 49.1865C55.3471 49.1865 54.3329 50.2598 52.8572 52.0413C51.3815 53.8229 49.5087 56.0553 45.8811 56.0553C42.2535 56.0553 40.4022 53.8337 38.905 52.0413C37.4079 50.249 36.4205 49.1865 34.4081 49.1865C32.3958 49.1865 31.3923 50.2598 29.9166 52.0413C28.4409 53.8229 26.5627 56.0553 22.9406 56.0553C19.3184 56.0553 17.4617 53.8337 15.9645 52.0413C14.4673 50.249 13.4799 49.1865 11.473 49.1865C9.466 49.1865 8.45178 50.2598 6.97607 52.0413C5.50037 53.8229 3.62756 56.0553 0 56.0553V52.8355C2.01233 52.8355 3.01581 51.7623 4.49689 49.9807C5.97796 48.1991 7.8454 45.9668 11.473 45.9668C15.1005 45.9668 16.9465 48.1938 18.449 49.9807C19.9516 51.7677 20.9336 52.8355 22.9459 52.8355C24.9583 52.8355 25.9617 51.7623 27.4428 49.9807C28.9239 48.1991 30.7913 45.9668 34.4189 45.9668C38.0464 45.9668 39.8978 48.1938 41.395 49.9807C42.8921 51.7677 43.8795 52.8355 45.8918 52.8355C47.9042 52.8355 48.9077 51.7623 50.3834 49.9807C51.8591 48.1991 53.7319 45.9668 57.3594 45.9668C60.987 45.9668 62.833 48.1938 64.3355 49.9807C65.8381 51.7677 66.8201 52.8355 68.8324 52.8355C70.8447 52.8355 71.8482 51.7623 73.3293 49.9807C74.8104 48.1991 76.6724 45.9668 80.3054 45.9668C83.9383 45.9668 85.7789 48.1938 87.2814 49.9807C88.784 51.7677 89.7659 52.8355 91.7783 52.8355C93.7906 52.8355 94.7941 51.7623 96.2751 49.9807C97.7562 48.1991 99.6183 45.9668 103.251 45.9668C106.884 45.9668 108.725 48.1938 110.227 49.9807C111.73 51.7677 112.717 52.8355 114.724 52.8355L114.714 56.0553Z" fill="#FFE9F2"/>
<path d="M114.714 44.5719C111.097 44.5719 109.24 42.3449 107.737 40.5579C106.235 38.771 105.253 37.6978 103.241 37.6978C101.228 37.6978 100.225 38.771 98.7437 40.5579C97.2626 42.3449 95.3951 44.5719 91.7676 44.5719C88.14 44.5719 86.2887 42.3449 84.7915 40.5579C83.2943 38.771 82.307 37.6978 80.3 37.6978C78.293 37.6978 77.2842 38.771 75.8031 40.5579C74.322 42.3449 72.4546 44.5719 68.827 44.5719C65.1995 44.5719 63.3481 42.3449 61.851 40.5579C60.3538 38.771 59.361 37.6978 57.3541 37.6978C55.3471 37.6978 54.3329 38.771 52.8572 40.5579C51.3815 42.3449 49.5087 44.5719 45.8811 44.5719C42.2535 44.5719 40.4022 42.3449 38.905 40.5579C37.4079 38.771 36.4205 37.6978 34.4081 37.6978C32.3958 37.6978 31.3923 38.771 29.9166 40.5579C28.4409 42.3449 26.5627 44.5719 22.9406 44.5719C19.3184 44.5719 17.4617 42.3449 15.9645 40.5579C14.4673 38.771 13.4799 37.6978 11.473 37.6978C9.466 37.6978 8.45178 38.771 6.97607 40.5579C5.50037 42.3449 3.62756 44.5719 0 44.5719V41.3521C2.01233 41.3521 3.01581 40.2789 4.49689 38.492C5.97796 36.705 7.8454 34.478 11.473 34.478C15.1005 34.478 16.9465 36.705 18.449 38.492C19.9516 40.2789 20.9336 41.3521 22.9459 41.3521C24.9583 41.3521 25.9617 40.2789 27.4428 38.492C28.9239 36.705 30.7913 34.478 34.4189 34.478C38.0464 34.478 39.8978 36.705 41.395 38.492C42.8921 40.2789 43.8795 41.3521 45.8918 41.3521C47.9042 41.3521 48.9077 40.2789 50.3834 38.492C51.8591 36.705 53.7319 34.478 57.3594 34.478C60.987 34.478 62.833 36.705 64.3355 38.492C65.8381 40.2789 66.8201 41.3521 68.8324 41.3521C70.8447 41.3521 71.8482 40.2789 73.3293 38.492C74.8104 36.705 76.6724 34.478 80.3054 34.478C83.9383 34.478 85.7789 36.705 87.2814 38.492C88.784 40.2789 89.7659 41.3521 91.7783 41.3521C93.7906 41.3521 94.7941 40.2789 96.2751 38.492C97.7562 36.705 99.6183 34.478 103.251 34.478C106.884 34.478 108.725 36.705 110.227 38.492C111.73 40.2789 112.717 41.3521 114.724 41.3521L114.714 44.5719Z" fill="#FFE9F2"/>
<path d="M114.714 33.0826C111.097 33.0826 109.24 30.8556 107.737 29.0687C106.235 27.2817 105.253 26.2139 103.241 26.2139C101.228 26.2139 100.225 27.2871 98.7437 29.0687C97.2626 30.8503 95.3951 33.0826 91.7676 33.0826C88.14 33.0826 86.2887 30.8556 84.7915 29.0687C83.2943 27.2817 82.307 26.2139 80.3 26.2139C78.293 26.2139 77.2842 27.2871 75.8031 29.0687C74.322 30.8503 72.4546 33.0826 68.827 33.0826C65.1995 33.0826 63.3481 30.8556 61.851 29.0687C60.3538 27.2817 59.361 26.2139 57.3541 26.2139C55.3471 26.2139 54.3329 27.2871 52.8572 29.0687C51.3815 30.8503 49.5087 33.0826 45.8811 33.0826C42.2535 33.0826 40.4022 30.8556 38.905 29.0687C37.4079 27.2817 36.4205 26.2139 34.4081 26.2139C32.3958 26.2139 31.3923 27.2871 29.9166 29.0687C28.4409 30.8503 26.5627 33.0826 22.9406 33.0826C19.3184 33.0826 17.4617 30.8556 15.9645 29.0687C14.4673 27.2817 13.4799 26.2139 11.473 26.2139C9.466 26.2139 8.45178 27.2871 6.97607 29.0687C5.50037 30.8503 3.62756 33.0826 0 33.0826V29.8629C2.01233 29.8629 3.01581 28.7896 4.49689 27.0081C5.97796 25.2265 7.8454 22.9941 11.473 22.9941C15.1005 22.9941 16.9465 25.2211 18.449 27.0081C19.9516 28.795 20.9336 29.8629 22.9459 29.8629C24.9583 29.8629 25.9617 28.7896 27.4428 27.0081C28.9239 25.2265 30.7913 22.9941 34.4189 22.9941C38.0464 22.9941 39.8978 25.2211 41.395 27.0081C42.8921 28.795 43.8795 29.8629 45.8918 29.8629C47.9042 29.8629 48.9077 28.7896 50.3834 27.0081C51.8591 25.2265 53.7319 22.9941 57.3594 22.9941C60.987 22.9941 62.833 25.2211 64.3355 27.0081C65.8381 28.795 66.8201 29.8629 68.8324 29.8629C70.8447 29.8629 71.8482 28.7896 73.3293 27.0081C74.8104 25.2265 76.6724 22.9941 80.3054 22.9941C83.9383 22.9941 85.7789 25.2211 87.2814 27.0081C88.784 28.795 89.7659 29.8629 91.7783 29.8629C93.7906 29.8629 94.7941 28.7896 96.2751 27.0081C97.7562 25.2265 99.6183 22.9941 103.251 22.9941C106.884 22.9941 108.725 25.2211 110.227 27.0081C111.73 28.795 112.717 29.8629 114.724 29.8629L114.714 33.0826Z" fill="#FFE9F2"/>
<path d="M114.714 21.599C111.097 21.599 109.24 19.372 107.737 17.585C106.235 15.7981 105.253 14.7249 103.241 14.7249C101.228 14.7249 100.225 15.7981 98.7437 17.585C97.2626 19.372 95.3951 21.599 91.7676 21.599C88.14 21.599 86.2887 19.372 84.7915 17.585C83.2943 15.7981 82.307 14.7249 80.3 14.7249C78.293 14.7249 77.2842 15.7981 75.8031 17.585C74.322 19.372 72.4546 21.599 68.827 21.599C65.1995 21.599 63.3481 19.372 61.851 17.585C60.3538 15.7981 59.361 14.7249 57.3541 14.7249C55.3471 14.7249 54.3329 15.7981 52.8572 17.585C51.3815 19.372 49.5087 21.599 45.8811 21.599C42.2535 21.599 40.4022 19.372 38.905 17.585C37.4079 15.7981 36.4205 14.7249 34.4081 14.7249C32.3958 14.7249 31.3923 15.7981 29.9166 17.585C28.4409 19.372 26.5627 21.599 22.9406 21.599C19.3184 21.599 17.4617 19.372 15.9645 17.585C14.4673 15.7981 13.4799 14.7249 11.473 14.7249C9.466 14.7249 8.45178 15.7981 6.97607 17.585C5.50037 19.372 3.62756 21.599 0 21.599V18.3792C2.01233 18.3792 3.01581 17.306 4.49689 15.5191C5.97796 13.7321 7.8454 11.5051 11.473 11.5051C15.1005 11.5051 16.9465 13.7321 18.449 15.5191C19.9516 17.306 20.9336 18.3792 22.9459 18.3792C24.9583 18.3792 25.9617 17.306 27.4428 15.5191C28.9239 13.7321 30.7913 11.5051 34.4189 11.5051C38.0464 11.5051 39.8978 13.7321 41.395 15.5191C42.8921 17.306 43.8795 18.3792 45.8918 18.3792C47.9042 18.3792 48.9077 17.306 50.3834 15.5191C51.8591 13.7321 53.7319 11.5051 57.3594 11.5051C60.987 11.5051 62.833 13.7321 64.3355 15.5191C65.8381 17.306 66.8201 18.3792 68.8324 18.3792C70.8447 18.3792 71.8482 17.306 73.3293 15.5191C74.8104 13.7321 76.6724 11.5051 80.3054 11.5051C83.9383 11.5051 85.7789 13.7321 87.2814 15.5191C88.784 17.306 89.7659 18.3792 91.7783 18.3792C93.7906 18.3792 94.7941 17.306 96.2751 15.5191C97.7562 13.7321 99.6183 11.5051 103.251 11.5051C106.884 11.5051 108.725 13.7321 110.227 15.5191C111.73 17.306 112.717 18.3792 114.724 18.3792L114.714 21.599Z" fill="#FFE9F2"/>
<path d="M114.714 10.0885C111.097 10.0885 109.24 7.8615 107.737 6.07455C106.235 4.2876 105.253 3.21973 103.241 3.21973C101.228 3.21973 100.225 4.29297 98.7437 6.07455C97.2626 7.85613 95.3951 10.0885 91.7676 10.0885C88.14 10.0885 86.2887 7.8615 84.7915 6.07455C83.2943 4.2876 82.307 3.21973 80.3 3.21973C78.293 3.21973 77.2842 4.29297 75.8031 6.07455C74.322 7.85613 72.4546 10.0885 68.827 10.0885C65.1995 10.0885 63.3481 7.8615 61.851 6.07455C60.3538 4.2876 59.361 3.21973 57.3541 3.21973C55.3471 3.21973 54.3329 4.29297 52.8572 6.07455C51.3815 7.85613 49.5087 10.0885 45.8811 10.0885C42.2535 10.0885 40.4022 7.8615 38.905 6.07455C37.4079 4.2876 36.4205 3.21973 34.4081 3.21973C32.3958 3.21973 31.3923 4.29297 29.9166 6.07455C28.4409 7.85613 26.5627 10.0885 22.9406 10.0885C19.3184 10.0885 17.4617 7.8615 15.9645 6.07455C14.4673 4.2876 13.4799 3.21973 11.473 3.21973C9.466 3.21973 8.45178 4.29297 6.97607 6.07455C5.50037 7.85613 3.62756 10.0885 0 10.0885V6.86875C2.01233 6.86875 3.01581 5.79551 4.49689 4.01393C5.97796 2.23235 7.8454 0 11.473 0C15.1005 0 16.9465 2.22161 18.449 4.01393C19.9516 5.80624 20.9336 6.86875 22.9459 6.86875C24.9583 6.86875 25.9617 5.79551 27.4428 4.01393C28.9239 2.23235 30.7913 0 34.4189 0C38.0464 0 39.8978 2.22161 41.395 4.01393C42.8921 5.80624 43.8795 6.86875 45.8918 6.86875C47.9042 6.86875 48.9077 5.79551 50.3834 4.01393C51.8591 2.23235 53.7319 0 57.3594 0C60.987 0 62.833 2.22161 64.3355 4.01393C65.8381 5.80624 66.8201 6.86875 68.8324 6.86875C70.8447 6.86875 71.8482 5.79551 73.3293 4.01393C74.8104 2.23235 76.6724 0 80.3054 0C83.9383 0 85.7789 2.22161 87.2814 4.01393C88.784 5.80624 89.7659 6.86875 91.7783 6.86875C93.7906 6.86875 94.7941 5.79551 96.2751 4.01393C97.7562 2.23235 99.6183 0 103.251 0C106.884 0 108.725 2.22161 110.227 4.01393C111.73 5.80624 112.717 6.86875 114.724 6.86875L114.714 10.0885Z" fill="#FFE9F2"/>
<path d="M114.714 113.49C111.097 113.49 109.24 111.263 107.737 109.476C106.235 107.689 105.253 106.621 103.241 106.621C101.228 106.621 100.225 107.694 98.7437 109.476C97.2626 111.257 95.3951 113.49 91.7676 113.49C88.14 113.49 86.2887 111.263 84.7915 109.476C83.2943 107.689 82.307 106.621 80.3 106.621C78.293 106.621 77.2842 107.694 75.8031 109.476C74.322 111.257 72.4546 113.49 68.827 113.49C65.1995 113.49 63.3481 111.263 61.851 109.476C60.3538 107.689 59.361 106.621 57.3541 106.621C55.3471 106.621 54.3329 107.694 52.8572 109.476C51.3815 111.257 49.5087 113.49 45.8811 113.49C42.2535 113.49 40.4022 111.263 38.905 109.476C37.4079 107.689 36.4205 106.621 34.4081 106.621C32.3958 106.621 31.3923 107.694 29.9166 109.476C28.4409 111.257 26.5627 113.49 22.9406 113.49C19.3184 113.49 17.4617 111.263 15.9645 109.476C14.4673 107.689 13.4799 106.621 11.473 106.621C9.466 106.621 8.45178 107.694 6.97607 109.476C5.50037 111.257 3.62756 113.49 0 113.49V110.27C2.01233 110.27 3.01581 109.197 4.49689 107.415C5.97796 105.634 7.8454 103.401 11.473 103.401C15.1005 103.401 16.9465 105.623 18.449 107.415C19.9516 109.208 20.9336 110.27 22.9459 110.27C24.9583 110.27 25.9617 109.197 27.4428 107.415C28.9239 105.634 30.7913 103.401 34.4189 103.401C38.0464 103.401 39.8978 105.623 41.395 107.415C42.8921 109.208 43.8795 110.27 45.8918 110.27C47.9042 110.27 48.9077 109.197 50.3834 107.415C51.8591 105.634 53.7319 103.401 57.3594 103.401C60.987 103.401 62.833 105.623 64.3355 107.415C65.8381 109.208 66.8201 110.27 68.8324 110.27C70.8447 110.27 71.8482 109.197 73.3293 107.415C74.8104 105.634 76.6724 103.401 80.3054 103.401C83.9383 103.401 85.7789 105.623 87.2814 107.415C88.784 109.208 89.7659 110.27 91.7783 110.27C93.7906 110.27 94.7941 109.197 96.2751 107.415C97.7562 105.634 99.6183 103.401 103.251 103.401C106.884 103.401 108.725 105.623 110.227 107.415C111.73 109.208 112.717 110.27 114.724 110.27L114.714 113.49Z" fill="#FFE9F2"/>
<path d="M114.714 102.006C111.097 102.006 109.24 99.7795 107.737 97.9925C106.235 96.2056 105.253 95.1323 103.241 95.1323C101.228 95.1323 100.225 96.2056 98.7437 97.9925C97.2626 99.7795 95.3951 102.006 91.7676 102.006C88.14 102.006 86.2887 99.7795 84.7915 97.9925C83.2943 96.2056 82.307 95.1323 80.3 95.1323C78.293 95.1323 77.2842 96.2056 75.8031 97.9925C74.322 99.7795 72.4546 102.006 68.827 102.006C65.1995 102.006 63.3481 99.7795 61.851 97.9925C60.3538 96.2056 59.361 95.1323 57.3541 95.1323C55.3471 95.1323 54.3329 96.2056 52.8572 97.9925C51.3815 99.7795 49.5087 102.006 45.8811 102.006C42.2535 102.006 40.4022 99.7795 38.905 97.9925C37.4079 96.2056 36.4205 95.1323 34.4081 95.1323C32.3958 95.1323 31.3923 96.2056 29.9166 97.9925C28.4409 99.7795 26.5627 102.006 22.9406 102.006C19.3184 102.006 17.4617 99.7795 15.9645 97.9925C14.4673 96.2056 13.4799 95.1323 11.473 95.1323C9.466 95.1323 8.45178 96.2056 6.97607 97.9925C5.50037 99.7795 3.62756 102.006 0 102.006V98.7867C2.01233 98.7867 3.01581 97.7135 4.49689 95.9265C5.97796 94.1396 7.8454 91.9126 11.473 91.9126C15.1005 91.9126 16.9465 94.1396 18.449 95.9265C19.9516 97.7135 20.9336 98.7867 22.9459 98.7867C24.9583 98.7867 25.9617 97.7135 27.4428 95.9265C28.9239 94.1396 30.7913 91.9126 34.4189 91.9126C38.0464 91.9126 39.8978 94.1396 41.395 95.9265C42.8921 97.7135 43.8795 98.7867 45.8918 98.7867C47.9042 98.7867 48.9077 97.7135 50.3834 95.9265C51.8591 94.1396 53.7319 91.9126 57.3594 91.9126C60.987 91.9126 62.833 94.1396 64.3355 95.9265C65.8381 97.7135 66.8201 98.7867 68.8324 98.7867C70.8447 98.7867 71.8482 97.7135 73.3293 95.9265C74.8104 94.1396 76.6724 91.9126 80.3054 91.9126C83.9383 91.9126 85.7789 94.1396 87.2814 95.9265C88.784 97.7135 89.7659 98.7867 91.7783 98.7867C93.7906 98.7867 94.7941 97.7135 96.2751 95.9265C97.7562 94.1396 99.6183 91.9126 103.251 91.9126C106.884 91.9126 108.725 94.1396 110.227 95.9265C111.73 97.7135 112.717 98.7867 114.724 98.7867L114.714 102.006Z" fill="#FFE9F2"/>
<path d="M114.714 90.5172C111.097 90.5172 109.24 88.2902 107.737 86.5033C106.235 84.7163 105.253 83.6484 103.241 83.6484C101.228 83.6484 100.225 84.7217 98.7437 86.5033C97.2626 88.2848 95.3951 90.5172 91.7676 90.5172C88.14 90.5172 86.2887 88.2902 84.7915 86.5033C83.2943 84.7163 82.307 83.6484 80.3 83.6484C78.293 83.6484 77.2842 84.7217 75.8031 86.5033C74.322 88.2848 72.4546 90.5172 68.827 90.5172C65.1995 90.5172 63.3481 88.2902 61.851 86.5033C60.3538 84.7163 59.361 83.6484 57.3541 83.6484C55.3471 83.6484 54.3329 84.7217 52.8572 86.5033C51.3815 88.2848 49.5087 90.5172 45.8811 90.5172C42.2535 90.5172 40.4022 88.2902 38.905 86.5033C37.4079 84.7163 36.4205 83.6484 34.4081 83.6484C32.3958 83.6484 31.3923 84.7217 29.9166 86.5033C28.4409 88.2848 26.5627 90.5172 22.9406 90.5172C19.3184 90.5172 17.4617 88.2902 15.9645 86.5033C14.4673 84.7163 13.4799 83.6484 11.473 83.6484C9.466 83.6484 8.45178 84.7217 6.97607 86.5033C5.50037 88.2848 3.62756 90.5172 0 90.5172V87.2975C2.01233 87.2975 3.01581 86.2242 4.49689 84.4426C5.97796 82.6611 7.8454 80.4287 11.473 80.4287C15.1005 80.4287 16.9465 82.6503 18.449 84.4426C19.9516 86.2349 20.9336 87.2975 22.9459 87.2975C24.9583 87.2975 25.9617 86.2242 27.4428 84.4426C28.9239 82.6611 30.7913 80.4287 34.4189 80.4287C38.0464 80.4287 39.8978 82.6503 41.395 84.4426C42.8921 86.2349 43.8795 87.2975 45.8918 87.2975C47.9042 87.2975 48.9077 86.2242 50.3834 84.4426C51.8591 82.6611 53.7319 80.4287 57.3594 80.4287C60.987 80.4287 62.833 82.6503 64.3355 84.4426C65.8381 86.2349 66.8201 87.2975 68.8324 87.2975C70.8447 87.2975 71.8482 86.2242 73.3293 84.4426C74.8104 82.6611 76.6724 80.4287 80.3054 80.4287C83.9383 80.4287 85.7789 82.6503 87.2814 84.4426C88.784 86.2349 89.7659 87.2975 91.7783 87.2975C93.7906 87.2975 94.7941 86.2242 96.2751 84.4426C97.7562 82.6611 99.6183 80.4287 103.251 80.4287C106.884 80.4287 108.725 82.6503 110.227 84.4426C111.73 86.2349 112.717 87.2975 114.724 87.2975L114.714 90.5172Z" fill="#FFE9F2"/>
<path d="M114.714 79.0333C111.097 79.0333 109.24 76.8063 107.737 75.014C106.235 73.2217 105.253 72.1592 103.241 72.1592C101.228 72.1592 100.225 73.2324 98.7437 75.014C97.2626 76.7956 95.3951 79.0333 91.7676 79.0333C88.14 79.0333 86.2887 76.8063 84.7915 75.014C83.2943 73.2217 82.307 72.1592 80.3 72.1592C78.293 72.1592 77.2842 73.2324 75.8031 75.014C74.322 76.7956 72.4546 79.0333 68.827 79.0333C65.1995 79.0333 63.3481 76.8063 61.851 75.014C60.3538 73.2217 59.361 72.1592 57.3541 72.1592C55.3471 72.1592 54.3329 73.2324 52.8572 75.014C51.3815 76.7956 49.5087 79.0333 45.8811 79.0333C42.2535 79.0333 40.4022 76.8063 38.905 75.014C37.4079 73.2217 36.4205 72.1592 34.4081 72.1592C32.3958 72.1592 31.3923 73.2324 29.9166 75.014C28.4409 76.7956 26.5627 79.0333 22.9406 79.0333C19.3184 79.0333 17.4617 76.8063 15.9645 75.014C14.4673 73.2217 13.4799 72.1592 11.473 72.1592C9.466 72.1592 8.45178 73.2324 6.97607 75.014C5.50037 76.7956 3.62756 79.0333 0 79.0333V75.8136C2.01233 75.8136 3.01581 74.7403 4.49689 72.9534C5.97796 71.1664 7.8454 68.9395 11.473 68.9395C15.1005 68.9395 16.9465 71.1664 18.449 72.9534C19.9516 74.7403 20.9336 75.8136 22.9459 75.8136C24.9583 75.8136 25.9617 74.7403 27.4428 72.9534C28.9239 71.1664 30.7913 68.9395 34.4189 68.9395C38.0464 68.9395 39.8978 71.1664 41.395 72.9534C42.8921 74.7403 43.8795 75.8136 45.8918 75.8136C47.9042 75.8136 48.9077 74.7403 50.3834 72.9534C51.8591 71.1664 53.7319 68.9395 57.3594 68.9395C60.987 68.9395 62.833 71.1664 64.3355 72.9534C65.8381 74.7403 66.8201 75.8136 68.8324 75.8136C70.8447 75.8136 71.8482 74.7403 73.3293 72.9534C74.8104 71.1664 76.6724 68.9395 80.3054 68.9395C83.9383 68.9395 85.7789 71.1664 87.2814 72.9534C88.784 74.7403 89.7659 75.8136 91.7783 75.8136C93.7906 75.8136 94.7941 74.7403 96.2751 72.9534C97.7562 71.1664 99.6183 68.9395 103.251 68.9395C106.884 68.9395 108.725 71.1664 110.227 72.9534C111.73 74.7403 112.717 75.8136 114.724 75.8136L114.714 79.0333Z" fill="#FFE9F2"/>
<path d="M114.714 67.5445C111.097 67.5445 109.24 65.3175 107.737 63.5306C106.235 61.7437 105.253 60.6704 103.241 60.6704C101.228 60.6704 100.225 61.7437 98.7437 63.5306C97.2626 65.3175 95.3951 67.5445 91.7676 67.5445C88.14 67.5445 86.2887 65.3175 84.7915 63.5306C83.2943 61.7437 82.307 60.6704 80.3 60.6704C78.293 60.6704 77.2842 61.7437 75.8031 63.5306C74.322 65.3175 72.4546 67.5445 68.827 67.5445C65.1995 67.5445 63.3481 65.3175 61.851 63.5306C60.3538 61.7437 59.361 60.6704 57.3541 60.6704C55.3471 60.6704 54.3329 61.7437 52.8572 63.5306C51.3815 65.3175 49.5087 67.5445 45.8811 67.5445C42.2535 67.5445 40.4022 65.3175 38.905 63.5306C37.4079 61.7437 36.4205 60.6704 34.4081 60.6704C32.3958 60.6704 31.3923 61.7437 29.9166 63.5306C28.4409 65.3175 26.5627 67.5445 22.9406 67.5445C19.3184 67.5445 17.4617 65.3175 15.9645 63.5306C14.4673 61.7437 13.4799 60.6704 11.473 60.6704C9.466 60.6704 8.45178 61.7437 6.97607 63.5306C5.50037 65.3175 3.62756 67.5445 0 67.5445V64.3248C2.01233 64.3248 3.01581 63.2516 4.49689 61.47C5.97796 59.6884 7.8454 57.4507 11.473 57.4507C15.1005 57.4507 16.9465 59.6777 18.449 61.47C19.9516 63.2623 20.9336 64.3248 22.9459 64.3248C24.9583 64.3248 25.9617 63.2516 27.4428 61.47C28.9239 59.6884 30.7913 57.4507 34.4189 57.4507C38.0464 57.4507 39.8978 59.6777 41.395 61.47C42.8921 63.2623 43.8795 64.3248 45.8918 64.3248C47.9042 64.3248 48.9077 63.2516 50.3834 61.47C51.8591 59.6884 53.7319 57.4507 57.3594 57.4507C60.987 57.4507 62.833 59.6777 64.3355 61.47C65.8381 63.2623 66.8201 64.3248 68.8324 64.3248C70.8447 64.3248 71.8482 63.2516 73.3293 61.47C74.8104 59.6884 76.6724 57.4507 80.3054 57.4507C83.9383 57.4507 85.7789 59.6777 87.2814 61.47C88.784 63.2623 89.7659 64.3248 91.7783 64.3248C93.7906 64.3248 94.7941 63.2516 96.2751 61.47C97.7562 59.6884 99.6183 57.4507 103.251 57.4507C106.884 57.4507 108.725 59.6777 110.227 61.47C111.73 63.2623 112.717 64.3248 114.724 64.3248L114.714 67.5445Z" fill="#FFE9F2"/>
</svg>
