<svg width="97" height="148" viewBox="0 0 97 148" fill="none" xmlns="http://www.w3.org/2000/svg">
<path d="M149.08 72.8488C144.38 72.8488 141.967 69.9616 140.014 67.6324C138.061 65.3031 136.785 63.9223 134.17 63.9223C131.555 63.9223 130.251 65.317 128.326 67.6324C126.401 69.9477 123.974 72.8488 119.26 72.8488C114.546 72.8488 112.14 69.9616 110.194 67.6324C108.248 65.3031 106.965 63.9223 104.357 63.9223C101.749 63.9223 100.437 65.317 98.5126 67.6324C96.5879 69.9477 94.161 72.8488 89.4466 72.8488C84.7323 72.8488 82.3263 69.9616 80.3806 67.6324C78.4349 65.3031 77.1448 63.9223 74.5365 63.9223C71.9283 63.9223 70.6103 65.317 68.6924 67.6324C66.7746 69.9477 64.3408 72.8488 59.6264 72.8488C54.9121 72.8488 52.5061 69.9616 50.5604 67.6324C48.6147 65.3031 47.3315 63.9223 44.7163 63.9223C42.1011 63.9223 40.797 65.317 38.8792 67.6324C36.9614 69.9477 34.5206 72.8488 29.8132 72.8488C25.1059 72.8488 22.6929 69.9616 20.7472 67.6324C18.8015 65.3031 17.5183 63.9223 14.9101 63.9223C12.3019 63.9223 10.9838 65.317 9.06601 67.6324C7.1482 69.9477 4.71432 72.8488 0 72.8488V68.6645C2.61519 68.6645 3.91931 67.2697 5.84409 64.9544C7.76888 62.6391 10.1958 59.738 14.9101 59.738C19.6244 59.738 22.0234 62.6321 23.9761 64.9544C25.9288 67.2767 27.205 68.6645 29.8202 68.6645C32.4354 68.6645 33.7395 67.2697 35.6643 64.9544C37.5891 62.6391 40.016 59.738 44.7303 59.738C49.4446 59.738 51.8506 62.6321 53.7963 64.9544C55.742 67.2767 57.0252 68.6645 59.6404 68.6645C62.2556 68.6645 63.5597 67.2697 65.4775 64.9544C67.3953 62.6391 69.8292 59.738 74.5435 59.738C79.2578 59.738 81.6569 62.6321 83.6095 64.9544C85.5622 67.2767 86.8384 68.6645 89.4536 68.6645C92.0688 68.6645 93.3729 67.2697 95.2977 64.9544C97.2225 62.6391 99.6424 59.738 104.364 59.738C109.085 59.738 111.477 62.6321 113.43 64.9544C115.382 67.2767 116.659 68.6645 119.274 68.6645C121.889 68.6645 123.193 67.2697 125.118 64.9544C127.043 62.6391 129.463 59.738 134.184 59.738C138.905 59.738 141.297 62.6321 143.25 64.9544C145.203 67.2767 146.486 68.6645 149.094 68.6645L149.08 72.8488Z" fill="url(#paint0_linear_1179_4005)"/>
<path d="M149.08 57.9248C144.38 57.9248 141.967 55.0307 140.014 52.7084C138.061 50.3861 136.785 48.9913 134.17 48.9913C131.555 48.9913 130.251 50.3861 128.326 52.7084C126.401 55.0307 123.974 57.9248 119.26 57.9248C114.546 57.9248 112.14 55.0307 110.194 52.7084C108.248 50.3861 106.965 48.9913 104.357 48.9913C101.749 48.9913 100.437 50.3861 98.5126 52.7084C96.5879 55.0307 94.161 57.9248 89.4466 57.9248C84.7323 57.9248 82.3263 55.0307 80.3806 52.7084C78.4349 50.3861 77.1448 48.9913 74.5365 48.9913C71.9283 48.9913 70.6103 50.3861 68.6924 52.7084C66.7746 55.0307 64.3408 57.9248 59.6264 57.9248C54.9121 57.9248 52.5061 55.0307 50.5604 52.7084C48.6147 50.3861 47.3315 48.9913 44.7163 48.9913C42.1011 48.9913 40.797 50.3861 38.8792 52.7084C36.9614 55.0307 34.5206 57.9248 29.8132 57.9248C25.1059 57.9248 22.6929 55.0307 20.7472 52.7084C18.8015 50.3861 17.5183 48.9913 14.9101 48.9913C12.3019 48.9913 10.9838 50.3861 9.06601 52.7084C7.1482 55.0307 4.71432 57.9248 0 57.9248V53.7405C2.61519 53.7405 3.91931 52.3457 5.84409 50.0234C7.76888 47.7011 10.1958 44.807 14.9101 44.807C19.6244 44.807 22.0234 47.7011 23.9761 50.0234C25.9288 52.3457 27.205 53.7405 29.8202 53.7405C32.4354 53.7405 33.7395 52.3457 35.6643 50.0234C37.5891 47.7011 40.016 44.807 44.7303 44.807C49.4446 44.807 51.8506 47.7011 53.7963 50.0234C55.742 52.3457 57.0252 53.7405 59.6404 53.7405C62.2556 53.7405 63.5597 52.3457 65.4775 50.0234C67.3953 47.7011 69.8292 44.807 74.5435 44.807C79.2578 44.807 81.6569 47.7011 83.6095 50.0234C85.5622 52.3457 86.8384 53.7405 89.4536 53.7405C92.0688 53.7405 93.3729 52.3457 95.2977 50.0234C97.2225 47.7011 99.6424 44.807 104.364 44.807C109.085 44.807 111.477 47.7011 113.43 50.0234C115.382 52.3457 116.659 53.7405 119.274 53.7405C121.889 53.7405 123.193 52.3457 125.118 50.0234C127.043 47.7011 129.463 44.807 134.184 44.807C138.905 44.807 141.297 47.7011 143.25 50.0234C145.203 52.3457 146.486 53.7405 149.094 53.7405L149.08 57.9248Z" fill="url(#paint1_linear_1179_4005)"/>
<path d="M149.08 42.9939C144.38 42.9939 141.967 40.0997 140.014 37.7774C138.061 35.4551 136.785 34.0673 134.17 34.0673C131.555 34.0673 130.251 35.4621 128.326 37.7774C126.401 40.0927 123.974 42.9939 119.26 42.9939C114.546 42.9939 112.14 40.0997 110.194 37.7774C108.248 35.4551 106.965 34.0673 104.357 34.0673C101.749 34.0673 100.437 35.4621 98.5126 37.7774C96.5879 40.0927 94.161 42.9939 89.4466 42.9939C84.7323 42.9939 82.3263 40.0997 80.3806 37.7774C78.4349 35.4551 77.1448 34.0673 74.5365 34.0673C71.9283 34.0673 70.6103 35.4621 68.6924 37.7774C66.7746 40.0927 64.3408 42.9939 59.6264 42.9939C54.9121 42.9939 52.5061 40.0997 50.5604 37.7774C48.6147 35.4551 47.3315 34.0673 44.7163 34.0673C42.1011 34.0673 40.797 35.4621 38.8792 37.7774C36.9614 40.0927 34.5206 42.9939 29.8132 42.9939C25.1059 42.9939 22.6929 40.0997 20.7472 37.7774C18.8015 35.4551 17.5183 34.0673 14.9101 34.0673C12.3019 34.0673 10.9838 35.4621 9.06601 37.7774C7.1482 40.0927 4.71432 42.9939 0 42.9939V38.8096C2.61519 38.8096 3.91931 37.4148 5.84409 35.0995C7.76888 32.7841 10.1958 29.883 14.9101 29.883C19.6244 29.883 22.0234 32.7772 23.9761 35.0995C25.9288 37.4218 27.205 38.8096 29.8202 38.8096C32.4354 38.8096 33.7395 37.4148 35.6643 35.0995C37.5891 32.7841 40.016 29.883 44.7303 29.883C49.4446 29.883 51.8506 32.7772 53.7963 35.0995C55.742 37.4218 57.0252 38.8096 59.6404 38.8096C62.2556 38.8096 63.5597 37.4148 65.4775 35.0995C67.3953 32.7841 69.8292 29.883 74.5435 29.883C79.2578 29.883 81.6569 32.7772 83.6095 35.0995C85.5622 37.4218 86.8384 38.8096 89.4536 38.8096C92.0688 38.8096 93.3729 37.4148 95.2977 35.0995C97.2225 32.7841 99.6424 29.883 104.364 29.883C109.085 29.883 111.477 32.7772 113.43 35.0995C115.382 37.4218 116.659 38.8096 119.274 38.8096C121.889 38.8096 123.193 37.4148 125.118 35.0995C127.043 32.7841 129.463 29.883 134.184 29.883C138.905 29.883 141.297 32.7772 143.25 35.0995C145.203 37.4218 146.486 38.8096 149.094 38.8096L149.08 42.9939Z" fill="url(#paint2_linear_1179_4005)"/>
<path d="M149.08 28.0697C144.38 28.0697 141.967 25.1756 140.014 22.8533C138.061 20.531 136.785 19.1362 134.17 19.1362C131.555 19.1362 130.251 20.531 128.326 22.8533C126.401 25.1756 123.974 28.0697 119.26 28.0697C114.546 28.0697 112.14 25.1756 110.194 22.8533C108.248 20.531 106.965 19.1362 104.357 19.1362C101.749 19.1362 100.437 20.531 98.5126 22.8533C96.5879 25.1756 94.161 28.0697 89.4466 28.0697C84.7323 28.0697 82.3263 25.1756 80.3806 22.8533C78.4349 20.531 77.1448 19.1362 74.5365 19.1362C71.9283 19.1362 70.6103 20.531 68.6924 22.8533C66.7746 25.1756 64.3408 28.0697 59.6264 28.0697C54.9121 28.0697 52.5061 25.1756 50.5604 22.8533C48.6147 20.531 47.3315 19.1362 44.7163 19.1362C42.1011 19.1362 40.797 20.531 38.8792 22.8533C36.9614 25.1756 34.5206 28.0697 29.8132 28.0697C25.1059 28.0697 22.6929 25.1756 20.7472 22.8533C18.8015 20.531 17.5183 19.1362 14.9101 19.1362C12.3019 19.1362 10.9838 20.531 9.06601 22.8533C7.1482 25.1756 4.71432 28.0697 0 28.0697V23.8854C2.61519 23.8854 3.91931 22.4906 5.84409 20.1683C7.76888 17.846 10.1958 14.9519 14.9101 14.9519C19.6244 14.9519 22.0234 17.846 23.9761 20.1683C25.9288 22.4906 27.205 23.8854 29.8202 23.8854C32.4354 23.8854 33.7395 22.4906 35.6643 20.1683C37.5891 17.846 40.016 14.9519 44.7303 14.9519C49.4446 14.9519 51.8506 17.846 53.7963 20.1683C55.742 22.4906 57.0252 23.8854 59.6404 23.8854C62.2556 23.8854 63.5597 22.4906 65.4775 20.1683C67.3953 17.846 69.8292 14.9519 74.5435 14.9519C79.2578 14.9519 81.6569 17.846 83.6095 20.1683C85.5622 22.4906 86.8384 23.8854 89.4536 23.8854C92.0688 23.8854 93.3729 22.4906 95.2977 20.1683C97.2225 17.846 99.6424 14.9519 104.364 14.9519C109.085 14.9519 111.477 17.846 113.43 20.1683C115.382 22.4906 116.659 23.8854 119.274 23.8854C121.889 23.8854 123.193 22.4906 125.118 20.1683C127.043 17.846 129.463 14.9519 134.184 14.9519C138.905 14.9519 141.297 17.846 143.25 20.1683C145.203 22.4906 146.486 23.8854 149.094 23.8854L149.08 28.0697Z" fill="url(#paint3_linear_1179_4005)"/>
<path d="M149.08 13.1108C144.38 13.1108 141.967 10.2167 140.014 7.8944C138.061 5.57211 136.785 4.18431 134.17 4.18431C131.555 4.18431 130.251 5.57908 128.326 7.8944C126.401 10.2097 123.974 13.1108 119.26 13.1108C114.546 13.1108 112.14 10.2167 110.194 7.8944C108.248 5.57211 106.965 4.18431 104.357 4.18431C101.749 4.18431 100.437 5.57908 98.5126 7.8944C96.5879 10.2097 94.161 13.1108 89.4466 13.1108C84.7323 13.1108 82.3263 10.2167 80.3806 7.8944C78.4349 5.57211 77.1448 4.18431 74.5365 4.18431C71.9283 4.18431 70.6103 5.57908 68.6924 7.8944C66.7746 10.2097 64.3408 13.1108 59.6264 13.1108C54.9121 13.1108 52.5061 10.2167 50.5604 7.8944C48.6147 5.57211 47.3315 4.18431 44.7163 4.18431C42.1011 4.18431 40.797 5.57908 38.8792 7.8944C36.9614 10.2097 34.5206 13.1108 29.8132 13.1108C25.1059 13.1108 22.6929 10.2167 20.7472 7.8944C18.8015 5.57211 17.5183 4.18431 14.9101 4.18431C12.3019 4.18431 10.9838 5.57908 9.06601 7.8944C7.1482 10.2097 4.71432 13.1108 0 13.1108V8.92653C2.61519 8.92653 3.91931 7.53176 5.84409 5.21644C7.76888 2.90112 10.1958 0 14.9101 0C19.6244 0 22.0234 2.88718 23.9761 5.21644C25.9288 7.54571 27.205 8.92653 29.8202 8.92653C32.4354 8.92653 33.7395 7.53176 35.6643 5.21644C37.5891 2.90112 40.016 0 44.7303 0C49.4446 0 51.8506 2.88718 53.7963 5.21644C55.742 7.54571 57.0252 8.92653 59.6404 8.92653C62.2556 8.92653 63.5597 7.53176 65.4775 5.21644C67.3953 2.90112 69.8292 0 74.5435 0C79.2578 0 81.6569 2.88718 83.6095 5.21644C85.5622 7.54571 86.8384 8.92653 89.4536 8.92653C92.0688 8.92653 93.3729 7.53176 95.2977 5.21644C97.2225 2.90112 99.6424 0 104.364 0C109.085 0 111.477 2.88718 113.43 5.21644C115.382 7.54571 116.659 8.92653 119.274 8.92653C121.889 8.92653 123.193 7.53176 125.118 5.21644C127.043 2.90112 129.463 0 134.184 0C138.905 0 141.297 2.88718 143.25 5.21644C145.203 7.54571 146.486 8.92653 149.094 8.92653L149.08 13.1108Z" fill="url(#paint4_linear_1179_4005)"/>
<path d="M149.08 147.49C144.38 147.49 141.967 144.596 140.014 142.274C138.061 139.951 136.785 138.563 134.17 138.563C131.555 138.563 130.251 139.958 128.326 142.274C126.401 144.589 123.974 147.49 119.26 147.49C114.546 147.49 112.14 144.596 110.194 142.274C108.248 139.951 106.965 138.563 104.357 138.563C101.749 138.563 100.437 139.958 98.5126 142.274C96.5879 144.589 94.161 147.49 89.4466 147.49C84.7323 147.49 82.3263 144.596 80.3806 142.274C78.4349 139.951 77.1448 138.563 74.5365 138.563C71.9283 138.563 70.6103 139.958 68.6924 142.274C66.7746 144.589 64.3408 147.49 59.6264 147.49C54.9121 147.49 52.5061 144.596 50.5604 142.274C48.6147 139.951 47.3315 138.563 44.7163 138.563C42.1011 138.563 40.797 139.958 38.8792 142.274C36.9614 144.589 34.5206 147.49 29.8132 147.49C25.1059 147.49 22.6929 144.596 20.7472 142.274C18.8015 139.951 17.5183 138.563 14.9101 138.563C12.3019 138.563 10.9838 139.958 9.06601 142.274C7.1482 144.589 4.71432 147.49 0 147.49V143.306C2.61519 143.306 3.91931 141.911 5.84409 139.596C7.76888 137.28 10.1958 134.379 14.9101 134.379C19.6244 134.379 22.0234 137.266 23.9761 139.596C25.9288 141.925 27.205 143.306 29.8202 143.306C32.4354 143.306 33.7395 141.911 35.6643 139.596C37.5891 137.28 40.016 134.379 44.7303 134.379C49.4446 134.379 51.8506 137.266 53.7963 139.596C55.742 141.925 57.0252 143.306 59.6404 143.306C62.2556 143.306 63.5597 141.911 65.4775 139.596C67.3953 137.28 69.8292 134.379 74.5435 134.379C79.2578 134.379 81.6569 137.266 83.6095 139.596C85.5622 141.925 86.8384 143.306 89.4536 143.306C92.0688 143.306 93.3729 141.911 95.2977 139.596C97.2225 137.28 99.6424 134.379 104.364 134.379C109.085 134.379 111.477 137.266 113.43 139.596C115.382 141.925 116.659 143.306 119.274 143.306C121.889 143.306 123.193 141.911 125.118 139.596C127.043 137.28 129.463 134.379 134.184 134.379C138.905 134.379 141.297 137.266 143.25 139.596C145.203 141.925 146.486 143.306 149.094 143.306L149.08 147.49Z" fill="url(#paint5_linear_1179_4005)"/>
<path d="M149.08 132.566C144.38 132.566 141.967 129.672 140.014 127.35C138.061 125.027 136.785 123.632 134.17 123.632C131.555 123.632 130.251 125.027 128.326 127.35C126.401 129.672 123.974 132.566 119.26 132.566C114.546 132.566 112.14 129.672 110.194 127.35C108.248 125.027 106.965 123.632 104.357 123.632C101.749 123.632 100.437 125.027 98.5126 127.35C96.5879 129.672 94.161 132.566 89.4466 132.566C84.7323 132.566 82.3263 129.672 80.3806 127.35C78.4349 125.027 77.1448 123.632 74.5365 123.632C71.9283 123.632 70.6103 125.027 68.6924 127.35C66.7746 129.672 64.3408 132.566 59.6264 132.566C54.9121 132.566 52.5061 129.672 50.5604 127.35C48.6147 125.027 47.3315 123.632 44.7163 123.632C42.1011 123.632 40.797 125.027 38.8792 127.35C36.9614 129.672 34.5206 132.566 29.8132 132.566C25.1059 132.566 22.6929 129.672 20.7472 127.35C18.8015 125.027 17.5183 123.632 14.9101 123.632C12.3019 123.632 10.9838 125.027 9.06601 127.35C7.1482 129.672 4.71432 132.566 0 132.566V128.382C2.61519 128.382 3.91931 126.987 5.84409 124.665C7.76888 122.342 10.1958 119.448 14.9101 119.448C19.6244 119.448 22.0234 122.342 23.9761 124.665C25.9288 126.987 27.205 128.382 29.8202 128.382C32.4354 128.382 33.7395 126.987 35.6643 124.665C37.5891 122.342 40.016 119.448 44.7303 119.448C49.4446 119.448 51.8506 122.342 53.7963 124.665C55.742 126.987 57.0252 128.382 59.6404 128.382C62.2556 128.382 63.5597 126.987 65.4775 124.665C67.3953 122.342 69.8292 119.448 74.5435 119.448C79.2578 119.448 81.6569 122.342 83.6095 124.665C85.5622 126.987 86.8384 128.382 89.4536 128.382C92.0688 128.382 93.3729 126.987 95.2977 124.665C97.2225 122.342 99.6424 119.448 104.364 119.448C109.085 119.448 111.477 122.342 113.43 124.665C115.382 126.987 116.659 128.382 119.274 128.382C121.889 128.382 123.193 126.987 125.118 124.665C127.043 122.342 129.463 119.448 134.184 119.448C138.905 119.448 141.297 122.342 143.25 124.665C145.203 126.987 146.486 128.382 149.094 128.382L149.08 132.566Z" fill="url(#paint6_linear_1179_4005)"/>
<path d="M149.08 117.635C144.38 117.635 141.967 114.741 140.014 112.418C138.061 110.096 136.785 108.708 134.17 108.708C131.555 108.708 130.251 110.103 128.326 112.418C126.401 114.734 123.974 117.635 119.26 117.635C114.546 117.635 112.14 114.741 110.194 112.418C108.248 110.096 106.965 108.708 104.357 108.708C101.749 108.708 100.437 110.103 98.5126 112.418C96.5879 114.734 94.161 117.635 89.4466 117.635C84.7323 117.635 82.3263 114.741 80.3806 112.418C78.4349 110.096 77.1448 108.708 74.5365 108.708C71.9283 108.708 70.6103 110.103 68.6924 112.418C66.7746 114.734 64.3408 117.635 59.6264 117.635C54.9121 117.635 52.5061 114.741 50.5604 112.418C48.6147 110.096 47.3315 108.708 44.7163 108.708C42.1011 108.708 40.797 110.103 38.8792 112.418C36.9614 114.734 34.5206 117.635 29.8132 117.635C25.1059 117.635 22.6929 114.741 20.7472 112.418C18.8015 110.096 17.5183 108.708 14.9101 108.708C12.3019 108.708 10.9838 110.103 9.06601 112.418C7.1482 114.734 4.71432 117.635 0 117.635V113.451C2.61519 113.451 3.91931 112.056 5.84409 109.74C7.76888 107.425 10.1958 104.524 14.9101 104.524C19.6244 104.524 22.0234 107.411 23.9761 109.74C25.9288 112.07 27.205 113.451 29.8202 113.451C32.4354 113.451 33.7395 112.056 35.6643 109.74C37.5891 107.425 40.016 104.524 44.7303 104.524C49.4446 104.524 51.8506 107.411 53.7963 109.74C55.742 112.07 57.0252 113.451 59.6404 113.451C62.2556 113.451 63.5597 112.056 65.4775 109.74C67.3953 107.425 69.8292 104.524 74.5435 104.524C79.2578 104.524 81.6569 107.411 83.6095 109.74C85.5622 112.07 86.8384 113.451 89.4536 113.451C92.0688 113.451 93.3729 112.056 95.2977 109.74C97.2225 107.425 99.6424 104.524 104.364 104.524C109.085 104.524 111.477 107.411 113.43 109.74C115.382 112.07 116.659 113.451 119.274 113.451C121.889 113.451 123.193 112.056 125.118 109.74C127.043 107.425 129.463 104.524 134.184 104.524C138.905 104.524 141.297 107.411 143.25 109.74C145.203 112.07 146.486 113.451 149.094 113.451L149.08 117.635Z" fill="url(#paint7_linear_1179_4005)"/>
<path d="M149.08 102.711C144.38 102.711 141.967 99.8164 140.014 97.4871C138.061 95.1579 136.785 93.7771 134.17 93.7771C131.555 93.7771 130.251 95.1718 128.326 97.4871C126.401 99.8025 123.974 102.711 119.26 102.711C114.546 102.711 112.14 99.8164 110.194 97.4871C108.248 95.1579 106.965 93.7771 104.357 93.7771C101.749 93.7771 100.437 95.1718 98.5126 97.4871C96.5879 99.8025 94.161 102.711 89.4466 102.711C84.7323 102.711 82.3263 99.8164 80.3806 97.4871C78.4349 95.1579 77.1448 93.7771 74.5365 93.7771C71.9283 93.7771 70.6103 95.1718 68.6924 97.4871C66.7746 99.8025 64.3408 102.711 59.6264 102.711C54.9121 102.711 52.5061 99.8164 50.5604 97.4871C48.6147 95.1579 47.3315 93.7771 44.7163 93.7771C42.1011 93.7771 40.797 95.1718 38.8792 97.4871C36.9614 99.8025 34.5206 102.711 29.8132 102.711C25.1059 102.711 22.6929 99.8164 20.7472 97.4871C18.8015 95.1579 17.5183 93.7771 14.9101 93.7771C12.3019 93.7771 10.9838 95.1718 9.06601 97.4871C7.1482 99.8025 4.71432 102.711 0 102.711V98.5262C2.61519 98.5262 3.91931 97.1315 5.84409 94.8092C7.76888 92.4869 10.1958 89.5927 14.9101 89.5927C19.6244 89.5927 22.0234 92.4869 23.9761 94.8092C25.9288 97.1315 27.205 98.5262 29.8202 98.5262C32.4354 98.5262 33.7395 97.1315 35.6643 94.8092C37.5891 92.4869 40.016 89.5927 44.7303 89.5927C49.4446 89.5927 51.8506 92.4869 53.7963 94.8092C55.742 97.1315 57.0252 98.5262 59.6404 98.5262C62.2556 98.5262 63.5597 97.1315 65.4775 94.8092C67.3953 92.4869 69.8292 89.5927 74.5435 89.5927C79.2578 89.5927 81.6569 92.4869 83.6095 94.8092C85.5622 97.1315 86.8384 98.5262 89.4536 98.5262C92.0688 98.5262 93.3729 97.1315 95.2977 94.8092C97.2225 92.4869 99.6424 89.5927 104.364 89.5927C109.085 89.5927 111.477 92.4869 113.43 94.8092C115.382 97.1315 116.659 98.5262 119.274 98.5262C121.889 98.5262 123.193 97.1315 125.118 94.8092C127.043 92.4869 129.463 89.5927 134.184 89.5927C138.905 89.5927 141.297 92.4869 143.25 94.8092C145.203 97.1315 146.486 98.5262 149.094 98.5262L149.08 102.711Z" fill="url(#paint8_linear_1179_4005)"/>
<path d="M149.08 87.7799C144.38 87.7799 141.967 84.8858 140.014 82.5635C138.061 80.2412 136.785 78.8464 134.17 78.8464C131.555 78.8464 130.251 80.2412 128.326 82.5635C126.401 84.8858 123.974 87.7799 119.26 87.7799C114.546 87.7799 112.14 84.8858 110.194 82.5635C108.248 80.2412 106.965 78.8464 104.357 78.8464C101.749 78.8464 100.437 80.2412 98.5126 82.5635C96.5879 84.8858 94.161 87.7799 89.4466 87.7799C84.7323 87.7799 82.3263 84.8858 80.3806 82.5635C78.4349 80.2412 77.1448 78.8464 74.5365 78.8464C71.9283 78.8464 70.6103 80.2412 68.6924 82.5635C66.7746 84.8858 64.3408 87.7799 59.6264 87.7799C54.9121 87.7799 52.5061 84.8858 50.5604 82.5635C48.6147 80.2412 47.3315 78.8464 44.7163 78.8464C42.1011 78.8464 40.797 80.2412 38.8792 82.5635C36.9614 84.8858 34.5206 87.7799 29.8132 87.7799C25.1059 87.7799 22.6929 84.8858 20.7472 82.5635C18.8015 80.2412 17.5183 78.8464 14.9101 78.8464C12.3019 78.8464 10.9838 80.2412 9.06601 82.5635C7.1482 84.8858 4.71432 87.7799 0 87.7799V83.5956C2.61519 83.5956 3.91931 82.2008 5.84409 79.8855C7.76888 77.5702 10.1958 74.6621 14.9101 74.6621C19.6244 74.6621 22.0234 77.5563 23.9761 79.8855C25.9288 82.2148 27.205 83.5956 29.8202 83.5956C32.4354 83.5956 33.7395 82.2008 35.6643 79.8855C37.5891 77.5702 40.016 74.6621 44.7303 74.6621C49.4446 74.6621 51.8506 77.5563 53.7963 79.8855C55.742 82.2148 57.0252 83.5956 59.6404 83.5956C62.2556 83.5956 63.5597 82.2008 65.4775 79.8855C67.3953 77.5702 69.8292 74.6621 74.5435 74.6621C79.2578 74.6621 81.6569 77.5563 83.6095 79.8855C85.5622 82.2148 86.8384 83.5956 89.4536 83.5956C92.0688 83.5956 93.3729 82.2008 95.2977 79.8855C97.2225 77.5702 99.6424 74.6621 104.364 74.6621C109.085 74.6621 111.477 77.5563 113.43 79.8855C115.382 82.2148 116.659 83.5956 119.274 83.5956C121.889 83.5956 123.193 82.2008 125.118 79.8855C127.043 77.5702 129.463 74.6621 134.184 74.6621C138.905 74.6621 141.297 77.5563 143.25 79.8855C145.203 82.2148 146.486 83.5956 149.094 83.5956L149.08 87.7799Z" fill="url(#paint9_linear_1179_4005)"/>
<defs>
<linearGradient id="paint0_linear_1179_4005" x1="-16.3118" y1="66.2911" x2="155.095" y2="66.2911" gradientUnits="userSpaceOnUse">
<stop stop-color="#52F1FF"/>
<stop offset="1" stop-color="#FF0EFF"/>
</linearGradient>
<linearGradient id="paint1_linear_1179_4005" x1="-16.3118" y1="51.3637" x2="155.095" y2="51.3637" gradientUnits="userSpaceOnUse">
<stop stop-color="#52F1FF"/>
<stop offset="1" stop-color="#FF0EFF"/>
</linearGradient>
<linearGradient id="paint2_linear_1179_4005" x1="-16.3118" y1="36.4362" x2="155.095" y2="36.4362" gradientUnits="userSpaceOnUse">
<stop stop-color="#52F1FF"/>
<stop offset="1" stop-color="#FF0EFF"/>
</linearGradient>
<linearGradient id="paint3_linear_1179_4005" x1="-16.3118" y1="21.5086" x2="155.095" y2="21.5086" gradientUnits="userSpaceOnUse">
<stop stop-color="#52F1FF"/>
<stop offset="1" stop-color="#FF0EFF"/>
</linearGradient>
<linearGradient id="paint4_linear_1179_4005" x1="-16.3118" y1="6.55317" x2="155.095" y2="6.55317" gradientUnits="userSpaceOnUse">
<stop stop-color="#52F1FF"/>
<stop offset="1" stop-color="#FF0EFF"/>
</linearGradient>
<linearGradient id="paint5_linear_1179_4005" x1="-16.3118" y1="140.932" x2="155.095" y2="140.932" gradientUnits="userSpaceOnUse">
<stop stop-color="#52F1FF"/>
<stop offset="1" stop-color="#FF0EFF"/>
</linearGradient>
<linearGradient id="paint6_linear_1179_4005" x1="-16.3118" y1="126.005" x2="155.095" y2="126.005" gradientUnits="userSpaceOnUse">
<stop stop-color="#52F1FF"/>
<stop offset="1" stop-color="#FF0EFF"/>
</linearGradient>
<linearGradient id="paint7_linear_1179_4005" x1="-16.3118" y1="111.077" x2="155.095" y2="111.077" gradientUnits="userSpaceOnUse">
<stop stop-color="#52F1FF"/>
<stop offset="1" stop-color="#FF0EFF"/>
</linearGradient>
<linearGradient id="paint8_linear_1179_4005" x1="-16.3118" y1="96.1494" x2="155.095" y2="96.1494" gradientUnits="userSpaceOnUse">
<stop stop-color="#52F1FF"/>
<stop offset="1" stop-color="#FF0EFF"/>
</linearGradient>
<linearGradient id="paint9_linear_1179_4005" x1="-16.3118" y1="81.2188" x2="155.095" y2="81.2188" gradientUnits="userSpaceOnUse">
<stop stop-color="#52F1FF"/>
<stop offset="1" stop-color="#FF0EFF"/>
</linearGradient>
</defs>
</svg>
