<svg width="230" height="94" viewBox="0 0 230 94" fill="none" xmlns="http://www.w3.org/2000/svg">
<rect width="230" height="94" rx="5" fill="#EEF3FF"/>
<rect x="10" y="10" width="110" height="24" rx="5" fill="#4C6EF5"/>
<path d="M25.1875 26.125C25.9124 26.125 26.5 25.5374 26.5 24.8125C26.5 24.0876 25.9124 23.5 25.1875 23.5C24.4626 23.5 23.875 24.0876 23.875 24.8125C23.875 25.5374 24.4626 26.125 25.1875 26.125Z" stroke="white" stroke-linecap="round" stroke-linejoin="round"/>
<path d="M25.1875 20.5C25.9124 20.5 26.5 19.9124 26.5 19.1875C26.5 18.4626 25.9124 17.875 25.1875 17.875C24.4626 17.875 23.875 18.4626 23.875 19.1875C23.875 19.9124 24.4626 20.5 25.1875 20.5Z" stroke="white" stroke-linecap="round" stroke-linejoin="round"/>
<path d="M25.1875 20.5V23.5" stroke="white" stroke-linecap="round" stroke-linejoin="round"/>
<path d="M30.8125 26.125C31.5374 26.125 32.125 25.5374 32.125 24.8125C32.125 24.0876 31.5374 23.5 30.8125 23.5C30.0876 23.5 29.5 24.0876 29.5 24.8125C29.5 25.5374 30.0876 26.125 30.8125 26.125Z" stroke="white" stroke-linecap="round" stroke-linejoin="round"/>
<path d="M30.8126 23.5L30.8125 21.6194C30.8125 21.0227 30.5755 20.4505 30.1535 20.0285L28.375 18.25" stroke="white" stroke-linecap="round" stroke-linejoin="round"/>
<path d="M28.375 20.125V18.25H30.25" stroke="white" stroke-linecap="round" stroke-linejoin="round"/>
<path d="M42.2168 26.1406C41.5059 26.1406 40.916 25.9512 40.4473 25.5723C39.9785 25.1895 39.7324 24.6973 39.709 24.0957H40.8984C40.9375 24.3926 41.0801 24.6348 41.3262 24.8223C41.5723 25.0098 41.873 25.1035 42.2285 25.1035C42.6309 25.1035 42.957 24.9824 43.207 24.7402C43.4609 24.498 43.5879 24.1855 43.5879 23.8027C43.5879 23.416 43.4629 23.0996 43.2129 22.8535C42.9629 22.6035 42.6387 22.4785 42.2402 22.4785C41.9668 22.4785 41.7168 22.5371 41.4902 22.6543C41.2637 22.7676 41.0879 22.9258 40.9629 23.1289H39.8145L40.1602 19.2852H44.4023V20.3223H41.1738L40.998 22.2324H41.0273C41.168 22.0098 41.3711 21.8359 41.6367 21.7109C41.9062 21.582 42.2109 21.5176 42.5508 21.5176C43.207 21.5176 43.748 21.7305 44.1738 22.1562C44.5996 22.5781 44.8125 23.1172 44.8125 23.7734C44.8125 24.4766 44.5723 25.0469 44.0918 25.4844C43.6113 25.9219 42.9863 26.1406 42.2168 26.1406ZM51.2812 26.1113C50.2969 26.1113 49.5176 25.8027 48.9434 25.1855C48.3691 24.5684 48.082 23.7207 48.082 22.6426C48.082 21.5684 48.3691 20.7207 48.9434 20.0996C49.5215 19.4785 50.3008 19.168 51.2812 19.168C52.0859 19.168 52.7637 19.3965 53.3145 19.8535C53.8691 20.3066 54.1816 20.9004 54.252 21.6348H53.0039C52.9297 21.2207 52.7344 20.8867 52.418 20.6328C52.1016 20.3789 51.7227 20.252 51.2812 20.252C50.6992 20.252 50.2363 20.4668 49.8926 20.8965C49.5488 21.3262 49.377 21.9062 49.377 22.6367C49.377 23.375 49.5488 23.959 49.8926 24.3887C50.2363 24.8184 50.7012 25.0332 51.2871 25.0332C51.7363 25.0332 52.1133 24.9199 52.418 24.6934C52.7227 24.4629 52.9199 24.1465 53.0098 23.7441H54.2578C54.1562 24.4785 53.8398 25.0566 53.3086 25.4785C52.7773 25.9004 52.1016 26.1113 51.2812 26.1113ZM58.3594 19.168C59.3633 19.168 60.1582 19.4805 60.7441 20.1055C61.3301 20.7266 61.623 21.5723 61.623 22.6426C61.623 23.709 61.3301 24.5547 60.7441 25.1797C60.1582 25.8008 59.3633 26.1113 58.3594 26.1113C57.3516 26.1113 56.5547 25.8008 55.9688 25.1797C55.3828 24.5586 55.0898 23.7129 55.0898 22.6426C55.0898 21.5723 55.3828 20.7266 55.9688 20.1055C56.5547 19.4805 57.3516 19.168 58.3594 19.168ZM58.3594 20.2637C57.7539 20.2637 57.2734 20.4785 56.918 20.9082C56.5625 21.334 56.3848 21.9121 56.3848 22.6426C56.3848 23.373 56.5625 23.9531 56.918 24.3828C57.2734 24.8086 57.7539 25.0215 58.3594 25.0215C58.9609 25.0215 59.4375 24.8086 59.7891 24.3828C60.1445 23.9531 60.3223 23.373 60.3223 22.6426C60.3223 21.9121 60.1445 21.334 59.7891 20.9082C59.4375 20.4785 58.9609 20.2637 58.3594 20.2637ZM63.9492 26H62.7246V19.2852H63.8203L67.1777 23.8438H67.2188V19.2852H68.4434V26H67.3535L63.9902 21.4297H63.9492V26ZM69.7793 19.2852H72.3398C73.3672 19.2852 74.168 19.5762 74.7422 20.1582C75.3164 20.7402 75.6035 21.5605 75.6035 22.6191C75.6035 23.6855 75.3164 24.5156 74.7422 25.1094C74.168 25.7031 73.3672 26 72.3398 26H69.7793V19.2852ZM71.0508 20.3633V24.9219H72.1992C72.8828 24.9219 73.4043 24.7266 73.7637 24.3359C74.123 23.9453 74.3027 23.375 74.3027 22.625C74.3027 21.8984 74.1211 21.3398 73.7578 20.9492C73.3945 20.5586 72.875 20.3633 72.1992 20.3633H71.0508ZM77.9766 26H76.7051V19.2852H77.9766V26ZM82.2832 26H81.0176V20.3633H78.9492V19.2852H84.3516V20.3633H82.2832V26ZM86.5898 26H85.3184V19.2852H86.5898V26ZM90.9727 19.168C91.9766 19.168 92.7715 19.4805 93.3574 20.1055C93.9434 20.7266 94.2363 21.5723 94.2363 22.6426C94.2363 23.709 93.9434 24.5547 93.3574 25.1797C92.7715 25.8008 91.9766 26.1113 90.9727 26.1113C89.9648 26.1113 89.168 25.8008 88.582 25.1797C87.9961 24.5586 87.7031 23.7129 87.7031 22.6426C87.7031 21.5723 87.9961 20.7266 88.582 20.1055C89.168 19.4805 89.9648 19.168 90.9727 19.168ZM90.9727 20.2637C90.3672 20.2637 89.8867 20.4785 89.5312 20.9082C89.1758 21.334 88.998 21.9121 88.998 22.6426C88.998 23.373 89.1758 23.9531 89.5312 24.3828C89.8867 24.8086 90.3672 25.0215 90.9727 25.0215C91.5742 25.0215 92.0508 24.8086 92.4023 24.3828C92.7578 23.9531 92.9355 23.373 92.9355 22.6426C92.9355 21.9121 92.7578 21.334 92.4023 20.9082C92.0508 20.4785 91.5742 20.2637 90.9727 20.2637ZM96.5625 26H95.3379V19.2852H96.4336L99.791 23.8438H99.832V19.2852H101.057V26H99.9668L96.6035 21.4297H96.5625V26ZM102.111 24.1016H103.348C103.383 24.3945 103.539 24.6309 103.816 24.8105C104.098 24.9863 104.447 25.0742 104.865 25.0742C105.271 25.0742 105.602 24.9902 105.855 24.8223C106.113 24.6504 106.242 24.4336 106.242 24.1719C106.242 23.9375 106.148 23.75 105.961 23.6094C105.773 23.4648 105.465 23.3438 105.035 23.2461L104.15 23.0469C102.904 22.7773 102.281 22.1602 102.281 21.1953C102.281 20.5938 102.52 20.1055 102.996 19.7305C103.477 19.3555 104.094 19.168 104.848 19.168C105.609 19.168 106.223 19.3516 106.688 19.7188C107.152 20.0859 107.393 20.5703 107.408 21.1719H106.195C106.168 20.8711 106.031 20.6348 105.785 20.4629C105.543 20.2871 105.229 20.1992 104.842 20.1992C104.463 20.1992 104.154 20.2832 103.916 20.4512C103.682 20.6152 103.564 20.8281 103.564 21.0898C103.564 21.3047 103.656 21.4805 103.84 21.6172C104.023 21.75 104.324 21.8633 104.742 21.957L105.539 22.1328C106.234 22.2852 106.738 22.5117 107.051 22.8125C107.367 23.1094 107.525 23.5098 107.525 24.0137C107.525 24.6582 107.279 25.1699 106.787 25.5488C106.299 25.9238 105.637 26.1113 104.801 26.1113C104 26.1113 103.357 25.9316 102.873 25.5723C102.393 25.2129 102.139 24.7227 102.111 24.1016Z" fill="white"/>
<rect x="130" y="10" width="90" height="24" rx="5" fill="#4C6EF5"/>
<path d="M141.188 26.125C141.912 26.125 142.5 25.5374 142.5 24.8125C142.5 24.0876 141.912 23.5 141.188 23.5C140.463 23.5 139.875 24.0876 139.875 24.8125C139.875 25.5374 140.463 26.125 141.188 26.125Z" stroke="white" stroke-linecap="round" stroke-linejoin="round"/>
<path d="M141.188 20.5C141.912 20.5 142.5 19.9124 142.5 19.1875C142.5 18.4626 141.912 17.875 141.188 17.875C140.463 17.875 139.875 18.4626 139.875 19.1875C139.875 19.9124 140.463 20.5 141.188 20.5Z" stroke="white" stroke-linecap="round" stroke-linejoin="round"/>
<path d="M146.812 23.875C147.537 23.875 148.125 23.2874 148.125 22.5625C148.125 21.8376 147.537 21.25 146.812 21.25C146.088 21.25 145.5 21.8376 145.5 22.5625C145.5 23.2874 146.088 23.875 146.812 23.875Z" stroke="white" stroke-linecap="round" stroke-linejoin="round"/>
<path d="M145.5 22.75H144.116C143.787 22.75 143.461 22.6775 143.162 22.5376C142.863 22.3977 142.599 22.1938 142.388 21.9404L141.188 20.5V23.5" stroke="white" stroke-linecap="round" stroke-linejoin="round"/>
<path d="M157.637 23.0352V22.0801H158.463C158.811 22.0801 159.092 21.9902 159.307 21.8105C159.521 21.627 159.629 21.3887 159.629 21.0957C159.629 20.8066 159.527 20.5781 159.324 20.4102C159.121 20.2383 158.834 20.1523 158.463 20.1523C158.111 20.1523 157.826 20.2441 157.607 20.4277C157.389 20.6113 157.268 20.8555 157.244 21.1602H156.066C156.098 20.5469 156.334 20.0586 156.775 19.6953C157.221 19.3281 157.801 19.1445 158.516 19.1445C159.203 19.1445 159.764 19.3086 160.197 19.6367C160.631 19.9648 160.848 20.3926 160.848 20.9199C160.848 21.3301 160.717 21.6777 160.455 21.9629C160.197 22.2441 159.855 22.4219 159.43 22.4961V22.5254C159.949 22.5645 160.359 22.7285 160.66 23.0176C160.965 23.3027 161.117 23.6777 161.117 24.1426C161.117 24.7363 160.871 25.2188 160.379 25.5898C159.891 25.957 159.264 26.1406 158.498 26.1406C157.744 26.1406 157.135 25.9551 156.67 25.584C156.209 25.2129 155.963 24.7207 155.932 24.1074H157.145C157.172 24.4082 157.307 24.6484 157.549 24.8281C157.791 25.0039 158.111 25.0918 158.51 25.0918C158.896 25.0918 159.213 24.998 159.459 24.8105C159.705 24.623 159.828 24.3809 159.828 24.084C159.828 23.7559 159.707 23.5 159.465 23.3164C159.227 23.1289 158.898 23.0352 158.48 23.0352H157.637ZM168.113 26H166.637L164.27 19.2852H165.676L167.381 24.6406H167.41L169.115 19.2852H170.486L168.113 26ZM175.156 26L174.582 24.3125H172.08L171.512 26H170.199L172.625 19.2852H174.072L176.498 26H175.156ZM173.311 20.5156L172.373 23.3281H174.289L173.346 20.5156H173.311ZM178.631 20.3105V22.5371H180.014C180.396 22.5371 180.693 22.4395 180.904 22.2441C181.119 22.0488 181.227 21.7754 181.227 21.4238C181.227 21.084 181.115 20.8145 180.893 20.6152C180.67 20.4121 180.369 20.3105 179.99 20.3105H178.631ZM178.631 23.5039V26H177.359V19.2852H180.131C180.881 19.2852 181.467 19.4746 181.889 19.8535C182.314 20.2285 182.527 20.7422 182.527 21.3945C182.527 21.8398 182.414 22.2344 182.188 22.5781C181.961 22.918 181.646 23.1602 181.244 23.3047L182.732 26H181.279L179.949 23.5039H178.631ZM184.924 26H183.652V19.2852H184.924V26ZM190.754 26L190.18 24.3125H187.678L187.109 26H185.797L188.223 19.2852H189.67L192.096 26H190.754ZM188.908 20.5156L187.971 23.3281H189.887L188.943 20.5156H188.908ZM194.182 26H192.957V19.2852H194.053L197.41 23.8438H197.451V19.2852H198.676V26H197.586L194.223 21.4297H194.182V26ZM202.977 26H201.711V20.3633H199.643V19.2852H205.045V20.3633H202.977V26ZM205.73 24.1016H206.967C207.002 24.3945 207.158 24.6309 207.436 24.8105C207.717 24.9863 208.066 25.0742 208.484 25.0742C208.891 25.0742 209.221 24.9902 209.475 24.8223C209.732 24.6504 209.861 24.4336 209.861 24.1719C209.861 23.9375 209.768 23.75 209.58 23.6094C209.393 23.4648 209.084 23.3438 208.654 23.2461L207.77 23.0469C206.523 22.7773 205.9 22.1602 205.9 21.1953C205.9 20.5938 206.139 20.1055 206.615 19.7305C207.096 19.3555 207.713 19.168 208.467 19.168C209.229 19.168 209.842 19.3516 210.307 19.7188C210.771 20.0859 211.012 20.5703 211.027 21.1719H209.814C209.787 20.8711 209.65 20.6348 209.404 20.4629C209.162 20.2871 208.848 20.1992 208.461 20.1992C208.082 20.1992 207.773 20.2832 207.535 20.4512C207.301 20.6152 207.184 20.8281 207.184 21.0898C207.184 21.3047 207.275 21.4805 207.459 21.6172C207.643 21.75 207.943 21.8633 208.361 21.957L209.158 22.1328C209.854 22.2852 210.357 22.5117 210.67 22.8125C210.986 23.1094 211.145 23.5098 211.145 24.0137C211.145 24.6582 210.898 25.1699 210.406 25.5488C209.918 25.9238 209.256 26.1113 208.42 26.1113C207.619 26.1113 206.977 25.9316 206.492 25.5723C206.012 25.2129 205.758 24.7227 205.73 24.1016Z" fill="white"/>
<rect x="34.5" y="44.5" width="185" height="39" rx="4.5" fill="white" stroke="#4C6EF5"/>
<path d="M51.4062 64.8984C51.4062 66.2337 51.0303 67.2796 50.2783 68.0361C49.5309 68.7881 48.4896 69.1641 47.1543 69.1641C45.7415 69.1641 44.6204 68.7038 43.791 67.7832C42.9661 66.8581 42.5537 65.6048 42.5537 64.0234C42.5537 62.4694 42.9639 61.2389 43.7842 60.332C44.609 59.4251 45.7256 58.9717 47.1338 58.9717C48.2321 58.9717 49.1618 59.2702 49.9229 59.8672C50.6885 60.4642 51.1579 61.2549 51.3311 62.2393H49.7588C49.5765 61.6286 49.2552 61.1546 48.7949 60.8174C48.3346 60.4801 47.7832 60.3115 47.1406 60.3115C46.1973 60.3115 45.4567 60.6396 44.9189 61.2959C44.3857 61.9476 44.1191 62.8522 44.1191 64.0098C44.1191 65.1901 44.3926 66.1221 44.9395 66.8057C45.4863 67.4847 46.2292 67.8242 47.168 67.8242C47.9655 67.8242 48.6172 67.5918 49.123 67.127C49.6289 66.6576 49.8864 66.0492 49.8955 65.3018V65.1309H47.3457V63.8936H51.4062V64.8984ZM58.2969 68.1387C57.6771 68.804 56.8499 69.1367 55.8154 69.1367C54.7809 69.1367 53.9538 68.804 53.334 68.1387C52.7142 67.4688 52.4043 66.5573 52.4043 65.4043C52.4043 64.2559 52.7142 63.349 53.334 62.6836C53.9538 62.0137 54.7809 61.6787 55.8154 61.6787C56.8499 61.6787 57.6771 62.0137 58.2969 62.6836C58.9167 63.349 59.2266 64.2559 59.2266 65.4043C59.2266 66.5573 58.9167 67.4688 58.2969 68.1387ZM55.8154 67.9199C56.4033 67.9199 56.8682 67.6989 57.21 67.2568C57.5518 66.8148 57.7227 66.1973 57.7227 65.4043C57.7227 64.6159 57.5495 64.0007 57.2031 63.5586C56.8613 63.1165 56.3988 62.8955 55.8154 62.8955C55.2321 62.8955 54.7673 63.1165 54.4209 63.5586C54.0791 64.0007 53.9082 64.6159 53.9082 65.4043C53.9082 66.1973 54.0791 66.8148 54.4209 67.2568C54.7673 67.6989 55.2321 67.9199 55.8154 67.9199ZM65.9395 68.1387C65.3197 68.804 64.4925 69.1367 63.458 69.1367C62.4235 69.1367 61.5964 68.804 60.9766 68.1387C60.3568 67.4688 60.0469 66.5573 60.0469 65.4043C60.0469 64.2559 60.3568 63.349 60.9766 62.6836C61.5964 62.0137 62.4235 61.6787 63.458 61.6787C64.4925 61.6787 65.3197 62.0137 65.9395 62.6836C66.5592 63.349 66.8691 64.2559 66.8691 65.4043C66.8691 66.5573 66.5592 67.4688 65.9395 68.1387ZM63.458 67.9199C64.0459 67.9199 64.5107 67.6989 64.8525 67.2568C65.1943 66.8148 65.3652 66.1973 65.3652 65.4043C65.3652 64.6159 65.1921 64.0007 64.8457 63.5586C64.5039 63.1165 64.0413 62.8955 63.458 62.8955C62.8747 62.8955 62.4098 63.1165 62.0635 63.5586C61.7217 64.0007 61.5508 64.6159 61.5508 65.4043C61.5508 66.1973 61.7217 66.8148 62.0635 67.2568C62.4098 67.6989 62.8747 67.9199 63.458 67.9199ZM70.7109 69.123C69.7995 69.123 69.068 68.7858 68.5166 68.1113C67.9652 67.4368 67.6895 66.5345 67.6895 65.4043C67.6895 64.2741 67.9629 63.374 68.5098 62.7041C69.0612 62.0296 69.7904 61.6924 70.6973 61.6924C71.2031 61.6924 71.6543 61.8109 72.0508 62.0479C72.4473 62.2803 72.748 62.5993 72.9531 63.0049H72.9805V59.1357H74.4639V69H73.0283V67.7764H73.001C72.7868 68.1956 72.4792 68.526 72.0781 68.7676C71.6816 69.0046 71.2259 69.123 70.7109 69.123ZM71.1006 62.9365C70.5173 62.9365 70.0547 63.1598 69.7129 63.6064C69.3711 64.0485 69.2002 64.6478 69.2002 65.4043C69.2002 66.1654 69.3711 66.7669 69.7129 67.209C70.0547 67.651 70.5173 67.8721 71.1006 67.8721C71.6702 67.8721 72.1283 67.6488 72.4746 67.2021C72.821 66.751 72.9941 66.1517 72.9941 65.4043C72.9941 64.6615 72.821 64.0645 72.4746 63.6133C72.1283 63.1621 71.6702 62.9365 71.1006 62.9365ZM78.8252 69V61.8086H80.2334V63.0186H80.2676C80.4316 62.613 80.6937 62.2894 81.0537 62.0479C81.4137 61.8063 81.833 61.6855 82.3115 61.6855C82.8083 61.6855 83.2298 61.8086 83.5762 62.0547C83.9271 62.3008 84.1755 62.6471 84.3213 63.0938H84.3555C84.5423 62.6562 84.834 62.3122 85.2305 62.0615C85.6315 61.8109 86.0872 61.6855 86.5977 61.6855C87.3086 61.6855 87.8783 61.902 88.3066 62.335C88.735 62.7679 88.9492 63.3421 88.9492 64.0576V69H87.4658V64.4131C87.4658 63.9482 87.3451 63.5882 87.1035 63.333C86.8665 63.0778 86.5293 62.9502 86.0918 62.9502C85.6543 62.9502 85.2965 63.096 85.0186 63.3877C84.7451 63.6794 84.6084 64.0531 84.6084 64.5088V69H83.1592V64.3037C83.1592 63.889 83.0361 63.5609 82.79 63.3193C82.5439 63.0732 82.2135 62.9502 81.7988 62.9502C81.3613 62.9502 81.0013 63.1029 80.7188 63.4082C80.4408 63.709 80.3018 64.0918 80.3018 64.5566V69H78.8252ZM95.9492 68.1387C95.3294 68.804 94.5023 69.1367 93.4678 69.1367C92.4333 69.1367 91.6061 68.804 90.9863 68.1387C90.3665 67.4688 90.0566 66.5573 90.0566 65.4043C90.0566 64.2559 90.3665 63.349 90.9863 62.6836C91.6061 62.0137 92.4333 61.6787 93.4678 61.6787C94.5023 61.6787 95.3294 62.0137 95.9492 62.6836C96.569 63.349 96.8789 64.2559 96.8789 65.4043C96.8789 66.5573 96.569 67.4688 95.9492 68.1387ZM93.4678 67.9199C94.0557 67.9199 94.5205 67.6989 94.8623 67.2568C95.2041 66.8148 95.375 66.1973 95.375 65.4043C95.375 64.6159 95.2018 64.0007 94.8555 63.5586C94.5137 63.1165 94.0511 62.8955 93.4678 62.8955C92.8844 62.8955 92.4196 63.1165 92.0732 63.5586C91.7314 64.0007 91.5605 64.6159 91.5605 65.4043C91.5605 66.1973 91.7314 66.8148 92.0732 67.2568C92.4196 67.6989 92.8844 67.9199 93.4678 67.9199ZM98.0205 69V61.8086H99.4287V63.0322H99.4629C99.5814 62.613 99.7933 62.2848 100.099 62.0479C100.404 61.8109 100.769 61.6924 101.192 61.6924C101.334 61.6924 101.502 61.7106 101.698 61.7471V63.1211C101.566 63.0664 101.345 63.0391 101.035 63.0391C100.561 63.0391 100.185 63.1872 99.9072 63.4834C99.6338 63.7796 99.4971 64.1829 99.4971 64.6934V69H98.0205ZM102.614 69V61.8086H104.022V63.0117H104.057C104.257 62.5924 104.549 62.2666 104.932 62.0342C105.314 61.8018 105.777 61.6855 106.319 61.6855C107.108 61.6855 107.721 61.9225 108.158 62.3965C108.596 62.8659 108.814 63.5153 108.814 64.3447V69H107.331V64.6318C107.331 64.085 107.201 63.6702 106.941 63.3877C106.686 63.1006 106.306 62.957 105.8 62.957C105.28 62.957 104.866 63.1257 104.556 63.4629C104.246 63.8001 104.091 64.249 104.091 64.8096V69H102.614ZM110.291 69V61.8086H111.768V69H110.291ZM111.638 60.5098C111.469 60.6738 111.266 60.7559 111.029 60.7559C110.792 60.7559 110.59 60.6738 110.421 60.5098C110.257 60.3457 110.175 60.1475 110.175 59.915C110.175 59.6781 110.257 59.4775 110.421 59.3135C110.59 59.1494 110.792 59.0674 111.029 59.0674C111.271 59.0674 111.474 59.1494 111.638 59.3135C111.806 59.4775 111.891 59.6781 111.891 59.915C111.891 60.1475 111.806 60.3457 111.638 60.5098ZM113.278 69V61.8086H114.687V63.0117H114.721C114.921 62.5924 115.213 62.2666 115.596 62.0342C115.979 61.8018 116.441 61.6855 116.983 61.6855C117.772 61.6855 118.385 61.9225 118.822 62.3965C119.26 62.8659 119.479 63.5153 119.479 64.3447V69H117.995V64.6318C117.995 64.085 117.865 63.6702 117.605 63.3877C117.35 63.1006 116.97 62.957 116.464 62.957C115.944 62.957 115.53 63.1257 115.22 63.4629C114.91 63.8001 114.755 64.249 114.755 64.8096V69H113.278ZM123.97 67.8037C124.549 67.8037 125.011 67.585 125.357 67.1475C125.708 66.71 125.884 66.1221 125.884 65.3838C125.884 64.6455 125.708 64.0531 125.357 63.6064C125.011 63.1598 124.549 62.9365 123.97 62.9365C123.4 62.9365 122.944 63.1576 122.603 63.5996C122.265 64.0417 122.097 64.6364 122.097 65.3838C122.097 66.1312 122.265 66.7214 122.603 67.1543C122.944 67.5872 123.4 67.8037 123.97 67.8037ZM123.983 71.707C123.145 71.707 122.434 71.5065 121.851 71.1055C121.272 70.7044 120.937 70.1895 120.846 69.5605H122.329C122.434 69.8613 122.639 70.1029 122.944 70.2852C123.254 70.4674 123.619 70.5586 124.038 70.5586C124.608 70.5586 125.057 70.4082 125.385 70.1074C125.713 69.8112 125.877 69.4147 125.877 68.918V67.7354H125.85C125.645 68.1318 125.339 68.4463 124.934 68.6787C124.533 68.9111 124.079 69.0273 123.573 69.0273C122.666 69.0273 121.942 68.6992 121.399 68.043C120.857 67.3822 120.586 66.4935 120.586 65.377C120.586 64.2467 120.857 63.3512 121.399 62.6904C121.946 62.0251 122.682 61.6924 123.607 61.6924C124.113 61.6924 124.567 61.8132 124.968 62.0547C125.369 62.2917 125.679 62.6198 125.897 63.0391H125.925V61.8086H127.36V68.8701C127.36 69.7269 127.053 70.4128 126.438 70.9277C125.827 71.4473 125.009 71.707 123.983 71.707Z" fill="#333333"/>
</svg>
