<svg width="248" height="94" viewBox="0 0 248 94" fill="none" xmlns="http://www.w3.org/2000/svg">
<g filter="url(#filter0_d_617_3247)">
<rect x="9" y="5" width="230" height="76" rx="5" fill="#EEFFE8"/>
<rect x="108.5" y="49.5" width="64" height="23" rx="4.5" fill="#27AE60"/>
<path d="M120.836 60.2598L119.459 65H118.258L116.424 58.2852H117.742L118.908 63.2715H118.943L120.303 58.2852H121.416L122.775 63.2715H122.816L123.982 58.2852H125.301L123.467 65H122.266L120.883 60.2598H120.836ZM130.697 63.9219V65H126.238V58.2852H130.697V59.3633H127.51V61.0918H130.527V62.0996H127.51V63.9219H130.697ZM136.258 63.9219V65H131.898V58.2852H133.17V63.9219H136.258ZM139.955 65.1113C138.971 65.1113 138.191 64.8027 137.617 64.1855C137.043 63.5684 136.756 62.7207 136.756 61.6426C136.756 60.5684 137.043 59.7207 137.617 59.0996C138.195 58.4785 138.975 58.168 139.955 58.168C140.76 58.168 141.438 58.3965 141.988 58.8535C142.543 59.3066 142.855 59.9004 142.926 60.6348H141.678C141.604 60.2207 141.408 59.8867 141.092 59.6328C140.775 59.3789 140.396 59.252 139.955 59.252C139.373 59.252 138.91 59.4668 138.566 59.8965C138.223 60.3262 138.051 60.9062 138.051 61.6367C138.051 62.375 138.223 62.959 138.566 63.3887C138.91 63.8184 139.375 64.0332 139.961 64.0332C140.41 64.0332 140.787 63.9199 141.092 63.6934C141.396 63.4629 141.594 63.1465 141.684 62.7441H142.932C142.83 63.4785 142.514 64.0566 141.982 64.4785C141.451 64.9004 140.775 65.1113 139.955 65.1113ZM147.033 58.168C148.037 58.168 148.832 58.4805 149.418 59.1055C150.004 59.7266 150.297 60.5723 150.297 61.6426C150.297 62.709 150.004 63.5547 149.418 64.1797C148.832 64.8008 148.037 65.1113 147.033 65.1113C146.025 65.1113 145.229 64.8008 144.643 64.1797C144.057 63.5586 143.764 62.7129 143.764 61.6426C143.764 60.5723 144.057 59.7266 144.643 59.1055C145.229 58.4805 146.025 58.168 147.033 58.168ZM147.033 59.2637C146.428 59.2637 145.947 59.4785 145.592 59.9082C145.236 60.334 145.059 60.9121 145.059 61.6426C145.059 62.373 145.236 62.9531 145.592 63.3828C145.947 63.8086 146.428 64.0215 147.033 64.0215C147.635 64.0215 148.111 63.8086 148.463 63.3828C148.818 62.9531 148.996 62.373 148.996 61.6426C148.996 60.9121 148.818 60.334 148.463 59.9082C148.111 59.4785 147.635 59.2637 147.033 59.2637ZM158.518 65H157.381V60.3359H157.34L155.383 64.9414H154.533L152.576 60.3359H152.541V65H151.398V58.2852H152.869L154.943 63.2188H154.979L157.047 58.2852H158.518V65ZM164.318 63.9219V65H159.859V58.2852H164.318V59.3633H161.131V61.0918H164.148V62.0996H161.131V63.9219H164.318Z" fill="white"/>
<rect x="108.5" y="49.5" width="64" height="23" rx="4.5" stroke="#27AE60"/>
<rect x="183.5" y="49.5" width="45" height="23" rx="4.5" fill="#27AE60"/>
<path d="M193.256 65H191.984V58.2852H193.256V65ZM195.822 65H194.598V58.2852H195.693L199.051 62.8438H199.092V58.2852H200.316V65H199.227L195.863 60.4297H195.822V65ZM204.617 65H203.352V59.3633H201.283V58.2852H206.686V59.3633H204.617V65ZM208.924 59.3105V61.5371H210.307C210.689 61.5371 210.986 61.4395 211.197 61.2441C211.412 61.0488 211.52 60.7754 211.52 60.4238C211.52 60.084 211.408 59.8145 211.186 59.6152C210.963 59.4121 210.662 59.3105 210.283 59.3105H208.924ZM208.924 62.5039V65H207.652V58.2852H210.424C211.174 58.2852 211.76 58.4746 212.182 58.8535C212.607 59.2285 212.82 59.7422 212.82 60.3945C212.82 60.8398 212.707 61.2344 212.48 61.5781C212.254 61.918 211.939 62.1602 211.537 62.3047L213.025 65H211.572L210.242 62.5039H208.924ZM216.986 58.168C217.99 58.168 218.785 58.4805 219.371 59.1055C219.957 59.7266 220.25 60.5723 220.25 61.6426C220.25 62.709 219.957 63.5547 219.371 64.1797C218.785 64.8008 217.99 65.1113 216.986 65.1113C215.979 65.1113 215.182 64.8008 214.596 64.1797C214.01 63.5586 213.717 62.7129 213.717 61.6426C213.717 60.5723 214.01 59.7266 214.596 59.1055C215.182 58.4805 215.979 58.168 216.986 58.168ZM216.986 59.2637C216.381 59.2637 215.9 59.4785 215.545 59.9082C215.189 60.334 215.012 60.9121 215.012 61.6426C215.012 62.373 215.189 62.9531 215.545 63.3828C215.9 63.8086 216.381 64.0215 216.986 64.0215C217.588 64.0215 218.064 63.8086 218.416 63.3828C218.771 62.9531 218.949 62.373 218.949 61.6426C218.949 60.9121 218.771 60.334 218.416 59.9082C218.064 59.4785 217.588 59.2637 216.986 59.2637Z" fill="white"/>
<rect x="183.5" y="49.5" width="45" height="23" rx="4.5" stroke="#27AE60"/>
<path d="M75.125 61H88.875" stroke="#27AE60" stroke-width="1.3" stroke-linecap="round" stroke-linejoin="round"/>
<path d="M83.25 55.375L88.875 61L83.25 66.625" stroke="#27AE60" stroke-width="1.3" stroke-linecap="round" stroke-linejoin="round"/>
<path d="M19.9092 56.1357H23.3887C24.8561 56.1357 26 56.5664 26.8203 57.4277C27.6452 58.2891 28.0576 59.4967 28.0576 61.0508C28.0576 62.6094 27.6475 63.8239 26.8271 64.6943C26.0068 65.5648 24.8607 66 23.3887 66H19.9092V56.1357ZM21.4404 57.4551V64.6738H23.2451C24.2933 64.6738 25.0954 64.3639 25.6514 63.7441C26.2119 63.1243 26.4922 62.2311 26.4922 61.0645C26.4922 59.9023 26.2119 59.0114 25.6514 58.3916C25.0908 57.7673 24.2887 57.4551 23.2451 57.4551H21.4404ZM33.6016 60.3877C33.278 60.0413 32.861 59.8682 32.3506 59.8682C31.8402 59.8682 31.4163 60.0436 31.0791 60.3945C30.7419 60.7409 30.555 61.1898 30.5186 61.7412H34.1143C34.096 61.1852 33.9251 60.734 33.6016 60.3877ZM34.1074 63.8877H35.5088C35.404 64.5485 35.0667 65.0885 34.4971 65.5078C33.9274 65.9271 33.2324 66.1367 32.4121 66.1367C31.3594 66.1367 30.5299 65.8063 29.9238 65.1455C29.3223 64.4801 29.0215 63.5778 29.0215 62.4385C29.0215 61.3083 29.3223 60.3991 29.9238 59.7109C30.5299 59.0228 31.3389 58.6787 32.3506 58.6787C33.3441 58.6787 34.1325 59.0046 34.7158 59.6562C35.2992 60.3034 35.5908 61.1738 35.5908 62.2676V62.7734H30.5117V62.8623C30.5117 63.4912 30.6872 63.9948 31.0381 64.373C31.389 64.7513 31.8584 64.9404 32.4463 64.9404C32.861 64.9404 33.2165 64.8447 33.5127 64.6533C33.8089 64.4619 34.0072 64.2067 34.1074 63.8877ZM37.1699 66V59.9775H36.1787V58.8223H37.1699V58.1182C37.1699 57.4163 37.3408 56.8991 37.6826 56.5664C38.0244 56.2337 38.5599 56.0674 39.2891 56.0674C39.5853 56.0674 39.861 56.0902 40.1162 56.1357V57.2295C39.9704 57.2021 39.7904 57.1885 39.5762 57.1885C38.9473 57.1885 38.6328 57.5075 38.6328 58.1455V58.8223H40.0889V59.9775H38.6533V66H37.1699ZM43.3701 64.9541C43.8896 64.9541 44.3249 64.7969 44.6758 64.4824C45.0312 64.1634 45.209 63.7715 45.209 63.3066V62.7393L43.4385 62.8486C42.9964 62.8805 42.6546 62.9899 42.4131 63.1768C42.1761 63.359 42.0576 63.6051 42.0576 63.915C42.0576 64.2295 42.1761 64.4824 42.4131 64.6738C42.6546 64.8607 42.9736 64.9541 43.3701 64.9541ZM42.96 66.123C42.2536 66.123 41.6771 65.9225 41.2305 65.5215C40.7884 65.1204 40.5674 64.5986 40.5674 63.9561C40.5674 63.3271 40.7998 62.8281 41.2646 62.459C41.7295 62.0853 42.388 61.8757 43.2402 61.8301L45.209 61.7139V61.1602C45.209 60.7591 45.0814 60.4469 44.8262 60.2236C44.571 59.9958 44.2178 59.8818 43.7666 59.8818C43.3473 59.8818 43.0055 59.9753 42.7412 60.1621C42.4814 60.349 42.3174 60.6064 42.249 60.9346H40.8545C40.8955 60.2692 41.1826 59.7269 41.7158 59.3076C42.249 58.8883 42.9508 58.6787 43.8213 58.6787C44.6917 58.6787 45.3844 58.8929 45.8994 59.3213C46.4189 59.7497 46.6787 60.3239 46.6787 61.0439V66H45.2637V64.8174H45.2295C45.0244 65.2139 44.7122 65.5306 44.293 65.7676C43.8783 66.0046 43.4339 66.123 42.96 66.123ZM54.2803 58.8086V66H52.8652V64.7832H52.8311C52.4163 65.681 51.6735 66.1299 50.6025 66.1299C49.8187 66.1299 49.2012 65.8929 48.75 65.4189C48.3034 64.9404 48.0801 64.2887 48.0801 63.4639V58.8086H49.5566V63.1768C49.5566 63.7282 49.6865 64.1475 49.9463 64.4346C50.2061 64.7171 50.5889 64.8584 51.0947 64.8584C51.6234 64.8584 52.0404 64.6898 52.3457 64.3525C52.651 64.0153 52.8037 63.5641 52.8037 62.999V58.8086H54.2803ZM55.7979 66V56.1357H57.2744V66H55.7979ZM59.2227 57.1064H60.7061V58.8086H62.0732V59.9775H60.7061V63.9424C60.7061 64.2523 60.7767 64.4801 60.918 64.626C61.0592 64.7718 61.2803 64.8447 61.5811 64.8447C61.7998 64.8447 61.9616 64.8333 62.0664 64.8105V65.9795C61.8841 66.0251 61.6107 66.0479 61.2461 66.0479C60.5215 66.0479 60.002 65.8997 59.6875 65.6035C59.3776 65.3027 59.2227 64.8037 59.2227 64.1064V59.9775H58.1768V58.8086H59.2227V57.1064Z" fill="#333333"/>
<path d="M81.1875 31.125C81.9124 31.125 82.5 30.5374 82.5 29.8125C82.5 29.0876 81.9124 28.5 81.1875 28.5C80.4626 28.5 79.875 29.0876 79.875 29.8125C79.875 30.5374 80.4626 31.125 81.1875 31.125Z" stroke="#27AE60" stroke-linecap="round" stroke-linejoin="round"/>
<path d="M81.1875 25.5C81.9124 25.5 82.5 24.9124 82.5 24.1875C82.5 23.4626 81.9124 22.875 81.1875 22.875C80.4626 22.875 79.875 23.4626 79.875 24.1875C79.875 24.9124 80.4626 25.5 81.1875 25.5Z" stroke="#27AE60" stroke-linecap="round" stroke-linejoin="round"/>
<path d="M81.1875 25.5V28.5" stroke="#27AE60" stroke-linecap="round" stroke-linejoin="round"/>
<path d="M86.8125 31.125C87.5374 31.125 88.125 30.5374 88.125 29.8125C88.125 29.0876 87.5374 28.5 86.8125 28.5C86.0876 28.5 85.5 29.0876 85.5 29.8125C85.5 30.5374 86.0876 31.125 86.8125 31.125Z" stroke="#27AE60" stroke-linecap="round" stroke-linejoin="round"/>
<path d="M86.8126 28.5L86.8125 26.6194C86.8125 26.0227 86.5755 25.4505 86.1535 25.0285L84.375 23.25" stroke="#27AE60" stroke-linecap="round" stroke-linejoin="round"/>
<path d="M84.375 25.125V23.25H86.25" stroke="#27AE60" stroke-linecap="round" stroke-linejoin="round"/>
<path d="M95.7031 29.1016H96.9395C96.9746 29.3945 97.1309 29.6309 97.4082 29.8105C97.6895 29.9863 98.0391 30.0742 98.457 30.0742C98.8633 30.0742 99.1934 29.9902 99.4473 29.8223C99.7051 29.6504 99.834 29.4336 99.834 29.1719C99.834 28.9375 99.7402 28.75 99.5527 28.6094C99.3652 28.4648 99.0566 28.3438 98.627 28.2461L97.7422 28.0469C96.4961 27.7773 95.873 27.1602 95.873 26.1953C95.873 25.5938 96.1113 25.1055 96.5879 24.7305C97.0684 24.3555 97.6855 24.168 98.4395 24.168C99.2012 24.168 99.8145 24.3516 100.279 24.7188C100.744 25.0859 100.984 25.5703 101 26.1719H99.7871C99.7598 25.8711 99.623 25.6348 99.377 25.4629C99.1348 25.2871 98.8203 25.1992 98.4336 25.1992C98.0547 25.1992 97.7461 25.2832 97.5078 25.4512C97.2734 25.6152 97.1562 25.8281 97.1562 26.0898C97.1562 26.3047 97.248 26.4805 97.4316 26.6172C97.6152 26.75 97.916 26.8633 98.334 26.957L99.1309 27.1328C99.8262 27.2852 100.33 27.5117 100.643 27.8125C100.959 28.1094 101.117 28.5098 101.117 29.0137C101.117 29.6582 100.871 30.1699 100.379 30.5488C99.8906 30.9238 99.2285 31.1113 98.3926 31.1113C97.5918 31.1113 96.9492 30.9316 96.4648 30.5723C95.9844 30.2129 95.7305 29.7227 95.7031 29.1016ZM106.631 29.9219V31H102.172V24.2852H106.631V25.3633H103.443V27.0918H106.461V28.0996H103.443V29.9219H106.631ZM110.797 31H109.531V25.3633H107.463V24.2852H112.865V25.3633H110.797V31ZM119.24 31.1113C118.256 31.1113 117.477 30.8027 116.902 30.1855C116.328 29.5684 116.041 28.7207 116.041 27.6426C116.041 26.5684 116.328 25.7207 116.902 25.0996C117.48 24.4785 118.26 24.168 119.24 24.168C120.045 24.168 120.723 24.3965 121.273 24.8535C121.828 25.3066 122.141 25.9004 122.211 26.6348H120.963C120.889 26.2207 120.693 25.8867 120.377 25.6328C120.061 25.3789 119.682 25.252 119.24 25.252C118.658 25.252 118.195 25.4668 117.852 25.8965C117.508 26.3262 117.336 26.9062 117.336 27.6367C117.336 28.375 117.508 28.959 117.852 29.3887C118.195 29.8184 118.66 30.0332 119.246 30.0332C119.695 30.0332 120.072 29.9199 120.377 29.6934C120.682 29.4629 120.879 29.1465 120.969 28.7441H122.217C122.115 29.4785 121.799 30.0566 121.268 30.4785C120.736 30.9004 120.061 31.1113 119.24 31.1113ZM126.318 24.168C127.322 24.168 128.117 24.4805 128.703 25.1055C129.289 25.7266 129.582 26.5723 129.582 27.6426C129.582 28.709 129.289 29.5547 128.703 30.1797C128.117 30.8008 127.322 31.1113 126.318 31.1113C125.311 31.1113 124.514 30.8008 123.928 30.1797C123.342 29.5586 123.049 28.7129 123.049 27.6426C123.049 26.5723 123.342 25.7266 123.928 25.1055C124.514 24.4805 125.311 24.168 126.318 24.168ZM126.318 25.2637C125.713 25.2637 125.232 25.4785 124.877 25.9082C124.521 26.334 124.344 26.9121 124.344 27.6426C124.344 28.373 124.521 28.9531 124.877 29.3828C125.232 29.8086 125.713 30.0215 126.318 30.0215C126.92 30.0215 127.396 29.8086 127.748 29.3828C128.104 28.9531 128.281 28.373 128.281 27.6426C128.281 26.9121 128.104 26.334 127.748 25.9082C127.396 25.4785 126.92 25.2637 126.318 25.2637ZM131.908 31H130.684V24.2852H131.779L135.137 28.8438H135.178V24.2852H136.402V31H135.312L131.949 26.4297H131.908V31ZM137.738 24.2852H140.299C141.326 24.2852 142.127 24.5762 142.701 25.1582C143.275 25.7402 143.562 26.5605 143.562 27.6191C143.562 28.6855 143.275 29.5156 142.701 30.1094C142.127 30.7031 141.326 31 140.299 31H137.738V24.2852ZM139.01 25.3633V29.9219H140.158C140.842 29.9219 141.363 29.7266 141.723 29.3359C142.082 28.9453 142.262 28.375 142.262 27.625C142.262 26.8984 142.08 26.3398 141.717 25.9492C141.354 25.5586 140.834 25.3633 140.158 25.3633H139.01ZM145.936 31H144.664V24.2852H145.936V31ZM150.242 31H148.977V25.3633H146.908V24.2852H152.311V25.3633H150.242V31ZM154.549 31H153.277V24.2852H154.549V31ZM158.932 24.168C159.936 24.168 160.73 24.4805 161.316 25.1055C161.902 25.7266 162.195 26.5723 162.195 27.6426C162.195 28.709 161.902 29.5547 161.316 30.1797C160.73 30.8008 159.936 31.1113 158.932 31.1113C157.924 31.1113 157.127 30.8008 156.541 30.1797C155.955 29.5586 155.662 28.7129 155.662 27.6426C155.662 26.5723 155.955 25.7266 156.541 25.1055C157.127 24.4805 157.924 24.168 158.932 24.168ZM158.932 25.2637C158.326 25.2637 157.846 25.4785 157.49 25.9082C157.135 26.334 156.957 26.9121 156.957 27.6426C156.957 28.373 157.135 28.9531 157.49 29.3828C157.846 29.8086 158.326 30.0215 158.932 30.0215C159.533 30.0215 160.01 29.8086 160.361 29.3828C160.717 28.9531 160.895 28.373 160.895 27.6426C160.895 26.9121 160.717 26.334 160.361 25.9082C160.01 25.4785 159.533 25.2637 158.932 25.2637ZM164.521 31H163.297V24.2852H164.393L167.75 28.8438H167.791V24.2852H169.016V31H167.926L164.562 26.4297H164.521V31Z" fill="#27AE60"/>
<rect x="19.5" y="15.5" width="209" height="23" rx="4.5" stroke="#27AE60"/>
</g>
<defs>
<filter id="filter0_d_617_3247" x="0" y="0" width="248" height="94" filterUnits="userSpaceOnUse" color-interpolation-filters="sRGB">
<feFlood flood-opacity="0" result="BackgroundImageFix"/>
<feColorMatrix in="SourceAlpha" type="matrix" values="0 0 0 0 0 0 0 0 0 0 0 0 0 0 0 0 0 0 127 0" result="hardAlpha"/>
<feOffset dy="4"/>
<feGaussianBlur stdDeviation="4.5"/>
<feComposite in2="hardAlpha" operator="out"/>
<feColorMatrix type="matrix" values="0 0 0 0 0.152941 0 0 0 0 0.682353 0 0 0 0 0.376471 0 0 0 0.31 0"/>
<feBlend mode="normal" in2="BackgroundImageFix" result="effect1_dropShadow_617_3247"/>
<feBlend mode="normal" in="SourceGraphic" in2="effect1_dropShadow_617_3247" result="shape"/>
</filter>
</defs>
</svg>
