<svg width="195" height="93" viewBox="0 0 195 93" fill="none" xmlns="http://www.w3.org/2000/svg">
<path d="M2.5839 0.0388858C2.07286 0.0388858 1.57327 0.190876 1.14835 0.475646C0.723439 0.760416 0.392213 1.16516 0.196646 1.63871C0.00107936 2.11227 -0.0500356 2.63337 0.0496634 3.13609C0.149362 3.63882 0.39546 4.10059 0.75682 4.46303C1.11818 4.82548 1.57855 5.07231 2.07977 5.17231C2.58099 5.27231 3.10059 5.22099 3.57273 5.02483C4.04486 4.82868 4.44837 4.49649 4.73229 4.0703C5.01621 3.64411 5.16777 3.14307 5.16777 2.6305C5.16777 1.94316 4.89556 1.28396 4.41099 0.797936C3.92642 0.311915 3.26919 0.0388858 2.5839 0.0388858Z" fill="#171923"/>
<path d="M17.1956 0.0388858C16.6846 0.0388858 16.185 0.190876 15.7601 0.475646C15.3351 0.760416 15.004 1.16516 14.8085 1.63871C14.6129 2.11227 14.5617 2.63337 14.6614 3.13609C14.7611 3.63882 15.0072 4.10059 15.3685 4.46303C15.7299 4.82548 16.1903 5.07231 16.6915 5.17231C17.1927 5.27231 17.7123 5.22099 18.1844 5.02483C18.6566 4.82868 19.0601 4.49649 19.344 4.0703C19.6279 3.64411 19.7795 3.14307 19.7795 2.6305C19.7795 1.94316 19.5073 1.28396 19.0227 0.797936C18.5381 0.311915 17.8809 0.0388858 17.1956 0.0388858Z" fill="#171923"/>
<path d="M31.7901 0.0388858C31.2791 0.0388858 30.7796 0.190876 30.3547 0.475646C29.9298 0.760416 29.5985 1.16516 29.403 1.63871C29.2074 2.11227 29.1563 2.63337 29.256 3.13609C29.3557 3.63882 29.6018 4.10059 29.9631 4.46303C30.3245 4.82548 30.7849 5.07231 31.2861 5.17231C31.7873 5.27231 32.3068 5.22099 32.7789 5.02483C33.2511 4.82868 33.6547 4.49649 33.9386 4.0703C34.2225 3.64411 34.374 3.14307 34.374 2.6305C34.374 1.94316 34.1018 1.28396 33.6172 0.797936C33.1326 0.311915 32.4754 0.0388858 31.7901 0.0388858Z" fill="#171923"/>
<path d="M46.3933 0.0388967C45.8813 0.0346177 45.3797 0.182955 44.9519 0.465111C44.5242 0.747267 44.1896 1.15051 43.9908 1.62367C43.7919 2.09683 43.7377 2.6186 43.8349 3.12274C43.9322 3.62687 44.1766 4.09066 44.5371 4.45527C44.8975 4.81987 45.3579 5.06885 45.8597 5.17061C46.3615 5.27237 46.8821 5.22232 47.3555 5.02682C47.8289 4.83132 48.2337 4.49917 48.5186 4.07253C48.8035 3.64588 48.9556 3.144 48.9556 2.63051C48.9556 1.9469 48.6863 1.29095 48.2064 0.80554C47.7264 0.320134 47.0748 0.0445935 46.3933 0.0388967Z" fill="#171923"/>
<path d="M60.9964 0.0388967C60.4844 0.0346177 59.9828 0.182955 59.555 0.465111C59.1273 0.747267 58.7928 1.15051 58.5939 1.62367C58.395 2.09683 58.3408 2.6186 58.4381 3.12274C58.5353 3.62687 58.7797 4.09066 59.1402 4.45527C59.5007 4.81987 59.961 5.06885 60.4628 5.17061C60.9646 5.27237 61.4852 5.22232 61.9586 5.02682C62.432 4.83132 62.8369 4.49917 63.1217 4.07253C63.4066 3.64588 63.5587 3.144 63.5587 2.63051C63.5587 1.9469 63.2895 1.29095 62.8096 0.80554C62.3297 0.320134 61.6779 0.0445935 60.9964 0.0388967Z" fill="#171923"/>
<path d="M75.5997 0.0388858C75.0886 0.0388858 74.589 0.190876 74.1641 0.475646C73.7392 0.760416 73.408 1.16516 73.2124 1.63871C73.0168 2.11227 72.9657 2.63337 73.0654 3.13609C73.1651 3.63882 73.4112 4.10059 73.7726 4.46303C74.1339 4.82548 74.5943 5.07231 75.0955 5.17231C75.5968 5.27231 76.1162 5.22099 76.5884 5.02483C77.0605 4.82868 77.4641 4.49649 77.7481 4.0703C78.032 3.64411 78.1835 3.14307 78.1835 2.6305C78.1835 1.94316 77.9112 1.28396 77.4266 0.797936C76.9421 0.311915 76.285 0.0388858 75.5997 0.0388858Z" fill="#171923"/>
<path d="M90.2027 0.0388967C89.6908 0.0346177 89.1891 0.182955 88.7614 0.465111C88.3336 0.747267 87.9991 1.15051 87.8002 1.62367C87.6013 2.09683 87.5471 2.6186 87.6444 3.12274C87.7416 3.62687 87.986 4.09066 88.3465 4.45527C88.707 4.81987 89.1673 5.06885 89.6691 5.17061C90.1709 5.27237 90.6915 5.22232 91.1649 5.02682C91.6383 4.83132 92.0432 4.49917 92.3281 4.07253C92.6129 3.64588 92.765 3.144 92.765 2.63051C92.765 1.9469 92.4957 1.29095 92.0158 0.80554C91.5359 0.320134 90.8843 0.0445935 90.2027 0.0388967Z" fill="#171923"/>
<path d="M2.5839 14.6815C2.07286 14.6815 1.57327 14.8335 1.14835 15.1182C0.723439 15.403 0.392213 15.8078 0.196646 16.2813C0.00107936 16.7549 -0.0500356 17.276 0.0496634 17.7787C0.149362 18.2814 0.39546 18.7432 0.75682 19.1057C1.11818 19.4681 1.57855 19.7149 2.07977 19.8149C2.58099 19.9149 3.10059 19.8636 3.57273 19.6674C4.04486 19.4713 4.44837 19.1391 4.73229 18.7129C5.01621 18.2867 5.16777 17.7857 5.16777 17.2731C5.16777 16.5858 4.89556 15.9266 4.41099 15.4406C3.92642 14.9545 3.26919 14.6815 2.5839 14.6815Z" fill="#171923"/>
<path d="M17.1956 14.6815C16.6846 14.6815 16.185 14.8335 15.7601 15.1182C15.3351 15.403 15.004 15.8078 14.8085 16.2813C14.6129 16.7549 14.5617 17.276 14.6614 17.7787C14.7611 18.2814 15.0072 18.7432 15.3685 19.1057C15.7299 19.4681 16.1903 19.7149 16.6915 19.8149C17.1927 19.9149 17.7123 19.8636 18.1844 19.6674C18.6566 19.4713 19.0601 19.1391 19.344 18.7129C19.6279 18.2867 19.7795 17.7857 19.7795 17.2731C19.7795 16.5858 19.5073 15.9266 19.0227 15.4406C18.5381 14.9545 17.8809 14.6815 17.1956 14.6815Z" fill="#171923"/>
<path d="M31.7901 14.6815C31.2791 14.6815 30.7796 14.8335 30.3547 15.1182C29.9298 15.403 29.5985 15.8078 29.403 16.2813C29.2074 16.7549 29.1563 17.276 29.256 17.7787C29.3557 18.2814 29.6018 18.7432 29.9631 19.1057C30.3245 19.4681 30.7849 19.7149 31.2861 19.8149C31.7873 19.9149 32.3068 19.8636 32.7789 19.6674C33.2511 19.4713 33.6547 19.1391 33.9386 18.7129C34.2225 18.2867 34.374 17.7857 34.374 17.2731C34.374 16.5858 34.1018 15.9266 33.6172 15.4406C33.1326 14.9545 32.4754 14.6815 31.7901 14.6815Z" fill="#171923"/>
<path d="M46.3933 14.6815C45.8813 14.6772 45.3797 14.8256 44.9519 15.1077C44.5242 15.3899 44.1896 15.7931 43.9908 16.2663C43.7919 16.7395 43.7377 17.2612 43.8349 17.7653C43.9322 18.2695 44.1766 18.7333 44.5371 19.0979C44.8975 19.4625 45.3579 19.7115 45.8597 19.8132C46.3615 19.915 46.8821 19.8649 47.3555 19.6694C47.8289 19.4739 48.2337 19.1418 48.5186 18.7151C48.8035 18.2885 48.9556 17.7866 48.9556 17.2731C48.9556 16.5895 48.6863 15.9336 48.2064 15.4482C47.7264 14.9628 47.0748 14.6872 46.3933 14.6815Z" fill="#171923"/>
<path d="M60.9964 14.6815C60.4844 14.6772 59.9828 14.8256 59.555 15.1077C59.1273 15.3899 58.7928 15.7931 58.5939 16.2663C58.395 16.7395 58.3408 17.2612 58.4381 17.7653C58.5353 18.2695 58.7797 18.7333 59.1402 19.0979C59.5007 19.4625 59.961 19.7115 60.4628 19.8132C60.9646 19.915 61.4852 19.8649 61.9586 19.6694C62.432 19.4739 62.8369 19.1418 63.1217 18.7151C63.4066 18.2885 63.5587 17.7866 63.5587 17.2731C63.5587 16.5895 63.2895 15.9336 62.8096 15.4482C62.3297 14.9628 61.6779 14.6872 60.9964 14.6815Z" fill="#171923"/>
<path d="M75.5997 14.6815C75.0886 14.6815 74.589 14.8335 74.1641 15.1182C73.7392 15.403 73.408 15.8078 73.2124 16.2813C73.0168 16.7549 72.9657 17.276 73.0654 17.7787C73.1651 18.2814 73.4112 18.7432 73.7726 19.1057C74.1339 19.4681 74.5943 19.7149 75.0955 19.8149C75.5968 19.9149 76.1162 19.8636 76.5884 19.6674C77.0605 19.4713 77.4641 19.1391 77.7481 18.7129C78.032 18.2867 78.1835 17.7857 78.1835 17.2731C78.1835 16.5858 77.9112 15.9266 77.4266 15.4406C76.9421 14.9545 76.285 14.6815 75.5997 14.6815Z" fill="#171923"/>
<path d="M90.2027 14.6815C89.6908 14.6772 89.1891 14.8256 88.7614 15.1077C88.3336 15.3899 87.9991 15.7931 87.8002 16.2663C87.6013 16.7395 87.5471 17.2612 87.6444 17.7653C87.7416 18.2695 87.986 18.7333 88.3465 19.0979C88.707 19.4625 89.1673 19.7115 89.6691 19.8132C90.1709 19.915 90.6915 19.8649 91.1649 19.6694C91.6383 19.4739 92.0432 19.1418 92.3281 18.7151C92.6129 18.2885 92.765 17.7866 92.765 17.2731C92.765 16.5895 92.4957 15.9336 92.0158 15.4482C91.5359 14.9628 90.8843 14.6872 90.2027 14.6815Z" fill="#171923"/>
<path d="M2.5839 29.2334C2.07286 29.2334 1.57327 29.3854 1.14835 29.6701C0.723439 29.9549 0.392213 30.3597 0.196646 30.8332C0.00107936 31.3068 -0.0500356 31.8279 0.0496634 32.3306C0.149362 32.8333 0.39546 33.2951 0.75682 33.6576C1.11818 34.02 1.57855 34.2668 2.07977 34.3668C2.58099 34.4668 3.10059 34.4155 3.57273 34.2193C4.04486 34.0232 4.44837 33.691 4.73229 33.2648C5.01621 32.8386 5.16777 32.3376 5.16777 31.825C5.16777 31.1377 4.89556 30.4785 4.41099 29.9925C3.92642 29.5064 3.26919 29.2334 2.5839 29.2334Z" fill="#171923"/>
<path d="M17.1956 29.2334C16.6846 29.2334 16.185 29.3854 15.7601 29.6701C15.3351 29.9549 15.004 30.3597 14.8085 30.8332C14.6129 31.3068 14.5617 31.8279 14.6614 32.3306C14.7611 32.8333 15.0072 33.2951 15.3685 33.6576C15.7299 34.02 16.1903 34.2668 16.6915 34.3668C17.1927 34.4668 17.7123 34.4155 18.1844 34.2193C18.6566 34.0232 19.0601 33.691 19.344 33.2648C19.6279 32.8386 19.7795 32.3376 19.7795 31.825C19.7795 31.1377 19.5073 30.4785 19.0227 29.9925C18.5381 29.5064 17.8809 29.2334 17.1956 29.2334Z" fill="#171923"/>
<path d="M31.7901 29.2334C31.2791 29.2334 30.7796 29.3854 30.3547 29.6701C29.9298 29.9549 29.5985 30.3597 29.403 30.8332C29.2074 31.3068 29.1563 31.8279 29.256 32.3306C29.3557 32.8333 29.6018 33.2951 29.9631 33.6576C30.3245 34.02 30.7849 34.2668 31.2861 34.3668C31.7873 34.4668 32.3068 34.4155 32.7789 34.2193C33.2511 34.0232 33.6547 33.691 33.9386 33.2648C34.2225 32.8386 34.374 32.3376 34.374 31.825C34.374 31.1377 34.1018 30.4785 33.6172 29.9925C33.1326 29.5064 32.4754 29.2334 31.7901 29.2334Z" fill="#171923"/>
<path d="M46.3933 29.2334C45.8813 29.2291 45.3797 29.3775 44.9519 29.6596C44.5242 29.9418 44.1896 30.345 43.9908 30.8182C43.7919 31.2914 43.7377 31.8131 43.8349 32.3172C43.9322 32.8214 44.1766 33.2852 44.5371 33.6498C44.8975 34.0144 45.3579 34.2634 45.8597 34.3651C46.3615 34.4669 46.8821 34.4168 47.3555 34.2213C47.8289 34.0258 48.2337 33.6937 48.5186 33.267C48.8035 32.8404 48.9556 32.3385 48.9556 31.825C48.9556 31.1414 48.6863 30.4855 48.2064 30.0001C47.7264 29.5147 47.0748 29.2391 46.3933 29.2334Z" fill="#171923"/>
<path d="M60.9964 29.2334C60.4844 29.2291 59.9828 29.3775 59.555 29.6596C59.1273 29.9418 58.7928 30.345 58.5939 30.8182C58.395 31.2914 58.3408 31.8131 58.4381 32.3172C58.5353 32.8214 58.7797 33.2852 59.1402 33.6498C59.5007 34.0144 59.961 34.2634 60.4628 34.3651C60.9646 34.4669 61.4852 34.4168 61.9586 34.2213C62.432 34.0258 62.8369 33.6937 63.1217 33.267C63.4066 32.8404 63.5587 32.3385 63.5587 31.825C63.5587 31.1414 63.2895 30.4855 62.8096 30.0001C62.3297 29.5147 61.6779 29.2391 60.9964 29.2334Z" fill="#171923"/>
<path d="M75.5997 29.2334C75.0886 29.2334 74.589 29.3854 74.1641 29.6701C73.7392 29.9549 73.408 30.3597 73.2124 30.8332C73.0168 31.3068 72.9657 31.8279 73.0654 32.3306C73.1651 32.8333 73.4112 33.2951 73.7726 33.6576C74.1339 34.02 74.5943 34.2668 75.0955 34.3668C75.5968 34.4668 76.1162 34.4155 76.5884 34.2193C77.0605 34.0232 77.4641 33.691 77.7481 33.2648C78.032 32.8386 78.1835 32.3376 78.1835 31.825C78.1835 31.1377 77.9112 30.4785 77.4266 29.9925C76.9421 29.5064 76.285 29.2334 75.5997 29.2334Z" fill="#171923"/>
<path d="M90.2027 29.2334C89.6908 29.2291 89.1891 29.3775 88.7614 29.6596C88.3336 29.9418 87.9991 30.345 87.8002 30.8182C87.6013 31.2914 87.5471 31.8131 87.6444 32.3172C87.7416 32.8214 87.986 33.2852 88.3465 33.6498C88.707 34.0144 89.1673 34.2634 89.6691 34.3651C90.1709 34.4669 90.6915 34.4168 91.1649 34.2213C91.6383 34.0258 92.0432 33.6937 92.3281 33.267C92.6129 32.8404 92.765 32.3385 92.765 31.825C92.765 31.1414 92.4957 30.4855 92.0158 30.0001C91.5359 29.5147 90.8843 29.2391 90.2027 29.2334Z" fill="#171923"/>
<path d="M2.5839 43.8803C2.07286 43.8803 1.57327 44.0323 1.14835 44.3171C0.723439 44.6019 0.392213 45.0066 0.196646 45.4801C0.00107936 45.9537 -0.0500356 46.4748 0.0496634 46.9775C0.149362 47.4803 0.39546 47.942 0.75682 48.3045C1.11818 48.6669 1.57855 48.9137 2.07977 49.0137C2.58099 49.1137 3.10059 49.0624 3.57273 48.8663C4.04486 48.6701 4.44837 48.3379 4.73229 47.9117C5.01621 47.4855 5.16777 46.9845 5.16777 46.4719C5.16777 45.7846 4.89556 45.1254 4.41099 44.6394C3.92642 44.1534 3.26919 43.8803 2.5839 43.8803Z" fill="#171923"/>
<path d="M17.1956 43.8803C16.6846 43.8803 16.185 44.0323 15.7601 44.3171C15.3351 44.6019 15.004 45.0066 14.8085 45.4801C14.6129 45.9537 14.5617 46.4748 14.6614 46.9775C14.7611 47.4803 15.0072 47.942 15.3685 48.3045C15.7299 48.6669 16.1903 48.9137 16.6915 49.0137C17.1927 49.1137 17.7123 49.0624 18.1844 48.8663C18.6566 48.6701 19.0601 48.3379 19.344 47.9117C19.6279 47.4855 19.7795 46.9845 19.7795 46.4719C19.7795 45.7846 19.5073 45.1254 19.0227 44.6394C18.5381 44.1534 17.8809 43.8803 17.1956 43.8803Z" fill="#171923"/>
<path d="M31.7901 43.8803C31.2791 43.8803 30.7796 44.0323 30.3547 44.3171C29.9298 44.6019 29.5985 45.0066 29.403 45.4801C29.2074 45.9537 29.1563 46.4748 29.256 46.9775C29.3557 47.4803 29.6018 47.942 29.9631 48.3045C30.3245 48.6669 30.7849 48.9137 31.2861 49.0137C31.7873 49.1137 32.3068 49.0624 32.7789 48.8663C33.2511 48.6701 33.6547 48.3379 33.9386 47.9117C34.2225 47.4855 34.374 46.9845 34.374 46.4719C34.374 45.7846 34.1018 45.1254 33.6172 44.6394C33.1326 44.1534 32.4754 43.8803 31.7901 43.8803Z" fill="#171923"/>
<path d="M46.3933 43.8803C45.8813 43.8761 45.3797 44.0244 44.9519 44.3065C44.5242 44.5887 44.1896 44.9919 43.9908 45.4651C43.7919 45.9383 43.7377 46.46 43.8349 46.9642C43.9322 47.4683 44.1766 47.9321 44.5371 48.2967C44.8975 48.6613 45.3579 48.9103 45.8597 49.012C46.3615 49.1138 46.8821 49.0638 47.3555 48.8683C47.8289 48.6728 48.2337 48.3406 48.5186 47.914C48.8035 47.4873 48.9556 46.9854 48.9556 46.4719C48.9556 45.7883 48.6863 45.1324 48.2064 44.647C47.7264 44.1616 47.0748 43.886 46.3933 43.8803Z" fill="#171923"/>
<path d="M60.9964 43.8803C60.4844 43.8761 59.9828 44.0244 59.555 44.3065C59.1273 44.5887 58.7928 44.9919 58.5939 45.4651C58.395 45.9383 58.3408 46.46 58.4381 46.9642C58.5353 47.4683 58.7797 47.9321 59.1402 48.2967C59.5007 48.6613 59.961 48.9103 60.4628 49.012C60.9646 49.1138 61.4852 49.0638 61.9586 48.8683C62.432 48.6728 62.8369 48.3406 63.1217 47.914C63.4066 47.4873 63.5587 46.9854 63.5587 46.4719C63.5587 45.7883 63.2895 45.1324 62.8096 44.647C62.3297 44.1616 61.6779 43.886 60.9964 43.8803Z" fill="#171923"/>
<path d="M75.5997 43.8803C75.0886 43.8803 74.589 44.0323 74.1641 44.3171C73.7392 44.6019 73.408 45.0066 73.2124 45.4801C73.0168 45.9537 72.9657 46.4748 73.0654 46.9775C73.1651 47.4803 73.4112 47.942 73.7726 48.3045C74.1339 48.6669 74.5943 48.9137 75.0955 49.0137C75.5968 49.1137 76.1162 49.0624 76.5884 48.8663C77.0605 48.6701 77.4641 48.3379 77.7481 47.9117C78.032 47.4855 78.1835 46.9845 78.1835 46.4719C78.1835 45.7846 77.9112 45.1254 77.4266 44.6394C76.9421 44.1534 76.285 43.8803 75.5997 43.8803Z" fill="#171923"/>
<path d="M90.2027 43.8803C89.6908 43.8761 89.1891 44.0244 88.7614 44.3065C88.3336 44.5887 87.9991 44.9919 87.8002 45.4651C87.6013 45.9383 87.5471 46.46 87.6444 46.9642C87.7416 47.4683 87.986 47.9321 88.3465 48.2967C88.707 48.6613 89.1673 48.9103 89.6691 49.012C90.1709 49.1138 90.6915 49.0638 91.1649 48.8683C91.6383 48.6728 92.0432 48.3406 92.3281 47.914C92.6129 47.4873 92.765 46.9854 92.765 46.4719C92.765 45.7883 92.4957 45.1324 92.0158 44.647C91.5359 44.1616 90.8843 43.886 90.2027 43.8803Z" fill="#171923"/>
<path d="M2.5839 58.5229C2.07286 58.5229 1.57327 58.6749 1.14835 58.9597C0.723439 59.2444 0.392213 59.6492 0.196646 60.1228C0.00107936 60.5963 -0.0500356 61.1174 0.0496634 61.6201C0.149362 62.1228 0.39546 62.5846 0.75682 62.9471C1.11818 63.3095 1.57855 63.5563 2.07977 63.6563C2.58099 63.7563 3.10059 63.705 3.57273 63.5089C4.04486 63.3127 4.44837 62.9805 4.73229 62.5544C5.01621 62.1282 5.16777 61.6271 5.16777 61.1145C5.16777 60.4272 4.89556 59.768 4.41099 59.282C3.92642 58.796 3.26919 58.5229 2.5839 58.5229Z" fill="#171923"/>
<path d="M17.1956 58.5229C16.6846 58.5229 16.185 58.6749 15.7601 58.9597C15.3351 59.2444 15.004 59.6492 14.8085 60.1228C14.6129 60.5963 14.5617 61.1174 14.6614 61.6201C14.7611 62.1228 15.0072 62.5846 15.3685 62.9471C15.7299 63.3095 16.1903 63.5563 16.6915 63.6563C17.1927 63.7563 17.7123 63.705 18.1844 63.5089C18.6566 63.3127 19.0601 62.9805 19.344 62.5544C19.6279 62.1282 19.7795 61.6271 19.7795 61.1145C19.7795 60.4272 19.5073 59.768 19.0227 59.282C18.5381 58.796 17.8809 58.5229 17.1956 58.5229Z" fill="#171923"/>
<path d="M31.7901 58.5229C31.2791 58.5229 30.7796 58.6749 30.3547 58.9597C29.9298 59.2444 29.5985 59.6492 29.403 60.1228C29.2074 60.5963 29.1563 61.1174 29.256 61.6201C29.3557 62.1228 29.6018 62.5846 29.9631 62.9471C30.3245 63.3095 30.7849 63.5563 31.2861 63.6563C31.7873 63.7563 32.3068 63.705 32.7789 63.5089C33.2511 63.3127 33.6547 62.9805 33.9386 62.5544C34.2225 62.1282 34.374 61.6271 34.374 61.1145C34.374 60.4272 34.1018 59.768 33.6172 59.282C33.1326 58.796 32.4754 58.5229 31.7901 58.5229Z" fill="#171923"/>
<path d="M46.3933 58.5229C45.8813 58.5187 45.3797 58.667 44.9519 58.9492C44.5242 59.2313 44.1896 59.6346 43.9908 60.1077C43.7919 60.5809 43.7377 61.1026 43.8349 61.6068C43.9322 62.1109 44.1766 62.5747 44.5371 62.9393C44.8975 63.3039 45.3579 63.5529 45.8597 63.6547C46.3615 63.7564 46.8821 63.7064 47.3555 63.5109C47.8289 63.3154 48.2337 62.9832 48.5186 62.5566C48.8035 62.1299 48.9556 61.628 48.9556 61.1145C48.9556 60.4309 48.6863 59.775 48.2064 59.2896C47.7264 58.8042 47.0748 58.5286 46.3933 58.5229Z" fill="#171923"/>
<path d="M60.9964 58.5229C60.4844 58.5187 59.9828 58.667 59.555 58.9492C59.1273 59.2313 58.7928 59.6346 58.5939 60.1077C58.395 60.5809 58.3408 61.1026 58.4381 61.6068C58.5353 62.1109 58.7797 62.5747 59.1402 62.9393C59.5007 63.3039 59.961 63.5529 60.4628 63.6547C60.9646 63.7564 61.4852 63.7064 61.9586 63.5109C62.432 63.3154 62.8369 62.9832 63.1217 62.5566C63.4066 62.1299 63.5587 61.628 63.5587 61.1145C63.5587 60.4309 63.2895 59.775 62.8096 59.2896C62.3297 58.8042 61.6779 58.5286 60.9964 58.5229Z" fill="#171923"/>
<path d="M75.5997 58.5229C75.0886 58.5229 74.589 58.6749 74.1641 58.9597C73.7392 59.2444 73.408 59.6492 73.2124 60.1228C73.0168 60.5963 72.9657 61.1174 73.0654 61.6201C73.1651 62.1228 73.4112 62.5846 73.7726 62.9471C74.1339 63.3095 74.5943 63.5563 75.0955 63.6563C75.5968 63.7563 76.1162 63.705 76.5884 63.5089C77.0605 63.3127 77.4641 62.9805 77.7481 62.5544C78.032 62.1282 78.1835 61.6271 78.1835 61.1145C78.1835 60.4272 77.9112 59.768 77.4266 59.282C76.9421 58.796 76.285 58.5229 75.5997 58.5229Z" fill="#171923"/>
<path d="M90.2027 58.5229C89.6908 58.5187 89.1891 58.667 88.7614 58.9492C88.3336 59.2313 87.9991 59.6346 87.8002 60.1077C87.6013 60.5809 87.5471 61.1026 87.6444 61.6068C87.7416 62.1109 87.986 62.5747 88.3465 62.9393C88.707 63.3039 89.1673 63.5529 89.6691 63.6547C90.1709 63.7564 90.6915 63.7064 91.1649 63.5109C91.6383 63.3154 92.0432 62.9832 92.3281 62.5566C92.6129 62.1299 92.765 61.628 92.765 61.1145C92.765 60.4309 92.4957 59.775 92.0158 59.2896C91.5359 58.8042 90.8843 58.5286 90.2027 58.5229Z" fill="#171923"/>
<path d="M2.5839 73.0748C2.07286 73.0748 1.57327 73.2268 1.14835 73.5116C0.723439 73.7963 0.392213 74.2011 0.196646 74.6747C0.00107936 75.1482 -0.0500356 75.6693 0.0496634 76.172C0.149362 76.6748 0.39546 77.1366 0.75682 77.499C1.11818 77.8614 1.57855 78.1082 2.07977 78.2082C2.58099 78.3082 3.10059 78.2569 3.57273 78.0608C4.04486 77.8646 4.44837 77.5324 4.73229 77.1063C5.01621 76.6801 5.16777 76.179 5.16777 75.6664C5.16777 74.9791 4.89556 74.3199 4.41099 73.8339C3.92642 73.3479 3.26919 73.0748 2.5839 73.0748Z" fill="#171923"/>
<path d="M17.1956 73.0748C16.6846 73.0748 16.185 73.2268 15.7601 73.5116C15.3351 73.7963 15.004 74.2011 14.8085 74.6747C14.6129 75.1482 14.5617 75.6693 14.6614 76.172C14.7611 76.6748 15.0072 77.1366 15.3685 77.499C15.7299 77.8614 16.1903 78.1082 16.6915 78.2082C17.1927 78.3082 17.7123 78.2569 18.1844 78.0608C18.6566 77.8646 19.0601 77.5324 19.344 77.1063C19.6279 76.6801 19.7795 76.179 19.7795 75.6664C19.7795 74.9791 19.5073 74.3199 19.0227 73.8339C18.5381 73.3479 17.8809 73.0748 17.1956 73.0748Z" fill="#171923"/>
<path d="M31.7901 73.0748C31.2791 73.0748 30.7796 73.2268 30.3547 73.5116C29.9298 73.7963 29.5985 74.2011 29.403 74.6747C29.2074 75.1482 29.1563 75.6693 29.256 76.172C29.3557 76.6748 29.6018 77.1366 29.9631 77.499C30.3245 77.8614 30.7849 78.1082 31.2861 78.2082C31.7873 78.3082 32.3068 78.2569 32.7789 78.0608C33.2511 77.8646 33.6547 77.5324 33.9386 77.1063C34.2225 76.6801 34.374 76.179 34.374 75.6664C34.374 74.9791 34.1018 74.3199 33.6172 73.8339C33.1326 73.3479 32.4754 73.0748 31.7901 73.0748Z" fill="#171923"/>
<path d="M46.3933 73.0748C45.8813 73.0705 45.3797 73.2189 44.9519 73.5011C44.5242 73.7832 44.1896 74.1865 43.9908 74.6596C43.7919 75.1328 43.7377 75.6545 43.8349 76.1587C43.9322 76.6628 44.1766 77.1266 44.5371 77.4912C44.8975 77.8558 45.3579 78.1048 45.8597 78.2066C46.3615 78.3083 46.8821 78.2583 47.3555 78.0628C47.8289 77.8673 48.2337 77.5351 48.5186 77.1085C48.8035 76.6818 48.9556 76.1799 48.9556 75.6664C48.9556 74.9828 48.6863 74.3269 48.2064 73.8415C47.7264 73.3561 47.0748 73.0805 46.3933 73.0748Z" fill="#171923"/>
<path d="M60.9964 73.0748C60.4844 73.0705 59.9828 73.2189 59.555 73.5011C59.1273 73.7832 58.7928 74.1865 58.5939 74.6596C58.395 75.1328 58.3408 75.6545 58.4381 76.1587C58.5353 76.6628 58.7797 77.1266 59.1402 77.4912C59.5007 77.8558 59.961 78.1048 60.4628 78.2066C60.9646 78.3083 61.4852 78.2583 61.9586 78.0628C62.432 77.8673 62.8369 77.5351 63.1217 77.1085C63.4066 76.6818 63.5587 76.1799 63.5587 75.6664C63.5587 74.9828 63.2895 74.3269 62.8096 73.8415C62.3297 73.3561 61.6779 73.0805 60.9964 73.0748Z" fill="#171923"/>
<path d="M75.5997 73.0748C75.0886 73.0748 74.589 73.2268 74.1641 73.5116C73.7392 73.7963 73.408 74.2011 73.2124 74.6747C73.0168 75.1482 72.9657 75.6693 73.0654 76.172C73.1651 76.6748 73.4112 77.1366 73.7726 77.499C74.1339 77.8614 74.5943 78.1082 75.0955 78.2082C75.5968 78.3082 76.1162 78.2569 76.5884 78.0608C77.0605 77.8646 77.4641 77.5324 77.7481 77.1063C78.032 76.6801 78.1835 76.179 78.1835 75.6664C78.1835 74.9791 77.9112 74.3199 77.4266 73.8339C76.9421 73.3479 76.285 73.0748 75.5997 73.0748Z" fill="#171923"/>
<path d="M90.2027 73.0748C89.6908 73.0705 89.1891 73.2189 88.7614 73.5011C88.3336 73.7832 87.9991 74.1865 87.8002 74.6596C87.6013 75.1328 87.5471 75.6545 87.6444 76.1587C87.7416 76.6628 87.986 77.1266 88.3465 77.4912C88.707 77.8558 89.1673 78.1048 89.6691 78.2066C90.1709 78.3083 90.6915 78.2583 91.1649 78.0628C91.6383 77.8673 92.0432 77.5351 92.3281 77.1085C92.6129 76.6818 92.765 76.1799 92.765 75.6664C92.765 74.9828 92.4957 74.3269 92.0158 73.8415C91.5359 73.3561 90.8843 73.0805 90.2027 73.0748Z" fill="#171923"/>
<path d="M2.5839 87.8168C2.07286 87.8168 1.57327 87.9688 1.14835 88.2535C0.723439 88.5383 0.392213 88.9431 0.196646 89.4166C0.00107936 89.8902 -0.0500356 90.4113 0.0496634 90.914C0.149362 91.4167 0.39546 91.8785 0.75682 92.2409C1.11818 92.6034 1.57855 92.8502 2.07977 92.9502C2.58099 93.0502 3.10059 92.9989 3.57273 92.8027C4.04486 92.6066 4.44837 92.2744 4.73229 91.8482C5.01621 91.422 5.16777 90.921 5.16777 90.4084C5.16777 89.721 4.89556 89.0619 4.41099 88.5759C3.92642 88.0898 3.26919 87.8168 2.5839 87.8168Z" fill="#171923"/>
<path d="M17.1956 87.8168C16.6846 87.8168 16.185 87.9688 15.7601 88.2535C15.3351 88.5383 15.004 88.9431 14.8085 89.4166C14.6129 89.8902 14.5617 90.4113 14.6614 90.914C14.7611 91.4167 15.0072 91.8785 15.3685 92.2409C15.7299 92.6034 16.1903 92.8502 16.6915 92.9502C17.1927 93.0502 17.7123 92.9989 18.1844 92.8027C18.6566 92.6066 19.0601 92.2744 19.344 91.8482C19.6279 91.422 19.7795 90.921 19.7795 90.4084C19.7795 89.721 19.5073 89.0619 19.0227 88.5759C18.5381 88.0898 17.8809 87.8168 17.1956 87.8168Z" fill="#171923"/>
<path d="M31.7901 87.8168C31.2791 87.8168 30.7796 87.9688 30.3547 88.2535C29.9298 88.5383 29.5985 88.9431 29.403 89.4166C29.2074 89.8902 29.1563 90.4113 29.256 90.914C29.3557 91.4167 29.6018 91.8785 29.9631 92.2409C30.3245 92.6034 30.7849 92.8502 31.2861 92.9502C31.7873 93.0502 32.3068 92.9989 32.7789 92.8027C33.2511 92.6066 33.6547 92.2744 33.9386 91.8482C34.2225 91.422 34.374 90.921 34.374 90.4084C34.374 89.721 34.1018 89.0619 33.6172 88.5759C33.1326 88.0898 32.4754 87.8168 31.7901 87.8168Z" fill="#171923"/>
<path d="M46.3933 87.8168C45.8813 87.8125 45.3797 87.9609 44.9519 88.243C44.5242 88.5252 44.1896 88.9284 43.9908 89.4016C43.7919 89.8747 43.7377 90.3965 43.8349 90.9006C43.9322 91.4048 44.1766 91.8686 44.5371 92.2332C44.8975 92.5978 45.3579 92.8468 45.8597 92.9485C46.3615 93.0503 46.8821 93.0002 47.3555 92.8047C47.8289 92.6092 48.2337 92.2771 48.5186 91.8504C48.8035 91.4238 48.9556 90.9219 48.9556 90.4084C48.9556 89.7248 48.6863 89.0689 48.2064 88.5835C47.7264 88.0981 47.0748 87.8225 46.3933 87.8168Z" fill="#171923"/>
<path d="M60.9964 87.8168C60.4844 87.8125 59.9828 87.9609 59.555 88.243C59.1273 88.5252 58.7928 88.9284 58.5939 89.4016C58.395 89.8747 58.3408 90.3965 58.4381 90.9006C58.5353 91.4048 58.7797 91.8686 59.1402 92.2332C59.5007 92.5978 59.961 92.8468 60.4628 92.9485C60.9646 93.0503 61.4852 93.0002 61.9586 92.8047C62.432 92.6092 62.8369 92.2771 63.1217 91.8504C63.4066 91.4238 63.5587 90.9219 63.5587 90.4084C63.5587 89.7248 63.2895 89.0689 62.8096 88.5835C62.3297 88.0981 61.6779 87.8225 60.9964 87.8168Z" fill="#171923"/>
<path d="M75.5997 87.8168C75.0886 87.8168 74.589 87.9688 74.1641 88.2535C73.7392 88.5383 73.408 88.9431 73.2124 89.4166C73.0168 89.8902 72.9657 90.4113 73.0654 90.914C73.1651 91.4167 73.4112 91.8785 73.7726 92.2409C74.1339 92.6034 74.5943 92.8502 75.0955 92.9502C75.5968 93.0502 76.1162 92.9989 76.5884 92.8027C77.0605 92.6066 77.4641 92.2744 77.7481 91.8482C78.032 91.422 78.1835 90.921 78.1835 90.4084C78.1835 89.721 77.9112 89.0619 77.4266 88.5759C76.9421 88.0898 76.285 87.8168 75.5997 87.8168Z" fill="#171923"/>
<path d="M90.2027 87.8168C89.6908 87.8125 89.1891 87.9609 88.7614 88.243C88.3336 88.5252 87.9991 88.9284 87.8002 89.4016C87.6013 89.8747 87.5471 90.3965 87.6444 90.9006C87.7416 91.4048 87.986 91.8686 88.3465 92.2332C88.707 92.5978 89.1673 92.8468 89.6691 92.9485C90.1709 93.0503 90.6915 93.0002 91.1649 92.8047C91.6383 92.6092 92.0432 92.2771 92.3281 91.8504C92.6129 91.4238 92.765 90.9219 92.765 90.4084C92.765 89.7248 92.4957 89.0689 92.0158 88.5835C91.5359 88.0981 90.8843 87.8225 90.2027 87.8168Z" fill="#171923"/>
<path d="M104.797 0.0388858C104.286 0.0388858 103.787 0.190876 103.362 0.475646C102.937 0.760416 102.606 1.16516 102.41 1.63871C102.215 2.11227 102.163 2.63337 102.263 3.13609C102.363 3.63882 102.609 4.10059 102.97 4.46303C103.332 4.82548 103.792 5.07231 104.293 5.17231C104.794 5.27231 105.314 5.22099 105.786 5.02483C106.258 4.82868 106.662 4.49649 106.946 4.0703C107.23 3.64411 107.381 3.14307 107.381 2.6305C107.381 1.94316 107.109 1.28396 106.624 0.797936C106.14 0.311915 105.483 0.0388858 104.797 0.0388858Z" fill="#171923"/>
<path d="M119.4 0.0388858C118.889 0.0388858 118.39 0.190876 117.965 0.475646C117.54 0.760416 117.209 1.16516 117.013 1.63871C116.818 2.11227 116.767 2.63337 116.866 3.13609C116.966 3.63882 117.212 4.10059 117.573 4.46303C117.935 4.82548 118.395 5.07231 118.896 5.17231C119.398 5.27231 119.917 5.22099 120.389 5.02483C120.861 4.82868 121.265 4.49649 121.549 4.0703C121.833 3.64411 121.984 3.14307 121.984 2.6305C121.984 1.94316 121.712 1.28396 121.228 0.797936C120.743 0.311915 120.086 0.0388858 119.4 0.0388858Z" fill="#171923"/>
<path d="M134.004 0.0388858C133.493 0.0388858 132.993 0.190876 132.568 0.475646C132.143 0.760416 131.812 1.16516 131.616 1.63871C131.421 2.11227 131.37 2.63337 131.469 3.13609C131.569 3.63882 131.815 4.10059 132.176 4.46303C132.538 4.82548 132.998 5.07231 133.5 5.17231C134.001 5.27231 134.52 5.22099 134.992 5.02483C135.465 4.82868 135.868 4.49649 136.152 4.0703C136.436 3.64411 136.587 3.14307 136.587 2.6305C136.587 1.94316 136.315 1.28396 135.831 0.797936C135.346 0.311915 134.689 0.0388858 134.004 0.0388858Z" fill="#171923"/>
<path d="M148.607 0.0388967C148.095 0.0346177 147.593 0.182955 147.165 0.465111C146.738 0.747267 146.403 1.15051 146.204 1.62367C146.005 2.09683 145.951 2.6186 146.048 3.12274C146.146 3.62687 146.39 4.09066 146.751 4.45527C147.111 4.81987 147.571 5.06885 148.073 5.17061C148.575 5.27237 149.096 5.22232 149.569 5.02682C150.042 4.83132 150.447 4.49917 150.732 4.07253C151.017 3.64588 151.169 3.144 151.169 2.63051C151.169 1.9469 150.9 1.29095 150.42 0.80554C149.94 0.320134 149.288 0.0445935 148.607 0.0388967Z" fill="#171923"/>
<path d="M163.21 0.0388858C162.699 0.0388858 162.199 0.190876 161.774 0.475646C161.349 0.760416 161.018 1.16516 160.823 1.63871C160.627 2.11227 160.576 2.63337 160.676 3.13609C160.775 3.63882 161.021 4.10059 161.383 4.46303C161.744 4.82548 162.205 5.07231 162.706 5.17231C163.207 5.27231 163.727 5.22099 164.199 5.02483C164.671 4.82868 165.074 4.49649 165.358 4.0703C165.642 3.64411 165.794 3.14307 165.794 2.6305C165.794 1.94316 165.522 1.28396 165.037 0.797936C164.552 0.311915 163.895 0.0388858 163.21 0.0388858Z" fill="#171923"/>
<path d="M177.826 0.0388858C177.315 0.0388858 176.815 0.190876 176.39 0.475646C175.965 0.760416 175.634 1.16516 175.439 1.63871C175.243 2.11227 175.192 2.63337 175.292 3.13609C175.391 3.63882 175.637 4.10059 175.999 4.46303C176.36 4.82548 176.821 5.07231 177.322 5.17231C177.823 5.27231 178.343 5.22099 178.815 5.02483C179.287 4.82868 179.69 4.49649 179.974 4.0703C180.258 3.64411 180.41 3.14307 180.41 2.6305C180.41 1.94316 180.138 1.28396 179.653 0.797936C179.168 0.311915 178.511 0.0388858 177.826 0.0388858Z" fill="#171923"/>
<path d="M192.416 5.18322C192.927 5.18322 193.427 5.03123 193.852 4.74646C194.277 4.46169 194.608 4.05692 194.803 3.58337C194.999 3.10981 195.05 2.58874 194.95 2.08602C194.851 1.58329 194.605 1.12152 194.243 0.759075C193.882 0.396632 193.421 0.149797 192.92 0.0497987C192.419 -0.0501992 191.9 0.00112169 191.427 0.197275C190.955 0.393428 190.552 0.725594 190.268 1.15178C189.984 1.57797 189.832 2.07904 189.832 2.59161C189.832 3.27895 190.105 3.93812 190.589 4.42415C191.074 4.91017 191.731 5.18322 192.416 5.18322Z" fill="#171923"/>
<path d="M104.797 14.6815C104.286 14.6815 103.787 14.8335 103.362 15.1182C102.937 15.403 102.606 15.8078 102.41 16.2813C102.215 16.7549 102.163 17.276 102.263 17.7787C102.363 18.2814 102.609 18.7432 102.97 19.1057C103.332 19.4681 103.792 19.7149 104.293 19.8149C104.794 19.9149 105.314 19.8636 105.786 19.6674C106.258 19.4713 106.662 19.1391 106.946 18.7129C107.23 18.2867 107.381 17.7857 107.381 17.2731C107.381 16.5858 107.109 15.9266 106.624 15.4406C106.14 14.9545 105.483 14.6815 104.797 14.6815Z" fill="#171923"/>
<path d="M119.4 14.6815C118.889 14.6815 118.39 14.8335 117.965 15.1182C117.54 15.403 117.209 15.8078 117.013 16.2813C116.818 16.7549 116.767 17.276 116.866 17.7787C116.966 18.2814 117.212 18.7432 117.573 19.1057C117.935 19.4681 118.395 19.7149 118.896 19.8149C119.398 19.9149 119.917 19.8636 120.389 19.6674C120.861 19.4713 121.265 19.1391 121.549 18.7129C121.833 18.2867 121.984 17.7857 121.984 17.2731C121.984 16.5858 121.712 15.9266 121.228 15.4406C120.743 14.9545 120.086 14.6815 119.4 14.6815Z" fill="#171923"/>
<path d="M134.004 14.6815C133.493 14.6815 132.993 14.8335 132.568 15.1182C132.143 15.403 131.812 15.8078 131.616 16.2813C131.421 16.7549 131.37 17.276 131.469 17.7787C131.569 18.2814 131.815 18.7432 132.176 19.1057C132.538 19.4681 132.998 19.7149 133.5 19.8149C134.001 19.9149 134.52 19.8636 134.992 19.6674C135.465 19.4713 135.868 19.1391 136.152 18.7129C136.436 18.2867 136.587 17.7857 136.587 17.2731C136.587 16.5858 136.315 15.9266 135.831 15.4406C135.346 14.9545 134.689 14.6815 134.004 14.6815Z" fill="#171923"/>
<path d="M148.607 14.6815C148.095 14.6772 147.593 14.8256 147.165 15.1077C146.738 15.3899 146.403 15.7931 146.204 16.2663C146.005 16.7395 145.951 17.2612 146.048 17.7653C146.146 18.2695 146.39 18.7333 146.751 19.0979C147.111 19.4625 147.571 19.7115 148.073 19.8132C148.575 19.915 149.096 19.8649 149.569 19.6694C150.042 19.4739 150.447 19.1418 150.732 18.7151C151.017 18.2885 151.169 17.7866 151.169 17.2731C151.169 16.5895 150.9 15.9336 150.42 15.4482C149.94 14.9628 149.288 14.6872 148.607 14.6815Z" fill="#171923"/>
<path d="M163.21 14.6815C162.699 14.6815 162.199 14.8335 161.774 15.1182C161.349 15.403 161.018 15.8078 160.823 16.2813C160.627 16.7549 160.576 17.276 160.676 17.7787C160.775 18.2814 161.021 18.7432 161.383 19.1057C161.744 19.4681 162.205 19.7149 162.706 19.8149C163.207 19.9149 163.727 19.8636 164.199 19.6674C164.671 19.4713 165.074 19.1391 165.358 18.7129C165.642 18.2867 165.794 17.7857 165.794 17.2731C165.794 16.5858 165.522 15.9266 165.037 15.4406C164.552 14.9545 163.895 14.6815 163.21 14.6815Z" fill="#171923"/>
<path d="M177.826 14.6815C177.315 14.6815 176.815 14.8335 176.39 15.1182C175.965 15.403 175.634 15.8078 175.439 16.2813C175.243 16.7549 175.192 17.276 175.292 17.7787C175.391 18.2814 175.637 18.7432 175.999 19.1057C176.36 19.4681 176.821 19.7149 177.322 19.8149C177.823 19.9149 178.343 19.8636 178.815 19.6674C179.287 19.4713 179.69 19.1391 179.974 18.7129C180.258 18.2867 180.41 17.7857 180.41 17.2731C180.41 16.5858 180.138 15.9266 179.653 15.4406C179.168 14.9545 178.511 14.6815 177.826 14.6815Z" fill="#171923"/>
<path d="M192.416 14.6815C191.904 14.6772 191.403 14.8256 190.975 15.1077C190.547 15.3899 190.213 15.7931 190.014 16.2663C189.815 16.7395 189.761 17.2612 189.858 17.7653C189.955 18.2695 190.199 18.7333 190.56 19.0979C190.92 19.4625 191.381 19.7115 191.883 19.8132C192.384 19.915 192.905 19.8649 193.378 19.6694C193.852 19.4739 194.257 19.1418 194.542 18.7151C194.826 18.2885 194.979 17.7866 194.979 17.2731C194.979 16.5895 194.709 15.9336 194.229 15.4482C193.749 14.9628 193.098 14.6872 192.416 14.6815Z" fill="#171923"/>
<path d="M104.797 29.2334C104.286 29.2334 103.787 29.3854 103.362 29.6701C102.937 29.9549 102.606 30.3597 102.41 30.8332C102.215 31.3068 102.163 31.8279 102.263 32.3306C102.363 32.8333 102.609 33.2951 102.97 33.6576C103.332 34.02 103.792 34.2668 104.293 34.3668C104.794 34.4668 105.314 34.4155 105.786 34.2193C106.258 34.0232 106.662 33.691 106.946 33.2648C107.23 32.8386 107.381 32.3376 107.381 31.825C107.381 31.1377 107.109 30.4785 106.624 29.9925C106.14 29.5064 105.483 29.2334 104.797 29.2334Z" fill="#171923"/>
<path d="M119.4 29.2334C118.889 29.2334 118.39 29.3854 117.965 29.6701C117.54 29.9549 117.209 30.3597 117.013 30.8332C116.818 31.3068 116.767 31.8279 116.866 32.3306C116.966 32.8333 117.212 33.2951 117.573 33.6576C117.935 34.02 118.395 34.2668 118.896 34.3668C119.398 34.4668 119.917 34.4155 120.389 34.2193C120.861 34.0232 121.265 33.691 121.549 33.2648C121.833 32.8386 121.984 32.3376 121.984 31.825C121.984 31.1377 121.712 30.4785 121.228 29.9925C120.743 29.5064 120.086 29.2334 119.4 29.2334Z" fill="#171923"/>
<path d="M134.004 29.2334C133.493 29.2334 132.993 29.3854 132.568 29.6701C132.143 29.9549 131.812 30.3597 131.616 30.8332C131.421 31.3068 131.37 31.8279 131.469 32.3306C131.569 32.8333 131.815 33.2951 132.176 33.6576C132.538 34.02 132.998 34.2668 133.5 34.3668C134.001 34.4668 134.52 34.4155 134.992 34.2193C135.465 34.0232 135.868 33.691 136.152 33.2648C136.436 32.8386 136.587 32.3376 136.587 31.825C136.587 31.1377 136.315 30.4785 135.831 29.9925C135.346 29.5064 134.689 29.2334 134.004 29.2334Z" fill="#171923"/>
<path d="M148.607 29.2334C148.095 29.2291 147.593 29.3775 147.165 29.6596C146.738 29.9418 146.403 30.345 146.204 30.8182C146.005 31.2914 145.951 31.8131 146.048 32.3172C146.146 32.8214 146.39 33.2852 146.751 33.6498C147.111 34.0144 147.571 34.2634 148.073 34.3651C148.575 34.4669 149.096 34.4168 149.569 34.2213C150.042 34.0258 150.447 33.6937 150.732 33.267C151.017 32.8404 151.169 32.3385 151.169 31.825C151.169 31.1414 150.9 30.4855 150.42 30.0001C149.94 29.5147 149.288 29.2391 148.607 29.2334Z" fill="#171923"/>
<path d="M163.21 29.2334C162.699 29.2334 162.199 29.3854 161.774 29.6701C161.349 29.9549 161.018 30.3597 160.823 30.8332C160.627 31.3068 160.576 31.8279 160.676 32.3306C160.775 32.8333 161.021 33.2951 161.383 33.6576C161.744 34.02 162.205 34.2668 162.706 34.3668C163.207 34.4668 163.727 34.4155 164.199 34.2193C164.671 34.0232 165.074 33.691 165.358 33.2648C165.642 32.8386 165.794 32.3376 165.794 31.825C165.794 31.1377 165.522 30.4785 165.037 29.9925C164.552 29.5064 163.895 29.2334 163.21 29.2334Z" fill="#171923"/>
<path d="M177.826 29.2334C177.315 29.2334 176.815 29.3854 176.39 29.6701C175.965 29.9549 175.634 30.3597 175.439 30.8332C175.243 31.3068 175.192 31.8279 175.292 32.3306C175.391 32.8333 175.637 33.2951 175.999 33.6576C176.36 34.02 176.821 34.2668 177.322 34.3668C177.823 34.4668 178.343 34.4155 178.815 34.2193C179.287 34.0232 179.69 33.691 179.974 33.2648C180.258 32.8386 180.41 32.3376 180.41 31.825C180.41 31.1377 180.138 30.4785 179.653 29.9925C179.168 29.5064 178.511 29.2334 177.826 29.2334Z" fill="#171923"/>
<path d="M192.416 29.2334C191.904 29.2291 191.403 29.3775 190.975 29.6596C190.547 29.9418 190.213 30.345 190.014 30.8182C189.815 31.2914 189.761 31.8131 189.858 32.3172C189.955 32.8214 190.199 33.2852 190.56 33.6498C190.92 34.0144 191.381 34.2634 191.883 34.3651C192.384 34.4669 192.905 34.4168 193.378 34.2213C193.852 34.0258 194.257 33.6937 194.542 33.267C194.826 32.8404 194.979 32.3385 194.979 31.825C194.979 31.1414 194.709 30.4855 194.229 30.0001C193.749 29.5147 193.098 29.2391 192.416 29.2334Z" fill="#171923"/>
<path d="M104.797 43.8803C104.286 43.8803 103.787 44.0323 103.362 44.3171C102.937 44.6019 102.606 45.0066 102.41 45.4801C102.215 45.9537 102.163 46.4748 102.263 46.9775C102.363 47.4803 102.609 47.942 102.97 48.3045C103.332 48.6669 103.792 48.9137 104.293 49.0137C104.794 49.1137 105.314 49.0624 105.786 48.8663C106.258 48.6701 106.662 48.3379 106.946 47.9117C107.23 47.4855 107.381 46.9845 107.381 46.4719C107.381 45.7846 107.109 45.1254 106.624 44.6394C106.14 44.1534 105.483 43.8803 104.797 43.8803Z" fill="#171923"/>
<path d="M119.4 43.8803C118.889 43.8803 118.39 44.0323 117.965 44.3171C117.54 44.6019 117.209 45.0066 117.013 45.4801C116.818 45.9537 116.767 46.4748 116.866 46.9775C116.966 47.4803 117.212 47.942 117.573 48.3045C117.935 48.6669 118.395 48.9137 118.896 49.0137C119.398 49.1137 119.917 49.0624 120.389 48.8663C120.861 48.6701 121.265 48.3379 121.549 47.9117C121.833 47.4855 121.984 46.9845 121.984 46.4719C121.984 45.7846 121.712 45.1254 121.228 44.6394C120.743 44.1534 120.086 43.8803 119.4 43.8803Z" fill="#171923"/>
<path d="M134.004 43.8803C133.493 43.8803 132.993 44.0323 132.568 44.3171C132.143 44.6019 131.812 45.0066 131.616 45.4801C131.421 45.9537 131.37 46.4748 131.469 46.9775C131.569 47.4803 131.815 47.942 132.176 48.3045C132.538 48.6669 132.998 48.9137 133.5 49.0137C134.001 49.1137 134.52 49.0624 134.992 48.8663C135.465 48.6701 135.868 48.3379 136.152 47.9117C136.436 47.4855 136.587 46.9845 136.587 46.4719C136.587 45.7846 136.315 45.1254 135.831 44.6394C135.346 44.1534 134.689 43.8803 134.004 43.8803Z" fill="#171923"/>
<path d="M148.607 43.8803C148.095 43.8761 147.593 44.0244 147.165 44.3065C146.738 44.5887 146.403 44.9919 146.204 45.4651C146.005 45.9383 145.951 46.46 146.048 46.9642C146.146 47.4683 146.39 47.9321 146.751 48.2967C147.111 48.6613 147.571 48.9103 148.073 49.012C148.575 49.1138 149.096 49.0638 149.569 48.8683C150.042 48.6728 150.447 48.3406 150.732 47.914C151.017 47.4873 151.169 46.9854 151.169 46.4719C151.169 45.7883 150.9 45.1324 150.42 44.647C149.94 44.1616 149.288 43.886 148.607 43.8803Z" fill="#171923"/>
<path d="M163.21 43.8803C162.699 43.8803 162.199 44.0323 161.774 44.3171C161.349 44.6019 161.018 45.0066 160.823 45.4801C160.627 45.9537 160.576 46.4748 160.676 46.9775C160.775 47.4803 161.021 47.942 161.383 48.3045C161.744 48.6669 162.205 48.9137 162.706 49.0137C163.207 49.1137 163.727 49.0624 164.199 48.8663C164.671 48.6701 165.074 48.3379 165.358 47.9117C165.642 47.4855 165.794 46.9845 165.794 46.4719C165.794 45.7846 165.522 45.1254 165.037 44.6394C164.552 44.1534 163.895 43.8803 163.21 43.8803Z" fill="#171923"/>
<path d="M177.826 43.8803C177.315 43.8803 176.815 44.0323 176.39 44.3171C175.965 44.6019 175.634 45.0066 175.439 45.4801C175.243 45.9537 175.192 46.4748 175.292 46.9775C175.391 47.4803 175.637 47.942 175.999 48.3045C176.36 48.6669 176.821 48.9137 177.322 49.0137C177.823 49.1137 178.343 49.0624 178.815 48.8663C179.287 48.6701 179.69 48.3379 179.974 47.9117C180.258 47.4855 180.41 46.9845 180.41 46.4719C180.41 45.7846 180.138 45.1254 179.653 44.6394C179.168 44.1534 178.511 43.8803 177.826 43.8803Z" fill="#171923"/>
<path d="M192.416 43.8803C191.904 43.8761 191.403 44.0244 190.975 44.3065C190.547 44.5887 190.213 44.9919 190.014 45.4651C189.815 45.9383 189.761 46.46 189.858 46.9642C189.955 47.4683 190.199 47.9321 190.56 48.2967C190.92 48.6613 191.381 48.9103 191.883 49.012C192.384 49.1138 192.905 49.0638 193.378 48.8683C193.852 48.6728 194.257 48.3406 194.542 47.914C194.826 47.4873 194.979 46.9854 194.979 46.4719C194.979 45.7883 194.709 45.1324 194.229 44.647C193.749 44.1616 193.098 43.886 192.416 43.8803Z" fill="#171923"/>
<path d="M104.797 58.5229C104.286 58.5229 103.787 58.6749 103.362 58.9597C102.937 59.2444 102.606 59.6492 102.41 60.1228C102.215 60.5963 102.163 61.1174 102.263 61.6201C102.363 62.1228 102.609 62.5846 102.97 62.9471C103.332 63.3095 103.792 63.5563 104.293 63.6563C104.794 63.7563 105.314 63.705 105.786 63.5089C106.258 63.3127 106.662 62.9805 106.946 62.5544C107.23 62.1282 107.381 61.6271 107.381 61.1145C107.381 60.4272 107.109 59.768 106.624 59.282C106.14 58.796 105.483 58.5229 104.797 58.5229Z" fill="#171923"/>
<path d="M119.4 58.5229C118.889 58.5229 118.39 58.6749 117.965 58.9597C117.54 59.2444 117.209 59.6492 117.013 60.1228C116.818 60.5963 116.767 61.1174 116.866 61.6201C116.966 62.1228 117.212 62.5846 117.573 62.9471C117.935 63.3095 118.395 63.5563 118.896 63.6563C119.398 63.7563 119.917 63.705 120.389 63.5089C120.861 63.3127 121.265 62.9805 121.549 62.5544C121.833 62.1282 121.984 61.6271 121.984 61.1145C121.984 60.4272 121.712 59.768 121.228 59.282C120.743 58.796 120.086 58.5229 119.4 58.5229Z" fill="#171923"/>
<path d="M134.004 58.5229C133.493 58.5229 132.993 58.6749 132.568 58.9597C132.143 59.2444 131.812 59.6492 131.616 60.1228C131.421 60.5963 131.37 61.1174 131.469 61.6201C131.569 62.1228 131.815 62.5846 132.176 62.9471C132.538 63.3095 132.998 63.5563 133.5 63.6563C134.001 63.7563 134.52 63.705 134.992 63.5089C135.465 63.3127 135.868 62.9805 136.152 62.5544C136.436 62.1282 136.587 61.6271 136.587 61.1145C136.587 60.4272 136.315 59.768 135.831 59.282C135.346 58.796 134.689 58.5229 134.004 58.5229Z" fill="#171923"/>
<path d="M148.607 58.5229C148.095 58.5187 147.593 58.667 147.165 58.9492C146.738 59.2313 146.403 59.6346 146.204 60.1077C146.005 60.5809 145.951 61.1026 146.048 61.6068C146.146 62.1109 146.39 62.5747 146.751 62.9393C147.111 63.3039 147.571 63.5529 148.073 63.6547C148.575 63.7564 149.096 63.7064 149.569 63.5109C150.042 63.3154 150.447 62.9832 150.732 62.5566C151.017 62.1299 151.169 61.628 151.169 61.1145C151.169 60.4309 150.9 59.775 150.42 59.2896C149.94 58.8042 149.288 58.5286 148.607 58.5229Z" fill="#171923"/>
<path d="M163.21 58.5229C162.699 58.5229 162.199 58.6749 161.774 58.9597C161.349 59.2444 161.018 59.6492 160.823 60.1228C160.627 60.5963 160.576 61.1174 160.676 61.6201C160.775 62.1228 161.021 62.5846 161.383 62.9471C161.744 63.3095 162.205 63.5563 162.706 63.6563C163.207 63.7563 163.727 63.705 164.199 63.5089C164.671 63.3127 165.074 62.9805 165.358 62.5544C165.642 62.1282 165.794 61.6271 165.794 61.1145C165.794 60.4272 165.522 59.768 165.037 59.282C164.552 58.796 163.895 58.5229 163.21 58.5229Z" fill="#171923"/>
<path d="M177.826 58.5229C177.315 58.5229 176.815 58.6749 176.39 58.9597C175.965 59.2444 175.634 59.6492 175.439 60.1228C175.243 60.5963 175.192 61.1174 175.292 61.6201C175.391 62.1228 175.637 62.5846 175.999 62.9471C176.36 63.3095 176.821 63.5563 177.322 63.6563C177.823 63.7563 178.343 63.705 178.815 63.5089C179.287 63.3127 179.69 62.9805 179.974 62.5544C180.258 62.1282 180.41 61.6271 180.41 61.1145C180.41 60.4272 180.138 59.768 179.653 59.282C179.168 58.796 178.511 58.5229 177.826 58.5229Z" fill="#171923"/>
<path d="M192.416 58.5229C191.904 58.5187 191.403 58.667 190.975 58.9492C190.547 59.2313 190.213 59.6346 190.014 60.1077C189.815 60.5809 189.761 61.1026 189.858 61.6068C189.955 62.1109 190.199 62.5747 190.56 62.9393C190.92 63.3039 191.381 63.5529 191.883 63.6547C192.384 63.7564 192.905 63.7064 193.378 63.5109C193.852 63.3154 194.257 62.9832 194.542 62.5566C194.826 62.1299 194.979 61.628 194.979 61.1145C194.979 60.4309 194.709 59.775 194.229 59.2896C193.749 58.8042 193.098 58.5286 192.416 58.5229Z" fill="#171923"/>
<path d="M104.797 73.0748C104.286 73.0748 103.787 73.2268 103.362 73.5116C102.937 73.7963 102.606 74.2011 102.41 74.6747C102.215 75.1482 102.163 75.6693 102.263 76.172C102.363 76.6748 102.609 77.1366 102.97 77.499C103.332 77.8614 103.792 78.1082 104.293 78.2082C104.794 78.3082 105.314 78.2569 105.786 78.0608C106.258 77.8646 106.662 77.5324 106.946 77.1063C107.23 76.6801 107.381 76.179 107.381 75.6664C107.381 74.9791 107.109 74.3199 106.624 73.8339C106.14 73.3479 105.483 73.0748 104.797 73.0748Z" fill="#171923"/>
<path d="M119.4 73.0748C118.889 73.0748 118.39 73.2268 117.965 73.5116C117.54 73.7963 117.209 74.2011 117.013 74.6747C116.818 75.1482 116.767 75.6693 116.866 76.172C116.966 76.6748 117.212 77.1366 117.573 77.499C117.935 77.8614 118.395 78.1082 118.896 78.2082C119.398 78.3082 119.917 78.2569 120.389 78.0608C120.861 77.8646 121.265 77.5324 121.549 77.1063C121.833 76.6801 121.984 76.179 121.984 75.6664C121.984 74.9791 121.712 74.3199 121.228 73.8339C120.743 73.3479 120.086 73.0748 119.4 73.0748Z" fill="#171923"/>
<path d="M134.004 73.0748C133.493 73.0748 132.993 73.2268 132.568 73.5116C132.143 73.7963 131.812 74.2011 131.616 74.6747C131.421 75.1482 131.37 75.6693 131.469 76.172C131.569 76.6748 131.815 77.1366 132.176 77.499C132.538 77.8614 132.998 78.1082 133.5 78.2082C134.001 78.3082 134.52 78.2569 134.992 78.0608C135.465 77.8646 135.868 77.5324 136.152 77.1063C136.436 76.6801 136.587 76.179 136.587 75.6664C136.587 74.9791 136.315 74.3199 135.831 73.8339C135.346 73.3479 134.689 73.0748 134.004 73.0748Z" fill="#171923"/>
<path d="M148.607 73.0748C148.095 73.0705 147.593 73.2189 147.165 73.5011C146.738 73.7832 146.403 74.1865 146.204 74.6596C146.005 75.1328 145.951 75.6545 146.048 76.1587C146.146 76.6628 146.39 77.1266 146.751 77.4912C147.111 77.8558 147.571 78.1048 148.073 78.2066C148.575 78.3083 149.096 78.2583 149.569 78.0628C150.042 77.8673 150.447 77.5351 150.732 77.1085C151.017 76.6818 151.169 76.1799 151.169 75.6664C151.169 74.9828 150.9 74.3269 150.42 73.8415C149.94 73.3561 149.288 73.0805 148.607 73.0748Z" fill="#171923"/>
<path d="M163.21 73.0748C162.699 73.0748 162.199 73.2268 161.774 73.5116C161.349 73.7963 161.018 74.2011 160.823 74.6747C160.627 75.1482 160.576 75.6693 160.676 76.172C160.775 76.6748 161.021 77.1366 161.383 77.499C161.744 77.8614 162.205 78.1082 162.706 78.2082C163.207 78.3082 163.727 78.2569 164.199 78.0608C164.671 77.8646 165.074 77.5324 165.358 77.1063C165.642 76.6801 165.794 76.179 165.794 75.6664C165.794 74.9791 165.522 74.3199 165.037 73.8339C164.552 73.3479 163.895 73.0748 163.21 73.0748Z" fill="#171923"/>
<path d="M177.826 73.0748C177.315 73.0748 176.815 73.2268 176.39 73.5116C175.965 73.7963 175.634 74.2011 175.439 74.6747C175.243 75.1482 175.192 75.6693 175.292 76.172C175.391 76.6748 175.637 77.1366 175.999 77.499C176.36 77.8614 176.821 78.1082 177.322 78.2082C177.823 78.3082 178.343 78.2569 178.815 78.0608C179.287 77.8646 179.69 77.5324 179.974 77.1063C180.258 76.6801 180.41 76.179 180.41 75.6664C180.41 74.9791 180.138 74.3199 179.653 73.8339C179.168 73.3479 178.511 73.0748 177.826 73.0748Z" fill="#171923"/>
<path d="M192.416 73.0748C191.904 73.0705 191.403 73.2189 190.975 73.5011C190.547 73.7832 190.213 74.1865 190.014 74.6596C189.815 75.1328 189.761 75.6545 189.858 76.1587C189.955 76.6628 190.199 77.1266 190.56 77.4912C190.92 77.8558 191.381 78.1048 191.883 78.2066C192.384 78.3083 192.905 78.2583 193.378 78.0628C193.852 77.8673 194.257 77.5351 194.542 77.1085C194.826 76.6818 194.979 76.1799 194.979 75.6664C194.979 74.9828 194.709 74.3269 194.229 73.8415C193.749 73.3561 193.098 73.0805 192.416 73.0748Z" fill="#171923"/>
<path d="M104.797 87.8168C104.286 87.8168 103.787 87.9688 103.362 88.2535C102.937 88.5383 102.606 88.9431 102.41 89.4166C102.215 89.8902 102.163 90.4113 102.263 90.914C102.363 91.4167 102.609 91.8785 102.97 92.2409C103.332 92.6034 103.792 92.8502 104.293 92.9502C104.794 93.0502 105.314 92.9989 105.786 92.8027C106.258 92.6066 106.662 92.2744 106.946 91.8482C107.23 91.422 107.381 90.921 107.381 90.4084C107.381 89.721 107.109 89.0619 106.624 88.5759C106.14 88.0898 105.483 87.8168 104.797 87.8168Z" fill="#171923"/>
<path d="M119.4 87.8168C118.889 87.8168 118.39 87.9688 117.965 88.2535C117.54 88.5383 117.209 88.9431 117.013 89.4166C116.818 89.8902 116.767 90.4113 116.866 90.914C116.966 91.4167 117.212 91.8785 117.573 92.2409C117.935 92.6034 118.395 92.8502 118.896 92.9502C119.398 93.0502 119.917 92.9989 120.389 92.8027C120.861 92.6066 121.265 92.2744 121.549 91.8482C121.833 91.422 121.984 90.921 121.984 90.4084C121.984 89.721 121.712 89.0619 121.228 88.5759C120.743 88.0898 120.086 87.8168 119.4 87.8168Z" fill="#171923"/>
<path d="M134.004 87.8168C133.493 87.8168 132.993 87.9688 132.568 88.2535C132.143 88.5383 131.812 88.9431 131.616 89.4166C131.421 89.8902 131.37 90.4113 131.469 90.914C131.569 91.4167 131.815 91.8785 132.176 92.2409C132.538 92.6034 132.998 92.8502 133.5 92.9502C134.001 93.0502 134.52 92.9989 134.992 92.8027C135.465 92.6066 135.868 92.2744 136.152 91.8482C136.436 91.422 136.587 90.921 136.587 90.4084C136.587 89.721 136.315 89.0619 135.831 88.5759C135.346 88.0898 134.689 87.8168 134.004 87.8168Z" fill="#171923"/>
<path d="M148.607 87.8168C148.095 87.8125 147.593 87.9609 147.165 88.243C146.738 88.5252 146.403 88.9284 146.204 89.4016C146.005 89.8747 145.951 90.3965 146.048 90.9006C146.146 91.4048 146.39 91.8686 146.751 92.2332C147.111 92.5978 147.571 92.8468 148.073 92.9485C148.575 93.0503 149.096 93.0002 149.569 92.8047C150.042 92.6092 150.447 92.2771 150.732 91.8504C151.017 91.4238 151.169 90.9219 151.169 90.4084C151.169 89.7248 150.9 89.0689 150.42 88.5835C149.94 88.0981 149.288 87.8225 148.607 87.8168Z" fill="#171923"/>
<path d="M163.21 87.8168C162.699 87.8168 162.199 87.9688 161.774 88.2535C161.349 88.5383 161.018 88.9431 160.823 89.4166C160.627 89.8902 160.576 90.4113 160.676 90.914C160.775 91.4167 161.021 91.8785 161.383 92.2409C161.744 92.6034 162.205 92.8502 162.706 92.9502C163.207 93.0502 163.727 92.9989 164.199 92.8027C164.671 92.6066 165.074 92.2744 165.358 91.8482C165.642 91.422 165.794 90.921 165.794 90.4084C165.794 89.721 165.522 89.0619 165.037 88.5759C164.552 88.0898 163.895 87.8168 163.21 87.8168Z" fill="#171923"/>
<path d="M177.826 87.8168C177.315 87.8168 176.815 87.9688 176.39 88.2535C175.965 88.5383 175.634 88.9431 175.439 89.4166C175.243 89.8902 175.192 90.4113 175.292 90.914C175.391 91.4167 175.637 91.8785 175.999 92.2409C176.36 92.6034 176.821 92.8502 177.322 92.9502C177.823 93.0502 178.343 92.9989 178.815 92.8027C179.287 92.6066 179.69 92.2744 179.974 91.8482C180.258 91.422 180.41 90.921 180.41 90.4084C180.41 89.721 180.138 89.0619 179.653 88.5759C179.168 88.0898 178.511 87.8168 177.826 87.8168Z" fill="#171923"/>
<path d="M192.416 87.8168C191.904 87.8125 191.403 87.9609 190.975 88.243C190.547 88.5252 190.213 88.9284 190.014 89.4016C189.815 89.8747 189.761 90.3965 189.858 90.9006C189.955 91.4048 190.199 91.8686 190.56 92.2332C190.92 92.5978 191.381 92.8468 191.883 92.9485C192.384 93.0503 192.905 93.0002 193.378 92.8047C193.852 92.6092 194.257 92.2771 194.542 91.8504C194.826 91.4238 194.979 90.9219 194.979 90.4084C194.979 89.7248 194.709 89.0689 194.229 88.5835C193.749 88.0981 193.098 87.8225 192.416 87.8168Z" fill="#171923"/>
</svg>
