<svg width="155" height="74" viewBox="0 0 155 74" fill="none" xmlns="http://www.w3.org/2000/svg">
<path d="M2.05387 0.0309623C1.64766 0.0309623 1.25055 0.1519 0.912794 0.378492C0.575041 0.605083 0.311759 0.927135 0.156308 1.30394C0.00085795 1.68075 -0.0397719 2.09539 0.0394761 2.49541C0.118724 2.89542 0.31434 3.26286 0.601575 3.55125C0.88881 3.83965 1.25474 4.03605 1.65315 4.11562C2.05156 4.19519 2.46457 4.15435 2.83986 3.99827C3.21515 3.8422 3.53588 3.57787 3.76156 3.23875C3.98724 2.89964 4.10771 2.50096 4.10771 2.0931C4.10771 1.54619 3.89134 1.02166 3.50617 0.634938C3.121 0.248211 2.59859 0.0309623 2.05387 0.0309623Z" fill="#2BC3F7" fill-opacity="0.44"/>
<path d="M13.6683 0.0309623C13.2621 0.0309623 12.865 0.1519 12.5272 0.378492C12.1895 0.605083 11.9263 0.927135 11.7708 1.30394C11.6154 1.68075 11.5747 2.09539 11.6539 2.49541C11.7332 2.89542 11.9288 3.26286 12.216 3.55125C12.5032 3.83965 12.8692 4.03605 13.2676 4.11562C13.666 4.19519 14.079 4.15435 14.4543 3.99827C14.8296 3.8422 15.1503 3.57787 15.376 3.23875C15.6017 2.89964 15.7221 2.50096 15.7221 2.0931C15.7221 1.54619 15.5058 1.02166 15.1206 0.634938C14.7354 0.248211 14.213 0.0309623 13.6683 0.0309623Z" fill="#2BC3F7" fill-opacity="0.44"/>
<path d="M25.2691 0.0309623C24.8629 0.0309623 24.4658 0.1519 24.1281 0.378492C23.7903 0.605083 23.527 0.927135 23.3716 1.30394C23.2161 1.68075 23.1755 2.09539 23.2548 2.49541C23.334 2.89542 23.5296 3.26286 23.8169 3.55125C24.1041 3.83965 24.47 4.03605 24.8684 4.11562C25.2668 4.19519 25.6798 4.15435 26.0551 3.99827C26.4303 3.8422 26.7512 3.57787 26.9768 3.23875C27.2025 2.89964 27.3229 2.50096 27.3229 2.0931C27.3229 1.54619 27.1065 1.02166 26.7214 0.634938C26.3362 0.248211 25.8138 0.0309623 25.2691 0.0309623Z" fill="#2BC3F7" fill-opacity="0.44"/>
<path d="M36.8767 0.0309501C36.4698 0.0275452 36.071 0.145577 35.731 0.370088C35.391 0.5946 35.1251 0.915458 34.967 1.29195C34.8089 1.66845 34.7659 2.08362 34.8432 2.48476C34.9205 2.8859 35.1147 3.25493 35.4013 3.54505C35.6878 3.83517 36.0537 4.03327 36.4526 4.11425C36.8514 4.19522 37.2653 4.1554 37.6415 3.99984C38.0178 3.84427 38.3396 3.57998 38.5661 3.2405C38.7925 2.90102 38.9134 2.50167 38.9134 2.09309C38.9134 1.54914 38.6994 1.0272 38.3179 0.640967C37.9364 0.25473 37.4184 0.035483 36.8767 0.0309501Z" fill="#2BC3F7" fill-opacity="0.44"/>
<path d="M48.4843 0.0309501C48.0774 0.0275452 47.6786 0.145577 47.3386 0.370088C46.9986 0.5946 46.7327 0.915458 46.5746 1.29195C46.4165 1.66845 46.3735 2.08362 46.4508 2.48476C46.5281 2.8859 46.7223 3.25493 47.0089 3.54505C47.2954 3.83517 47.6613 4.03327 48.0602 4.11425C48.459 4.19522 48.8729 4.1554 49.2491 3.99984C49.6254 3.84427 49.9472 3.57998 50.1737 3.2405C50.4001 2.90102 50.521 2.50167 50.521 2.09309C50.521 1.54914 50.307 1.0272 49.9256 0.640967C49.5441 0.25473 49.026 0.035483 48.4843 0.0309501Z" fill="#2BC3F7" fill-opacity="0.44"/>
<path d="M60.092 0.0309623C59.6858 0.0309623 59.2887 0.1519 58.951 0.378492C58.6132 0.605083 58.3499 0.927135 58.1945 1.30394C58.039 1.68075 57.9984 2.09539 58.0776 2.49541C58.1569 2.89542 58.3525 3.26286 58.6397 3.55125C58.927 3.83965 59.2929 4.03605 59.6913 4.11562C60.0897 4.19519 60.5027 4.15435 60.8779 3.99827C61.2532 3.8422 61.5741 3.57787 61.7997 3.23875C62.0254 2.89964 62.1459 2.50096 62.1459 2.0931C62.1459 1.54619 61.9294 1.02166 61.5443 0.634938C61.1591 0.248211 60.6368 0.0309623 60.092 0.0309623Z" fill="#2BC3F7" fill-opacity="0.44"/>
<path d="M71.6996 0.0309501C71.2927 0.0275452 70.8939 0.145577 70.5539 0.370088C70.2139 0.5946 69.948 0.915458 69.7899 1.29195C69.6318 1.66845 69.5887 2.08362 69.666 2.48476C69.7434 2.8859 69.9376 3.25493 70.2241 3.54505C70.5107 3.83517 70.8766 4.03327 71.2755 4.11425C71.6743 4.19522 72.0881 4.1554 72.4644 3.99984C72.8407 3.84427 73.1625 3.57998 73.389 3.2405C73.6154 2.90102 73.7363 2.50167 73.7363 2.09309C73.7363 1.54914 73.5222 1.0272 73.1408 0.640967C72.7593 0.25473 72.2413 0.035483 71.6996 0.0309501Z" fill="#2BC3F7" fill-opacity="0.44"/>
<path d="M2.05387 11.682C1.64766 11.682 1.25055 11.803 0.912794 12.0296C0.575041 12.2562 0.311759 12.5782 0.156308 12.955C0.00085795 13.3318 -0.0397719 13.7465 0.0394761 14.1465C0.118724 14.5465 0.31434 14.9139 0.601575 15.2023C0.88881 15.4907 1.25474 15.6871 1.65315 15.7667C2.05156 15.8463 2.46457 15.8054 2.83986 15.6493C3.21515 15.4933 3.53588 15.229 3.76156 14.8898C3.98724 14.5507 4.10771 14.152 4.10771 13.7442C4.10771 13.1973 3.89134 12.6728 3.50617 12.286C3.121 11.8993 2.59859 11.682 2.05387 11.682Z" fill="#2BC3F7" fill-opacity="0.44"/>
<path d="M13.6683 11.682C13.2621 11.682 12.865 11.803 12.5272 12.0296C12.1895 12.2562 11.9263 12.5782 11.7708 12.955C11.6154 13.3318 11.5747 13.7465 11.6539 14.1465C11.7332 14.5465 11.9288 14.9139 12.216 15.2023C12.5032 15.4907 12.8692 15.6871 13.2676 15.7667C13.666 15.8463 14.079 15.8054 14.4543 15.6493C14.8296 15.4933 15.1503 15.229 15.376 14.8898C15.6017 14.5507 15.7221 14.152 15.7221 13.7442C15.7221 13.1973 15.5058 12.6728 15.1206 12.286C14.7354 11.8993 14.213 11.682 13.6683 11.682Z" fill="#2BC3F7" fill-opacity="0.44"/>
<path d="M25.2691 11.682C24.8629 11.682 24.4658 11.803 24.1281 12.0296C23.7903 12.2562 23.527 12.5782 23.3716 12.955C23.2161 13.3318 23.1755 13.7465 23.2548 14.1465C23.334 14.5465 23.5296 14.9139 23.8169 15.2023C24.1041 15.4907 24.47 15.6871 24.8684 15.7667C25.2668 15.8463 25.6798 15.8054 26.0551 15.6493C26.4303 15.4933 26.7512 15.229 26.9768 14.8898C27.2025 14.5507 27.3229 14.152 27.3229 13.7442C27.3229 13.1973 27.1065 12.6728 26.7214 12.286C26.3362 11.8993 25.8138 11.682 25.2691 11.682Z" fill="#2BC3F7" fill-opacity="0.44"/>
<path d="M36.8767 11.682C36.4698 11.6786 36.071 11.7967 35.731 12.0212C35.391 12.2457 35.1251 12.5666 34.967 12.943C34.8089 13.3195 34.7659 13.7347 34.8432 14.1358C34.9205 14.537 35.1147 14.906 35.4013 15.1961C35.6878 15.4863 36.0537 15.6844 36.4526 15.7653C36.8514 15.8463 37.2653 15.8065 37.6415 15.6509C38.0178 15.4954 38.3396 15.2311 38.5661 14.8916C38.7925 14.5521 38.9134 14.1527 38.9134 13.7442C38.9134 13.2002 38.6994 12.6783 38.3179 12.2921C37.9364 11.9058 37.4184 11.6866 36.8767 11.682Z" fill="#2BC3F7" fill-opacity="0.44"/>
<path d="M48.4843 11.682C48.0774 11.6786 47.6786 11.7967 47.3386 12.0212C46.9986 12.2457 46.7327 12.5666 46.5746 12.943C46.4165 13.3195 46.3735 13.7347 46.4508 14.1358C46.5281 14.537 46.7223 14.906 47.0089 15.1961C47.2954 15.4863 47.6613 15.6844 48.0602 15.7653C48.459 15.8463 48.8729 15.8065 49.2491 15.6509C49.6254 15.4954 49.9472 15.2311 50.1737 14.8916C50.4001 14.5521 50.521 14.1527 50.521 13.7442C50.521 13.2002 50.307 12.6783 49.9256 12.2921C49.5441 11.9058 49.026 11.6866 48.4843 11.682Z" fill="#2BC3F7" fill-opacity="0.44"/>
<path d="M60.092 11.682C59.6858 11.682 59.2887 11.803 58.951 12.0296C58.6132 12.2562 58.3499 12.5782 58.1945 12.955C58.039 13.3318 57.9984 13.7465 58.0776 14.1465C58.1569 14.5465 58.3525 14.9139 58.6397 15.2023C58.927 15.4907 59.2929 15.6871 59.6913 15.7667C60.0897 15.8463 60.5027 15.8054 60.8779 15.6493C61.2532 15.4933 61.5741 15.229 61.7997 14.8898C62.0254 14.5507 62.1459 14.152 62.1459 13.7442C62.1459 13.1973 61.9294 12.6728 61.5443 12.286C61.1591 11.8993 60.6368 11.682 60.092 11.682Z" fill="#2BC3F7" fill-opacity="0.44"/>
<path d="M71.6996 11.682C71.2927 11.6786 70.8939 11.7967 70.5539 12.0212C70.2139 12.2457 69.948 12.5666 69.7899 12.943C69.6318 13.3195 69.5887 13.7347 69.666 14.1358C69.7434 14.537 69.9376 14.906 70.2241 15.1961C70.5107 15.4863 70.8766 15.6844 71.2755 15.7653C71.6743 15.8463 72.0881 15.8065 72.4644 15.6509C72.8407 15.4954 73.1625 15.2311 73.389 14.8916C73.6154 14.5521 73.7363 14.1527 73.7363 13.7442C73.7363 13.2002 73.5222 12.6783 73.1408 12.2921C72.7593 11.9058 72.2413 11.6866 71.6996 11.682Z" fill="#2BC3F7" fill-opacity="0.44"/>
<path d="M2.05387 23.2609C1.64766 23.2609 1.25055 23.3819 0.912794 23.6085C0.575041 23.8351 0.311759 24.1571 0.156308 24.5339C0.00085795 24.9108 -0.0397719 25.3254 0.0394761 25.7254C0.118724 26.1254 0.31434 26.4929 0.601575 26.7813C0.88881 27.0696 1.25474 27.266 1.65315 27.3456C2.05156 27.4252 2.46457 27.3843 2.83986 27.2283C3.21515 27.0722 3.53588 26.8079 3.76156 26.4688C3.98724 26.1296 4.10771 25.7309 4.10771 25.3231C4.10771 24.7762 3.89134 24.2517 3.50617 23.8649C3.121 23.4782 2.59859 23.2609 2.05387 23.2609Z" fill="#2BC3F7" fill-opacity="0.44"/>
<path d="M13.6683 23.2609C13.2621 23.2609 12.865 23.3819 12.5272 23.6085C12.1895 23.8351 11.9263 24.1571 11.7708 24.5339C11.6154 24.9108 11.5747 25.3254 11.6539 25.7254C11.7332 26.1254 11.9288 26.4929 12.216 26.7813C12.5032 27.0696 12.8692 27.266 13.2676 27.3456C13.666 27.4252 14.079 27.3843 14.4543 27.2283C14.8296 27.0722 15.1503 26.8079 15.376 26.4688C15.6017 26.1296 15.7221 25.7309 15.7221 25.3231C15.7221 24.7762 15.5058 24.2517 15.1206 23.8649C14.7354 23.4782 14.213 23.2609 13.6683 23.2609Z" fill="#2BC3F7" fill-opacity="0.44"/>
<path d="M25.2691 23.2609C24.8629 23.2609 24.4658 23.3819 24.1281 23.6085C23.7903 23.8351 23.527 24.1571 23.3716 24.5339C23.2161 24.9108 23.1755 25.3254 23.2548 25.7254C23.334 26.1254 23.5296 26.4929 23.8169 26.7813C24.1041 27.0696 24.47 27.266 24.8684 27.3456C25.2668 27.4252 25.6798 27.3843 26.0551 27.2283C26.4303 27.0722 26.7512 26.8079 26.9768 26.4688C27.2025 26.1296 27.3229 25.7309 27.3229 25.3231C27.3229 24.7762 27.1065 24.2517 26.7214 23.8649C26.3362 23.4782 25.8138 23.2609 25.2691 23.2609Z" fill="#2BC3F7" fill-opacity="0.44"/>
<path d="M36.8767 23.261C36.4698 23.2576 36.071 23.3756 35.731 23.6001C35.391 23.8246 35.1251 24.1455 34.967 24.522C34.8089 24.8985 34.7659 25.3136 34.8432 25.7148C34.9205 26.1159 35.1147 26.485 35.4013 26.7751C35.6878 27.0652 36.0537 27.2633 36.4526 27.3443C36.8514 27.4253 37.2653 27.3854 37.6415 27.2299C38.0178 27.0743 38.3396 26.81 38.5661 26.4705C38.7925 26.1311 38.9134 25.7317 38.9134 25.3231C38.9134 24.7792 38.6994 24.2572 38.3179 23.871C37.9364 23.4848 37.4184 23.2655 36.8767 23.261Z" fill="#2BC3F7" fill-opacity="0.44"/>
<path d="M48.4843 23.261C48.0774 23.2576 47.6786 23.3756 47.3386 23.6001C46.9986 23.8246 46.7327 24.1455 46.5746 24.522C46.4165 24.8985 46.3735 25.3136 46.4508 25.7148C46.5281 26.1159 46.7223 26.485 47.0089 26.7751C47.2954 27.0652 47.6613 27.2633 48.0602 27.3443C48.459 27.4253 48.8729 27.3854 49.2491 27.2299C49.6254 27.0743 49.9472 26.81 50.1737 26.4705C50.4001 26.1311 50.521 25.7317 50.521 25.3231C50.521 24.7792 50.307 24.2572 49.9256 23.871C49.5441 23.4848 49.026 23.2655 48.4843 23.261Z" fill="#2BC3F7" fill-opacity="0.44"/>
<path d="M60.092 23.2609C59.6858 23.2609 59.2887 23.3819 58.951 23.6085C58.6132 23.8351 58.3499 24.1571 58.1945 24.5339C58.039 24.9108 57.9984 25.3254 58.0776 25.7254C58.1569 26.1254 58.3525 26.4929 58.6397 26.7813C58.927 27.0696 59.2929 27.266 59.6913 27.3456C60.0897 27.4252 60.5027 27.3843 60.8779 27.2283C61.2532 27.0722 61.5741 26.8079 61.7997 26.4688C62.0254 26.1296 62.1459 25.7309 62.1459 25.3231C62.1459 24.7762 61.9294 24.2517 61.5443 23.8649C61.1591 23.4782 60.6368 23.2609 60.092 23.2609Z" fill="#2BC3F7" fill-opacity="0.44"/>
<path d="M71.6996 23.261C71.2927 23.2576 70.8939 23.3756 70.5539 23.6001C70.2139 23.8246 69.948 24.1455 69.7899 24.522C69.6318 24.8985 69.5887 25.3136 69.666 25.7148C69.7434 26.1159 69.9376 26.485 70.2241 26.7751C70.5107 27.0652 70.8766 27.2633 71.2755 27.3443C71.6743 27.4253 72.0881 27.3854 72.4644 27.2299C72.8407 27.0743 73.1625 26.81 73.389 26.4705C73.6154 26.1311 73.7363 25.7317 73.7363 25.3231C73.7363 24.7792 73.5222 24.2572 73.1408 23.871C72.7593 23.4848 72.2413 23.2655 71.6996 23.261Z" fill="#2BC3F7" fill-opacity="0.44"/>
<path d="M2.05387 34.9155C1.64766 34.9155 1.25055 35.0365 0.912794 35.2631C0.575041 35.4897 0.311759 35.8117 0.156308 36.1885C0.00085795 36.5653 -0.0397719 36.98 0.0394761 37.38C0.118724 37.78 0.31434 38.1474 0.601575 38.4358C0.88881 38.7242 1.25474 38.9206 1.65315 39.0002C2.05156 39.0798 2.46457 39.0389 2.83986 38.8829C3.21515 38.7268 3.53588 38.4624 3.76156 38.1233C3.98724 37.7842 4.10771 37.3855 4.10771 36.9777C4.10771 36.4308 3.89134 35.9062 3.50617 35.5195C3.121 35.1328 2.59859 34.9155 2.05387 34.9155Z" fill="#2BC3F7" fill-opacity="0.44"/>
<path d="M13.6683 34.9155C13.2621 34.9155 12.865 35.0365 12.5272 35.2631C12.1895 35.4897 11.9263 35.8117 11.7708 36.1885C11.6154 36.5653 11.5747 36.98 11.6539 37.38C11.7332 37.78 11.9288 38.1474 12.216 38.4358C12.5032 38.7242 12.8692 38.9206 13.2676 39.0002C13.666 39.0798 14.079 39.0389 14.4543 38.8829C14.8296 38.7268 15.1503 38.4624 15.376 38.1233C15.6017 37.7842 15.7221 37.3855 15.7221 36.9777C15.7221 36.4308 15.5058 35.9062 15.1206 35.5195C14.7354 35.1328 14.213 34.9155 13.6683 34.9155Z" fill="#2BC3F7" fill-opacity="0.44"/>
<path d="M25.2691 34.9155C24.8629 34.9155 24.4658 35.0365 24.1281 35.2631C23.7903 35.4897 23.527 35.8117 23.3716 36.1885C23.2161 36.5653 23.1755 36.98 23.2548 37.38C23.334 37.78 23.5296 38.1474 23.8169 38.4358C24.1041 38.7242 24.47 38.9206 24.8684 39.0002C25.2668 39.0798 25.6798 39.0389 26.0551 38.8829C26.4303 38.7268 26.7512 38.4624 26.9768 38.1233C27.2025 37.7842 27.3229 37.3855 27.3229 36.9777C27.3229 36.4308 27.1065 35.9062 26.7214 35.5195C26.3362 35.1328 25.8138 34.9155 25.2691 34.9155Z" fill="#2BC3F7" fill-opacity="0.44"/>
<path d="M36.8767 34.9155C36.4698 34.9121 36.071 35.0302 35.731 35.2547C35.391 35.4792 35.1251 35.8 34.967 36.1765C34.8089 36.553 34.7659 36.9682 34.8432 37.3693C34.9205 37.7705 35.1147 38.1395 35.4013 38.4296C35.6878 38.7197 36.0537 38.9179 36.4526 38.9988C36.8514 39.0798 37.2653 39.04 37.6415 38.8844C38.0178 38.7289 38.3396 38.4646 38.5661 38.1251C38.7925 37.7856 38.9134 37.3863 38.9134 36.9777C38.9134 36.4337 38.6994 35.9118 38.3179 35.5255C37.9364 35.1393 37.4184 34.9201 36.8767 34.9155Z" fill="#2BC3F7" fill-opacity="0.44"/>
<path d="M48.4843 34.9155C48.0774 34.9121 47.6786 35.0302 47.3386 35.2547C46.9986 35.4792 46.7327 35.8 46.5746 36.1765C46.4165 36.553 46.3735 36.9682 46.4508 37.3693C46.5281 37.7705 46.7223 38.1395 47.0089 38.4296C47.2954 38.7197 47.6613 38.9179 48.0602 38.9988C48.459 39.0798 48.8729 39.04 49.2491 38.8844C49.6254 38.7289 49.9472 38.4646 50.1737 38.1251C50.4001 37.7856 50.521 37.3863 50.521 36.9777C50.521 36.4337 50.307 35.9118 49.9256 35.5255C49.5441 35.1393 49.026 34.9201 48.4843 34.9155Z" fill="#2BC3F7" fill-opacity="0.44"/>
<path d="M60.092 34.9155C59.6858 34.9155 59.2887 35.0365 58.951 35.2631C58.6132 35.4897 58.3499 35.8117 58.1945 36.1885C58.039 36.5653 57.9984 36.98 58.0776 37.38C58.1569 37.78 58.3525 38.1474 58.6397 38.4358C58.927 38.7242 59.2929 38.9206 59.6913 39.0002C60.0897 39.0798 60.5027 39.0389 60.8779 38.8829C61.2532 38.7268 61.5741 38.4624 61.7997 38.1233C62.0254 37.7842 62.1459 37.3855 62.1459 36.9777C62.1459 36.4308 61.9294 35.9062 61.5443 35.5195C61.1591 35.1328 60.6368 34.9155 60.092 34.9155Z" fill="#2BC3F7" fill-opacity="0.44"/>
<path d="M71.6996 34.9155C71.2927 34.9121 70.8939 35.0302 70.5539 35.2547C70.2139 35.4792 69.948 35.8 69.7899 36.1765C69.6318 36.553 69.5887 36.9682 69.666 37.3693C69.7434 37.7705 69.9376 38.1395 70.2241 38.4296C70.5107 38.7197 70.8766 38.9179 71.2755 38.9988C71.6743 39.0798 72.0881 39.04 72.4644 38.8844C72.8407 38.7289 73.1625 38.4646 73.389 38.1251C73.6154 37.7856 73.7363 37.3863 73.7363 36.9777C73.7363 36.4337 73.5222 35.9118 73.1408 35.5255C72.7593 35.1393 72.2413 34.9201 71.6996 34.9155Z" fill="#2BC3F7" fill-opacity="0.44"/>
<path d="M2.05387 46.5666C1.64766 46.5666 1.25055 46.6875 0.912794 46.9141C0.575041 47.1407 0.311759 47.4628 0.156308 47.8396C0.00085795 48.2164 -0.0397719 48.631 0.0394761 49.0311C0.118724 49.4311 0.31434 49.7985 0.601575 50.0869C0.88881 50.3753 1.25474 50.5717 1.65315 50.6513C2.05156 50.7308 2.46457 50.69 2.83986 50.5339C3.21515 50.3778 3.53588 50.1135 3.76156 49.7744C3.98724 49.4353 4.10771 49.0366 4.10771 48.6288C4.10771 48.0818 3.89134 47.5573 3.50617 47.1706C3.121 46.7839 2.59859 46.5666 2.05387 46.5666Z" fill="#2BC3F7" fill-opacity="0.44"/>
<path d="M13.6683 46.5666C13.2621 46.5666 12.865 46.6875 12.5272 46.9141C12.1895 47.1407 11.9263 47.4628 11.7708 47.8396C11.6154 48.2164 11.5747 48.631 11.6539 49.0311C11.7332 49.4311 11.9288 49.7985 12.216 50.0869C12.5032 50.3753 12.8692 50.5717 13.2676 50.6513C13.666 50.7308 14.079 50.69 14.4543 50.5339C14.8296 50.3778 15.1503 50.1135 15.376 49.7744C15.6017 49.4353 15.7221 49.0366 15.7221 48.6288C15.7221 48.0818 15.5058 47.5573 15.1206 47.1706C14.7354 46.7839 14.213 46.5666 13.6683 46.5666Z" fill="#2BC3F7" fill-opacity="0.44"/>
<path d="M25.2691 46.5666C24.8629 46.5666 24.4658 46.6875 24.1281 46.9141C23.7903 47.1407 23.527 47.4628 23.3716 47.8396C23.2161 48.2164 23.1755 48.631 23.2548 49.0311C23.334 49.4311 23.5296 49.7985 23.8169 50.0869C24.1041 50.3753 24.47 50.5717 24.8684 50.6513C25.2668 50.7308 25.6798 50.69 26.0551 50.5339C26.4303 50.3778 26.7512 50.1135 26.9768 49.7744C27.2025 49.4353 27.3229 49.0366 27.3229 48.6288C27.3229 48.0818 27.1065 47.5573 26.7214 47.1706C26.3362 46.7839 25.8138 46.5666 25.2691 46.5666Z" fill="#2BC3F7" fill-opacity="0.44"/>
<path d="M36.8767 46.5666C36.4698 46.5632 36.071 46.6812 35.731 46.9058C35.391 47.1303 35.1251 47.4511 34.967 47.8276C34.8089 48.2041 34.7659 48.6193 34.8432 49.0204C34.9205 49.4216 35.1147 49.7906 35.4013 50.0807C35.6878 50.3708 36.0537 50.5689 36.4526 50.6499C36.8514 50.7309 37.2653 50.6911 37.6415 50.5355C38.0178 50.3799 38.3396 50.1157 38.5661 49.7762C38.7925 49.4367 38.9134 49.0373 38.9134 48.6287C38.9134 48.0848 38.6994 47.5629 38.3179 47.1766C37.9364 46.7904 37.4184 46.5711 36.8767 46.5666Z" fill="#2BC3F7" fill-opacity="0.44"/>
<path d="M48.4843 46.5666C48.0774 46.5632 47.6786 46.6812 47.3386 46.9058C46.9986 47.1303 46.7327 47.4511 46.5746 47.8276C46.4165 48.2041 46.3735 48.6193 46.4508 49.0204C46.5281 49.4216 46.7223 49.7906 47.0089 50.0807C47.2954 50.3708 47.6613 50.5689 48.0602 50.6499C48.459 50.7309 48.8729 50.6911 49.2491 50.5355C49.6254 50.3799 49.9472 50.1157 50.1737 49.7762C50.4001 49.4367 50.521 49.0373 50.521 48.6287C50.521 48.0848 50.307 47.5629 49.9256 47.1766C49.5441 46.7904 49.026 46.5711 48.4843 46.5666Z" fill="#2BC3F7" fill-opacity="0.44"/>
<path d="M60.092 46.5666C59.6858 46.5666 59.2887 46.6875 58.951 46.9141C58.6132 47.1407 58.3499 47.4628 58.1945 47.8396C58.039 48.2164 57.9984 48.631 58.0776 49.0311C58.1569 49.4311 58.3525 49.7985 58.6397 50.0869C58.927 50.3753 59.2929 50.5717 59.6913 50.6513C60.0897 50.7308 60.5027 50.69 60.8779 50.5339C61.2532 50.3778 61.5741 50.1135 61.7997 49.7744C62.0254 49.4353 62.1459 49.0366 62.1459 48.6288C62.1459 48.0818 61.9294 47.5573 61.5443 47.1706C61.1591 46.7839 60.6368 46.5666 60.092 46.5666Z" fill="#2BC3F7" fill-opacity="0.44"/>
<path d="M71.6996 46.5666C71.2927 46.5632 70.8939 46.6812 70.5539 46.9058C70.2139 47.1303 69.948 47.4511 69.7899 47.8276C69.6318 48.2041 69.5887 48.6193 69.666 49.0204C69.7434 49.4216 69.9376 49.7906 70.2241 50.0807C70.5107 50.3708 70.8766 50.5689 71.2755 50.6499C71.6743 50.7309 72.0881 50.6911 72.4644 50.5355C72.8407 50.3799 73.1625 50.1157 73.389 49.7762C73.6154 49.4367 73.7363 49.0373 73.7363 48.6287C73.7363 48.0848 73.5222 47.5629 73.1408 47.1766C72.7593 46.7904 72.2413 46.5711 71.6996 46.5666Z" fill="#2BC3F7" fill-opacity="0.44"/>
<path d="M2.05387 58.1455C1.64766 58.1455 1.25055 58.2665 0.912794 58.493C0.575041 58.7196 0.311759 59.0417 0.156308 59.4185C0.00085795 59.7953 -0.0397719 60.2099 0.0394761 60.61C0.118724 61.01 0.31434 61.3774 0.601575 61.6658C0.88881 61.9542 1.25474 62.1506 1.65315 62.2302C2.05156 62.3097 2.46457 62.2689 2.83986 62.1128C3.21515 61.9568 3.53588 61.6925 3.76156 61.3533C3.98724 61.0142 4.10771 60.6155 4.10771 60.2077C4.10771 59.6607 3.89134 59.1362 3.50617 58.7495C3.121 58.3628 2.59859 58.1455 2.05387 58.1455Z" fill="#2BC3F7" fill-opacity="0.44"/>
<path d="M13.6683 58.1455C13.2621 58.1455 12.865 58.2665 12.5272 58.493C12.1895 58.7196 11.9263 59.0417 11.7708 59.4185C11.6154 59.7953 11.5747 60.2099 11.6539 60.61C11.7332 61.01 11.9288 61.3774 12.216 61.6658C12.5032 61.9542 12.8692 62.1506 13.2676 62.2302C13.666 62.3097 14.079 62.2689 14.4543 62.1128C14.8296 61.9568 15.1503 61.6925 15.376 61.3533C15.6017 61.0142 15.7221 60.6155 15.7221 60.2077C15.7221 59.6607 15.5058 59.1362 15.1206 58.7495C14.7354 58.3628 14.213 58.1455 13.6683 58.1455Z" fill="#2BC3F7" fill-opacity="0.44"/>
<path d="M25.2691 58.1455C24.8629 58.1455 24.4658 58.2665 24.1281 58.493C23.7903 58.7196 23.527 59.0417 23.3716 59.4185C23.2161 59.7953 23.1755 60.2099 23.2548 60.61C23.334 61.01 23.5296 61.3774 23.8169 61.6658C24.1041 61.9542 24.47 62.1506 24.8684 62.2302C25.2668 62.3097 25.6798 62.2689 26.0551 62.1128C26.4303 61.9568 26.7512 61.6925 26.9768 61.3533C27.2025 61.0142 27.3229 60.6155 27.3229 60.2077C27.3229 59.6607 27.1065 59.1362 26.7214 58.7495C26.3362 58.3628 25.8138 58.1455 25.2691 58.1455Z" fill="#2BC3F7" fill-opacity="0.44"/>
<path d="M36.8767 58.1455C36.4698 58.1421 36.071 58.2602 35.731 58.4847C35.391 58.7092 35.1251 59.0301 34.967 59.4066C34.8089 59.7831 34.7659 60.1982 34.8432 60.5994C34.9205 61.0005 35.1147 61.3696 35.4013 61.6597C35.6878 61.9498 36.0537 62.1479 36.4526 62.2289C36.8514 62.3098 37.2653 62.27 37.6415 62.1145C38.0178 61.9589 38.3396 61.6946 38.5661 61.3551C38.7925 61.0156 38.9134 60.6163 38.9134 60.2077C38.9134 59.6637 38.6994 59.1418 38.3179 58.7556C37.9364 58.3694 37.4184 58.1501 36.8767 58.1455Z" fill="#2BC3F7" fill-opacity="0.44"/>
<path d="M48.4843 58.1455C48.0774 58.1421 47.6786 58.2602 47.3386 58.4847C46.9986 58.7092 46.7327 59.0301 46.5746 59.4066C46.4165 59.7831 46.3735 60.1982 46.4508 60.5994C46.5281 61.0005 46.7223 61.3696 47.0089 61.6597C47.2954 61.9498 47.6613 62.1479 48.0602 62.2289C48.459 62.3098 48.8729 62.27 49.2491 62.1145C49.6254 61.9589 49.9472 61.6946 50.1737 61.3551C50.4001 61.0156 50.521 60.6163 50.521 60.2077C50.521 59.6637 50.307 59.1418 49.9256 58.7556C49.5441 58.3694 49.026 58.1501 48.4843 58.1455Z" fill="#2BC3F7" fill-opacity="0.44"/>
<path d="M60.092 58.1455C59.6858 58.1455 59.2887 58.2665 58.951 58.493C58.6132 58.7196 58.3499 59.0417 58.1945 59.4185C58.039 59.7953 57.9984 60.2099 58.0776 60.61C58.1569 61.01 58.3525 61.3774 58.6397 61.6658C58.927 61.9542 59.2929 62.1506 59.6913 62.2302C60.0897 62.3097 60.5027 62.2689 60.8779 62.1128C61.2532 61.9568 61.5741 61.6925 61.7997 61.3533C62.0254 61.0142 62.1459 60.6155 62.1459 60.2077C62.1459 59.6607 61.9294 59.1362 61.5443 58.7495C61.1591 58.3628 60.6368 58.1455 60.092 58.1455Z" fill="#2BC3F7" fill-opacity="0.44"/>
<path d="M71.6996 58.1455C71.2927 58.1421 70.8939 58.2602 70.5539 58.4847C70.2139 58.7092 69.948 59.0301 69.7899 59.4066C69.6318 59.7831 69.5887 60.1982 69.666 60.5994C69.7434 61.0005 69.9376 61.3696 70.2241 61.6597C70.5107 61.9498 70.8766 62.1479 71.2755 62.2289C71.6743 62.3098 72.0881 62.27 72.4644 62.1145C72.8407 61.9589 73.1625 61.6946 73.389 61.3551C73.6154 61.0156 73.7363 60.6163 73.7363 60.2077C73.7363 59.6637 73.5222 59.1418 73.1408 58.7556C72.7593 58.3694 72.2413 58.1501 71.6996 58.1455Z" fill="#2BC3F7" fill-opacity="0.44"/>
<path d="M2.05387 69.8757C1.64766 69.8757 1.25055 69.9967 0.912794 70.2232C0.575041 70.4498 0.311759 70.7719 0.156308 71.1487C0.00085795 71.5255 -0.0397719 71.9401 0.0394761 72.3402C0.118724 72.7402 0.31434 73.1076 0.601575 73.396C0.88881 73.6844 1.25474 73.8808 1.65315 73.9604C2.05156 74.0399 2.46457 73.9991 2.83986 73.843C3.21515 73.687 3.53588 73.4226 3.76156 73.0835C3.98724 72.7444 4.10771 72.3457 4.10771 71.9379C4.10771 71.3909 3.89134 70.8664 3.50617 70.4797C3.121 70.093 2.59859 69.8757 2.05387 69.8757Z" fill="#2BC3F7" fill-opacity="0.44"/>
<path d="M13.6683 69.8757C13.2621 69.8757 12.865 69.9967 12.5272 70.2232C12.1895 70.4498 11.9263 70.7719 11.7708 71.1487C11.6154 71.5255 11.5747 71.9401 11.6539 72.3402C11.7332 72.7402 11.9288 73.1076 12.216 73.396C12.5032 73.6844 12.8692 73.8808 13.2676 73.9604C13.666 74.0399 14.079 73.9991 14.4543 73.843C14.8296 73.687 15.1503 73.4226 15.376 73.0835C15.6017 72.7444 15.7221 72.3457 15.7221 71.9379C15.7221 71.3909 15.5058 70.8664 15.1206 70.4797C14.7354 70.093 14.213 69.8757 13.6683 69.8757Z" fill="#2BC3F7" fill-opacity="0.44"/>
<path d="M25.2691 69.8757C24.8629 69.8757 24.4658 69.9967 24.1281 70.2232C23.7903 70.4498 23.527 70.7719 23.3716 71.1487C23.2161 71.5255 23.1755 71.9401 23.2548 72.3402C23.334 72.7402 23.5296 73.1076 23.8169 73.396C24.1041 73.6844 24.47 73.8808 24.8684 73.9604C25.2668 74.0399 25.6798 73.9991 26.0551 73.843C26.4303 73.687 26.7512 73.4226 26.9768 73.0835C27.2025 72.7444 27.3229 72.3457 27.3229 71.9379C27.3229 71.3909 27.1065 70.8664 26.7214 70.4797C26.3362 70.093 25.8138 69.8757 25.2691 69.8757Z" fill="#2BC3F7" fill-opacity="0.44"/>
<path d="M36.8767 69.8757C36.4698 69.8723 36.071 69.9904 35.731 70.2149C35.391 70.4394 35.1251 70.7602 34.967 71.1367C34.8089 71.5132 34.7659 71.9284 34.8432 72.3295C34.9205 72.7307 35.1147 73.0997 35.4013 73.3898C35.6878 73.6799 36.0537 73.8781 36.4526 73.959C36.8514 74.04 37.2653 74.0002 37.6415 73.8446C38.0178 73.689 38.3396 73.4248 38.5661 73.0853C38.7925 72.7458 38.9134 72.3464 38.9134 71.9379C38.9134 71.3939 38.6994 70.872 38.3179 70.4857C37.9364 70.0995 37.4184 69.8802 36.8767 69.8757Z" fill="#2BC3F7" fill-opacity="0.44"/>
<path d="M48.4843 69.8757C48.0774 69.8723 47.6786 69.9904 47.3386 70.2149C46.9986 70.4394 46.7327 70.7602 46.5746 71.1367C46.4165 71.5132 46.3735 71.9284 46.4508 72.3295C46.5281 72.7307 46.7223 73.0997 47.0089 73.3898C47.2954 73.6799 47.6613 73.8781 48.0602 73.959C48.459 74.04 48.8729 74.0002 49.2491 73.8446C49.6254 73.689 49.9472 73.4248 50.1737 73.0853C50.4001 72.7458 50.521 72.3464 50.521 71.9379C50.521 71.3939 50.307 70.872 49.9256 70.4857C49.5441 70.0995 49.026 69.8802 48.4843 69.8757Z" fill="#2BC3F7" fill-opacity="0.44"/>
<path d="M60.092 69.8757C59.6858 69.8757 59.2887 69.9967 58.951 70.2232C58.6132 70.4498 58.3499 70.7719 58.1945 71.1487C58.039 71.5255 57.9984 71.9401 58.0776 72.3402C58.1569 72.7402 58.3525 73.1076 58.6397 73.396C58.927 73.6844 59.2929 73.8808 59.6913 73.9604C60.0897 74.0399 60.5027 73.9991 60.8779 73.843C61.2532 73.687 61.5741 73.4226 61.7997 73.0835C62.0254 72.7444 62.1459 72.3457 62.1459 71.9379C62.1459 71.3909 61.9294 70.8664 61.5443 70.4797C61.1591 70.093 60.6368 69.8757 60.092 69.8757Z" fill="#2BC3F7" fill-opacity="0.44"/>
<path d="M71.6996 69.8757C71.2927 69.8723 70.8939 69.9904 70.5539 70.2149C70.2139 70.4394 69.948 70.7602 69.7899 71.1367C69.6318 71.5132 69.5887 71.9284 69.666 72.3295C69.7434 72.7307 69.9376 73.0997 70.2241 73.3898C70.5107 73.6799 70.8766 73.8781 71.2755 73.959C71.6743 74.04 72.0881 74.0002 72.4644 73.8446C72.8407 73.689 73.1625 73.4248 73.389 73.0853C73.6154 72.7458 73.7363 72.3464 73.7363 71.9379C73.7363 71.3939 73.5222 70.872 73.1408 70.4857C72.7593 70.0995 72.2413 69.8802 71.6996 69.8757Z" fill="#2BC3F7" fill-opacity="0.44"/>
<path d="M83.3004 0.0309623C82.8942 0.0309623 82.4971 0.1519 82.1594 0.378492C81.8216 0.605083 81.5584 0.927135 81.4029 1.30394C81.2475 1.68075 81.2068 2.09539 81.2861 2.49541C81.3653 2.89542 81.5609 3.26286 81.8481 3.55125C82.1353 3.83965 82.5013 4.03605 82.8997 4.11562C83.2982 4.19519 83.7111 4.15435 84.0864 3.99827C84.4617 3.8422 84.7825 3.57787 85.0082 3.23875C85.2338 2.89964 85.3542 2.50096 85.3542 2.0931C85.3542 1.54619 85.1379 1.02166 84.7527 0.634938C84.3675 0.248211 83.8451 0.0309623 83.3004 0.0309623Z" fill="#2BC3F7" fill-opacity="0.44"/>
<path d="M94.9081 0.0309623C94.5019 0.0309623 94.1048 0.1519 93.767 0.378492C93.4292 0.605083 93.166 0.927135 93.0105 1.30394C92.8551 1.68075 92.8144 2.09539 92.8937 2.49541C92.9729 2.89542 93.1685 3.26286 93.4558 3.55125C93.743 3.83965 94.1089 4.03605 94.5074 4.11562C94.9058 4.19519 95.3188 4.15435 95.6941 3.99827C96.0694 3.8422 96.3901 3.57787 96.6158 3.23875C96.8414 2.89964 96.9619 2.50096 96.9619 2.0931C96.9619 1.54619 96.7455 1.02166 96.3604 0.634938C95.9752 0.248211 95.4528 0.0309623 94.9081 0.0309623Z" fill="#2BC3F7" fill-opacity="0.44"/>
<path d="M106.516 0.0309623C106.109 0.0309623 105.712 0.1519 105.375 0.378492C105.037 0.605083 104.774 0.927135 104.618 1.30394C104.463 1.68075 104.422 2.09539 104.501 2.49541C104.581 2.89542 104.776 3.26286 105.063 3.55125C105.351 3.83965 105.717 4.03605 106.115 4.11562C106.513 4.19519 106.926 4.15435 107.302 3.99827C107.677 3.8422 107.998 3.57787 108.223 3.23875C108.449 2.89964 108.569 2.50096 108.569 2.0931C108.569 1.54619 108.353 1.02166 107.968 0.634938C107.583 0.248211 107.06 0.0309623 106.516 0.0309623Z" fill="#2BC3F7" fill-opacity="0.44"/>
<path d="M118.123 0.0309501C117.716 0.0275452 117.318 0.145577 116.978 0.370088C116.638 0.5946 116.372 0.915458 116.214 1.29195C116.056 1.66845 116.012 2.08362 116.09 2.48476C116.167 2.8859 116.361 3.25493 116.648 3.54505C116.934 3.83517 117.3 4.03327 117.699 4.11425C118.098 4.19522 118.512 4.1554 118.888 3.99984C119.264 3.84427 119.586 3.57998 119.813 3.2405C120.039 2.90102 120.16 2.50167 120.16 2.09309C120.16 1.54914 119.946 1.0272 119.565 0.640967C119.183 0.25473 118.665 0.035483 118.123 0.0309501Z" fill="#2BC3F7" fill-opacity="0.44"/>
<path d="M129.731 0.0309623C129.325 0.0309623 128.928 0.1519 128.59 0.378492C128.252 0.605083 127.989 0.927135 127.833 1.30394C127.678 1.68075 127.637 2.09539 127.717 2.49541C127.796 2.89542 127.991 3.26286 128.279 3.55125C128.566 3.83965 128.932 4.03605 129.33 4.11562C129.729 4.19519 130.142 4.15435 130.517 3.99827C130.892 3.8422 131.213 3.57787 131.439 3.23875C131.664 2.89964 131.785 2.50096 131.785 2.0931C131.785 1.54619 131.568 1.02166 131.183 0.634938C130.798 0.248211 130.276 0.0309623 129.731 0.0309623Z" fill="#2BC3F7" fill-opacity="0.44"/>
<path d="M141.349 0.0309623C140.943 0.0309623 140.545 0.1519 140.208 0.378492C139.87 0.605083 139.607 0.927135 139.451 1.30394C139.296 1.68075 139.255 2.09539 139.334 2.49541C139.414 2.89542 139.609 3.26286 139.897 3.55125C140.184 3.83965 140.55 4.03605 140.948 4.11562C141.346 4.19519 141.76 4.15435 142.135 3.99827C142.51 3.8422 142.831 3.57787 143.057 3.23875C143.282 2.89964 143.403 2.50096 143.403 2.0931C143.403 1.54619 143.186 1.02166 142.801 0.634938C142.416 0.248211 141.894 0.0309623 141.349 0.0309623Z" fill="#2BC3F7" fill-opacity="0.44"/>
<path d="M152.946 4.12428C153.352 4.12428 153.749 4.00335 154.087 3.77675C154.425 3.55016 154.688 3.22809 154.844 2.85128C154.999 2.47448 155.04 2.05986 154.961 1.65984C154.881 1.25982 154.686 0.892391 154.398 0.603995C154.111 0.315599 153.745 0.119193 153.347 0.0396248C152.948 -0.0399435 152.536 0.000892514 152.16 0.156971C151.785 0.31305 151.464 0.577354 151.238 0.916472C151.013 1.25559 150.892 1.65429 150.892 2.06214C150.892 2.60906 151.109 3.13356 151.494 3.52029C151.879 3.90701 152.401 4.12428 152.946 4.12428Z" fill="#2BC3F7" fill-opacity="0.44"/>
<path d="M83.3004 11.682C82.8942 11.682 82.4971 11.803 82.1594 12.0296C81.8216 12.2562 81.5584 12.5782 81.4029 12.955C81.2475 13.3318 81.2068 13.7465 81.2861 14.1465C81.3653 14.5465 81.5609 14.9139 81.8481 15.2023C82.1353 15.4907 82.5013 15.6871 82.8997 15.7667C83.2982 15.8463 83.7111 15.8054 84.0864 15.6493C84.4617 15.4933 84.7825 15.229 85.0082 14.8898C85.2338 14.5507 85.3542 14.152 85.3542 13.7442C85.3542 13.1973 85.1379 12.6728 84.7527 12.286C84.3675 11.8993 83.8451 11.682 83.3004 11.682Z" fill="#2BC3F7" fill-opacity="0.44"/>
<path d="M94.9081 11.682C94.5019 11.682 94.1048 11.803 93.767 12.0296C93.4292 12.2562 93.166 12.5782 93.0105 12.955C92.8551 13.3318 92.8144 13.7465 92.8937 14.1465C92.9729 14.5465 93.1685 14.9139 93.4558 15.2023C93.743 15.4907 94.1089 15.6871 94.5074 15.7667C94.9058 15.8463 95.3188 15.8054 95.6941 15.6493C96.0694 15.4933 96.3901 15.229 96.6158 14.8898C96.8414 14.5507 96.9619 14.152 96.9619 13.7442C96.9619 13.1973 96.7455 12.6728 96.3604 12.286C95.9752 11.8993 95.4528 11.682 94.9081 11.682Z" fill="#2BC3F7" fill-opacity="0.44"/>
<path d="M106.516 11.682C106.109 11.682 105.712 11.803 105.375 12.0296C105.037 12.2562 104.774 12.5782 104.618 12.955C104.463 13.3318 104.422 13.7465 104.501 14.1465C104.581 14.5465 104.776 14.9139 105.063 15.2023C105.351 15.4907 105.717 15.6871 106.115 15.7667C106.513 15.8463 106.926 15.8054 107.302 15.6493C107.677 15.4933 107.998 15.229 108.223 14.8898C108.449 14.5507 108.569 14.152 108.569 13.7442C108.569 13.1973 108.353 12.6728 107.968 12.286C107.583 11.8993 107.06 11.682 106.516 11.682Z" fill="#2BC3F7" fill-opacity="0.44"/>
<path d="M118.123 11.682C117.716 11.6786 117.318 11.7967 116.978 12.0212C116.638 12.2457 116.372 12.5666 116.214 12.943C116.056 13.3195 116.012 13.7347 116.09 14.1358C116.167 14.537 116.361 14.906 116.648 15.1961C116.934 15.4863 117.3 15.6844 117.699 15.7653C118.098 15.8463 118.512 15.8065 118.888 15.6509C119.264 15.4954 119.586 15.2311 119.813 14.8916C120.039 14.5521 120.16 14.1527 120.16 13.7442C120.16 13.2002 119.946 12.6783 119.565 12.2921C119.183 11.9058 118.665 11.6866 118.123 11.682Z" fill="#2BC3F7" fill-opacity="0.44"/>
<path d="M129.731 11.682C129.325 11.682 128.928 11.803 128.59 12.0296C128.252 12.2562 127.989 12.5782 127.833 12.955C127.678 13.3318 127.637 13.7465 127.717 14.1465C127.796 14.5465 127.991 14.9139 128.279 15.2023C128.566 15.4907 128.932 15.6871 129.33 15.7667C129.729 15.8463 130.142 15.8054 130.517 15.6493C130.892 15.4933 131.213 15.229 131.439 14.8898C131.664 14.5507 131.785 14.152 131.785 13.7442C131.785 13.1973 131.568 12.6728 131.183 12.286C130.798 11.8993 130.276 11.682 129.731 11.682Z" fill="#2BC3F7" fill-opacity="0.44"/>
<path d="M141.349 11.682C140.943 11.682 140.545 11.803 140.208 12.0296C139.87 12.2562 139.607 12.5782 139.451 12.955C139.296 13.3318 139.255 13.7465 139.334 14.1465C139.414 14.5465 139.609 14.9139 139.897 15.2023C140.184 15.4907 140.55 15.6871 140.948 15.7667C141.346 15.8463 141.76 15.8054 142.135 15.6493C142.51 15.4933 142.831 15.229 143.057 14.8898C143.282 14.5507 143.403 14.152 143.403 13.7442C143.403 13.1973 143.186 12.6728 142.801 12.286C142.416 11.8993 141.894 11.682 141.349 11.682Z" fill="#2BC3F7" fill-opacity="0.44"/>
<path d="M152.946 11.682C152.539 11.6786 152.14 11.7967 151.8 12.0212C151.46 12.2457 151.195 12.5666 151.037 12.943C150.878 13.3195 150.835 13.7347 150.913 14.1358C150.99 14.537 151.184 14.906 151.471 15.1961C151.757 15.4863 152.123 15.6844 152.522 15.7653C152.921 15.8463 153.335 15.8065 153.711 15.6509C154.087 15.4954 154.409 15.2311 154.636 14.8916C154.862 14.5521 154.983 14.1527 154.983 13.7442C154.983 13.2002 154.769 12.6783 154.387 12.2921C154.006 11.9058 153.488 11.6866 152.946 11.682Z" fill="#2BC3F7" fill-opacity="0.44"/>
<path d="M83.3004 23.2609C82.8942 23.2609 82.4971 23.3819 82.1594 23.6085C81.8216 23.8351 81.5584 24.1571 81.4029 24.5339C81.2475 24.9108 81.2068 25.3254 81.2861 25.7254C81.3653 26.1254 81.5609 26.4929 81.8481 26.7813C82.1353 27.0696 82.5013 27.266 82.8997 27.3456C83.2982 27.4252 83.7111 27.3843 84.0864 27.2283C84.4617 27.0722 84.7825 26.8079 85.0082 26.4688C85.2338 26.1296 85.3542 25.7309 85.3542 25.3231C85.3542 24.7762 85.1379 24.2517 84.7527 23.8649C84.3675 23.4782 83.8451 23.2609 83.3004 23.2609Z" fill="#2BC3F7" fill-opacity="0.44"/>
<path d="M94.9081 23.2609C94.5019 23.2609 94.1048 23.3819 93.767 23.6085C93.4292 23.8351 93.166 24.1571 93.0105 24.5339C92.8551 24.9108 92.8144 25.3254 92.8937 25.7254C92.9729 26.1254 93.1685 26.4929 93.4558 26.7813C93.743 27.0696 94.1089 27.266 94.5074 27.3456C94.9058 27.4252 95.3188 27.3843 95.6941 27.2283C96.0694 27.0722 96.3901 26.8079 96.6158 26.4688C96.8414 26.1296 96.9619 25.7309 96.9619 25.3231C96.9619 24.7762 96.7455 24.2517 96.3604 23.8649C95.9752 23.4782 95.4528 23.2609 94.9081 23.2609Z" fill="#2BC3F7" fill-opacity="0.44"/>
<path d="M106.516 23.2609C106.109 23.2609 105.712 23.3819 105.375 23.6085C105.037 23.8351 104.774 24.1571 104.618 24.5339C104.463 24.9108 104.422 25.3254 104.501 25.7254C104.581 26.1254 104.776 26.4929 105.063 26.7813C105.351 27.0696 105.717 27.266 106.115 27.3456C106.513 27.4252 106.926 27.3843 107.302 27.2283C107.677 27.0722 107.998 26.8079 108.223 26.4688C108.449 26.1296 108.569 25.7309 108.569 25.3231C108.569 24.7762 108.353 24.2517 107.968 23.8649C107.583 23.4782 107.06 23.2609 106.516 23.2609Z" fill="#2BC3F7" fill-opacity="0.44"/>
<path d="M118.123 23.261C117.716 23.2576 117.318 23.3756 116.978 23.6001C116.638 23.8246 116.372 24.1455 116.214 24.522C116.056 24.8985 116.012 25.3136 116.09 25.7148C116.167 26.1159 116.361 26.485 116.648 26.7751C116.934 27.0652 117.3 27.2633 117.699 27.3443C118.098 27.4253 118.512 27.3854 118.888 27.2299C119.264 27.0743 119.586 26.81 119.813 26.4705C120.039 26.1311 120.16 25.7317 120.16 25.3231C120.16 24.7792 119.946 24.2572 119.565 23.871C119.183 23.4848 118.665 23.2655 118.123 23.261Z" fill="#2BC3F7" fill-opacity="0.44"/>
<path d="M129.731 23.2609C129.325 23.2609 128.928 23.3819 128.59 23.6085C128.252 23.8351 127.989 24.1571 127.833 24.5339C127.678 24.9108 127.637 25.3254 127.717 25.7254C127.796 26.1254 127.991 26.4929 128.279 26.7813C128.566 27.0696 128.932 27.266 129.33 27.3456C129.729 27.4252 130.142 27.3843 130.517 27.2283C130.892 27.0722 131.213 26.8079 131.439 26.4688C131.664 26.1296 131.785 25.7309 131.785 25.3231C131.785 24.7762 131.568 24.2517 131.183 23.8649C130.798 23.4782 130.276 23.2609 129.731 23.2609Z" fill="#2BC3F7" fill-opacity="0.44"/>
<path d="M141.349 23.2609C140.943 23.2609 140.545 23.3819 140.208 23.6085C139.87 23.8351 139.607 24.1571 139.451 24.5339C139.296 24.9108 139.255 25.3254 139.334 25.7254C139.414 26.1254 139.609 26.4929 139.897 26.7813C140.184 27.0696 140.55 27.266 140.948 27.3456C141.346 27.4252 141.76 27.3843 142.135 27.2283C142.51 27.0722 142.831 26.8079 143.057 26.4688C143.282 26.1296 143.403 25.7309 143.403 25.3231C143.403 24.7762 143.186 24.2517 142.801 23.8649C142.416 23.4782 141.894 23.2609 141.349 23.2609Z" fill="#2BC3F7" fill-opacity="0.44"/>
<path d="M152.946 23.261C152.539 23.2576 152.14 23.3756 151.8 23.6001C151.46 23.8246 151.195 24.1455 151.037 24.522C150.878 24.8985 150.835 25.3136 150.913 25.7148C150.99 26.1159 151.184 26.485 151.471 26.7751C151.757 27.0652 152.123 27.2633 152.522 27.3443C152.921 27.4253 153.335 27.3854 153.711 27.2299C154.087 27.0743 154.409 26.81 154.636 26.4705C154.862 26.1311 154.983 25.7317 154.983 25.3231C154.983 24.7792 154.769 24.2572 154.387 23.871C154.006 23.4848 153.488 23.2655 152.946 23.261Z" fill="#2BC3F7" fill-opacity="0.44"/>
<path d="M83.3004 34.9155C82.8942 34.9155 82.4971 35.0365 82.1594 35.2631C81.8216 35.4897 81.5584 35.8117 81.4029 36.1885C81.2475 36.5653 81.2068 36.98 81.2861 37.38C81.3653 37.78 81.5609 38.1474 81.8481 38.4358C82.1353 38.7242 82.5013 38.9206 82.8997 39.0002C83.2982 39.0798 83.7111 39.0389 84.0864 38.8829C84.4617 38.7268 84.7825 38.4624 85.0082 38.1233C85.2338 37.7842 85.3542 37.3855 85.3542 36.9777C85.3542 36.4308 85.1379 35.9062 84.7527 35.5195C84.3675 35.1328 83.8451 34.9155 83.3004 34.9155Z" fill="#2BC3F7" fill-opacity="0.44"/>
<path d="M94.9081 34.9155C94.5019 34.9155 94.1048 35.0365 93.767 35.2631C93.4292 35.4897 93.166 35.8117 93.0105 36.1885C92.8551 36.5653 92.8144 36.98 92.8937 37.38C92.9729 37.78 93.1685 38.1474 93.4558 38.4358C93.743 38.7242 94.1089 38.9206 94.5074 39.0002C94.9058 39.0798 95.3188 39.0389 95.6941 38.8829C96.0694 38.7268 96.3901 38.4624 96.6158 38.1233C96.8414 37.7842 96.9619 37.3855 96.9619 36.9777C96.9619 36.4308 96.7455 35.9062 96.3604 35.5195C95.9752 35.1328 95.4528 34.9155 94.9081 34.9155Z" fill="#2BC3F7" fill-opacity="0.44"/>
<path d="M106.516 34.9155C106.109 34.9155 105.712 35.0365 105.375 35.2631C105.037 35.4897 104.774 35.8117 104.618 36.1885C104.463 36.5653 104.422 36.98 104.501 37.38C104.581 37.78 104.776 38.1474 105.063 38.4358C105.351 38.7242 105.717 38.9206 106.115 39.0002C106.513 39.0798 106.926 39.0389 107.302 38.8829C107.677 38.7268 107.998 38.4624 108.223 38.1233C108.449 37.7842 108.569 37.3855 108.569 36.9777C108.569 36.4308 108.353 35.9062 107.968 35.5195C107.583 35.1328 107.06 34.9155 106.516 34.9155Z" fill="#2BC3F7" fill-opacity="0.44"/>
<path d="M118.123 34.9155C117.716 34.9121 117.318 35.0302 116.978 35.2547C116.638 35.4792 116.372 35.8 116.214 36.1765C116.056 36.553 116.012 36.9682 116.09 37.3693C116.167 37.7705 116.361 38.1395 116.648 38.4296C116.934 38.7197 117.3 38.9179 117.699 38.9988C118.098 39.0798 118.512 39.04 118.888 38.8844C119.264 38.7289 119.586 38.4646 119.813 38.1251C120.039 37.7856 120.16 37.3863 120.16 36.9777C120.16 36.4337 119.946 35.9118 119.565 35.5255C119.183 35.1393 118.665 34.9201 118.123 34.9155Z" fill="#2BC3F7" fill-opacity="0.44"/>
<path d="M129.731 34.9155C129.325 34.9155 128.928 35.0365 128.59 35.2631C128.252 35.4897 127.989 35.8117 127.833 36.1885C127.678 36.5653 127.637 36.98 127.717 37.38C127.796 37.78 127.991 38.1474 128.279 38.4358C128.566 38.7242 128.932 38.9206 129.33 39.0002C129.729 39.0798 130.142 39.0389 130.517 38.8829C130.892 38.7268 131.213 38.4624 131.439 38.1233C131.664 37.7842 131.785 37.3855 131.785 36.9777C131.785 36.4308 131.568 35.9062 131.183 35.5195C130.798 35.1328 130.276 34.9155 129.731 34.9155Z" fill="#2BC3F7" fill-opacity="0.44"/>
<path d="M141.349 34.9155C140.943 34.9155 140.545 35.0365 140.208 35.2631C139.87 35.4897 139.607 35.8117 139.451 36.1885C139.296 36.5653 139.255 36.98 139.334 37.38C139.414 37.78 139.609 38.1474 139.897 38.4358C140.184 38.7242 140.55 38.9206 140.948 39.0002C141.346 39.0798 141.76 39.0389 142.135 38.8829C142.51 38.7268 142.831 38.4624 143.057 38.1233C143.282 37.7842 143.403 37.3855 143.403 36.9777C143.403 36.4308 143.186 35.9062 142.801 35.5195C142.416 35.1328 141.894 34.9155 141.349 34.9155Z" fill="#2BC3F7" fill-opacity="0.44"/>
<path d="M152.946 34.9155C152.539 34.9121 152.14 35.0302 151.8 35.2547C151.46 35.4792 151.195 35.8 151.037 36.1765C150.878 36.553 150.835 36.9682 150.913 37.3693C150.99 37.7705 151.184 38.1395 151.471 38.4296C151.757 38.7197 152.123 38.9179 152.522 38.9988C152.921 39.0798 153.335 39.04 153.711 38.8844C154.087 38.7289 154.409 38.4646 154.636 38.1251C154.862 37.7856 154.983 37.3863 154.983 36.9777C154.983 36.4337 154.769 35.9118 154.387 35.5255C154.006 35.1393 153.488 34.9201 152.946 34.9155Z" fill="#2BC3F7" fill-opacity="0.44"/>
<path d="M83.3004 46.5666C82.8942 46.5666 82.4971 46.6875 82.1594 46.9141C81.8216 47.1407 81.5584 47.4628 81.4029 47.8396C81.2475 48.2164 81.2068 48.631 81.2861 49.0311C81.3653 49.4311 81.5609 49.7985 81.8481 50.0869C82.1353 50.3753 82.5013 50.5717 82.8997 50.6513C83.2982 50.7308 83.7111 50.69 84.0864 50.5339C84.4617 50.3778 84.7825 50.1135 85.0082 49.7744C85.2338 49.4353 85.3542 49.0366 85.3542 48.6288C85.3542 48.0818 85.1379 47.5573 84.7527 47.1706C84.3675 46.7839 83.8451 46.5666 83.3004 46.5666Z" fill="#2BC3F7" fill-opacity="0.44"/>
<path d="M94.9081 46.5666C94.5019 46.5666 94.1048 46.6875 93.767 46.9141C93.4292 47.1407 93.166 47.4628 93.0105 47.8396C92.8551 48.2164 92.8144 48.631 92.8937 49.0311C92.9729 49.4311 93.1685 49.7985 93.4558 50.0869C93.743 50.3753 94.1089 50.5717 94.5074 50.6513C94.9058 50.7308 95.3188 50.69 95.6941 50.5339C96.0694 50.3778 96.3901 50.1135 96.6158 49.7744C96.8414 49.4353 96.9619 49.0366 96.9619 48.6288C96.9619 48.0818 96.7455 47.5573 96.3604 47.1706C95.9752 46.7839 95.4528 46.5666 94.9081 46.5666Z" fill="#2BC3F7" fill-opacity="0.44"/>
<path d="M106.516 46.5666C106.109 46.5666 105.712 46.6875 105.375 46.9141C105.037 47.1407 104.774 47.4628 104.618 47.8396C104.463 48.2164 104.422 48.631 104.501 49.0311C104.581 49.4311 104.776 49.7985 105.063 50.0869C105.351 50.3753 105.717 50.5717 106.115 50.6513C106.513 50.7308 106.926 50.69 107.302 50.5339C107.677 50.3778 107.998 50.1135 108.223 49.7744C108.449 49.4353 108.569 49.0366 108.569 48.6288C108.569 48.0818 108.353 47.5573 107.968 47.1706C107.583 46.7839 107.06 46.5666 106.516 46.5666Z" fill="#2BC3F7" fill-opacity="0.44"/>
<path d="M118.123 46.5666C117.716 46.5632 117.318 46.6812 116.978 46.9058C116.638 47.1303 116.372 47.4511 116.214 47.8276C116.056 48.2041 116.012 48.6193 116.09 49.0204C116.167 49.4216 116.361 49.7906 116.648 50.0807C116.934 50.3708 117.3 50.5689 117.699 50.6499C118.098 50.7309 118.512 50.6911 118.888 50.5355C119.264 50.3799 119.586 50.1157 119.813 49.7762C120.039 49.4367 120.16 49.0373 120.16 48.6287C120.16 48.0848 119.946 47.5629 119.565 47.1766C119.183 46.7904 118.665 46.5711 118.123 46.5666Z" fill="#2BC3F7" fill-opacity="0.44"/>
<path d="M129.731 46.5666C129.325 46.5666 128.928 46.6875 128.59 46.9141C128.252 47.1407 127.989 47.4628 127.833 47.8396C127.678 48.2164 127.637 48.631 127.717 49.0311C127.796 49.4311 127.991 49.7985 128.279 50.0869C128.566 50.3753 128.932 50.5717 129.33 50.6513C129.729 50.7308 130.142 50.69 130.517 50.5339C130.892 50.3778 131.213 50.1135 131.439 49.7744C131.664 49.4353 131.785 49.0366 131.785 48.6288C131.785 48.0818 131.568 47.5573 131.183 47.1706C130.798 46.7839 130.276 46.5666 129.731 46.5666Z" fill="#2BC3F7" fill-opacity="0.44"/>
<path d="M141.349 46.5666C140.943 46.5666 140.545 46.6875 140.208 46.9141C139.87 47.1407 139.607 47.4628 139.451 47.8396C139.296 48.2164 139.255 48.631 139.334 49.0311C139.414 49.4311 139.609 49.7985 139.897 50.0869C140.184 50.3753 140.55 50.5717 140.948 50.6513C141.346 50.7308 141.76 50.69 142.135 50.5339C142.51 50.3778 142.831 50.1135 143.057 49.7744C143.282 49.4353 143.403 49.0366 143.403 48.6288C143.403 48.0818 143.186 47.5573 142.801 47.1706C142.416 46.7839 141.894 46.5666 141.349 46.5666Z" fill="#2BC3F7" fill-opacity="0.44"/>
<path d="M152.946 46.5666C152.539 46.5632 152.14 46.6812 151.8 46.9058C151.46 47.1303 151.195 47.4511 151.037 47.8276C150.878 48.2041 150.835 48.6193 150.913 49.0204C150.99 49.4216 151.184 49.7906 151.471 50.0807C151.757 50.3708 152.123 50.5689 152.522 50.6499C152.921 50.7309 153.335 50.6911 153.711 50.5355C154.087 50.3799 154.409 50.1157 154.636 49.7762C154.862 49.4367 154.983 49.0373 154.983 48.6287C154.983 48.0848 154.769 47.5629 154.387 47.1766C154.006 46.7904 153.488 46.5711 152.946 46.5666Z" fill="#2BC3F7" fill-opacity="0.44"/>
<path d="M83.3004 58.1455C82.8942 58.1455 82.4971 58.2665 82.1594 58.493C81.8216 58.7196 81.5584 59.0417 81.4029 59.4185C81.2475 59.7953 81.2068 60.2099 81.2861 60.61C81.3653 61.01 81.5609 61.3774 81.8481 61.6658C82.1353 61.9542 82.5013 62.1506 82.8997 62.2302C83.2982 62.3097 83.7111 62.2689 84.0864 62.1128C84.4617 61.9568 84.7825 61.6925 85.0082 61.3533C85.2338 61.0142 85.3542 60.6155 85.3542 60.2077C85.3542 59.6607 85.1379 59.1362 84.7527 58.7495C84.3675 58.3628 83.8451 58.1455 83.3004 58.1455Z" fill="#2BC3F7" fill-opacity="0.44"/>
<path d="M94.9081 58.1455C94.5019 58.1455 94.1048 58.2665 93.767 58.493C93.4292 58.7196 93.166 59.0417 93.0105 59.4185C92.8551 59.7953 92.8144 60.2099 92.8937 60.61C92.9729 61.01 93.1685 61.3774 93.4558 61.6658C93.743 61.9542 94.1089 62.1506 94.5074 62.2302C94.9058 62.3097 95.3188 62.2689 95.6941 62.1128C96.0694 61.9568 96.3901 61.6925 96.6158 61.3533C96.8414 61.0142 96.9619 60.6155 96.9619 60.2077C96.9619 59.6607 96.7455 59.1362 96.3604 58.7495C95.9752 58.3628 95.4528 58.1455 94.9081 58.1455Z" fill="#2BC3F7" fill-opacity="0.44"/>
<path d="M106.516 58.1455C106.109 58.1455 105.712 58.2665 105.375 58.493C105.037 58.7196 104.774 59.0417 104.618 59.4185C104.463 59.7953 104.422 60.2099 104.501 60.61C104.581 61.01 104.776 61.3774 105.063 61.6658C105.351 61.9542 105.717 62.1506 106.115 62.2302C106.513 62.3097 106.926 62.2689 107.302 62.1128C107.677 61.9568 107.998 61.6925 108.223 61.3533C108.449 61.0142 108.569 60.6155 108.569 60.2077C108.569 59.6607 108.353 59.1362 107.968 58.7495C107.583 58.3628 107.06 58.1455 106.516 58.1455Z" fill="#2BC3F7" fill-opacity="0.44"/>
<path d="M118.123 58.1455C117.716 58.1421 117.318 58.2602 116.978 58.4847C116.638 58.7092 116.372 59.0301 116.214 59.4066C116.056 59.7831 116.012 60.1982 116.09 60.5994C116.167 61.0005 116.361 61.3696 116.648 61.6597C116.934 61.9498 117.3 62.1479 117.699 62.2289C118.098 62.3098 118.512 62.27 118.888 62.1145C119.264 61.9589 119.586 61.6946 119.813 61.3551C120.039 61.0156 120.16 60.6163 120.16 60.2077C120.16 59.6637 119.946 59.1418 119.565 58.7556C119.183 58.3694 118.665 58.1501 118.123 58.1455Z" fill="#2BC3F7" fill-opacity="0.44"/>
<path d="M129.731 58.1455C129.325 58.1455 128.928 58.2665 128.59 58.493C128.252 58.7196 127.989 59.0417 127.833 59.4185C127.678 59.7953 127.637 60.2099 127.717 60.61C127.796 61.01 127.991 61.3774 128.279 61.6658C128.566 61.9542 128.932 62.1506 129.33 62.2302C129.729 62.3097 130.142 62.2689 130.517 62.1128C130.892 61.9568 131.213 61.6925 131.439 61.3533C131.664 61.0142 131.785 60.6155 131.785 60.2077C131.785 59.6607 131.568 59.1362 131.183 58.7495C130.798 58.3628 130.276 58.1455 129.731 58.1455Z" fill="#2BC3F7" fill-opacity="0.44"/>
<path d="M141.349 58.1455C140.943 58.1455 140.545 58.2665 140.208 58.493C139.87 58.7196 139.607 59.0417 139.451 59.4185C139.296 59.7953 139.255 60.2099 139.334 60.61C139.414 61.01 139.609 61.3774 139.897 61.6658C140.184 61.9542 140.55 62.1506 140.948 62.2302C141.346 62.3097 141.76 62.2689 142.135 62.1128C142.51 61.9568 142.831 61.6925 143.057 61.3533C143.282 61.0142 143.403 60.6155 143.403 60.2077C143.403 59.6607 143.186 59.1362 142.801 58.7495C142.416 58.3628 141.894 58.1455 141.349 58.1455Z" fill="#2BC3F7" fill-opacity="0.44"/>
<path d="M152.946 58.1455C152.539 58.1421 152.14 58.2602 151.8 58.4847C151.46 58.7092 151.195 59.0301 151.037 59.4066C150.878 59.7831 150.835 60.1982 150.913 60.5994C150.99 61.0005 151.184 61.3696 151.471 61.6597C151.757 61.9498 152.123 62.1479 152.522 62.2289C152.921 62.3098 153.335 62.27 153.711 62.1145C154.087 61.9589 154.409 61.6946 154.636 61.3551C154.862 61.0156 154.983 60.6163 154.983 60.2077C154.983 59.6637 154.769 59.1418 154.387 58.7556C154.006 58.3694 153.488 58.1501 152.946 58.1455Z" fill="#2BC3F7" fill-opacity="0.44"/>
<path d="M83.3004 69.8757C82.8942 69.8757 82.4971 69.9967 82.1594 70.2232C81.8216 70.4498 81.5584 70.7719 81.4029 71.1487C81.2475 71.5255 81.2068 71.9401 81.2861 72.3402C81.3653 72.7402 81.5609 73.1076 81.8481 73.396C82.1353 73.6844 82.5013 73.8808 82.8997 73.9604C83.2982 74.0399 83.7111 73.9991 84.0864 73.843C84.4617 73.687 84.7825 73.4226 85.0082 73.0835C85.2338 72.7444 85.3542 72.3457 85.3542 71.9379C85.3542 71.3909 85.1379 70.8664 84.7527 70.4797C84.3675 70.093 83.8451 69.8757 83.3004 69.8757Z" fill="#2BC3F7" fill-opacity="0.44"/>
<path d="M94.9081 69.8757C94.5019 69.8757 94.1048 69.9967 93.767 70.2232C93.4292 70.4498 93.166 70.7719 93.0105 71.1487C92.8551 71.5255 92.8144 71.9401 92.8937 72.3402C92.9729 72.7402 93.1685 73.1076 93.4558 73.396C93.743 73.6844 94.1089 73.8808 94.5074 73.9604C94.9058 74.0399 95.3188 73.9991 95.6941 73.843C96.0694 73.687 96.3901 73.4226 96.6158 73.0835C96.8414 72.7444 96.9619 72.3457 96.9619 71.9379C96.9619 71.3909 96.7455 70.8664 96.3604 70.4797C95.9752 70.093 95.4528 69.8757 94.9081 69.8757Z" fill="#2BC3F7" fill-opacity="0.44"/>
<path d="M106.516 69.8757C106.109 69.8757 105.712 69.9967 105.375 70.2232C105.037 70.4498 104.774 70.7719 104.618 71.1487C104.463 71.5255 104.422 71.9401 104.501 72.3402C104.581 72.7402 104.776 73.1076 105.063 73.396C105.351 73.6844 105.717 73.8808 106.115 73.9604C106.513 74.0399 106.926 73.9991 107.302 73.843C107.677 73.687 107.998 73.4226 108.223 73.0835C108.449 72.7444 108.569 72.3457 108.569 71.9379C108.569 71.3909 108.353 70.8664 107.968 70.4797C107.583 70.093 107.06 69.8757 106.516 69.8757Z" fill="#2BC3F7" fill-opacity="0.44"/>
<path d="M118.123 69.8757C117.716 69.8723 117.318 69.9904 116.978 70.2149C116.638 70.4394 116.372 70.7602 116.214 71.1367C116.056 71.5132 116.012 71.9284 116.09 72.3295C116.167 72.7307 116.361 73.0997 116.648 73.3898C116.934 73.6799 117.3 73.8781 117.699 73.959C118.098 74.04 118.512 74.0002 118.888 73.8446C119.264 73.689 119.586 73.4248 119.813 73.0853C120.039 72.7458 120.16 72.3464 120.16 71.9379C120.16 71.3939 119.946 70.872 119.565 70.4857C119.183 70.0995 118.665 69.8802 118.123 69.8757Z" fill="#2BC3F7" fill-opacity="0.44"/>
<path d="M129.731 69.8757C129.325 69.8757 128.928 69.9967 128.59 70.2232C128.252 70.4498 127.989 70.7719 127.833 71.1487C127.678 71.5255 127.637 71.9401 127.717 72.3402C127.796 72.7402 127.991 73.1076 128.279 73.396C128.566 73.6844 128.932 73.8808 129.33 73.9604C129.729 74.0399 130.142 73.9991 130.517 73.843C130.892 73.687 131.213 73.4226 131.439 73.0835C131.664 72.7444 131.785 72.3457 131.785 71.9379C131.785 71.3909 131.568 70.8664 131.183 70.4797C130.798 70.093 130.276 69.8757 129.731 69.8757Z" fill="#2BC3F7" fill-opacity="0.44"/>
<path d="M141.349 69.8757C140.943 69.8757 140.545 69.9967 140.208 70.2232C139.87 70.4498 139.607 70.7719 139.451 71.1487C139.296 71.5255 139.255 71.9401 139.334 72.3402C139.414 72.7402 139.609 73.1076 139.897 73.396C140.184 73.6844 140.55 73.8808 140.948 73.9604C141.346 74.0399 141.76 73.9991 142.135 73.843C142.51 73.687 142.831 73.4226 143.057 73.0835C143.282 72.7444 143.403 72.3457 143.403 71.9379C143.403 71.3909 143.186 70.8664 142.801 70.4797C142.416 70.093 141.894 69.8757 141.349 69.8757Z" fill="#2BC3F7" fill-opacity="0.44"/>
<path d="M152.946 69.8757C152.539 69.8723 152.14 69.9904 151.8 70.2149C151.46 70.4394 151.195 70.7602 151.037 71.1367C150.878 71.5132 150.835 71.9284 150.913 72.3295C150.99 72.7307 151.184 73.0997 151.471 73.3898C151.757 73.6799 152.123 73.8781 152.522 73.959C152.921 74.04 153.335 74.0002 153.711 73.8446C154.087 73.689 154.409 73.4248 154.636 73.0853C154.862 72.7458 154.983 72.3464 154.983 71.9379C154.983 71.3939 154.769 70.872 154.387 70.4857C154.006 70.0995 153.488 69.8802 152.946 69.8757Z" fill="#2BC3F7" fill-opacity="0.44"/>
</svg>
