<svg width="79" height="165" viewBox="0 0 79 165" fill="none" xmlns="http://www.w3.org/2000/svg">
<path d="M0.0330544 162.814C0.0330544 163.246 0.162164 163.669 0.404065 164.028C0.645967 164.388 0.98978 164.668 1.39205 164.834C1.79431 164.999 2.23697 165.042 2.66401 164.958C3.09106 164.874 3.48332 164.665 3.7912 164.36C4.09908 164.054 4.30876 163.664 4.3937 163.24C4.47865 162.816 4.43505 162.376 4.26843 161.977C4.1018 161.577 3.81962 161.236 3.45759 160.996C3.09556 160.756 2.66994 160.627 2.23453 160.627C1.65066 160.627 1.0907 160.858 0.677839 161.268C0.264982 161.678 0.0330544 162.234 0.0330544 162.814Z" fill="#93D9C7"/>
<path d="M0.0330544 150.45C0.0330544 150.882 0.162164 151.305 0.404065 151.665C0.645967 152.024 0.98978 152.304 1.39205 152.47C1.79431 152.635 2.23697 152.679 2.66401 152.594C3.09106 152.51 3.48332 152.302 3.7912 151.996C4.09908 151.69 4.30876 151.301 4.3937 150.876C4.47865 150.452 4.43505 150.013 4.26843 149.613C4.1018 149.214 3.81962 148.872 3.45759 148.632C3.09556 148.392 2.66994 148.264 2.23453 148.264C1.65066 148.264 1.0907 148.494 0.677839 148.904C0.264982 149.314 0.0330544 149.87 0.0330544 150.45Z" fill="#93D9C7"/>
<path d="M0.0330544 138.101C0.0330544 138.533 0.162164 138.956 0.404065 139.315C0.645967 139.675 0.98978 139.955 1.39205 140.121C1.79431 140.286 2.23697 140.329 2.66401 140.245C3.09106 140.161 3.48332 139.952 3.7912 139.647C4.09908 139.341 4.30876 138.951 4.3937 138.527C4.47865 138.103 4.43505 137.663 4.26843 137.264C4.1018 136.864 3.81962 136.523 3.45759 136.283C3.09556 136.042 2.66994 135.914 2.23453 135.914C1.65066 135.914 1.0907 136.145 0.677839 136.555C0.264982 136.965 0.0330544 137.521 0.0330544 138.101Z" fill="#93D9C7"/>
<path d="M0.0330413 125.744C0.0294064 126.177 0.155413 126.602 0.395094 126.964C0.634775 127.326 0.977313 127.609 1.37925 127.777C1.78118 127.945 2.2244 127.991 2.65265 127.909C3.08089 127.827 3.47486 127.62 3.78458 127.315C4.0943 127.01 4.30579 126.62 4.39224 126.196C4.47868 125.771 4.43617 125.331 4.2701 124.93C4.10402 124.529 3.82187 124.187 3.45946 123.946C3.09704 123.705 2.67071 123.576 2.23452 123.576C1.65381 123.576 1.09661 123.804 0.684276 124.21C0.271942 124.616 0.0378805 125.167 0.0330413 125.744Z" fill="#93D9C7"/>
<path d="M0.0330413 113.388C0.0294064 113.821 0.155413 114.245 0.395094 114.607C0.634775 114.969 0.977313 115.252 1.37925 115.421C1.78118 115.589 2.2244 115.635 2.65265 115.552C3.08089 115.47 3.47486 115.263 3.78458 114.958C4.0943 114.653 4.30579 114.264 4.39224 113.839C4.47868 113.415 4.43617 112.974 4.2701 112.573C4.10402 112.173 3.82187 111.83 3.45946 111.589C3.09704 111.348 2.67071 111.22 2.23452 111.22C1.65381 111.22 1.09661 111.447 0.684276 111.853C0.271942 112.26 0.0378805 112.811 0.0330413 113.388Z" fill="#93D9C7"/>
<path d="M0.0330544 101.031C0.0330544 101.463 0.162164 101.886 0.404065 102.246C0.645967 102.605 0.98978 102.886 1.39205 103.051C1.79431 103.217 2.23697 103.26 2.66401 103.175C3.09106 103.091 3.48332 102.883 3.7912 102.577C4.09908 102.271 4.30876 101.882 4.3937 101.458C4.47865 101.034 4.43505 100.594 4.26843 100.194C4.1018 99.7949 3.81962 99.4534 3.45759 99.2132C3.09556 98.9729 2.66994 98.8447 2.23453 98.8447C1.65066 98.8447 1.0907 99.0751 0.677839 99.4851C0.264982 99.8952 0.0330544 100.451 0.0330544 101.031Z" fill="#93D9C7"/>
<path d="M0.0330413 88.6746C0.0294064 89.1078 0.155413 89.5323 0.395094 89.8942C0.634775 90.2562 0.977313 90.5393 1.37925 90.7075C1.78118 90.8758 2.2244 90.9217 2.65265 90.8394C3.08089 90.7571 3.47486 90.5503 3.78458 90.2453C4.0943 89.9402 4.30579 89.5507 4.39224 89.1261C4.47868 88.7015 4.43617 88.261 4.2701 87.8605C4.10402 87.4599 3.82187 87.1173 3.45946 86.8763C3.09704 86.6352 2.67071 86.5065 2.23452 86.5065C1.65381 86.5065 1.09661 86.7344 0.684276 87.1405C0.271942 87.5466 0.0378805 88.0979 0.0330413 88.6746Z" fill="#93D9C7"/>
<path d="M12.4714 162.814C12.4714 163.246 12.6005 163.669 12.8424 164.028C13.0843 164.388 13.4281 164.668 13.8304 164.834C14.2326 164.999 14.6753 165.042 15.1023 164.958C15.5294 164.874 15.9216 164.665 16.2295 164.36C16.5374 164.054 16.7471 163.664 16.832 163.24C16.917 162.816 16.8734 162.376 16.7067 161.977C16.5401 161.577 16.2579 161.236 15.8959 160.996C15.5339 160.756 15.1082 160.627 14.6728 160.627C14.089 160.627 13.529 160.858 13.1162 161.268C12.7033 161.678 12.4714 162.234 12.4714 162.814Z" fill="#93D9C7"/>
<path d="M12.4714 150.45C12.4714 150.882 12.6005 151.305 12.8424 151.665C13.0843 152.024 13.4281 152.304 13.8304 152.47C14.2326 152.635 14.6753 152.679 15.1023 152.594C15.5294 152.51 15.9216 152.302 16.2295 151.996C16.5374 151.69 16.7471 151.301 16.832 150.876C16.917 150.452 16.8734 150.013 16.7067 149.613C16.5401 149.214 16.2579 148.872 15.8959 148.632C15.5339 148.392 15.1082 148.264 14.6728 148.264C14.089 148.264 13.529 148.494 13.1162 148.904C12.7033 149.314 12.4714 149.87 12.4714 150.45Z" fill="#93D9C7"/>
<path d="M12.4714 138.101C12.4714 138.533 12.6005 138.956 12.8424 139.315C13.0843 139.675 13.4281 139.955 13.8304 140.121C14.2326 140.286 14.6753 140.329 15.1023 140.245C15.5294 140.161 15.9216 139.952 16.2295 139.647C16.5374 139.341 16.7471 138.951 16.832 138.527C16.917 138.103 16.8734 137.663 16.7067 137.264C16.5401 136.864 16.2579 136.523 15.8959 136.283C15.5339 136.042 15.1082 135.914 14.6728 135.914C14.089 135.914 13.529 136.145 13.1162 136.555C12.7033 136.965 12.4714 137.521 12.4714 138.101Z" fill="#93D9C7"/>
<path d="M12.4713 125.744C12.4677 126.177 12.5937 126.602 12.8334 126.964C13.0731 127.326 13.4156 127.609 13.8176 127.777C14.2195 127.945 14.6627 127.991 15.091 127.909C15.5192 127.827 15.9132 127.62 16.2229 127.315C16.5326 127.01 16.7441 126.62 16.8306 126.196C16.917 125.771 16.8745 125.331 16.7084 124.93C16.5424 124.529 16.2602 124.187 15.8978 123.946C15.5354 123.705 15.109 123.576 14.6728 123.576C14.0921 123.576 13.5349 123.804 13.1226 124.21C12.7103 124.616 12.4762 125.167 12.4713 125.744Z" fill="#93D9C7"/>
<path d="M12.4713 113.388C12.4677 113.821 12.5937 114.245 12.8334 114.607C13.0731 114.969 13.4156 115.252 13.8176 115.421C14.2195 115.589 14.6627 115.635 15.091 115.552C15.5192 115.47 15.9132 115.263 16.2229 114.958C16.5326 114.653 16.7441 114.264 16.8306 113.839C16.917 113.415 16.8745 112.974 16.7084 112.573C16.5424 112.173 16.2602 111.83 15.8978 111.589C15.5354 111.348 15.109 111.22 14.6728 111.22C14.0921 111.22 13.5349 111.447 13.1226 111.853C12.7103 112.26 12.4762 112.811 12.4713 113.388Z" fill="#93D9C7"/>
<path d="M12.4714 101.031C12.4714 101.463 12.6005 101.886 12.8424 102.246C13.0843 102.605 13.4281 102.886 13.8304 103.051C14.2326 103.217 14.6753 103.26 15.1023 103.175C15.5294 103.091 15.9216 102.883 16.2295 102.577C16.5374 102.271 16.7471 101.882 16.832 101.458C16.917 101.034 16.8734 100.594 16.7067 100.194C16.5401 99.7949 16.2579 99.4534 15.8959 99.2132C15.5339 98.9729 15.1082 98.8447 14.6728 98.8447C14.089 98.8447 13.529 99.0751 13.1162 99.4851C12.7033 99.8952 12.4714 100.451 12.4714 101.031Z" fill="#93D9C7"/>
<path d="M12.4713 88.6746C12.4677 89.1078 12.5937 89.5323 12.8334 89.8942C13.0731 90.2562 13.4156 90.5393 13.8176 90.7075C14.2195 90.8758 14.6627 90.9217 15.091 90.8394C15.5192 90.7571 15.9132 90.5503 16.2229 90.2453C16.5326 89.9402 16.7441 89.5507 16.8306 89.1261C16.917 88.7015 16.8745 88.261 16.7084 87.8605C16.5424 87.4599 16.2602 87.1173 15.8978 86.8763C15.5354 86.6352 15.109 86.5065 14.6728 86.5065C14.0921 86.5065 13.5349 86.7344 13.1226 87.1405C12.7103 87.5466 12.4762 88.0979 12.4713 88.6746Z" fill="#93D9C7"/>
<path d="M24.8326 162.814C24.8326 163.246 24.9617 163.669 25.2036 164.028C25.4455 164.388 25.7894 164.668 26.1916 164.834C26.5939 164.999 27.0365 165.042 27.4636 164.958C27.8906 164.874 28.2829 164.665 28.5908 164.36C28.8987 164.054 29.1083 163.664 29.1933 163.24C29.2782 162.816 29.2346 162.376 29.068 161.977C28.9014 161.577 28.6192 161.236 28.2572 160.996C27.8952 160.756 27.4695 160.627 27.0341 160.627C26.4502 160.627 25.8903 160.858 25.4774 161.268C25.0646 161.678 24.8326 162.234 24.8326 162.814Z" fill="#93D9C7"/>
<path d="M24.8326 150.45C24.8326 150.882 24.9617 151.305 25.2036 151.665C25.4455 152.024 25.7894 152.304 26.1916 152.47C26.5939 152.635 27.0365 152.679 27.4636 152.594C27.8906 152.51 28.2829 152.302 28.5908 151.996C28.8987 151.69 29.1083 151.301 29.1933 150.876C29.2782 150.452 29.2346 150.013 29.068 149.613C28.9014 149.214 28.6192 148.872 28.2572 148.632C27.8952 148.392 27.4695 148.264 27.0341 148.264C26.4502 148.264 25.8903 148.494 25.4774 148.904C25.0646 149.314 24.8326 149.87 24.8326 150.45Z" fill="#93D9C7"/>
<path d="M24.8326 138.101C24.8326 138.533 24.9617 138.956 25.2036 139.315C25.4455 139.675 25.7894 139.955 26.1916 140.121C26.5939 140.286 27.0365 140.329 27.4636 140.245C27.8906 140.161 28.2829 139.952 28.5908 139.647C28.8987 139.341 29.1083 138.951 29.1933 138.527C29.2782 138.103 29.2346 137.663 29.068 137.264C28.9014 136.864 28.6192 136.523 28.2572 136.283C27.8952 136.042 27.4695 135.914 27.0341 135.914C26.4502 135.914 25.8903 136.145 25.4774 136.555C25.0646 136.965 24.8326 137.521 24.8326 138.101Z" fill="#93D9C7"/>
<path d="M24.8327 125.744C24.829 126.177 24.9551 126.602 25.1947 126.964C25.4344 127.326 25.777 127.609 26.1789 127.777C26.5808 127.945 27.024 127.991 27.4523 127.909C27.8805 127.827 28.2745 127.62 28.5842 127.315C28.8939 127.01 29.1054 126.62 29.1919 126.196C29.2783 125.771 29.2358 125.331 29.0697 124.93C28.9037 124.529 28.6215 124.187 28.2591 123.946C27.8967 123.705 27.4703 123.576 27.0341 123.576C26.4534 123.576 25.8962 123.804 25.4839 124.21C25.0716 124.616 24.8375 125.167 24.8327 125.744Z" fill="#93D9C7"/>
<path d="M24.8327 113.388C24.829 113.821 24.9551 114.245 25.1947 114.607C25.4344 114.969 25.777 115.252 26.1789 115.421C26.5808 115.589 27.024 115.635 27.4523 115.552C27.8805 115.47 28.2745 115.263 28.5842 114.958C28.8939 114.653 29.1054 114.264 29.1919 113.839C29.2783 113.415 29.2358 112.974 29.0697 112.573C28.9037 112.173 28.6215 111.83 28.2591 111.589C27.8967 111.348 27.4703 111.22 27.0341 111.22C26.4534 111.22 25.8962 111.447 25.4839 111.853C25.0716 112.26 24.8375 112.811 24.8327 113.388Z" fill="#93D9C7"/>
<path d="M24.8326 101.031C24.8326 101.463 24.9617 101.886 25.2036 102.246C25.4455 102.605 25.7894 102.886 26.1916 103.051C26.5939 103.217 27.0365 103.26 27.4636 103.175C27.8906 103.091 28.2829 102.883 28.5908 102.577C28.8987 102.271 29.1083 101.882 29.1933 101.458C29.2782 101.034 29.2346 100.594 29.068 100.194C28.9014 99.7949 28.6192 99.4534 28.2572 99.2132C27.8952 98.9729 27.4695 98.8447 27.0341 98.8447C26.4502 98.8447 25.8903 99.0751 25.4774 99.4851C25.0646 99.8952 24.8326 100.451 24.8326 101.031Z" fill="#93D9C7"/>
<path d="M24.8327 88.6746C24.829 89.1078 24.9551 89.5323 25.1947 89.8942C25.4344 90.2562 25.777 90.5393 26.1789 90.7075C26.5808 90.8758 27.024 90.9217 27.4523 90.8394C27.8805 90.7571 28.2745 90.5503 28.5842 90.2453C28.8939 89.9402 29.1054 89.5507 29.1919 89.1261C29.2783 88.7015 29.2358 88.261 29.0697 87.8605C28.9037 87.4599 28.6215 87.1173 28.2591 86.8763C27.8967 86.6352 27.4703 86.5065 27.0341 86.5065C26.4534 86.5065 25.8962 86.7344 25.4839 87.1405C25.0716 87.5466 24.8375 88.0979 24.8327 88.6746Z" fill="#93D9C7"/>
<path d="M37.2747 162.814C37.2747 163.246 37.4038 163.669 37.6457 164.028C37.8876 164.388 38.2314 164.668 38.6337 164.834C39.036 164.999 39.4786 165.042 39.9057 164.958C40.3327 164.874 40.725 164.665 41.0328 164.36C41.3407 164.054 41.5504 163.664 41.6353 163.24C41.7203 162.816 41.6767 162.376 41.5101 161.977C41.3435 161.577 41.0613 161.236 40.6992 160.996C40.3372 160.756 39.9116 160.627 39.4762 160.627C38.8923 160.627 38.3323 160.858 37.9195 161.268C37.5066 161.678 37.2747 162.234 37.2747 162.814Z" fill="#93D9C7"/>
<path d="M37.2747 150.45C37.2747 150.882 37.4038 151.305 37.6457 151.665C37.8876 152.024 38.2314 152.304 38.6337 152.47C39.036 152.635 39.4786 152.679 39.9057 152.594C40.3327 152.51 40.725 152.302 41.0328 151.996C41.3407 151.69 41.5504 151.301 41.6353 150.876C41.7203 150.452 41.6767 150.013 41.5101 149.613C41.3435 149.214 41.0613 148.872 40.6992 148.632C40.3372 148.392 39.9116 148.264 39.4762 148.264C38.8923 148.264 38.3323 148.494 37.9195 148.904C37.5066 149.314 37.2747 149.87 37.2747 150.45Z" fill="#93D9C7"/>
<path d="M37.2747 138.101C37.2747 138.533 37.4038 138.956 37.6457 139.315C37.8876 139.675 38.2314 139.955 38.6337 140.121C39.036 140.286 39.4786 140.329 39.9057 140.245C40.3327 140.161 40.725 139.952 41.0328 139.647C41.3407 139.341 41.5504 138.951 41.6353 138.527C41.7203 138.103 41.6767 137.663 41.5101 137.264C41.3435 136.864 41.0613 136.523 40.6992 136.283C40.3372 136.042 39.9116 135.914 39.4762 135.914C38.8923 135.914 38.3323 136.145 37.9195 136.555C37.5066 136.965 37.2747 137.521 37.2747 138.101Z" fill="#93D9C7"/>
<path d="M37.2747 125.744C37.271 126.177 37.3971 126.602 37.6367 126.964C37.8764 127.326 38.219 127.609 38.6209 127.777C39.0228 127.945 39.466 127.991 39.8943 127.909C40.3225 127.827 40.7165 127.62 41.0262 127.315C41.3359 127.01 41.5474 126.62 41.6339 126.196C41.7203 125.771 41.6778 125.331 41.5117 124.93C41.3457 124.529 41.0635 124.187 40.7011 123.946C40.3387 123.705 39.9124 123.576 39.4762 123.576C38.8955 123.576 38.3383 123.804 37.9259 124.21C37.5136 124.616 37.2795 125.167 37.2747 125.744Z" fill="#93D9C7"/>
<path d="M37.2747 113.388C37.271 113.821 37.3971 114.245 37.6367 114.607C37.8764 114.969 38.219 115.252 38.6209 115.421C39.0228 115.589 39.466 115.635 39.8943 115.552C40.3225 115.47 40.7165 115.263 41.0262 114.958C41.3359 114.653 41.5474 114.264 41.6339 113.839C41.7203 113.415 41.6778 112.974 41.5117 112.573C41.3457 112.173 41.0635 111.83 40.7011 111.589C40.3387 111.348 39.9124 111.22 39.4762 111.22C38.8955 111.22 38.3383 111.447 37.9259 111.853C37.5136 112.26 37.2795 112.811 37.2747 113.388Z" fill="#93D9C7"/>
<path d="M37.2747 101.031C37.2747 101.463 37.4038 101.886 37.6457 102.246C37.8876 102.605 38.2314 102.886 38.6337 103.051C39.036 103.217 39.4786 103.26 39.9057 103.175C40.3327 103.091 40.725 102.883 41.0328 102.577C41.3407 102.271 41.5504 101.882 41.6353 101.458C41.7203 101.034 41.6767 100.594 41.5101 100.194C41.3435 99.7949 41.0613 99.4534 40.6992 99.2132C40.3372 98.9729 39.9116 98.8447 39.4762 98.8447C38.8923 98.8447 38.3323 99.0751 37.9195 99.4851C37.5066 99.8952 37.2747 100.451 37.2747 101.031Z" fill="#93D9C7"/>
<path d="M37.2747 88.6746C37.271 89.1078 37.3971 89.5323 37.6367 89.8942C37.8764 90.2562 38.219 90.5393 38.6209 90.7075C39.0228 90.8758 39.466 90.9217 39.8943 90.8394C40.3225 90.7571 40.7165 90.5503 41.0262 90.2453C41.3359 89.9402 41.5474 89.5507 41.6339 89.1261C41.7203 88.7015 41.6778 88.261 41.5117 87.8605C41.3457 87.4599 41.0635 87.1173 40.7011 86.8763C40.3387 86.6352 39.9124 86.5065 39.4762 86.5065C38.8955 86.5065 38.3383 86.7344 37.9259 87.1405C37.5136 87.5466 37.2795 88.0979 37.2747 88.6746Z" fill="#93D9C7"/>
<path d="M49.713 162.814C49.713 163.246 49.8421 163.669 50.084 164.028C50.3259 164.388 50.6698 164.668 51.072 164.834C51.4743 164.999 51.9169 165.042 52.344 164.958C52.771 164.874 53.1633 164.665 53.4712 164.36C53.7791 164.054 53.9887 163.664 54.0737 163.24C54.1586 162.816 54.115 162.376 53.9484 161.977C53.7818 161.577 53.4996 161.236 53.1376 160.996C52.7755 160.756 52.3499 160.627 51.9145 160.627C51.3306 160.627 50.7707 160.858 50.3578 161.268C49.945 161.678 49.713 162.234 49.713 162.814Z" fill="#93D9C7"/>
<path d="M49.713 150.45C49.713 150.882 49.8421 151.305 50.084 151.665C50.3259 152.024 50.6698 152.304 51.072 152.47C51.4743 152.635 51.9169 152.679 52.344 152.594C52.771 152.51 53.1633 152.302 53.4712 151.996C53.7791 151.69 53.9887 151.301 54.0737 150.876C54.1586 150.452 54.115 150.013 53.9484 149.613C53.7818 149.214 53.4996 148.872 53.1376 148.632C52.7755 148.392 52.3499 148.264 51.9145 148.264C51.3306 148.264 50.7707 148.494 50.3578 148.904C49.945 149.314 49.713 149.87 49.713 150.45Z" fill="#93D9C7"/>
<path d="M49.713 138.101C49.713 138.533 49.8421 138.956 50.084 139.315C50.3259 139.675 50.6698 139.955 51.072 140.121C51.4743 140.286 51.9169 140.329 52.344 140.245C52.771 140.161 53.1633 139.952 53.4712 139.647C53.7791 139.341 53.9887 138.951 54.0737 138.527C54.1586 138.103 54.115 137.663 53.9484 137.264C53.7818 136.864 53.4996 136.523 53.1376 136.283C52.7755 136.042 52.3499 135.914 51.9145 135.914C51.3306 135.914 50.7707 136.145 50.3578 136.555C49.945 136.965 49.713 137.521 49.713 138.101Z" fill="#93D9C7"/>
<path d="M49.713 125.744C49.7094 126.177 49.8354 126.602 50.0751 126.964C50.3147 127.326 50.6573 127.609 51.0592 127.777C51.4611 127.945 51.9043 127.991 52.3326 127.909C52.7608 127.827 53.1548 127.62 53.4646 127.315C53.7743 127.01 53.9858 126.62 54.0722 126.196C54.1586 125.771 54.1161 125.331 53.9501 124.93C53.784 124.529 53.5018 124.187 53.1394 123.946C52.777 123.705 52.3507 123.576 51.9145 123.576C51.3338 123.576 50.7766 123.804 50.3642 124.21C49.9519 124.616 49.7178 125.167 49.713 125.744Z" fill="#93D9C7"/>
<path d="M49.713 113.388C49.7094 113.821 49.8354 114.245 50.0751 114.607C50.3147 114.969 50.6573 115.252 51.0592 115.421C51.4611 115.589 51.9043 115.635 52.3326 115.552C52.7608 115.47 53.1548 115.263 53.4646 114.958C53.7743 114.653 53.9858 114.264 54.0722 113.839C54.1586 113.415 54.1161 112.974 53.9501 112.573C53.784 112.173 53.5018 111.83 53.1394 111.589C52.777 111.348 52.3507 111.22 51.9145 111.22C51.3338 111.22 50.7766 111.447 50.3642 111.853C49.9519 112.26 49.7178 112.811 49.713 113.388Z" fill="#93D9C7"/>
<path d="M49.713 101.031C49.713 101.463 49.8421 101.886 50.084 102.246C50.3259 102.605 50.6698 102.886 51.072 103.051C51.4743 103.217 51.9169 103.26 52.344 103.175C52.771 103.091 53.1633 102.883 53.4712 102.577C53.7791 102.271 53.9887 101.882 54.0737 101.458C54.1586 101.034 54.115 100.594 53.9484 100.194C53.7818 99.7949 53.4996 99.4534 53.1376 99.2132C52.7755 98.9729 52.3499 98.8447 51.9145 98.8447C51.3306 98.8447 50.7707 99.0751 50.3578 99.4851C49.945 99.8952 49.713 100.451 49.713 101.031Z" fill="#93D9C7"/>
<path d="M49.713 88.6746C49.7094 89.1078 49.8354 89.5323 50.0751 89.8942C50.3147 90.2562 50.6573 90.5393 51.0592 90.7075C51.4611 90.8758 51.9043 90.9217 52.3326 90.8394C52.7608 90.7571 53.1548 90.5503 53.4646 90.2453C53.7743 89.9402 53.9858 89.5507 54.0722 89.1261C54.1586 88.7015 54.1161 88.261 53.9501 87.8605C53.784 87.4599 53.5018 87.1173 53.1394 86.8763C52.777 86.6352 52.3507 86.5065 51.9145 86.5065C51.3338 86.5065 50.7766 86.7344 50.3642 87.1405C49.9519 87.5466 49.7178 88.0979 49.713 88.6746Z" fill="#93D9C7"/>
<path d="M62.0743 162.814C62.0743 163.246 62.2034 163.669 62.4453 164.028C62.6872 164.388 63.031 164.668 63.4333 164.834C63.8356 164.999 64.2782 165.042 64.7052 164.958C65.1323 164.874 65.5246 164.665 65.8324 164.36C66.1403 164.054 66.35 163.664 66.4349 163.24C66.5199 162.816 66.4763 162.376 66.3096 161.977C66.143 161.577 65.8609 161.236 65.4988 160.996C65.1368 160.756 64.7112 160.627 64.2757 160.627C63.6919 160.627 63.1319 160.858 62.7191 161.268C62.3062 161.678 62.0743 162.234 62.0743 162.814Z" fill="#93D9C7"/>
<path d="M62.0743 150.45C62.0743 150.882 62.2034 151.305 62.4453 151.665C62.6872 152.024 63.031 152.304 63.4333 152.47C63.8356 152.635 64.2782 152.679 64.7052 152.594C65.1323 152.51 65.5246 152.302 65.8324 151.996C66.1403 151.69 66.35 151.301 66.4349 150.876C66.5199 150.452 66.4763 150.013 66.3096 149.613C66.143 149.214 65.8609 148.872 65.4988 148.632C65.1368 148.392 64.7112 148.264 64.2757 148.264C63.6919 148.264 63.1319 148.494 62.7191 148.904C62.3062 149.314 62.0743 149.87 62.0743 150.45Z" fill="#93D9C7"/>
<path d="M62.0743 138.101C62.0743 138.533 62.2034 138.956 62.4453 139.315C62.6872 139.675 63.031 139.955 63.4333 140.121C63.8356 140.286 64.2782 140.329 64.7052 140.245C65.1323 140.161 65.5246 139.952 65.8324 139.647C66.1403 139.341 66.35 138.951 66.4349 138.527C66.5199 138.103 66.4763 137.663 66.3096 137.264C66.143 136.864 65.8609 136.523 65.4988 136.283C65.1368 136.042 64.7112 135.914 64.2757 135.914C63.6919 135.914 63.1319 136.145 62.7191 136.555C62.3062 136.965 62.0743 137.521 62.0743 138.101Z" fill="#93D9C7"/>
<path d="M62.0743 125.744C62.0707 126.177 62.1967 126.602 62.4364 126.964C62.6761 127.326 63.0186 127.609 63.4205 127.777C63.8225 127.945 64.2657 127.991 64.6939 127.909C65.1222 127.827 65.5161 127.62 65.8259 127.315C66.1356 127.01 66.3471 126.62 66.4335 126.196C66.52 125.771 66.4775 125.331 66.3114 124.93C66.1453 124.529 65.8632 124.187 65.5007 123.946C65.1383 123.705 64.712 123.576 64.2758 123.576C63.6951 123.576 63.1379 123.804 62.7256 124.21C62.3132 124.616 62.0791 125.167 62.0743 125.744Z" fill="#93D9C7"/>
<path d="M62.0743 113.388C62.0707 113.821 62.1967 114.245 62.4364 114.607C62.6761 114.969 63.0186 115.252 63.4205 115.421C63.8225 115.589 64.2657 115.635 64.6939 115.552C65.1222 115.47 65.5161 115.263 65.8259 114.958C66.1356 114.653 66.3471 114.264 66.4335 113.839C66.52 113.415 66.4775 112.974 66.3114 112.573C66.1453 112.173 65.8632 111.83 65.5007 111.589C65.1383 111.348 64.712 111.22 64.2758 111.22C63.6951 111.22 63.1379 111.447 62.7256 111.853C62.3132 112.26 62.0791 112.811 62.0743 113.388Z" fill="#93D9C7"/>
<path d="M62.0743 101.031C62.0743 101.463 62.2034 101.886 62.4453 102.246C62.6872 102.605 63.031 102.886 63.4333 103.051C63.8356 103.217 64.2782 103.26 64.7052 103.175C65.1323 103.091 65.5246 102.883 65.8324 102.577C66.1403 102.271 66.35 101.882 66.4349 101.458C66.5199 101.034 66.4763 100.594 66.3096 100.194C66.143 99.7949 65.8609 99.4534 65.4988 99.2132C65.1368 98.9729 64.7112 98.8447 64.2757 98.8447C63.6919 98.8447 63.1319 99.0751 62.7191 99.4851C62.3062 99.8952 62.0743 100.451 62.0743 101.031Z" fill="#93D9C7"/>
<path d="M62.0743 88.6746C62.0707 89.1078 62.1967 89.5323 62.4364 89.8942C62.6761 90.2562 63.0186 90.5393 63.4205 90.7075C63.8225 90.8758 64.2657 90.9217 64.6939 90.8394C65.1222 90.7571 65.5161 90.5503 65.8259 90.2453C66.1356 89.9402 66.3471 89.5507 66.4335 89.1261C66.52 88.7015 66.4775 88.261 66.3114 87.8605C66.1453 87.4599 65.8632 87.1173 65.5007 86.8763C65.1383 86.6352 64.712 86.5065 64.2758 86.5065C63.6951 86.5065 63.1379 86.7344 62.7256 87.1405C62.3132 87.5466 62.0791 88.0979 62.0743 88.6746Z" fill="#93D9C7"/>
<path d="M74.597 162.814C74.597 163.246 74.7262 163.669 74.9681 164.028C75.21 164.388 75.5538 164.668 75.9561 164.834C76.3583 164.999 76.801 165.042 77.228 164.958C77.6551 164.874 78.0473 164.665 78.3552 164.36C78.6631 164.054 78.8728 163.664 78.9577 163.24C79.0426 162.816 78.999 162.376 78.8324 161.977C78.6658 161.577 78.3836 161.236 78.0216 160.996C77.6596 160.756 77.2339 160.627 76.7985 160.627C76.2147 160.627 75.6547 160.858 75.2419 161.268C74.829 161.678 74.597 162.234 74.597 162.814Z" fill="#93D9C7"/>
<path d="M74.597 150.45C74.597 150.882 74.7262 151.305 74.9681 151.665C75.21 152.024 75.5538 152.304 75.9561 152.47C76.3583 152.635 76.801 152.679 77.228 152.594C77.6551 152.51 78.0473 152.302 78.3552 151.996C78.6631 151.69 78.8728 151.301 78.9577 150.876C79.0426 150.452 78.999 150.013 78.8324 149.613C78.6658 149.214 78.3836 148.872 78.0216 148.632C77.6596 148.392 77.2339 148.264 76.7985 148.264C76.2147 148.264 75.6547 148.494 75.2419 148.904C74.829 149.314 74.597 149.87 74.597 150.45Z" fill="#93D9C7"/>
<path d="M74.597 138.101C74.597 138.533 74.7262 138.956 74.9681 139.315C75.21 139.675 75.5538 139.955 75.9561 140.121C76.3583 140.286 76.801 140.329 77.228 140.245C77.6551 140.161 78.0473 139.952 78.3552 139.647C78.6631 139.341 78.8728 138.951 78.9577 138.527C79.0426 138.103 78.999 137.663 78.8324 137.264C78.6658 136.864 78.3836 136.523 78.0216 136.283C77.6596 136.042 77.2339 135.914 76.7985 135.914C76.2147 135.914 75.6547 136.145 75.2419 136.555C74.829 136.965 74.597 137.521 74.597 138.101Z" fill="#93D9C7"/>
<path d="M74.597 125.744C74.5934 126.177 74.7194 126.602 74.9591 126.964C75.1988 127.326 75.5413 127.609 75.9433 127.777C76.3452 127.945 76.7884 127.991 77.2166 127.909C77.6449 127.827 78.0389 127.62 78.3486 127.315C78.6583 127.01 78.8698 126.62 78.9563 126.196C79.0427 125.771 79.0002 125.331 78.8341 124.93C78.668 124.529 78.3859 124.187 78.0235 123.946C77.6611 123.705 77.2347 123.576 76.7985 123.576C76.2178 123.576 75.6606 123.804 75.2483 124.21C74.836 124.616 74.6019 125.167 74.597 125.744Z" fill="#93D9C7"/>
<path d="M74.597 113.388C74.5934 113.821 74.7194 114.245 74.9591 114.607C75.1988 114.969 75.5413 115.252 75.9433 115.421C76.3452 115.589 76.7884 115.635 77.2166 115.552C77.6449 115.47 78.0389 115.263 78.3486 114.958C78.6583 114.653 78.8698 114.264 78.9563 113.839C79.0427 113.415 79.0002 112.974 78.8341 112.573C78.668 112.173 78.3859 111.83 78.0235 111.589C77.6611 111.348 77.2347 111.22 76.7985 111.22C76.2178 111.22 75.6606 111.447 75.2483 111.853C74.836 112.26 74.6019 112.811 74.597 113.388Z" fill="#93D9C7"/>
<path d="M74.597 101.031C74.597 101.463 74.7262 101.886 74.9681 102.246C75.21 102.605 75.5538 102.886 75.9561 103.051C76.3583 103.217 76.801 103.26 77.228 103.175C77.6551 103.091 78.0473 102.883 78.3552 102.577C78.6631 102.271 78.8728 101.882 78.9577 101.458C79.0426 101.034 78.999 100.594 78.8324 100.194C78.6658 99.7949 78.3836 99.4534 78.0216 99.2132C77.6596 98.9729 77.2339 98.8447 76.7985 98.8447C76.2147 98.8447 75.6547 99.0751 75.2419 99.4851C74.829 99.8952 74.597 100.451 74.597 101.031Z" fill="#93D9C7"/>
<path d="M74.597 88.6746C74.5934 89.1078 74.7194 89.5323 74.9591 89.8942C75.1988 90.2562 75.5413 90.5393 75.9433 90.7075C76.3452 90.8758 76.7884 90.9217 77.2166 90.8394C77.6449 90.7571 78.0389 90.5503 78.3486 90.2453C78.6583 89.9402 78.8698 89.5507 78.9563 89.1261C79.0427 88.7015 79.0002 88.261 78.8341 87.8605C78.668 87.4599 78.3859 87.1173 78.0235 86.8763C77.6611 86.6352 77.2347 86.5065 76.7985 86.5065C76.2178 86.5065 75.6606 86.7344 75.2483 87.1405C74.836 87.5466 74.6019 88.0979 74.597 88.6746Z" fill="#93D9C7"/>
<path d="M0.0330544 76.3254C0.0330544 76.7578 0.162164 77.1805 0.404065 77.54C0.645967 77.8995 0.98978 78.1798 1.39205 78.3453C1.79431 78.5108 2.23697 78.554 2.66401 78.4697C3.09106 78.3853 3.48332 78.1771 3.7912 77.8714C4.09908 77.5656 4.30876 77.176 4.3937 76.7519C4.47865 76.3278 4.43505 75.8882 4.26843 75.4887C4.1018 75.0892 3.81962 74.7477 3.45759 74.5074C3.09556 74.2672 2.66994 74.139 2.23453 74.139C1.65066 74.139 1.0907 74.3694 0.677839 74.7794C0.264982 75.1894 0.0330544 75.7455 0.0330544 76.3254Z" fill="#93D9C7"/>
<path d="M0.0330544 63.9688C0.0330544 64.4012 0.162164 64.824 0.404065 65.1835C0.645967 65.5431 0.98978 65.8233 1.39205 65.9888C1.79431 66.1543 2.23697 66.1975 2.66401 66.1132C3.09106 66.0288 3.48332 65.8206 3.7912 65.5148C4.09908 65.209 4.30876 64.8195 4.3937 64.3954C4.47865 63.9713 4.43505 63.5316 4.26843 63.1321C4.1018 62.7326 3.81962 62.3912 3.45759 62.151C3.09556 61.9107 2.66994 61.7825 2.23453 61.7825C1.65066 61.7825 1.0907 62.0128 0.677839 62.4228C0.264982 62.8328 0.0330544 63.389 0.0330544 63.9688Z" fill="#93D9C7"/>
<path d="M0.0330544 51.6124C0.0330544 52.0448 0.162164 52.4675 0.404065 52.8271C0.645967 53.1866 0.98978 53.4668 1.39205 53.6323C1.79431 53.7977 2.23697 53.8411 2.66401 53.7567C3.09106 53.6724 3.48332 53.4641 3.7912 53.1584C4.09908 52.8526 4.30876 52.463 4.3937 52.0389C4.47865 51.6147 4.43505 51.1752 4.26843 50.7757C4.1018 50.3762 3.81962 50.0347 3.45759 49.7945C3.09556 49.5543 2.66994 49.426 2.23453 49.426C1.65066 49.426 1.0907 49.6564 0.677839 50.0664C0.264982 50.4764 0.0330544 51.0325 0.0330544 51.6124Z" fill="#93D9C7"/>
<path d="M0.0330413 39.2559C0.0294064 39.689 0.155413 40.1135 0.395094 40.4755C0.634775 40.8374 0.977313 41.1204 1.37925 41.2887C1.78118 41.4569 2.2244 41.5029 2.65265 41.4206C3.08089 41.3383 3.47486 41.1315 3.78458 40.8265C4.0943 40.5215 4.30579 40.1319 4.39224 39.7073C4.47868 39.2827 4.43617 38.8421 4.2701 38.4416C4.10402 38.041 3.82187 37.6985 3.45946 37.4575C3.09704 37.2164 2.67071 37.0877 2.23452 37.0877C1.65381 37.0876 1.09661 37.3155 0.684276 37.7216C0.271942 38.1277 0.0378805 38.6792 0.0330413 39.2559Z" fill="#93D9C7"/>
<path d="M0.0330544 26.8993C0.0330544 27.3317 0.162164 27.7545 0.404065 28.114C0.645967 28.4735 0.98978 28.7538 1.39205 28.9193C1.79431 29.0848 2.23697 29.128 2.66401 29.0437C3.09106 28.9593 3.48332 28.7511 3.7912 28.4453C4.09908 28.1395 4.30876 27.75 4.3937 27.3259C4.47865 26.9018 4.43505 26.4621 4.26843 26.0626C4.1018 25.6631 3.81962 25.3217 3.45759 25.0814C3.09556 24.8412 2.66994 24.713 2.23453 24.713C1.65066 24.713 1.0907 24.9433 0.677839 25.3533C0.264982 25.7633 0.0330544 26.3195 0.0330544 26.8993Z" fill="#93D9C7"/>
<path d="M0.0330544 14.5319C0.0330544 14.9643 0.162164 15.3871 0.404065 15.7466C0.645967 16.1062 0.98978 16.3863 1.39205 16.5518C1.79431 16.7173 2.23697 16.7606 2.66401 16.6763C3.09106 16.5919 3.48332 16.3837 3.7912 16.0779C4.09908 15.7721 4.30876 15.3826 4.3937 14.9585C4.47865 14.5344 4.43505 14.0947 4.26843 13.6952C4.1018 13.2957 3.81962 12.9543 3.45759 12.714C3.09556 12.4738 2.66994 12.3456 2.23453 12.3456C1.65066 12.3456 1.0907 12.5759 0.677839 12.9859C0.264982 13.3959 0.0330544 13.9521 0.0330544 14.5319Z" fill="#93D9C7"/>
<path d="M4.40295 2.18639C4.40295 1.75397 4.27384 1.33122 4.03194 0.97168C3.79004 0.612137 3.4462 0.331877 3.04394 0.166397C2.64167 0.000917584 2.19904 -0.042338 1.77199 0.0420227C1.34495 0.126383 0.952688 0.33463 0.644806 0.640396C0.336924 0.946162 0.127247 1.3357 0.0423021 1.75981C-0.0426423 2.18392 0.000952825 2.62349 0.167577 3.02299C0.334202 3.4225 0.616364 3.76402 0.978395 4.00426C1.34043 4.2445 1.76606 4.37273 2.20148 4.37273C2.78534 4.37273 3.34529 4.1423 3.75814 3.73228C4.171 3.32226 4.40295 2.76624 4.40295 2.18639Z" fill="#93D9C7"/>
<path d="M12.4714 76.3254C12.4714 76.7578 12.6005 77.1805 12.8424 77.54C13.0843 77.8995 13.4281 78.1798 13.8304 78.3453C14.2326 78.5108 14.6753 78.554 15.1023 78.4697C15.5294 78.3853 15.9216 78.1771 16.2295 77.8714C16.5374 77.5656 16.7471 77.176 16.832 76.7519C16.917 76.3278 16.8734 75.8882 16.7067 75.4887C16.5401 75.0892 16.2579 74.7477 15.8959 74.5074C15.5339 74.2672 15.1082 74.139 14.6728 74.139C14.089 74.139 13.529 74.3694 13.1162 74.7794C12.7033 75.1894 12.4714 75.7455 12.4714 76.3254Z" fill="#93D9C7"/>
<path d="M12.4714 63.9688C12.4714 64.4012 12.6005 64.824 12.8424 65.1835C13.0843 65.5431 13.4281 65.8233 13.8304 65.9888C14.2326 66.1543 14.6753 66.1975 15.1023 66.1132C15.5294 66.0288 15.9216 65.8206 16.2295 65.5148C16.5374 65.209 16.7471 64.8195 16.832 64.3954C16.917 63.9713 16.8734 63.5316 16.7067 63.1321C16.5401 62.7326 16.2579 62.3912 15.8959 62.151C15.5339 61.9107 15.1082 61.7825 14.6728 61.7825C14.089 61.7825 13.529 62.0128 13.1162 62.4228C12.7033 62.8328 12.4714 63.389 12.4714 63.9688Z" fill="#93D9C7"/>
<path d="M12.4714 51.6124C12.4714 52.0448 12.6005 52.4675 12.8424 52.8271C13.0843 53.1866 13.4281 53.4668 13.8304 53.6323C14.2326 53.7977 14.6753 53.8411 15.1023 53.7567C15.5294 53.6724 15.9216 53.4641 16.2295 53.1584C16.5374 52.8526 16.7471 52.463 16.832 52.0389C16.917 51.6147 16.8734 51.1752 16.7067 50.7757C16.5401 50.3762 16.2579 50.0347 15.8959 49.7945C15.5339 49.5543 15.1082 49.426 14.6728 49.426C14.089 49.426 13.529 49.6564 13.1162 50.0664C12.7033 50.4764 12.4714 51.0325 12.4714 51.6124Z" fill="#93D9C7"/>
<path d="M12.4713 39.2559C12.4677 39.689 12.5937 40.1135 12.8334 40.4755C13.0731 40.8374 13.4156 41.1204 13.8176 41.2887C14.2195 41.4569 14.6627 41.5029 15.091 41.4206C15.5192 41.3383 15.9132 41.1315 16.2229 40.8265C16.5326 40.5215 16.7441 40.1319 16.8306 39.7073C16.917 39.2827 16.8745 38.8421 16.7084 38.4416C16.5424 38.041 16.2602 37.6985 15.8978 37.4575C15.5354 37.2164 15.109 37.0877 14.6728 37.0877C14.0921 37.0876 13.5349 37.3155 13.1226 37.7216C12.7103 38.1277 12.4762 38.6792 12.4713 39.2559Z" fill="#93D9C7"/>
<path d="M12.4714 26.8993C12.4714 27.3317 12.6005 27.7545 12.8424 28.114C13.0843 28.4735 13.4281 28.7538 13.8304 28.9193C14.2326 29.0848 14.6753 29.128 15.1023 29.0437C15.5294 28.9593 15.9216 28.7511 16.2295 28.4453C16.5374 28.1395 16.7471 27.75 16.832 27.3259C16.917 26.9018 16.8734 26.4621 16.7067 26.0626C16.5401 25.6631 16.2579 25.3217 15.8959 25.0814C15.5339 24.8412 15.1082 24.713 14.6728 24.713C14.089 24.713 13.529 24.9433 13.1162 25.3533C12.7033 25.7633 12.4714 26.3195 12.4714 26.8993Z" fill="#93D9C7"/>
<path d="M12.4714 14.5319C12.4714 14.9643 12.6005 15.3871 12.8424 15.7466C13.0843 16.1062 13.4281 16.3863 13.8304 16.5518C14.2326 16.7173 14.6753 16.7606 15.1023 16.6763C15.5294 16.5919 15.9216 16.3837 16.2295 16.0779C16.5374 15.7721 16.7471 15.3826 16.832 14.9585C16.917 14.5344 16.8734 14.0947 16.7067 13.6952C16.5401 13.2957 16.2579 12.9543 15.8959 12.714C15.5339 12.4738 15.1082 12.3456 14.6728 12.3456C14.089 12.3456 13.529 12.5759 13.1162 12.9859C12.7033 13.3959 12.4714 13.9521 12.4714 14.5319Z" fill="#93D9C7"/>
<path d="M12.4713 2.18634C12.4677 2.61952 12.5937 3.044 12.8334 3.40593C13.0731 3.76786 13.4156 4.05087 13.8176 4.21915C14.2195 4.38742 14.6627 4.43335 15.091 4.35106C15.5192 4.26877 15.9132 4.06202 16.2229 3.75699C16.5326 3.45196 16.7441 3.06243 16.8306 2.63783C16.917 2.21323 16.8745 1.77264 16.7084 1.37207C16.5424 0.971505 16.2602 0.629009 15.8978 0.387955C15.5354 0.1469 15.109 0.0181577 14.6728 0.0181427C14.0921 0.0181227 13.5349 0.246012 13.1226 0.6521C12.7103 1.05819 12.4762 1.60965 12.4713 2.18634Z" fill="#93D9C7"/>
<path d="M24.8326 76.3254C24.8326 76.7578 24.9617 77.1805 25.2036 77.54C25.4455 77.8995 25.7894 78.1798 26.1916 78.3453C26.5939 78.5108 27.0365 78.554 27.4636 78.4697C27.8906 78.3853 28.2829 78.1771 28.5908 77.8714C28.8987 77.5656 29.1083 77.176 29.1933 76.7519C29.2782 76.3278 29.2346 75.8882 29.068 75.4887C28.9014 75.0892 28.6192 74.7477 28.2572 74.5074C27.8952 74.2672 27.4695 74.139 27.0341 74.139C26.4502 74.139 25.8903 74.3694 25.4774 74.7794C25.0646 75.1894 24.8326 75.7455 24.8326 76.3254Z" fill="#93D9C7"/>
<path d="M24.8326 63.9688C24.8326 64.4012 24.9617 64.824 25.2036 65.1835C25.4455 65.5431 25.7894 65.8233 26.1916 65.9888C26.5939 66.1543 27.0365 66.1975 27.4636 66.1132C27.8906 66.0288 28.2829 65.8206 28.5908 65.5148C28.8987 65.209 29.1083 64.8195 29.1933 64.3954C29.2782 63.9713 29.2346 63.5316 29.068 63.1321C28.9014 62.7326 28.6192 62.3912 28.2572 62.151C27.8952 61.9107 27.4695 61.7825 27.0341 61.7825C26.4502 61.7825 25.8903 62.0128 25.4774 62.4228C25.0646 62.8328 24.8326 63.389 24.8326 63.9688Z" fill="#93D9C7"/>
<path d="M24.8326 51.6124C24.8326 52.0448 24.9617 52.4675 25.2036 52.8271C25.4455 53.1866 25.7894 53.4668 26.1916 53.6323C26.5939 53.7977 27.0365 53.8411 27.4636 53.7567C27.8906 53.6724 28.2829 53.4641 28.5908 53.1584C28.8987 52.8526 29.1083 52.463 29.1933 52.0389C29.2782 51.6147 29.2346 51.1752 29.068 50.7757C28.9014 50.3762 28.6192 50.0347 28.2572 49.7945C27.8952 49.5543 27.4695 49.426 27.0341 49.426C26.4502 49.426 25.8903 49.6564 25.4774 50.0664C25.0646 50.4764 24.8326 51.0325 24.8326 51.6124Z" fill="#93D9C7"/>
<path d="M24.8327 39.2559C24.829 39.689 24.9551 40.1135 25.1947 40.4755C25.4344 40.8374 25.777 41.1204 26.1789 41.2887C26.5808 41.4569 27.024 41.5029 27.4523 41.4206C27.8805 41.3383 28.2745 41.1315 28.5842 40.8265C28.8939 40.5215 29.1054 40.1319 29.1919 39.7073C29.2783 39.2827 29.2358 38.8421 29.0697 38.4416C28.9037 38.041 28.6215 37.6985 28.2591 37.4575C27.8967 37.2164 27.4703 37.0877 27.0341 37.0877C26.4534 37.0876 25.8962 37.3155 25.4839 37.7216C25.0716 38.1277 24.8375 38.6792 24.8327 39.2559Z" fill="#93D9C7"/>
<path d="M24.8326 26.8993C24.8326 27.3317 24.9617 27.7545 25.2036 28.114C25.4455 28.4735 25.7894 28.7538 26.1916 28.9193C26.5939 29.0848 27.0365 29.128 27.4636 29.0437C27.8906 28.9593 28.2829 28.7511 28.5908 28.4453C28.8987 28.1395 29.1083 27.75 29.1933 27.3259C29.2782 26.9018 29.2346 26.4621 29.068 26.0626C28.9014 25.6631 28.6192 25.3217 28.2572 25.0814C27.8952 24.8412 27.4695 24.713 27.0341 24.713C26.4502 24.713 25.8903 24.9433 25.4774 25.3533C25.0646 25.7633 24.8326 26.3195 24.8326 26.8993Z" fill="#93D9C7"/>
<path d="M24.8326 14.5319C24.8326 14.9643 24.9617 15.3871 25.2036 15.7466C25.4455 16.1062 25.7894 16.3863 26.1916 16.5518C26.5939 16.7173 27.0365 16.7606 27.4636 16.6763C27.8906 16.5919 28.2829 16.3837 28.5908 16.0779C28.8987 15.7721 29.1083 15.3826 29.1933 14.9585C29.2782 14.5344 29.2346 14.0947 29.068 13.6952C28.9014 13.2957 28.6192 12.9543 28.2572 12.714C27.8952 12.4738 27.4695 12.3456 27.0341 12.3456C26.4502 12.3456 25.8903 12.5759 25.4774 12.9859C25.0646 13.3959 24.8326 13.9521 24.8326 14.5319Z" fill="#93D9C7"/>
<path d="M24.8327 2.18634C24.829 2.61952 24.9551 3.044 25.1947 3.40593C25.4344 3.76786 25.777 4.05087 26.1789 4.21915C26.5808 4.38742 27.024 4.43335 27.4523 4.35106C27.8805 4.26877 28.2745 4.06202 28.5842 3.75699C28.8939 3.45196 29.1054 3.06243 29.1919 2.63783C29.2783 2.21323 29.2358 1.77264 29.0697 1.37207C28.9037 0.971505 28.6215 0.629009 28.2591 0.387955C27.8967 0.1469 27.4703 0.0181577 27.0341 0.0181427C26.4534 0.0181227 25.8962 0.246012 25.4839 0.6521C25.0716 1.05819 24.8375 1.60965 24.8327 2.18634Z" fill="#93D9C7"/>
<path d="M37.2747 76.3254C37.2747 76.7578 37.4038 77.1805 37.6457 77.54C37.8876 77.8995 38.2314 78.1798 38.6337 78.3453C39.036 78.5108 39.4786 78.554 39.9057 78.4697C40.3327 78.3853 40.725 78.1771 41.0328 77.8714C41.3407 77.5656 41.5504 77.176 41.6353 76.7519C41.7203 76.3278 41.6767 75.8882 41.5101 75.4887C41.3435 75.0892 41.0613 74.7477 40.6992 74.5074C40.3372 74.2672 39.9116 74.139 39.4762 74.139C38.8923 74.139 38.3323 74.3694 37.9195 74.7794C37.5066 75.1894 37.2747 75.7455 37.2747 76.3254Z" fill="#93D9C7"/>
<path d="M37.2747 63.9688C37.2747 64.4012 37.4038 64.824 37.6457 65.1835C37.8876 65.5431 38.2314 65.8233 38.6337 65.9888C39.036 66.1543 39.4786 66.1975 39.9057 66.1132C40.3327 66.0288 40.725 65.8206 41.0328 65.5148C41.3407 65.209 41.5504 64.8195 41.6353 64.3954C41.7203 63.9713 41.6767 63.5316 41.5101 63.1321C41.3435 62.7326 41.0613 62.3912 40.6992 62.151C40.3372 61.9107 39.9116 61.7825 39.4762 61.7825C38.8923 61.7825 38.3323 62.0128 37.9195 62.4228C37.5066 62.8328 37.2747 63.389 37.2747 63.9688Z" fill="#93D9C7"/>
<path d="M37.2747 51.6124C37.2747 52.0448 37.4038 52.4675 37.6457 52.8271C37.8876 53.1866 38.2314 53.4668 38.6337 53.6323C39.036 53.7977 39.4786 53.8411 39.9057 53.7567C40.3327 53.6724 40.725 53.4641 41.0328 53.1584C41.3407 52.8526 41.5504 52.463 41.6353 52.0389C41.7203 51.6147 41.6767 51.1752 41.5101 50.7757C41.3435 50.3762 41.0613 50.0347 40.6992 49.7945C40.3372 49.5543 39.9116 49.426 39.4762 49.426C38.8923 49.426 38.3323 49.6564 37.9195 50.0664C37.5066 50.4764 37.2747 51.0325 37.2747 51.6124Z" fill="#93D9C7"/>
<path d="M37.2747 39.2559C37.271 39.689 37.3971 40.1135 37.6367 40.4755C37.8764 40.8374 38.219 41.1204 38.6209 41.2887C39.0228 41.4569 39.466 41.5029 39.8943 41.4206C40.3225 41.3383 40.7165 41.1315 41.0262 40.8265C41.3359 40.5215 41.5474 40.1319 41.6339 39.7073C41.7203 39.2827 41.6778 38.8421 41.5117 38.4416C41.3457 38.041 41.0635 37.6985 40.7011 37.4575C40.3387 37.2164 39.9124 37.0877 39.4762 37.0877C38.8955 37.0876 38.3383 37.3155 37.9259 37.7216C37.5136 38.1277 37.2795 38.6792 37.2747 39.2559Z" fill="#93D9C7"/>
<path d="M37.2747 26.8993C37.2747 27.3317 37.4038 27.7545 37.6457 28.114C37.8876 28.4735 38.2314 28.7538 38.6337 28.9193C39.036 29.0848 39.4786 29.128 39.9057 29.0437C40.3327 28.9593 40.725 28.7511 41.0328 28.4453C41.3407 28.1395 41.5504 27.75 41.6353 27.3259C41.7203 26.9018 41.6767 26.4621 41.5101 26.0626C41.3435 25.6631 41.0613 25.3217 40.6992 25.0814C40.3372 24.8412 39.9116 24.713 39.4762 24.713C38.8923 24.713 38.3323 24.9433 37.9195 25.3533C37.5066 25.7633 37.2747 26.3195 37.2747 26.8993Z" fill="#93D9C7"/>
<path d="M37.2747 14.5319C37.2747 14.9643 37.4038 15.3871 37.6457 15.7466C37.8876 16.1062 38.2314 16.3863 38.6337 16.5518C39.036 16.7173 39.4786 16.7606 39.9057 16.6763C40.3327 16.5919 40.725 16.3837 41.0328 16.0779C41.3407 15.7721 41.5504 15.3826 41.6353 14.9585C41.7203 14.5344 41.6767 14.0947 41.5101 13.6952C41.3435 13.2957 41.0613 12.9543 40.6992 12.714C40.3372 12.4738 39.9116 12.3456 39.4762 12.3456C38.8923 12.3456 38.3323 12.5759 37.9195 12.9859C37.5066 13.3959 37.2747 13.9521 37.2747 14.5319Z" fill="#93D9C7"/>
<path d="M37.2747 2.18634C37.271 2.61952 37.3971 3.044 37.6367 3.40593C37.8764 3.76786 38.219 4.05087 38.6209 4.21915C39.0228 4.38742 39.466 4.43335 39.8943 4.35106C40.3225 4.26877 40.7165 4.06202 41.0262 3.75699C41.3359 3.45196 41.5474 3.06243 41.6339 2.63783C41.7203 2.21323 41.6778 1.77264 41.5117 1.37207C41.3457 0.971505 41.0635 0.629009 40.7011 0.387955C40.3387 0.1469 39.9124 0.0181577 39.4762 0.0181427C38.8955 0.0181227 38.3383 0.246012 37.9259 0.6521C37.5136 1.05819 37.2795 1.60965 37.2747 2.18634Z" fill="#93D9C7"/>
<path d="M49.713 76.3254C49.713 76.7578 49.8421 77.1805 50.084 77.54C50.3259 77.8995 50.6698 78.1798 51.072 78.3453C51.4743 78.5108 51.9169 78.554 52.344 78.4697C52.771 78.3853 53.1633 78.1771 53.4712 77.8714C53.7791 77.5656 53.9887 77.176 54.0737 76.7519C54.1586 76.3278 54.115 75.8882 53.9484 75.4887C53.7818 75.0892 53.4996 74.7477 53.1376 74.5074C52.7755 74.2672 52.3499 74.139 51.9145 74.139C51.3306 74.139 50.7707 74.3694 50.3578 74.7794C49.945 75.1894 49.713 75.7455 49.713 76.3254Z" fill="#93D9C7"/>
<path d="M49.713 63.9688C49.713 64.4012 49.8421 64.824 50.084 65.1835C50.3259 65.5431 50.6698 65.8233 51.072 65.9888C51.4743 66.1543 51.9169 66.1975 52.344 66.1132C52.771 66.0288 53.1633 65.8206 53.4712 65.5148C53.7791 65.209 53.9887 64.8195 54.0737 64.3954C54.1586 63.9713 54.115 63.5316 53.9484 63.1321C53.7818 62.7326 53.4996 62.3912 53.1376 62.151C52.7755 61.9107 52.3499 61.7825 51.9145 61.7825C51.3306 61.7825 50.7707 62.0128 50.3578 62.4228C49.945 62.8328 49.713 63.389 49.713 63.9688Z" fill="#93D9C7"/>
<path d="M49.713 51.6124C49.713 52.0448 49.8421 52.4675 50.084 52.8271C50.3259 53.1866 50.6698 53.4668 51.072 53.6323C51.4743 53.7977 51.9169 53.8411 52.344 53.7567C52.771 53.6724 53.1633 53.4641 53.4712 53.1584C53.7791 52.8526 53.9887 52.463 54.0737 52.0389C54.1586 51.6147 54.115 51.1752 53.9484 50.7757C53.7818 50.3762 53.4996 50.0347 53.1376 49.7945C52.7755 49.5543 52.3499 49.426 51.9145 49.426C51.3306 49.426 50.7707 49.6564 50.3578 50.0664C49.945 50.4764 49.713 51.0325 49.713 51.6124Z" fill="#93D9C7"/>
<path d="M49.713 39.2559C49.7094 39.689 49.8354 40.1135 50.0751 40.4755C50.3147 40.8374 50.6573 41.1204 51.0592 41.2887C51.4611 41.4569 51.9043 41.5029 52.3326 41.4206C52.7608 41.3383 53.1548 41.1315 53.4646 40.8265C53.7743 40.5215 53.9858 40.1319 54.0722 39.7073C54.1586 39.2827 54.1161 38.8421 53.9501 38.4416C53.784 38.041 53.5018 37.6985 53.1394 37.4575C52.777 37.2164 52.3507 37.0877 51.9145 37.0877C51.3338 37.0876 50.7766 37.3155 50.3642 37.7216C49.9519 38.1277 49.7178 38.6792 49.713 39.2559Z" fill="#93D9C7"/>
<path d="M49.713 26.8993C49.713 27.3317 49.8421 27.7545 50.084 28.114C50.3259 28.4735 50.6698 28.7538 51.072 28.9193C51.4743 29.0848 51.9169 29.128 52.344 29.0437C52.771 28.9593 53.1633 28.7511 53.4712 28.4453C53.7791 28.1395 53.9887 27.75 54.0737 27.3259C54.1586 26.9018 54.115 26.4621 53.9484 26.0626C53.7818 25.6631 53.4996 25.3217 53.1376 25.0814C52.7755 24.8412 52.3499 24.713 51.9145 24.713C51.3306 24.713 50.7707 24.9433 50.3578 25.3533C49.945 25.7633 49.713 26.3195 49.713 26.8993Z" fill="#93D9C7"/>
<path d="M49.713 14.5319C49.713 14.9643 49.8421 15.3871 50.084 15.7466C50.3259 16.1062 50.6698 16.3863 51.072 16.5518C51.4743 16.7173 51.9169 16.7606 52.344 16.6763C52.771 16.5919 53.1633 16.3837 53.4712 16.0779C53.7791 15.7721 53.9887 15.3826 54.0737 14.9585C54.1586 14.5344 54.115 14.0947 53.9484 13.6952C53.7818 13.2957 53.4996 12.9543 53.1376 12.714C52.7755 12.4738 52.3499 12.3456 51.9145 12.3456C51.3306 12.3456 50.7707 12.5759 50.3578 12.9859C49.945 13.3959 49.713 13.9521 49.713 14.5319Z" fill="#93D9C7"/>
<path d="M49.713 2.18634C49.7094 2.61952 49.8354 3.044 50.0751 3.40593C50.3147 3.76786 50.6573 4.05087 51.0592 4.21915C51.4611 4.38742 51.9043 4.43335 52.3326 4.35106C52.7608 4.26877 53.1548 4.06202 53.4646 3.75699C53.7743 3.45196 53.9858 3.06243 54.0722 2.63783C54.1586 2.21323 54.1161 1.77264 53.9501 1.37207C53.784 0.971505 53.5018 0.629009 53.1394 0.387955C52.777 0.1469 52.3507 0.0181577 51.9145 0.0181427C51.3338 0.0181227 50.7766 0.246012 50.3642 0.6521C49.9519 1.05819 49.7178 1.60965 49.713 2.18634Z" fill="#93D9C7"/>
<path d="M62.0743 76.3254C62.0743 76.7578 62.2034 77.1805 62.4453 77.54C62.6872 77.8995 63.031 78.1798 63.4333 78.3453C63.8356 78.5108 64.2782 78.554 64.7052 78.4697C65.1323 78.3853 65.5246 78.1771 65.8324 77.8714C66.1403 77.5656 66.35 77.176 66.4349 76.7519C66.5199 76.3278 66.4763 75.8882 66.3096 75.4887C66.143 75.0892 65.8609 74.7477 65.4988 74.5074C65.1368 74.2672 64.7112 74.139 64.2757 74.139C63.6919 74.139 63.1319 74.3694 62.7191 74.7794C62.3062 75.1894 62.0743 75.7455 62.0743 76.3254Z" fill="#93D9C7"/>
<path d="M62.0743 63.9688C62.0743 64.4012 62.2034 64.824 62.4453 65.1835C62.6872 65.5431 63.031 65.8233 63.4333 65.9888C63.8356 66.1543 64.2782 66.1975 64.7052 66.1132C65.1323 66.0288 65.5246 65.8206 65.8324 65.5148C66.1403 65.209 66.35 64.8195 66.4349 64.3954C66.5199 63.9713 66.4763 63.5316 66.3096 63.1321C66.143 62.7326 65.8609 62.3912 65.4988 62.151C65.1368 61.9107 64.7112 61.7825 64.2757 61.7825C63.6919 61.7825 63.1319 62.0128 62.7191 62.4228C62.3062 62.8328 62.0743 63.389 62.0743 63.9688Z" fill="#93D9C7"/>
<path d="M62.0743 51.6124C62.0743 52.0448 62.2034 52.4675 62.4453 52.8271C62.6872 53.1866 63.031 53.4668 63.4333 53.6323C63.8356 53.7977 64.2782 53.8411 64.7052 53.7567C65.1323 53.6724 65.5246 53.4641 65.8324 53.1584C66.1403 52.8526 66.35 52.463 66.4349 52.0389C66.5199 51.6147 66.4763 51.1752 66.3096 50.7757C66.143 50.3762 65.8609 50.0347 65.4988 49.7945C65.1368 49.5543 64.7112 49.426 64.2757 49.426C63.6919 49.426 63.1319 49.6564 62.7191 50.0664C62.3062 50.4764 62.0743 51.0325 62.0743 51.6124Z" fill="#93D9C7"/>
<path d="M62.0743 39.2559C62.0707 39.689 62.1967 40.1135 62.4364 40.4755C62.6761 40.8374 63.0186 41.1204 63.4205 41.2887C63.8225 41.4569 64.2657 41.5029 64.6939 41.4206C65.1222 41.3383 65.5161 41.1315 65.8259 40.8265C66.1356 40.5215 66.3471 40.1319 66.4335 39.7073C66.52 39.2827 66.4775 38.8421 66.3114 38.4416C66.1453 38.041 65.8632 37.6985 65.5007 37.4575C65.1383 37.2164 64.712 37.0877 64.2758 37.0877C63.6951 37.0876 63.1379 37.3155 62.7256 37.7216C62.3132 38.1277 62.0791 38.6792 62.0743 39.2559Z" fill="#93D9C7"/>
<path d="M62.0743 26.8993C62.0743 27.3317 62.2034 27.7545 62.4453 28.114C62.6872 28.4735 63.031 28.7538 63.4333 28.9193C63.8356 29.0848 64.2782 29.128 64.7052 29.0437C65.1323 28.9593 65.5246 28.7511 65.8324 28.4453C66.1403 28.1395 66.35 27.75 66.4349 27.3259C66.5199 26.9018 66.4763 26.4621 66.3096 26.0626C66.143 25.6631 65.8609 25.3217 65.4988 25.0814C65.1368 24.8412 64.7112 24.713 64.2757 24.713C63.6919 24.713 63.1319 24.9433 62.7191 25.3533C62.3062 25.7633 62.0743 26.3195 62.0743 26.8993Z" fill="#93D9C7"/>
<path d="M62.0743 14.5319C62.0743 14.9643 62.2034 15.3871 62.4453 15.7466C62.6872 16.1062 63.031 16.3863 63.4333 16.5518C63.8356 16.7173 64.2782 16.7606 64.7052 16.6763C65.1323 16.5919 65.5246 16.3837 65.8324 16.0779C66.1403 15.7721 66.35 15.3826 66.4349 14.9585C66.5199 14.5344 66.4763 14.0947 66.3096 13.6952C66.143 13.2957 65.8609 12.9543 65.4988 12.714C65.1368 12.4738 64.7112 12.3456 64.2757 12.3456C63.6919 12.3456 63.1319 12.5759 62.7191 12.9859C62.3062 13.3959 62.0743 13.9521 62.0743 14.5319Z" fill="#93D9C7"/>
<path d="M62.0743 2.18634C62.0707 2.61952 62.1967 3.044 62.4364 3.40593C62.6761 3.76786 63.0186 4.05087 63.4205 4.21915C63.8225 4.38742 64.2657 4.43335 64.6939 4.35106C65.1222 4.26877 65.5161 4.06202 65.8259 3.75699C66.1356 3.45196 66.3471 3.06243 66.4335 2.63783C66.52 2.21323 66.4775 1.77264 66.3114 1.37207C66.1453 0.971505 65.8632 0.629009 65.5007 0.387955C65.1383 0.1469 64.712 0.0181577 64.2758 0.0181427C63.6951 0.0181227 63.1379 0.246012 62.7256 0.6521C62.3132 1.05819 62.0791 1.60965 62.0743 2.18634Z" fill="#93D9C7"/>
<path d="M74.597 76.3254C74.597 76.7578 74.7262 77.1805 74.9681 77.54C75.21 77.8995 75.5538 78.1798 75.9561 78.3453C76.3583 78.5108 76.801 78.554 77.228 78.4697C77.6551 78.3853 78.0473 78.1771 78.3552 77.8714C78.6631 77.5656 78.8728 77.176 78.9577 76.7519C79.0426 76.3278 78.999 75.8882 78.8324 75.4887C78.6658 75.0892 78.3836 74.7477 78.0216 74.5074C77.6596 74.2672 77.2339 74.139 76.7985 74.139C76.2147 74.139 75.6547 74.3694 75.2419 74.7794C74.829 75.1894 74.597 75.7455 74.597 76.3254Z" fill="#93D9C7"/>
<path d="M74.597 63.9688C74.597 64.4012 74.7262 64.824 74.9681 65.1835C75.21 65.5431 75.5538 65.8233 75.9561 65.9888C76.3583 66.1543 76.801 66.1975 77.228 66.1132C77.6551 66.0288 78.0473 65.8206 78.3552 65.5148C78.6631 65.209 78.8728 64.8195 78.9577 64.3954C79.0426 63.9713 78.999 63.5316 78.8324 63.1321C78.6658 62.7326 78.3836 62.3912 78.0216 62.151C77.6596 61.9107 77.2339 61.7825 76.7985 61.7825C76.2147 61.7825 75.6547 62.0128 75.2419 62.4228C74.829 62.8328 74.597 63.389 74.597 63.9688Z" fill="#93D9C7"/>
<path d="M74.597 51.6124C74.597 52.0448 74.7262 52.4675 74.9681 52.8271C75.21 53.1866 75.5538 53.4668 75.9561 53.6323C76.3583 53.7977 76.801 53.8411 77.228 53.7567C77.6551 53.6724 78.0473 53.4641 78.3552 53.1584C78.6631 52.8526 78.8728 52.463 78.9577 52.0389C79.0426 51.6147 78.999 51.1752 78.8324 50.7757C78.6658 50.3762 78.3836 50.0347 78.0216 49.7945C77.6596 49.5543 77.2339 49.426 76.7985 49.426C76.2147 49.426 75.6547 49.6564 75.2419 50.0664C74.829 50.4764 74.597 51.0325 74.597 51.6124Z" fill="#93D9C7"/>
<path d="M74.597 39.2559C74.5934 39.689 74.7194 40.1135 74.9591 40.4755C75.1988 40.8374 75.5413 41.1204 75.9433 41.2887C76.3452 41.4569 76.7884 41.5029 77.2166 41.4206C77.6449 41.3383 78.0389 41.1315 78.3486 40.8265C78.6583 40.5215 78.8698 40.1319 78.9563 39.7073C79.0427 39.2827 79.0002 38.8421 78.8341 38.4416C78.668 38.041 78.3859 37.6985 78.0235 37.4575C77.6611 37.2164 77.2347 37.0877 76.7985 37.0877C76.2178 37.0876 75.6606 37.3155 75.2483 37.7216C74.836 38.1277 74.6019 38.6792 74.597 39.2559Z" fill="#93D9C7"/>
<path d="M74.597 26.8993C74.597 27.3317 74.7262 27.7545 74.9681 28.114C75.21 28.4735 75.5538 28.7538 75.9561 28.9193C76.3583 29.0848 76.801 29.128 77.228 29.0437C77.6551 28.9593 78.0473 28.7511 78.3552 28.4453C78.6631 28.1395 78.8728 27.75 78.9577 27.3259C79.0426 26.9018 78.999 26.4621 78.8324 26.0626C78.6658 25.6631 78.3836 25.3217 78.0216 25.0814C77.6596 24.8412 77.2339 24.713 76.7985 24.713C76.2147 24.713 75.6547 24.9433 75.2419 25.3533C74.829 25.7633 74.597 26.3195 74.597 26.8993Z" fill="#93D9C7"/>
<path d="M74.597 14.5319C74.597 14.9643 74.7262 15.3871 74.9681 15.7466C75.21 16.1062 75.5538 16.3863 75.9561 16.5518C76.3583 16.7173 76.801 16.7606 77.228 16.6763C77.6551 16.5919 78.0473 16.3837 78.3552 16.0779C78.6631 15.7721 78.8728 15.3826 78.9577 14.9585C79.0426 14.5344 78.999 14.0947 78.8324 13.6952C78.6658 13.2957 78.3836 12.9543 78.0216 12.714C77.6596 12.4738 77.2339 12.3456 76.7985 12.3456C76.2147 12.3456 75.6547 12.5759 75.2419 12.9859C74.829 13.3959 74.597 13.9521 74.597 14.5319Z" fill="#93D9C7"/>
<path d="M74.597 2.18634C74.5934 2.61952 74.7194 3.044 74.9591 3.40593C75.1988 3.76786 75.5413 4.05087 75.9433 4.21915C76.3452 4.38742 76.7884 4.43335 77.2166 4.35106C77.6449 4.26877 78.0389 4.06202 78.3486 3.75699C78.6583 3.45196 78.8698 3.06243 78.9563 2.63783C79.0427 2.21323 79.0002 1.77264 78.8341 1.37207C78.668 0.971505 78.3859 0.629009 78.0235 0.387955C77.6611 0.1469 77.2347 0.0181577 76.7985 0.0181427C76.2178 0.0181227 75.6606 0.246012 75.2483 0.6521C74.836 1.05819 74.6019 1.60965 74.597 2.18634Z" fill="#93D9C7"/>
</svg>
