<svg width="130" height="63" viewBox="0 0 130 63" fill="none" xmlns="http://www.w3.org/2000/svg">
<path d="M2.66954 0.707749C2.33181 0.707749 2.00164 0.8083 1.72083 0.996691C1.44001 1.18508 1.22112 1.45284 1.09187 1.76613C0.962627 2.07941 0.928847 2.42415 0.994735 2.75673C1.06062 3.08931 1.22326 3.3948 1.46207 3.63458C1.70089 3.87436 2.00513 4.03765 2.33637 4.10381C2.66761 4.16996 3.011 4.13601 3.32302 4.00624C3.63505 3.87648 3.90171 3.65671 4.08934 3.37476C4.27698 3.09282 4.37714 2.76135 4.37714 2.42225C4.37714 1.96754 4.19724 1.53144 3.87701 1.20991C3.55677 0.888374 3.12242 0.707749 2.66954 0.707749Z" fill="#FF0EFF" fill-opacity="0.13"/>
<path d="M12.326 0.707749C11.9883 0.707749 11.6581 0.8083 11.3773 0.996691C11.0965 1.18508 10.8776 1.45284 10.7484 1.76613C10.6191 2.07941 10.5853 2.42415 10.6512 2.75673C10.7171 3.08931 10.8797 3.3948 11.1185 3.63458C11.3573 3.87436 11.6616 4.03765 11.9928 4.10381C12.3241 4.16996 12.6674 4.13601 12.9795 4.00624C13.2915 3.87648 13.5582 3.65671 13.7458 3.37476C13.9334 3.09282 14.0336 2.76135 14.0336 2.42225C14.0336 1.96754 13.8537 1.53144 13.5334 1.20991C13.2132 0.888374 12.7789 0.707749 12.326 0.707749Z" fill="#FF0EFF" fill-opacity="0.13"/>
<path d="M21.9711 0.707749C21.6333 0.707749 21.3032 0.8083 21.0224 0.996691C20.7416 1.18508 20.5227 1.45284 20.3935 1.76613C20.2642 2.07941 20.2304 2.42415 20.2963 2.75673C20.3622 3.08931 20.5249 3.3948 20.7637 3.63458C21.0025 3.87436 21.3067 4.03765 21.638 4.10381C21.9692 4.16996 22.3125 4.13601 22.6245 4.00624C22.9366 3.87648 23.2033 3.65671 23.3909 3.37476C23.5786 3.09282 23.6787 2.76135 23.6787 2.42225C23.6787 1.96754 23.4988 1.53144 23.1785 1.20991C22.8583 0.888374 22.4239 0.707749 21.9711 0.707749Z" fill="#FF0EFF" fill-opacity="0.13"/>
<path d="M31.6219 0.707739C31.2835 0.704908 30.952 0.803042 30.6693 0.989705C30.3866 1.17637 30.1655 1.44313 30.0341 1.75616C29.9027 2.06918 29.8669 2.41436 29.9311 2.74788C29.9954 3.08139 30.1569 3.38822 30.3951 3.62942C30.6334 3.87063 30.9376 4.03534 31.2692 4.10266C31.6009 4.16998 31.9449 4.13688 32.2578 4.00754C32.5706 3.8782 32.8382 3.65847 33.0264 3.37622C33.2147 3.09397 33.3152 2.76194 33.3152 2.42224C33.3152 1.96999 33.1372 1.53604 32.8201 1.21492C32.5029 0.893794 32.0723 0.711508 31.6219 0.707739Z" fill="#FF0EFF" fill-opacity="0.13"/>
<path d="M41.2726 0.707739C40.9343 0.704908 40.6028 0.803042 40.3201 0.989705C40.0374 1.17637 39.8163 1.44313 39.6849 1.75616C39.5534 2.06918 39.5176 2.41436 39.5819 2.74788C39.6462 3.08139 39.8077 3.38822 40.0459 3.62942C40.2841 3.87063 40.5884 4.03534 40.92 4.10266C41.2516 4.16998 41.5957 4.13688 41.9085 4.00754C42.2214 3.8782 42.4889 3.65847 42.6772 3.37622C42.8655 3.09397 42.966 2.76194 42.966 2.42224C42.966 1.96999 42.7881 1.53604 42.4709 1.21492C42.1537 0.893794 41.723 0.711508 41.2726 0.707739Z" fill="#FF0EFF" fill-opacity="0.13"/>
<path d="M50.9235 0.707749C50.5858 0.707749 50.2556 0.8083 49.9748 0.996691C49.694 1.18508 49.4751 1.45284 49.3458 1.76613C49.2166 2.07941 49.1828 2.42415 49.2487 2.75673C49.3146 3.08931 49.4772 3.3948 49.716 3.63458C49.9548 3.87436 50.2591 4.03765 50.5903 4.10381C50.9216 4.16996 51.2649 4.13601 51.5769 4.00624C51.8889 3.87648 52.1557 3.65671 52.3433 3.37476C52.5309 3.09282 52.6311 2.76135 52.6311 2.42225C52.6311 1.96754 52.4511 1.53144 52.1309 1.20991C51.8107 0.888374 51.3764 0.707749 50.9235 0.707749Z" fill="#FF0EFF" fill-opacity="0.13"/>
<path d="M60.5742 0.707739C60.2359 0.704908 59.9044 0.803042 59.6217 0.989705C59.339 1.17637 59.1179 1.44313 58.9865 1.75616C58.855 2.06918 58.8192 2.41436 58.8835 2.74788C58.9478 3.08139 59.1093 3.38822 59.3475 3.62942C59.5857 3.87063 59.89 4.03534 60.2216 4.10266C60.5532 4.16998 60.8973 4.13688 61.2101 4.00754C61.523 3.8782 61.7905 3.65847 61.9788 3.37622C62.1671 3.09397 62.2676 2.76194 62.2676 2.42224C62.2676 1.96999 62.0896 1.53604 61.7724 1.21492C61.4553 0.893794 61.0246 0.711508 60.5742 0.707739Z" fill="#FF0EFF" fill-opacity="0.13"/>
<path d="M2.66954 10.3947C2.33181 10.3947 2.00164 10.4952 1.72083 10.6836C1.44001 10.872 1.22112 11.1398 1.09187 11.4531C0.962627 11.7663 0.928847 12.1111 0.994735 12.4436C1.06062 12.7762 1.22326 13.0817 1.46207 13.3215C1.70089 13.5613 2.00513 13.7246 2.33637 13.7907C2.66761 13.8569 3.011 13.8229 3.32302 13.6931C3.63505 13.5634 3.90171 13.3436 4.08934 13.0617C4.27698 12.7797 4.37714 12.4483 4.37714 12.1092C4.37714 11.6544 4.19724 11.2184 3.87701 10.8968C3.55677 10.5753 3.12242 10.3947 2.66954 10.3947Z" fill="#FF0EFF" fill-opacity="0.13"/>
<path d="M12.326 10.3947C11.9883 10.3947 11.6581 10.4952 11.3773 10.6836C11.0965 10.872 10.8776 11.1398 10.7484 11.4531C10.6191 11.7663 10.5853 12.1111 10.6512 12.4436C10.7171 12.7762 10.8797 13.0817 11.1185 13.3215C11.3573 13.5613 11.6616 13.7246 11.9928 13.7907C12.3241 13.8569 12.6674 13.8229 12.9795 13.6931C13.2915 13.5634 13.5582 13.3436 13.7458 13.0617C13.9334 12.7797 14.0336 12.4483 14.0336 12.1092C14.0336 11.6544 13.8537 11.2184 13.5334 10.8968C13.2132 10.5753 12.7789 10.3947 12.326 10.3947Z" fill="#FF0EFF" fill-opacity="0.13"/>
<path d="M21.9711 10.3947C21.6333 10.3947 21.3032 10.4952 21.0224 10.6836C20.7416 10.872 20.5227 11.1398 20.3935 11.4531C20.2642 11.7663 20.2304 12.1111 20.2963 12.4436C20.3622 12.7762 20.5249 13.0817 20.7637 13.3215C21.0025 13.5613 21.3067 13.7246 21.638 13.7907C21.9692 13.8569 22.3125 13.8229 22.6245 13.6931C22.9366 13.5634 23.2033 13.3436 23.3909 13.0617C23.5786 12.7797 23.6787 12.4483 23.6787 12.1092C23.6787 11.6544 23.4988 11.2184 23.1785 10.8968C22.8583 10.5753 22.4239 10.3947 21.9711 10.3947Z" fill="#FF0EFF" fill-opacity="0.13"/>
<path d="M31.6219 10.3946C31.2835 10.3918 30.952 10.49 30.6693 10.6766C30.3866 10.8633 30.1655 11.1301 30.0341 11.4431C29.9027 11.7561 29.8669 12.1013 29.9311 12.4348C29.9954 12.7683 30.1569 13.0751 30.3951 13.3163C30.6334 13.5576 30.9376 13.7223 31.2692 13.7896C31.6009 13.8569 31.9449 13.8238 32.2578 13.6945C32.5706 13.5651 32.8382 13.3454 33.0264 13.0631C33.2147 12.7809 33.3152 12.4488 33.3152 12.1091C33.3152 11.6569 33.1372 11.223 32.8201 10.9018C32.5029 10.5807 32.0723 10.3984 31.6219 10.3946Z" fill="#FF0EFF" fill-opacity="0.13"/>
<path d="M41.2726 10.3946C40.9343 10.3918 40.6028 10.49 40.3201 10.6766C40.0374 10.8633 39.8163 11.1301 39.6849 11.4431C39.5534 11.7561 39.5176 12.1013 39.5819 12.4348C39.6462 12.7683 39.8077 13.0751 40.0459 13.3163C40.2841 13.5576 40.5884 13.7223 40.92 13.7896C41.2516 13.8569 41.5957 13.8238 41.9085 13.6945C42.2214 13.5651 42.4889 13.3454 42.6772 13.0631C42.8655 12.7809 42.966 12.4488 42.966 12.1091C42.966 11.6569 42.7881 11.223 42.4709 10.9018C42.1537 10.5807 41.723 10.3984 41.2726 10.3946Z" fill="#FF0EFF" fill-opacity="0.13"/>
<path d="M50.9235 10.3947C50.5858 10.3947 50.2556 10.4952 49.9748 10.6836C49.694 10.872 49.4751 11.1398 49.3458 11.4531C49.2166 11.7663 49.1828 12.1111 49.2487 12.4436C49.3146 12.7762 49.4772 13.0817 49.716 13.3215C49.9548 13.5613 50.2591 13.7246 50.5903 13.7907C50.9216 13.8569 51.2649 13.8229 51.5769 13.6931C51.8889 13.5634 52.1557 13.3436 52.3433 13.0617C52.5309 12.7797 52.6311 12.4483 52.6311 12.1092C52.6311 11.6544 52.4511 11.2184 52.1309 10.8968C51.8107 10.5753 51.3764 10.3947 50.9235 10.3947Z" fill="#FF0EFF" fill-opacity="0.13"/>
<path d="M60.5742 10.3946C60.2359 10.3918 59.9044 10.49 59.6217 10.6766C59.339 10.8633 59.1179 11.1301 58.9865 11.4431C58.855 11.7561 58.8192 12.1013 58.8835 12.4348C58.9478 12.7683 59.1093 13.0751 59.3475 13.3163C59.5857 13.5576 59.89 13.7223 60.2216 13.7896C60.5532 13.8569 60.8973 13.8238 61.2101 13.6945C61.523 13.5651 61.7905 13.3454 61.9788 13.0631C62.1671 12.7809 62.2676 12.4488 62.2676 12.1091C62.2676 11.6569 62.0896 11.223 61.7724 10.9018C61.4553 10.5807 61.0246 10.3984 60.5742 10.3946Z" fill="#FF0EFF" fill-opacity="0.13"/>
<path d="M2.66954 20.0216C2.33181 20.0216 2.00164 20.1221 1.72083 20.3105C1.44001 20.4989 1.22112 20.7667 1.09187 21.08C0.962627 21.3932 0.928847 21.738 0.994735 22.0705C1.06062 22.4031 1.22326 22.7086 1.46207 22.9484C1.70089 23.1882 2.00513 23.3515 2.33637 23.4176C2.66761 23.4838 3.011 23.4498 3.32302 23.3201C3.63505 23.1903 3.90171 22.9705 4.08934 22.6886C4.27698 22.4066 4.37714 22.0752 4.37714 21.7361C4.37714 21.2814 4.19724 20.8453 3.87701 20.5237C3.55677 20.2022 3.12242 20.0216 2.66954 20.0216Z" fill="#FF0EFF" fill-opacity="0.13"/>
<path d="M12.326 20.0216C11.9883 20.0216 11.6581 20.1221 11.3773 20.3105C11.0965 20.4989 10.8776 20.7667 10.7484 21.08C10.6191 21.3932 10.5853 21.738 10.6512 22.0705C10.7171 22.4031 10.8797 22.7086 11.1185 22.9484C11.3573 23.1882 11.6616 23.3515 11.9928 23.4176C12.3241 23.4838 12.6674 23.4498 12.9795 23.3201C13.2915 23.1903 13.5582 22.9705 13.7458 22.6886C13.9334 22.4066 14.0336 22.0752 14.0336 21.7361C14.0336 21.2814 13.8537 20.8453 13.5334 20.5237C13.2132 20.2022 12.7789 20.0216 12.326 20.0216Z" fill="#FF0EFF" fill-opacity="0.13"/>
<path d="M21.9711 20.0216C21.6333 20.0216 21.3032 20.1221 21.0224 20.3105C20.7416 20.4989 20.5227 20.7667 20.3935 21.08C20.2642 21.3932 20.2304 21.738 20.2963 22.0705C20.3622 22.4031 20.5249 22.7086 20.7637 22.9484C21.0025 23.1882 21.3067 23.3515 21.638 23.4176C21.9692 23.4838 22.3125 23.4498 22.6245 23.3201C22.9366 23.1903 23.2033 22.9705 23.3909 22.6886C23.5786 22.4066 23.6787 22.0752 23.6787 21.7361C23.6787 21.2814 23.4988 20.8453 23.1785 20.5237C22.8583 20.2022 22.4239 20.0216 21.9711 20.0216Z" fill="#FF0EFF" fill-opacity="0.13"/>
<path d="M31.6219 20.0216C31.2835 20.0188 30.952 20.1169 30.6693 20.3036C30.3866 20.4902 30.1655 20.757 30.0341 21.07C29.9027 21.383 29.8669 21.7282 29.9311 22.0617C29.9954 22.3952 30.1569 22.7021 30.3951 22.9433C30.6334 23.1845 30.9376 23.3492 31.2692 23.4165C31.6009 23.4838 31.9449 23.4507 32.2578 23.3214C32.5706 23.1921 32.8382 22.9723 33.0264 22.6901C33.2147 22.4078 33.3152 22.0758 33.3152 21.7361C33.3152 21.2838 33.1372 20.8499 32.8201 20.5288C32.5029 20.2077 32.0723 20.0254 31.6219 20.0216Z" fill="#FF0EFF" fill-opacity="0.13"/>
<path d="M41.2726 20.0216C40.9343 20.0188 40.6028 20.1169 40.3201 20.3036C40.0374 20.4902 39.8163 20.757 39.6849 21.07C39.5534 21.383 39.5176 21.7282 39.5819 22.0617C39.6462 22.3952 39.8077 22.7021 40.0459 22.9433C40.2841 23.1845 40.5884 23.3492 40.92 23.4165C41.2516 23.4838 41.5957 23.4507 41.9085 23.3214C42.2214 23.1921 42.4889 22.9723 42.6772 22.6901C42.8655 22.4078 42.966 22.0758 42.966 21.7361C42.966 21.2838 42.7881 20.8499 42.4709 20.5288C42.1537 20.2077 41.723 20.0254 41.2726 20.0216Z" fill="#FF0EFF" fill-opacity="0.13"/>
<path d="M50.9235 20.0216C50.5858 20.0216 50.2556 20.1221 49.9748 20.3105C49.694 20.4989 49.4751 20.7667 49.3458 21.08C49.2166 21.3932 49.1828 21.738 49.2487 22.0705C49.3146 22.4031 49.4772 22.7086 49.716 22.9484C49.9548 23.1882 50.2591 23.3515 50.5903 23.4176C50.9216 23.4838 51.2649 23.4498 51.5769 23.3201C51.8889 23.1903 52.1557 22.9705 52.3433 22.6886C52.5309 22.4066 52.6311 22.0752 52.6311 21.7361C52.6311 21.2814 52.4511 20.8453 52.1309 20.5237C51.8107 20.2022 51.3764 20.0216 50.9235 20.0216Z" fill="#FF0EFF" fill-opacity="0.13"/>
<path d="M60.5742 20.0216C60.2359 20.0188 59.9044 20.1169 59.6217 20.3036C59.339 20.4902 59.1179 20.757 58.9865 21.07C58.855 21.383 58.8192 21.7282 58.8835 22.0617C58.9478 22.3952 59.1093 22.7021 59.3475 22.9433C59.5857 23.1845 59.89 23.3492 60.2216 23.4165C60.5532 23.4838 60.8973 23.4507 61.2101 23.3214C61.523 23.1921 61.7905 22.9723 61.9788 22.6901C62.1671 22.4078 62.2676 22.0758 62.2676 21.7361C62.2676 21.2838 62.0896 20.8499 61.7724 20.5288C61.4553 20.2077 61.0246 20.0254 60.5742 20.0216Z" fill="#FF0EFF" fill-opacity="0.13"/>
<path d="M2.66954 29.7114C2.33181 29.7114 2.00164 29.8119 1.72083 30.0003C1.44001 30.1887 1.22112 30.4565 1.09187 30.7698C0.962627 31.0831 0.928847 31.4278 0.994735 31.7604C1.06062 32.093 1.22326 32.3985 1.46207 32.6382C1.70089 32.878 2.00513 33.0413 2.33637 33.1075C2.66761 33.1736 3.011 33.1397 3.32302 33.0099C3.63505 32.8801 3.90171 32.6604 4.08934 32.3784C4.27698 32.0965 4.37714 31.765 4.37714 31.4259C4.37714 30.9712 4.19724 30.5351 3.87701 30.2136C3.55677 29.892 3.12242 29.7114 2.66954 29.7114Z" fill="#FF0EFF" fill-opacity="0.13"/>
<path d="M12.326 29.7114C11.9883 29.7114 11.6581 29.8119 11.3773 30.0003C11.0965 30.1887 10.8776 30.4565 10.7484 30.7698C10.6191 31.0831 10.5853 31.4278 10.6512 31.7604C10.7171 32.093 10.8797 32.3985 11.1185 32.6382C11.3573 32.878 11.6616 33.0413 11.9928 33.1075C12.3241 33.1736 12.6674 33.1397 12.9795 33.0099C13.2915 32.8801 13.5582 32.6604 13.7458 32.3784C13.9334 32.0965 14.0336 31.765 14.0336 31.4259C14.0336 30.9712 13.8537 30.5351 13.5334 30.2136C13.2132 29.892 12.7789 29.7114 12.326 29.7114Z" fill="#FF0EFF" fill-opacity="0.13"/>
<path d="M21.9711 29.7114C21.6333 29.7114 21.3032 29.8119 21.0224 30.0003C20.7416 30.1887 20.5227 30.4565 20.3935 30.7698C20.2642 31.0831 20.2304 31.4278 20.2963 31.7604C20.3622 32.093 20.5249 32.3985 20.7637 32.6382C21.0025 32.878 21.3067 33.0413 21.638 33.1075C21.9692 33.1736 22.3125 33.1397 22.6245 33.0099C22.9366 32.8801 23.2033 32.6604 23.3909 32.3784C23.5786 32.0965 23.6787 31.765 23.6787 31.4259C23.6787 30.9712 23.4988 30.5351 23.1785 30.2136C22.8583 29.892 22.4239 29.7114 21.9711 29.7114Z" fill="#FF0EFF" fill-opacity="0.13"/>
<path d="M31.6219 29.7114C31.2835 29.7086 30.952 29.8067 30.6693 29.9934C30.3866 30.18 30.1655 30.4468 30.0341 30.7598C29.9027 31.0728 29.8669 31.418 29.9311 31.7515C29.9954 32.085 30.1569 32.3919 30.3951 32.6331C30.6334 32.8743 30.9376 33.039 31.2692 33.1063C31.6009 33.1736 31.9449 33.1405 32.2578 33.0112C32.5706 32.8819 32.8382 32.6621 33.0264 32.3799C33.2147 32.0976 33.3152 31.7656 33.3152 31.4259C33.3152 30.9736 33.1372 30.5397 32.8201 30.2186C32.5029 29.8974 32.0723 29.7152 31.6219 29.7114Z" fill="#FF0EFF" fill-opacity="0.13"/>
<path d="M41.2726 29.7114C40.9343 29.7086 40.6028 29.8067 40.3201 29.9934C40.0374 30.18 39.8163 30.4468 39.6849 30.7598C39.5534 31.0728 39.5176 31.418 39.5819 31.7515C39.6462 32.085 39.8077 32.3919 40.0459 32.6331C40.2841 32.8743 40.5884 33.039 40.92 33.1063C41.2516 33.1736 41.5957 33.1405 41.9085 33.0112C42.2214 32.8819 42.4889 32.6621 42.6772 32.3799C42.8655 32.0976 42.966 31.7656 42.966 31.4259C42.966 30.9736 42.7881 30.5397 42.4709 30.2186C42.1537 29.8974 41.723 29.7152 41.2726 29.7114Z" fill="#FF0EFF" fill-opacity="0.13"/>
<path d="M50.9235 29.7114C50.5858 29.7114 50.2556 29.8119 49.9748 30.0003C49.694 30.1887 49.4751 30.4565 49.3458 30.7698C49.2166 31.0831 49.1828 31.4278 49.2487 31.7604C49.3146 32.093 49.4772 32.3985 49.716 32.6382C49.9548 32.878 50.2591 33.0413 50.5903 33.1075C50.9216 33.1736 51.2649 33.1397 51.5769 33.0099C51.8889 32.8801 52.1557 32.6604 52.3433 32.3784C52.5309 32.0965 52.6311 31.765 52.6311 31.4259C52.6311 30.9712 52.4511 30.5351 52.1309 30.2136C51.8107 29.892 51.3764 29.7114 50.9235 29.7114Z" fill="#FF0EFF" fill-opacity="0.13"/>
<path d="M60.5742 29.7114C60.2359 29.7086 59.9044 29.8067 59.6217 29.9934C59.339 30.18 59.1179 30.4468 58.9865 30.7598C58.855 31.0728 58.8192 31.418 58.8835 31.7515C58.9478 32.085 59.1093 32.3919 59.3475 32.6331C59.5857 32.8743 59.89 33.039 60.2216 33.1063C60.5532 33.1736 60.8973 33.1405 61.2101 33.0112C61.523 32.8819 61.7905 32.6621 61.9788 32.3799C62.1671 32.0976 62.2676 31.7656 62.2676 31.4259C62.2676 30.9736 62.0896 30.5397 61.7724 30.2186C61.4553 29.8974 61.0246 29.7152 60.5742 29.7114Z" fill="#FF0EFF" fill-opacity="0.13"/>
<path d="M2.66954 39.3983C2.33181 39.3983 2.00164 39.4989 1.72083 39.6872C1.44001 39.8756 1.22112 40.1434 1.09187 40.4567C0.962627 40.77 0.928847 41.1147 0.994735 41.4473C1.06062 41.7799 1.22326 42.0854 1.46207 42.3252C1.70089 42.5649 2.00513 42.7282 2.33637 42.7944C2.66761 42.8605 3.011 42.8266 3.32302 42.6968C3.63505 42.567 3.90171 42.3473 4.08934 42.0653C4.27698 41.7834 4.37714 41.4519 4.37714 41.1128C4.37714 40.6581 4.19724 40.222 3.87701 39.9005C3.55677 39.5789 3.12242 39.3983 2.66954 39.3983Z" fill="#FF0EFF" fill-opacity="0.13"/>
<path d="M12.326 39.3983C11.9883 39.3983 11.6581 39.4989 11.3773 39.6872C11.0965 39.8756 10.8776 40.1434 10.7484 40.4567C10.6191 40.77 10.5853 41.1147 10.6512 41.4473C10.7171 41.7799 10.8797 42.0854 11.1185 42.3252C11.3573 42.5649 11.6616 42.7282 11.9928 42.7944C12.3241 42.8605 12.6674 42.8266 12.9795 42.6968C13.2915 42.567 13.5582 42.3473 13.7458 42.0653C13.9334 41.7834 14.0336 41.4519 14.0336 41.1128C14.0336 40.6581 13.8537 40.222 13.5334 39.9005C13.2132 39.5789 12.7789 39.3983 12.326 39.3983Z" fill="#FF0EFF" fill-opacity="0.13"/>
<path d="M21.9711 39.3983C21.6333 39.3983 21.3032 39.4989 21.0224 39.6872C20.7416 39.8756 20.5227 40.1434 20.3935 40.4567C20.2642 40.77 20.2304 41.1147 20.2963 41.4473C20.3622 41.7799 20.5249 42.0854 20.7637 42.3252C21.0025 42.5649 21.3067 42.7282 21.638 42.7944C21.9692 42.8605 22.3125 42.8266 22.6245 42.6968C22.9366 42.567 23.2033 42.3473 23.3909 42.0653C23.5786 41.7834 23.6787 41.4519 23.6787 41.1128C23.6787 40.6581 23.4988 40.222 23.1785 39.9005C22.8583 39.5789 22.4239 39.3983 21.9711 39.3983Z" fill="#FF0EFF" fill-opacity="0.13"/>
<path d="M31.6219 39.3983C31.2835 39.3955 30.952 39.4936 30.6693 39.6803C30.3866 39.8669 30.1655 40.1337 30.0341 40.4467C29.9027 40.7598 29.8669 41.1049 29.9311 41.4384C29.9954 41.7719 30.1569 42.0788 30.3951 42.32C30.6334 42.5612 30.9376 42.7259 31.2692 42.7932C31.6009 42.8606 31.9449 42.8274 32.2578 42.6981C32.5706 42.5688 32.8382 42.349 33.0264 42.0668C33.2147 41.7845 33.3152 41.4525 33.3152 41.1128C33.3152 40.6605 33.1372 40.2266 32.8201 39.9055C32.5029 39.5844 32.0723 39.4021 31.6219 39.3983Z" fill="#FF0EFF" fill-opacity="0.13"/>
<path d="M41.2726 39.3983C40.9343 39.3955 40.6028 39.4936 40.3201 39.6803C40.0374 39.8669 39.8163 40.1337 39.6849 40.4467C39.5534 40.7598 39.5176 41.1049 39.5819 41.4384C39.6462 41.7719 39.8077 42.0788 40.0459 42.32C40.2841 42.5612 40.5884 42.7259 40.92 42.7932C41.2516 42.8606 41.5957 42.8274 41.9085 42.6981C42.2214 42.5688 42.4889 42.349 42.6772 42.0668C42.8655 41.7845 42.966 41.4525 42.966 41.1128C42.966 40.6605 42.7881 40.2266 42.4709 39.9055C42.1537 39.5844 41.723 39.4021 41.2726 39.3983Z" fill="#FF0EFF" fill-opacity="0.13"/>
<path d="M50.9235 39.3983C50.5858 39.3983 50.2556 39.4989 49.9748 39.6872C49.694 39.8756 49.4751 40.1434 49.3458 40.4567C49.2166 40.77 49.1828 41.1147 49.2487 41.4473C49.3146 41.7799 49.4772 42.0854 49.716 42.3252C49.9548 42.5649 50.2591 42.7282 50.5903 42.7944C50.9216 42.8605 51.2649 42.8266 51.5769 42.6968C51.8889 42.567 52.1557 42.3473 52.3433 42.0653C52.5309 41.7834 52.6311 41.4519 52.6311 41.1128C52.6311 40.6581 52.4511 40.222 52.1309 39.9005C51.8107 39.5789 51.3764 39.3983 50.9235 39.3983Z" fill="#FF0EFF" fill-opacity="0.13"/>
<path d="M60.5742 39.3983C60.2359 39.3955 59.9044 39.4936 59.6217 39.6803C59.339 39.8669 59.1179 40.1337 58.9865 40.4467C58.855 40.7598 58.8192 41.1049 58.8835 41.4384C58.9478 41.7719 59.1093 42.0788 59.3475 42.32C59.5857 42.5612 59.89 42.7259 60.2216 42.7932C60.5532 42.8606 60.8973 42.8274 61.2101 42.6981C61.523 42.5688 61.7905 42.349 61.9788 42.0668C62.1671 41.7845 62.2676 41.4525 62.2676 41.1128C62.2676 40.6605 62.0896 40.2266 61.7724 39.9055C61.4553 39.5844 61.0246 39.4021 60.5742 39.3983Z" fill="#FF0EFF" fill-opacity="0.13"/>
<path d="M2.66954 49.0252C2.33181 49.0252 2.00164 49.1258 1.72083 49.3142C1.44001 49.5025 1.22112 49.7703 1.09187 50.0836C0.962627 50.3969 0.928847 50.7416 0.994735 51.0742C1.06062 51.4068 1.22326 51.7123 1.46207 51.9521C1.70089 52.1918 2.00513 52.3551 2.33637 52.4213C2.66761 52.4874 3.011 52.4535 3.32302 52.3237C3.63505 52.1939 3.90171 51.9742 4.08934 51.6922C4.27698 51.4103 4.37714 51.0788 4.37714 50.7397C4.37714 50.285 4.19724 49.8489 3.87701 49.5274C3.55677 49.2059 3.12242 49.0252 2.66954 49.0252Z" fill="#FF0EFF" fill-opacity="0.13"/>
<path d="M12.326 49.0252C11.9883 49.0252 11.6581 49.1258 11.3773 49.3142C11.0965 49.5025 10.8776 49.7703 10.7484 50.0836C10.6191 50.3969 10.5853 50.7416 10.6512 51.0742C10.7171 51.4068 10.8797 51.7123 11.1185 51.9521C11.3573 52.1918 11.6616 52.3551 11.9928 52.4213C12.3241 52.4874 12.6674 52.4535 12.9795 52.3237C13.2915 52.1939 13.5582 51.9742 13.7458 51.6922C13.9334 51.4103 14.0336 51.0788 14.0336 50.7397C14.0336 50.285 13.8537 49.8489 13.5334 49.5274C13.2132 49.2059 12.7789 49.0252 12.326 49.0252Z" fill="#FF0EFF" fill-opacity="0.13"/>
<path d="M21.9711 49.0252C21.6333 49.0252 21.3032 49.1258 21.0224 49.3142C20.7416 49.5025 20.5227 49.7703 20.3935 50.0836C20.2642 50.3969 20.2304 50.7416 20.2963 51.0742C20.3622 51.4068 20.5249 51.7123 20.7637 51.9521C21.0025 52.1918 21.3067 52.3551 21.638 52.4213C21.9692 52.4874 22.3125 52.4535 22.6245 52.3237C22.9366 52.1939 23.2033 51.9742 23.3909 51.6922C23.5786 51.4103 23.6787 51.0788 23.6787 50.7397C23.6787 50.285 23.4988 49.8489 23.1785 49.5274C22.8583 49.2059 22.4239 49.0252 21.9711 49.0252Z" fill="#FF0EFF" fill-opacity="0.13"/>
<path d="M31.6219 49.0252C31.2835 49.0224 30.952 49.1206 30.6693 49.3072C30.3866 49.4939 30.1655 49.7607 30.0341 50.0737C29.9027 50.3867 29.8669 50.7319 29.9311 51.0654C29.9954 51.3989 30.1569 51.7057 30.3951 51.9469C30.6334 52.1881 30.9376 52.3529 31.2692 52.4202C31.6009 52.4875 31.9449 52.4544 32.2578 52.3251C32.5706 52.1957 32.8382 51.976 33.0264 51.6937C33.2147 51.4115 33.3152 51.0794 33.3152 50.7397C33.3152 50.2875 33.1372 49.8536 32.8201 49.5324C32.5029 49.2113 32.0723 49.029 31.6219 49.0252Z" fill="#FF0EFF" fill-opacity="0.13"/>
<path d="M41.2726 49.0252C40.9343 49.0224 40.6028 49.1206 40.3201 49.3072C40.0374 49.4939 39.8163 49.7607 39.6849 50.0737C39.5534 50.3867 39.5176 50.7319 39.5819 51.0654C39.6462 51.3989 39.8077 51.7057 40.0459 51.9469C40.2841 52.1881 40.5884 52.3529 40.92 52.4202C41.2516 52.4875 41.5957 52.4544 41.9085 52.3251C42.2214 52.1957 42.4889 51.976 42.6772 51.6937C42.8655 51.4115 42.966 51.0794 42.966 50.7397C42.966 50.2875 42.7881 49.8536 42.4709 49.5324C42.1537 49.2113 41.723 49.029 41.2726 49.0252Z" fill="#FF0EFF" fill-opacity="0.13"/>
<path d="M50.9235 49.0252C50.5858 49.0252 50.2556 49.1258 49.9748 49.3142C49.694 49.5025 49.4751 49.7703 49.3458 50.0836C49.2166 50.3969 49.1828 50.7416 49.2487 51.0742C49.3146 51.4068 49.4772 51.7123 49.716 51.9521C49.9548 52.1918 50.2591 52.3551 50.5903 52.4213C50.9216 52.4874 51.2649 52.4535 51.5769 52.3237C51.8889 52.1939 52.1557 51.9742 52.3433 51.6922C52.5309 51.4103 52.6311 51.0788 52.6311 50.7397C52.6311 50.285 52.4511 49.8489 52.1309 49.5274C51.8107 49.2059 51.3764 49.0252 50.9235 49.0252Z" fill="#FF0EFF" fill-opacity="0.13"/>
<path d="M60.5742 49.0252C60.2359 49.0224 59.9044 49.1206 59.6217 49.3072C59.339 49.4939 59.1179 49.7607 58.9865 50.0737C58.855 50.3867 58.8192 50.7319 58.8835 51.0654C58.9478 51.3989 59.1093 51.7057 59.3475 51.9469C59.5857 52.1881 59.89 52.3529 60.2216 52.4202C60.5532 52.4875 60.8973 52.4544 61.2101 52.3251C61.523 52.1957 61.7905 51.976 61.9788 51.6937C62.1671 51.4115 62.2676 51.0794 62.2676 50.7397C62.2676 50.2875 62.0896 49.8536 61.7724 49.5324C61.4553 49.2113 61.0246 49.029 60.5742 49.0252Z" fill="#FF0EFF" fill-opacity="0.13"/>
<path d="M2.66954 58.7779C2.33181 58.7779 2.00164 58.8785 1.72083 59.0668C1.44001 59.2552 1.22112 59.523 1.09187 59.8363C0.962627 60.1496 0.928847 60.4943 0.994735 60.8269C1.06062 61.1595 1.22326 61.465 1.46207 61.7047C1.70089 61.9445 2.00513 62.1078 2.33637 62.174C2.66761 62.2401 3.011 62.2062 3.32302 62.0764C3.63505 61.9466 3.90171 61.7269 4.08934 61.4449C4.27698 61.163 4.37714 60.8315 4.37714 60.4924C4.37714 60.0377 4.19724 59.6016 3.87701 59.2801C3.55677 58.9585 3.12242 58.7779 2.66954 58.7779Z" fill="#FF0EFF" fill-opacity="0.13"/>
<path d="M12.326 58.7779C11.9883 58.7779 11.6581 58.8785 11.3773 59.0668C11.0965 59.2552 10.8776 59.523 10.7484 59.8363C10.6191 60.1496 10.5853 60.4943 10.6512 60.8269C10.7171 61.1595 10.8797 61.465 11.1185 61.7047C11.3573 61.9445 11.6616 62.1078 11.9928 62.174C12.3241 62.2401 12.6674 62.2062 12.9795 62.0764C13.2915 61.9466 13.5582 61.7269 13.7458 61.4449C13.9334 61.163 14.0336 60.8315 14.0336 60.4924C14.0336 60.0377 13.8537 59.6016 13.5334 59.2801C13.2132 58.9585 12.7789 58.7779 12.326 58.7779Z" fill="#FF0EFF" fill-opacity="0.13"/>
<path d="M21.9711 58.7779C21.6333 58.7779 21.3032 58.8785 21.0224 59.0668C20.7416 59.2552 20.5227 59.523 20.3935 59.8363C20.2642 60.1496 20.2304 60.4943 20.2963 60.8269C20.3622 61.1595 20.5249 61.465 20.7637 61.7047C21.0025 61.9445 21.3067 62.1078 21.638 62.174C21.9692 62.2401 22.3125 62.2062 22.6245 62.0764C22.9366 61.9466 23.2033 61.7269 23.3909 61.4449C23.5786 61.163 23.6787 60.8315 23.6787 60.4924C23.6787 60.0377 23.4988 59.6016 23.1785 59.2801C22.8583 58.9585 22.4239 58.7779 21.9711 58.7779Z" fill="#FF0EFF" fill-opacity="0.13"/>
<path d="M31.6219 58.7779C31.2835 58.7751 30.952 58.8732 30.6693 59.0599C30.3866 59.2465 30.1655 59.5133 30.0341 59.8263C29.9027 60.1394 29.8669 60.4845 29.9311 60.818C29.9954 61.1516 30.1569 61.4584 30.3951 61.6996C30.6334 61.9408 30.9376 62.1055 31.2692 62.1728C31.6009 62.2402 31.9449 62.2071 32.2578 62.0777C32.5706 61.9484 32.8382 61.7286 33.0264 61.4464C33.2147 61.1641 33.3152 60.8321 33.3152 60.4924C33.3152 60.0401 33.1372 59.6062 32.8201 59.2851C32.5029 58.964 32.0723 58.7817 31.6219 58.7779Z" fill="#FF0EFF" fill-opacity="0.13"/>
<path d="M41.2726 58.7779C40.9343 58.7751 40.6028 58.8732 40.3201 59.0599C40.0374 59.2465 39.8163 59.5133 39.6849 59.8263C39.5534 60.1394 39.5176 60.4845 39.5819 60.818C39.6462 61.1516 39.8077 61.4584 40.0459 61.6996C40.2841 61.9408 40.5884 62.1055 40.92 62.1728C41.2516 62.2402 41.5957 62.2071 41.9085 62.0777C42.2214 61.9484 42.4889 61.7286 42.6772 61.4464C42.8655 61.1641 42.966 60.8321 42.966 60.4924C42.966 60.0401 42.7881 59.6062 42.4709 59.2851C42.1537 58.964 41.723 58.7817 41.2726 58.7779Z" fill="#FF0EFF" fill-opacity="0.13"/>
<path d="M50.9235 58.7779C50.5858 58.7779 50.2556 58.8785 49.9748 59.0668C49.694 59.2552 49.4751 59.523 49.3458 59.8363C49.2166 60.1496 49.1828 60.4943 49.2487 60.8269C49.3146 61.1595 49.4772 61.465 49.716 61.7047C49.9548 61.9445 50.2591 62.1078 50.5903 62.174C50.9216 62.2401 51.2649 62.2062 51.5769 62.0764C51.8889 61.9466 52.1557 61.7269 52.3433 61.4449C52.5309 61.163 52.6311 60.8315 52.6311 60.4924C52.6311 60.0377 52.4511 59.6016 52.1309 59.2801C51.8107 58.9585 51.3764 58.7779 50.9235 58.7779Z" fill="#FF0EFF" fill-opacity="0.13"/>
<path d="M60.5742 58.7779C60.2359 58.7751 59.9044 58.8732 59.6217 59.0599C59.339 59.2465 59.1179 59.5133 58.9865 59.8263C58.855 60.1394 58.8192 60.4845 58.8835 60.818C58.9478 61.1516 59.1093 61.4584 59.3475 61.6996C59.5857 61.9408 59.89 62.1055 60.2216 62.1728C60.5532 62.2402 60.8973 62.2071 61.2101 62.0777C61.523 61.9484 61.7905 61.7286 61.9788 61.4464C62.1671 61.1641 62.2676 60.8321 62.2676 60.4924C62.2676 60.0401 62.0896 59.6062 61.7724 59.2851C61.4553 58.964 61.0246 58.7817 60.5742 58.7779Z" fill="#FF0EFF" fill-opacity="0.13"/>
<path d="M70.2193 0.707749C69.8816 0.707749 69.5515 0.8083 69.2707 0.996691C68.9899 1.18508 68.771 1.45284 68.6417 1.76613C68.5125 2.07941 68.4787 2.42415 68.5446 2.75673C68.6105 3.08931 68.773 3.3948 69.0119 3.63458C69.2507 3.87436 69.555 4.03765 69.8862 4.10381C70.2175 4.16996 70.5608 4.13601 70.8728 4.00624C71.1848 3.87648 71.4516 3.65671 71.6392 3.37476C71.8268 3.09282 71.9269 2.76135 71.9269 2.42225C71.9269 1.96754 71.747 1.53144 71.4268 1.20991C71.1066 0.888374 70.6722 0.707749 70.2193 0.707749Z" fill="#FF0EFF" fill-opacity="0.13"/>
<path d="M79.8702 0.707749C79.5324 0.707749 79.2023 0.8083 78.9214 0.996691C78.6406 1.18508 78.4217 1.45284 78.2925 1.76613C78.1633 2.07941 78.1295 2.42415 78.1954 2.75673C78.2612 3.08931 78.4239 3.3948 78.6627 3.63458C78.9015 3.87436 79.2057 4.03765 79.537 4.10381C79.8682 4.16996 80.2116 4.13601 80.5236 4.00624C80.8357 3.87648 81.1023 3.65671 81.29 3.37476C81.4776 3.09282 81.5778 2.76135 81.5778 2.42225C81.5778 1.96754 81.3979 1.53144 81.0776 1.20991C80.7574 0.888374 80.3231 0.707749 79.8702 0.707749Z" fill="#FF0EFF" fill-opacity="0.13"/>
<path d="M89.5209 0.707749C89.1832 0.707749 88.853 0.8083 88.5722 0.996691C88.2914 1.18508 88.0725 1.45284 87.9433 1.76613C87.8141 2.07941 87.7802 2.42415 87.8461 2.75673C87.912 3.08931 88.0746 3.3948 88.3134 3.63458C88.5523 3.87436 88.8566 4.03765 89.1878 4.10381C89.5191 4.16996 89.8624 4.13601 90.1744 4.00624C90.4864 3.87648 90.7531 3.65671 90.9407 3.37476C91.1283 3.09282 91.2285 2.76135 91.2285 2.42225C91.2285 1.96754 91.0486 1.53144 90.7284 1.20991C90.4081 0.888374 89.9738 0.707749 89.5209 0.707749Z" fill="#FF0EFF" fill-opacity="0.13"/>
<path d="M99.1717 0.707739C98.8334 0.704908 98.5018 0.803042 98.2192 0.989705C97.9365 1.17637 97.7154 1.44313 97.584 1.75616C97.4526 2.06918 97.4167 2.41436 97.481 2.74788C97.5452 3.08139 97.7067 3.38822 97.945 3.62942C98.1832 3.87063 98.4874 4.03534 98.8191 4.10266C99.1507 4.16998 99.4948 4.13688 99.8077 4.00754C100.121 3.8782 100.388 3.65847 100.576 3.37622C100.765 3.09397 100.865 2.76194 100.865 2.42224C100.865 1.96999 100.687 1.53604 100.37 1.21492C100.053 0.893794 99.6221 0.711508 99.1717 0.707739Z" fill="#FF0EFF" fill-opacity="0.13"/>
<path d="M108.823 0.707749C108.485 0.707749 108.155 0.8083 107.874 0.996691C107.593 1.18508 107.374 1.45284 107.245 1.76613C107.116 2.07941 107.082 2.42415 107.148 2.75673C107.214 3.08931 107.376 3.3948 107.615 3.63458C107.854 3.87436 108.158 4.03765 108.489 4.10381C108.821 4.16996 109.164 4.13601 109.476 4.00624C109.788 3.87648 110.055 3.65671 110.242 3.37476C110.43 3.09282 110.53 2.76135 110.53 2.42225C110.53 1.96754 110.35 1.53144 110.03 1.20991C109.71 0.888374 109.275 0.707749 108.823 0.707749Z" fill="#FF0EFF" fill-opacity="0.13"/>
<path d="M118.482 0.707749C118.144 0.707749 117.814 0.8083 117.533 0.996691C117.252 1.18508 117.033 1.45284 116.904 1.76613C116.775 2.07941 116.741 2.42415 116.807 2.75673C116.873 3.08931 117.036 3.3948 117.274 3.63458C117.513 3.87436 117.817 4.03765 118.149 4.10381C118.48 4.16996 118.823 4.13601 119.135 4.00624C119.447 3.87648 119.714 3.65671 119.902 3.37476C120.089 3.09282 120.189 2.76135 120.189 2.42225C120.189 1.96754 120.01 1.53144 119.689 1.20991C119.369 0.888374 118.935 0.707749 118.482 0.707749Z" fill="#FF0EFF" fill-opacity="0.13"/>
<path d="M128.124 4.11101C128.462 4.11101 128.792 4.01046 129.073 3.82207C129.354 3.63367 129.572 3.3659 129.702 3.05261C129.831 2.73933 129.865 2.39461 129.799 2.06203C129.733 1.72945 129.57 1.42396 129.331 1.18418C129.093 0.944402 128.788 0.781106 128.457 0.714952C128.126 0.648797 127.783 0.682749 127.471 0.812515C127.159 0.942282 126.892 1.16203 126.704 1.44398C126.517 1.72593 126.416 2.05741 126.416 2.39651C126.416 2.85122 126.596 3.2873 126.917 3.60884C127.237 3.93037 127.671 4.11101 128.124 4.11101Z" fill="#FF0EFF" fill-opacity="0.13"/>
<path d="M70.2193 10.3947C69.8816 10.3947 69.5515 10.4952 69.2707 10.6836C68.9899 10.872 68.771 11.1398 68.6417 11.4531C68.5125 11.7663 68.4787 12.1111 68.5446 12.4436C68.6105 12.7762 68.773 13.0817 69.0119 13.3215C69.2507 13.5613 69.555 13.7246 69.8862 13.7907C70.2175 13.8569 70.5608 13.8229 70.8728 13.6931C71.1848 13.5634 71.4516 13.3436 71.6392 13.0617C71.8268 12.7797 71.9269 12.4483 71.9269 12.1092C71.9269 11.6544 71.747 11.2184 71.4268 10.8968C71.1066 10.5753 70.6722 10.3947 70.2193 10.3947Z" fill="#FF0EFF" fill-opacity="0.13"/>
<path d="M79.8702 10.3947C79.5324 10.3947 79.2023 10.4952 78.9214 10.6836C78.6406 10.872 78.4217 11.1398 78.2925 11.4531C78.1633 11.7663 78.1295 12.1111 78.1954 12.4436C78.2612 12.7762 78.4239 13.0817 78.6627 13.3215C78.9015 13.5613 79.2057 13.7246 79.537 13.7907C79.8682 13.8569 80.2116 13.8229 80.5236 13.6931C80.8357 13.5634 81.1023 13.3436 81.29 13.0617C81.4776 12.7797 81.5778 12.4483 81.5778 12.1092C81.5778 11.6544 81.3979 11.2184 81.0776 10.8968C80.7574 10.5753 80.3231 10.3947 79.8702 10.3947Z" fill="#FF0EFF" fill-opacity="0.13"/>
<path d="M89.5209 10.3947C89.1832 10.3947 88.853 10.4952 88.5722 10.6836C88.2914 10.872 88.0725 11.1398 87.9433 11.4531C87.8141 11.7663 87.7802 12.1111 87.8461 12.4436C87.912 12.7762 88.0746 13.0817 88.3134 13.3215C88.5523 13.5613 88.8566 13.7246 89.1878 13.7907C89.5191 13.8569 89.8624 13.8229 90.1744 13.6931C90.4864 13.5634 90.7531 13.3436 90.9407 13.0617C91.1283 12.7797 91.2285 12.4483 91.2285 12.1092C91.2285 11.6544 91.0486 11.2184 90.7284 10.8968C90.4081 10.5753 89.9738 10.3947 89.5209 10.3947Z" fill="#FF0EFF" fill-opacity="0.13"/>
<path d="M99.1717 10.3946C98.8334 10.3918 98.5018 10.49 98.2192 10.6766C97.9365 10.8633 97.7154 11.1301 97.584 11.4431C97.4526 11.7561 97.4167 12.1013 97.481 12.4348C97.5452 12.7683 97.7067 13.0751 97.945 13.3163C98.1832 13.5576 98.4874 13.7223 98.8191 13.7896C99.1507 13.8569 99.4948 13.8238 99.8077 13.6945C100.121 13.5651 100.388 13.3454 100.576 13.0631C100.765 12.7809 100.865 12.4488 100.865 12.1091C100.865 11.6569 100.687 11.223 100.37 10.9018C100.053 10.5807 99.6221 10.3984 99.1717 10.3946Z" fill="#FF0EFF" fill-opacity="0.13"/>
<path d="M108.823 10.3947C108.485 10.3947 108.155 10.4952 107.874 10.6836C107.593 10.872 107.374 11.1398 107.245 11.4531C107.116 11.7663 107.082 12.1111 107.148 12.4436C107.214 12.7762 107.376 13.0817 107.615 13.3215C107.854 13.5613 108.158 13.7246 108.489 13.7907C108.821 13.8569 109.164 13.8229 109.476 13.6931C109.788 13.5634 110.055 13.3436 110.242 13.0617C110.43 12.7797 110.53 12.4483 110.53 12.1092C110.53 11.6544 110.35 11.2184 110.03 10.8968C109.71 10.5753 109.275 10.3947 108.823 10.3947Z" fill="#FF0EFF" fill-opacity="0.13"/>
<path d="M118.482 10.3947C118.144 10.3947 117.814 10.4952 117.533 10.6836C117.252 10.872 117.033 11.1398 116.904 11.4531C116.775 11.7663 116.741 12.1111 116.807 12.4436C116.873 12.7762 117.036 13.0817 117.274 13.3215C117.513 13.5613 117.817 13.7246 118.149 13.7907C118.48 13.8569 118.823 13.8229 119.135 13.6931C119.447 13.5634 119.714 13.3436 119.902 13.0617C120.089 12.7797 120.189 12.4483 120.189 12.1092C120.189 11.6544 120.01 11.2184 119.689 10.8968C119.369 10.5753 118.935 10.3947 118.482 10.3947Z" fill="#FF0EFF" fill-opacity="0.13"/>
<path d="M128.124 10.3946C127.786 10.3918 127.454 10.49 127.172 10.6766C126.889 10.8633 126.668 11.1301 126.536 11.4431C126.405 11.7561 126.369 12.1013 126.433 12.4348C126.498 12.7683 126.659 13.0751 126.897 13.3163C127.136 13.5576 127.44 13.7223 127.771 13.7896C128.103 13.8569 128.447 13.8238 128.76 13.6945C129.073 13.5651 129.34 13.3454 129.529 13.0631C129.717 12.7809 129.817 12.4488 129.817 12.1091C129.817 11.6569 129.639 11.223 129.322 10.9018C129.005 10.5807 128.574 10.3984 128.124 10.3946Z" fill="#FF0EFF" fill-opacity="0.13"/>
<path d="M70.2193 20.0216C69.8816 20.0216 69.5515 20.1221 69.2707 20.3105C68.9899 20.4989 68.771 20.7667 68.6417 21.08C68.5125 21.3932 68.4787 21.738 68.5446 22.0705C68.6105 22.4031 68.773 22.7086 69.0119 22.9484C69.2507 23.1882 69.555 23.3515 69.8862 23.4176C70.2175 23.4838 70.5608 23.4498 70.8728 23.3201C71.1848 23.1903 71.4516 22.9705 71.6392 22.6886C71.8268 22.4066 71.9269 22.0752 71.9269 21.7361C71.9269 21.2814 71.747 20.8453 71.4268 20.5237C71.1066 20.2022 70.6722 20.0216 70.2193 20.0216Z" fill="#FF0EFF" fill-opacity="0.13"/>
<path d="M79.8702 20.0216C79.5324 20.0216 79.2023 20.1221 78.9214 20.3105C78.6406 20.4989 78.4217 20.7667 78.2925 21.08C78.1633 21.3932 78.1295 21.738 78.1954 22.0705C78.2612 22.4031 78.4239 22.7086 78.6627 22.9484C78.9015 23.1882 79.2057 23.3515 79.537 23.4176C79.8682 23.4838 80.2116 23.4498 80.5236 23.3201C80.8357 23.1903 81.1023 22.9705 81.29 22.6886C81.4776 22.4066 81.5778 22.0752 81.5778 21.7361C81.5778 21.2814 81.3979 20.8453 81.0776 20.5237C80.7574 20.2022 80.3231 20.0216 79.8702 20.0216Z" fill="#FF0EFF" fill-opacity="0.13"/>
<path d="M89.5209 20.0216C89.1832 20.0216 88.853 20.1221 88.5722 20.3105C88.2914 20.4989 88.0725 20.7667 87.9433 21.08C87.8141 21.3932 87.7802 21.738 87.8461 22.0705C87.912 22.4031 88.0746 22.7086 88.3134 22.9484C88.5523 23.1882 88.8566 23.3515 89.1878 23.4176C89.5191 23.4838 89.8624 23.4498 90.1744 23.3201C90.4864 23.1903 90.7531 22.9705 90.9407 22.6886C91.1283 22.4066 91.2285 22.0752 91.2285 21.7361C91.2285 21.2814 91.0486 20.8453 90.7284 20.5237C90.4081 20.2022 89.9738 20.0216 89.5209 20.0216Z" fill="#FF0EFF" fill-opacity="0.13"/>
<path d="M99.1717 20.0216C98.8334 20.0188 98.5018 20.1169 98.2192 20.3036C97.9365 20.4902 97.7154 20.757 97.584 21.07C97.4526 21.383 97.4167 21.7282 97.481 22.0617C97.5452 22.3952 97.7067 22.7021 97.945 22.9433C98.1832 23.1845 98.4874 23.3492 98.8191 23.4165C99.1507 23.4838 99.4948 23.4507 99.8077 23.3214C100.121 23.1921 100.388 22.9723 100.576 22.6901C100.765 22.4078 100.865 22.0758 100.865 21.7361C100.865 21.2838 100.687 20.8499 100.37 20.5288C100.053 20.2077 99.6221 20.0254 99.1717 20.0216Z" fill="#FF0EFF" fill-opacity="0.13"/>
<path d="M108.823 20.0216C108.485 20.0216 108.155 20.1221 107.874 20.3105C107.593 20.4989 107.374 20.7667 107.245 21.08C107.116 21.3932 107.082 21.738 107.148 22.0705C107.214 22.4031 107.376 22.7086 107.615 22.9484C107.854 23.1882 108.158 23.3515 108.489 23.4176C108.821 23.4838 109.164 23.4498 109.476 23.3201C109.788 23.1903 110.055 22.9705 110.242 22.6886C110.43 22.4066 110.53 22.0752 110.53 21.7361C110.53 21.2814 110.35 20.8453 110.03 20.5237C109.71 20.2022 109.275 20.0216 108.823 20.0216Z" fill="#FF0EFF" fill-opacity="0.13"/>
<path d="M118.482 20.0216C118.144 20.0216 117.814 20.1221 117.533 20.3105C117.252 20.4989 117.033 20.7667 116.904 21.08C116.775 21.3932 116.741 21.738 116.807 22.0705C116.873 22.4031 117.036 22.7086 117.274 22.9484C117.513 23.1882 117.817 23.3515 118.149 23.4176C118.48 23.4838 118.823 23.4498 119.135 23.3201C119.447 23.1903 119.714 22.9705 119.902 22.6886C120.089 22.4066 120.189 22.0752 120.189 21.7361C120.189 21.2814 120.01 20.8453 119.689 20.5237C119.369 20.2022 118.935 20.0216 118.482 20.0216Z" fill="#FF0EFF" fill-opacity="0.13"/>
<path d="M128.124 20.0216C127.786 20.0188 127.454 20.1169 127.172 20.3036C126.889 20.4902 126.668 20.757 126.536 21.07C126.405 21.383 126.369 21.7282 126.433 22.0617C126.498 22.3952 126.659 22.7021 126.897 22.9433C127.136 23.1845 127.44 23.3492 127.771 23.4165C128.103 23.4838 128.447 23.4507 128.76 23.3214C129.073 23.1921 129.34 22.9723 129.529 22.6901C129.717 22.4078 129.817 22.0758 129.817 21.7361C129.817 21.2838 129.639 20.8499 129.322 20.5288C129.005 20.2077 128.574 20.0254 128.124 20.0216Z" fill="#FF0EFF" fill-opacity="0.13"/>
<path d="M70.2193 29.7114C69.8816 29.7114 69.5515 29.8119 69.2707 30.0003C68.9899 30.1887 68.771 30.4565 68.6417 30.7698C68.5125 31.0831 68.4787 31.4278 68.5446 31.7604C68.6105 32.093 68.773 32.3985 69.0119 32.6382C69.2507 32.878 69.555 33.0413 69.8862 33.1075C70.2175 33.1736 70.5608 33.1397 70.8728 33.0099C71.1848 32.8801 71.4516 32.6604 71.6392 32.3784C71.8268 32.0965 71.9269 31.765 71.9269 31.4259C71.9269 30.9712 71.747 30.5351 71.4268 30.2136C71.1066 29.892 70.6722 29.7114 70.2193 29.7114Z" fill="#FF0EFF" fill-opacity="0.13"/>
<path d="M79.8702 29.7114C79.5324 29.7114 79.2023 29.8119 78.9214 30.0003C78.6406 30.1887 78.4217 30.4565 78.2925 30.7698C78.1633 31.0831 78.1295 31.4278 78.1954 31.7604C78.2612 32.093 78.4239 32.3985 78.6627 32.6382C78.9015 32.878 79.2057 33.0413 79.537 33.1075C79.8682 33.1736 80.2116 33.1397 80.5236 33.0099C80.8357 32.8801 81.1023 32.6604 81.29 32.3784C81.4776 32.0965 81.5778 31.765 81.5778 31.4259C81.5778 30.9712 81.3979 30.5351 81.0776 30.2136C80.7574 29.892 80.3231 29.7114 79.8702 29.7114Z" fill="#FF0EFF" fill-opacity="0.13"/>
<path d="M89.5209 29.7114C89.1832 29.7114 88.853 29.8119 88.5722 30.0003C88.2914 30.1887 88.0725 30.4565 87.9433 30.7698C87.8141 31.0831 87.7802 31.4278 87.8461 31.7604C87.912 32.093 88.0746 32.3985 88.3134 32.6382C88.5523 32.878 88.8566 33.0413 89.1878 33.1075C89.5191 33.1736 89.8624 33.1397 90.1744 33.0099C90.4864 32.8801 90.7531 32.6604 90.9407 32.3784C91.1283 32.0965 91.2285 31.765 91.2285 31.4259C91.2285 30.9712 91.0486 30.5351 90.7284 30.2136C90.4081 29.892 89.9738 29.7114 89.5209 29.7114Z" fill="#FF0EFF" fill-opacity="0.13"/>
<path d="M99.1717 29.7114C98.8334 29.7086 98.5018 29.8067 98.2192 29.9934C97.9365 30.18 97.7154 30.4468 97.584 30.7598C97.4526 31.0728 97.4167 31.418 97.481 31.7515C97.5452 32.085 97.7067 32.3919 97.945 32.6331C98.1832 32.8743 98.4874 33.039 98.8191 33.1063C99.1507 33.1736 99.4948 33.1405 99.8077 33.0112C100.121 32.8819 100.388 32.6621 100.576 32.3799C100.765 32.0976 100.865 31.7656 100.865 31.4259C100.865 30.9736 100.687 30.5397 100.37 30.2186C100.053 29.8974 99.6221 29.7152 99.1717 29.7114Z" fill="#FF0EFF" fill-opacity="0.13"/>
<path d="M108.823 29.7114C108.485 29.7114 108.155 29.8119 107.874 30.0003C107.593 30.1887 107.374 30.4565 107.245 30.7698C107.116 31.0831 107.082 31.4278 107.148 31.7604C107.214 32.093 107.376 32.3985 107.615 32.6382C107.854 32.878 108.158 33.0413 108.489 33.1075C108.821 33.1736 109.164 33.1397 109.476 33.0099C109.788 32.8801 110.055 32.6604 110.242 32.3784C110.43 32.0965 110.53 31.765 110.53 31.4259C110.53 30.9712 110.35 30.5351 110.03 30.2136C109.71 29.892 109.275 29.7114 108.823 29.7114Z" fill="#FF0EFF" fill-opacity="0.13"/>
<path d="M118.482 29.7114C118.144 29.7114 117.814 29.8119 117.533 30.0003C117.252 30.1887 117.033 30.4565 116.904 30.7698C116.775 31.0831 116.741 31.4278 116.807 31.7604C116.873 32.093 117.036 32.3985 117.274 32.6382C117.513 32.878 117.817 33.0413 118.149 33.1075C118.48 33.1736 118.823 33.1397 119.135 33.0099C119.447 32.8801 119.714 32.6604 119.902 32.3784C120.089 32.0965 120.189 31.765 120.189 31.4259C120.189 30.9712 120.01 30.5351 119.689 30.2136C119.369 29.892 118.935 29.7114 118.482 29.7114Z" fill="#FF0EFF" fill-opacity="0.13"/>
<path d="M128.124 29.7114C127.786 29.7086 127.454 29.8067 127.172 29.9934C126.889 30.18 126.668 30.4468 126.536 30.7598C126.405 31.0728 126.369 31.418 126.433 31.7515C126.498 32.085 126.659 32.3919 126.897 32.6331C127.136 32.8743 127.44 33.039 127.771 33.1063C128.103 33.1736 128.447 33.1405 128.76 33.0112C129.073 32.8819 129.34 32.6621 129.529 32.3799C129.717 32.0976 129.817 31.7656 129.817 31.4259C129.817 30.9736 129.639 30.5397 129.322 30.2186C129.005 29.8974 128.574 29.7152 128.124 29.7114Z" fill="#FF0EFF" fill-opacity="0.13"/>
<path d="M70.2193 39.3983C69.8816 39.3983 69.5515 39.4989 69.2707 39.6872C68.9899 39.8756 68.771 40.1434 68.6417 40.4567C68.5125 40.77 68.4787 41.1147 68.5446 41.4473C68.6105 41.7799 68.773 42.0854 69.0119 42.3252C69.2507 42.5649 69.555 42.7282 69.8862 42.7944C70.2175 42.8605 70.5608 42.8266 70.8728 42.6968C71.1848 42.567 71.4516 42.3473 71.6392 42.0653C71.8268 41.7834 71.9269 41.4519 71.9269 41.1128C71.9269 40.6581 71.747 40.222 71.4268 39.9005C71.1066 39.5789 70.6722 39.3983 70.2193 39.3983Z" fill="#FF0EFF" fill-opacity="0.13"/>
<path d="M79.8702 39.3983C79.5324 39.3983 79.2023 39.4989 78.9214 39.6872C78.6406 39.8756 78.4217 40.1434 78.2925 40.4567C78.1633 40.77 78.1295 41.1147 78.1954 41.4473C78.2612 41.7799 78.4239 42.0854 78.6627 42.3252C78.9015 42.5649 79.2057 42.7282 79.537 42.7944C79.8682 42.8605 80.2116 42.8266 80.5236 42.6968C80.8357 42.567 81.1023 42.3473 81.29 42.0653C81.4776 41.7834 81.5778 41.4519 81.5778 41.1128C81.5778 40.6581 81.3979 40.222 81.0776 39.9005C80.7574 39.5789 80.3231 39.3983 79.8702 39.3983Z" fill="#FF0EFF" fill-opacity="0.13"/>
<path d="M89.5209 39.3983C89.1832 39.3983 88.853 39.4989 88.5722 39.6872C88.2914 39.8756 88.0725 40.1434 87.9433 40.4567C87.8141 40.77 87.7802 41.1147 87.8461 41.4473C87.912 41.7799 88.0746 42.0854 88.3134 42.3252C88.5523 42.5649 88.8566 42.7282 89.1878 42.7944C89.5191 42.8605 89.8624 42.8266 90.1744 42.6968C90.4864 42.567 90.7531 42.3473 90.9407 42.0653C91.1283 41.7834 91.2285 41.4519 91.2285 41.1128C91.2285 40.6581 91.0486 40.222 90.7284 39.9005C90.4081 39.5789 89.9738 39.3983 89.5209 39.3983Z" fill="#FF0EFF" fill-opacity="0.13"/>
<path d="M99.1717 39.3983C98.8334 39.3955 98.5018 39.4936 98.2192 39.6803C97.9365 39.8669 97.7154 40.1337 97.584 40.4467C97.4526 40.7598 97.4167 41.1049 97.481 41.4384C97.5452 41.7719 97.7067 42.0788 97.945 42.32C98.1832 42.5612 98.4874 42.7259 98.8191 42.7932C99.1507 42.8606 99.4948 42.8274 99.8077 42.6981C100.121 42.5688 100.388 42.349 100.576 42.0668C100.765 41.7845 100.865 41.4525 100.865 41.1128C100.865 40.6605 100.687 40.2266 100.37 39.9055C100.053 39.5844 99.6221 39.4021 99.1717 39.3983Z" fill="#FF0EFF" fill-opacity="0.13"/>
<path d="M108.823 39.3983C108.485 39.3983 108.155 39.4989 107.874 39.6872C107.593 39.8756 107.374 40.1434 107.245 40.4567C107.116 40.77 107.082 41.1147 107.148 41.4473C107.214 41.7799 107.376 42.0854 107.615 42.3252C107.854 42.5649 108.158 42.7282 108.489 42.7944C108.821 42.8605 109.164 42.8266 109.476 42.6968C109.788 42.567 110.055 42.3473 110.242 42.0653C110.43 41.7834 110.53 41.4519 110.53 41.1128C110.53 40.6581 110.35 40.222 110.03 39.9005C109.71 39.5789 109.275 39.3983 108.823 39.3983Z" fill="#FF0EFF" fill-opacity="0.13"/>
<path d="M118.482 39.3983C118.144 39.3983 117.814 39.4989 117.533 39.6872C117.252 39.8756 117.033 40.1434 116.904 40.4567C116.775 40.77 116.741 41.1147 116.807 41.4473C116.873 41.7799 117.036 42.0854 117.274 42.3252C117.513 42.5649 117.817 42.7282 118.149 42.7944C118.48 42.8605 118.823 42.8266 119.135 42.6968C119.447 42.567 119.714 42.3473 119.902 42.0653C120.089 41.7834 120.189 41.4519 120.189 41.1128C120.189 40.6581 120.01 40.222 119.689 39.9005C119.369 39.5789 118.935 39.3983 118.482 39.3983Z" fill="#FF0EFF" fill-opacity="0.13"/>
<path d="M128.124 39.3983C127.786 39.3955 127.454 39.4936 127.172 39.6803C126.889 39.8669 126.668 40.1337 126.536 40.4467C126.405 40.7598 126.369 41.1049 126.433 41.4384C126.498 41.7719 126.659 42.0788 126.897 42.32C127.136 42.5612 127.44 42.7259 127.771 42.7932C128.103 42.8606 128.447 42.8274 128.76 42.6981C129.073 42.5688 129.34 42.349 129.529 42.0668C129.717 41.7845 129.817 41.4525 129.817 41.1128C129.817 40.6605 129.639 40.2266 129.322 39.9055C129.005 39.5844 128.574 39.4021 128.124 39.3983Z" fill="#FF0EFF" fill-opacity="0.13"/>
<path d="M70.2193 49.0252C69.8816 49.0252 69.5515 49.1258 69.2707 49.3142C68.9899 49.5025 68.771 49.7703 68.6417 50.0836C68.5125 50.3969 68.4787 50.7416 68.5446 51.0742C68.6105 51.4068 68.773 51.7123 69.0119 51.9521C69.2507 52.1918 69.555 52.3551 69.8862 52.4213C70.2175 52.4874 70.5608 52.4535 70.8728 52.3237C71.1848 52.1939 71.4516 51.9742 71.6392 51.6922C71.8268 51.4103 71.9269 51.0788 71.9269 50.7397C71.9269 50.285 71.747 49.8489 71.4268 49.5274C71.1066 49.2059 70.6722 49.0252 70.2193 49.0252Z" fill="#FF0EFF" fill-opacity="0.13"/>
<path d="M79.8702 49.0252C79.5324 49.0252 79.2023 49.1258 78.9214 49.3142C78.6406 49.5025 78.4217 49.7703 78.2925 50.0836C78.1633 50.3969 78.1295 50.7416 78.1954 51.0742C78.2612 51.4068 78.4239 51.7123 78.6627 51.9521C78.9015 52.1918 79.2057 52.3551 79.537 52.4213C79.8682 52.4874 80.2116 52.4535 80.5236 52.3237C80.8357 52.1939 81.1023 51.9742 81.29 51.6922C81.4776 51.4103 81.5778 51.0788 81.5778 50.7397C81.5778 50.285 81.3979 49.8489 81.0776 49.5274C80.7574 49.2059 80.3231 49.0252 79.8702 49.0252Z" fill="#FF0EFF" fill-opacity="0.13"/>
<path d="M89.5209 49.0252C89.1832 49.0252 88.853 49.1258 88.5722 49.3142C88.2914 49.5025 88.0725 49.7703 87.9433 50.0836C87.8141 50.3969 87.7802 50.7416 87.8461 51.0742C87.912 51.4068 88.0746 51.7123 88.3134 51.9521C88.5523 52.1918 88.8566 52.3551 89.1878 52.4213C89.5191 52.4874 89.8624 52.4535 90.1744 52.3237C90.4864 52.1939 90.7531 51.9742 90.9407 51.6922C91.1283 51.4103 91.2285 51.0788 91.2285 50.7397C91.2285 50.285 91.0486 49.8489 90.7284 49.5274C90.4081 49.2059 89.9738 49.0252 89.5209 49.0252Z" fill="#FF0EFF" fill-opacity="0.13"/>
<path d="M99.1717 49.0252C98.8334 49.0224 98.5018 49.1206 98.2192 49.3072C97.9365 49.4939 97.7154 49.7607 97.584 50.0737C97.4526 50.3867 97.4167 50.7319 97.481 51.0654C97.5452 51.3989 97.7067 51.7057 97.945 51.9469C98.1832 52.1881 98.4874 52.3529 98.8191 52.4202C99.1507 52.4875 99.4948 52.4544 99.8077 52.3251C100.121 52.1957 100.388 51.976 100.576 51.6937C100.765 51.4115 100.865 51.0794 100.865 50.7397C100.865 50.2875 100.687 49.8536 100.37 49.5324C100.053 49.2113 99.6221 49.029 99.1717 49.0252Z" fill="#FF0EFF" fill-opacity="0.13"/>
<path d="M108.823 49.0252C108.485 49.0252 108.155 49.1258 107.874 49.3142C107.593 49.5025 107.374 49.7703 107.245 50.0836C107.116 50.3969 107.082 50.7416 107.148 51.0742C107.214 51.4068 107.376 51.7123 107.615 51.9521C107.854 52.1918 108.158 52.3551 108.489 52.4213C108.821 52.4874 109.164 52.4535 109.476 52.3237C109.788 52.1939 110.055 51.9742 110.242 51.6922C110.43 51.4103 110.53 51.0788 110.53 50.7397C110.53 50.285 110.35 49.8489 110.03 49.5274C109.71 49.2059 109.275 49.0252 108.823 49.0252Z" fill="#FF0EFF" fill-opacity="0.13"/>
<path d="M118.482 49.0252C118.144 49.0252 117.814 49.1258 117.533 49.3142C117.252 49.5025 117.033 49.7703 116.904 50.0836C116.775 50.3969 116.741 50.7416 116.807 51.0742C116.873 51.4068 117.036 51.7123 117.274 51.9521C117.513 52.1918 117.817 52.3551 118.149 52.4213C118.48 52.4874 118.823 52.4535 119.135 52.3237C119.447 52.1939 119.714 51.9742 119.902 51.6922C120.089 51.4103 120.189 51.0788 120.189 50.7397C120.189 50.285 120.01 49.8489 119.689 49.5274C119.369 49.2059 118.935 49.0252 118.482 49.0252Z" fill="#FF0EFF" fill-opacity="0.13"/>
<path d="M128.124 49.0252C127.786 49.0224 127.454 49.1206 127.172 49.3072C126.889 49.4939 126.668 49.7607 126.536 50.0737C126.405 50.3867 126.369 50.7319 126.433 51.0654C126.498 51.3989 126.659 51.7057 126.897 51.9469C127.136 52.1881 127.44 52.3529 127.771 52.4202C128.103 52.4875 128.447 52.4544 128.76 52.3251C129.073 52.1957 129.34 51.976 129.529 51.6937C129.717 51.4115 129.817 51.0794 129.817 50.7397C129.817 50.2875 129.639 49.8536 129.322 49.5324C129.005 49.2113 128.574 49.029 128.124 49.0252Z" fill="#FF0EFF" fill-opacity="0.13"/>
<path d="M70.2193 58.7779C69.8816 58.7779 69.5515 58.8785 69.2707 59.0668C68.9899 59.2552 68.771 59.523 68.6417 59.8363C68.5125 60.1496 68.4787 60.4943 68.5446 60.8269C68.6105 61.1595 68.773 61.465 69.0119 61.7047C69.2507 61.9445 69.555 62.1078 69.8862 62.174C70.2175 62.2401 70.5608 62.2062 70.8728 62.0764C71.1848 61.9466 71.4516 61.7269 71.6392 61.4449C71.8268 61.163 71.9269 60.8315 71.9269 60.4924C71.9269 60.0377 71.747 59.6016 71.4268 59.2801C71.1066 58.9585 70.6722 58.7779 70.2193 58.7779Z" fill="#FF0EFF" fill-opacity="0.13"/>
<path d="M79.8702 58.7779C79.5324 58.7779 79.2023 58.8785 78.9214 59.0668C78.6406 59.2552 78.4217 59.523 78.2925 59.8363C78.1633 60.1496 78.1295 60.4943 78.1954 60.8269C78.2612 61.1595 78.4239 61.465 78.6627 61.7047C78.9015 61.9445 79.2057 62.1078 79.537 62.174C79.8682 62.2401 80.2116 62.2062 80.5236 62.0764C80.8357 61.9466 81.1023 61.7269 81.29 61.4449C81.4776 61.163 81.5778 60.8315 81.5778 60.4924C81.5778 60.0377 81.3979 59.6016 81.0776 59.2801C80.7574 58.9585 80.3231 58.7779 79.8702 58.7779Z" fill="#FF0EFF" fill-opacity="0.13"/>
<path d="M89.5209 58.7779C89.1832 58.7779 88.853 58.8785 88.5722 59.0668C88.2914 59.2552 88.0725 59.523 87.9433 59.8363C87.8141 60.1496 87.7802 60.4943 87.8461 60.8269C87.912 61.1595 88.0746 61.465 88.3134 61.7047C88.5523 61.9445 88.8566 62.1078 89.1878 62.174C89.5191 62.2401 89.8624 62.2062 90.1744 62.0764C90.4864 61.9466 90.7531 61.7269 90.9407 61.4449C91.1283 61.163 91.2285 60.8315 91.2285 60.4924C91.2285 60.0377 91.0486 59.6016 90.7284 59.2801C90.4081 58.9585 89.9738 58.7779 89.5209 58.7779Z" fill="#FF0EFF" fill-opacity="0.13"/>
<path d="M99.1717 58.7779C98.8334 58.7751 98.5018 58.8732 98.2192 59.0599C97.9365 59.2465 97.7154 59.5133 97.584 59.8263C97.4526 60.1394 97.4167 60.4845 97.481 60.818C97.5452 61.1516 97.7067 61.4584 97.945 61.6996C98.1832 61.9408 98.4874 62.1055 98.8191 62.1728C99.1507 62.2402 99.4948 62.2071 99.8077 62.0777C100.121 61.9484 100.388 61.7286 100.576 61.4464C100.765 61.1641 100.865 60.8321 100.865 60.4924C100.865 60.0401 100.687 59.6062 100.37 59.2851C100.053 58.964 99.6221 58.7817 99.1717 58.7779Z" fill="#FF0EFF" fill-opacity="0.13"/>
<path d="M108.823 58.7779C108.485 58.7779 108.155 58.8785 107.874 59.0668C107.593 59.2552 107.374 59.523 107.245 59.8363C107.116 60.1496 107.082 60.4943 107.148 60.8269C107.214 61.1595 107.376 61.465 107.615 61.7047C107.854 61.9445 108.158 62.1078 108.489 62.174C108.821 62.2401 109.164 62.2062 109.476 62.0764C109.788 61.9466 110.055 61.7269 110.242 61.4449C110.43 61.163 110.53 60.8315 110.53 60.4924C110.53 60.0377 110.35 59.6016 110.03 59.2801C109.71 58.9585 109.275 58.7779 108.823 58.7779Z" fill="#FF0EFF" fill-opacity="0.13"/>
<path d="M118.482 58.7779C118.144 58.7779 117.814 58.8785 117.533 59.0668C117.252 59.2552 117.033 59.523 116.904 59.8363C116.775 60.1496 116.741 60.4943 116.807 60.8269C116.873 61.1595 117.036 61.465 117.274 61.7047C117.513 61.9445 117.817 62.1078 118.149 62.174C118.48 62.2401 118.823 62.2062 119.135 62.0764C119.447 61.9466 119.714 61.7269 119.902 61.4449C120.089 61.163 120.189 60.8315 120.189 60.4924C120.189 60.0377 120.01 59.6016 119.689 59.2801C119.369 58.9585 118.935 58.7779 118.482 58.7779Z" fill="#FF0EFF" fill-opacity="0.13"/>
<path d="M128.124 58.7779C127.786 58.7751 127.454 58.8732 127.172 59.0599C126.889 59.2465 126.668 59.5133 126.536 59.8263C126.405 60.1394 126.369 60.4845 126.433 60.818C126.498 61.1516 126.659 61.4584 126.897 61.6996C127.136 61.9408 127.44 62.1055 127.771 62.1728C128.103 62.2402 128.447 62.2071 128.76 62.0777C129.073 61.9484 129.34 61.7286 129.529 61.4464C129.717 61.1641 129.817 60.8321 129.817 60.4924C129.817 60.0401 129.639 59.6062 129.322 59.2851C129.005 58.964 128.574 58.7817 128.124 58.7779Z" fill="#FF0EFF" fill-opacity="0.13"/>
</svg>
