<svg width="165" height="79" viewBox="0 0 165 79" fill="none" xmlns="http://www.w3.org/2000/svg">
<path d="M2.18638 0.0330544C1.75396 0.0330544 1.33123 0.162164 0.971683 0.404065C0.61214 0.645967 0.331872 0.98978 0.166393 1.39205C0.000913301 1.79431 -0.0423378 2.23697 0.0420229 2.66401C0.126384 3.09106 0.33462 3.48332 0.640386 3.7912C0.946153 4.09908 1.33569 4.30876 1.7598 4.3937C2.18391 4.47865 2.62357 4.43505 3.02308 4.26843C3.42258 4.1018 3.76401 3.81962 4.00425 3.45759C4.24448 3.09556 4.37273 2.66994 4.37273 2.23453C4.37273 1.65066 4.1424 1.0907 3.73237 0.677839C3.32236 0.264982 2.76624 0.0330544 2.18638 0.0330544Z" fill="#C7CEFE"/>
<path d="M14.5501 0.0330544C14.1177 0.0330544 13.695 0.162164 13.3354 0.404065C12.9759 0.645967 12.6957 0.98978 12.5302 1.39205C12.3648 1.79431 12.3214 2.23697 12.4058 2.66401C12.4901 3.09106 12.6984 3.48332 13.0041 3.7912C13.3099 4.09908 13.6994 4.30876 14.1236 4.3937C14.5477 4.47865 14.9873 4.43505 15.3868 4.26843C15.7863 4.1018 16.1278 3.81962 16.368 3.45759C16.6082 3.09556 16.7365 2.66994 16.7365 2.23453C16.7365 1.65066 16.5061 1.0907 16.0961 0.677839C15.6861 0.264982 15.13 0.0330544 14.5501 0.0330544Z" fill="#C7CEFE"/>
<path d="M26.8993 0.0330544C26.4669 0.0330544 26.0443 0.162164 25.6847 0.404065C25.3252 0.645967 25.0449 0.98978 24.8794 1.39205C24.714 1.79431 24.6707 2.23697 24.7551 2.66401C24.8394 3.09106 25.0477 3.48332 25.3534 3.7912C25.6592 4.09908 26.0487 4.30876 26.4728 4.3937C26.897 4.47865 27.3365 4.43505 27.736 4.26843C28.1355 4.1018 28.477 3.81962 28.7173 3.45759C28.9575 3.09556 29.0857 2.66994 29.0857 2.23453C29.0857 1.65066 28.8554 1.0907 28.4453 0.677839C28.0353 0.264982 27.4792 0.0330544 26.8993 0.0330544Z" fill="#C7CEFE"/>
<path d="M39.2558 0.0330413C38.8227 0.0294064 38.3982 0.155413 38.0363 0.395094C37.6743 0.634775 37.3912 0.977313 37.223 1.37925C37.0547 1.78118 37.0088 2.2244 37.0911 2.65265C37.1734 3.08089 37.3802 3.47486 37.6852 3.78458C37.9902 4.0943 38.3798 4.30579 38.8044 4.39224C39.229 4.47868 39.6695 4.43617 40.07 4.2701C40.4706 4.10402 40.8132 3.82187 41.0542 3.45946C41.2953 3.09704 41.4239 2.67071 41.424 2.23452C41.424 1.65381 41.1961 1.09661 40.79 0.684276C40.3839 0.271942 39.8325 0.0378805 39.2558 0.0330413Z" fill="#C7CEFE"/>
<path d="M51.6123 0.0330413C51.1791 0.0294064 50.7547 0.155413 50.3927 0.395094C50.0308 0.634775 49.7477 0.977313 49.5794 1.37925C49.4112 1.78118 49.3653 2.2244 49.4476 2.65265C49.5299 3.08089 49.7367 3.47486 50.0417 3.78458C50.3467 4.0943 50.7362 4.30579 51.1608 4.39224C51.5854 4.47868 52.0259 4.43617 52.4265 4.2701C52.8271 4.10402 53.1696 3.82187 53.4107 3.45946C53.6518 3.09704 53.7804 2.67071 53.7804 2.23452C53.7805 1.65381 53.5527 1.09661 53.1466 0.684276C52.7405 0.271942 52.189 0.0378805 51.6123 0.0330413Z" fill="#C7CEFE"/>
<path d="M63.9689 0.0330544C63.5365 0.0330544 63.1138 0.162164 62.7542 0.404065C62.3947 0.645967 62.1144 0.98978 61.949 1.39205C61.7835 1.79431 61.7402 2.23697 61.8246 2.66401C61.909 3.09106 62.1172 3.48332 62.423 3.7912C62.7287 4.09908 63.1183 4.30876 63.5424 4.3937C63.9665 4.47865 64.4061 4.43505 64.8055 4.26843C65.2051 4.1018 65.5466 3.81962 65.7868 3.45759C66.0271 3.09556 66.1553 2.66994 66.1553 2.23453C66.1553 1.65066 65.9249 1.0907 65.5149 0.677839C65.1048 0.264982 64.5488 0.0330544 63.9689 0.0330544Z" fill="#C7CEFE"/>
<path d="M76.3254 0.0330413C75.8922 0.0294064 75.4677 0.155413 75.1058 0.395094C74.7438 0.634775 74.4608 0.977313 74.2925 1.37925C74.1242 1.78118 74.0783 2.2244 74.1606 2.65265C74.2429 3.08089 74.4497 3.47486 74.7547 3.78458C75.0598 4.0943 75.4493 4.30579 75.8739 4.39224C76.2985 4.47868 76.739 4.43617 77.1395 4.2701C77.5401 4.10402 77.8827 3.82187 78.1237 3.45946C78.3648 3.09704 78.4935 2.67071 78.4935 2.23452C78.4935 1.65381 78.2656 1.09661 77.8595 0.684276C77.4534 0.271942 76.9021 0.0378805 76.3254 0.0330413Z" fill="#C7CEFE"/>
<path d="M2.18638 12.4714C1.75396 12.4714 1.33123 12.6005 0.971683 12.8424C0.61214 13.0843 0.331872 13.4281 0.166393 13.8304C0.000913301 14.2326 -0.0423378 14.6753 0.0420229 15.1023C0.126384 15.5294 0.33462 15.9216 0.640386 16.2295C0.946153 16.5374 1.33569 16.7471 1.7598 16.832C2.18391 16.917 2.62357 16.8734 3.02308 16.7067C3.42258 16.5401 3.76401 16.2579 4.00425 15.8959C4.24448 15.5339 4.37273 15.1082 4.37273 14.6728C4.37273 14.089 4.1424 13.529 3.73237 13.1162C3.32236 12.7033 2.76624 12.4714 2.18638 12.4714Z" fill="#C7CEFE"/>
<path d="M14.5501 12.4714C14.1177 12.4714 13.695 12.6005 13.3354 12.8424C12.9759 13.0843 12.6957 13.4281 12.5302 13.8304C12.3648 14.2326 12.3214 14.6753 12.4058 15.1023C12.4901 15.5294 12.6984 15.9216 13.0041 16.2295C13.3099 16.5374 13.6994 16.7471 14.1236 16.832C14.5477 16.917 14.9873 16.8734 15.3868 16.7067C15.7863 16.5401 16.1278 16.2579 16.368 15.8959C16.6082 15.5339 16.7365 15.1082 16.7365 14.6728C16.7365 14.089 16.5061 13.529 16.0961 13.1162C15.6861 12.7033 15.13 12.4714 14.5501 12.4714Z" fill="#C7CEFE"/>
<path d="M26.8993 12.4714C26.4669 12.4714 26.0443 12.6005 25.6847 12.8424C25.3252 13.0843 25.0449 13.4281 24.8794 13.8304C24.714 14.2326 24.6707 14.6753 24.7551 15.1023C24.8394 15.5294 25.0477 15.9216 25.3534 16.2295C25.6592 16.5374 26.0487 16.7471 26.4728 16.832C26.897 16.917 27.3365 16.8734 27.736 16.7067C28.1355 16.5401 28.477 16.2579 28.7173 15.8959C28.9575 15.5339 29.0857 15.1082 29.0857 14.6728C29.0857 14.089 28.8554 13.529 28.4453 13.1162C28.0353 12.7033 27.4792 12.4714 26.8993 12.4714Z" fill="#C7CEFE"/>
<path d="M39.2558 12.4713C38.8227 12.4677 38.3982 12.5937 38.0363 12.8334C37.6743 13.0731 37.3912 13.4156 37.223 13.8176C37.0547 14.2195 37.0088 14.6627 37.0911 15.091C37.1734 15.5192 37.3802 15.9132 37.6852 16.2229C37.9902 16.5326 38.3798 16.7441 38.8044 16.8306C39.229 16.917 39.6695 16.8745 40.07 16.7084C40.4706 16.5424 40.8132 16.2602 41.0542 15.8978C41.2953 15.5354 41.4239 15.109 41.424 14.6728C41.424 14.0921 41.1961 13.5349 40.79 13.1226C40.3839 12.7103 39.8325 12.4762 39.2558 12.4713Z" fill="#C7CEFE"/>
<path d="M51.6123 12.4713C51.1791 12.4677 50.7547 12.5937 50.3927 12.8334C50.0308 13.0731 49.7477 13.4156 49.5794 13.8176C49.4112 14.2195 49.3653 14.6627 49.4476 15.091C49.5299 15.5192 49.7367 15.9132 50.0417 16.2229C50.3467 16.5326 50.7362 16.7441 51.1608 16.8306C51.5854 16.917 52.0259 16.8745 52.4265 16.7084C52.8271 16.5424 53.1696 16.2602 53.4107 15.8978C53.6518 15.5354 53.7804 15.109 53.7804 14.6728C53.7805 14.0921 53.5527 13.5349 53.1466 13.1226C52.7405 12.7103 52.189 12.4762 51.6123 12.4713Z" fill="#C7CEFE"/>
<path d="M63.9689 12.4714C63.5365 12.4714 63.1138 12.6005 62.7542 12.8424C62.3947 13.0843 62.1144 13.4281 61.949 13.8304C61.7835 14.2326 61.7402 14.6753 61.8246 15.1023C61.909 15.5294 62.1172 15.9216 62.423 16.2295C62.7287 16.5374 63.1183 16.7471 63.5424 16.832C63.9665 16.917 64.4061 16.8734 64.8055 16.7067C65.2051 16.5401 65.5466 16.2579 65.7868 15.8959C66.0271 15.5339 66.1553 15.1082 66.1553 14.6728C66.1553 14.089 65.9249 13.529 65.5149 13.1162C65.1048 12.7033 64.5488 12.4714 63.9689 12.4714Z" fill="#C7CEFE"/>
<path d="M76.3254 12.4713C75.8922 12.4677 75.4677 12.5937 75.1058 12.8334C74.7438 13.0731 74.4608 13.4156 74.2925 13.8176C74.1242 14.2195 74.0783 14.6627 74.1606 15.091C74.2429 15.5192 74.4497 15.9132 74.7547 16.2229C75.0598 16.5326 75.4493 16.7441 75.8739 16.8306C76.2985 16.917 76.739 16.8745 77.1395 16.7084C77.5401 16.5424 77.8827 16.2602 78.1237 15.8978C78.3648 15.5354 78.4935 15.109 78.4935 14.6728C78.4935 14.0921 78.2656 13.5349 77.8595 13.1226C77.4534 12.7103 76.9021 12.4762 76.3254 12.4713Z" fill="#C7CEFE"/>
<path d="M2.18638 24.8326C1.75396 24.8326 1.33123 24.9617 0.971683 25.2036C0.61214 25.4455 0.331872 25.7894 0.166393 26.1916C0.000913301 26.5939 -0.0423378 27.0365 0.0420229 27.4636C0.126384 27.8906 0.33462 28.2829 0.640386 28.5908C0.946153 28.8987 1.33569 29.1083 1.7598 29.1933C2.18391 29.2782 2.62357 29.2346 3.02308 29.068C3.42258 28.9014 3.76401 28.6192 4.00425 28.2572C4.24448 27.8952 4.37273 27.4695 4.37273 27.0341C4.37273 26.4502 4.1424 25.8903 3.73237 25.4774C3.32236 25.0646 2.76624 24.8326 2.18638 24.8326Z" fill="#C7CEFE"/>
<path d="M14.5501 24.8326C14.1177 24.8326 13.695 24.9617 13.3354 25.2036C12.9759 25.4455 12.6957 25.7894 12.5302 26.1916C12.3648 26.5939 12.3214 27.0365 12.4058 27.4636C12.4901 27.8906 12.6984 28.2829 13.0041 28.5908C13.3099 28.8987 13.6994 29.1083 14.1236 29.1933C14.5477 29.2782 14.9873 29.2346 15.3868 29.068C15.7863 28.9014 16.1278 28.6192 16.368 28.2572C16.6082 27.8952 16.7365 27.4695 16.7365 27.0341C16.7365 26.4502 16.5061 25.8903 16.0961 25.4774C15.6861 25.0646 15.13 24.8326 14.5501 24.8326Z" fill="#C7CEFE"/>
<path d="M26.8993 24.8326C26.4669 24.8326 26.0443 24.9617 25.6847 25.2036C25.3252 25.4455 25.0449 25.7894 24.8794 26.1916C24.714 26.5939 24.6707 27.0365 24.7551 27.4636C24.8394 27.8906 25.0477 28.2829 25.3534 28.5908C25.6592 28.8987 26.0487 29.1083 26.4728 29.1933C26.897 29.2782 27.3365 29.2346 27.736 29.068C28.1355 28.9014 28.477 28.6192 28.7173 28.2572C28.9575 27.8952 29.0857 27.4695 29.0857 27.0341C29.0857 26.4502 28.8554 25.8903 28.4453 25.4774C28.0353 25.0646 27.4792 24.8326 26.8993 24.8326Z" fill="#C7CEFE"/>
<path d="M39.2558 24.8327C38.8227 24.829 38.3982 24.9551 38.0363 25.1947C37.6743 25.4344 37.3912 25.777 37.223 26.1789C37.0547 26.5808 37.0088 27.024 37.0911 27.4523C37.1734 27.8805 37.3802 28.2745 37.6852 28.5842C37.9902 28.8939 38.3798 29.1054 38.8044 29.1919C39.229 29.2783 39.6695 29.2358 40.07 29.0697C40.4706 28.9037 40.8132 28.6215 41.0542 28.2591C41.2953 27.8967 41.4239 27.4703 41.424 27.0341C41.424 26.4534 41.1961 25.8962 40.79 25.4839C40.3839 25.0716 39.8325 24.8375 39.2558 24.8327Z" fill="#C7CEFE"/>
<path d="M51.6123 24.8327C51.1791 24.829 50.7547 24.9551 50.3927 25.1947C50.0308 25.4344 49.7477 25.777 49.5794 26.1789C49.4112 26.5808 49.3653 27.024 49.4476 27.4523C49.5299 27.8805 49.7367 28.2745 50.0417 28.5842C50.3467 28.8939 50.7362 29.1054 51.1608 29.1919C51.5854 29.2783 52.0259 29.2358 52.4265 29.0697C52.8271 28.9037 53.1696 28.6215 53.4107 28.2591C53.6518 27.8967 53.7804 27.4703 53.7804 27.0341C53.7805 26.4534 53.5527 25.8962 53.1466 25.4839C52.7405 25.0716 52.189 24.8375 51.6123 24.8327Z" fill="#C7CEFE"/>
<path d="M63.9689 24.8326C63.5365 24.8326 63.1138 24.9617 62.7542 25.2036C62.3947 25.4455 62.1144 25.7894 61.949 26.1916C61.7835 26.5939 61.7402 27.0365 61.8246 27.4636C61.909 27.8906 62.1172 28.2829 62.423 28.5908C62.7287 28.8987 63.1183 29.1083 63.5424 29.1933C63.9665 29.2782 64.4061 29.2346 64.8055 29.068C65.2051 28.9014 65.5466 28.6192 65.7868 28.2572C66.0271 27.8952 66.1553 27.4695 66.1553 27.0341C66.1553 26.4502 65.9249 25.8903 65.5149 25.4774C65.1048 25.0646 64.5488 24.8326 63.9689 24.8326Z" fill="#C7CEFE"/>
<path d="M76.3254 24.8327C75.8922 24.829 75.4677 24.9551 75.1058 25.1947C74.7438 25.4344 74.4608 25.777 74.2925 26.1789C74.1242 26.5808 74.0783 27.024 74.1606 27.4523C74.2429 27.8805 74.4497 28.2745 74.7547 28.5842C75.0598 28.8939 75.4493 29.1054 75.8739 29.1919C76.2985 29.2783 76.739 29.2358 77.1395 29.0697C77.5401 28.9037 77.8827 28.6215 78.1237 28.2591C78.3648 27.8967 78.4935 27.4703 78.4935 27.0341C78.4935 26.4534 78.2656 25.8962 77.8595 25.4839C77.4534 25.0716 76.9021 24.8375 76.3254 24.8327Z" fill="#C7CEFE"/>
<path d="M2.18638 37.2747C1.75396 37.2747 1.33123 37.4038 0.971683 37.6457C0.61214 37.8876 0.331872 38.2314 0.166393 38.6337C0.000913301 39.036 -0.0423378 39.4786 0.0420229 39.9057C0.126384 40.3327 0.33462 40.725 0.640386 41.0328C0.946153 41.3407 1.33569 41.5504 1.7598 41.6353C2.18391 41.7203 2.62357 41.6767 3.02308 41.5101C3.42258 41.3434 3.76401 41.0613 4.00425 40.6992C4.24448 40.3372 4.37273 39.9116 4.37273 39.4762C4.37273 38.8923 4.1424 38.3323 3.73237 37.9195C3.32236 37.5066 2.76624 37.2747 2.18638 37.2747Z" fill="#C7CEFE"/>
<path d="M14.5501 37.2747C14.1177 37.2747 13.695 37.4038 13.3354 37.6457C12.9759 37.8876 12.6957 38.2314 12.5302 38.6337C12.3648 39.036 12.3214 39.4786 12.4058 39.9057C12.4901 40.3327 12.6984 40.725 13.0041 41.0328C13.3099 41.3407 13.6994 41.5504 14.1236 41.6353C14.5477 41.7203 14.9873 41.6767 15.3868 41.5101C15.7863 41.3434 16.1278 41.0613 16.368 40.6992C16.6082 40.3372 16.7365 39.9116 16.7365 39.4762C16.7365 38.8923 16.5061 38.3323 16.0961 37.9195C15.6861 37.5066 15.13 37.2747 14.5501 37.2747Z" fill="#C7CEFE"/>
<path d="M26.8993 37.2747C26.4669 37.2747 26.0443 37.4038 25.6847 37.6457C25.3252 37.8876 25.0449 38.2314 24.8794 38.6337C24.714 39.036 24.6707 39.4786 24.7551 39.9057C24.8394 40.3327 25.0477 40.725 25.3534 41.0328C25.6592 41.3407 26.0487 41.5504 26.4728 41.6353C26.897 41.7203 27.3365 41.6767 27.736 41.5101C28.1355 41.3434 28.477 41.0613 28.7173 40.6992C28.9575 40.3372 29.0857 39.9116 29.0857 39.4762C29.0857 38.8923 28.8554 38.3323 28.4453 37.9195C28.0353 37.5066 27.4792 37.2747 26.8993 37.2747Z" fill="#C7CEFE"/>
<path d="M39.2558 37.2747C38.8227 37.271 38.3982 37.3971 38.0363 37.6367C37.6743 37.8764 37.3912 38.219 37.223 38.6209C37.0547 39.0228 37.0088 39.466 37.0911 39.8943C37.1734 40.3225 37.3802 40.7165 37.6852 41.0262C37.9902 41.3359 38.3798 41.5474 38.8044 41.6339C39.229 41.7203 39.6695 41.6778 40.07 41.5117C40.4706 41.3457 40.8132 41.0635 41.0542 40.7011C41.2953 40.3387 41.4239 39.9123 41.424 39.4762C41.424 38.8955 41.1961 38.3383 40.79 37.9259C40.3839 37.5136 39.8325 37.2795 39.2558 37.2747Z" fill="#C7CEFE"/>
<path d="M51.6123 37.2747C51.1791 37.271 50.7547 37.3971 50.3927 37.6367C50.0308 37.8764 49.7477 38.219 49.5794 38.6209C49.4112 39.0228 49.3653 39.466 49.4476 39.8943C49.5299 40.3225 49.7367 40.7165 50.0417 41.0262C50.3467 41.3359 50.7362 41.5474 51.1608 41.6339C51.5854 41.7203 52.0259 41.6778 52.4265 41.5117C52.8271 41.3457 53.1696 41.0635 53.4107 40.7011C53.6518 40.3387 53.7804 39.9123 53.7804 39.4762C53.7805 38.8955 53.5527 38.3383 53.1466 37.9259C52.7405 37.5136 52.189 37.2795 51.6123 37.2747Z" fill="#C7CEFE"/>
<path d="M63.9689 37.2747C63.5365 37.2747 63.1138 37.4038 62.7542 37.6457C62.3947 37.8876 62.1144 38.2314 61.949 38.6337C61.7835 39.036 61.7402 39.4786 61.8246 39.9057C61.909 40.3327 62.1172 40.725 62.423 41.0328C62.7287 41.3407 63.1183 41.5504 63.5424 41.6353C63.9665 41.7203 64.4061 41.6767 64.8055 41.5101C65.2051 41.3434 65.5466 41.0613 65.7868 40.6992C66.0271 40.3372 66.1553 39.9116 66.1553 39.4762C66.1553 38.8923 65.9249 38.3323 65.5149 37.9195C65.1048 37.5066 64.5488 37.2747 63.9689 37.2747Z" fill="#C7CEFE"/>
<path d="M76.3254 37.2747C75.8922 37.271 75.4677 37.3971 75.1058 37.6367C74.7438 37.8764 74.4608 38.219 74.2925 38.6209C74.1242 39.0228 74.0783 39.466 74.1606 39.8943C74.2429 40.3225 74.4497 40.7165 74.7547 41.0262C75.0598 41.3359 75.4493 41.5474 75.8739 41.6339C76.2985 41.7203 76.739 41.6778 77.1395 41.5117C77.5401 41.3457 77.8827 41.0635 78.1237 40.7011C78.3648 40.3387 78.4935 39.9123 78.4935 39.4762C78.4935 38.8955 78.2656 38.3383 77.8595 37.9259C77.4534 37.5136 76.9021 37.2795 76.3254 37.2747Z" fill="#C7CEFE"/>
<path d="M2.18638 49.713C1.75396 49.713 1.33123 49.8421 0.971683 50.084C0.61214 50.3259 0.331872 50.6698 0.166393 51.072C0.000913301 51.4743 -0.0423378 51.9169 0.0420229 52.344C0.126384 52.771 0.33462 53.1633 0.640386 53.4712C0.946153 53.7791 1.33569 53.9887 1.7598 54.0737C2.18391 54.1586 2.62357 54.115 3.02308 53.9484C3.42258 53.7818 3.76401 53.4996 4.00425 53.1376C4.24448 52.7755 4.37273 52.3499 4.37273 51.9145C4.37273 51.3306 4.1424 50.7707 3.73237 50.3578C3.32236 49.945 2.76624 49.713 2.18638 49.713Z" fill="#C7CEFE"/>
<path d="M14.5501 49.713C14.1177 49.713 13.695 49.8421 13.3354 50.084C12.9759 50.3259 12.6957 50.6698 12.5302 51.072C12.3648 51.4743 12.3214 51.9169 12.4058 52.344C12.4901 52.771 12.6984 53.1633 13.0041 53.4712C13.3099 53.7791 13.6994 53.9887 14.1236 54.0737C14.5477 54.1586 14.9873 54.115 15.3868 53.9484C15.7863 53.7818 16.1278 53.4996 16.368 53.1376C16.6082 52.7755 16.7365 52.3499 16.7365 51.9145C16.7365 51.3306 16.5061 50.7707 16.0961 50.3578C15.6861 49.945 15.13 49.713 14.5501 49.713Z" fill="#C7CEFE"/>
<path d="M26.8993 49.713C26.4669 49.713 26.0443 49.8421 25.6847 50.084C25.3252 50.3259 25.0449 50.6698 24.8794 51.072C24.714 51.4743 24.6707 51.9169 24.7551 52.344C24.8394 52.771 25.0477 53.1633 25.3534 53.4712C25.6592 53.7791 26.0487 53.9887 26.4728 54.0737C26.897 54.1586 27.3365 54.115 27.736 53.9484C28.1355 53.7818 28.477 53.4996 28.7173 53.1376C28.9575 52.7755 29.0857 52.3499 29.0857 51.9145C29.0857 51.3306 28.8554 50.7707 28.4453 50.3578C28.0353 49.945 27.4792 49.713 26.8993 49.713Z" fill="#C7CEFE"/>
<path d="M39.2558 49.713C38.8227 49.7094 38.3982 49.8354 38.0363 50.0751C37.6743 50.3147 37.3912 50.6573 37.223 51.0592C37.0547 51.4612 37.0088 51.9044 37.0911 52.3326C37.1734 52.7608 37.3802 53.1548 37.6852 53.4646C37.9902 53.7743 38.3798 53.9858 38.8044 54.0722C39.229 54.1586 39.6695 54.1161 40.07 53.9501C40.4706 53.784 40.8132 53.5018 41.0542 53.1394C41.2953 52.777 41.4239 52.3507 41.424 51.9145C41.424 51.3338 41.1961 50.7766 40.79 50.3642C40.3839 49.9519 39.8325 49.7178 39.2558 49.713Z" fill="#C7CEFE"/>
<path d="M51.6123 49.713C51.1791 49.7094 50.7547 49.8354 50.3927 50.0751C50.0308 50.3147 49.7477 50.6573 49.5794 51.0592C49.4112 51.4612 49.3653 51.9044 49.4476 52.3326C49.5299 52.7608 49.7367 53.1548 50.0417 53.4646C50.3467 53.7743 50.7362 53.9858 51.1608 54.0722C51.5854 54.1586 52.0259 54.1161 52.4265 53.9501C52.8271 53.784 53.1696 53.5018 53.4107 53.1394C53.6518 52.777 53.7804 52.3507 53.7804 51.9145C53.7805 51.3338 53.5527 50.7766 53.1466 50.3642C52.7405 49.9519 52.189 49.7178 51.6123 49.713Z" fill="#C7CEFE"/>
<path d="M63.9689 49.713C63.5365 49.713 63.1138 49.8421 62.7542 50.084C62.3947 50.3259 62.1144 50.6698 61.949 51.072C61.7835 51.4743 61.7402 51.9169 61.8246 52.344C61.909 52.771 62.1172 53.1633 62.423 53.4712C62.7287 53.7791 63.1183 53.9887 63.5424 54.0737C63.9665 54.1586 64.4061 54.115 64.8055 53.9484C65.2051 53.7818 65.5466 53.4996 65.7868 53.1376C66.0271 52.7755 66.1553 52.3499 66.1553 51.9145C66.1553 51.3306 65.9249 50.7707 65.5149 50.3578C65.1048 49.945 64.5488 49.713 63.9689 49.713Z" fill="#C7CEFE"/>
<path d="M76.3254 49.713C75.8922 49.7094 75.4677 49.8354 75.1058 50.0751C74.7438 50.3147 74.4608 50.6573 74.2925 51.0592C74.1242 51.4612 74.0783 51.9044 74.1606 52.3326C74.2429 52.7608 74.4497 53.1548 74.7547 53.4646C75.0598 53.7743 75.4493 53.9858 75.8739 54.0722C76.2985 54.1586 76.739 54.1161 77.1395 53.9501C77.5401 53.784 77.8827 53.5018 78.1237 53.1394C78.3648 52.777 78.4935 52.3507 78.4935 51.9145C78.4935 51.3338 78.2656 50.7766 77.8595 50.3642C77.4534 49.9519 76.9021 49.7178 76.3254 49.713Z" fill="#C7CEFE"/>
<path d="M2.18638 62.0743C1.75396 62.0743 1.33123 62.2034 0.971683 62.4453C0.61214 62.6872 0.331872 63.031 0.166393 63.4333C0.000913301 63.8356 -0.0423378 64.2782 0.0420229 64.7052C0.126384 65.1323 0.33462 65.5246 0.640386 65.8324C0.946153 66.1403 1.33569 66.35 1.7598 66.4349C2.18391 66.5199 2.62357 66.4763 3.02308 66.3096C3.42258 66.143 3.76401 65.8609 4.00425 65.4988C4.24448 65.1368 4.37273 64.7112 4.37273 64.2757C4.37273 63.6919 4.1424 63.1319 3.73237 62.7191C3.32236 62.3062 2.76624 62.0743 2.18638 62.0743Z" fill="#C7CEFE"/>
<path d="M14.5501 62.0743C14.1177 62.0743 13.695 62.2034 13.3354 62.4453C12.9759 62.6872 12.6957 63.031 12.5302 63.4333C12.3648 63.8356 12.3214 64.2782 12.4058 64.7052C12.4901 65.1323 12.6984 65.5246 13.0041 65.8324C13.3099 66.1403 13.6994 66.35 14.1236 66.4349C14.5477 66.5199 14.9873 66.4763 15.3868 66.3096C15.7863 66.143 16.1278 65.8609 16.368 65.4988C16.6082 65.1368 16.7365 64.7112 16.7365 64.2757C16.7365 63.6919 16.5061 63.1319 16.0961 62.7191C15.6861 62.3062 15.13 62.0743 14.5501 62.0743Z" fill="#C7CEFE"/>
<path d="M26.8993 62.0743C26.4669 62.0743 26.0443 62.2034 25.6847 62.4453C25.3252 62.6872 25.0449 63.031 24.8794 63.4333C24.714 63.8356 24.6707 64.2782 24.7551 64.7052C24.8394 65.1323 25.0477 65.5246 25.3534 65.8324C25.6592 66.1403 26.0487 66.35 26.4728 66.4349C26.897 66.5199 27.3365 66.4763 27.736 66.3096C28.1355 66.143 28.477 65.8609 28.7173 65.4988C28.9575 65.1368 29.0857 64.7112 29.0857 64.2757C29.0857 63.6919 28.8554 63.1319 28.4453 62.7191C28.0353 62.3062 27.4792 62.0743 26.8993 62.0743Z" fill="#C7CEFE"/>
<path d="M39.2558 62.0743C38.8227 62.0707 38.3982 62.1967 38.0363 62.4364C37.6743 62.6761 37.3912 63.0186 37.223 63.4205C37.0547 63.8225 37.0088 64.2657 37.0911 64.6939C37.1734 65.1222 37.3802 65.5161 37.6852 65.8259C37.9902 66.1356 38.3798 66.3471 38.8044 66.4335C39.229 66.52 39.6695 66.4774 40.07 66.3114C40.4706 66.1453 40.8132 65.8632 41.0542 65.5007C41.2953 65.1383 41.4239 64.712 41.424 64.2758C41.424 63.6951 41.1961 63.1379 40.79 62.7256C40.3839 62.3132 39.8325 62.0791 39.2558 62.0743Z" fill="#C7CEFE"/>
<path d="M51.6123 62.0743C51.1791 62.0707 50.7547 62.1967 50.3927 62.4364C50.0308 62.6761 49.7477 63.0186 49.5794 63.4205C49.4112 63.8225 49.3653 64.2657 49.4476 64.6939C49.5299 65.1222 49.7367 65.5161 50.0417 65.8259C50.3467 66.1356 50.7362 66.3471 51.1608 66.4335C51.5854 66.52 52.0259 66.4774 52.4265 66.3114C52.8271 66.1453 53.1696 65.8632 53.4107 65.5007C53.6518 65.1383 53.7804 64.712 53.7804 64.2758C53.7805 63.6951 53.5527 63.1379 53.1466 62.7256C52.7405 62.3132 52.189 62.0791 51.6123 62.0743Z" fill="#C7CEFE"/>
<path d="M63.9689 62.0743C63.5365 62.0743 63.1138 62.2034 62.7542 62.4453C62.3947 62.6872 62.1144 63.031 61.949 63.4333C61.7835 63.8356 61.7402 64.2782 61.8246 64.7052C61.909 65.1323 62.1172 65.5246 62.423 65.8324C62.7287 66.1403 63.1183 66.35 63.5424 66.4349C63.9665 66.5199 64.4061 66.4763 64.8055 66.3096C65.2051 66.143 65.5466 65.8609 65.7868 65.4988C66.0271 65.1368 66.1553 64.7112 66.1553 64.2757C66.1553 63.6919 65.9249 63.1319 65.5149 62.7191C65.1048 62.3062 64.5488 62.0743 63.9689 62.0743Z" fill="#C7CEFE"/>
<path d="M76.3254 62.0743C75.8922 62.0707 75.4677 62.1967 75.1058 62.4364C74.7438 62.6761 74.4608 63.0186 74.2925 63.4205C74.1242 63.8225 74.0783 64.2657 74.1606 64.6939C74.2429 65.1222 74.4497 65.5161 74.7547 65.8259C75.0598 66.1356 75.4493 66.3471 75.8739 66.4335C76.2985 66.52 76.739 66.4774 77.1395 66.3114C77.5401 66.1453 77.8827 65.8632 78.1237 65.5007C78.3648 65.1383 78.4935 64.712 78.4935 64.2758C78.4935 63.6951 78.2656 63.1379 77.8595 62.7256C77.4534 62.3132 76.9021 62.0791 76.3254 62.0743Z" fill="#C7CEFE"/>
<path d="M2.18638 74.597C1.75396 74.597 1.33123 74.7262 0.971683 74.9681C0.61214 75.21 0.331872 75.5538 0.166393 75.9561C0.000913301 76.3583 -0.0423378 76.801 0.0420229 77.228C0.126384 77.6551 0.33462 78.0473 0.640386 78.3552C0.946153 78.6631 1.33569 78.8728 1.7598 78.9577C2.18391 79.0426 2.62357 78.999 3.02308 78.8324C3.42258 78.6658 3.76401 78.3836 4.00425 78.0216C4.24448 77.6596 4.37273 77.2339 4.37273 76.7985C4.37273 76.2147 4.1424 75.6547 3.73237 75.2419C3.32236 74.829 2.76624 74.597 2.18638 74.597Z" fill="#C7CEFE"/>
<path d="M14.5501 74.597C14.1177 74.597 13.695 74.7262 13.3354 74.9681C12.9759 75.21 12.6957 75.5538 12.5302 75.9561C12.3648 76.3583 12.3214 76.801 12.4058 77.228C12.4901 77.6551 12.6984 78.0473 13.0041 78.3552C13.3099 78.6631 13.6994 78.8728 14.1236 78.9577C14.5477 79.0426 14.9873 78.999 15.3868 78.8324C15.7863 78.6658 16.1278 78.3836 16.368 78.0216C16.6082 77.6596 16.7365 77.2339 16.7365 76.7985C16.7365 76.2147 16.5061 75.6547 16.0961 75.2419C15.6861 74.829 15.13 74.597 14.5501 74.597Z" fill="#C7CEFE"/>
<path d="M26.8993 74.597C26.4669 74.597 26.0443 74.7262 25.6847 74.9681C25.3252 75.21 25.0449 75.5538 24.8794 75.9561C24.714 76.3583 24.6707 76.801 24.7551 77.228C24.8394 77.6551 25.0477 78.0473 25.3534 78.3552C25.6592 78.6631 26.0487 78.8728 26.4728 78.9577C26.897 79.0426 27.3365 78.999 27.736 78.8324C28.1355 78.6658 28.477 78.3836 28.7173 78.0216C28.9575 77.6596 29.0857 77.2339 29.0857 76.7985C29.0857 76.2147 28.8554 75.6547 28.4453 75.2419C28.0353 74.829 27.4792 74.597 26.8993 74.597Z" fill="#C7CEFE"/>
<path d="M39.2558 74.597C38.8227 74.5934 38.3982 74.7194 38.0363 74.9591C37.6743 75.1988 37.3912 75.5413 37.223 75.9433C37.0547 76.3452 37.0088 76.7884 37.0911 77.2166C37.1734 77.6449 37.3802 78.0389 37.6852 78.3486C37.9902 78.6583 38.3798 78.8698 38.8044 78.9563C39.229 79.0427 39.6695 79.0002 40.07 78.8341C40.4706 78.668 40.8132 78.3859 41.0542 78.0235C41.2953 77.661 41.4239 77.2347 41.424 76.7985C41.424 76.2178 41.1961 75.6606 40.79 75.2483C40.3839 74.836 39.8325 74.6019 39.2558 74.597Z" fill="#C7CEFE"/>
<path d="M51.6123 74.597C51.1791 74.5934 50.7547 74.7194 50.3927 74.9591C50.0308 75.1988 49.7477 75.5413 49.5794 75.9433C49.4112 76.3452 49.3653 76.7884 49.4476 77.2166C49.5299 77.6449 49.7367 78.0389 50.0417 78.3486C50.3467 78.6583 50.7362 78.8698 51.1608 78.9563C51.5854 79.0427 52.0259 79.0002 52.4265 78.8341C52.8271 78.668 53.1696 78.3859 53.4107 78.0235C53.6518 77.661 53.7804 77.2347 53.7804 76.7985C53.7805 76.2178 53.5527 75.6606 53.1466 75.2483C52.7405 74.836 52.189 74.6019 51.6123 74.597Z" fill="#C7CEFE"/>
<path d="M63.9689 74.597C63.5365 74.597 63.1138 74.7262 62.7542 74.9681C62.3947 75.21 62.1144 75.5538 61.949 75.9561C61.7835 76.3583 61.7402 76.801 61.8246 77.228C61.909 77.6551 62.1172 78.0473 62.423 78.3552C62.7287 78.6631 63.1183 78.8728 63.5424 78.9577C63.9665 79.0426 64.4061 78.999 64.8055 78.8324C65.2051 78.6658 65.5466 78.3836 65.7868 78.0216C66.0271 77.6596 66.1553 77.2339 66.1553 76.7985C66.1553 76.2147 65.9249 75.6547 65.5149 75.2419C65.1048 74.829 64.5488 74.597 63.9689 74.597Z" fill="#C7CEFE"/>
<path d="M76.3254 74.597C75.8922 74.5934 75.4677 74.7194 75.1058 74.9591C74.7438 75.1988 74.4608 75.5413 74.2925 75.9433C74.1242 76.3452 74.0783 76.7884 74.1606 77.2166C74.2429 77.6449 74.4497 78.0389 74.7547 78.3486C75.0598 78.6583 75.4493 78.8698 75.8739 78.9563C76.2985 79.0427 76.739 79.0002 77.1395 78.8341C77.5401 78.668 77.8827 78.3859 78.1237 78.0235C78.3648 77.661 78.4935 77.2347 78.4935 76.7985C78.4935 76.2178 78.2656 75.6606 77.8595 75.2483C77.4534 74.836 76.9021 74.6019 76.3254 74.597Z" fill="#C7CEFE"/>
<path d="M88.6746 0.0330544C88.2422 0.0330544 87.8195 0.162164 87.46 0.404065C87.1005 0.645967 86.8202 0.98978 86.6547 1.39205C86.4892 1.79431 86.446 2.23697 86.5303 2.66401C86.6147 3.09106 86.8229 3.48332 87.1286 3.7912C87.4344 4.09908 87.824 4.30876 88.2481 4.3937C88.6722 4.47865 89.1118 4.43505 89.5113 4.26843C89.9108 4.1018 90.2523 3.81962 90.4926 3.45759C90.7328 3.09556 90.861 2.66994 90.861 2.23453C90.861 1.65066 90.6306 1.0907 90.2206 0.677839C89.8106 0.264982 89.2545 0.0330544 88.6746 0.0330544Z" fill="#C7CEFE"/>
<path d="M101.031 0.0330544C100.599 0.0330544 100.176 0.162164 99.8165 0.404065C99.4569 0.645967 99.1767 0.98978 99.0112 1.39205C98.8457 1.79431 98.8025 2.23697 98.8868 2.66401C98.9712 3.09106 99.1794 3.48332 99.4852 3.7912C99.791 4.09908 100.18 4.30876 100.605 4.3937C101.029 4.47865 101.468 4.43505 101.868 4.26843C102.267 4.1018 102.609 3.81962 102.849 3.45759C103.089 3.09556 103.218 2.66994 103.218 2.23453C103.218 1.65066 102.987 1.0907 102.577 0.677839C102.167 0.264982 101.611 0.0330544 101.031 0.0330544Z" fill="#C7CEFE"/>
<path d="M113.388 0.0330544C112.955 0.0330544 112.532 0.162164 112.173 0.404065C111.813 0.645967 111.533 0.98978 111.368 1.39205C111.202 1.79431 111.159 2.23697 111.243 2.66401C111.328 3.09106 111.536 3.48332 111.842 3.7912C112.147 4.09908 112.537 4.30876 112.961 4.3937C113.385 4.47865 113.825 4.43505 114.224 4.26843C114.624 4.1018 114.965 3.81962 115.205 3.45759C115.446 3.09556 115.574 2.66994 115.574 2.23453C115.574 1.65066 115.344 1.0907 114.934 0.677839C114.524 0.264982 113.967 0.0330544 113.388 0.0330544Z" fill="#C7CEFE"/>
<path d="M125.744 0.0330413C125.311 0.0294064 124.886 0.155413 124.525 0.395094C124.163 0.634775 123.88 0.977313 123.711 1.37925C123.543 1.78118 123.497 2.2244 123.579 2.65265C123.662 3.08089 123.868 3.47486 124.174 3.78458C124.479 4.0943 124.868 4.30579 125.293 4.39224C125.717 4.47868 126.158 4.43617 126.558 4.2701C126.959 4.10402 127.301 3.82187 127.543 3.45946C127.784 3.09704 127.912 2.67071 127.912 2.23452C127.912 1.65381 127.684 1.09661 127.278 0.684276C126.872 0.271942 126.321 0.0378805 125.744 0.0330413Z" fill="#C7CEFE"/>
<path d="M138.101 0.0330544C137.668 0.0330544 137.246 0.162164 136.886 0.404065C136.526 0.645967 136.246 0.98978 136.081 1.39205C135.915 1.79431 135.872 2.23697 135.956 2.66401C136.041 3.09106 136.249 3.48332 136.555 3.7912C136.86 4.09908 137.25 4.30876 137.674 4.3937C138.098 4.47865 138.538 4.43505 138.937 4.26843C139.337 4.1018 139.678 3.81962 139.919 3.45759C140.159 3.09556 140.287 2.66994 140.287 2.23453C140.287 1.65066 140.057 1.0907 139.647 0.677839C139.237 0.264982 138.681 0.0330544 138.101 0.0330544Z" fill="#C7CEFE"/>
<path d="M150.468 0.0330544C150.036 0.0330544 149.613 0.162164 149.253 0.404065C148.894 0.645967 148.614 0.98978 148.448 1.39205C148.283 1.79431 148.239 2.23697 148.324 2.66401C148.408 3.09106 148.616 3.48332 148.922 3.7912C149.228 4.09908 149.617 4.30876 150.042 4.3937C150.466 4.47865 150.905 4.43505 151.305 4.26843C151.704 4.1018 152.046 3.81962 152.286 3.45759C152.526 3.09556 152.654 2.66994 152.654 2.23453C152.654 1.65066 152.424 1.0907 152.014 0.677839C151.604 0.264982 151.048 0.0330544 150.468 0.0330544Z" fill="#C7CEFE"/>
<path d="M162.814 4.40295C163.246 4.40295 163.669 4.27384 164.028 4.03194C164.388 3.79004 164.668 3.4462 164.834 3.04394C164.999 2.64167 165.042 2.19904 164.958 1.77199C164.874 1.34495 164.665 0.952688 164.36 0.644806C164.054 0.336924 163.664 0.127247 163.24 0.0423021C162.816 -0.0426423 162.377 0.000952819 161.977 0.167577C161.577 0.334202 161.236 0.616364 160.996 0.978395C160.756 1.34043 160.627 1.76606 160.627 2.20148C160.627 2.78534 160.858 3.34529 161.268 3.75814C161.678 4.171 162.234 4.40295 162.814 4.40295Z" fill="#C7CEFE"/>
<path d="M88.6746 12.4714C88.2422 12.4714 87.8195 12.6005 87.46 12.8424C87.1005 13.0843 86.8202 13.4281 86.6547 13.8304C86.4892 14.2326 86.446 14.6753 86.5303 15.1023C86.6147 15.5294 86.8229 15.9216 87.1286 16.2295C87.4344 16.5374 87.824 16.7471 88.2481 16.832C88.6722 16.917 89.1118 16.8734 89.5113 16.7067C89.9108 16.5401 90.2523 16.2579 90.4926 15.8959C90.7328 15.5339 90.861 15.1082 90.861 14.6728C90.861 14.089 90.6306 13.529 90.2206 13.1162C89.8106 12.7033 89.2545 12.4714 88.6746 12.4714Z" fill="#C7CEFE"/>
<path d="M101.031 12.4714C100.599 12.4714 100.176 12.6005 99.8165 12.8424C99.4569 13.0843 99.1767 13.4281 99.0112 13.8304C98.8457 14.2326 98.8025 14.6753 98.8868 15.1023C98.9712 15.5294 99.1794 15.9216 99.4852 16.2295C99.791 16.5374 100.18 16.7471 100.605 16.832C101.029 16.917 101.468 16.8734 101.868 16.7067C102.267 16.5401 102.609 16.2579 102.849 15.8959C103.089 15.5339 103.218 15.1082 103.218 14.6728C103.218 14.089 102.987 13.529 102.577 13.1162C102.167 12.7033 101.611 12.4714 101.031 12.4714Z" fill="#C7CEFE"/>
<path d="M113.388 12.4714C112.955 12.4714 112.532 12.6005 112.173 12.8424C111.813 13.0843 111.533 13.4281 111.368 13.8304C111.202 14.2326 111.159 14.6753 111.243 15.1023C111.328 15.5294 111.536 15.9216 111.842 16.2295C112.147 16.5374 112.537 16.7471 112.961 16.832C113.385 16.917 113.825 16.8734 114.224 16.7067C114.624 16.5401 114.965 16.2579 115.205 15.8959C115.446 15.5339 115.574 15.1082 115.574 14.6728C115.574 14.089 115.344 13.529 114.934 13.1162C114.524 12.7033 113.967 12.4714 113.388 12.4714Z" fill="#C7CEFE"/>
<path d="M125.744 12.4713C125.311 12.4677 124.886 12.5937 124.525 12.8334C124.163 13.0731 123.88 13.4156 123.711 13.8176C123.543 14.2195 123.497 14.6627 123.579 15.091C123.662 15.5192 123.868 15.9132 124.174 16.2229C124.479 16.5326 124.868 16.7441 125.293 16.8306C125.717 16.917 126.158 16.8745 126.558 16.7084C126.959 16.5424 127.301 16.2602 127.543 15.8978C127.784 15.5354 127.912 15.109 127.912 14.6728C127.912 14.0921 127.684 13.5349 127.278 13.1226C126.872 12.7103 126.321 12.4762 125.744 12.4713Z" fill="#C7CEFE"/>
<path d="M138.101 12.4714C137.668 12.4714 137.246 12.6005 136.886 12.8424C136.526 13.0843 136.246 13.4281 136.081 13.8304C135.915 14.2326 135.872 14.6753 135.956 15.1023C136.041 15.5294 136.249 15.9216 136.555 16.2295C136.86 16.5374 137.25 16.7471 137.674 16.832C138.098 16.917 138.538 16.8734 138.937 16.7067C139.337 16.5401 139.678 16.2579 139.919 15.8959C140.159 15.5339 140.287 15.1082 140.287 14.6728C140.287 14.089 140.057 13.529 139.647 13.1162C139.237 12.7033 138.681 12.4714 138.101 12.4714Z" fill="#C7CEFE"/>
<path d="M150.468 12.4714C150.036 12.4714 149.613 12.6005 149.253 12.8424C148.894 13.0843 148.614 13.4281 148.448 13.8304C148.283 14.2326 148.239 14.6753 148.324 15.1023C148.408 15.5294 148.616 15.9216 148.922 16.2295C149.228 16.5374 149.617 16.7471 150.042 16.832C150.466 16.917 150.905 16.8734 151.305 16.7067C151.704 16.5401 152.046 16.2579 152.286 15.8959C152.526 15.5339 152.654 15.1082 152.654 14.6728C152.654 14.089 152.424 13.529 152.014 13.1162C151.604 12.7033 151.048 12.4714 150.468 12.4714Z" fill="#C7CEFE"/>
<path d="M162.814 12.4713C162.38 12.4677 161.956 12.5937 161.594 12.8334C161.232 13.0731 160.949 13.4156 160.781 13.8176C160.613 14.2195 160.567 14.6627 160.649 15.091C160.731 15.5192 160.938 15.9132 161.243 16.2229C161.548 16.5326 161.938 16.7441 162.362 16.8306C162.787 16.917 163.227 16.8745 163.628 16.7084C164.029 16.5424 164.371 16.2602 164.612 15.8978C164.853 15.5354 164.982 15.109 164.982 14.6728C164.982 14.0921 164.754 13.5349 164.348 13.1226C163.942 12.7103 163.39 12.4762 162.814 12.4713Z" fill="#C7CEFE"/>
<path d="M88.6746 24.8326C88.2422 24.8326 87.8195 24.9617 87.46 25.2036C87.1005 25.4455 86.8202 25.7894 86.6547 26.1916C86.4892 26.5939 86.446 27.0365 86.5303 27.4636C86.6147 27.8906 86.8229 28.2829 87.1286 28.5908C87.4344 28.8987 87.824 29.1083 88.2481 29.1933C88.6722 29.2782 89.1118 29.2346 89.5113 29.068C89.9108 28.9014 90.2523 28.6192 90.4926 28.2572C90.7328 27.8952 90.861 27.4695 90.861 27.0341C90.861 26.4502 90.6306 25.8903 90.2206 25.4774C89.8106 25.0646 89.2545 24.8326 88.6746 24.8326Z" fill="#C7CEFE"/>
<path d="M101.031 24.8326C100.599 24.8326 100.176 24.9617 99.8165 25.2036C99.4569 25.4455 99.1767 25.7894 99.0112 26.1916C98.8457 26.5939 98.8025 27.0365 98.8868 27.4636C98.9712 27.8906 99.1794 28.2829 99.4852 28.5908C99.791 28.8987 100.18 29.1083 100.605 29.1933C101.029 29.2782 101.468 29.2346 101.868 29.068C102.267 28.9014 102.609 28.6192 102.849 28.2572C103.089 27.8952 103.218 27.4695 103.218 27.0341C103.218 26.4502 102.987 25.8903 102.577 25.4774C102.167 25.0646 101.611 24.8326 101.031 24.8326Z" fill="#C7CEFE"/>
<path d="M113.388 24.8326C112.955 24.8326 112.532 24.9617 112.173 25.2036C111.813 25.4455 111.533 25.7894 111.368 26.1916C111.202 26.5939 111.159 27.0365 111.243 27.4636C111.328 27.8906 111.536 28.2829 111.842 28.5908C112.147 28.8987 112.537 29.1083 112.961 29.1933C113.385 29.2782 113.825 29.2346 114.224 29.068C114.624 28.9014 114.965 28.6192 115.205 28.2572C115.446 27.8952 115.574 27.4695 115.574 27.0341C115.574 26.4502 115.344 25.8903 114.934 25.4774C114.524 25.0646 113.967 24.8326 113.388 24.8326Z" fill="#C7CEFE"/>
<path d="M125.744 24.8327C125.311 24.829 124.886 24.9551 124.525 25.1947C124.163 25.4344 123.88 25.777 123.711 26.1789C123.543 26.5808 123.497 27.024 123.579 27.4523C123.662 27.8805 123.868 28.2745 124.174 28.5842C124.479 28.8939 124.868 29.1054 125.293 29.1919C125.717 29.2783 126.158 29.2358 126.558 29.0697C126.959 28.9037 127.301 28.6215 127.543 28.2591C127.784 27.8967 127.912 27.4703 127.912 27.0341C127.912 26.4534 127.684 25.8962 127.278 25.4839C126.872 25.0716 126.321 24.8375 125.744 24.8327Z" fill="#C7CEFE"/>
<path d="M138.101 24.8326C137.668 24.8326 137.246 24.9617 136.886 25.2036C136.526 25.4455 136.246 25.7894 136.081 26.1916C135.915 26.5939 135.872 27.0365 135.956 27.4636C136.041 27.8906 136.249 28.2829 136.555 28.5908C136.86 28.8987 137.25 29.1083 137.674 29.1933C138.098 29.2782 138.538 29.2346 138.937 29.068C139.337 28.9014 139.678 28.6192 139.919 28.2572C140.159 27.8952 140.287 27.4695 140.287 27.0341C140.287 26.4502 140.057 25.8903 139.647 25.4774C139.237 25.0646 138.681 24.8326 138.101 24.8326Z" fill="#C7CEFE"/>
<path d="M150.468 24.8326C150.036 24.8326 149.613 24.9617 149.253 25.2036C148.894 25.4455 148.614 25.7894 148.448 26.1916C148.283 26.5939 148.239 27.0365 148.324 27.4636C148.408 27.8906 148.616 28.2829 148.922 28.5908C149.228 28.8987 149.617 29.1083 150.042 29.1933C150.466 29.2782 150.905 29.2346 151.305 29.068C151.704 28.9014 152.046 28.6192 152.286 28.2572C152.526 27.8952 152.654 27.4695 152.654 27.0341C152.654 26.4502 152.424 25.8903 152.014 25.4774C151.604 25.0646 151.048 24.8326 150.468 24.8326Z" fill="#C7CEFE"/>
<path d="M162.814 24.8327C162.38 24.829 161.956 24.9551 161.594 25.1947C161.232 25.4344 160.949 25.777 160.781 26.1789C160.613 26.5808 160.567 27.024 160.649 27.4523C160.731 27.8805 160.938 28.2745 161.243 28.5842C161.548 28.8939 161.938 29.1054 162.362 29.1919C162.787 29.2783 163.227 29.2358 163.628 29.0697C164.029 28.9037 164.371 28.6215 164.612 28.2591C164.853 27.8967 164.982 27.4703 164.982 27.0341C164.982 26.4534 164.754 25.8962 164.348 25.4839C163.942 25.0716 163.39 24.8375 162.814 24.8327Z" fill="#C7CEFE"/>
<path d="M88.6746 37.2747C88.2422 37.2747 87.8195 37.4038 87.46 37.6457C87.1005 37.8876 86.8202 38.2314 86.6547 38.6337C86.4892 39.036 86.446 39.4786 86.5303 39.9057C86.6147 40.3327 86.8229 40.725 87.1286 41.0328C87.4344 41.3407 87.824 41.5504 88.2481 41.6353C88.6722 41.7203 89.1118 41.6767 89.5113 41.5101C89.9108 41.3434 90.2523 41.0613 90.4926 40.6992C90.7328 40.3372 90.861 39.9116 90.861 39.4762C90.861 38.8923 90.6306 38.3323 90.2206 37.9195C89.8106 37.5066 89.2545 37.2747 88.6746 37.2747Z" fill="#C7CEFE"/>
<path d="M101.031 37.2747C100.599 37.2747 100.176 37.4038 99.8165 37.6457C99.4569 37.8876 99.1767 38.2314 99.0112 38.6337C98.8457 39.036 98.8025 39.4786 98.8868 39.9057C98.9712 40.3327 99.1794 40.725 99.4852 41.0328C99.791 41.3407 100.18 41.5504 100.605 41.6353C101.029 41.7203 101.468 41.6767 101.868 41.5101C102.267 41.3434 102.609 41.0613 102.849 40.6992C103.089 40.3372 103.218 39.9116 103.218 39.4762C103.218 38.8923 102.987 38.3323 102.577 37.9195C102.167 37.5066 101.611 37.2747 101.031 37.2747Z" fill="#C7CEFE"/>
<path d="M113.388 37.2747C112.955 37.2747 112.532 37.4038 112.173 37.6457C111.813 37.8876 111.533 38.2314 111.368 38.6337C111.202 39.036 111.159 39.4786 111.243 39.9057C111.328 40.3327 111.536 40.725 111.842 41.0328C112.147 41.3407 112.537 41.5504 112.961 41.6353C113.385 41.7203 113.825 41.6767 114.224 41.5101C114.624 41.3434 114.965 41.0613 115.205 40.6992C115.446 40.3372 115.574 39.9116 115.574 39.4762C115.574 38.8923 115.344 38.3323 114.934 37.9195C114.524 37.5066 113.967 37.2747 113.388 37.2747Z" fill="#C7CEFE"/>
<path d="M125.744 37.2747C125.311 37.271 124.886 37.3971 124.525 37.6367C124.163 37.8764 123.88 38.219 123.711 38.6209C123.543 39.0228 123.497 39.466 123.579 39.8943C123.662 40.3225 123.868 40.7165 124.174 41.0262C124.479 41.3359 124.868 41.5474 125.293 41.6339C125.717 41.7203 126.158 41.6778 126.558 41.5117C126.959 41.3457 127.301 41.0635 127.543 40.7011C127.784 40.3387 127.912 39.9123 127.912 39.4762C127.912 38.8955 127.684 38.3383 127.278 37.9259C126.872 37.5136 126.321 37.2795 125.744 37.2747Z" fill="#C7CEFE"/>
<path d="M138.101 37.2747C137.668 37.2747 137.246 37.4038 136.886 37.6457C136.526 37.8876 136.246 38.2314 136.081 38.6337C135.915 39.036 135.872 39.4786 135.956 39.9057C136.041 40.3327 136.249 40.725 136.555 41.0328C136.86 41.3407 137.25 41.5504 137.674 41.6353C138.098 41.7203 138.538 41.6767 138.937 41.5101C139.337 41.3434 139.678 41.0613 139.919 40.6992C140.159 40.3372 140.287 39.9116 140.287 39.4762C140.287 38.8923 140.057 38.3323 139.647 37.9195C139.237 37.5066 138.681 37.2747 138.101 37.2747Z" fill="#C7CEFE"/>
<path d="M150.468 37.2747C150.036 37.2747 149.613 37.4038 149.253 37.6457C148.894 37.8876 148.614 38.2314 148.448 38.6337C148.283 39.036 148.239 39.4786 148.324 39.9057C148.408 40.3327 148.616 40.725 148.922 41.0328C149.228 41.3407 149.617 41.5504 150.042 41.6353C150.466 41.7203 150.905 41.6767 151.305 41.5101C151.704 41.3434 152.046 41.0613 152.286 40.6992C152.526 40.3372 152.654 39.9116 152.654 39.4762C152.654 38.8923 152.424 38.3323 152.014 37.9195C151.604 37.5066 151.048 37.2747 150.468 37.2747Z" fill="#C7CEFE"/>
<path d="M162.814 37.2747C162.38 37.271 161.956 37.3971 161.594 37.6367C161.232 37.8764 160.949 38.219 160.781 38.6209C160.613 39.0228 160.567 39.466 160.649 39.8943C160.731 40.3225 160.938 40.7165 161.243 41.0262C161.548 41.3359 161.938 41.5474 162.362 41.6339C162.787 41.7203 163.227 41.6778 163.628 41.5117C164.029 41.3457 164.371 41.0635 164.612 40.7011C164.853 40.3387 164.982 39.9123 164.982 39.4762C164.982 38.8955 164.754 38.3383 164.348 37.9259C163.942 37.5136 163.39 37.2795 162.814 37.2747Z" fill="#C7CEFE"/>
<path d="M88.6746 49.713C88.2422 49.713 87.8195 49.8421 87.46 50.084C87.1005 50.3259 86.8202 50.6698 86.6547 51.072C86.4892 51.4743 86.446 51.9169 86.5303 52.344C86.6147 52.771 86.8229 53.1633 87.1286 53.4712C87.4344 53.7791 87.824 53.9887 88.2481 54.0737C88.6722 54.1586 89.1118 54.115 89.5113 53.9484C89.9108 53.7818 90.2523 53.4996 90.4926 53.1376C90.7328 52.7755 90.861 52.3499 90.861 51.9145C90.861 51.3306 90.6306 50.7707 90.2206 50.3578C89.8106 49.945 89.2545 49.713 88.6746 49.713Z" fill="#C7CEFE"/>
<path d="M101.031 49.713C100.599 49.713 100.176 49.8421 99.8165 50.084C99.4569 50.3259 99.1767 50.6698 99.0112 51.072C98.8457 51.4743 98.8025 51.9169 98.8868 52.344C98.9712 52.771 99.1794 53.1633 99.4852 53.4712C99.791 53.7791 100.18 53.9887 100.605 54.0737C101.029 54.1586 101.468 54.115 101.868 53.9484C102.267 53.7818 102.609 53.4996 102.849 53.1376C103.089 52.7755 103.218 52.3499 103.218 51.9145C103.218 51.3306 102.987 50.7707 102.577 50.3578C102.167 49.945 101.611 49.713 101.031 49.713Z" fill="#C7CEFE"/>
<path d="M113.388 49.713C112.955 49.713 112.532 49.8421 112.173 50.084C111.813 50.3259 111.533 50.6698 111.368 51.072C111.202 51.4743 111.159 51.9169 111.243 52.344C111.328 52.771 111.536 53.1633 111.842 53.4712C112.147 53.7791 112.537 53.9887 112.961 54.0737C113.385 54.1586 113.825 54.115 114.224 53.9484C114.624 53.7818 114.965 53.4996 115.205 53.1376C115.446 52.7755 115.574 52.3499 115.574 51.9145C115.574 51.3306 115.344 50.7707 114.934 50.3578C114.524 49.945 113.967 49.713 113.388 49.713Z" fill="#C7CEFE"/>
<path d="M125.744 49.713C125.311 49.7094 124.886 49.8354 124.525 50.0751C124.163 50.3147 123.88 50.6573 123.711 51.0592C123.543 51.4612 123.497 51.9044 123.579 52.3326C123.662 52.7608 123.868 53.1548 124.174 53.4646C124.479 53.7743 124.868 53.9858 125.293 54.0722C125.717 54.1586 126.158 54.1161 126.558 53.9501C126.959 53.784 127.301 53.5018 127.543 53.1394C127.784 52.777 127.912 52.3507 127.912 51.9145C127.912 51.3338 127.684 50.7766 127.278 50.3642C126.872 49.9519 126.321 49.7178 125.744 49.713Z" fill="#C7CEFE"/>
<path d="M138.101 49.713C137.668 49.713 137.246 49.8421 136.886 50.084C136.526 50.3259 136.246 50.6698 136.081 51.072C135.915 51.4743 135.872 51.9169 135.956 52.344C136.041 52.771 136.249 53.1633 136.555 53.4712C136.86 53.7791 137.25 53.9887 137.674 54.0737C138.098 54.1586 138.538 54.115 138.937 53.9484C139.337 53.7818 139.678 53.4996 139.919 53.1376C140.159 52.7755 140.287 52.3499 140.287 51.9145C140.287 51.3306 140.057 50.7707 139.647 50.3578C139.237 49.945 138.681 49.713 138.101 49.713Z" fill="#C7CEFE"/>
<path d="M150.468 49.713C150.036 49.713 149.613 49.8421 149.253 50.084C148.894 50.3259 148.614 50.6698 148.448 51.072C148.283 51.4743 148.239 51.9169 148.324 52.344C148.408 52.771 148.616 53.1633 148.922 53.4712C149.228 53.7791 149.617 53.9887 150.042 54.0737C150.466 54.1586 150.905 54.115 151.305 53.9484C151.704 53.7818 152.046 53.4996 152.286 53.1376C152.526 52.7755 152.654 52.3499 152.654 51.9145C152.654 51.3306 152.424 50.7707 152.014 50.3578C151.604 49.945 151.048 49.713 150.468 49.713Z" fill="#C7CEFE"/>
<path d="M162.814 49.713C162.38 49.7094 161.956 49.8354 161.594 50.0751C161.232 50.3147 160.949 50.6573 160.781 51.0592C160.613 51.4612 160.567 51.9044 160.649 52.3326C160.731 52.7608 160.938 53.1548 161.243 53.4646C161.548 53.7743 161.938 53.9858 162.362 54.0722C162.787 54.1586 163.227 54.1161 163.628 53.9501C164.029 53.784 164.371 53.5018 164.612 53.1394C164.853 52.777 164.982 52.3507 164.982 51.9145C164.982 51.3338 164.754 50.7766 164.348 50.3642C163.942 49.9519 163.39 49.7178 162.814 49.713Z" fill="#C7CEFE"/>
<path d="M88.6746 62.0743C88.2422 62.0743 87.8195 62.2034 87.46 62.4453C87.1005 62.6872 86.8202 63.031 86.6547 63.4333C86.4892 63.8356 86.446 64.2782 86.5303 64.7052C86.6147 65.1323 86.8229 65.5246 87.1286 65.8324C87.4344 66.1403 87.824 66.35 88.2481 66.4349C88.6722 66.5199 89.1118 66.4763 89.5113 66.3096C89.9108 66.143 90.2523 65.8609 90.4926 65.4988C90.7328 65.1368 90.861 64.7112 90.861 64.2757C90.861 63.6919 90.6306 63.1319 90.2206 62.7191C89.8106 62.3062 89.2545 62.0743 88.6746 62.0743Z" fill="#C7CEFE"/>
<path d="M101.031 62.0743C100.599 62.0743 100.176 62.2034 99.8165 62.4453C99.4569 62.6872 99.1767 63.031 99.0112 63.4333C98.8457 63.8356 98.8025 64.2782 98.8868 64.7052C98.9712 65.1323 99.1794 65.5246 99.4852 65.8324C99.791 66.1403 100.18 66.35 100.605 66.4349C101.029 66.5199 101.468 66.4763 101.868 66.3096C102.267 66.143 102.609 65.8609 102.849 65.4988C103.089 65.1368 103.218 64.7112 103.218 64.2757C103.218 63.6919 102.987 63.1319 102.577 62.7191C102.167 62.3062 101.611 62.0743 101.031 62.0743Z" fill="#C7CEFE"/>
<path d="M113.388 62.0743C112.955 62.0743 112.532 62.2034 112.173 62.4453C111.813 62.6872 111.533 63.031 111.368 63.4333C111.202 63.8356 111.159 64.2782 111.243 64.7052C111.328 65.1323 111.536 65.5246 111.842 65.8324C112.147 66.1403 112.537 66.35 112.961 66.4349C113.385 66.5199 113.825 66.4763 114.224 66.3096C114.624 66.143 114.965 65.8609 115.205 65.4988C115.446 65.1368 115.574 64.7112 115.574 64.2757C115.574 63.6919 115.344 63.1319 114.934 62.7191C114.524 62.3062 113.967 62.0743 113.388 62.0743Z" fill="#C7CEFE"/>
<path d="M125.744 62.0743C125.311 62.0707 124.886 62.1967 124.525 62.4364C124.163 62.6761 123.88 63.0186 123.711 63.4205C123.543 63.8225 123.497 64.2657 123.579 64.6939C123.662 65.1222 123.868 65.5161 124.174 65.8259C124.479 66.1356 124.868 66.3471 125.293 66.4335C125.717 66.52 126.158 66.4774 126.558 66.3114C126.959 66.1453 127.301 65.8632 127.543 65.5007C127.784 65.1383 127.912 64.712 127.912 64.2758C127.912 63.6951 127.684 63.1379 127.278 62.7256C126.872 62.3132 126.321 62.0791 125.744 62.0743Z" fill="#C7CEFE"/>
<path d="M138.101 62.0743C137.668 62.0743 137.246 62.2034 136.886 62.4453C136.526 62.6872 136.246 63.031 136.081 63.4333C135.915 63.8356 135.872 64.2782 135.956 64.7052C136.041 65.1323 136.249 65.5246 136.555 65.8324C136.86 66.1403 137.25 66.35 137.674 66.4349C138.098 66.5199 138.538 66.4763 138.937 66.3096C139.337 66.143 139.678 65.8609 139.919 65.4988C140.159 65.1368 140.287 64.7112 140.287 64.2757C140.287 63.6919 140.057 63.1319 139.647 62.7191C139.237 62.3062 138.681 62.0743 138.101 62.0743Z" fill="#C7CEFE"/>
<path d="M150.468 62.0743C150.036 62.0743 149.613 62.2034 149.253 62.4453C148.894 62.6872 148.614 63.031 148.448 63.4333C148.283 63.8356 148.239 64.2782 148.324 64.7052C148.408 65.1323 148.616 65.5246 148.922 65.8324C149.228 66.1403 149.617 66.35 150.042 66.4349C150.466 66.5199 150.905 66.4763 151.305 66.3096C151.704 66.143 152.046 65.8609 152.286 65.4988C152.526 65.1368 152.654 64.7112 152.654 64.2757C152.654 63.6919 152.424 63.1319 152.014 62.7191C151.604 62.3062 151.048 62.0743 150.468 62.0743Z" fill="#C7CEFE"/>
<path d="M162.814 62.0743C162.38 62.0707 161.956 62.1967 161.594 62.4364C161.232 62.6761 160.949 63.0186 160.781 63.4205C160.613 63.8225 160.567 64.2657 160.649 64.6939C160.731 65.1222 160.938 65.5161 161.243 65.8259C161.548 66.1356 161.938 66.3471 162.362 66.4335C162.787 66.52 163.227 66.4774 163.628 66.3114C164.029 66.1453 164.371 65.8632 164.612 65.5007C164.853 65.1383 164.982 64.712 164.982 64.2758C164.982 63.6951 164.754 63.1379 164.348 62.7256C163.942 62.3132 163.39 62.0791 162.814 62.0743Z" fill="#C7CEFE"/>
<path d="M88.6746 74.597C88.2422 74.597 87.8195 74.7262 87.46 74.9681C87.1005 75.21 86.8202 75.5538 86.6547 75.9561C86.4892 76.3583 86.446 76.801 86.5303 77.228C86.6147 77.6551 86.8229 78.0473 87.1286 78.3552C87.4344 78.6631 87.824 78.8728 88.2481 78.9577C88.6722 79.0426 89.1118 78.999 89.5113 78.8324C89.9108 78.6658 90.2523 78.3836 90.4926 78.0216C90.7328 77.6596 90.861 77.2339 90.861 76.7985C90.861 76.2147 90.6306 75.6547 90.2206 75.2419C89.8106 74.829 89.2545 74.597 88.6746 74.597Z" fill="#C7CEFE"/>
<path d="M101.031 74.597C100.599 74.597 100.176 74.7262 99.8165 74.9681C99.4569 75.21 99.1767 75.5538 99.0112 75.9561C98.8457 76.3583 98.8025 76.801 98.8868 77.228C98.9712 77.6551 99.1794 78.0473 99.4852 78.3552C99.791 78.6631 100.18 78.8728 100.605 78.9577C101.029 79.0426 101.468 78.999 101.868 78.8324C102.267 78.6658 102.609 78.3836 102.849 78.0216C103.089 77.6596 103.218 77.2339 103.218 76.7985C103.218 76.2147 102.987 75.6547 102.577 75.2419C102.167 74.829 101.611 74.597 101.031 74.597Z" fill="#C7CEFE"/>
<path d="M113.388 74.597C112.955 74.597 112.532 74.7262 112.173 74.9681C111.813 75.21 111.533 75.5538 111.368 75.9561C111.202 76.3583 111.159 76.801 111.243 77.228C111.328 77.6551 111.536 78.0473 111.842 78.3552C112.147 78.6631 112.537 78.8728 112.961 78.9577C113.385 79.0426 113.825 78.999 114.224 78.8324C114.624 78.6658 114.965 78.3836 115.205 78.0216C115.446 77.6596 115.574 77.2339 115.574 76.7985C115.574 76.2147 115.344 75.6547 114.934 75.2419C114.524 74.829 113.967 74.597 113.388 74.597Z" fill="#C7CEFE"/>
<path d="M125.744 74.597C125.311 74.5934 124.886 74.7194 124.525 74.9591C124.163 75.1988 123.88 75.5413 123.711 75.9433C123.543 76.3452 123.497 76.7884 123.579 77.2166C123.662 77.6449 123.868 78.0389 124.174 78.3486C124.479 78.6583 124.868 78.8698 125.293 78.9563C125.717 79.0427 126.158 79.0002 126.558 78.8341C126.959 78.668 127.301 78.3859 127.543 78.0235C127.784 77.661 127.912 77.2347 127.912 76.7985C127.912 76.2178 127.684 75.6606 127.278 75.2483C126.872 74.836 126.321 74.6019 125.744 74.597Z" fill="#C7CEFE"/>
<path d="M138.101 74.597C137.668 74.597 137.246 74.7262 136.886 74.9681C136.526 75.21 136.246 75.5538 136.081 75.9561C135.915 76.3583 135.872 76.801 135.956 77.228C136.041 77.6551 136.249 78.0473 136.555 78.3552C136.86 78.6631 137.25 78.8728 137.674 78.9577C138.098 79.0426 138.538 78.999 138.937 78.8324C139.337 78.6658 139.678 78.3836 139.919 78.0216C140.159 77.6596 140.287 77.2339 140.287 76.7985C140.287 76.2147 140.057 75.6547 139.647 75.2419C139.237 74.829 138.681 74.597 138.101 74.597Z" fill="#C7CEFE"/>
<path d="M150.468 74.597C150.036 74.597 149.613 74.7262 149.253 74.9681C148.894 75.21 148.614 75.5538 148.448 75.9561C148.283 76.3583 148.239 76.801 148.324 77.228C148.408 77.6551 148.616 78.0473 148.922 78.3552C149.228 78.6631 149.617 78.8728 150.042 78.9577C150.466 79.0426 150.905 78.999 151.305 78.8324C151.704 78.6658 152.046 78.3836 152.286 78.0216C152.526 77.6596 152.654 77.2339 152.654 76.7985C152.654 76.2147 152.424 75.6547 152.014 75.2419C151.604 74.829 151.048 74.597 150.468 74.597Z" fill="#C7CEFE"/>
<path d="M162.814 74.597C162.38 74.5934 161.956 74.7194 161.594 74.9591C161.232 75.1988 160.949 75.5413 160.781 75.9433C160.613 76.3452 160.567 76.7884 160.649 77.2166C160.731 77.6449 160.938 78.0389 161.243 78.3486C161.548 78.6583 161.938 78.8698 162.362 78.9563C162.787 79.0427 163.227 79.0002 163.628 78.8341C164.029 78.668 164.371 78.3859 164.612 78.0235C164.853 77.661 164.982 77.2347 164.982 76.7985C164.982 76.2178 164.754 75.6606 164.348 75.2483C163.942 74.836 163.39 74.6019 162.814 74.597Z" fill="#C7CEFE"/>
</svg>
