<svg width="40" height="40" viewBox="0 0 40 40" fill="none" xmlns="http://www.w3.org/2000/svg">
<path d="M7.92188 28.894C9.29488 26.131 10.0072 23.0868 10.0027 20.0014C10.0013 18.502 10.3376 17.0216 10.9868 15.6701C11.636 14.3186 12.5814 13.1307 13.7526 12.1947" stroke="#FFB526" stroke-width="2" stroke-linecap="round" stroke-linejoin="round"/>
<path d="M20.0001 20.0013C20.008 25.084 18.7186 30.0845 16.2539 34.5295" stroke="#FFB526" stroke-width="2" stroke-linecap="round" stroke-linejoin="round"/>
<path d="M15 20.0013C15 18.6753 15.5268 17.4035 16.4645 16.4658C17.4021 15.5281 18.6739 15.0013 20 15.0013C21.3261 15.0013 22.5979 15.5281 23.5355 16.4658C24.4732 17.4035 25 18.6753 25 20.0013C25.0073 25.155 23.872 30.2463 21.6757 34.9086" stroke="#FFB526" stroke-width="2" stroke-linecap="round" stroke-linejoin="round"/>
<path d="M34.1479 28.7513C34.7148 25.8692 34.9995 22.9387 34.9981 20.0013C34.9981 16.0231 33.4177 12.2078 30.6047 9.39474C27.7916 6.5817 23.9763 5.00134 19.9981 5.00134C16.0198 5.00134 12.2045 6.5817 9.39147 9.39474C6.57843 12.2078 4.99807 16.0231 4.99807 20.0013C4.99994 21.7044 4.71129 23.3954 4.14453 25.0014" stroke="#FFB526" stroke-width="2" stroke-linecap="round" stroke-linejoin="round"/>
<path d="M14.5023 25.0013C13.9687 27.6297 13.0128 30.1544 11.6719 32.4771" stroke="#FFB526" stroke-width="2" stroke-linecap="round" stroke-linejoin="round"/>
<path d="M18.75 10.0787C20.1575 9.90268 21.5863 10.0278 22.9418 10.4459C24.2972 10.864 25.5483 11.5654 26.6121 12.5037C27.6759 13.442 28.5281 14.5957 29.1121 15.8883C29.6962 17.1809 29.9989 18.5829 30 20.0013C30.0004 21.6728 29.897 23.3426 29.6905 25.0013" stroke="#FFB526" stroke-width="2" stroke-linecap="round" stroke-linejoin="round"/>
<path d="M28.7392 30.0013C28.5012 30.9262 28.2314 31.8376 27.9297 32.7357" stroke="#FFB526" stroke-width="2" stroke-linecap="round" stroke-linejoin="round"/>
</svg>
