<svg width="120" height="120" viewBox="0 0 120 120" fill="none" xmlns="http://www.w3.org/2000/svg">
<path opacity="0.2" d="M31.875 45C39.1237 45 45 39.1237 45 31.875C45 24.6263 39.1237 18.75 31.875 18.75C24.6263 18.75 18.75 24.6263 18.75 31.875C18.75 39.1237 24.6263 45 31.875 45Z" fill="#2BC3F7"/>
<path d="M31.875 101.25C39.1237 101.25 45 95.3737 45 88.125C45 80.8763 39.1237 75 31.875 75C24.6263 75 18.75 80.8763 18.75 88.125C18.75 95.3737 24.6263 101.25 31.875 101.25Z" stroke="#2BC3F7" stroke-width="4" stroke-linecap="round" stroke-linejoin="round"/>
<path d="M31.875 45C39.1237 45 45 39.1237 45 31.875C45 24.6263 39.1237 18.75 31.875 18.75C24.6263 18.75 18.75 24.6263 18.75 31.875C18.75 39.1237 24.6263 45 31.875 45Z" stroke="#2BC3F7" stroke-width="4" stroke-linecap="round" stroke-linejoin="round"/>
<path d="M88.125 78.75C95.3737 78.75 101.25 72.8737 101.25 65.625C101.25 58.3763 95.3737 52.5 88.125 52.5C80.8763 52.5 75 58.3763 75 65.625C75 72.8737 80.8763 78.75 88.125 78.75Z" stroke="#2BC3F7" stroke-width="4" stroke-linecap="round" stroke-linejoin="round"/>
<path d="M75.0011 67.5H61.1634C57.865 67.5 54.6069 66.7748 51.6199 65.3758C48.6329 63.9767 45.9901 61.9381 43.8785 59.4041L31.875 45V75" stroke="#2BC3F7" stroke-width="4" stroke-linecap="round" stroke-linejoin="round"/>
</svg>
