<svg width="16" height="16" viewBox="0 0 16 16" fill="none" xmlns="http://www.w3.org/2000/svg">
<path d="M10.5145 3.96353L13.1062 1.84176C11.7207 0.691443 9.94081 0 7.99965 0C4.90766 0 2.22538 1.75386 0.893894 4.32091C0.321998 5.42245 0 6.67373 0 8.00033C0 9.37221 0.345075 10.6632 0.953441 11.7915L0.954379 11.7915C2.3057 14.2973 4.95448 16 8.00105 16C9.89693 16 11.6386 15.3407 13.0096 14.2387C14.4188 13.1055 15.4357 11.504 15.8251 9.67055C15.9398 9.13164 16 8.57295 16 8.0002C16 7.48941 15.9521 6.98963 15.8602 6.50568H8.17559V9.67055H12.4536C12.0685 10.6982 11.3375 11.5567 10.402 12.1053C9.69769 12.5185 8.87705 12.7556 8.00105 12.7556C5.96185 12.7556 4.22244 11.4721 3.54682 9.66898C3.35166 9.14989 3.24452 8.58758 3.24446 8.00033C3.24446 7.45923 3.33503 6.93923 3.50119 6.45482L3.5008 6.45393C4.14275 4.58652 5.91453 3.2444 7.99965 3.2444C8.92318 3.2444 9.78522 3.50771 10.5145 3.96353Z" fill="#5B5E6F"/>
</svg>
