<svg width="40" height="40" viewBox="0 0 40 40" fill="none" xmlns="http://www.w3.org/2000/svg">
<path opacity="0.2" d="M31.25 23.8846L25.5004 29.6342C25.3478 29.7868 25.1583 29.8973 24.9502 29.9549C24.7422 30.0126 24.5228 30.0153 24.3134 29.963L15.2576 27.699C15.0878 27.6566 14.9287 27.5789 14.7908 27.471L6.25 20.7925L11.3397 11.2172L19.3585 8.87943C19.6449 8.79592 19.9518 8.81762 20.2237 8.94063L25.625 11.3846H22.3928C22.2286 11.3846 22.0661 11.417 21.9144 11.4798C21.7628 11.5426 21.625 11.6347 21.5089 11.7507L15.3941 17.8655C15.2675 17.9921 15.1695 18.1445 15.1069 18.3123C15.0443 18.4801 15.0185 18.6594 15.0312 18.838C15.0438 19.0166 15.0948 19.1905 15.1805 19.3477C15.2662 19.5049 15.3847 19.6419 15.528 19.7494L16.375 20.3846C17.2405 21.0337 18.2931 21.3846 19.375 21.3846C20.4569 21.3846 21.5095 21.0337 22.375 20.3846L24.375 18.8846L31.25 23.8846Z" fill="#6373FC"/>
<path d="M37.6121 19.0289L33.75 20.9599L28.75 11.3846L32.6515 9.43391C32.9446 9.28735 33.2835 9.26176 33.5953 9.36266C33.9071 9.46355 34.1668 9.68286 34.3185 9.97335L38.1611 17.3323C38.238 17.4794 38.2847 17.6404 38.2987 17.8058C38.3126 17.9712 38.2935 18.1378 38.2424 18.2957C38.1913 18.4536 38.1092 18.5998 38.001 18.7257C37.8928 18.8516 37.7606 18.9546 37.6121 19.0289V19.0289Z" stroke="#6373FC" stroke-width="2.5" stroke-linecap="round" stroke-linejoin="round"/>
<path d="M6.25233 20.7925L2.3902 18.8614C2.24173 18.7872 2.10952 18.6841 2.00131 18.5582C1.8931 18.4323 1.81104 18.2862 1.75994 18.1282C1.70883 17.9703 1.68969 17.8037 1.70364 17.6383C1.71759 17.4729 1.76435 17.3119 1.84119 17.1648L5.68383 9.80588C5.83552 9.51538 6.09522 9.29608 6.40702 9.19518C6.71881 9.09428 7.05776 9.11987 7.35088 9.26643L11.2523 11.2172L6.25233 20.7925Z" stroke="#6373FC" stroke-width="2.5" stroke-linecap="round" stroke-linejoin="round"/>
<path d="M33.75 20.9599L31.25 23.8846L25.5004 29.6342C25.3478 29.7868 25.1583 29.8973 24.9502 29.9549C24.7422 30.0126 24.5228 30.0153 24.3134 29.963L15.2576 27.699C15.0878 27.6566 14.9287 27.5789 14.7908 27.4711L6.25 20.7925" stroke="#6373FC" stroke-width="2.5" stroke-linecap="round" stroke-linejoin="round"/>
<path d="M31.2532 23.8846L24.3782 18.8846L22.3782 20.3846C21.5128 21.0338 20.4601 21.3846 19.3782 21.3846C18.2964 21.3846 17.2437 21.0338 16.3782 20.3846L15.5312 19.7494C15.388 19.6419 15.2695 19.505 15.1837 19.3477C15.098 19.1905 15.0471 19.0167 15.0344 18.838C15.0217 18.6594 15.0475 18.4801 15.1102 18.3123C15.1728 18.1445 15.2707 17.9922 15.3974 17.8655L21.5121 11.7508C21.6282 11.6347 21.766 11.5426 21.9177 11.4798C22.0693 11.417 22.2319 11.3846 22.396 11.3846H28.7532" stroke="#6373FC" stroke-width="2.5" stroke-linecap="round" stroke-linejoin="round"/>
<path d="M11.3359 11.2172L19.3547 8.87943C19.6411 8.79592 19.948 8.81762 20.2198 8.94063L25.6212 11.3846" stroke="#6373FC" stroke-width="2.5" stroke-linecap="round" stroke-linejoin="round"/>
<path d="M17.5 33.2596L12.7907 32.0823C12.5996 32.0345 12.4225 31.9423 12.2738 31.813L8.75 28.75" stroke="#6373FC" stroke-width="2.5" stroke-linecap="round" stroke-linejoin="round"/>
</svg>
