<svg width="40" height="40" viewBox="0 0 40 40" fill="none" xmlns="http://www.w3.org/2000/svg">
<path d="M14.5572 19.1926C13.5936 16.7891 13.4894 14.1266 14.2623 11.6552C15.0351 9.18374 16.6376 7.05495 18.7988 5.62863C20.96 4.20231 23.5474 3.56595 26.1237 3.8271C28.6999 4.08826 31.107 5.23093 32.938 7.06194C34.769 8.89296 35.9117 11.3 36.1728 13.8763C36.434 16.4525 35.7976 19.0399 34.3713 21.2011C32.945 23.3624 30.8162 24.9648 28.3448 25.7377C25.8733 26.5105 23.2108 26.4063 20.8074 25.4427L20.8075 25.4425L18.75 27.4999H15V31.2499H11.25V34.9999H5V28.7499L14.5575 19.1924L14.5572 19.1926Z" stroke="#FD71AF" stroke-width="2" stroke-linecap="round" stroke-linejoin="round"/>
<path opacity="0.5" d="M28.125 12.5C28.4702 12.5 28.75 12.2202 28.75 11.875C28.75 11.5298 28.4702 11.25 28.125 11.25C27.7798 11.25 27.5 11.5298 27.5 11.875C27.5 12.2202 27.7798 12.5 28.125 12.5Z" stroke="#FD71AF" stroke-width="2" stroke-linecap="round" stroke-linejoin="round"/>
<path d="M28.125 13.75C29.1605 13.75 30 12.9105 30 11.875C30 10.8395 29.1605 10 28.125 10C27.0895 10 26.25 10.8395 26.25 11.875C26.25 12.9105 27.0895 13.75 28.125 13.75Z" fill="#FD71AF"/>
</svg>
