<svg width="100" height="100" viewBox="0 0 100 100" fill="none" xmlns="http://www.w3.org/2000/svg">
<path d="M90.625 25H9.375C7.64911 25 6.25 26.3991 6.25 28.125V71.875C6.25 73.6009 7.64911 75 9.375 75H90.625C92.3509 75 93.75 73.6009 93.75 71.875V28.125C93.75 26.3991 92.3509 25 90.625 25Z" stroke="#2BC3F7" stroke-width="4" stroke-linecap="round" stroke-linejoin="round"/>
<path d="M50 62.5C56.9036 62.5 62.5 56.9036 62.5 50C62.5 43.0964 56.9036 37.5 50 37.5C43.0964 37.5 37.5 43.0964 37.5 50C37.5 56.9036 43.0964 62.5 50 62.5Z" stroke="#2BC3F7" stroke-width="4" stroke-linecap="round" stroke-linejoin="round"/>
<path d="M68.75 25L93.75 46.875" stroke="#2BC3F7" stroke-width="4" stroke-linecap="round" stroke-linejoin="round"/>
<path d="M68.75 75L93.75 53.125" stroke="#2BC3F7" stroke-width="4" stroke-linecap="round" stroke-linejoin="round"/>
<path d="M31.25 25L6.25 46.875" stroke="#2BC3F7" stroke-width="4" stroke-linecap="round" stroke-linejoin="round"/>
<path d="M31.25 75L6.25 53.125" stroke="#2BC3F7" stroke-width="4" stroke-linecap="round" stroke-linejoin="round"/>
</svg>
