<svg width="40" height="41" viewBox="0 0 40 41" fill="none" xmlns="http://www.w3.org/2000/svg">
<path d="M15 15.4678H25" stroke="#FD71AF" stroke-width="2" stroke-linecap="round" stroke-linejoin="round"/>
<path d="M15 20.4678H25" stroke="#FD71AF" stroke-width="2" stroke-linecap="round" stroke-linejoin="round"/>
<path d="M15 25.4678H20" stroke="#FD71AF" stroke-width="2" stroke-linecap="round" stroke-linejoin="round"/>
<path d="M24.4822 34.2178H7.5C7.16848 34.2178 6.85054 34.0861 6.61612 33.8517C6.3817 33.6172 6.25 33.2993 6.25 32.9678V7.96777C6.25 7.63625 6.3817 7.31831 6.61612 7.08389C6.85054 6.84947 7.16848 6.71777 7.5 6.71777H32.5C32.8315 6.71777 33.1495 6.84947 33.3839 7.08389C33.6183 7.31831 33.75 7.63625 33.75 7.96777V24.95C33.75 25.1142 33.7177 25.2767 33.6548 25.4284C33.592 25.58 33.5 25.7178 33.3839 25.8339L25.3661 33.8517C25.25 33.9677 25.1122 34.0598 24.9606 34.1226C24.8089 34.1854 24.6464 34.2178 24.4822 34.2178V34.2178Z" stroke="#FD71AF" stroke-width="2" stroke-linecap="round" stroke-linejoin="round"/>
<path d="M33.6369 25.4668H25V34.1043" stroke="#FD71AF" stroke-width="2" stroke-linecap="round" stroke-linejoin="round"/>
</svg>
