<svg width="40" height="41" viewBox="0 0 40 41" fill="none" xmlns="http://www.w3.org/2000/svg">
<path d="M24.9092 6.71777C27.0282 7.28767 28.9603 8.40437 30.512 9.95601C32.0636 11.5076 33.1803 13.4398 33.7502 15.5588" stroke="#9747FF" stroke-width="2" stroke-linecap="round" stroke-linejoin="round"/>
<path d="M23.6143 11.5488C24.8857 11.8908 26.045 12.5608 26.9759 13.4918C27.9069 14.4228 28.5769 15.582 28.9189 16.8535" stroke="#9747FF" stroke-width="2" stroke-linecap="round" stroke-linejoin="round"/>
<path d="M14.4494 19.9704C15.746 22.6213 17.8948 24.7603 20.5515 26.0448C20.7459 26.1369 20.9609 26.1768 21.1754 26.1606C21.3899 26.1444 21.5964 26.0726 21.7747 25.9522L25.6866 23.3438C25.8596 23.2284 26.0586 23.158 26.2657 23.139C26.4728 23.12 26.6813 23.1529 26.8724 23.2348L34.1907 26.3712C34.4393 26.4768 34.6469 26.6604 34.7821 26.8942C34.9173 27.128 34.9729 27.3994 34.9405 27.6676C34.7092 29.4776 33.826 31.1412 32.4564 32.347C31.0869 33.5527 29.3247 34.218 27.5 34.218C21.8641 34.218 16.4591 31.9792 12.474 27.9941C8.48883 24.0089 6.25 18.6039 6.25 12.968C6.2501 11.1433 6.9153 9.38119 8.12106 8.01161C9.32683 6.64202 10.9905 5.75889 12.8005 5.52758C13.0686 5.49513 13.34 5.5507 13.5739 5.68593C13.8077 5.82115 13.9912 6.0287 14.0968 6.2773L17.236 13.602C17.3172 13.7914 17.3502 13.998 17.3323 14.2034C17.3143 14.4087 17.2458 14.6064 17.1329 14.7789L14.5335 18.7507C14.4152 18.9294 14.3453 19.1357 14.3305 19.3495C14.3158 19.5633 14.3567 19.7772 14.4494 19.9704V19.9704Z" stroke="#9747FF" stroke-width="2" stroke-linecap="round" stroke-linejoin="round"/>
</svg>
