<svg width="100" height="100" viewBox="0 0 100 100" fill="none" xmlns="http://www.w3.org/2000/svg">
<path d="M36.7416 72.0966C32.3222 85.3549 14.6445 85.3549 14.6445 85.3549C14.6445 85.3549 14.6445 67.6772 27.9028 63.2578" stroke="#929EFF" stroke-width="4" stroke-linecap="round" stroke-linejoin="round"/>
<path d="M76.5169 41.1606L50.0004 67.6771L32.3228 49.9995L58.8393 23.483C68.8799 13.4423 78.9206 13.5402 83.2027 14.1791C83.862 14.2774 84.4723 14.5849 84.9437 15.0562C85.415 15.5276 85.7225 16.1379 85.8208 16.7972C86.4597 21.0793 86.5576 31.1199 76.5169 41.1606Z" stroke="#929EFF" stroke-width="4" stroke-linecap="round" stroke-linejoin="round"/>
<path d="M72.0971 45.5806V70.8027C72.0971 71.213 72.0163 71.6194 71.8592 71.9985C71.7022 72.3777 71.472 72.7222 71.1818 73.0124L58.5483 85.6459C58.1483 86.0458 57.6473 86.3297 57.0987 86.4673C56.5501 86.6049 55.9744 86.591 55.433 86.4271C54.8917 86.2632 54.4049 85.9554 54.0248 85.5366C53.6446 85.1178 53.3852 84.6037 53.2743 84.049L50 67.6777" stroke="#929EFF" stroke-width="4" stroke-linecap="round" stroke-linejoin="round"/>
<path d="M54.4198 27.9019H29.1977C28.7873 27.9019 28.381 27.9827 28.0018 28.1397C27.6227 28.2968 27.2782 28.527 26.988 28.8171L14.3545 41.4506C13.9545 41.8506 13.6706 42.3516 13.5331 42.9003C13.3955 43.4489 13.4094 44.0246 13.5733 44.5659C13.7372 45.1073 14.045 45.594 14.4638 45.9742C14.8826 46.3544 15.3967 46.6137 15.9513 46.7247L32.3227 49.9989" stroke="#929EFF" stroke-width="4" stroke-linecap="round" stroke-linejoin="round"/>
</svg>
