<svg width="40" height="40" viewBox="0 0 40 40" fill="none" xmlns="http://www.w3.org/2000/svg">
<path opacity="0.2" d="M25 13.75H7.5C6.80964 13.75 6.25 14.3096 6.25 15V32.5C6.25 33.1904 6.80964 33.75 7.5 33.75H25C25.6904 33.75 26.25 33.1904 26.25 32.5V15C26.25 14.3096 25.6904 13.75 25 13.75Z" fill="#FFB526"/>
<path d="M8.75 33.75H7.5C7.16848 33.75 6.85054 33.6183 6.61612 33.3839C6.3817 33.1495 6.25 32.8315 6.25 32.5V31.25" stroke="#FFB526" stroke-width="2.5" stroke-linecap="round" stroke-linejoin="round"/>
<path d="M17.5 13.75H13.75" stroke="#FFB526" stroke-width="2.5" stroke-linecap="round" stroke-linejoin="round"/>
<path d="M17.5 33.75H15" stroke="#FFB526" stroke-width="2.5" stroke-linecap="round" stroke-linejoin="round"/>
<path d="M26.25 26.25V22.5" stroke="#FFB526" stroke-width="2.5" stroke-linecap="round" stroke-linejoin="round"/>
<path d="M6.25 25V22.5" stroke="#FFB526" stroke-width="2.5" stroke-linecap="round" stroke-linejoin="round"/>
<path d="M23.75 33.75H25C25.3315 33.75 25.6495 33.6183 25.8839 33.3839C26.1183 33.1495 26.25 32.8315 26.25 32.5V31.25" stroke="#FFB526" stroke-width="2.5" stroke-linecap="round" stroke-linejoin="round"/>
<path d="M23.75 13.75H25C25.3315 13.75 25.6495 13.8817 25.8839 14.1161C26.1183 14.3505 26.25 14.6685 26.25 15V16.25" stroke="#FFB526" stroke-width="2.5" stroke-linecap="round" stroke-linejoin="round"/>
<path d="M8.75 13.75H7.5C7.16848 13.75 6.85054 13.8817 6.61612 14.1161C6.3817 14.3505 6.25 14.6685 6.25 15V16.25" stroke="#FFB526" stroke-width="2.5" stroke-linecap="round" stroke-linejoin="round"/>
<path d="M26.25 26.25H32.5C32.8315 26.25 33.1495 26.1183 33.3839 25.8839C33.6183 25.6495 33.75 25.3315 33.75 25V7.5C33.75 7.16848 33.6183 6.85054 33.3839 6.61612C33.1495 6.3817 32.8315 6.25 32.5 6.25H15C14.6685 6.25 14.3505 6.3817 14.1161 6.61612C13.8817 6.85054 13.75 7.16848 13.75 7.5V13.75" stroke="#FFB526" stroke-width="2.5" stroke-linecap="round" stroke-linejoin="round"/>
</svg>
