<svg width="369" height="43" viewBox="0 0 369 43" fill="none" xmlns="http://www.w3.org/2000/svg">
<rect width="369" height="42.6882" rx="3.61765" fill="#E9EDFC"/>
<path d="M347.294 28.2177C350.89 28.2177 353.806 25.3022 353.806 21.7059C353.806 18.1095 350.89 15.1941 347.294 15.1941C343.698 15.1941 340.782 18.1095 340.782 21.7059C340.782 25.3022 343.698 28.2177 347.294 28.2177Z" stroke="#7F7F7F" stroke-width="1.08529" stroke-miterlimit="10"/>
<path d="M344.581 21.7059H350.007" stroke="#7F7F7F" stroke-width="1.08529" stroke-linecap="round" stroke-linejoin="round"/>
<path d="M42.6034 26.3298C44.5366 26.3298 45.7123 25.3858 45.7123 23.8992V23.8935C45.7123 22.633 44.9888 21.949 43.3043 21.5929L42.4112 21.4064C41.3938 21.1859 40.9303 20.8129 40.9303 20.2024V20.1967C40.9303 19.4845 41.5746 19.004 42.5865 18.9984C43.553 18.9984 44.2087 19.4563 44.3218 20.2137L44.3274 20.2928H45.5597L45.5541 20.1967C45.4693 18.8288 44.3048 17.9018 42.6034 17.9018C40.8794 17.9018 39.6528 18.8571 39.6471 20.2476V20.2533C39.6471 21.4629 40.4215 22.1978 42.0212 22.5369L42.9087 22.7234C43.9883 22.9609 44.4348 23.317 44.4348 23.9727V23.9783C44.4348 24.7414 43.7452 25.2332 42.6543 25.2332C41.5633 25.2332 40.8115 24.764 40.6985 24.0122L40.6872 23.9387H39.4549L39.4606 24.0235C39.5623 25.4593 40.772 26.3298 42.6034 26.3298ZM48.7308 26.3128C49.6352 26.3128 50.24 25.9002 50.5509 25.301H50.5792V26.1941H51.8058V20.2476H50.5792V23.7183C50.5792 24.6453 50.0252 25.2614 49.1661 25.2614C48.3182 25.2614 47.8999 24.764 47.8999 23.8653V20.2476H46.6789V24.1027C46.6789 25.4706 47.4251 26.3128 48.7308 26.3128ZM55.2426 26.3128C56.6444 26.3128 57.6619 25.5667 57.6619 24.4814V24.4757C57.6619 23.6222 57.1984 23.1417 55.9831 22.8591L55.0165 22.6387C54.3777 22.486 54.1347 22.2373 54.1347 21.8699V21.8643C54.1347 21.3894 54.5473 21.0785 55.203 21.0785C55.8926 21.0785 56.2996 21.4403 56.3731 21.9603L56.3787 21.9999H57.5262L57.5206 21.9321C57.4584 20.9203 56.6105 20.1346 55.203 20.1346C53.8351 20.1346 52.9081 20.8637 52.9081 21.9264V21.9321C52.9081 22.7969 53.4677 23.3396 54.5982 23.5996L55.5704 23.82C56.2092 23.9727 56.424 24.1931 56.424 24.5775V24.5831C56.424 25.0636 55.9831 25.3688 55.2482 25.3688C54.4964 25.3688 54.0894 25.0466 53.9764 24.4984L53.9651 24.4418H52.7554L52.7611 24.4927C52.8854 25.578 53.7559 26.3128 55.2426 26.3128ZM58.6115 28.1725H59.8325V25.1936H59.8607C60.2112 25.8832 60.8951 26.3128 61.7374 26.3128C63.2297 26.3128 64.2076 25.1201 64.2076 23.2265V23.2209C64.2076 21.3216 63.2353 20.1346 61.7204 20.1346C60.8725 20.1346 60.2168 20.5642 59.8607 21.2707H59.8325V20.2476H58.6115V28.1725ZM61.4039 25.2614C60.4825 25.2614 59.8268 24.4588 59.8268 23.2265V23.2209C59.8268 21.983 60.4769 21.1803 61.4039 21.1803C62.3592 21.1803 62.964 21.9547 62.964 23.2209V23.2265C62.964 24.4814 62.3648 25.2614 61.4039 25.2614ZM67.6952 26.3128C69.1366 26.3128 70.0523 25.4536 70.2445 24.5097L70.2558 24.4475H69.097L69.0801 24.4927C68.9274 24.9393 68.447 25.3123 67.7235 25.3123C66.7512 25.3123 66.1351 24.6566 66.1125 23.5318H70.3236V23.1191C70.3236 21.3329 69.3005 20.1346 67.633 20.1346C65.9655 20.1346 64.8915 21.3781 64.8915 23.2378V23.2435C64.8915 25.1201 65.9485 26.3128 67.6952 26.3128ZM67.6387 21.1351C68.4357 21.1351 69.0122 21.6381 69.114 22.6669H66.1294C66.2368 21.6721 66.8473 21.1351 67.6387 21.1351ZM71.2733 26.1941H72.4942V22.7291C72.4942 21.8021 73.0482 21.1803 73.9074 21.1803C74.7553 21.1803 75.1735 21.6834 75.1735 22.5765V26.1941H76.4002V22.3447C76.4002 20.9768 75.6484 20.1346 74.3426 20.1346C73.4439 20.1346 72.8334 20.5415 72.5225 21.1464H72.4942V20.2476H71.2733V26.1941ZM79.803 26.3128C80.6565 26.3128 81.3122 25.8832 81.6684 25.188H81.691V26.1941H82.9176V18.0375H81.691V21.2594H81.6684C81.3122 20.5585 80.6339 20.1346 79.7917 20.1346C78.2994 20.1346 77.3159 21.3216 77.3159 23.2152V23.2209C77.3159 25.1145 78.2881 26.3128 79.803 26.3128ZM80.1252 25.2614C79.1586 25.2614 78.5651 24.487 78.5651 23.2209V23.2152C78.5651 21.9603 79.1643 21.1803 80.1252 21.1803C81.0409 21.1803 81.6966 21.983 81.6966 23.2152V23.2209C81.6966 24.4588 81.0466 25.2614 80.1252 25.2614ZM84.8338 19.3319C85.2351 19.3319 85.546 19.0154 85.546 18.631C85.546 18.241 85.2351 17.9244 84.8338 17.9244C84.4381 17.9244 84.1216 18.241 84.1216 18.631C84.1216 19.0154 84.4381 19.3319 84.8338 19.3319ZM84.2233 26.1941H85.4443V20.2476H84.2233V26.1941ZM88.9319 26.3128C90.3337 26.3128 91.3512 25.5667 91.3512 24.4814V24.4757C91.3512 23.6222 90.8877 23.1417 89.6724 22.8591L88.7058 22.6387C88.0671 22.486 87.824 22.2373 87.824 21.8699V21.8643C87.824 21.3894 88.2366 21.0785 88.8923 21.0785C89.582 21.0785 89.9889 21.4403 90.0624 21.9603L90.0681 21.9999H91.2155L91.2099 21.9321C91.1477 20.9203 90.2998 20.1346 88.8923 20.1346C87.5244 20.1346 86.5974 20.8637 86.5974 21.9264V21.9321C86.5974 22.7969 87.157 23.3396 88.2875 23.5996L89.2598 23.82C89.8985 23.9727 90.1133 24.1931 90.1133 24.5775V24.5831C90.1133 25.0636 89.6724 25.3688 88.9376 25.3688C88.1858 25.3688 87.7788 25.0466 87.6657 24.4984L87.6544 24.4418H86.4448L86.4504 24.4927C86.5748 25.578 87.4453 26.3128 88.9319 26.3128ZM94.528 26.3128C95.9298 26.3128 96.9473 25.5667 96.9473 24.4814V24.4757C96.9473 23.6222 96.4837 23.1417 95.2684 22.8591L94.3019 22.6387C93.6631 22.486 93.42 22.2373 93.42 21.8699V21.8643C93.42 21.3894 93.8327 21.0785 94.4884 21.0785C95.178 21.0785 95.585 21.4403 95.6585 21.9603L95.6641 21.9999H96.8116L96.8059 21.9321C96.7438 20.9203 95.8959 20.1346 94.4884 20.1346C93.1205 20.1346 92.1934 20.8637 92.1934 21.9264V21.9321C92.1934 22.7969 92.753 23.3396 93.8836 23.5996L94.8558 23.82C95.4945 23.9727 95.7093 24.1931 95.7093 24.5775V24.5831C95.7093 25.0636 95.2684 25.3688 94.5336 25.3688C93.7818 25.3688 93.3748 25.0466 93.2618 24.4984L93.2505 24.4418H92.0408L92.0465 24.4927C92.1708 25.578 93.0413 26.3128 94.528 26.3128ZM100.435 26.3128C101.876 26.3128 102.792 25.4536 102.984 24.5097L102.996 24.4475H101.837L101.82 24.4927C101.667 24.9393 101.187 25.3123 100.463 25.3123C99.4909 25.3123 98.8748 24.6566 98.8522 23.5318H103.063V23.1191C103.063 21.3329 102.04 20.1346 100.373 20.1346C98.7052 20.1346 97.6312 21.3781 97.6312 23.2378V23.2435C97.6312 25.1201 98.6883 26.3128 100.435 26.3128ZM100.378 21.1351C101.175 21.1351 101.752 21.6381 101.854 22.6669H98.8691C98.9765 21.6721 99.587 21.1351 100.378 21.1351Z" fill="#4C6EF5"/>
<rect x="13.3852" y="13.3853" width="15.9176" height="15.9176" rx="3.25588" fill="#4C6EF5" stroke="#213FB3" stroke-width="0.723529"/>
</svg>
