<svg width="40" height="41" viewBox="0 0 40 41" fill="none" xmlns="http://www.w3.org/2000/svg">
<path d="M20 20.4678L35 5.46777" stroke="#929EFF" stroke-width="2" stroke-linecap="round" stroke-linejoin="round"/>
<path d="M30.6071 9.86105C27.95 7.2092 24.3943 5.65122 20.6436 5.49536C16.8928 5.33949 13.2202 6.59708 10.3522 9.01933C7.48428 11.4416 5.62993 14.852 5.15605 18.576C4.68217 22.3 5.62327 26.0662 7.79317 29.1295C9.96308 32.1928 13.2037 34.3301 16.874 35.1186C20.5442 35.9071 24.3767 35.2893 27.6133 33.3874C30.8499 31.4855 33.2547 28.4381 34.3521 24.8481C35.4494 21.2581 35.1594 17.3869 33.5393 14.0005" stroke="#929EFF" stroke-width="2" stroke-linecap="round" stroke-linejoin="round"/>
<path d="M25.3029 15.1643C24.0629 13.9244 22.4277 13.1582 20.6815 12.9988C18.9352 12.8395 17.1883 13.297 15.7444 14.2919C14.3005 15.2869 13.2509 16.7563 12.7779 18.4448C12.305 20.1334 12.4387 21.9342 13.1557 23.5344C13.8728 25.1346 15.1278 26.433 16.7028 27.2039C18.2778 27.9747 20.0731 28.1693 21.7767 27.7539C23.4803 27.3385 24.9844 26.3392 26.0277 24.9298C27.071 23.5205 27.5875 21.7901 27.4874 20.0394" stroke="#929EFF" stroke-width="2" stroke-linecap="round" stroke-linejoin="round"/>
</svg>
