<svg width="40" height="41" viewBox="0 0 40 41" fill="none" xmlns="http://www.w3.org/2000/svg">
<path d="M11.25 16.0928H5C4.30964 16.0928 3.75 16.6524 3.75 17.3428V23.5928C3.75 24.2831 4.30964 24.8428 5 24.8428H11.25C11.9404 24.8428 12.5 24.2831 12.5 23.5928V17.3428C12.5 16.6524 11.9404 16.0928 11.25 16.0928Z" stroke="#FFB526" stroke-width="2" stroke-linecap="round" stroke-linejoin="round"/>
<path d="M33.75 6.71777H26.25C25.5596 6.71777 25 7.27742 25 7.96777V15.4678C25 16.1581 25.5596 16.7178 26.25 16.7178H33.75C34.4404 16.7178 35 16.1581 35 15.4678V7.96777C35 7.27742 34.4404 6.71777 33.75 6.71777Z" stroke="#FFB526" stroke-width="2" stroke-linecap="round" stroke-linejoin="round"/>
<path d="M33.75 24.2178H26.25C25.5596 24.2178 25 24.7774 25 25.4678V32.9678C25 33.6581 25.5596 34.2178 26.25 34.2178H33.75C34.4404 34.2178 35 33.6581 35 32.9678V25.4678C35 24.7774 34.4404 24.2178 33.75 24.2178Z" stroke="#FFB526" stroke-width="2" stroke-linecap="round" stroke-linejoin="round"/>
<path d="M12.5 20.4678H18.75" stroke="#FFB526" stroke-width="2" stroke-linecap="round" stroke-linejoin="round"/>
<path d="M25 29.2178H22.5C21.5054 29.2178 20.5516 28.8227 19.8483 28.1194C19.1451 27.4162 18.75 26.4623 18.75 25.4678V15.4678C18.75 14.4732 19.1451 13.5194 19.8483 12.8161C20.5516 12.1129 21.5054 11.7178 22.5 11.7178H25" stroke="#FFB526" stroke-width="2" stroke-linecap="round" stroke-linejoin="round"/>
</svg>
