<svg width="16" height="14" viewBox="0 0 16 14" fill="none" xmlns="http://www.w3.org/2000/svg">
<path d="M14.362 3.31926C14.3717 3.46391 14.3717 3.60857 14.3717 3.75456C14.3717 8.20289 11.0697 13.3332 5.03173 13.3332V13.3305C3.2481 13.3332 1.50152 12.8092 0 11.8213C0.259354 11.8533 0.520008 11.8693 0.781312 11.8699C2.25944 11.8713 3.69531 11.3627 4.85818 10.4261C3.4535 10.3987 2.22173 9.45946 1.79143 8.08823C2.28349 8.18556 2.79049 8.16556 3.27345 8.03024C1.74203 7.71293 0.64026 6.33303 0.64026 4.73049C0.64026 4.71582 0.64026 4.70182 0.64026 4.68782C1.09657 4.94847 1.60748 5.09312 2.13008 5.10912C0.687711 4.12053 0.243104 2.15268 1.11412 0.614129C2.78074 2.7173 5.23973 3.99587 7.87942 4.1312C7.61487 2.96195 7.97627 1.73671 8.82909 0.914773C10.1512 -0.359798 12.2306 -0.29447 13.4734 1.06076C14.2086 0.912106 14.9132 0.63546 15.558 0.24349C15.3129 1.02276 14.8001 1.68471 14.115 2.10535C14.7656 2.02669 15.4013 1.84804 16 1.57539C15.5593 2.25267 15.0042 2.84263 14.362 3.31926Z" fill="#5B5E6F"/>
</svg>
