<svg width="120" height="120" viewBox="0 0 120 120" fill="none" xmlns="http://www.w3.org/2000/svg">
<path opacity="0.2" d="M25.5285 94.4715C21.2142 90.1571 24.0757 81.0992 21.8797 75.7918C19.6033 70.2899 11.25 65.8617 11.25 59.9998C11.25 54.1381 19.6033 49.71 21.8798 44.2082C24.0758 38.9007 21.2142 29.8429 25.5285 25.5285C29.8429 21.2142 38.9008 24.0757 44.2082 21.8797C49.7102 19.6033 54.1383 11.25 60.0002 11.25C65.8619 11.25 70.29 19.6033 75.7918 21.8798C81.0993 24.0758 90.1571 21.2142 94.4715 25.5285C98.7858 29.8429 95.9243 38.9008 98.1203 44.2082C100.397 49.7102 108.75 54.1383 108.75 60.0002C108.75 65.8619 100.397 70.29 98.1202 75.7918C95.9242 81.0993 98.7858 90.1571 94.4715 94.4715C90.1571 98.7858 81.0992 95.9243 75.7918 98.1203C70.2899 100.397 65.8617 108.75 59.9998 108.75C54.1381 108.75 49.71 100.397 44.2082 98.1202C38.9007 95.9242 29.8429 98.7858 25.5285 94.4715Z" fill="#8930FD"/>
<path d="M25.5285 94.4715C21.2142 90.1571 24.0757 81.0992 21.8797 75.7918C19.6033 70.2899 11.25 65.8617 11.25 59.9998C11.25 54.138 19.6033 49.71 21.8798 44.2082C24.0758 38.9007 21.2142 29.8429 25.5285 25.5285C29.8429 21.2142 38.9008 24.0757 44.2082 21.8797C49.7101 19.6033 54.1383 11.25 60.0002 11.25C65.862 11.25 70.29 19.6033 75.7918 21.8798C81.0993 24.0758 90.1571 21.2142 94.4715 25.5285C98.7858 29.8429 95.9243 38.9008 98.1203 44.2082C100.397 49.7101 108.75 54.1383 108.75 60.0002C108.75 65.862 100.397 70.29 98.1202 75.7918C95.9242 81.0993 98.7858 90.1571 94.4715 94.4715C90.1571 98.7858 81.0992 95.9243 75.7918 98.1203C70.2899 100.397 65.8617 108.75 59.9998 108.75C54.138 108.75 49.71 100.397 44.2082 98.1202C38.9007 95.9242 29.8429 98.7858 25.5285 94.4715Z" stroke="#8930FD" stroke-width="4" stroke-linecap="round" stroke-linejoin="round"/>
<path d="M80.625 48.75L53.1248 75L39.375 61.875" stroke="#8930FD" stroke-width="4" stroke-linecap="round" stroke-linejoin="round"/>
</svg>
