<svg width="15" height="15" viewBox="0 0 15 15" fill="none" xmlns="http://www.w3.org/2000/svg">
<path d="M7.49938 14.8576C6.03125 14.8576 4.59611 14.4239 3.37541 13.6115C2.15471 12.7991 1.20328 11.6444 0.641457 10.2934C0.0796308 8.94235 -0.0673666 7.45575 0.21905 6.02152C0.505466 4.5873 1.21244 3.26988 2.25056 2.23587C3.28868 1.20185 4.61132 0.497667 6.05123 0.212383C7.49114 -0.0729017 8.98366 0.0735146 10.34 0.63312C11.6964 1.19273 12.8557 2.1404 13.6714 3.35627C14.487 4.57215 14.9223 6.00163 14.9223 7.46395C14.9223 9.42486 14.1403 11.3054 12.7482 12.692C11.3561 14.0786 9.46807 14.8576 7.49938 14.8576Z" fill="#9747FF"/>
<path d="M10.4281 6.73462H8.23147V4.5466C8.23147 4.35316 8.15433 4.16766 8.01701 4.03088C7.87968 3.8941 7.69344 3.81726 7.49923 3.81726C7.30503 3.81726 7.11879 3.8941 6.98147 4.03088C6.84415 4.16766 6.767 4.35316 6.767 4.5466V6.73462H4.5703C4.47403 6.73443 4.37866 6.75317 4.28966 6.78974C4.20066 6.82631 4.11977 6.88 4.05163 6.94774C3.98349 7.01549 3.92943 7.09595 3.89254 7.18453C3.85566 7.27311 3.83667 7.36806 3.83667 7.46395C3.83667 7.55985 3.85566 7.65479 3.89254 7.74337C3.92943 7.83195 3.98349 7.91242 4.05163 7.98016C4.11977 8.0479 4.20066 8.10159 4.28966 8.13816C4.37866 8.17473 4.47403 8.19347 4.5703 8.19329H6.767V10.3813C6.767 10.5747 6.84415 10.7602 6.98147 10.897C7.11879 11.0338 7.30503 11.1106 7.49923 11.1106C7.69344 11.1106 7.87968 11.0338 8.01701 10.897C8.15433 10.7602 8.23147 10.5747 8.23147 10.3813V8.19329H10.4281C10.6223 8.19329 10.8086 8.11644 10.9459 7.97967C11.0832 7.84289 11.1604 7.65738 11.1604 7.46395C11.1604 7.27052 11.0832 7.08501 10.9459 6.94823C10.8086 6.81146 10.6223 6.73462 10.4281 6.73462Z" fill="white"/>
</svg>
