<svg width="241" height="149" viewBox="0 0 241 149" fill="none" xmlns="http://www.w3.org/2000/svg">
<g clip-path="url(#clip0_168_2683)">
<path d="M58.3725 134.306L58.6405 128.304C61.434 126.817 64.5497 126.031 67.7172 126.016C63.3578 129.566 63.9026 136.409 60.947 141.183C60.0138 142.665 58.7576 143.919 57.2718 144.851C55.7859 145.784 54.1084 146.372 52.3635 146.571L48.7154 148.796C48.2148 146.016 48.3252 143.161 49.0389 140.428C49.7526 137.695 51.0527 135.149 52.8495 132.964C53.8698 131.749 55.0396 130.666 56.3315 129.742C57.2052 132.036 58.3725 134.306 58.3725 134.306Z" fill="#F2F2F2"/>
<path d="M176.379 31.0697H59.8132C59.2388 31.0697 58.6879 31.2968 58.2816 31.7011C57.8752 32.1054 57.6465 32.6538 57.6458 33.2259V88.032C57.6464 88.6043 57.8749 89.1531 58.2813 89.5578C58.6876 89.9625 59.2385 90.1902 59.8132 90.1908H176.379C176.953 90.1896 177.503 89.9617 177.909 89.557C178.315 89.1524 178.543 88.6039 178.543 88.032V33.2259C178.543 32.6542 178.315 32.1061 177.909 31.7019C177.503 31.2976 176.953 31.0703 176.379 31.0697V31.0697Z" fill="#3F3D56"/>
<path d="M40.6644 145.94L43.7068 145.94L45.1542 134.251H40.6638L40.6644 145.94Z" fill="#FFB6B6"/>
<path d="M39.8884 144.951L40.7448 144.951L44.0881 143.596L45.8801 144.95H45.8803C46.893 144.95 47.8641 145.351 48.5802 146.064C49.2963 146.778 49.6986 147.745 49.6986 148.754V148.877L39.8886 148.878L39.8884 144.951Z" fill="#2F2E41"/>
<path d="M13.1741 142L15.8972 143.352L22.4274 133.534L18.4087 131.539L13.1741 142Z" fill="#FFB6B6"/>
<path d="M12.9226 140.77L13.6891 141.15L17.2879 141.424L18.2852 143.432L18.2854 143.432C19.1917 143.882 19.8814 144.672 20.2028 145.629C20.5243 146.585 20.4511 147.63 19.9994 148.532L19.9441 148.643L11.1641 144.284L12.9226 140.77Z" fill="#2F2E41"/>
<path d="M42.0123 92.854L22.6677 93.3567L23.0041 102.739C23.0041 102.739 22.6677 105.253 23.3405 105.923C24.0134 106.593 24.3498 106.593 24.0134 107.766C23.6769 108.939 22.8072 120.145 22.8072 120.145C22.8072 120.145 14.8676 134.128 15.2041 134.463C15.5405 134.798 15.8769 134.463 15.5405 135.301C15.2041 136.138 14.8676 135.803 15.2041 136.138C15.5021 136.459 15.7828 136.794 16.0451 137.144H21.5283C21.5283 137.144 21.8349 135.468 21.8349 135.301C21.8349 135.133 22.1713 134.128 22.1713 133.96C22.1713 133.793 31.7512 123.683 31.7512 123.683L33.7698 106.928L38.648 123.348C38.648 123.348 38.648 137.757 38.9844 138.092C39.3208 138.427 39.3208 138.26 39.1526 138.93C38.9844 139.6 38.3116 139.433 38.8162 139.935C39.3208 140.438 39.4891 139.6 39.3208 140.438L39.1526 141.276L45.6153 141.348C45.6153 141.348 46.2881 139.935 45.9517 139.433C45.6153 138.93 45.6355 139.067 46.0459 138.245C46.4563 137.422 46.6246 137.254 46.4563 137.087C46.2881 136.919 46.2881 136.028 46.2881 136.028C46.2881 136.028 43.8626 103.074 43.8626 102.572C43.8499 102.313 43.8978 102.055 44.0024 101.818V101.136L43.358 98.7182L42.0123 92.854Z" fill="#2F2E41"/>
<path d="M75.919 148.682C75.9191 148.723 75.9109 148.765 75.8949 148.804C75.8789 148.842 75.8553 148.877 75.8256 148.907C75.7959 148.937 75.7607 148.96 75.7218 148.976C75.683 148.992 75.6414 149 75.5994 149H0.319609C0.234843 149 0.153549 148.966 0.0936105 148.907C0.0336724 148.847 0 148.766 0 148.682C0 148.597 0.0336724 148.516 0.0936105 148.457C0.153549 148.397 0.234843 148.363 0.319609 148.363H75.5994C75.6414 148.363 75.683 148.371 75.7218 148.387C75.7606 148.403 75.7959 148.427 75.8256 148.456C75.8553 148.486 75.8789 148.521 75.8949 148.56C75.9109 148.598 75.9191 148.64 75.919 148.682V148.682Z" fill="#CCCCCC"/>
<path d="M59.2361 45.8994C59.4679 46.5451 59.4357 47.2557 59.1464 47.878C58.8571 48.5003 58.3338 48.9845 57.6894 49.226C57.5469 49.279 57.3999 49.3194 57.2502 49.3466L55.7606 58.4313L52.2664 55.2177L54.2166 47.0834C54.1444 46.398 54.3459 45.7118 54.7776 45.1732C55.2093 44.6345 55.8365 44.2868 56.5236 44.2051C57.1016 44.1391 57.685 44.2709 58.1779 44.5788C58.6708 44.8866 59.044 45.3523 59.2361 45.8994L59.2361 45.8994Z" fill="#FFB6B6"/>
<path d="M33.4487 66.4843C33.4487 66.4843 36.1607 62.9152 46.0018 63.013L51.5876 60.9915L52.8642 49.3358L57.3322 50.3954L56.6939 64.8061L47.1196 70.3161L34.5665 72.8592L33.4487 66.4843Z" fill="#3F3D56"/>
<path d="M32.0079 59.049C35.2337 59.049 37.8488 56.4442 37.8488 53.2311C37.8488 50.0181 35.2337 47.4133 32.0079 47.4133C28.7821 47.4133 26.167 50.0181 26.167 53.2311C26.167 56.4442 28.7821 59.049 32.0079 59.049Z" fill="#FFB6B6"/>
<path d="M22.122 97.3432C22.1116 97.3432 22.1013 97.3418 22.0913 97.339C21.9835 97.309 21.8983 97.2854 22.2875 93.9337L22.7075 91.2843L22.2974 88.945L21.6077 88.258L22.7162 87.154L23.6464 84.5222L22.0369 82.1466L20.1903 72.4313C19.8728 70.7549 20.1195 69.021 20.8921 67.4985C21.6647 65.976 22.9201 64.7499 24.4635 64.0103L26.6008 63.3884L27.3784 61.9679C27.5968 61.569 27.9183 61.2356 28.3097 61.0021C28.701 60.7687 29.1479 60.6439 29.6041 60.6405L33.5179 60.6113C33.9128 60.6083 34.303 60.6965 34.6579 60.869C35.0129 61.0414 35.3229 61.2934 35.5636 61.6051L36.9291 63.3731L42.5914 65.289L41.6526 85.4387C41.8017 85.563 41.9233 85.7168 42.0097 85.8904C42.0961 86.0639 42.1454 86.2534 42.1544 86.4469C42.1635 86.6404 42.1321 86.8337 42.0624 87.0145C41.9926 87.1953 41.8859 87.3597 41.749 87.4973C41.6901 87.5565 41.6434 87.6047 41.6145 87.6364C41.5191 87.7715 41.6982 88.78 41.9193 89.6362L42.203 90.9474C42.112 91.0122 42.0354 91.0951 41.9782 91.1908C41.9209 91.2866 41.8843 91.3931 41.8704 91.5036C41.8566 91.6142 41.866 91.7264 41.8979 91.8332C41.9298 91.94 41.9836 92.0391 42.0559 92.1241L42.4175 92.5496C42.489 93.0831 42.3451 93.6231 42.0175 94.0511C41.6899 94.4791 41.2052 94.7603 40.6697 94.8329C35.4949 95.5343 22.149 97.3432 22.122 97.3432Z" fill="#3F3D56"/>
<path d="M30.5136 58.7641C30.4887 58.7094 30.4638 58.6545 30.439 58.5994C30.4485 58.5997 30.458 58.601 30.4676 58.6013L30.5136 58.7641Z" fill="#2F2E41"/>
<path d="M26.0045 47.6779C26.2818 47.4173 26.6423 47.262 27.0229 47.2393C27.4006 47.2515 27.7836 47.5912 27.7054 47.9595C28.3991 46.736 29.5034 45.795 30.8243 45.3016C32.1452 44.8083 33.5983 44.7941 34.9287 45.2616C35.8674 45.5915 36.788 46.2515 37.0037 47.2194C37.0247 47.4736 37.1007 47.7201 37.2267 47.9421C37.3358 48.0608 37.4774 48.1451 37.634 48.1847C37.7907 48.2242 37.9555 48.2172 38.1082 48.1646L38.1175 48.1619C38.1697 48.1441 38.2262 48.1424 38.2794 48.1569C38.3327 48.1714 38.3804 48.2015 38.4163 48.2433C38.4522 48.2851 38.4747 48.3366 38.4809 48.3913C38.4871 48.446 38.4766 48.5012 38.4509 48.5499L38.1853 49.0433C38.5201 49.1177 38.8681 49.1103 39.1994 49.0218C39.2544 49.0075 39.3126 49.0104 39.3659 49.0303C39.4192 49.0501 39.465 49.0859 39.4971 49.1327C39.5292 49.1795 39.5459 49.2351 39.545 49.2917C39.5442 49.3484 39.5257 49.4034 39.4922 49.4492C39.0508 50.0508 38.4745 50.5414 37.8092 50.882C37.1439 51.2226 36.408 51.4039 35.66 51.4113C34.5987 51.4048 33.5265 51.0405 32.4937 51.2836C32.0941 51.3777 31.7207 51.5596 31.401 51.8161C31.0812 52.0726 30.8232 52.3972 30.6458 52.766C30.4684 53.1348 30.3761 53.5385 30.3757 53.9474C30.3754 54.3564 30.467 54.7602 30.6438 55.1293C30.3265 54.7836 29.7131 54.8655 29.3886 55.2044C29.2391 55.3858 29.1286 55.5959 29.064 55.8216C28.9993 56.0473 28.9819 56.2838 29.0127 56.5165C29.0992 57.2291 29.3117 57.9209 29.6402 58.5599C28.3852 58.5215 27.1723 58.1003 26.1653 57.3533C25.1583 56.6063 24.4058 55.5694 24.0093 54.3828C23.6129 53.1961 23.5916 51.9169 23.9484 50.7178C24.3052 49.5188 25.0229 48.4577 26.0045 47.6779L26.0045 47.6779Z" fill="#2F2E41"/>
<path d="M24.3976 105.687C23.8392 105.286 23.4614 104.682 23.3457 104.006C23.23 103.33 23.3857 102.636 23.7792 102.073C23.8665 101.949 23.9647 101.833 24.0725 101.726L20.1311 93.4001L24.8384 94.0755L27.8596 101.878C28.3091 102.402 28.5334 103.082 28.4842 103.769C28.4349 104.456 28.116 105.097 27.5964 105.552C27.1577 105.933 26.6021 106.154 26.0208 106.178C25.4395 106.203 24.8671 106.03 24.3976 105.687H24.3976Z" fill="#FFB6B6"/>
<path d="M23.2038 101.141L16.932 87.1009L16.8691 76.0118L18.8462 70.022C19.1144 69.2093 19.5434 68.4585 20.108 67.8138C20.6725 67.1692 21.361 66.6438 22.1329 66.2687C22.9048 65.8936 23.7443 65.6764 24.6019 65.63C25.4594 65.5836 26.3176 65.7089 27.1257 65.9985L27.1693 66.0141L27.1875 66.0565C27.2606 66.2264 28.9188 70.3117 24.0003 78.716L23.0104 84.4666L26.4837 97.6482L23.2038 101.141Z" fill="#3F3D56"/>
</g>
<defs>
<clipPath id="clip0_168_2683">
<rect width="241" height="149" fill="white"/>
</clipPath>
</defs>
</svg>
