<svg width="50" height="50" viewBox="0 0 50 50" fill="none" xmlns="http://www.w3.org/2000/svg">
<rect opacity="0.1" width="50" height="50" rx="10" fill="#1FB4DA"/>
<path d="M33.625 29.4375V20.5627C33.625 20.4298 33.5897 20.2994 33.5228 20.1847C33.4559 20.07 33.3597 19.9751 33.244 19.9097L25.369 15.4587C25.2565 15.395 25.1293 15.3616 25 15.3616C24.8707 15.3616 24.7435 15.395 24.631 15.4587L16.756 19.9097C16.6403 19.9751 16.5441 20.07 16.4772 20.1847C16.4103 20.2994 16.375 20.4298 16.375 20.5627V29.4375C16.375 29.5703 16.4103 29.7007 16.4772 29.8154C16.5441 29.9301 16.6403 30.025 16.756 30.0904L24.631 34.5415C24.7435 34.6051 24.8707 34.6385 25 34.6385C25.1293 34.6385 25.2565 34.6051 25.369 34.5415L33.244 30.0904C33.3597 30.025 33.4559 29.9301 33.5228 29.8154C33.5897 29.7007 33.625 29.5703 33.625 29.4375V29.4375Z" stroke="#1FB4DA" stroke-width="1.5" stroke-linecap="round" stroke-linejoin="round"/>
<path d="M25 28.375C26.864 28.375 28.375 26.864 28.375 25C28.375 23.136 26.864 21.625 25 21.625C23.136 21.625 21.625 23.136 21.625 25C21.625 26.864 23.136 28.375 25 28.375Z" stroke="#1FB4DA" stroke-width="1.5" stroke-linecap="round" stroke-linejoin="round"/>
</svg>
