<svg width="24" height="25" viewBox="0 0 24 25" fill="none" xmlns="http://www.w3.org/2000/svg">
<path d="M20.0303 14.9697L12.5303 7.46966C12.3897 7.32901 12.1989 7.25 12 7.25C11.8011 7.25 11.6103 7.32901 11.4697 7.46966L3.96968 14.9697C3.86479 15.0745 3.79336 15.2082 3.76441 15.3537C3.73547 15.4992 3.75032 15.65 3.80709 15.787C3.86385 15.924 3.95998 16.0412 4.08332 16.1236C4.20666 16.206 4.35167 16.25 4.5 16.25H19.5C19.6483 16.25 19.7933 16.206 19.9167 16.1236C20.04 16.0412 20.1362 15.924 20.1929 15.787C20.2497 15.65 20.2645 15.4992 20.2356 15.3537C20.2067 15.2082 20.1352 15.0745 20.0303 14.9697Z" fill="#27AE60"/>
</svg>
