<svg width="24" height="25" viewBox="0 0 24 25" fill="none" xmlns="http://www.w3.org/2000/svg">
<path d="M3.96968 10.0303L11.4697 17.5303C11.6103 17.671 11.8011 17.75 12 17.75C12.1989 17.75 12.3897 17.671 12.5303 17.5303L20.0303 10.0303C20.1352 9.92545 20.2066 9.79182 20.2356 9.64633C20.2645 9.50085 20.2497 9.35005 20.1929 9.213C20.1361 9.07595 20.04 8.95882 19.9167 8.87641C19.7933 8.794 19.6483 8.75002 19.5 8.75002L4.5 8.75002C4.35166 8.75002 4.20665 8.794 4.08331 8.87641C3.95998 8.95882 3.86385 9.07595 3.80708 9.213C3.75032 9.35005 3.73546 9.50085 3.76441 9.64633C3.79335 9.79182 3.86478 9.92545 3.96968 10.0303Z" fill="#E74C3C"/>
</svg>
