<svg width="32" height="32" viewBox="0 0 32 32" fill="none" xmlns="http://www.w3.org/2000/svg">
<path d="M16 20C18.2091 20 20 18.2091 20 16C20 13.7909 18.2091 12 16 12C13.7909 12 12 13.7909 12 16C12 18.2091 13.7909 20 16 20Z" stroke="#3498DB" stroke-width="2" stroke-linecap="round" stroke-linejoin="round"/>
<path opacity="0.3" d="M9.63605 22.3639C8.79941 21.5287 8.13566 20.5367 7.6828 19.4447C7.22993 18.3527 6.99683 17.1821 6.99683 15.9999C6.99683 14.8178 7.22993 13.6472 7.6828 12.5552C8.13566 11.4632 8.79941 10.4712 9.63605 9.63599" stroke="#3498DB" stroke-width="2" stroke-linecap="round" stroke-linejoin="round"/>
<path opacity="0.3" d="M22.364 9.63599C23.2006 10.4712 23.8643 11.4632 24.3172 12.5552C24.7701 13.6472 25.0032 14.8178 25.0032 15.9999C25.0032 17.1821 24.7701 18.3527 24.3172 19.4447C23.8643 20.5367 23.2006 21.5287 22.364 22.3639" stroke="#3498DB" stroke-width="2" stroke-linecap="round" stroke-linejoin="round"/>
<path opacity="0.3" d="M6.10052 25.8995C4.79907 24.6002 3.76658 23.0571 3.06212 21.3585C2.35766 19.6598 1.99506 17.8389 1.99506 16C1.99506 14.161 2.35766 12.3401 3.06212 10.6414C3.76658 8.94278 4.79907 7.39969 6.10052 6.10046" stroke="#3498DB" stroke-width="2" stroke-linecap="round" stroke-linejoin="round"/>
<path opacity="0.3" d="M25.8995 6.10046C27.2009 7.39969 28.2334 8.94278 28.9379 10.6414C29.6423 12.3401 30.0049 14.161 30.0049 16C30.0049 17.8389 29.6423 19.6598 28.9379 21.3585C28.2334 23.0571 27.2009 24.6002 25.8995 25.8995" stroke="#3498DB" stroke-width="2" stroke-linecap="round" stroke-linejoin="round"/>
</svg>
