<svg width="50" height="50" viewBox="0 0 50 50" fill="none" xmlns="http://www.w3.org/2000/svg">
<rect opacity="0.1" width="50" height="50" rx="10" fill="#E521FB"/>
<path d="M27.25 20.5V32.0986C27.25 32.2221 27.2805 32.3436 27.3387 32.4525C27.397 32.5614 27.4812 32.6542 27.584 32.7226L28.6145 33.4097C28.7145 33.4763 28.829 33.518 28.9485 33.5311C29.068 33.5443 29.1889 33.5285 29.301 33.4852C29.4131 33.4418 29.5131 33.3722 29.5927 33.2821C29.6722 33.192 29.729 33.0841 29.7581 32.9675L31 28" stroke="#E521FB" stroke-width="1.5" stroke-linecap="round" stroke-linejoin="round"/>
<path d="M31 28.0001C31.9946 28.0001 32.9484 27.605 33.6517 26.9018C34.3549 26.1985 34.75 25.2447 34.75 24.2501C34.75 23.2555 34.3549 22.3017 33.6517 21.5985C32.9484 20.8952 31.9946 20.5001 31 20.5001H27.25C27.25 20.5001 22.1452 20.5001 17.2327 16.38C17.1235 16.2881 16.9902 16.2292 16.8487 16.2104C16.7071 16.1916 16.5631 16.2136 16.4336 16.2738C16.3042 16.334 16.1946 16.43 16.1177 16.5503C16.0409 16.6707 16.0001 16.8105 16 16.9533V31.5469C16.0001 31.6897 16.0409 31.8295 16.1177 31.9499C16.1946 32.0703 16.3042 32.1662 16.4336 32.2264C16.5631 32.2866 16.7071 32.3086 16.8487 32.2898C16.9902 32.271 17.1235 32.2122 17.2327 32.1202C22.1452 28.0001 27.25 28.0001 27.25 28.0001H31Z" stroke="#E521FB" stroke-width="1.5" stroke-linecap="round" stroke-linejoin="round"/>
</svg>
