<svg width="14" height="14" viewBox="0 0 14 14" fill="none" xmlns="http://www.w3.org/2000/svg">
<path d="M2.97833 11.0217C2.47499 10.5183 2.80883 9.46158 2.55264 8.84237C2.28705 8.20048 1.3125 7.68386 1.3125 6.99998C1.3125 6.31611 2.28706 5.7995 2.55264 5.15762C2.80884 4.53842 2.47499 3.48167 2.97833 2.97833C3.48167 2.47499 4.53843 2.80883 5.15763 2.55264C5.79952 2.28705 6.31614 1.3125 7.00002 1.3125C7.68389 1.3125 8.2005 2.28706 8.84238 2.55264C9.46158 2.80884 10.5183 2.47499 11.0217 2.97833C11.525 3.48167 11.1912 4.53843 11.4474 5.15763C11.7129 5.79952 12.6875 6.31614 12.6875 7.00002C12.6875 7.68389 11.7129 8.2005 11.4474 8.84238C11.1912 9.46158 11.525 10.5183 11.0217 11.0217C10.5183 11.525 9.46158 11.1912 8.84237 11.4474C8.20048 11.7129 7.68386 12.6875 6.99998 12.6875C6.31611 12.6875 5.7995 11.7129 5.15762 11.4474C4.53842 11.1912 3.48167 11.525 2.97833 11.0217Z" stroke="#E74C3C" stroke-linecap="round" stroke-linejoin="round"/>
<path d="M7 4.375V7.4375" stroke="#E74C3C" stroke-linecap="round" stroke-linejoin="round"/>
<path d="M7 10.0625C7.36244 10.0625 7.65625 9.76869 7.65625 9.40625C7.65625 9.04381 7.36244 8.75 7 8.75C6.63756 8.75 6.34375 9.04381 6.34375 9.40625C6.34375 9.76869 6.63756 10.0625 7 10.0625Z" fill="#E74C3C"/>
</svg>
