<svg width="44" height="44" viewBox="0 0 44 44" fill="none" xmlns="http://www.w3.org/2000/svg">
<rect x="1" y="1" width="42" height="42" rx="9" fill="#141350" stroke="#EBEBEB" stroke-width="2"/>
<path d="M36 22.866V18.4369L34.5049 20.6116L36 22.866Z" fill="#5D5DE8"/>
<path d="M23.8428 32.8447L8 23.602L15.7983 19.0629C17.5636 18.038 19.4421 17.324 21.4338 16.921C23.4104 16.5093 25.3643 16.4261 27.2956 16.6714C29.2269 16.9166 31.0074 17.5123 32.6369 18.4584C34.2815 19.4133 35.3226 20.4558 35.7602 21.5858C36.1827 22.7072 36.0469 23.846 35.3528 25.0023C34.6437 26.1499 33.4064 27.2362 31.6411 28.2611L23.8428 32.8447ZM25.0097 27.2756L27.2504 25.9747C28.0048 25.5367 28.5178 25.0724 28.7894 24.5818C29.0761 24.0825 29.0987 23.5788 28.8573 23.0707C28.6008 22.5539 28.0651 22.0589 27.2504 21.5858C26.4507 21.1216 25.6133 20.8193 24.7381 20.6792C23.863 20.539 22.9954 20.5521 22.1354 20.7186C21.2904 20.8763 20.4908 21.1741 19.7363 21.6121L17.4957 22.913L25.0097 27.2756Z" fill="#5D5DE8"/>
<path d="M8 23.602V20.068L11.1262 21.835L8 23.602Z" fill="#5D5DE8"/>
<path d="M23.8372 29.0388L8 20.068L15.8055 15.4944C17.5702 14.4834 19.448 13.7792 21.439 13.3817C23.4148 12.9756 25.3681 12.8935 27.2987 13.1355C29.2293 13.3774 31.0091 13.965 32.6381 14.8982C34.2822 15.84 35.3229 16.8683 35.7603 17.983C36.1826 19.089 36.0469 20.2123 35.3531 21.3529C34.6442 22.4848 33.4073 23.5563 31.6426 24.5672L23.8372 29.0388ZM25.0136 23.5951L27.2535 22.312C28.0076 21.8799 28.5204 21.422 28.7919 20.9381C29.0785 20.4456 29.1011 19.9487 28.8598 19.4476C28.6034 18.9378 28.068 18.4496 27.2535 17.983C26.4541 17.525 25.617 17.2269 24.7421 17.0886C23.8673 16.9504 23.0001 16.9633 22.1403 17.1275C21.2957 17.2831 20.4963 17.5768 19.7421 18.0089L17.5023 19.292L25.0136 23.5951Z" fill="#1BE0EA"/>
</svg>
