<svg width="50" height="50" viewBox="0 0 50 50" fill="none" xmlns="http://www.w3.org/2000/svg">
<rect opacity="0.1" width="50" height="50" rx="10" fill="#4698E0"/>
<path d="M27.9453 16.75C29.2167 17.0919 30.376 17.762 31.307 18.6929C32.238 19.6239 32.908 20.7832 33.2499 22.0546" stroke="#4698E0" stroke-width="1.5" stroke-linecap="round" stroke-linejoin="round"/>
<path d="M27.1689 19.6484C27.9318 19.8536 28.6274 20.2556 29.186 20.8142C29.7445 21.3728 30.1466 22.0684 30.3517 22.8312" stroke="#4698E0" stroke-width="1.5" stroke-linecap="round" stroke-linejoin="round"/>
<path d="M21.6697 24.7014C22.4476 26.2919 23.7369 27.5753 25.3309 28.346C25.4475 28.4013 25.5765 28.4252 25.7052 28.4155C25.8339 28.4058 25.9579 28.3627 26.0648 28.2905L28.4119 26.7254C28.5157 26.6562 28.6352 26.6139 28.7594 26.6025C28.8837 26.5911 29.0088 26.6109 29.1235 26.66L33.5144 28.5419C33.6636 28.6052 33.7881 28.7154 33.8693 28.8556C33.9504 28.9959 33.9838 29.1588 33.9643 29.3197C33.8255 30.4057 33.2956 31.4039 32.4739 32.1273C31.6521 32.8508 30.5948 33.2499 29.5 33.25C26.1185 33.25 22.8755 31.9067 20.4844 29.5156C18.0933 27.1245 16.75 23.8815 16.75 20.5C16.7501 19.4051 17.1492 18.3479 17.8726 17.5261C18.5961 16.7044 19.5943 16.1745 20.6803 16.0357C20.8412 16.0162 21.004 16.0496 21.1443 16.1307C21.2846 16.2118 21.3947 16.3364 21.4581 16.4855L23.3416 20.8803C23.3903 20.994 23.4101 21.118 23.3994 21.2412C23.3886 21.3644 23.3475 21.483 23.2798 21.5865L21.7201 23.9696C21.6491 24.0768 21.6072 24.2006 21.5983 24.3288C21.5895 24.4571 21.614 24.5855 21.6697 24.7014Z" stroke="#4698E0" stroke-width="1.5" stroke-linecap="round" stroke-linejoin="round"/>
</svg>
