<svg width="50" height="50" viewBox="0 0 50 50" fill="none" xmlns="http://www.w3.org/2000/svg">
<rect opacity="0.1" width="50" height="50" rx="10" fill="#E521FB"/>
<path d="M19.711 26.5001L16.0001 29.5001V17.5001C16.0001 17.3011 16.0791 17.1104 16.2197 16.9697C16.3604 16.8291 16.5511 16.7501 16.7501 16.7501H28.7501C28.949 16.7501 29.1397 16.8291 29.2804 16.9697C29.421 17.1104 29.5001 17.3011 29.5001 17.5001V25.7501C29.5001 25.949 29.421 26.1397 29.2804 26.2804C29.1397 26.421 28.949 26.5001 28.7501 26.5001H19.711Z" stroke="#E521FB" stroke-width="1.5" stroke-linecap="round" stroke-linejoin="round"/>
<path d="M20.5001 26.5001V30.2501C20.5001 30.449 20.5791 30.6397 20.7197 30.7804C20.8604 30.921 21.0511 31.0001 21.2501 31.0001H30.2892L34.0001 34.0001V22.0001C34.0001 21.8011 33.921 21.6104 33.7804 21.4697C33.6397 21.3291 33.449 21.2501 33.2501 21.2501H29.5001" stroke="#E521FB" stroke-width="1.5" stroke-linecap="round" stroke-linejoin="round"/>
</svg>
