<svg width="12" height="20" viewBox="0 0 12 20" fill="none" xmlns="http://www.w3.org/2000/svg">
<path d="M1.5 3C2.32843 3 3 2.32843 3 1.5C3 0.671573 2.32843 0 1.5 0C0.671573 0 0 0.671573 0 1.5C0 2.32843 0.671573 3 1.5 3Z" fill="#7F7F7F"/>
<path d="M10 3C10.8284 3 11.5 2.32843 11.5 1.5C11.5 0.671573 10.8284 0 10 0C9.17157 0 8.5 0.671573 8.5 1.5C8.5 2.32843 9.17157 3 10 3Z" fill="#7F7F7F"/>
<path d="M1.5 11.5C2.32843 11.5 3 10.8284 3 10C3 9.17157 2.32843 8.5 1.5 8.5C0.671573 8.5 0 9.17157 0 10C0 10.8284 0.671573 11.5 1.5 11.5Z" fill="#7F7F7F"/>
<path d="M10 11.5C10.8284 11.5 11.5 10.8284 11.5 10C11.5 9.17157 10.8284 8.5 10 8.5C9.17157 8.5 8.5 9.17157 8.5 10C8.5 10.8284 9.17157 11.5 10 11.5Z" fill="#7F7F7F"/>
<path d="M1.5 20C2.32843 20 3 19.3284 3 18.5C3 17.6716 2.32843 17 1.5 17C0.671573 17 0 17.6716 0 18.5C0 19.3284 0.671573 20 1.5 20Z" fill="#7F7F7F"/>
<path d="M10 20C10.8284 20 11.5 19.3284 11.5 18.5C11.5 17.6716 10.8284 17 10 17C9.17157 17 8.5 17.6716 8.5 18.5C8.5 19.3284 9.17157 20 10 20Z" fill="#7F7F7F"/>
</svg>
