<svg width="34" height="31" viewBox="0 0 34 31" fill="none" xmlns="http://www.w3.org/2000/svg">
<path opacity="0.5" d="M31.0632 30.065H2.85981C2.28543 30.0643 1.73476 29.8368 1.32862 29.4322C0.922472 29.0277 0.694014 28.4792 0.693359 27.9071V2.26095C0.694018 1.68885 0.922487 1.14037 1.32863 0.735848C1.73478 0.331321 2.28544 0.103784 2.85981 0.103149H31.0632C31.6376 0.103784 32.1883 0.331321 32.5944 0.735848C33.0006 1.14037 33.229 1.68885 33.2297 2.26095V27.9071C33.229 28.4792 33.0006 29.0277 32.5944 29.4322C32.1883 29.8368 31.6376 30.0643 31.0632 30.065Z" fill="#9747FF"/>
<path d="M11.1696 14.3995C13.1111 14.3995 14.6851 12.8318 14.6851 10.8979C14.6851 8.96397 13.1111 7.39624 11.1696 7.39624C9.228 7.39624 7.65405 8.96397 7.65405 10.8979C7.65405 12.8318 9.228 14.3995 11.1696 14.3995Z" fill="white"/>
<path d="M25.2222 18.6517H8.70091C8.42327 18.6517 8.15699 18.5418 7.96067 18.3463C7.76435 18.1508 7.65405 17.8855 7.65405 17.609C7.65405 17.3325 7.76435 17.0672 7.96067 16.8717C8.15699 16.6761 8.42327 16.5663 8.70091 16.5663H25.2222C25.4999 16.5663 25.7662 16.6761 25.9625 16.8717C26.1588 17.0672 26.2691 17.3325 26.2691 17.609C26.2691 17.8855 26.1588 18.1508 25.9625 18.3463C25.7662 18.5418 25.4999 18.6517 25.2222 18.6517Z" fill="white"/>
<path d="M16.6733 22.7719H8.70096C8.4233 22.7719 8.15702 22.6621 7.96069 22.4665C7.76435 22.271 7.65405 22.0057 7.65405 21.7292C7.65405 21.4526 7.76435 21.1874 7.96069 20.9918C8.15702 20.7963 8.4233 20.6864 8.70096 20.6864H16.6733C16.951 20.6864 17.2173 20.7963 17.4136 20.9918C17.6099 21.1874 17.7202 21.4526 17.7202 21.7292C17.7202 22.0057 17.6099 22.271 17.4136 22.4665C17.2173 22.6621 16.951 22.7719 16.6733 22.7719Z" fill="white"/>
</svg>
