<svg width="94" height="21" viewBox="0 0 94 21" fill="none" xmlns="http://www.w3.org/2000/svg">
<path opacity="0.5" d="M90.9549 20.2687H2.59003C2.01565 20.2681 1.46498 20.0405 1.05883 19.636C0.652688 19.2315 0.424239 18.683 0.423584 18.1109V2.63034C0.424242 2.05824 0.652703 1.50976 1.05885 1.10523C1.465 0.700705 2.01566 0.473169 2.59003 0.472534H90.9549C91.5293 0.473169 92.08 0.700705 92.4861 1.10523C92.8923 1.50976 93.1207 2.05824 93.1214 2.63034V18.1109C93.1207 18.683 92.8923 19.2315 92.4861 19.636C92.08 20.0405 91.5293 20.2681 90.9549 20.2687Z" fill="#9747FF"/>
<path d="M14.5402 14.8619C16.4818 14.8619 18.0557 13.2942 18.0557 11.3603C18.0557 9.42637 16.4818 7.85864 14.5402 7.85864C12.5986 7.85864 11.0247 9.42637 11.0247 11.3603C11.0247 13.2942 12.5986 14.8619 14.5402 14.8619Z" fill="white"/>
<path d="M88.2171 10.3429H24.6946C24.4169 10.3429 24.1507 10.233 23.9543 10.0375C23.758 9.84192 23.6477 9.5767 23.6477 9.30015C23.6477 9.02361 23.758 8.75839 23.9543 8.56284C24.1507 8.3673 24.4169 8.25745 24.6946 8.25745H88.2171C88.4947 8.25745 88.761 8.3673 88.9573 8.56284C89.1536 8.75839 89.2639 9.02361 89.2639 9.30015C89.2639 9.5767 89.1536 9.84192 88.9573 10.0375C88.761 10.233 88.4947 10.3429 88.2171 10.3429Z" fill="white"/>
<path d="M64.0906 14.4631H24.6946C24.417 14.4631 24.1507 14.3532 23.9543 14.1577C23.758 13.9621 23.6477 13.6969 23.6477 13.4203C23.6477 13.1438 23.758 12.8785 23.9543 12.683C24.1507 12.4874 24.417 12.3776 24.6946 12.3776H64.0906C64.3683 12.3776 64.6346 12.4874 64.8309 12.683C65.0272 12.8785 65.1375 13.1438 65.1375 13.4203C65.1375 13.6969 65.0272 13.9621 64.8309 14.1577C64.6346 14.3532 64.3683 14.4631 64.0906 14.4631Z" fill="white"/>
</svg>
