<svg width="12" height="12" viewBox="0 0 12 12" fill="none" xmlns="http://www.w3.org/2000/svg">
<path d="M3.1875 10.125C3.91237 10.125 4.5 9.53737 4.5 8.8125C4.5 8.08763 3.91237 7.5 3.1875 7.5C2.46263 7.5 1.875 8.08763 1.875 8.8125C1.875 9.53737 2.46263 10.125 3.1875 10.125Z" stroke="white" stroke-linecap="round" stroke-linejoin="round"/>
<path d="M3.1875 4.5C3.91237 4.5 4.5 3.91237 4.5 3.1875C4.5 2.46263 3.91237 1.875 3.1875 1.875C2.46263 1.875 1.875 2.46263 1.875 3.1875C1.875 3.91237 2.46263 4.5 3.1875 4.5Z" stroke="white" stroke-linecap="round" stroke-linejoin="round"/>
<path d="M8.8125 7.875C9.53737 7.875 10.125 7.28737 10.125 6.5625C10.125 5.83763 9.53737 5.25 8.8125 5.25C8.08763 5.25 7.5 5.83763 7.5 6.5625C7.5 7.28737 8.08763 7.875 8.8125 7.875Z" stroke="white" stroke-linecap="round" stroke-linejoin="round"/>
<path d="M7.50011 6.75H6.11634C5.7865 6.75 5.46069 6.67748 5.16199 6.53758C4.86329 6.39767 4.59901 6.19381 4.38785 5.94041L3.1875 4.5V7.5" stroke="white" stroke-linecap="round" stroke-linejoin="round"/>
</svg>
