<svg width="12" height="12" viewBox="0 0 12 12" fill="none" xmlns="http://www.w3.org/2000/svg">
<path d="M3.1875 10.125C3.91237 10.125 4.5 9.53737 4.5 8.8125C4.5 8.08763 3.91237 7.5 3.1875 7.5C2.46263 7.5 1.875 8.08763 1.875 8.8125C1.875 9.53737 2.46263 10.125 3.1875 10.125Z" stroke="#4C6EF5" stroke-linecap="round" stroke-linejoin="round"/>
<path d="M3.1875 4.5C3.91237 4.5 4.5 3.91237 4.5 3.1875C4.5 2.46263 3.91237 1.875 3.1875 1.875C2.46263 1.875 1.875 2.46263 1.875 3.1875C1.875 3.91237 2.46263 4.5 3.1875 4.5Z" stroke="#4C6EF5" stroke-linecap="round" stroke-linejoin="round"/>
<path d="M3.1875 4.5V7.5" stroke="#4C6EF5" stroke-linecap="round" stroke-linejoin="round"/>
<path d="M8.8125 10.125C9.53737 10.125 10.125 9.53737 10.125 8.8125C10.125 8.08763 9.53737 7.5 8.8125 7.5C8.08763 7.5 7.5 8.08763 7.5 8.8125C7.5 9.53737 8.08763 10.125 8.8125 10.125Z" stroke="#4C6EF5" stroke-linecap="round" stroke-linejoin="round"/>
<path d="M8.81261 7.5L8.81254 5.61943C8.81251 5.02272 8.57546 4.45046 8.15353 4.02853L6.375 2.25" stroke="#4C6EF5" stroke-linecap="round" stroke-linejoin="round"/>
<path d="M6.375 4.125V2.25H8.25" stroke="#4C6EF5" stroke-linecap="round" stroke-linejoin="round"/>
</svg>
