<svg width="18" height="18" viewBox="0 0 18 18" fill="none" xmlns="http://www.w3.org/2000/svg">
<path d="M9 1.6875C7.55373 1.6875 6.13993 2.11637 4.9374 2.91988C3.73486 3.72339 2.7976 4.86544 2.24413 6.20163C1.69067 7.53781 1.54586 9.00811 1.82801 10.4266C2.11017 11.8451 2.80661 13.148 3.82929 14.1707C4.85196 15.1934 6.15492 15.8898 7.57341 16.172C8.99189 16.4541 10.4622 16.3093 11.7984 15.7559C13.1346 15.2024 14.2766 14.2651 15.0801 13.0626C15.8836 11.8601 16.3125 10.4463 16.3125 9C16.3103 7.06129 15.5391 5.20263 14.1682 3.83176C12.7974 2.46088 10.9387 1.68974 9 1.6875ZM8.99993 5.0625C9.16681 5.0625 9.32994 5.11198 9.4687 5.2047C9.60745 5.29741 9.7156 5.42919 9.77946 5.58336C9.84332 5.73754 9.86003 5.90719 9.82747 6.07086C9.79491 6.23453 9.71456 6.38487 9.59655 6.50287C9.47855 6.62087 9.32821 6.70123 9.16454 6.73379C9.00087 6.76634 8.83122 6.74963 8.67704 6.68577C8.52287 6.62191 8.39109 6.51377 8.29838 6.37501C8.20567 6.23626 8.15618 6.07313 8.15618 5.90625C8.15618 5.79545 8.17801 5.68573 8.22041 5.58336C8.26281 5.48099 8.32496 5.38798 8.40331 5.30963C8.48166 5.23128 8.57468 5.16913 8.67705 5.12673C8.77941 5.08432 8.88913 5.0625 8.99994 5.0625H8.99993ZM9.5625 12.9375H9C8.92612 12.9375 8.85296 12.923 8.78469 12.8948C8.71643 12.8665 8.6544 12.8251 8.60216 12.7728C8.54992 12.7206 8.50849 12.6586 8.48023 12.5903C8.45198 12.522 8.43746 12.4489 8.4375 12.375V9C8.28832 9 8.14525 8.94074 8.03976 8.83525C7.93427 8.72976 7.875 8.58668 7.875 8.4375C7.875 8.28832 7.93427 8.14524 8.03976 8.03975C8.14525 7.93426 8.28832 7.875 8.4375 7.875H9C9.07388 7.87496 9.14705 7.88948 9.21531 7.91773C9.28358 7.94598 9.3456 7.98742 9.39785 8.03966C9.45009 8.0919 9.49152 8.15392 9.51977 8.22219C9.54803 8.29045 9.56255 8.36362 9.5625 8.4375V11.8125C9.71169 11.8125 9.85476 11.8718 9.96025 11.9773C10.0657 12.0827 10.125 12.2258 10.125 12.375C10.125 12.5242 10.0657 12.6673 9.96025 12.7727C9.85476 12.8782 9.71169 12.9375 9.5625 12.9375Z" fill="#D8D8D8"/>
</svg>
