<svg width="50" height="50" viewBox="0 0 50 50" fill="none" xmlns="http://www.w3.org/2000/svg">
<rect opacity="0.1" width="50" height="50" rx="10" fill="#6C7BE7"/>
<path d="M25.375 33.2493H17.4688C17.2781 33.2493 17.0953 33.1735 16.9605 33.0388C16.8257 32.904 16.75 32.7211 16.75 32.5305V24.6242C16.75 23.4916 16.9731 22.37 17.4065 21.3236C17.84 20.2772 18.4753 19.3264 19.2762 18.5255C20.0771 17.7246 21.0279 17.0893 22.0743 16.6558C23.1208 16.2224 24.2423 15.9993 25.375 15.9993H25.375C26.5077 15.9993 27.6292 16.2224 28.6756 16.6558C29.7221 17.0893 30.6729 17.7246 31.4738 18.5255C32.2747 19.3264 32.91 20.2772 33.3435 21.3236C33.7769 22.3701 34 23.4916 34 24.6243V24.6243C34 26.9118 33.0913 29.1056 31.4738 30.7231C29.8563 32.3406 27.6625 33.2493 25.375 33.2493Z" stroke="#6C7BE7" stroke-width="1.5" stroke-linecap="round" stroke-linejoin="round"/>
<path d="M25.375 26.125C25.9963 26.125 26.5 25.6213 26.5 25C26.5 24.3787 25.9963 23.875 25.375 23.875C24.7537 23.875 24.25 24.3787 24.25 25C24.25 25.6213 24.7537 26.125 25.375 26.125Z" fill="#6C7BE7"/>
<path d="M20.875 26.125C21.4963 26.125 22 25.6213 22 25C22 24.3787 21.4963 23.875 20.875 23.875C20.2537 23.875 19.75 24.3787 19.75 25C19.75 25.6213 20.2537 26.125 20.875 26.125Z" fill="#6C7BE7"/>
<path d="M29.875 26.125C30.4963 26.125 31 25.6213 31 25C31 24.3787 30.4963 23.875 29.875 23.875C29.2537 23.875 28.75 24.3787 28.75 25C28.75 25.6213 29.2537 26.125 29.875 26.125Z" fill="#6C7BE7"/>
</svg>
