<svg width="50" height="50" viewBox="0 0 50 50" fill="none" xmlns="http://www.w3.org/2000/svg">
<rect opacity="0.1" width="50" height="50" rx="10" fill="#26AFDB"/>
<path d="M18.25 29.5C20.7353 29.5 22.75 27.4853 22.75 25C22.75 22.5147 20.7353 20.5 18.25 20.5C15.7647 20.5 13.75 22.5147 13.75 25C13.75 27.4853 15.7647 29.5 18.25 29.5Z" stroke="#26AFDB" stroke-width="1.5" stroke-linecap="round" stroke-linejoin="round"/>
<path d="M31.75 29.5C34.2353 29.5 36.25 27.4853 36.25 25C36.25 22.5147 34.2353 20.5 31.75 20.5C29.2647 20.5 27.25 22.5147 27.25 25C27.25 27.4853 29.2647 29.5 31.75 29.5Z" stroke="#26AFDB" stroke-width="1.5" stroke-linecap="round" stroke-linejoin="round"/>
<path d="M18.25 29.5H31.75" stroke="#26AFDB" stroke-width="1.5" stroke-linecap="round" stroke-linejoin="round"/>
</svg>
