<svg width="22" height="22" viewBox="0 0 22 22" fill="none" xmlns="http://www.w3.org/2000/svg">
<path d="M11 22C10.5858 22 10.25 21.6642 10.25 21.25C10.25 20.8358 10.5858 20.5 11 20.5C16.2467 20.5 20.5 16.2467 20.5 11C20.5 5.75329 16.2467 1.5 11 1.5C5.75329 1.5 1.5 5.75329 1.5 11C1.5 12.5796 1.88533 14.102 2.61191 15.4641C2.80685 15.8296 2.66861 16.2839 2.30313 16.4788C1.93766 16.6738 1.48335 16.5355 1.28841 16.1701C0.446643 14.5919 0 12.8273 0 11C0 4.92487 4.92487 0 11 0C17.0751 0 22 4.92487 22 11C22 17.0751 17.0751 22 11 22Z" fill="white"/>
</svg>
