<svg width="14" height="14" viewBox="0 0 14 14" fill="none" xmlns="http://www.w3.org/2000/svg">
<path d="M5.0573 6.82583C5.51111 7.75362 6.26318 8.50227 7.19303 8.95185C7.26106 8.98409 7.33631 8.99806 7.41138 8.99238C7.48645 8.9867 7.55875 8.96157 7.62116 8.91946L8.9903 8.00649C9.05085 7.96611 9.12052 7.94148 9.19299 7.93482C9.26547 7.92816 9.33846 7.93969 9.40536 7.96836L11.9668 9.0661C12.0538 9.10306 12.1264 9.1673 12.1737 9.24914C12.2211 9.33097 12.2405 9.42598 12.2292 9.51983C12.1482 10.1533 11.8391 10.7356 11.3598 11.1576C10.8804 11.5796 10.2637 11.8125 9.625 11.8125C7.65245 11.8125 5.7607 11.0289 4.36589 9.6341C2.97109 8.2393 2.1875 6.34754 2.1875 4.37499C2.18753 3.73634 2.42036 3.11959 2.84237 2.64024C3.26439 2.16088 3.84666 1.85179 4.48016 1.77083C4.57402 1.75947 4.66902 1.77892 4.75085 1.82625C4.83269 1.87358 4.89693 1.94622 4.93389 2.03323L6.03259 4.59687C6.06101 4.66318 6.07259 4.73549 6.0663 4.80735C6.06001 4.87922 6.03604 4.94842 5.99653 5.00879L5.08673 6.39893C5.04532 6.46146 5.02084 6.53367 5.01568 6.60849C5.01052 6.68332 5.02486 6.7582 5.0573 6.82583V6.82583Z" stroke="#27AE60" stroke-linecap="round" stroke-linejoin="round"/>
</svg>
