<svg width="44" height="44" viewBox="0 0 44 44" fill="none" xmlns="http://www.w3.org/2000/svg">
<path d="M22 0C17.6488 0 13.3953 1.29028 9.77746 3.70767C6.15958 6.12506 3.33979 9.56099 1.67466 13.581C0.00953226 17.6009 -0.426141 22.0244 0.422734 26.292C1.27161 30.5596 3.3669 34.4796 6.44366 37.5563C9.52041 40.6331 13.4404 42.7284 17.708 43.5773C21.9756 44.4261 26.3991 43.9905 30.419 42.3253C34.439 40.6602 37.8749 37.8404 40.2923 34.2225C42.7097 30.6047 44 26.3512 44 22C43.9933 16.1673 41.6732 10.5754 37.5489 6.4511C33.4246 2.32676 27.8327 0.00674132 22 0ZM29.7079 23.408L19.5541 30.1773C19.2993 30.3475 19.003 30.4453 18.697 30.4602C18.391 30.4751 18.0866 30.4066 17.8164 30.2621C17.5463 30.1175 17.3205 29.9022 17.1631 29.6393C17.0058 29.3764 16.9228 29.0756 16.9231 28.7692V15.2308C16.9228 14.9244 17.0058 14.6236 17.1631 14.3607C17.3205 14.0978 17.5463 13.8825 17.8164 13.7379C18.0866 13.5934 18.391 13.5249 18.697 13.5398C19.003 13.5547 19.2993 13.6525 19.5541 13.8227L29.7079 20.5919C29.9398 20.7465 30.1298 20.9558 30.2613 21.2015C30.3928 21.4471 30.4615 21.7214 30.4615 22C30.4615 22.2786 30.3928 22.5529 30.2613 22.7985C30.1298 23.0441 29.9398 23.2535 29.7079 23.408Z" fill="#9747FF"/>
</svg>
