<svg width="12" height="12" viewBox="0 0 12 12" fill="none" xmlns="http://www.w3.org/2000/svg">
<path d="M10.8896 5.35986L4.14111 1.2356C4.02744 1.16609 3.8973 1.12812 3.76409 1.1256C3.63087 1.12307 3.49939 1.15609 3.38317 1.22125C3.26695 1.28641 3.17019 1.38136 3.10284 1.49633C3.0355 1.61129 3 1.74213 3 1.87537V10.1246C3.00011 10.2578 3.03568 10.3886 3.10305 10.5035C3.17042 10.6184 3.26716 10.7133 3.38335 10.7784C3.49953 10.8436 3.63096 10.8766 3.76413 10.8741C3.89731 10.8717 4.02742 10.8338 4.14111 10.7644L10.8896 6.64014C10.9993 6.5731 11.0899 6.47903 11.1527 6.36694C11.2155 6.25485 11.2485 6.1285 11.2485 6C11.2485 5.8715 11.2155 5.74515 11.1527 5.63306C11.0899 5.52097 10.9993 5.4269 10.8896 5.35986Z" fill="white"/>
</svg>
