<svg width="20" height="20" viewBox="0 0 20 20" fill="none" xmlns="http://www.w3.org/2000/svg">
<path d="M13.763 7.79033H17.513V4.04033" stroke="#333333" stroke-width="1.3" stroke-linecap="round" stroke-linejoin="round"/>
<path d="M5.13866 5.13864C5.77706 4.50024 6.53495 3.99383 7.36907 3.64833C8.20318 3.30283 9.09718 3.125 10 3.125C10.9029 3.125 11.7969 3.30283 12.631 3.64833C13.4651 3.99383 14.223 4.50024 14.8614 5.13864L17.513 7.79029" stroke="#333333" stroke-width="1.3" stroke-linecap="round" stroke-linejoin="round"/>
<path d="M6.23695 12.2097H2.48695V15.9597" stroke="#333333" stroke-width="1.3" stroke-linecap="round" stroke-linejoin="round"/>
<path d="M14.8614 14.8614C14.223 15.4998 13.4651 16.0062 12.631 16.3517C11.7968 16.6972 10.9028 16.875 10 16.875C9.09717 16.875 8.20317 16.6972 7.36906 16.3517C6.53495 16.0062 5.77705 15.4998 5.13865 14.8614L2.487 12.2097" stroke="#333333" stroke-width="1.3" stroke-linecap="round" stroke-linejoin="round"/>
</svg>
