<svg width="13" height="12" viewBox="0 0 13 12" fill="none" xmlns="http://www.w3.org/2000/svg">
<path d="M9.875 7.875C9.54255 7.87543 9.21962 7.98609 8.95678 8.18966C8.69394 8.39323 8.50603 8.67822 8.42247 9H3.875C3.47718 9 3.09564 8.84196 2.81434 8.56066C2.53304 8.27936 2.375 7.89782 2.375 7.5C2.375 7.10218 2.53304 6.72064 2.81434 6.43934C3.09564 6.15804 3.47718 6 3.875 6H8.375C8.87228 6 9.34919 5.80246 9.70082 5.45083C10.0525 5.09919 10.25 4.62228 10.25 4.125C10.25 3.62772 10.0525 3.15081 9.70082 2.79917C9.34919 2.44754 8.87228 2.25 8.375 2.25H3.875C3.77554 2.25 3.68016 2.28951 3.60984 2.35984C3.53951 2.43016 3.5 2.52554 3.5 2.625C3.5 2.72446 3.53951 2.81984 3.60984 2.89016C3.68016 2.96049 3.77554 3 3.875 3H8.375C8.67337 3 8.95952 3.11853 9.1705 3.3295C9.38147 3.54048 9.5 3.82663 9.5 4.125C9.5 4.42337 9.38147 4.70952 9.1705 4.9205C8.95952 5.13147 8.67337 5.25 8.375 5.25H3.875C3.27826 5.25 2.70597 5.48705 2.28401 5.90901C1.86205 6.33097 1.625 6.90326 1.625 7.5C1.625 8.09674 1.86205 8.66903 2.28401 9.09099C2.70597 9.51295 3.27826 9.75 3.875 9.75H8.42247C8.49259 10.0217 8.6375 10.2682 8.84073 10.4616C9.04395 10.6551 9.29735 10.7876 9.57214 10.8443C9.84693 10.9009 10.1321 10.8793 10.3952 10.782C10.6584 10.6847 10.889 10.5155 11.0608 10.2937C11.2326 10.0719 11.3388 9.8064 11.3673 9.52728C11.3957 9.24817 11.3453 8.96666 11.2218 8.71474C11.0983 8.46282 10.9067 8.25059 10.6686 8.10215C10.4305 7.95371 10.1556 7.87501 9.875 7.875Z" fill="white"/>
</svg>
