<svg width="584" height="432" viewBox="0 0 584 432" fill="none" xmlns="http://www.w3.org/2000/svg">
<g clip-path="url(#clip0_513_4749)">
<path d="M291.52 308.951C227.087 308.951 166.481 299.359 120.867 281.943C74.645 264.295 49.1895 240.588 49.1895 215.188C49.1895 189.789 74.645 166.083 120.867 148.435C166.481 131.019 227.087 121.427 291.52 121.427C355.952 121.427 416.557 131.019 462.172 148.435C508.394 166.083 533.849 189.79 533.849 215.188C533.849 240.587 508.394 264.295 462.172 281.943C416.557 299.359 355.952 308.951 291.52 308.951ZM291.52 125.427C227.562 125.427 167.464 134.925 122.294 152.171C77.7309 169.187 53.1894 191.566 53.1894 215.188C53.1894 238.811 77.7309 261.191 122.294 278.206C167.464 295.453 227.562 304.951 291.52 304.951C355.477 304.951 415.575 295.453 460.745 278.206C505.308 261.191 529.849 238.812 529.849 215.188C529.849 191.565 505.308 169.187 460.745 152.171C415.575 134.925 355.476 125.427 291.52 125.427Z" fill="#61DAFB"/>
<path d="M391.642 430.378C371.618 430.378 346.657 418.805 319.035 396.355C281.144 365.56 242.535 317.87 210.319 262.07C178.103 206.27 156.107 148.988 148.383 100.777C140.555 51.9228 148.359 18.0244 170.355 5.32513C192.351 -7.3736 225.61 2.81781 264.004 34.0224C301.895 64.8178 340.504 112.508 372.72 168.308C404.936 224.107 426.932 281.39 434.656 329.602C442.484 378.455 434.68 412.353 412.684 425.054C406.513 428.616 399.451 430.378 391.642 430.378ZM191.504 3.96918C184.365 3.96918 177.942 5.56293 172.355 8.789C151.897 20.6005 144.786 53.0439 152.332 100.144C159.981 147.886 181.805 204.682 213.783 260.07C245.761 315.458 284.036 362.756 321.557 393.251C358.574 423.337 390.228 433.402 410.684 421.589C431.142 409.777 438.253 377.334 430.707 330.234C423.058 282.492 401.234 225.696 369.256 170.308C337.278 114.92 299.003 67.622 261.481 37.1269C234.575 15.2587 210.503 3.96918 191.504 3.96918Z" fill="#61DAFB"/>
<path d="M191.397 430.378C183.585 430.378 176.528 428.617 170.355 425.054C148.359 412.353 140.555 378.455 148.383 329.602C156.107 281.39 178.103 224.107 210.319 168.308C242.535 112.508 281.144 64.8178 319.035 34.0224C357.429 2.81731 390.689 -7.37507 412.684 5.32512C434.68 18.0243 442.484 51.9228 434.656 100.777C426.932 148.988 404.936 206.27 372.72 262.07C340.504 317.87 301.895 365.56 264.004 396.355C236.385 418.804 211.42 430.378 191.397 430.378ZM391.535 3.96917C372.535 3.96917 348.466 15.2573 321.557 37.1269C284.036 67.622 245.761 114.92 213.783 170.308C181.805 225.696 159.981 282.492 152.332 330.234C144.786 377.334 151.897 409.777 172.355 421.589C177.941 424.814 184.367 426.408 191.504 426.409C210.504 426.411 234.573 415.121 261.481 393.251C299.003 362.756 337.278 315.458 369.256 260.07C401.234 204.682 423.058 147.886 430.707 100.144C438.253 53.0439 431.142 20.6005 410.684 8.78899C405.098 5.56389 398.672 3.96917 391.535 3.96917Z" fill="#61DAFB"/>
<path d="M291.519 259.978C316.255 259.978 336.308 239.925 336.308 215.189C336.308 190.453 316.255 170.4 291.519 170.4C266.783 170.4 246.73 190.453 246.73 215.189C246.73 239.925 266.783 259.978 291.519 259.978Z" fill="#61DAFB"/>
<path d="M564.784 338.786C563.94 337.362 560.288 338.887 559.616 337.595C558.947 336.307 562.341 334.346 564.279 329.865C564.629 329.057 566.832 323.965 565.201 322.393C562.109 319.415 547.962 331.706 543.01 327.684C541.924 326.801 541.165 325.039 537.876 322.178C536.568 321.04 535.777 320.526 535.011 320.717C533.925 320.988 533.839 322.442 532.674 325.301C530.927 329.588 529.894 329.329 528.876 332.75C528.12 335.289 528.293 336.766 527.403 337.053C526.145 337.46 524.987 334.767 523.392 335.008C521.765 335.254 520.782 338.39 520.471 340.738C519.888 345.144 521.506 348.051 522.403 351.109C523.377 354.431 523.956 359.484 521.705 366.636L499.428 429.402C504.346 416.523 518.586 381.217 524.57 368.097C526.297 364.31 528.205 360.468 532.121 358.952C535.891 357.492 541.07 358.363 547.671 356.773C548.442 356.587 550.582 356.043 550.851 354.785C551.074 353.744 549.815 353.164 550.009 352.189C550.268 350.882 552.743 350.866 555.784 349.358C557.928 348.295 559.264 347.03 560.413 345.943C560.759 345.615 565.908 340.681 564.784 338.786Z" fill="#F2F2F2"/>
<path d="M477.14 371.829C476.198 371.832 475.892 374.065 475.064 374.022C474.239 373.979 474.255 371.747 472.616 369.503C472.32 369.098 470.456 366.547 469.214 366.894C466.861 367.553 468.811 378.043 465.408 379.312C464.662 379.591 463.578 379.455 461.225 380.244C460.289 380.557 459.808 380.797 459.681 381.228C459.501 381.84 460.189 382.301 461.256 383.698C462.857 385.793 462.431 386.225 463.817 387.711C464.845 388.815 465.619 389.156 465.504 389.676C465.34 390.411 463.684 390.202 463.343 391.054C462.994 391.924 464.249 393.311 465.312 394.141C467.306 395.699 469.2 395.744 470.959 396.186C472.871 396.666 475.518 397.84 478.379 401.008L502.757 430.052C497.855 423.922 484.636 406.746 479.923 400.024C478.562 398.083 477.227 396.038 477.613 393.679C477.984 391.407 479.906 389.117 481.03 385.418C481.162 384.986 481.512 383.779 480.972 383.284C480.525 382.874 479.877 383.324 479.455 382.948C478.888 382.444 479.594 381.224 479.732 379.297C479.829 377.937 479.593 376.917 479.391 376.039C479.33 375.775 478.394 371.824 477.14 371.829H477.14Z" fill="#F2F2F2"/>
<path d="M495.939 376.049L495.371 370.981L495.63 370.597C496.831 368.82 497.443 367.085 497.45 365.438C497.451 365.176 497.439 364.914 497.427 364.647C497.378 363.59 497.317 362.276 498.002 360.744C498.386 359.89 499.465 357.913 501.088 358.157C501.525 358.219 501.855 358.419 502.106 358.654C502.143 358.596 502.18 358.537 502.221 358.473C502.726 357.702 503.126 357.372 503.512 357.054C503.808 356.809 504.114 356.557 504.593 355.96C504.804 355.698 504.968 355.468 505.106 355.275C505.526 354.69 506.074 353.992 507.041 354.005C508.073 354.053 508.614 354.908 508.973 355.473C509.613 356.481 509.903 357.208 510.095 357.69C510.164 357.866 510.244 358.064 510.284 358.126C510.617 358.615 513.323 358.157 514.342 357.991C516.631 357.609 518.612 357.279 519.428 358.723C520.013 359.755 519.579 361.121 518.098 362.89C517.637 363.441 517.146 363.859 516.711 364.187C517.072 364.403 517.395 364.733 517.526 365.252C517.834 366.48 516.778 367.711 514.388 368.915C513.795 369.216 512.996 369.618 511.876 369.811C511.349 369.902 510.874 369.924 510.468 369.936C510.459 370.171 510.404 370.425 510.261 370.687C509.841 371.458 508.968 371.825 507.651 371.737C506.202 371.661 505.009 371.385 503.957 371.142C503.038 370.932 502.246 370.753 501.625 370.795C500.472 370.888 499.584 371.81 498.541 373.007L495.939 376.049Z" fill="#F2F2F2"/>
<path d="M498.572 345.873L493.814 347.708L493.377 347.554C491.354 346.844 489.52 346.692 487.925 347.103C487.671 347.168 487.421 347.246 487.166 347.326C486.156 347.641 484.901 348.034 483.245 347.76C482.321 347.605 480.135 347.062 479.96 345.431C479.908 344.993 480.019 344.622 480.182 344.32C480.116 344.299 480.05 344.277 479.978 344.255C479.104 343.961 478.683 343.658 478.278 343.366C477.966 343.142 477.644 342.91 476.945 342.597C476.638 342.46 476.374 342.36 476.152 342.275C475.48 342.017 474.666 341.664 474.433 340.726C474.218 339.715 474.907 338.975 475.363 338.485C476.176 337.61 476.806 337.145 477.223 336.837C477.376 336.725 477.548 336.597 477.597 336.543C477.986 336.097 476.857 333.596 476.437 332.652C475.487 330.535 474.665 328.702 475.855 327.546C476.705 326.719 478.136 326.793 480.223 327.776C480.873 328.082 481.402 328.451 481.83 328.789C481.947 328.385 482.184 327.989 482.653 327.731C483.763 327.121 485.222 327.83 486.992 329.836C487.434 330.334 488.025 331.005 488.496 332.039C488.717 332.526 488.859 332.98 488.974 333.37C489.203 333.318 489.463 333.307 489.753 333.379C490.605 333.59 491.182 334.342 491.431 335.637C491.725 337.058 491.76 338.282 491.792 339.362C491.822 340.304 491.85 341.115 492.048 341.706C492.43 342.797 493.548 343.422 494.97 344.127L498.572 345.873Z" fill="#F2F2F2"/>
<path d="M495.939 330.942L495.371 325.874L495.63 325.49C496.831 323.713 497.443 321.978 497.45 320.331C497.451 320.069 497.439 319.807 497.427 319.541C497.378 318.483 497.317 317.169 498.002 315.637C498.386 314.783 499.465 312.806 501.088 313.051C501.525 313.112 501.855 313.312 502.106 313.547C502.143 313.489 502.18 313.43 502.221 313.366C502.726 312.595 503.126 312.265 503.512 311.947C503.808 311.702 504.114 311.45 504.593 310.853C504.804 310.591 504.968 310.361 505.106 310.168C505.526 309.583 506.074 308.885 507.041 308.898C508.073 308.947 508.614 309.801 508.973 310.366C509.613 311.374 509.903 312.101 510.095 312.583C510.164 312.759 510.244 312.958 510.284 313.019C510.617 313.508 513.323 313.051 514.342 312.884C516.631 312.502 518.612 312.172 519.428 313.616C520.013 314.649 519.579 316.014 518.098 317.783C517.637 318.334 517.146 318.752 516.711 319.08C517.072 319.296 517.395 319.626 517.526 320.145C517.834 321.373 516.778 322.604 514.388 323.808C513.795 324.109 512.996 324.511 511.876 324.704C511.349 324.795 510.874 324.817 510.468 324.829C510.459 325.064 510.404 325.318 510.261 325.58C509.841 326.351 508.968 326.718 507.651 326.63C506.202 326.554 505.009 326.278 503.957 326.035C503.038 325.825 502.246 325.646 501.625 325.688C500.472 325.781 499.584 326.703 498.541 327.9L495.939 330.942Z" fill="#F2F2F2"/>
<path d="M501.125 429.32L500.063 428.654L499.806 427.428L500.063 428.654L498.825 428.796C498.805 428.681 498.738 428.417 498.636 428.003C498.082 425.737 496.392 418.841 494.983 407.98C493.999 400.399 493.442 392.604 493.327 384.81C493.212 377.003 493.582 371.093 493.878 366.343C494.102 362.76 494.373 359.349 494.64 356.026C495.35 347.147 496.019 338.761 495.521 329.476C495.411 327.403 495.18 323.089 492.659 318.498C491.197 315.835 489.183 313.471 486.672 311.474L488.233 309.512C491.005 311.719 493.233 314.338 494.857 317.294C497.651 322.384 497.903 327.085 498.024 329.344C498.531 338.793 497.854 347.26 497.137 356.224C496.873 359.535 496.601 362.932 496.379 366.5C496.085 371.206 495.719 377.064 495.833 384.771C495.946 392.472 496.496 400.171 497.467 407.657C498.859 418.381 500.524 425.174 501.071 427.406C501.362 428.598 501.424 428.847 501.125 429.32Z" fill="#F2F2F2"/>
<path d="M482.075 315.456C481.972 315.456 481.868 315.454 481.763 315.446C479.629 315.331 477.653 314.054 475.889 311.651C475.061 310.52 474.638 309.23 473.794 306.658C473.663 306.262 473.027 304.25 472.64 301.483C472.387 299.674 472.418 298.918 472.777 298.25C473.175 297.506 473.818 296.987 474.543 296.637C474.511 296.397 474.536 296.15 474.641 295.898C475.068 294.853 476.203 294.99 476.817 295.056C477.128 295.095 477.516 295.147 477.934 295.125C478.593 295.093 478.946 294.897 479.482 294.603C479.995 294.322 480.632 293.972 481.578 293.779C483.443 293.39 485.006 293.918 485.521 294.092C488.231 294.995 489.567 297.102 491.114 299.542C491.422 300.031 492.481 301.813 493.179 304.255C493.683 306.017 493.612 306.8 493.461 307.383C493.152 308.579 492.424 309.265 490.575 310.777C488.645 312.36 487.676 313.153 486.843 313.635C484.907 314.754 483.69 315.456 482.075 315.456V315.456Z" fill="#F2F2F2"/>
<path d="M243.468 228.739C247.633 229.839 251.577 228.58 252.276 225.929C252.975 223.277 250.165 220.238 245.998 219.139C244.339 218.677 242.594 218.619 240.908 218.97L223.199 214.536L221.295 222.891L238.955 226.375C240.249 227.512 241.796 228.323 243.468 228.739Z" fill="#FFB6B6"/>
<path d="M146.132 188.062C146.132 188.062 142.535 194.965 147.52 198.37C152.506 201.775 194.023 217.556 194.023 217.556L235.253 226.528L236.741 216.508L199.203 204.516L167.899 183.463L146.132 188.062H146.132Z" fill="#2F2E41"/>
<path d="M195.227 410.87L202.22 407.724L191.21 374.816L180.891 379.457L195.227 410.87Z" fill="#FFB6B6"/>
<path d="M225.853 413.944C226.412 415.112 226.037 416.456 225.014 416.945L211.289 423.512C211.289 423.512 207.341 418.729 200.716 419.028L204.052 426.975L196.972 430.363L191.855 417.466C191.855 417.466 186.764 411.692 189.064 406.395C191.363 401.098 188.405 403.098 188.405 403.098L186.254 394.629L197.555 390.768L203.438 402.862L214.392 412.419L223.808 412.537C224.646 412.548 225.45 413.101 225.853 413.944L225.853 413.944Z" fill="#2F2E41"/>
<path d="M56.8594 393.879L63.1081 398.323L85.9368 372.188L76.7157 365.63L56.8594 393.879Z" fill="#FFB6B6"/>
<path d="M69.6885 421.858C68.9632 422.931 67.6139 423.286 66.6748 422.651L54.0705 414.128C54.0705 414.128 56.2014 408.304 52.595 402.739L47.424 409.634L40.9219 405.238L49.4632 394.303C49.4632 394.303 51.872 386.992 57.6047 386.299C63.3374 385.605 60.1164 384.063 60.1164 384.063L66.3363 377.927L75.3805 385.725L67.9196 396.915L65.2105 411.198L69.8684 419.382C70.283 420.11 70.2122 421.083 69.6884 421.858L69.6885 421.858Z" fill="#2F2E41"/>
<path d="M167.488 143.322H134.654V188.413H167.488V143.322Z" fill="#2F2E41"/>
<path d="M160.114 169.095L142.286 163.795L138.913 172.949L138.432 228.842C138.432 228.842 163.969 223.06 169.751 232.696L171.678 215.351C171.678 215.351 177.942 206.678 172.642 195.595C167.341 184.513 162.345 179.517 162.345 179.517L158.187 177.286L160.114 169.095V169.095Z" fill="#9747FF"/>
<path d="M139.636 220.41L137.227 244.983L169.027 251.729C169.027 251.729 166.618 230.528 169.509 225.71L139.636 220.41Z" fill="#FFB6B6"/>
<path d="M170.956 251.247C170.956 251.247 150.719 236.31 133.373 242.092C133.373 242.092 112.895 254.861 123.495 277.025L107.354 315.33L71.2168 365.923L81.3352 377.968L129.036 328.34L144.455 307.139L183.483 390.014L195.529 384.232L180.592 320.631L171.678 276.543L170.956 251.247H170.956Z" fill="#2F2E41"/>
<path d="M123.736 279.675L99.6445 271.965L122.772 207.882L120.363 173.672L140.768 167.917L152.164 218.482L123.736 279.675Z" fill="#2F2E41"/>
<path d="M161.013 180.848L157.371 177.206L158.995 173.849C158.995 173.849 169.51 184.754 171.437 187.645C173.364 190.536 191.362 263.147 191.362 263.147L164.21 274.375L169.51 217.361L171.472 204.538C171.762 202.641 171.438 200.702 170.546 199.004L161.013 180.848Z" fill="#2F2E41"/>
<path d="M152.151 164.537C160.975 164.537 168.128 157.384 168.128 148.56C168.128 139.736 160.975 132.583 152.151 132.583C143.327 132.583 136.174 139.736 136.174 148.56C136.174 157.384 143.327 164.537 152.151 164.537Z" fill="#FFB6B6"/>
<path d="M162.089 142.029C156.607 138.373 146.796 153.015 143.796 144.015C143.328 142.611 142.228 148.82 141.825 150.992C141.314 153.751 142.607 155.954 141.825 156.448C140.941 157.005 138.775 154.515 138.318 154.889C137.871 155.254 139.308 158.148 141.825 161.514C145.166 165.981 147.26 167.068 150.008 170.087C152.567 172.897 157.302 178.097 156.633 182.557C155.375 190.945 134.892 197.428 128.575 191.13C127.063 189.622 126.767 186.207 126.237 179.439C125.449 169.367 126.044 161.809 126.237 159.565C127.042 150.222 127.444 145.55 129.355 141.639C130.575 139.142 134.685 130.733 143.773 128C153.536 125.065 165.156 129.85 168.324 136.963C169.239 139.018 168.349 138.799 169.493 145.536C170.846 153.51 171.722 158.294 175.338 161.124C178.66 163.724 181.224 162.27 182.353 164.241C185.28 169.354 171.696 185.53 165.986 183.336C162.545 182.014 162.241 174.13 162.478 170.476C162.99 162.609 166.889 160.939 166.765 153.72C166.732 151.81 166.616 145.048 162.089 142.029V142.029Z" fill="#2F2E41"/>
<path d="M92.4808 275.542C91.8025 279.797 93.4479 283.596 96.1556 284.027C98.8633 284.458 101.607 281.359 102.286 277.103C102.58 275.406 102.463 273.664 101.946 272.022L104.593 253.958L96.0897 252.897L94.3833 270.817C93.3809 272.217 92.7285 273.838 92.4808 275.542H92.4808Z" fill="#FFB6B6"/>
<path d="M123.253 174.636C123.253 174.636 116.026 171.745 113.135 177.045C110.244 182.345 98.6796 225.228 98.6796 225.228L93.8613 267.147L103.98 267.629L112.171 229.083L129.999 195.836L123.253 174.636V174.636Z" fill="#2F2E41"/>
<path d="M583.04 430.18C583.04 430.644 582.664 431.02 582.2 431.02H0V429.34H582.2C582.664 429.34 583.04 429.716 583.04 430.18V430.18Z" fill="#E6E6E6"/>
</g>
<defs>
<clipPath id="clip0_513_4749">
<rect width="583.04" height="431.02" fill="white"/>
</clipPath>
</defs>
</svg>
