<svg width="15" height="14" viewBox="0 0 15 14" fill="none" xmlns="http://www.w3.org/2000/svg">
<path d="M7.5 5.6875V7.875" stroke="white" stroke-linecap="round" stroke-linejoin="round"/>
<path d="M6.74239 2.18666L1.93119 10.4987C1.8542 10.6317 1.8136 10.7827 1.81348 10.9364C1.81335 11.09 1.8537 11.241 1.93046 11.3742C2.00723 11.5073 2.1177 11.6179 2.25077 11.6947C2.38384 11.7716 2.5348 11.8121 2.68848 11.8121H12.3109C12.4646 11.8121 12.6155 11.7716 12.7486 11.6947C12.8817 11.6179 12.9921 11.5073 13.0689 11.3742C13.1457 11.241 13.186 11.09 13.1859 10.9364C13.1858 10.7827 13.1452 10.6317 13.0682 10.4987L8.25697 2.18666C8.18011 2.05387 8.06968 1.94363 7.93676 1.86699C7.80384 1.79034 7.65311 1.75 7.49968 1.75C7.34625 1.75 7.19551 1.79034 7.0626 1.86699C6.92968 1.94363 6.81925 2.05387 6.74239 2.18666V2.18666Z" stroke="white" stroke-linecap="round" stroke-linejoin="round"/>
<path d="M7.5 10.5C7.86244 10.5 8.15625 10.2062 8.15625 9.84375C8.15625 9.48131 7.86244 9.1875 7.5 9.1875C7.13756 9.1875 6.84375 9.48131 6.84375 9.84375C6.84375 10.2062 7.13756 10.5 7.5 10.5Z" fill="white"/>
</svg>
