<svg width="550" height="447" viewBox="0 0 550 447" fill="none" xmlns="http://www.w3.org/2000/svg">
<path style="mix-blend-mode:screen" opacity="0.4" d="M518.855 203.835L423.963 149.749L398.896 164.226L398.844 164.196V192.932L493.863 246.98L518.907 232.548V203.805L518.855 203.835Z" fill="url(#paint0_linear_210_54)"/>
<path d="M423.888 178.635V207.371L398.844 192.932V164.196L423.888 178.635Z" fill="#25A9F2"/>
<path d="M423.887 178.635V207.371L448.932 192.932V164.196L423.887 178.635Z" fill="#3BC9F8"/>
<path d="M423.963 149.749L448.924 164.256L423.797 178.764L398.844 164.256L423.963 149.749Z" fill="#1F9FEA"/>
<path style="mix-blend-mode:screen" opacity="0.4" d="M514.376 202.719L419.492 148.633L394.426 163.11L394.365 163.08V191.816L489.385 245.864L514.437 231.425V202.689L514.376 202.719Z" fill="url(#paint1_linear_210_54)"/>
<path d="M419.409 177.512V206.255L394.365 191.816V163.08L419.409 177.512Z" fill="#25A9F2"/>
<path d="M419.409 177.512V206.255L444.453 191.816V163.08L419.409 177.512Z" fill="#3BC9F8"/>
<path d="M419.492 148.633L444.446 163.14L419.326 177.64L394.373 163.14L419.492 148.633Z" fill="#1F9FEA"/>
<path d="M549.96 160.23L549.937 168.999L334.582 43.756L334.198 179.42L549.553 304.663L549.96 160.23Z" fill="url(#paint2_linear_210_54)"/>
<g style="mix-blend-mode:lighten">
<path style="mix-blend-mode:lighten" d="M334.605 34.9791L334.582 43.7559L549.937 168.999L549.96 160.23L334.605 34.9791Z" fill="url(#paint3_linear_210_54)"/>
</g>
<g style="mix-blend-mode:screen" opacity="0.8">
<g style="mix-blend-mode:screen">
<path d="M433.53 142.375L433.515 147.796L453.169 159.317L453.191 153.896L433.53 142.375Z" fill="#50C5FF"/>
</g>
<g style="mix-blend-mode:screen">
<path d="M443.994 187.035L443.971 192.457L451.796 197.041L451.811 191.62L443.994 187.035Z" fill="#50C5FF"/>
</g>
<g style="mix-blend-mode:screen">
<path d="M403.246 192.05L403.231 197.471L425.425 210.485L425.44 205.056L403.246 192.05Z" fill="#50C5FF"/>
</g>
<g style="mix-blend-mode:screen">
<path d="M428.841 207.047L428.826 212.476L454.48 227.511L454.495 222.082L428.841 207.047Z" fill="#50C5FF"/>
</g>
<g style="mix-blend-mode:screen">
<g style="mix-blend-mode:screen">
<path d="M417.359 171.427L417.344 176.849L439.538 189.855L439.546 184.434L417.359 171.427Z" fill="#50C5FF"/>
</g>
<g style="mix-blend-mode:screen">
<path d="M413.718 188.551L413.703 193.98L464.025 223.47L464.04 218.048L413.718 188.551Z" fill="#50C5FF"/>
</g>
<g style="mix-blend-mode:screen">
<path d="M418.181 181.531L418.158 186.96L473.214 219.225L473.229 213.803L418.181 181.531Z" fill="#50C5FF"/>
</g>
<g style="mix-blend-mode:screen">
<path d="M428.193 158.511L428.177 163.932L450.372 176.939L450.387 171.518L428.193 158.511Z" fill="#50C5FF"/>
</g>
<g style="mix-blend-mode:screen">
<path d="M418.233 162.303L418.218 167.725L461.371 193.022L461.386 187.601L418.233 162.303Z" fill="#50C5FF"/>
</g>
<g style="mix-blend-mode:screen">
<path d="M428.645 149.138L428.622 154.567L468.714 178.062L468.729 172.634L428.645 149.138Z" fill="#50C5FF"/>
</g>
<g style="mix-blend-mode:screen">
<path d="M455.038 174.247L455.023 179.669L485.457 197.509L485.472 192.087L455.038 174.247Z" fill="#50C5FF"/>
</g>
<g style="mix-blend-mode:screen">
<path d="M472.475 174.828L472.46 180.257L477.873 183.431L477.888 178.002L472.475 174.828Z" fill="#EE4BF7"/>
</g>
<g style="mix-blend-mode:screen">
<path d="M458.257 156.867L458.242 162.288L488.895 180.257L488.911 174.835L458.257 156.867Z" fill="#50C5FF"/>
</g>
<g style="mix-blend-mode:screen">
<path d="M480.678 160.373L480.663 165.802L499.894 177.075L499.91 171.653L480.678 160.373Z" fill="#50C5FF"/>
</g>
</g>
<g style="mix-blend-mode:screen">
<path d="M446.874 140.565L446.859 145.986L466.512 157.508L466.528 152.086L446.874 140.565Z" fill="#50C5FF"/>
</g>
<g style="mix-blend-mode:screen">
<path d="M455.807 126.533L455.785 131.954L483.693 148.316L483.701 142.887L455.807 126.533Z" fill="#1CF2EC"/>
</g>
<g style="mix-blend-mode:screen">
<path d="M416.198 132.21L416.175 137.639L428.019 144.576L428.026 139.155L416.198 132.21Z" fill="#50C5FF"/>
</g>
<g style="mix-blend-mode:screen">
<path d="M415.293 150.948L415.278 156.377L423.518 161.21L423.541 155.781L415.293 150.948Z" fill="#50C5FF"/>
</g>
<g style="mix-blend-mode:screen">
<path d="M417.766 142.767L417.751 148.188L424.4 152.086L424.415 146.665L417.766 142.767Z" fill="#1CF2EC"/>
</g>
<g style="mix-blend-mode:screen">
<path d="M419.817 124.7L419.802 130.129L441.996 143.136L442.003 137.715L419.817 124.7Z" fill="#50C5FF"/>
</g>
<g style="mix-blend-mode:screen">
<path d="M434.216 123.516L434.201 128.938L448.788 137.489L448.803 132.06L434.216 123.516Z" fill="#50C5FF"/>
</g>
<g style="mix-blend-mode:screen">
<path d="M429.165 110.917L429.157 116.346L451.351 129.36L451.366 123.931L429.165 110.917Z" fill="#1CF2EC"/>
</g>
<g style="mix-blend-mode:screen">
<path d="M393.996 119.203L393.989 124.625L416.175 137.639L416.198 132.21L393.996 119.203Z" fill="#50C5FF"/>
</g>
<g style="mix-blend-mode:screen">
<path d="M393.498 147.811L393.483 153.232L415.256 165.991L415.271 160.569L393.498 147.811Z" fill="#50C5FF"/>
</g>
<g style="mix-blend-mode:screen">
<path d="M405.726 164.611L405.719 170.032L413.537 174.617L413.552 169.195L405.726 164.611Z" fill="#1CF2EC"/>
</g>
<g style="mix-blend-mode:screen">
<path d="M401.965 181.667L401.949 187.088L408.93 191.183L408.953 185.754L401.965 181.667Z" fill="#1CF2EC"/>
</g>
<g style="mix-blend-mode:screen">
<path d="M512.808 169.58L512.793 175.001L518.5 178.349L518.515 172.92L512.808 169.58Z" fill="#EE4BF7"/>
</g>
<g style="mix-blend-mode:screen">
<path d="M504.207 154.906L504.192 160.328L523.423 171.601L523.446 166.179L504.207 154.906Z" fill="#EE4BF7"/>
</g>
<g style="mix-blend-mode:screen">
<path d="M469.694 153.941L469.679 159.37L476.026 163.088L476.042 157.659L469.694 153.941Z" fill="#EE4BF7"/>
</g>
<g style="mix-blend-mode:screen">
<path d="M505.571 184.6L505.556 190.021L518.447 197.577L518.47 192.155L505.571 184.6Z" fill="#EE4BF7"/>
</g>
<g style="mix-blend-mode:screen">
<path d="M505.518 203.827L505.503 209.256L518.395 216.812L518.41 211.39L505.518 203.827Z" fill="#EE4BF7"/>
</g>
<g style="mix-blend-mode:screen">
<path d="M465.902 190.247L465.886 195.669L472.747 199.688L472.762 194.266L465.902 190.247Z" fill="#EE4BF7"/>
</g>
<g style="mix-blend-mode:screen">
<path d="M505.465 223.062L505.45 228.484L518.342 236.047L518.357 230.625L505.465 223.062Z" fill="#EE4BF7"/>
</g>
<g style="mix-blend-mode:screen">
<path d="M476.803 215.892L476.788 221.321L482.902 224.902L482.917 219.473L476.803 215.892Z" fill="#EE4BF7"/>
</g>
<g style="mix-blend-mode:screen">
<path d="M456.674 194.47L456.659 199.891L488.79 218.719L488.797 213.298L456.674 194.47Z" fill="#50C5FF"/>
</g>
<g style="mix-blend-mode:screen">
<path d="M482.947 180.973L482.932 186.394L499.842 196.302L499.857 190.881L482.947 180.973Z" fill="#50C5FF"/>
</g>
<g style="mix-blend-mode:screen">
<path d="M496.479 179.269L496.472 184.69L501.749 187.789L501.764 182.368L496.479 179.269Z" fill="#EE4BF7"/>
</g>
<g style="mix-blend-mode:screen">
<path d="M479.509 198.225L479.502 203.646L499.789 215.537L499.804 210.116L479.509 198.225Z" fill="#50C5FF"/>
</g>
<g style="mix-blend-mode:screen">
<path d="M496.426 198.504L496.411 203.925L501.696 207.024L501.711 201.603L496.426 198.504Z" fill="#EE4BF7"/>
</g>
<g style="mix-blend-mode:screen">
<path d="M466.346 238.663L466.331 244.092L482.125 253.344L482.14 247.923L466.346 238.663Z" fill="#50C5FF"/>
</g>
<g style="mix-blend-mode:screen">
<g style="mix-blend-mode:screen">
<path d="M475.853 224.97L475.838 230.399L488.73 237.954L488.745 232.526L475.853 224.97Z" fill="#50C5FF"/>
</g>
<g style="mix-blend-mode:screen">
<path d="M467.605 229.766L467.59 235.195L499.683 254L499.698 248.579L467.605 229.766Z" fill="#50C5FF"/>
</g>
<g style="mix-blend-mode:screen">
<path d="M486.852 221.788L486.837 227.21L499.736 234.772L499.751 229.344L486.852 221.788Z" fill="#50C5FF"/>
</g>
</g>
<g style="mix-blend-mode:screen">
<path d="M496.373 217.739L496.358 223.161L501.643 226.26L501.658 220.831L496.373 217.739Z" fill="#EE4BF7"/>
</g>
<g style="mix-blend-mode:screen">
<path d="M505.405 242.245L505.398 247.666L518.289 255.229L518.304 249.8L505.405 242.245Z" fill="#EE4BF7"/>
</g>
<g style="mix-blend-mode:screen">
<path d="M496.321 236.914L496.306 242.343L501.591 245.442L501.606 240.013L496.321 236.914Z" fill="#EE4BF7"/>
</g>
<g style="mix-blend-mode:screen">
<path d="M454.933 231.975L454.917 237.397L461.718 241.385L461.733 235.956L454.933 231.975Z" fill="#EE4BF7"/>
</g>
<g style="mix-blend-mode:screen">
<path d="M458.242 224.284L458.234 229.705L463.127 232.578L463.142 227.149L458.242 224.284Z" fill="#EE4BF7"/>
</g>
<g style="mix-blend-mode:screen">
<path d="M526.838 197.064L526.823 202.485L540.356 210.417L540.363 204.996L526.838 197.064Z" fill="#50C5FF"/>
</g>
<g style="mix-blend-mode:screen">
<path d="M526.868 187.45L526.853 192.871L540.378 200.804L540.393 195.375L526.868 187.45Z" fill="#50C5FF"/>
</g>
<g style="mix-blend-mode:screen">
<path d="M526.891 177.829L526.876 183.258L540.401 191.19L540.423 185.761L526.891 177.829Z" fill="#50C5FF"/>
</g>
<g style="mix-blend-mode:screen">
<path d="M526.921 168.215L526.906 173.636L540.431 181.569L540.446 176.147L526.921 168.215Z" fill="#50C5FF"/>
</g>
<g style="mix-blend-mode:screen">
<path d="M476.071 148.045L476.056 153.466L500.151 167.589L500.158 162.168L476.071 148.045Z" fill="#50C5FF"/>
</g>
<g style="mix-blend-mode:screen">
<path d="M486.874 144.75L486.859 150.171L499.751 157.726L499.766 152.305L486.874 144.75Z" fill="#50C5FF"/>
</g>
<g style="mix-blend-mode:screen">
<path d="M399.944 113.058L399.929 118.487L415.783 127.777L415.798 122.348L399.944 113.058Z" fill="#50C5FF"/>
</g>
<g style="mix-blend-mode:screen">
<path d="M414.373 102.253L414.358 107.674L426.194 114.611L426.209 109.19L414.373 102.253Z" fill="#50C5FF"/>
</g>
<g style="mix-blend-mode:screen">
<path d="M453.447 134.781L453.432 140.21L472.883 151.611L472.898 146.182L453.447 134.781Z" fill="#50C5FF"/>
</g>
<g style="mix-blend-mode:screen">
<path d="M526.733 235.534L526.718 240.955L540.242 248.88L540.257 243.459L526.733 235.534Z" fill="#50C5FF"/>
</g>
<g style="mix-blend-mode:screen">
<path d="M526.763 225.913L526.74 231.334L540.272 239.259L540.288 233.845L526.763 225.913Z" fill="#50C5FF"/>
</g>
<g style="mix-blend-mode:screen">
<path d="M526.786 216.299L526.771 221.72L540.295 229.645L540.31 224.224L526.786 216.299Z" fill="#50C5FF"/>
</g>
<g style="mix-blend-mode:screen">
<path d="M526.808 206.685L526.793 212.107L540.325 220.031L540.341 214.61L526.808 206.685Z" fill="#50C5FF"/>
</g>
<g style="mix-blend-mode:screen">
<path d="M526.702 245.14L526.687 250.569L540.212 258.494L540.235 253.073L526.702 245.14Z" fill="#50C5FF"/>
</g>
<g style="mix-blend-mode:screen">
<path d="M526.62 273.997L526.612 279.418L540.137 287.35L540.152 281.921L526.62 273.997Z" fill="#50C5FF"/>
</g>
<g style="mix-blend-mode:screen">
<path d="M526.65 264.375L526.635 269.804L540.167 277.729L540.175 272.3L526.65 264.375Z" fill="#50C5FF"/>
</g>
<g style="mix-blend-mode:screen">
<path d="M526.68 254.762L526.665 260.183L540.19 268.115L540.205 262.686L526.68 254.762Z" fill="#50C5FF"/>
</g>
<g style="mix-blend-mode:screen">
<path d="M467.093 219.835L467.078 225.257L472.664 228.537L472.687 223.115L467.093 219.835Z" fill="#50C5FF"/>
</g>
<g style="mix-blend-mode:screen">
<path d="M486.777 250.637L486.762 256.066L499.653 263.621L499.676 258.2L486.777 250.637Z" fill="#50C5FF"/>
</g>
</g>
<g style="mix-blend-mode:screen" opacity="0.8">
<path style="mix-blend-mode:screen" d="M0 102.396L0.0226157 111.422L176.311 9.0332L176.703 148.656L0.414637 251.044L0 102.396Z" fill="url(#paint4_linear_210_54)"/>
</g>
<g style="mix-blend-mode:screen">
<path style="mix-blend-mode:screen" d="M176.281 0L176.311 9.03319L0.0226157 111.422L0 102.396L176.281 0Z" fill="url(#paint5_linear_210_54)"/>
</g>
<g style="mix-blend-mode:screen" opacity="0.8">
<g style="mix-blend-mode:screen">
<path d="M50.6913 190.436L50.7064 195.872L45.6855 198.768L45.6704 193.331L50.6913 190.436Z" fill="#50C5FF"/>
</g>
<g style="mix-blend-mode:screen">
<path d="M50.7213 200.065L50.7364 205.494L45.7155 208.397L45.7004 202.96L50.7213 200.065Z" fill="#50C5FF"/>
</g>
<g style="mix-blend-mode:screen">
<path d="M58.8031 118.261L58.8182 123.682L53.7973 126.585L53.7822 121.156L58.8031 118.261Z" fill="#50C5FF"/>
</g>
<g style="mix-blend-mode:screen">
<path d="M58.8329 127.882L58.848 133.311L53.8271 136.214L53.812 130.785L58.8329 127.882Z" fill="#50C5FF"/>
</g>
<g style="mix-blend-mode:screen">
<path d="M58.8556 137.511L58.8707 142.94L53.8573 145.835L53.8347 140.414L58.8556 137.511Z" fill="#50C5FF"/>
</g>
<g style="mix-blend-mode:screen">
<path d="M58.8859 147.14L58.9009 152.569L53.8801 155.464L53.865 150.035L58.8859 147.14Z" fill="#50C5FF"/>
</g>
<g style="mix-blend-mode:screen">
<path d="M58.9161 156.769L58.9237 162.19L53.9103 165.093L53.8877 159.664L58.9161 156.769Z" fill="#50C5FF"/>
</g>
<g style="mix-blend-mode:screen">
<path d="M58.9389 166.39L58.9539 171.819L53.933 174.722L53.918 169.286L58.9389 166.39Z" fill="#50C5FF"/>
</g>
<g style="mix-blend-mode:screen">
<path d="M58.9611 176.019L58.9761 181.448L53.9628 184.351L53.9402 178.914L58.9611 176.019Z" fill="#50C5FF"/>
</g>
<g style="mix-blend-mode:screen">
<path d="M58.9989 185.648L59.0064 191.077L53.9855 193.972L53.9705 188.543L58.9989 185.648Z" fill="#50C5FF"/>
</g>
<g style="mix-blend-mode:screen">
<path d="M59.0216 195.269L59.0367 200.706L54.0158 203.601L54.0007 198.172L59.0216 195.269Z" fill="#50C5FF"/>
</g>
<g style="mix-blend-mode:screen">
<path d="M67.0504 94.2075L67.0655 99.644L62.0446 102.539L62.0295 97.1105L67.0504 94.2075Z" fill="#50C5FF"/>
</g>
<g style="mix-blend-mode:screen">
<path d="M67.0731 103.836L67.0882 109.265L62.0749 112.161L62.0522 106.739L67.0731 103.836Z" fill="#50C5FF"/>
</g>
<g style="mix-blend-mode:screen">
<path d="M67.1034 113.465L67.1185 118.894L62.1051 121.79L62.0825 116.361L67.1034 113.465Z" fill="#50C5FF"/>
</g>
<g style="mix-blend-mode:screen">
<path d="M67.1336 123.094L67.1487 128.516L62.1278 131.419L62.1052 125.99L67.1336 123.094Z" fill="#50C5FF"/>
</g>
<g style="mix-blend-mode:screen">
<path d="M67.1564 132.715L67.1715 138.144L62.1506 141.047L62.1355 135.618L67.1564 132.715Z" fill="#50C5FF"/>
</g>
<g style="mix-blend-mode:screen">
<path d="M67.1866 142.344L67.2017 147.773L62.1808 150.676L62.1658 145.24L67.1866 142.344Z" fill="#50C5FF"/>
</g>
<g style="mix-blend-mode:screen">
<path d="M67.2086 151.973L67.2313 157.402L62.2104 160.298L62.1953 154.869L67.2086 151.973Z" fill="#50C5FF"/>
</g>
<g style="mix-blend-mode:screen">
<path d="M67.2391 161.594L67.2542 167.031L62.2333 169.926L62.2183 164.497L67.2391 161.594Z" fill="#50C5FF"/>
</g>
<g style="mix-blend-mode:screen">
<path d="M67.2692 171.223L67.2767 176.652L62.2634 179.555L62.2483 174.126L67.2692 171.223Z" fill="#50C5FF"/>
</g>
<g style="mix-blend-mode:screen">
<path d="M67.2917 180.852L67.3143 186.281L62.2859 189.184L62.2783 183.748L67.2917 180.852Z" fill="#50C5FF"/>
</g>
<g style="mix-blend-mode:screen">
<path d="M67.3217 190.481L67.3367 195.91L62.3159 198.805L62.3008 193.377L67.3217 190.481Z" fill="#50C5FF"/>
</g>
<g style="mix-blend-mode:screen">
<path d="M75.4867 137.549L75.5018 142.978L70.4809 145.881L70.4658 140.444L75.4867 137.549Z" fill="#50C5FF"/>
</g>
<g style="mix-blend-mode:screen">
<path d="M75.5089 147.178L75.524 152.607L70.5031 155.51L70.4956 150.073L75.5089 147.178Z" fill="#50C5FF"/>
</g>
<g style="mix-blend-mode:screen">
<path d="M75.5392 156.799L75.5543 162.235L70.5334 165.138L70.5183 159.702L75.5392 156.799Z" fill="#50C5FF"/>
</g>
<g style="mix-blend-mode:screen">
<path d="M75.5695 166.428L75.5845 171.864L70.5637 174.76L70.5486 169.331L75.5695 166.428Z" fill="#50C5FF"/>
</g>
<g style="mix-blend-mode:screen">
<path d="M75.5922 176.057L75.6148 181.486L70.5939 184.389L70.5713 178.96L75.5922 176.057Z" fill="#50C5FF"/>
</g>
<g style="mix-blend-mode:screen">
<path d="M75.6224 185.686L75.6375 191.115L70.6166 194.017L70.6016 188.581L75.6224 185.686Z" fill="#50C5FF"/>
</g>
<g style="mix-blend-mode:screen">
<path d="M83.8922 171.261L83.9149 176.698L78.894 179.593L78.8789 174.164L83.8922 171.261Z" fill="#50C5FF"/>
</g>
<g style="mix-blend-mode:screen">
<path d="M83.9225 180.89L83.9376 186.319L78.9167 189.222L78.9016 183.793L83.9225 180.89Z" fill="#50C5FF"/>
</g>
<g style="mix-blend-mode:screen">
<path d="M92.1923 166.473L92.2074 171.902L87.194 174.797L87.179 169.368L92.1923 166.473Z" fill="#50C5FF"/>
</g>
<g style="mix-blend-mode:screen">
<path d="M92.215 176.102L92.2376 181.531L87.2167 184.426L87.2017 178.997L92.215 176.102Z" fill="#50C5FF"/>
</g>
<g style="mix-blend-mode:screen">
<path d="M100.41 132.798L100.432 138.227L95.404 141.13L95.3889 135.694L100.41 132.798Z" fill="#50C5FF"/>
</g>
<g style="mix-blend-mode:screen">
<path d="M100.44 142.427L100.455 147.856L95.4343 150.752L95.4192 145.323L100.44 142.427Z" fill="#50C5FF"/>
</g>
<g style="mix-blend-mode:screen">
<path d="M100.463 152.056L100.486 157.485L95.4648 160.381L95.4421 154.952L100.463 152.056Z" fill="#50C5FF"/>
</g>
<g style="mix-blend-mode:screen">
<path d="M100.493 161.677L100.508 167.114L95.4948 170.009L95.4722 164.58L100.493 161.677Z" fill="#50C5FF"/>
</g>
<g style="mix-blend-mode:screen">
<path d="M100.523 171.306L100.538 176.735L95.5175 179.638L95.5024 174.202L100.523 171.306Z" fill="#50C5FF"/>
</g>
<g style="mix-blend-mode:screen">
<path d="M108.627 99.1238L108.642 104.553L103.622 107.456L103.614 102.027L108.627 99.1238Z" fill="#50C5FF"/>
</g>
<g style="mix-blend-mode:screen">
<path d="M108.658 108.753L108.673 114.182L103.659 117.085L103.637 111.648L108.658 108.753Z" fill="#50C5FF"/>
</g>
<g style="mix-blend-mode:screen">
<path d="M108.687 118.381L108.702 123.81L103.682 126.706L103.659 121.277L108.687 118.381Z" fill="#50C5FF"/>
</g>
<g style="mix-blend-mode:screen">
<path d="M108.718 128.003L108.726 133.439L103.705 136.335L103.69 130.906L108.718 128.003Z" fill="#50C5FF"/>
</g>
<g style="mix-blend-mode:screen">
<path d="M108.74 137.632L108.755 143.061L103.735 145.964L103.719 140.535L108.74 137.632Z" fill="#50C5FF"/>
</g>
<g style="mix-blend-mode:screen">
<path d="M108.763 147.26L108.785 152.689L103.765 155.585L103.75 150.156L108.763 147.26Z" fill="#50C5FF"/>
</g>
<g style="mix-blend-mode:screen">
<path d="M108.793 156.889L108.808 162.318L103.787 165.214L103.78 159.785L108.793 156.889Z" fill="#50C5FF"/>
</g>
<g style="mix-blend-mode:screen">
<path d="M108.823 166.511L108.838 171.947L103.818 174.843L103.802 169.414L108.823 166.511Z" fill="#50C5FF"/>
</g>
<g style="mix-blend-mode:screen">
<path d="M116.875 75.078L116.89 80.507L111.877 83.4024L111.854 77.981L116.875 75.078Z" fill="#50C5FF"/>
</g>
<g style="mix-blend-mode:screen">
<path d="M116.905 84.7068L116.92 90.1358L111.899 93.0312L111.884 87.6022L116.905 84.7068Z" fill="#50C5FF"/>
</g>
<g style="mix-blend-mode:screen">
<path d="M116.928 94.3357L116.95 99.7647L111.929 102.66L111.907 97.2311L116.928 94.3357Z" fill="#50C5FF"/>
</g>
<g style="mix-blend-mode:screen">
<path d="M116.958 103.965L116.973 109.386L111.959 112.289L111.937 106.86L116.958 103.965Z" fill="#50C5FF"/>
</g>
<g style="mix-blend-mode:screen">
<path d="M116.988 113.586L117.003 119.015L111.982 121.918L111.967 116.481L116.988 113.586Z" fill="#50C5FF"/>
</g>
<g style="mix-blend-mode:screen">
<path d="M117.018 123.215L117.033 128.644L112.005 131.539L111.997 126.11L117.018 123.215Z" fill="#50C5FF"/>
</g>
<g style="mix-blend-mode:screen">
<path d="M117.041 132.844L117.056 138.273L112.035 141.168L112.02 135.739L117.041 132.844Z" fill="#50C5FF"/>
</g>
<g style="mix-blend-mode:screen">
<path d="M117.071 142.465L117.086 147.894L112.065 150.797L112.05 145.368L117.071 142.465Z" fill="#50C5FF"/>
</g>
<g style="mix-blend-mode:screen">
<path d="M117.101 152.094L117.108 157.523L112.095 160.426L112.073 154.997L117.101 152.094Z" fill="#50C5FF"/>
</g>
<g style="mix-blend-mode:screen">
<path d="M117.124 161.723L117.139 167.152L112.118 170.047L112.103 164.618L117.124 161.723Z" fill="#50C5FF"/>
</g>
<g style="mix-blend-mode:screen">
<path d="M125.341 128.048L125.356 133.477L120.343 136.372L120.32 130.944L125.341 128.048Z" fill="#1CF2EC"/>
</g>
<g style="mix-blend-mode:screen">
<path d="M125.371 137.677L125.386 143.106L120.365 146.001L120.343 140.572L125.371 137.677Z" fill="#50C5FF"/>
</g>
<g style="mix-blend-mode:screen">
<path d="M125.402 147.298L125.409 152.735L120.388 155.63L120.373 150.201L125.402 147.298Z" fill="#50C5FF"/>
</g>
<g style="mix-blend-mode:screen">
<path d="M125.424 156.927L125.439 162.356L120.418 165.259L120.403 159.823L125.424 156.927Z" fill="#50C5FF"/>
</g>
<g style="mix-blend-mode:screen">
<path d="M133.694 142.51L133.709 147.939L128.696 150.835L128.673 145.406L133.694 142.51Z" fill="#50C5FF"/>
</g>
<g style="mix-blend-mode:screen">
<path d="M133.724 152.131L133.732 157.568L128.719 160.463L128.704 155.034L133.724 152.131Z" fill="#50C5FF"/>
</g>
<g style="mix-blend-mode:screen">
<path d="M141.934 118.464L141.956 123.893L136.935 126.789L136.92 121.36L141.934 118.464Z" fill="#50C5FF"/>
</g>
<g style="mix-blend-mode:screen">
<path d="M141.964 128.086L141.987 133.522L136.966 136.418L136.943 130.989L141.964 128.086Z" fill="#50C5FF"/>
</g>
<g style="mix-blend-mode:screen">
<path d="M141.994 137.715L142.009 143.144L136.988 146.047L136.973 140.61L141.994 137.715Z" fill="#50C5FF"/>
</g>
<g style="mix-blend-mode:screen">
<path d="M142.017 147.344L142.04 152.772L137.019 155.675L136.996 150.239L142.017 147.344Z" fill="#50C5FF"/>
</g>
<g style="mix-blend-mode:screen">
<path d="M150.159 84.7898L150.174 90.2188L145.153 93.1142L145.138 87.6928L150.159 84.7898Z" fill="#50C5FF"/>
</g>
<g style="mix-blend-mode:screen">
<path d="M150.189 94.4111L150.204 99.8401L145.183 102.743L145.168 97.3141L150.189 94.4111Z" fill="#50C5FF"/>
</g>
<g style="mix-blend-mode:screen">
<path d="M150.219 104.04L150.234 109.469L145.213 112.372L145.198 106.935L150.219 104.04Z" fill="#50C5FF"/>
</g>
<g style="mix-blend-mode:screen">
<path d="M150.242 113.669L150.257 119.098L145.236 121.993L145.221 116.572L150.242 113.669Z" fill="#50C5FF"/>
</g>
<g style="mix-blend-mode:screen">
<path d="M150.272 123.298L150.287 128.727L145.267 131.622L145.251 126.193L150.272 123.298Z" fill="#50C5FF"/>
</g>
<g style="mix-blend-mode:screen">
<path d="M150.295 132.919L150.31 138.356L145.289 141.251L145.274 135.822L150.295 132.919Z" fill="#50C5FF"/>
</g>
<g style="mix-blend-mode:screen">
<path d="M150.325 142.548L150.34 147.977L145.319 150.88L145.304 145.451L150.325 142.548Z" fill="#50C5FF"/>
</g>
<g style="mix-blend-mode:screen">
<path d="M158.346 41.4863L158.369 46.9228L153.34 49.8183L153.325 44.3818L158.346 41.4863Z" fill="#50C5FF"/>
</g>
<g style="mix-blend-mode:screen">
<path d="M158.384 51.1151L158.391 56.5441L153.371 59.4395L153.355 54.0106L158.384 51.1151Z" fill="#50C5FF"/>
</g>
<g style="mix-blend-mode:screen">
<path d="M158.399 60.744L158.421 66.173L153.401 69.0684L153.385 63.6395L158.399 60.744Z" fill="#50C5FF"/>
</g>
<g style="mix-blend-mode:screen">
<path d="M158.429 70.3729L158.444 75.7943L153.424 78.6973L153.408 73.2684L158.429 70.3729Z" fill="#50C5FF"/>
</g>
<g style="mix-blend-mode:screen">
<path d="M158.459 79.9941L158.474 85.4231L153.454 88.3261L153.438 82.8971L158.459 79.9941Z" fill="#50C5FF"/>
</g>
<g style="mix-blend-mode:screen">
<path d="M158.482 89.623L158.504 95.052L153.483 97.955L153.468 92.5185L158.482 89.623Z" fill="#50C5FF"/>
</g>
<g style="mix-blend-mode:screen">
<path d="M158.512 99.252L158.527 104.673L153.514 107.576L153.491 102.147L158.512 99.252Z" fill="#50C5FF"/>
</g>
<g style="mix-blend-mode:screen">
<path d="M158.542 108.873L158.557 114.302L153.536 117.205L153.521 111.776L158.542 108.873Z" fill="#50C5FF"/>
</g>
<g style="mix-blend-mode:screen">
<path d="M158.572 118.502L158.587 123.931L153.559 126.834L153.544 121.398L158.572 118.502Z" fill="#50C5FF"/>
</g>
<g style="mix-blend-mode:screen">
<path d="M158.595 128.131L158.61 133.56L153.589 136.455L153.574 131.026L158.595 128.131Z" fill="#50C5FF"/>
</g>
<g style="mix-blend-mode:screen">
<path d="M158.625 137.752L158.64 143.189L153.619 146.084L153.604 140.655L158.625 137.752Z" fill="#50C5FF"/>
</g>
<g style="mix-blend-mode:screen">
<path d="M58.7731 108.632L58.7882 114.061L53.7673 116.956L53.7522 111.527L58.7731 108.632Z" fill="#EE4BF7"/>
</g>
<g style="mix-blend-mode:screen">
<path d="M67.0201 84.5862L67.0352 90.0151L62.0219 92.9181L61.9993 87.4816L67.0201 84.5862Z" fill="#EE4BF7"/>
</g>
<g style="mix-blend-mode:screen">
<path d="M75.4565 127.927L75.4715 133.349L70.4507 136.252L70.4431 130.823L75.4565 127.927Z" fill="#EE4BF7"/>
</g>
<g style="mix-blend-mode:screen">
<path d="M83.87 161.64L83.8851 167.069L78.8642 169.964L78.8491 164.535L83.87 161.64Z" fill="#EE4BF7"/>
</g>
<g style="mix-blend-mode:screen">
<path d="M100.387 123.17L100.402 128.606L95.3813 131.501L95.3662 126.073L100.387 123.17Z" fill="#EE4BF7"/>
</g>
<g style="mix-blend-mode:screen">
<path d="M108.605 89.5024L108.612 94.9239L103.599 97.8269L103.584 92.3979L108.605 89.5024Z" fill="#EE4BF7"/>
</g>
<g style="mix-blend-mode:screen">
<path d="M116.852 65.4491L116.867 70.8856L111.846 73.781L111.831 68.3521L116.852 65.4491Z" fill="#EE4BF7"/>
</g>
<g style="mix-blend-mode:screen">
<path d="M125.311 118.419L125.333 123.848L120.305 126.751L120.297 121.322L125.311 118.419Z" fill="#EE4BF7"/>
</g>
<g style="mix-blend-mode:screen">
<path d="M141.919 108.836L141.927 114.265L136.906 117.16L136.891 111.731L141.919 108.836Z" fill="#EE4BF7"/>
</g>
<g style="mix-blend-mode:screen">
<path d="M150.129 75.1609L150.151 80.5898L145.13 83.4853L145.108 78.0639L150.129 75.1609Z" fill="#EE4BF7"/>
</g>
<g style="mix-blend-mode:screen">
<path d="M158.324 31.8574L158.339 37.2939L153.318 40.1894L153.303 34.7604L158.324 31.8574Z" fill="#EE4BF7"/>
</g>
<g style="mix-blend-mode:screen">
<path d="M166.842 104.078L166.857 109.514L161.836 112.41L161.821 106.981L166.842 104.078Z" fill="#EE4BF7"/>
</g>
<g style="mix-blend-mode:screen">
<path d="M166.865 113.707L166.888 119.136L161.867 122.038L161.852 116.61L166.865 113.707Z" fill="#50C5FF"/>
</g>
<g style="mix-blend-mode:screen">
<path d="M166.895 123.335L166.91 128.764L161.89 131.667L161.875 126.231L166.895 123.335Z" fill="#50C5FF"/>
</g>
<g style="mix-blend-mode:screen">
<path d="M166.925 132.964L166.94 138.393L161.92 141.289L161.905 135.86L166.925 132.964Z" fill="#50C5FF"/>
</g>
</g>
<path d="M472.43 370.225L361.164 434.498C353.263 439.022 340.5 439.022 332.652 434.498L89.6143 293.239C85.7167 290.977 83.7717 288.006 83.7642 285.036C83.7647 286.141 83.8989 287.242 84.1637 288.316C84.4539 289.468 84.8976 290.576 85.483 291.611C85.847 292.232 86.2578 292.824 86.7119 293.383C87.1255 293.888 87.5686 294.369 88.0387 294.823C88.9164 295.636 89.8853 296.344 90.9261 296.934L285.361 409.909L333.964 438.162C334.731 438.607 335.527 439 336.346 439.339C337.569 439.844 338.829 440.252 340.115 440.56C342.34 441.075 344.617 441.328 346.9 441.314C351.421 441.385 355.885 440.298 359.867 438.155L382.122 425.336L393.249 418.905L471.133 373.927C471.714 373.573 472.483 373.068 473.033 372.668C473.419 372.377 473.789 372.065 474.141 371.733C475.034 370.904 475.81 369.958 476.448 368.921C477.728 366.824 478.394 364.41 478.371 361.953C478.386 364.947 476.403 367.963 472.43 370.225Z" fill="url(#paint6_linear_210_54)"/>
<path d="M478.378 360.649C478.378 363.665 476.396 366.681 472.423 368.943L361.156 433.216C353.263 437.74 340.492 437.74 332.652 433.216L89.6143 291.95C85.7167 289.688 83.7641 286.724 83.7566 283.746C83.7566 284.183 83.7566 284.606 83.7566 285.035C83.7566 288.006 85.7167 290.97 89.6067 293.239L332.652 434.498C340.5 439.022 353.263 439.022 361.164 434.498L472.43 370.225C476.403 367.963 478.386 364.947 478.378 361.931V360.649Z" fill="url(#paint7_linear_210_54)"/>
<path d="M92.3658 271.833C85.9578 275.527 85.9201 281.544 92.2904 285.239L335.321 426.505C341.683 430.207 352.064 430.207 358.472 426.505C395.559 405.071 432.647 383.654 469.739 362.255C476.147 358.553 476.177 352.543 469.814 348.848L226.776 207.582C220.413 203.88 210.04 203.88 203.632 207.582L92.3658 271.833Z" fill="url(#paint8_linear_210_54)"/>
<path d="M478.25 358.952C478.179 358.404 478.078 357.861 477.949 357.324C477.66 356.186 477.219 355.093 476.637 354.074C476.017 353.011 475.257 352.037 474.375 351.178C473.417 350.25 472.346 349.447 471.186 348.788L301.087 249.898L276.782 235.775L228.179 207.522C227.979 207.402 227.749 207.341 227.515 207.349C227.749 207.341 227.979 207.402 228.179 207.522C227.414 207.074 226.617 206.681 225.797 206.346C224.574 205.84 223.314 205.432 222.027 205.124C217.579 204.104 212.958 204.104 208.51 205.124C206.334 205.625 204.24 206.433 202.29 207.522L124.376 252.492L113.249 258.916L102.122 265.34L90.9942 271.765C90.4213 272.119 89.6599 272.602 89.1246 273.009C88.644 273.381 88.1834 273.779 87.745 274.2C86.9438 274.98 86.2423 275.856 85.6567 276.809C84.3967 278.902 83.7393 281.303 83.7569 283.746C83.7569 286.724 85.717 289.68 89.6146 291.95L332.652 433.216C340.493 437.74 353.264 437.74 361.157 433.216L472.423 368.966C476.396 366.666 478.386 363.688 478.379 360.671C478.373 360.096 478.33 359.522 478.25 358.952V358.952ZM469.724 362.255L358.473 426.505C352.065 430.207 341.684 430.207 335.321 426.505L92.2608 285.239C85.8904 281.544 85.9281 275.527 92.3362 271.833L203.632 207.582C210.04 203.88 220.414 203.88 226.777 207.582L469.814 348.848C476.177 352.543 476.147 358.553 469.739 362.255H469.724Z" fill="url(#paint9_linear_210_54)"/>
<path d="M100.237 281.869C97.8017 283.271 97.7866 285.556 100.237 286.958L328.106 419.613C329.466 420.308 330.971 420.671 332.498 420.671C334.025 420.671 335.53 420.308 336.889 419.613L458.31 349.489C460.753 348.079 460.76 345.802 458.348 344.392L230.455 211.752C229.093 211.057 227.586 210.695 226.057 210.695C224.527 210.695 223.02 211.057 221.658 211.752L100.237 281.869Z" fill="url(#paint10_linear_210_54)"/>
<path d="M129.638 199.786V228.522L104.594 214.082V185.346L129.638 199.786Z" fill="#25A9F2"/>
<path d="M129.638 199.786V228.522L154.682 214.082V185.346L129.638 199.786Z" fill="#3BC9F8"/>
<path d="M129.713 170.899L154.675 185.407L129.548 199.914L104.594 185.407L129.713 170.899Z" fill="#1F9FEA"/>
<path d="M373.46 193.218L370.595 201.113L370.482 201.414L373.347 193.527L373.46 193.218Z" fill="#4B4A4A"/>
<path d="M307.902 124.346L307.978 153.082L332.984 138.642L332.901 109.906L307.902 124.346Z" fill="url(#paint11_linear_210_54)"/>
<path d="M361.352 186.146L386.193 200.585L361.186 215.025L336.346 200.585L361.352 186.146Z" fill="url(#paint12_linear_210_54)"/>
<path d="M199.222 186.56L224.062 201L199.056 215.439L174.215 201L199.222 186.56Z" fill="url(#paint13_linear_210_54)"/>
<path d="M305.806 62.5161V91.2519L280.762 76.8123V48.0765L305.806 62.5161Z" fill="#25A9F2"/>
<path d="M305.806 62.5161V91.2519L330.85 76.8123V48.0765L305.806 62.5161Z" fill="#3BC9F8"/>
<path d="M305.882 33.6294L330.843 48.1368L305.724 62.6442L280.77 48.1368L305.882 33.6294Z" fill="#1F9FEA"/>
<path d="M225.239 263.38L225.156 292.116L200.149 277.676L200.232 248.94L225.239 263.38Z" fill="#25A9F2"/>
<path d="M225.329 232.54L225.246 261.276L200.24 246.837L200.323 218.101L225.329 232.54Z" fill="#25A9F2"/>
<path d="M252.077 278.875L251.994 307.611L226.988 293.171L227.07 264.428L252.077 278.875Z" fill="#25A9F2"/>
<path d="M279.172 201.852L279.089 230.588L254.082 216.148L254.165 187.412L279.172 201.852Z" fill="#25A9F2"/>
<path d="M279.081 232.691L279.005 261.427L253.999 246.988L254.074 218.252L279.081 232.691Z" fill="#25A9F2"/>
<path d="M278.998 263.531L278.915 292.267L253.909 277.827L253.992 249.091L278.998 263.531Z" fill="#25A9F2"/>
<path d="M278.908 294.37L278.825 323.106L253.818 308.667L253.901 279.931L278.908 294.37Z" fill="#25A9F2"/>
<path d="M198.49 217.045L198.408 245.774L173.409 231.342L173.492 202.606L198.49 217.045Z" fill="#25A9F2"/>
<path d="M252.333 186.357L252.258 215.092L227.251 200.653L227.327 171.917L252.333 186.357Z" fill="#25A9F2"/>
<path d="M252.25 217.196L252.167 245.932L227.161 231.485L227.244 202.757L252.25 217.196Z" fill="#25A9F2"/>
<path d="M361.48 247.885L361.556 276.621L386.562 262.181L386.479 233.445L361.48 247.885Z" fill="#3BC9F8"/>
<path d="M334.378 170.854L334.461 199.597L359.468 185.158L359.385 156.414L334.378 170.854Z" fill="#3BC9F8"/>
<path d="M334.469 201.701L334.544 230.437L359.558 215.99L359.475 187.261L334.469 201.701Z" fill="#3BC9F8"/>
<path d="M280.709 201.852L280.792 230.588L305.799 216.148L305.716 187.412L280.709 201.852Z" fill="#3BC9F8"/>
<path d="M280.8 232.691L280.875 261.427L305.881 246.988L305.798 218.252L280.8 232.691Z" fill="#3BC9F8"/>
<path d="M280.883 263.531L280.966 292.267L305.972 277.827L305.889 249.091L280.883 263.531Z" fill="#3BC9F8"/>
<path d="M307.683 247.87L307.766 276.598L332.773 262.166L332.69 233.43L307.683 247.87Z" fill="#3BC9F8"/>
<path d="M280.973 294.37L281.056 323.106L306.063 308.667L305.98 279.931L280.973 294.37Z" fill="#3BC9F8"/>
<path d="M361.391 217.045L361.474 245.774L386.472 231.342L386.39 202.606L361.391 217.045Z" fill="#3BC9F8"/>
<path d="M307.54 186.357L307.623 215.092L332.629 200.653L332.546 171.917L307.54 186.357Z" fill="#3BC9F8"/>
<path d="M306.598 156L331.438 170.432L306.432 184.871L281.592 170.432L306.598 156Z" fill="#1F9FEA"/>
<path d="M333.429 140.505L358.269 154.937L333.27 169.376L308.43 154.944L333.429 140.505Z" fill="#1F9FEA"/>
<path d="M360.267 125.009L385.1 139.441L360.101 153.881L335.26 139.441L360.267 125.009Z" fill="#1F9FEA"/>
<path d="M306.944 94.0116L331.785 108.451L306.786 122.891L281.938 108.451L306.944 94.0116Z" fill="#1F9FEA"/>
<path d="M253.449 94.0116L278.297 108.451L253.29 122.891L228.442 108.451L253.449 94.0116Z" fill="#1F9FEA"/>
<path d="M280.114 109.507L304.954 123.946L279.948 138.386L255.107 123.946L280.114 109.507Z" fill="#1F9FEA"/>
<path d="M306.771 125.002L331.612 139.441L306.605 153.881L281.765 139.441L306.771 125.002Z" fill="#1F9FEA"/>
<path d="M279.933 140.505L304.781 154.944L279.775 169.376L254.934 154.937L279.933 140.505Z" fill="#1F9FEA"/>
<path d="M279.722 140.814L304.57 155.253L279.564 169.693L254.723 155.253L279.722 140.814Z" fill="#1F9FEA"/>
<path d="M225.698 139.894L225.615 168.637L200.609 154.198L200.684 125.454L225.698 139.894Z" fill="url(#paint14_linear_210_54)"/>
<path d="M253.102 155.992L277.943 170.432L252.936 184.879L228.096 170.432L253.102 155.992Z" fill="#1F9FEA"/>
<path d="M279.76 171.495L304.6 185.927L279.594 200.366L254.761 185.934L279.76 171.495Z" fill="#1F9FEA"/>
<path d="M226.618 109.507L251.459 123.946L226.452 138.386L201.612 123.946L226.618 109.507Z" fill="#1F9FEA"/>
<path d="M307.744 217.083L307.827 245.819L332.833 231.379L332.75 202.643L307.744 217.083Z" fill="url(#paint15_linear_210_54)"/>
<path d="M307.744 217.083L307.827 245.819L332.833 231.379V231.357L307.932 216.977L307.744 217.083Z" fill="url(#paint16_linear_210_54)"/>
<path d="M252.145 248.239L252.069 276.968L227.063 262.528L227.138 233.8L252.145 248.239Z" fill="url(#paint17_linear_210_54)"/>
<path d="M252.145 248.239L252.069 276.968L227.063 262.528V262.498L251.956 248.126L252.145 248.239Z" fill="url(#paint18_linear_210_54)"/>
<path d="M253.155 124.874L277.995 139.313L252.989 153.753L228.148 139.313L253.155 124.874Z" fill="url(#paint19_linear_210_54)"/>
<path d="M253.147 153.662L277.996 139.313L253.155 124.874H253.147V153.662Z" fill="url(#paint20_linear_210_54)"/>
<path d="M334.552 232.54L334.635 261.276L359.641 246.837L359.558 218.101L334.552 232.54Z" fill="#3BC9F8"/>
<path style="mix-blend-mode:screen" opacity="0.7" d="M427.755 256.714L332.871 202.628L307.797 217.106L307.744 217.075V245.811L402.764 299.86L427.808 285.42V256.684L427.755 256.714Z" fill="url(#paint21_linear_210_54)"/>
<path style="mix-blend-mode:screen" opacity="0.7" d="M132.164 287.871L227.048 233.785L252.115 248.254L252.167 248.224V276.96L157.148 331.016L132.104 316.576V287.833L132.164 287.871Z" fill="url(#paint22_linear_210_54)"/>
<path style="mix-blend-mode:screen" opacity="0.7" d="M277.958 45.9878L253.049 31.5031L227.983 45.9803L227.93 45.9501V139.306L252.974 153.745L278.018 139.306V45.9501L277.958 45.9878Z" fill="url(#paint23_linear_210_54)"/>
<path d="M226.445 140.497L251.285 154.937L226.279 169.376L201.438 154.937L226.445 140.497Z" fill="#1F9FEA"/>
<path d="M361.217 155.359L361.293 184.102L386.299 169.663L386.216 140.927L361.217 155.359Z" fill="#3BC9F8"/>
<path style="mix-blend-mode:screen" opacity="0.4" d="M255.002 432.108L279.91 446.585L304.977 432.108L305.03 432.138V338.79L279.985 324.35L254.941 338.79V432.138L255.002 432.108Z" fill="url(#paint24_linear_210_54)"/>
<path d="M279.985 353.229V381.965L254.941 367.533V338.79L279.985 353.229Z" fill="#25A9F2"/>
<path d="M279.986 353.229V381.965L305.03 367.533V338.79L279.986 353.229Z" fill="#3BC9F8"/>
<path d="M280.068 324.35L305.022 338.85L279.903 353.365L254.949 338.85L280.068 324.35Z" fill="#1F9FEA"/>
<path d="M307.812 278.875L307.887 307.611L332.893 293.171L332.81 264.428L307.812 278.875Z" fill="#3BC9F8"/>
<path d="M225.419 201.701L225.336 230.437L200.33 215.99L200.405 187.261L225.419 201.701Z" fill="#25A9F2"/>
<path d="M225.502 170.854L225.419 199.597L200.413 185.158L200.496 156.414L225.502 170.854Z" fill="#25A9F2"/>
<path d="M169.067 140.045V168.78L144.03 154.348V125.605L169.067 140.045Z" fill="#25A9F2"/>
<path d="M169.066 140.045V168.78L194.11 154.348V125.605L169.066 140.045Z" fill="#3BC9F8"/>
<path d="M169.15 111.166L194.103 125.665L168.984 140.173L144.03 125.665L169.15 111.166Z" fill="#1F9FEA"/>
<path style="mix-blend-mode:screen" opacity="0.4" d="M446.459 341.542L351.575 287.456L326.508 301.933L326.455 301.903V330.639L421.475 384.687L446.519 370.248V341.512L446.459 341.542Z" fill="url(#paint25_linear_210_54)"/>
<path d="M351.499 316.335V345.071L326.455 330.639V301.903L351.499 316.335Z" fill="#25A9F2"/>
<path d="M351.499 316.335V345.071L376.536 330.639V301.903L351.499 316.335Z" fill="#3BC9F8"/>
<path d="M351.575 287.456L376.528 301.963L351.409 316.463L326.455 301.963L351.575 287.456Z" fill="#1F9FEA"/>
<path style="mix-blend-mode:screen" opacity="0.4" d="M448.087 261.51L407.656 238.467L396.974 244.635L396.951 244.62V256.865L437.442 279.893L448.117 273.748V261.503L448.087 261.51Z" fill="url(#paint26_linear_210_54)"/>
<path d="M407.626 250.773V263.018L396.951 256.865V244.62L407.626 250.773Z" fill="#25A9F2"/>
<path d="M407.626 250.773V263.018L418.293 256.865V244.62L407.626 250.773Z" fill="#3BC9F8"/>
<path d="M407.656 238.467L418.294 244.643L407.589 250.826L396.951 244.643L407.656 238.467Z" fill="#1F9FEA"/>
<path style="mix-blend-mode:screen" opacity="0.4" d="M307.359 38.8925L266.921 15.842L256.238 22.0099L256.216 21.9949V34.2402L296.707 57.2756L307.382 51.1227V38.8774L307.359 38.8925Z" fill="url(#paint27_linear_210_54)"/>
<path d="M266.891 28.1477V40.393L256.216 34.2402V21.9949L266.891 28.1477Z" fill="#25A9F2"/>
<path d="M266.891 28.1477V40.393L277.558 34.2402V21.9949L266.891 28.1477Z" fill="#3BC9F8"/>
<path d="M266.921 15.842L277.558 22.0175L266.853 28.2005L256.216 22.0175L266.921 15.842Z" fill="#1F9FEA"/>
<path style="mix-blend-mode:screen" opacity="0.4" d="M98.7814 68.1485L139.665 44.8492L150.46 51.085L150.483 51.0699V63.451L109.547 86.7352L98.7588 80.5145V68.1335L98.7814 68.1485Z" fill="url(#paint28_linear_210_54)"/>
<path d="M139.695 57.2906V69.6717L150.483 63.451V51.0699L139.695 57.2906Z" fill="#25A9F2"/>
<path d="M139.695 57.2906V69.6717L128.907 63.451V51.0699L139.695 57.2906Z" fill="#3BC9F8"/>
<path d="M139.665 44.8492L128.907 51.0925L139.733 57.3434L150.483 51.0925L139.665 44.8492Z" fill="#1F9FEA"/>
<path d="M496.999 337.357L495.763 336.603L496.019 336.166L497.256 336.92L496.999 337.357ZM494.519 335.894L493.283 335.14L493.539 334.703L494.775 335.457L494.519 335.894ZM492.046 334.386L490.81 333.632L491.066 333.278L492.303 334.032L492.046 334.386ZM489.558 332.961L488.322 332.207L488.578 331.777L489.815 332.531L489.558 332.961ZM487.086 331.491L485.842 330.737L486.106 330.3L487.342 331.054L487.086 331.491ZM484.605 330.021L483.369 329.267L483.625 328.837L484.869 329.591L484.605 330.021ZM482.133 328.558L480.889 327.804L481.153 327.366L482.389 328.12L482.133 328.558ZM479.652 327.087L478.416 326.333L478.672 325.896L479.909 326.65L479.652 327.087ZM477.18 325.625L475.943 324.871L476.2 324.433L477.436 325.187L477.18 325.625ZM474.699 324.117L473.463 323.363L473.719 322.933L474.956 323.687L474.699 324.117ZM472.219 322.722L470.975 321.968L471.239 321.53L472.475 322.284L472.219 322.722ZM469.754 321.214L468.517 320.46L468.774 320.022L470.01 320.776L469.754 321.214ZM467.281 319.751L466.037 318.997L466.301 318.567L467.537 319.321L467.281 319.751ZM464.801 318.28L463.564 317.526L463.821 317.089L465.057 317.843L464.801 318.28ZM462.328 316.818L461.084 316.064L461.348 315.634L462.584 316.388L462.328 316.818ZM459.848 315.347L458.611 314.593L458.868 314.156L460.104 314.91L459.848 315.347ZM457.375 313.884L456.131 313.13L456.395 312.701L457.631 313.455L457.375 313.884ZM454.895 312.376L453.658 311.622L453.915 311.185L455.151 311.939L454.895 312.376ZM452.422 310.914L451.178 310.16L451.434 309.722L452.678 310.476L452.422 310.914ZM449.942 309.443L448.705 308.689L448.962 308.252L450.198 309.006L449.942 309.443ZM447.469 307.973L446.225 307.219L446.489 306.789L447.725 307.543L447.469 307.973ZM444.989 306.51L443.752 305.756L444.009 305.319L445.245 306.073L444.989 306.51ZM442.516 305.047L441.272 304.293L441.536 303.856L442.772 304.61L442.516 305.047ZM440.036 303.577L438.799 302.823L439.056 302.386L440.292 303.14L440.036 303.577ZM437.54 302.152L436.296 301.398L436.56 300.961L437.797 301.715L437.54 302.152ZM435.06 300.689L433.824 299.935L434.08 299.498L435.316 300.252L435.06 300.689ZM432.587 299.219L431.343 298.465L431.6 298.027L432.844 298.781L432.587 299.219ZM430.107 297.756L428.871 297.002L429.127 296.572L430.363 297.326L430.107 297.756ZM427.634 296.286L426.39 295.532L426.647 295.094L427.891 295.848L427.634 296.286ZM425.177 294.823L423.97 294.069L424.227 293.639L425.463 294.393L425.177 294.823ZM422.696 293.352L421.46 292.598L421.716 292.161L422.96 292.915L422.696 293.352ZM420.201 291.882L418.965 291.128L419.221 290.698L420.457 291.452L420.201 291.882ZM417.728 290.419L416.484 289.665L416.748 289.228L417.984 289.982L417.728 290.419ZM415.248 288.956L414.011 288.202L414.268 287.765L415.504 288.519L415.248 288.956Z" fill="#FF6680"/>
<path d="M413.039 279.162L417.856 281.944L413.039 284.734L408.244 281.944L413.039 279.162Z" fill="#FF76A7"/>
<path d="M417.856 281.944V287.984L413.039 290.766V284.734L417.856 281.944Z" fill="url(#paint29_linear_210_54)"/>
<path d="M413.039 284.734V290.766L408.244 287.984V281.944L413.039 284.734Z" fill="#A943FF"/>
<path d="M440.692 295.464L445.517 298.246L440.692 301.028L435.905 298.246L440.692 295.464Z" fill="#FF76A7"/>
<path d="M445.517 298.246V304.278L440.692 307.061V301.028L445.517 298.246Z" fill="url(#paint30_linear_210_54)"/>
<path d="M440.692 301.028V307.061L435.905 304.278V298.246L440.692 301.028Z" fill="#A943FF"/>
<path d="M468.352 311.758L473.176 314.54L468.352 317.33L463.557 314.54L468.352 311.758Z" fill="#FF76A7"/>
<path d="M473.176 314.54V320.58L468.351 323.362V317.33L473.176 314.54Z" fill="url(#paint31_linear_210_54)"/>
<path d="M468.351 317.33V323.362L463.557 320.58V314.54L468.351 317.33Z" fill="#A943FF"/>
<path d="M496.004 328.06L500.829 330.842L496.004 333.625L491.217 330.842L496.004 328.06Z" fill="#FF76A7"/>
<path d="M500.829 330.842V336.875L496.004 339.657V333.625L500.829 330.842Z" fill="url(#paint32_linear_210_54)"/>
<path d="M496.004 333.625V339.657L491.217 336.875V330.842L496.004 333.625Z" fill="#A943FF"/>
<path d="M286.047 421.25L287.283 420.496L287.54 420.925L286.303 421.679L286.047 421.25ZM288.527 419.787L289.764 419.033L290.02 419.47L288.783 420.224L288.527 419.787ZM291 418.279L292.236 417.525L292.493 417.955L291.256 418.709L291 418.279ZM293.48 416.808L294.717 416.054L294.973 416.492L293.737 417.246L293.48 416.808ZM295.953 415.346L297.189 414.592L297.453 415.021L296.209 415.775L295.953 415.346ZM298.426 413.883L299.67 413.129L299.926 413.566L298.69 414.32L298.426 413.883ZM300.906 412.375L302.142 411.621L302.406 412.051L301.162 412.805L300.906 412.375ZM303.386 410.867L304.623 410.113L304.879 410.543L303.643 411.297L303.386 410.867ZM305.859 409.404L307.095 408.65L307.352 409.08L306.115 409.834L305.859 409.404ZM308.339 407.896L309.576 407.142L309.832 407.579L308.596 408.333L308.339 407.896ZM310.812 406.433L312.048 405.679L312.305 406.116L311.068 406.87L310.812 406.433ZM313.292 404.925L314.529 404.171L314.785 404.608L313.549 405.362L313.292 404.925ZM315.765 403.462L317.001 402.708L317.265 403.146L316.021 403.9L315.765 403.462ZM318.245 401.954L319.482 401.2L319.738 401.638L318.502 402.392L318.245 401.954ZM320.718 400.446L321.954 399.692L322.218 400.129L320.974 400.883L320.718 400.446ZM323.198 398.983L324.435 398.229L324.691 398.659L323.455 399.413L323.198 398.983ZM325.671 397.475L326.908 396.721L327.171 397.159L325.927 397.913L325.671 397.475ZM328.151 396.013L329.388 395.259L329.644 395.688L328.408 396.442L328.151 396.013ZM330.624 394.504L331.868 393.75L332.117 394.18L330.888 394.934L330.624 394.504ZM333.104 393.042L334.341 392.288L334.597 392.717L333.361 393.471L333.104 393.042ZM335.577 391.534L336.814 390.78L337.077 391.217L335.834 391.971L335.577 391.534ZM338.057 390.071L339.294 389.317L339.55 389.754L338.314 390.508L338.057 390.071ZM340.53 388.563L341.767 387.809L342.03 388.239L340.787 388.993L340.53 388.563ZM343.01 387.055L344.247 386.301L344.503 386.738L343.267 387.492L343.01 387.055ZM345.483 385.592L346.72 384.838L346.983 385.275L345.74 386.029L345.483 385.592ZM347.964 384.084L349.2 383.33L349.456 383.767L348.22 384.521L347.964 384.084ZM350.436 382.621L351.68 381.867L351.937 382.304L350.7 383.058L350.436 382.621ZM352.917 381.151L354.153 380.397L354.409 380.834L353.173 381.588L352.917 381.151ZM355.367 380.178L356.611 379.424L356.867 379.854L355.623 380.608L355.367 380.178ZM357.847 378.708L359.083 377.954L359.34 378.391L358.103 379.145L357.847 378.708ZM360.32 377.245L361.564 376.491L361.82 376.928L360.584 377.682L360.32 377.245ZM362.8 375.775L364.036 375.021L364.293 375.458L363.056 376.212L362.8 375.775ZM365.273 374.312L366.517 373.558L366.773 373.988L365.529 374.742L365.273 374.312ZM367.753 372.841L368.989 372.087L369.246 372.517L368.009 373.271L367.753 372.841Z" fill="#FF6680"/>
<path d="M370.264 363.484L365.446 366.274L370.264 369.056L375.058 366.274L370.264 363.484Z" fill="#FF76A7"/>
<path d="M365.446 366.274V372.306L370.264 375.088V369.056L365.446 366.274Z" fill="url(#paint33_linear_210_54)"/>
<path d="M370.264 369.056V375.088L375.058 372.306V366.274L370.264 369.056Z" fill="#A943FF"/>
<path d="M342.611 379.786L337.786 382.568L342.611 385.358L347.398 382.568L342.611 379.786Z" fill="#FF76A7"/>
<path d="M337.786 382.568V388.601L342.611 391.39V385.358L337.786 382.568Z" fill="url(#paint34_linear_210_54)"/>
<path d="M342.611 385.358V391.39L347.398 388.601V382.568L342.611 385.358Z" fill="#A943FF"/>
<path d="M314.951 396.088L310.126 398.87L314.951 401.653L319.746 398.87L314.951 396.088Z" fill="#FF76A7"/>
<path d="M310.126 398.87V404.903L314.951 407.685V401.653L310.126 398.87Z" fill="url(#paint35_linear_210_54)"/>
<path d="M314.951 401.653V407.685L319.746 404.903V398.87L314.951 401.653Z" fill="#A943FF"/>
<path d="M287.298 412.382L282.473 415.172L287.298 417.955L292.085 415.172L287.298 412.382Z" fill="#FF76A7"/>
<path d="M282.473 415.172V421.204L287.298 423.987V417.955L282.473 415.172Z" fill="url(#paint36_linear_210_54)"/>
<path d="M287.298 417.955V423.987L292.085 421.204V415.172L287.298 417.955Z" fill="#A943FF"/>
<path d="M104.82 222.18L103.81 221.947C102.815 222.892 101.715 223.719 100.53 224.412C99.576 224.978 98.517 225.346 97.4171 225.492C96.3172 225.638 95.1991 225.561 94.1299 225.264L93.2026 225.792C90.9409 228.982 88.815 231.176 86.8172 232.329C85.7991 232.938 84.6928 233.386 83.5378 233.656L82.52 235.059C82.52 235.692 82.52 236.318 82.52 236.929C82.5728 255.908 89.4708 256.752 93.5871 255.561L93.964 255.342C98.0651 251.791 104.941 242.991 104.888 224.013C104.858 223.394 104.85 222.783 104.82 222.18ZM93.768 253.653C87.556 255.304 84.1183 249.061 84.0806 236.024V235.368C85.0455 235.056 85.9733 234.639 86.8473 234.124C89.0411 232.857 91.3706 230.58 93.6926 227.338C96.04 227.847 98.4931 227.442 100.553 226.207C101.528 225.64 102.451 224.99 103.312 224.261C103.312 224.48 103.312 224.699 103.312 224.91C103.335 237.947 99.9499 248.141 93.768 253.653Z" fill="url(#paint37_linear_210_54)"/>
<path d="M189.814 88.8465C189.814 91.9833 190.779 94.4866 192.663 96.2963C195.038 98.5583 201.536 104.591 201.604 104.658L202.358 105.345L203.112 103.837C203.18 103.701 209.626 90.1887 211.978 85.1895C213.84 81.2158 214.782 77.6493 214.775 74.4824C214.775 66.5878 209.151 63.3907 202.283 67.3569C195.415 71.3231 189.791 80.9519 189.814 88.8465ZM192.724 87.1651C192.724 81.1329 196.968 73.7359 202.238 70.6897C207.507 67.6434 211.797 70.0865 211.812 76.1413C211.827 82.1961 207.605 89.5779 202.328 92.6242C197.051 95.6704 192.739 93.2274 192.724 87.1651Z" fill="url(#paint38_linear_210_54)"/>
<g style="mix-blend-mode:lighten">
<path style="mix-blend-mode:lighten" d="M132.292 293.533C148.598 284.123 182.455 293.601 194.057 292.553L209.572 301.564L243.791 321.462L112.065 397.528L77.8384 377.637L66.7412 371.19C66.6281 370.61 64.3816 359.571 78.5245 351.405C84.6083 347.891 93.7454 345.018 107.436 343.993C114.975 343.419 120.086 342.07 123.411 340.155C140.064 330.541 112.381 306.57 131.296 294.159C131.621 293.941 131.952 293.729 132.292 293.533Z" fill="url(#paint39_linear_210_54)"/>
</g>
<path d="M222.396 343.495L224.16 344.52L217.089 348.6L215.325 347.574L222.396 343.495Z" fill="#27FFF9"/>
<path d="M189.497 362.489L191.268 363.514L184.197 367.594L182.433 366.568L189.497 362.489Z" fill="#27FFF9"/>
<path d="M156.605 381.49L158.369 382.508L151.305 386.587L149.541 385.569L156.605 381.49Z" fill="#27FFF9"/>
<path d="M123.713 400.484L125.477 401.509L118.413 405.589L116.649 404.563L123.713 400.484Z" fill="#27FFF9"/>
<path d="M255.289 324.501L257.053 325.526L249.989 329.606L248.225 328.58L255.289 324.501Z" fill="#27FFF9"/>
<path d="M20.7991 344.277L20.2827 345.172L112.013 398.142L112.529 397.247L20.7991 344.277Z" fill="#27FFF9"/>
<path d="M53.7161 324.958L53.1997 325.853L144.93 378.823L145.446 377.928L53.7161 324.958Z" fill="#27FFF9"/>
<path d="M86.699 305.872L86.1826 306.767L177.913 359.737L178.429 358.843L86.699 305.872Z" fill="#27FFF9"/>
<path d="M119.686 286.793L119.169 287.688L210.9 340.658L211.416 339.763L119.686 286.793Z" fill="#27FFF9"/>
<path d="M152.403 267.901L151.89 268.789L243.62 321.759L244.133 320.871L152.403 267.901Z" fill="#27FFF9"/>
<path d="M66.7415 372.05C66.5446 372.049 66.3539 371.98 66.2016 371.855C66.0493 371.73 65.9445 371.557 65.9047 371.364C65.6484 370.112 63.8165 358.907 78.0951 350.666C85.1288 346.602 94.9821 344.068 107.368 343.125C114.463 342.59 119.566 341.376 122.981 339.401C130.422 335.103 128.349 327.826 125.952 319.389C123.396 310.401 120.494 300.214 130.822 293.428C131.161 293.202 131.508 292.991 131.87 292.787C143.238 286.219 162.312 288.564 177.646 290.449C184.483 291.286 190.386 292.01 193.982 291.686C194.096 291.674 194.21 291.684 194.32 291.716C194.429 291.749 194.531 291.803 194.619 291.875C194.708 291.947 194.781 292.036 194.834 292.137C194.888 292.237 194.921 292.348 194.931 292.461C194.942 292.575 194.93 292.69 194.895 292.798C194.861 292.907 194.806 293.008 194.732 293.095C194.659 293.182 194.568 293.254 194.467 293.306C194.365 293.358 194.254 293.389 194.141 293.398C190.371 293.745 184.34 293.006 177.435 292.154C163.156 290.397 143.6 287.991 132.722 294.272C132.397 294.461 132.073 294.657 131.764 294.86C122.491 300.953 125.092 310.084 127.603 318.921C129.985 327.283 132.443 335.925 123.833 340.886C120.192 342.99 114.847 344.279 107.489 344.837C95.359 345.749 85.7545 348.208 78.9469 352.144C65.7087 359.789 67.3446 369.886 67.5783 370.994C67.6014 371.105 67.6023 371.219 67.5809 371.329C67.5596 371.44 67.5165 371.546 67.4541 371.64C67.3916 371.734 67.3112 371.814 67.2173 371.877C67.1235 371.94 67.0181 371.983 66.9074 372.005C66.8544 372.027 66.7986 372.042 66.7415 372.05Z" fill="#39D5FF"/>
<path d="M76.8363 361.644C60.1679 361.644 43.8463 357.874 41.087 357.241C40.9711 357.22 40.8607 357.176 40.7624 357.112C40.6642 357.047 40.5803 356.963 40.516 356.864C40.4516 356.766 40.4082 356.655 40.3883 356.539C40.3685 356.423 40.3726 356.304 40.4005 356.19C40.4285 356.076 40.4796 355.968 40.5506 355.875C40.6217 355.781 40.7113 355.703 40.8138 355.645C40.9164 355.587 41.0296 355.551 41.1467 355.539C41.2637 355.527 41.3819 355.539 41.4941 355.574C45.8591 356.622 84.7144 365.512 103.795 354.489C114.644 348.109 111.862 340.69 109.178 333.512C107.248 328.331 105.243 322.955 110.61 319.773C113.965 317.835 122.183 317.511 132.594 317.164C135.059 317.081 137.615 316.991 140.223 316.87C153.22 316.275 167.657 315 176.214 310.084C185.019 304.994 186.089 296.776 179.485 284.945C179.43 284.846 179.396 284.737 179.383 284.625C179.37 284.512 179.379 284.398 179.41 284.289C179.442 284.18 179.494 284.079 179.564 283.99C179.635 283.901 179.722 283.827 179.821 283.773C179.92 283.718 180.029 283.683 180.141 283.67C180.254 283.657 180.368 283.666 180.477 283.697C180.585 283.729 180.687 283.781 180.776 283.851C180.864 283.922 180.938 284.009 180.993 284.108C188.05 296.753 186.73 305.975 177.081 311.57C168.207 316.689 153.514 318.001 140.314 318.605C137.698 318.725 135.127 318.816 132.662 318.906C122.861 319.253 114.455 319.555 111.492 321.274C107.557 323.619 108.665 327.231 110.799 332.931C113.453 340.034 116.762 348.886 104.67 355.997C97.2289 360.264 86.9836 361.644 76.8363 361.644Z" fill="#FF398A"/>
<path d="M136.371 294.401C136.371 295.909 134.252 297.107 131.644 297.107C129.035 297.107 126.909 295.893 126.909 294.401C126.909 292.908 129.028 291.686 131.644 291.686C134.26 291.686 136.371 292.908 136.371 294.401Z" fill="#FF57B3"/>
<path d="M196.945 292.252C196.945 293.111 195.731 293.805 194.231 293.805C192.731 293.805 191.517 293.111 191.517 292.252C191.517 291.392 192.731 290.698 194.231 290.698C195.731 290.698 196.945 291.392 196.945 292.252Z" fill="#39D5FF"/>
<path d="M131.704 330.933C131.704 331.793 130.49 332.486 128.997 332.486C127.505 332.486 126.283 331.793 126.283 330.933C126.283 330.073 127.497 329.387 128.997 329.387C130.498 329.387 131.704 330.081 131.704 330.933Z" fill="#39D5FF"/>
<path d="M93.2032 346.752C93.2032 347.612 91.9894 348.306 90.4892 348.306C88.9889 348.306 87.7827 347.612 87.7827 346.752C87.7827 345.893 88.9889 345.199 90.4892 345.199C91.9894 345.199 93.2032 345.893 93.2032 346.752Z" fill="#39D5FF"/>
<path d="M69.3953 371.25C69.3953 372.11 68.1815 372.804 66.6813 372.804C65.181 372.804 63.9673 372.11 63.9673 371.25C63.9673 370.391 65.1886 369.705 66.6813 369.705C68.174 369.705 69.3953 370.398 69.3953 371.25Z" fill="#39D5FF"/>
<path d="M43.9514 356.464C43.9514 357.324 42.7377 358.017 41.2375 358.017C39.7372 358.017 38.531 357.324 38.531 356.464C38.531 355.604 39.7448 354.911 41.2375 354.911C42.7301 354.911 43.9514 355.612 43.9514 356.464Z" fill="#FF398A"/>
<path d="M107.338 355.009C107.338 355.861 106.125 356.562 104.624 356.562C103.124 356.562 101.91 355.861 101.91 355.009C101.91 354.157 103.124 353.456 104.624 353.456C106.125 353.456 107.338 354.149 107.338 355.009Z" fill="#FF398A"/>
<path d="M113.829 320.535C113.829 321.394 112.616 322.088 111.115 322.088C109.615 322.088 108.409 321.394 108.409 320.535C108.409 319.675 109.6 318.951 111.108 318.951C112.616 318.951 113.829 319.705 113.829 320.535Z" fill="#FF398A"/>
<path d="M169.609 314.427C169.609 315.287 168.396 315.981 166.903 315.981C165.41 315.981 164.189 315.287 164.189 314.427C164.189 313.568 165.403 312.874 166.903 312.874C168.403 312.874 169.609 313.575 169.609 314.427Z" fill="#FF398A"/>
<path d="M183.104 284.854C183.104 285.714 181.89 286.408 180.397 286.408C178.905 286.408 177.683 285.714 177.683 284.854C177.683 283.995 178.897 283.346 180.397 283.346C181.898 283.346 183.104 284.002 183.104 284.854Z" fill="#FF398A"/>
<g opacity="0.4">
<path d="M377.983 81.0424L378.187 81.1253L377.983 81.0424Z" fill="url(#paint40_linear_210_54)"/>
<path d="M377.772 80.9443L377.968 81.0273L377.772 80.9443Z" fill="url(#paint41_linear_210_54)"/>
<path d="M377.282 80.6804L377.132 80.6125L377.282 80.6804Z" fill="url(#paint42_linear_210_54)"/>
<path d="M392.903 70.29C392.903 80.0923 386.472 84.6164 378.217 81.1328C380.16 82.0066 382.288 82.3898 384.414 82.2488L381.248 74.0601C384.384 73.766 386.525 71.044 386.525 66.6104C386.525 59.9373 381.851 51.7787 376.046 48.4007V41.0641C385.379 46.478 392.933 59.5678 392.903 70.29Z" fill="#848484"/>
<path d="M377.735 80.9218L377.509 80.8237L377.735 80.9218Z" fill="url(#paint43_linear_210_54)"/>
<path d="M377.026 80.5903L376.943 80.5447L377.026 80.5903Z" fill="url(#paint44_linear_210_54)"/>
<path d="M376.311 72.8617L376.197 72.8009L376.311 72.8617Z" fill="url(#paint45_linear_210_54)"/>
<path d="M376.008 41.0415V48.4007C370.135 45.0076 365.386 47.7221 365.371 54.4329C365.356 61.1437 370.067 69.3098 375.925 72.6652L376.053 72.7406L376.197 72.8235L376.317 72.8838L376.453 72.9592L377.086 73.2609C378.377 73.8947 379.812 74.1781 381.248 74.0827L384.421 82.2714C382.034 82.4165 379.651 81.9247 377.516 80.8463L377.365 80.7709L377.139 80.6654C377.106 80.6433 377.071 80.6256 377.033 80.6126L376.815 80.4995L376.589 80.3788L376.347 80.2506L376.151 80.1375L375.91 80.0018C366.562 74.6106 358.993 61.483 359.023 50.7458C359.053 40.0085 366.675 35.6427 376.008 41.0415Z" fill="url(#paint46_linear_210_54)"/>
<path d="M396.295 95.2934C395.405 95.268 394.534 95.0218 393.762 94.5771L357.877 75.1158C354.862 73.4946 352.449 69.536 352.464 66.3012L352.578 27.5671C352.578 25.2146 353.874 23.699 355.864 23.699C356.759 23.7314 357.631 23.9908 358.398 24.453L394.282 43.9143C397.298 45.5355 399.71 49.4941 399.695 52.7288L399.582 91.463C399.575 93.7778 398.286 95.2934 396.295 95.2934ZM355.864 24.4681C354.319 24.4681 353.354 25.6594 353.354 27.5671L353.233 66.3012C353.233 69.3173 355.495 72.9366 358.247 74.4371L394.132 93.8984C394.79 94.2829 395.533 94.498 396.295 94.5243C397.841 94.5243 398.806 93.3405 398.813 91.4328L398.926 52.6987C398.926 49.6826 396.665 46.0633 393.913 44.5628L358.028 25.1015C357.37 24.7149 356.627 24.4973 355.864 24.4681V24.4681Z" fill="#27FFF9"/>
</g>
<path d="M366.675 88.296L366.886 88.3865L366.675 88.296Z" fill="url(#paint47_linear_210_54)"/>
<path d="M366.434 88.2206L366.63 88.3035L366.434 88.2206Z" fill="url(#paint48_linear_210_54)"/>
<path d="M365.921 87.9642L365.778 87.8964L365.921 87.9642Z" fill="url(#paint49_linear_210_54)"/>
<path d="M365.25 87.6099C365.23 87.614 365.21 87.614 365.189 87.6099C365.21 87.614 365.23 87.614 365.25 87.6099V87.6099Z" fill="url(#paint50_linear_210_54)"/>
<path d="M381.564 77.5512C381.564 87.3535 375.134 91.8776 366.878 88.3865C368.825 89.2594 370.954 89.645 373.083 89.51L369.909 81.3213C373.045 81.0197 375.186 78.3052 375.186 73.8641C375.186 67.191 370.512 59.0324 364.707 55.6544V48.3253C374.04 53.7317 381.594 66.829 381.564 77.5512Z" fill="url(#paint51_linear_210_54)"/>
<path d="M366.404 88.2206L366.178 88.115L366.404 88.2206Z" fill="url(#paint52_linear_210_54)"/>
<path d="M365.696 87.8439L365.612 87.7983L365.696 87.8439Z" fill="url(#paint53_linear_210_54)"/>
<path d="M364.972 80.1154L364.866 80.0546L364.972 80.1154Z" fill="url(#paint54_linear_210_54)"/>
<path d="M364.677 48.2951V55.6544C358.812 52.2613 354.055 54.9758 354.04 61.6866C354.025 68.3974 358.744 76.5559 364.594 79.9188L364.715 79.9867L364.866 80.0696L364.979 80.13L365.114 80.2054L365.748 80.5145C367.043 81.1434 368.48 81.424 369.917 81.3289L373.091 89.5251C370.703 89.6679 368.319 89.1735 366.185 88.0924L366.027 88.017L365.808 87.9115L365.703 87.8587L365.476 87.7456L365.258 87.6249L365.016 87.4968L364.813 87.3912L364.572 87.2479C355.231 81.8567 347.655 68.7367 347.685 57.9994C347.715 47.2621 355.367 42.8963 364.677 48.2951Z" fill="url(#paint55_linear_210_54)"/>
<path d="M384.957 102.547C384.065 102.513 383.196 102.254 382.431 101.793L346.539 82.3317C343.523 80.7106 341.118 76.752 341.126 73.5172L341.246 34.7831C341.246 32.4381 342.543 30.9225 344.526 30.9225C345.424 30.9546 346.3 31.2112 347.074 31.669L382.966 51.1303C385.982 52.7514 388.387 56.7101 388.379 59.9448L388.259 98.6789C388.236 101.039 386.947 102.547 384.957 102.547ZM344.526 31.7293C342.98 31.7293 342.023 32.9131 342.015 34.8283L341.895 73.5549C341.895 76.571 344.156 80.1903 346.908 81.6908L382.793 101.152C383.451 101.538 384.194 101.755 384.957 101.786C386.464 101.786 387.467 100.594 387.475 98.6865L387.588 59.9523C387.588 56.9363 385.326 53.317 382.582 51.8164L346.689 32.3551C346.03 31.973 345.287 31.7581 344.526 31.7293V31.7293Z" fill="#27FFF9"/>
<path d="M468.148 115.999L468.14 117.786L461.951 114.212L461.958 112.425L468.148 115.999Z" fill="#27FFF9"/>
<path d="M468.593 108.805L468.45 108.768L468.593 108.805Z" fill="#52BDFF"/>
<path d="M468.45 108.768L468.163 108.692L468.45 108.768Z" fill="#52BDFF"/>
<path d="M468.118 108.677L467.854 108.602L468.118 108.677Z" fill="#52BDFF"/>
<path d="M465.087 77.8001V83.3798C460.639 80.8086 457.036 82.8671 457.021 87.904C457.006 92.9409 460.587 99.2143 464.997 101.725L465.095 101.778L465.2 101.838L465.291 101.891L465.494 101.997L465.871 102.17C468.525 103.339 470.726 102.849 471.963 101.099L476.139 106.295C474.466 108.655 471.706 109.575 468.427 108.73L468.133 108.655L467.831 108.564L467.59 108.481L467.266 108.368L467.13 108.315L466.949 108.248L466.806 108.187L466.625 108.112L466.482 108.051L466.301 107.969L466.15 107.901L465.977 107.81L465.826 107.742L465.645 107.644L465.502 107.569L465.17 107.388L464.982 107.282C457.903 103.196 452.166 93.2425 452.166 85.1066C452.166 76.9707 458.008 73.7133 465.087 77.8001Z" fill="#AF64FF"/>
<path d="M477.896 99.9758C477.896 106.551 474.126 109.967 468.909 108.881C471.993 109.522 474.571 108.579 476.162 106.332L471.985 101.137C472.74 99.9616 473.114 98.5818 473.056 97.1859C473.056 92.1264 469.505 85.9435 465.11 83.3798V77.8226C472.219 81.9245 477.918 91.855 477.896 99.9758Z" fill="#52BDFF"/>
<path d="M429.843 93.8758L429.836 95.6704L423.646 92.0963L423.654 90.3018L429.843 93.8758Z" fill="#27FFF9"/>
<path d="M439.576 77.1527C439.579 77.1046 439.579 77.0564 439.576 77.0083C439.579 77.0564 439.579 77.1046 439.576 77.1527V77.1527Z" fill="#52BDFF"/>
<path d="M426.79 55.6845V61.2643C422.342 58.6931 418.739 60.7516 418.723 65.7884C418.708 70.8253 422.289 77.0988 426.707 79.6172C431.125 82.1356 434.721 80.1073 434.736 75.0327V74.799C434.733 74.7639 434.733 74.7285 434.736 74.6934C434.736 74.324 434.736 74.2863 434.736 74.241C434.614 72.7062 434.261 71.1987 433.688 69.7697L437.88 69.4077C438.832 71.7658 439.404 74.2598 439.576 76.7971C439.579 76.8398 439.579 76.8827 439.576 76.9253C439.576 77.0234 439.576 77.0761 439.576 77.1214C439.576 77.1666 439.576 77.1892 439.576 77.2194V77.423C439.576 77.5135 439.576 77.5663 439.576 77.619V77.8302C439.576 85.9661 433.771 89.2611 426.684 85.1743C419.598 81.0875 413.868 71.1344 413.868 62.9985C413.868 54.8626 419.703 51.5902 426.79 55.6845Z" fill="#AF64FF"/>
<path d="M426.82 55.6997C433.462 59.5603 438.92 68.5181 439.531 76.3675C439.315 73.989 438.753 71.6547 437.865 69.438L433.673 69.7999C432.293 66.2862 429.738 62.9685 426.805 61.2644L426.82 55.6997Z" fill="#52BDFF"/>
<path d="M503.785 129.601L503.943 129.669L503.785 129.601Z" fill="#52BDFF"/>
<path d="M503.618 129.526L503.761 129.594L503.618 129.526Z" fill="#52BDFF"/>
<path d="M503.25 129.353L503.136 129.3L503.25 129.353Z" fill="#52BDFF"/>
<path d="M515.085 121.458C515.085 128.908 510.208 132.301 503.95 129.677C505.426 130.337 507.041 130.627 508.655 130.521L506.25 124.316C508.632 124.082 510.238 122.054 510.245 118.661C510.245 113.601 506.702 107.418 502.299 104.854V99.2972C509.386 103.399 515.108 113.33 515.085 121.458Z" fill="#52BDFF"/>
<path d="M505.338 137.473V139.26L499.141 135.686L499.148 133.899L505.338 137.473Z" fill="#27FFF9"/>
<path d="M503.588 129.511L503.423 129.436L503.588 129.511Z" fill="#52BDFF"/>
<path d="M503.053 129.262L502.993 129.224L503.053 129.262Z" fill="#52BDFF"/>
<path d="M502.511 123.404L502.427 123.358L502.511 123.404Z" fill="#52BDFF"/>
<path d="M502.284 99.2746V104.854C497.836 102.291 494.232 104.342 494.225 109.416C494.217 114.491 497.783 120.689 502.201 123.237L502.292 123.29L502.405 123.351L502.495 123.403L502.593 123.456L503.076 123.69C504.057 124.165 505.146 124.378 506.234 124.308L508.639 130.521C506.83 130.631 505.024 130.256 503.407 129.435L503.287 129.383L503.121 129.3H503.038L502.872 129.209L502.699 129.119L502.518 129.021L502.374 128.938L502.194 128.832C495.107 124.745 489.377 114.8 489.377 106.656C489.377 98.513 495.197 95.1878 502.284 99.2746Z" fill="#AF64FF"/>
<defs>
<linearGradient id="paint0_linear_210_54" x1="403.269" y1="166.518" x2="485.457" y2="213.579" gradientUnits="userSpaceOnUse">
<stop stop-color="white"/>
<stop offset="0.37" stop-color="#27FFF9"/>
<stop offset="1"/>
</linearGradient>
<linearGradient id="paint1_linear_210_54" x1="398.791" y1="165.402" x2="480.979" y2="212.456" gradientUnits="userSpaceOnUse">
<stop stop-color="white"/>
<stop offset="0.37" stop-color="#27FFF9"/>
<stop offset="1"/>
</linearGradient>
<linearGradient id="paint2_linear_210_54" x1="458.039" y1="119.211" x2="413.695" y2="271.874" gradientUnits="userSpaceOnUse">
<stop offset="0.29" stop-color="#030F42"/>
<stop offset="1" stop-color="#50C5FF"/>
</linearGradient>
<linearGradient id="paint3_linear_210_54" x1="549.96" y1="101.989" x2="334.582" y2="101.989" gradientUnits="userSpaceOnUse">
<stop stop-color="#35E4FC"/>
<stop offset="0.59" stop-color="#1B1464"/>
<stop offset="1"/>
</linearGradient>
<linearGradient id="paint4_linear_210_54" x1="72.9988" y1="77.129" x2="115.66" y2="223.986" gradientUnits="userSpaceOnUse">
<stop offset="0.29" stop-color="#030F42"/>
<stop offset="1" stop-color="#50C5FF"/>
</linearGradient>
<linearGradient id="paint5_linear_210_54" x1="0" y1="55.7072" x2="176.311" y2="55.7072" gradientUnits="userSpaceOnUse">
<stop stop-color="#35E4FC"/>
<stop offset="0.59" stop-color="#1B1464"/>
<stop offset="1"/>
</linearGradient>
<linearGradient id="paint6_linear_210_54" x1="1.32675" y1="363.182" x2="479.057" y2="363.182" gradientUnits="userSpaceOnUse">
<stop offset="0.12" stop-color="#50C5FF"/>
<stop offset="0.26" stop-color="#1251B0"/>
<stop offset="0.44" stop-color="#030F42"/>
<stop offset="0.84" stop-color="#030F42"/>
<stop offset="0.91" stop-color="#1355B7"/>
<stop offset="0.96" stop-color="#50C5FF"/>
</linearGradient>
<linearGradient id="paint7_linear_210_54" x1="1.75642" y1="360.837" x2="462.584" y2="360.837" gradientUnits="userSpaceOnUse">
<stop stop-color="#50C5FF"/>
<stop offset="0.27" stop-color="#1251B0"/>
<stop offset="0.44" stop-color="#030F42"/>
<stop offset="0.57" stop-color="#030F42"/>
<stop offset="1" stop-color="#2473C7"/>
</linearGradient>
<linearGradient id="paint8_linear_210_54" x1="317.634" y1="320.791" x2="544.397" y2="343.999" gradientUnits="userSpaceOnUse">
<stop stop-color="#1355B7"/>
<stop offset="0.47" stop-color="#030F42"/>
<stop offset="0.56" stop-color="#2C4EDD"/>
<stop offset="0.65" stop-color="#50C5FF"/>
</linearGradient>
<linearGradient id="paint9_linear_210_54" x1="28.4066" y1="245.57" x2="498.574" y2="385.101" gradientUnits="userSpaceOnUse">
<stop offset="0.12" stop-color="#50C5FF"/>
<stop offset="0.26" stop-color="#1251B0"/>
<stop offset="0.44" stop-color="#030F42"/>
<stop offset="0.84" stop-color="#030F42"/>
<stop offset="0.91" stop-color="#1355B7"/>
<stop offset="0.96" stop-color="#50C5FF"/>
</linearGradient>
<linearGradient id="paint10_linear_210_54" x1="447.409" y1="347.348" x2="105.238" y2="282.932" gradientUnits="userSpaceOnUse">
<stop stop-color="#50C5FF"/>
<stop offset="0.27" stop-color="#1251B0"/>
<stop offset="0.44" stop-color="#030F42"/>
<stop offset="1" stop-color="#030F42"/>
</linearGradient>
<linearGradient id="paint11_linear_210_54" x1="315.23" y1="142.669" x2="327.703" y2="115.94" gradientUnits="userSpaceOnUse">
<stop stop-color="#010457"/>
<stop offset="0.98" stop-color="#1F9FEA"/>
</linearGradient>
<linearGradient id="paint12_linear_210_54" x1="336.346" y1="200.585" x2="386.193" y2="200.585" gradientUnits="userSpaceOnUse">
<stop stop-color="#010457"/>
<stop offset="0.98" stop-color="#1F9FEA"/>
</linearGradient>
<linearGradient id="paint13_linear_210_54" x1="174.215" y1="201" x2="224.062" y2="201" gradientUnits="userSpaceOnUse">
<stop offset="0.02" stop-color="#1F9FEA"/>
<stop offset="1" stop-color="#010457"/>
</linearGradient>
<linearGradient id="paint14_linear_210_54" x1="200.609" y1="147.05" x2="225.698" y2="147.05" gradientUnits="userSpaceOnUse">
<stop offset="0.02" stop-color="#1F9FEA"/>
<stop offset="1" stop-color="#010457"/>
</linearGradient>
<linearGradient id="paint15_linear_210_54" x1="319.957" y1="224.405" x2="333.483" y2="217.424" gradientUnits="userSpaceOnUse">
<stop offset="0.02" stop-color="white"/>
<stop offset="1" stop-color="#27FFF9"/>
</linearGradient>
<linearGradient id="paint16_linear_210_54" x1="314.785" y1="223.59" x2="322.771" y2="245.177" gradientUnits="userSpaceOnUse">
<stop offset="0.02" stop-color="white"/>
<stop offset="1" stop-color="#27FFF9"/>
</linearGradient>
<linearGradient id="paint17_linear_210_54" x1="239.939" y1="255.553" x2="226.413" y2="248.581" gradientUnits="userSpaceOnUse">
<stop offset="0.02" stop-color="white"/>
<stop offset="1" stop-color="#27FFF9"/>
</linearGradient>
<linearGradient id="paint18_linear_210_54" x1="245.111" y1="254.739" x2="237.125" y2="276.326" gradientUnits="userSpaceOnUse">
<stop offset="0.02" stop-color="white"/>
<stop offset="1" stop-color="#27FFF9"/>
</linearGradient>
<linearGradient id="paint19_linear_210_54" x1="253.509" y1="140.452" x2="247.159" y2="123.879" gradientUnits="userSpaceOnUse">
<stop offset="0.02" stop-color="white"/>
<stop offset="1" stop-color="#27FFF9"/>
</linearGradient>
<linearGradient id="paint20_linear_210_54" x1="260.046" y1="147.577" x2="266.493" y2="129.519" gradientUnits="userSpaceOnUse">
<stop offset="0.02" stop-color="white"/>
<stop offset="1" stop-color="#27FFF9"/>
</linearGradient>
<linearGradient id="paint21_linear_210_54" x1="312.169" y1="219.398" x2="394.358" y2="266.451" gradientUnits="userSpaceOnUse">
<stop stop-color="white"/>
<stop offset="0.37" stop-color="#27FFF9"/>
<stop offset="1" stop-color="white" stop-opacity="0"/>
</linearGradient>
<linearGradient id="paint22_linear_210_54" x1="247.742" y1="250.554" x2="165.554" y2="297.607" gradientUnits="userSpaceOnUse">
<stop stop-color="white"/>
<stop offset="0.37" stop-color="#27FFF9"/>
<stop offset="1"/>
</linearGradient>
<linearGradient id="paint23_linear_210_54" x1="252.974" y1="138.484" x2="252.974" y2="65.7734" gradientUnits="userSpaceOnUse">
<stop stop-color="white"/>
<stop offset="0.37" stop-color="#27FFF9"/>
<stop offset="1" stop-color="white" stop-opacity="0"/>
</linearGradient>
<linearGradient id="paint24_linear_210_54" x1="279.985" y1="339.604" x2="279.985" y2="412.315" gradientUnits="userSpaceOnUse">
<stop stop-color="white"/>
<stop offset="0.37" stop-color="#27FFF9"/>
<stop offset="1" stop-color="white" stop-opacity="0"/>
</linearGradient>
<linearGradient id="paint25_linear_210_54" x1="330.88" y1="304.225" x2="413.069" y2="351.279" gradientUnits="userSpaceOnUse">
<stop stop-color="white"/>
<stop offset="0.37" stop-color="#27FFF9"/>
<stop offset="1" stop-color="white" stop-opacity="0"/>
</linearGradient>
<linearGradient id="paint26_linear_210_54" x1="398.836" y1="245.608" x2="433.857" y2="265.659" gradientUnits="userSpaceOnUse">
<stop stop-color="white"/>
<stop offset="0.37" stop-color="#27FFF9"/>
<stop offset="1" stop-color="white" stop-opacity="0"/>
</linearGradient>
<linearGradient id="paint27_linear_210_54" x1="258.108" y1="22.9902" x2="293.129" y2="43.0417" gradientUnits="userSpaceOnUse">
<stop stop-color="white"/>
<stop offset="0.37" stop-color="#27FFF9"/>
<stop offset="1" stop-color="white" stop-opacity="0"/>
</linearGradient>
<linearGradient id="paint28_linear_210_54" x1="148.576" y1="52.0728" x2="113.17" y2="72.3429" gradientUnits="userSpaceOnUse">
<stop stop-color="white"/>
<stop offset="0.37" stop-color="#27FFF9"/>
<stop offset="1" stop-color="white" stop-opacity="0"/>
</linearGradient>
<linearGradient id="paint29_linear_210_54" x1="413.039" y1="286.355" x2="417.856" y2="286.355" gradientUnits="userSpaceOnUse">
<stop stop-color="#FF9CC4"/>
<stop offset="1" stop-color="#CE19DD"/>
</linearGradient>
<linearGradient id="paint30_linear_210_54" x1="440.692" y1="302.65" x2="445.517" y2="302.65" gradientUnits="userSpaceOnUse">
<stop stop-color="#FF9CC4"/>
<stop offset="1" stop-color="#CE19DD"/>
</linearGradient>
<linearGradient id="paint31_linear_210_54" x1="468.351" y1="318.951" x2="473.176" y2="318.951" gradientUnits="userSpaceOnUse">
<stop stop-color="#FF9CC4"/>
<stop offset="1" stop-color="#CE19DD"/>
</linearGradient>
<linearGradient id="paint32_linear_210_54" x1="496.004" y1="335.253" x2="500.829" y2="335.253" gradientUnits="userSpaceOnUse">
<stop stop-color="#FF9CC4"/>
<stop offset="1" stop-color="#CE19DD"/>
</linearGradient>
<linearGradient id="paint33_linear_210_54" x1="370.271" y1="370.677" x2="365.446" y2="370.677" gradientUnits="userSpaceOnUse">
<stop stop-color="#FF9CC4"/>
<stop offset="1" stop-color="#CE19DD"/>
</linearGradient>
<linearGradient id="paint34_linear_210_54" x1="342.611" y1="386.979" x2="337.793" y2="386.979" gradientUnits="userSpaceOnUse">
<stop stop-color="#FF9CC4"/>
<stop offset="1" stop-color="#CE19DD"/>
</linearGradient>
<linearGradient id="paint35_linear_210_54" x1="314.958" y1="403.281" x2="310.134" y2="403.281" gradientUnits="userSpaceOnUse">
<stop stop-color="#FF9CC4"/>
<stop offset="1" stop-color="#CE19DD"/>
</linearGradient>
<linearGradient id="paint36_linear_210_54" x1="287.298" y1="419.576" x2="282.473" y2="419.576" gradientUnits="userSpaceOnUse">
<stop stop-color="#FF9CC4"/>
<stop offset="1" stop-color="#CE19DD"/>
</linearGradient>
<linearGradient id="paint37_linear_210_54" x1="82.4974" y1="238.927" x2="104.865" y2="238.927" gradientUnits="userSpaceOnUse">
<stop stop-color="#E7358A"/>
<stop offset="1" stop-color="#EC6D1C"/>
</linearGradient>
<linearGradient id="paint38_linear_210_54" x1="214.722" y1="85.4911" x2="189.814" y2="85.4911" gradientUnits="userSpaceOnUse">
<stop stop-color="#E7358A"/>
<stop offset="1" stop-color="#EC6D1C"/>
</linearGradient>
<linearGradient id="paint39_linear_210_54" x1="120.041" y1="304.836" x2="154.154" y2="344.997" gradientUnits="userSpaceOnUse">
<stop stop-color="#3B73FF" stop-opacity="0.4"/>
<stop offset="1" stop-color="white" stop-opacity="0"/>
</linearGradient>
<linearGradient id="paint40_linear_210_54" x1="378.202" y1="81.0876" x2="377.998" y2="81.0876" gradientUnits="userSpaceOnUse">
<stop stop-color="#FA39FF"/>
<stop offset="1" stop-color="#FF57B3"/>
</linearGradient>
<linearGradient id="paint41_linear_210_54" x1="377.968" y1="80.982" x2="377.772" y2="80.982" gradientUnits="userSpaceOnUse">
<stop stop-color="#FA39FF"/>
<stop offset="1" stop-color="#FF57B3"/>
</linearGradient>
<linearGradient id="paint42_linear_210_54" x1="377.282" y1="80.6729" x2="377.132" y2="80.6729" gradientUnits="userSpaceOnUse">
<stop stop-color="#FA39FF"/>
<stop offset="1" stop-color="#FF57B3"/>
</linearGradient>
<linearGradient id="paint43_linear_210_54" x1="377.735" y1="80.8765" x2="377.516" y2="80.8765" gradientUnits="userSpaceOnUse">
<stop stop-color="#FA39FF"/>
<stop offset="1" stop-color="#FF57B3"/>
</linearGradient>
<linearGradient id="paint44_linear_210_54" x1="377.026" y1="80.5675" x2="376.943" y2="80.5675" gradientUnits="userSpaceOnUse">
<stop stop-color="#FA39FF"/>
<stop offset="1" stop-color="#FF57B3"/>
</linearGradient>
<linearGradient id="paint45_linear_210_54" x1="376.311" y1="72.8313" x2="376.197" y2="72.8313" gradientUnits="userSpaceOnUse">
<stop stop-color="#FA39FF"/>
<stop offset="1" stop-color="#FF57B3"/>
</linearGradient>
<linearGradient id="paint46_linear_210_54" x1="372.902" y1="51.3867" x2="371.311" y2="71.1118" gradientUnits="userSpaceOnUse">
<stop stop-color="#39D5FF"/>
<stop offset="1" stop-color="#3B73FF"/>
</linearGradient>
<linearGradient id="paint47_linear_210_54" x1="366.871" y1="88.3413" x2="366.66" y2="88.3413" gradientUnits="userSpaceOnUse">
<stop stop-color="#FA39FF"/>
<stop offset="1" stop-color="#FF57B3"/>
</linearGradient>
<linearGradient id="paint48_linear_210_54" x1="366.63" y1="88.2432" x2="366.434" y2="88.2432" gradientUnits="userSpaceOnUse">
<stop stop-color="#FA39FF"/>
<stop offset="1" stop-color="#FF57B3"/>
</linearGradient>
<linearGradient id="paint49_linear_210_54" x1="365.944" y1="87.9341" x2="365.801" y2="87.9341" gradientUnits="userSpaceOnUse">
<stop stop-color="#FA39FF"/>
<stop offset="1" stop-color="#FF57B3"/>
</linearGradient>
<linearGradient id="paint50_linear_210_54" x1="365.25" y1="87.5947" x2="365.189" y2="87.5947" gradientUnits="userSpaceOnUse">
<stop stop-color="#FA39FF"/>
<stop offset="1" stop-color="#FF57B3"/>
</linearGradient>
<linearGradient id="paint51_linear_210_54" x1="381.564" y1="68.9403" x2="364.7" y2="68.9403" gradientUnits="userSpaceOnUse">
<stop stop-color="#FA39FF"/>
<stop offset="1" stop-color="#FF57B3"/>
</linearGradient>
<linearGradient id="paint52_linear_210_54" x1="366.404" y1="88.1301" x2="366.178" y2="88.1301" gradientUnits="userSpaceOnUse">
<stop stop-color="#FA39FF"/>
<stop offset="1" stop-color="#FF57B3"/>
</linearGradient>
<linearGradient id="paint53_linear_210_54" x1="365.696" y1="87.8211" x2="365.612" y2="87.8211" gradientUnits="userSpaceOnUse">
<stop stop-color="#FA39FF"/>
<stop offset="1" stop-color="#FF57B3"/>
</linearGradient>
<linearGradient id="paint54_linear_210_54" x1="364.972" y1="80.085" x2="364.866" y2="80.085" gradientUnits="userSpaceOnUse">
<stop stop-color="#FA39FF"/>
<stop offset="1" stop-color="#FF57B3"/>
</linearGradient>
<linearGradient id="paint55_linear_210_54" x1="361.564" y1="58.6403" x2="359.972" y2="78.3655" gradientUnits="userSpaceOnUse">
<stop stop-color="#F6A509"/>
<stop offset="0.75" stop-color="#E84E1B"/>
</linearGradient>
</defs>
</svg>
