<svg id="Шар_1" data-name="Шар 1" xmlns="http://www.w3.org/2000/svg" xmlns:xlink="http://www.w3.org/1999/xlink" viewBox="0 0 500 222"><defs><style>.cls-1{fill:url(#Градієнт_без_назви_42);}</style><linearGradient id="Градієнт_без_назви_42" x1="59.3" y1="122.56" x2="162.7" y2="122.56" gradientUnits="userSpaceOnUse"><stop offset="0" stop-color="#52f1ff"/><stop offset="1" stop-color="#ff0eff"/></linearGradient></defs><path class="cls-1" d="M114.11,151.7c-12.47,0-19.69-14.13-26.67-27.8-5.65-11-11.48-22.46-18.3-22.46v-8c11.73,0,18.7,13.64,25.44,26.83,5.88,11.52,12,23.43,19.53,23.43s13.58-11.87,19.43-23.35c6.75-13.23,13.72-26.91,25.54-26.91v8c-6.91,0-12.74,11.46-18.39,22.53C133.75,137.6,126.56,151.7,114.11,151.7Z" fill="#ffffff"/><path d="M168.27,131.18c0,3.72.93,6.61,2.79,8.65s4.5,3.07,7.93,3.07c.9,0,2.68-.07,5.36-.22.9,0,1.34.41,1.34,1.23v5.92a1.16,1.16,0,0,1-1.11,1.34c-2.69.15-4.69.22-6,.22q-8.82,0-14.13-4.91t-5.3-14.86V79.57a1.18,1.18,0,0,1,1.34-1.34h5.8q1,0,1.23,1.23L168.27,93h14.52A1.09,1.09,0,0,1,184,94.2v5.59c0,.89-.41,1.34-1.23,1.34H168.27Z"  fill="#ffffff"/><path d="M194.4,97q8.49-5.81,21.12-5.81,10.48,0,16.36,5.53t5.86,16.14v33.51a1.38,1.38,0,0,1-1,1.45,62.76,62.76,0,0,1-21.56,3.57q-10.4,0-17.2-4.46t-6.82-13.86q0-8.59,6.48-13.17t17.54-4.59a77.65,77.65,0,0,1,13.4,1.35v-3.58q0-6.93-3.12-10.28t-10.28-3.35a30.31,30.31,0,0,0-15.86,4.14,1.08,1.08,0,0,1-1.68-.34l-3.24-4.69Q193.85,97.56,194.4,97Zm5.92,36.07a8.45,8.45,0,0,0,4.08,7.55q4.08,2.61,10.78,2.62a46.37,46.37,0,0,0,13.4-2V124.47a73.11,73.11,0,0,0-13.4-1.33Q200.32,123.14,200.32,133.07Z" fill="#ffffff"/><path d="M275.16,151.06a53.72,53.72,0,0,1-6.26.33q-8,0-12.45-5.3T252,130.84V71.53c0-.82.45-1.23,1.34-1.23H260a1.09,1.09,0,0,1,1.23,1.23V131q0,6.38,2.17,9.22c1.46,1.9,3.64,2.84,6.54,2.84a41.41,41.41,0,0,0,5-.33c.89,0,1.33.41,1.33,1.23v5.7A1.3,1.3,0,0,1,275.16,151.06Z" fill="#ffffff"/><path d="M330.78,150.16h-8.26a2.13,2.13,0,0,1-1.68-.78l-21.22-25.8-5.7,5.47v19.88c0,.82-.44,1.23-1.34,1.23H286a1.09,1.09,0,0,1-1.23-1.23V71.53A1.09,1.09,0,0,1,286,70.3h6.59c.9,0,1.34.41,1.34,1.23v46.24l25.25-24.68a1.9,1.9,0,0,1,1.56-.67h8.15c.53,0,.84.16.95.5a1,1,0,0,1-.39,1.06l-23.68,23.35,25.69,31.27C332.2,149.64,332,150.16,330.78,150.16Z"  fill="#ffffff"/><path d="M350.33,144.58a5.92,5.92,0,0,1-6.15,6.14,5.88,5.88,0,0,1-4.46-1.73,6.06,6.06,0,0,1-1.68-4.41,6.21,6.21,0,0,1,1.68-4.52,5.89,5.89,0,0,1,4.46-1.74,6,6,0,0,1,4.42,1.74A6.12,6.12,0,0,1,350.33,144.58Z"  fill="#ffffff"/><path d="M362.73,97q8.47-5.81,21.11-5.81,10.5,0,16.36,5.53t5.87,16.14v33.51a1.39,1.39,0,0,1-1,1.45,62.72,62.72,0,0,1-21.56,3.57q-10.38,0-17.2-4.46t-6.81-13.86q0-8.59,6.48-13.17t17.53-4.59a77.85,77.85,0,0,1,13.41,1.35v-3.58q0-6.93-3.13-10.28T383.5,99.45a30.33,30.33,0,0,0-15.86,4.14,1.07,1.07,0,0,1-1.67-.34l-3.24-4.69Q362.16,97.56,362.73,97Zm5.92,36.07a8.44,8.44,0,0,0,4.07,7.55q4.08,2.61,10.78,2.62a46.49,46.49,0,0,0,13.41-2V124.47a73.29,73.29,0,0,0-13.41-1.33Q368.65,123.14,368.65,133.07Z"  fill="#ffffff"/><path d="M430.86,76.22a5.35,5.35,0,0,1-5.47,5.48,5.51,5.51,0,0,1-4-1.57,5.53,5.53,0,0,1,0-7.82,5.5,5.5,0,0,1,4-1.56,5.44,5.44,0,0,1,3.91,1.5A5.28,5.28,0,0,1,430.86,76.22Zm-2.23,73.94H422c-.89,0-1.33-.41-1.33-1.23V93.76A1.18,1.18,0,0,1,422,92.42h6.6c.82,0,1.23.44,1.23,1.34v55.17A1.09,1.09,0,0,1,428.63,150.16Z"  fill="#ffffff"/></svg>