<svg width="126" height="29" viewBox="0 0 126 29" fill="none" xmlns="http://www.w3.org/2000/svg">
<path d="M15.6645 28.1564C11.3208 28.1564 8.80582 23.2694 6.37447 18.5415C4.40639 14.7371 2.37562 10.7736 0 10.7736V8.00671C4.08593 8.00671 6.5138 12.7242 8.86155 17.2861C10.9097 21.2704 13.0415 25.3895 15.6645 25.3895C18.2874 25.3895 20.3948 21.2842 22.4325 17.3137C24.7838 12.738 27.2116 8.00671 31.3289 8.00671V10.7736C28.922 10.7736 26.8912 14.7371 24.9231 18.5658C22.5057 23.2798 20.0012 28.1564 15.6645 28.1564Z" fill="url(#paint0_linear_48_97)"/>
<path d="M34.53 21.0594C34.53 22.346 34.8539 23.3455 35.5018 24.0511C36.1497 24.7566 37.0693 25.1128 38.2641 25.1128C38.5776 25.1128 39.1976 25.0886 40.1311 25.0368C40.4446 25.0368 40.5979 25.1786 40.5979 25.4622V27.5096C40.6068 27.5659 40.6036 27.6233 40.5884 27.6782C40.5733 27.7331 40.5465 27.7842 40.5099 27.828C40.4734 27.8719 40.4278 27.9075 40.3763 27.9325C40.3248 27.9575 40.2686 27.9713 40.2113 27.9731C39.2742 28.025 38.5776 28.0492 38.1213 28.0492C36.0731 28.0492 34.4324 27.4831 33.1993 26.351C31.9662 25.2189 31.3509 23.5058 31.3532 21.2116V3.20966C31.3438 3.14665 31.3494 3.08233 31.3695 3.02184C31.3897 2.96136 31.4238 2.9064 31.4691 2.86135C31.5145 2.81631 31.5699 2.78244 31.6308 2.76244C31.6917 2.74245 31.7565 2.73689 31.8199 2.74622H33.8403C34.0725 2.74622 34.2153 2.88802 34.2687 3.17162L34.53 7.85454H39.5877C39.6444 7.84797 39.7018 7.85416 39.7557 7.87265C39.8096 7.89113 39.8586 7.92144 39.8991 7.96131C39.9396 8.00118 39.9705 8.0496 39.9896 8.10296C40.0086 8.15633 40.0154 8.21327 40.0092 8.26956V10.2029C40.0092 10.5107 39.8664 10.6664 39.5808 10.6664H34.53V21.0594Z" fill="white"/>
<path d="M43.6319 9.23801C45.6035 7.89839 48.0558 7.22858 50.9887 7.22858C53.4224 7.22858 55.322 7.86611 56.6874 9.14117C58.0529 10.4162 58.7333 12.2769 58.7286 14.7233V26.313C58.7385 26.4238 58.7091 26.5345 58.6455 26.6261C58.5819 26.7177 58.4881 26.7843 58.3803 26.8145C55.9689 27.659 53.4271 28.0769 50.8703 28.0492C48.4552 28.0492 46.4581 27.535 44.879 26.5067C43.2999 25.4783 42.508 23.8805 42.5034 21.7131C42.5034 19.7325 43.2558 18.2142 44.7605 17.1582C46.2653 16.1021 48.3019 15.573 50.8703 15.5707C52.4368 15.5918 53.9986 15.748 55.5379 16.0376V14.7994C55.5379 13.2015 55.1757 12.0164 54.4511 11.244C53.7266 10.4716 52.533 10.0854 50.8703 10.0854C48.9313 10.0498 47.0199 10.5452 45.3457 11.5172C45.3022 11.5549 45.2506 11.5821 45.1948 11.5967C45.139 11.6114 45.0805 11.6131 45.0239 11.6017C44.9674 11.5904 44.9142 11.5662 44.8685 11.5312C44.8228 11.4961 44.7859 11.4511 44.7605 11.3996L43.6319 9.77755C43.5042 9.54698 43.5042 9.36713 43.6319 9.23801ZM45.6941 21.7131C45.6745 22.2347 45.796 22.752 46.046 23.2112C46.2959 23.6704 46.6651 24.0548 47.1153 24.3243C48.0627 24.9261 49.3144 25.2282 50.8703 25.2305C52.4519 25.2281 54.0245 24.995 55.5379 24.5388V18.7387C53.9996 18.4432 52.4371 18.2892 50.8703 18.2787C47.4195 18.2787 45.6941 19.4235 45.6941 21.7131Z" fill="white"/>
<path d="M71.7633 27.9351C71.0393 28.0152 70.3112 28.0534 69.5827 28.0492C67.725 28.0492 66.2794 27.4382 65.246 26.2162C64.2126 24.9941 63.6959 23.236 63.6959 20.9418V0.429011C63.6959 0.145408 63.8527 0.00360771 64.1627 0.00360771H66.4826C66.5407 -0.00443902 66.6 0.00101752 66.6557 0.0195507C66.7113 0.0380838 66.7619 0.0691881 66.8034 0.110416C66.845 0.151645 66.8763 0.201875 66.895 0.257156C66.9136 0.312438 66.9191 0.371264 66.911 0.429011V20.9972C66.911 22.4682 67.163 23.5312 67.6669 24.186C68.1755 24.8431 68.9348 25.1682 69.945 25.1682C70.5273 25.1651 71.1089 25.127 71.6866 25.0541C71.9967 25.0541 72.1499 25.1959 72.1499 25.4795V27.4509C72.16 27.5654 72.1256 27.6793 72.0537 27.7694C71.9817 27.8594 71.8778 27.9187 71.7633 27.9351Z" fill="white"/>
<path d="M91.1375 27.6238H88.2603C88.1486 27.6255 88.0379 27.6021 87.9366 27.5554C87.8353 27.5087 87.7459 27.4399 87.6751 27.354L80.2835 18.4309L78.298 20.3228V27.1984C78.298 27.482 78.1447 27.6238 77.8312 27.6238H75.5392C75.481 27.6319 75.4218 27.6264 75.3661 27.6079C75.3104 27.5893 75.2599 27.5582 75.2183 27.517C75.1768 27.4758 75.1455 27.4255 75.1268 27.3703C75.1081 27.315 75.1026 27.2562 75.1107 27.1984V0.429011C75.1026 0.371264 75.1081 0.312438 75.1268 0.257156C75.1455 0.201875 75.1768 0.151645 75.2183 0.110416C75.2599 0.0691881 75.3104 0.0380838 75.3661 0.0195507C75.4218 0.00101751 75.481 -0.00443902 75.5392 0.00360771H77.8347C78.1482 0.00360771 78.3015 0.145408 78.3015 0.429011V16.4215L87.0968 7.88571C87.1631 7.80789 87.2467 7.74644 87.341 7.70623C87.4353 7.66601 87.5378 7.64812 87.6402 7.65398H90.4791C90.6638 7.65398 90.7717 7.70932 90.81 7.82691C90.8273 7.89449 90.8235 7.96566 90.7992 8.03108C90.775 8.0965 90.7314 8.15312 90.6742 8.19352L82.4257 16.2693L91.3743 27.0843C91.6321 27.444 91.5624 27.6238 91.1375 27.6238Z" fill="white"/>
<path d="M97.9473 25.6939C97.9581 25.976 97.91 26.2572 97.8061 26.5199C97.7022 26.7826 97.5448 27.0212 97.3436 27.2206C97.1424 27.42 96.9019 27.576 96.6371 27.6787C96.3724 27.7814 96.0891 27.8287 95.805 27.8175C95.5183 27.8314 95.2319 27.7854 94.9642 27.6823C94.6966 27.5792 94.4538 27.4214 94.2515 27.2192C94.0562 27.0167 93.9037 26.7774 93.8032 26.5154C93.7027 26.2535 93.6561 25.9741 93.6663 25.6939C93.6539 25.4078 93.6993 25.1221 93.7998 24.8536C93.9003 24.5851 94.0539 24.3393 94.2515 24.1307C94.4536 23.928 94.6963 23.7697 94.9639 23.666C95.2315 23.5623 95.5181 23.5156 95.805 23.5289C96.0894 23.5199 96.3726 23.5686 96.6374 23.672C96.9021 23.7755 97.1428 23.9316 97.3447 24.1307C97.5469 24.3369 97.7046 24.5819 97.8082 24.8506C97.9118 25.1194 97.9592 25.4064 97.9473 25.6939Z" fill="white"/>
<path d="M102.267 9.23801C104.233 7.89839 106.685 7.22858 109.62 7.22858C112.058 7.22858 113.958 7.86611 115.319 9.14117C116.679 10.4162 117.361 12.2769 117.363 14.7233V26.313C117.372 26.4237 117.343 26.5341 117.279 26.6255C117.216 26.717 117.122 26.7837 117.015 26.8145C114.604 27.6593 112.062 28.0772 109.505 28.0492C107.094 28.0492 105.097 27.535 103.514 26.5067C101.93 25.4783 101.139 23.8805 101.141 21.7131C101.141 19.7325 101.894 18.2142 103.399 17.1582C104.903 16.1021 106.939 15.573 109.505 15.5707C111.073 15.5919 112.635 15.7482 114.176 16.0376V14.7994C114.176 13.2015 113.813 12.0164 113.086 11.244C112.359 10.4716 111.164 10.0854 109.501 10.0854C107.562 10.0502 105.651 10.5455 103.977 11.5172C103.934 11.5549 103.882 11.5821 103.827 11.5968C103.771 11.6114 103.713 11.6131 103.657 11.6017C103.6 11.5903 103.547 11.5662 103.502 11.5311C103.457 11.4961 103.42 11.451 103.395 11.3996L102.267 9.77755C102.134 9.54698 102.134 9.36713 102.267 9.23801ZM104.329 21.7131C104.308 22.2344 104.429 22.7516 104.679 23.2109C104.928 23.6701 105.297 24.0546 105.746 24.3243C106.694 24.9261 107.945 25.2282 109.501 25.2305C111.084 25.2278 112.658 24.9947 114.173 24.5388V18.7387C112.633 18.4433 111.069 18.2893 109.501 18.2787C106.053 18.2787 104.329 19.4235 104.329 21.7131Z" fill="white"/>
<path d="M125.999 2.05104C126.005 2.30132 125.96 2.55024 125.866 2.78274C125.773 3.01524 125.633 3.22648 125.454 3.40367C125.276 3.58086 125.064 3.72031 124.83 3.81359C124.596 3.90687 124.345 3.95203 124.093 3.94633C123.836 3.95311 123.58 3.90854 123.341 3.81526C123.102 3.72198 122.884 3.5819 122.7 3.40334C122.339 3.04467 122.136 2.55824 122.136 2.05104C122.136 1.54383 122.339 1.0574 122.7 0.69873C122.884 0.520629 123.102 0.381082 123.341 0.288393C123.581 0.195704 123.836 0.151766 124.093 0.159192C124.343 0.152034 124.593 0.194197 124.826 0.283242C125.06 0.372288 125.274 0.506451 125.455 0.677979C125.637 0.856732 125.779 1.07117 125.873 1.3076C125.966 1.54402 126.009 1.79723 125.999 2.05104ZM125.222 27.6238H122.912C122.602 27.6238 122.449 27.482 122.449 27.1984V8.11738C122.44 8.0547 122.445 7.99073 122.465 7.93055C122.485 7.87037 122.519 7.81563 122.564 7.77066C122.609 7.72569 122.664 7.69173 122.724 7.67147C122.785 7.65121 122.849 7.64521 122.912 7.65393H125.211C125.497 7.65393 125.64 7.80611 125.64 8.11738V27.1984C125.648 27.2551 125.642 27.3129 125.624 27.3673C125.606 27.4217 125.576 27.4713 125.535 27.5123C125.495 27.5533 125.446 27.5847 125.391 27.604C125.337 27.6233 125.279 27.6301 125.222 27.6238Z" fill="white"/>
<defs>
<linearGradient id="paint0_linear_48_97" x1="-3.42758" y1="18.0781" x2="32.5899" y2="18.0781" gradientUnits="userSpaceOnUse">
<stop stop-color="#52F1FF"/>
<stop offset="1" stop-color="#FF0EFF"/>
</linearGradient>
</defs>
</svg>
